<svg width="64" height="9" viewBox="0 0 64 9" fill="none" xmlns="http://www.w3.org/2000/svg">
<path d="M49.648 8.24093L51.4145 5.14961C51.4526 5.08295 51.4045 5 51.3277 5H0.1C0.0447715 5 0 4.95523 0 4.9V3.6C0 3.54477 0.0447712 3.5 0.0999996 3.5H51.3277C51.4045 3.5 51.4526 3.41705 51.4145 3.35039L49.6341 0.234708C49.5881 0.1541 49.6671 0.0596948 49.7546 0.0909205L56.5 2.5L63.0437 3.90222C63.1491 3.9248 63.1491 4.0752 63.0437 4.09778L56.5095 5.49796C56.5032 5.49932 56.497 5.50128 56.4911 5.50383L49.7743 8.38246C49.6861 8.42025 49.6004 8.32423 49.648 8.24093Z" fill="#BAA280"/>
</svg>
