<svg width="11" height="12" viewBox="0 0 11 12" fill="none" xmlns="http://www.w3.org/2000/svg">
<path d="M10.7898 0.710421C10.6551 0.57569 10.4725 0.5 10.2822 0.5H7.51997C7.12354 0.5 6.80212 0.821647 6.80212 1.21835C6.80212 1.61506 7.12354 1.93671 7.51997 1.93671H8.54918L4.46646 6.02228C4.18615 6.30279 4.18615 6.75763 4.46646 7.03815C4.60662 7.1784 4.79033 7.24857 4.97404 7.24857C5.15775 7.24857 5.34146 7.1784 5.48162 7.03815L9.56441 2.9525V3.9825C9.56441 4.37921 9.88576 4.70086 10.2823 4.70086C10.6788 4.70086 11.0001 4.37921 11.0001 3.9825V1.21835C11.0001 1.0278 10.9245 0.845151 10.7898 0.710421H10.7898Z" fill="#AC7746"/>
<path d="M9.22246 5.57871C8.82603 5.57871 8.50461 5.90028 8.50461 6.29706V10.0635H1.43563V2.98944H5.19944C5.59587 2.98944 5.9173 2.6678 5.9173 2.27109C5.9173 1.87438 5.59594 1.55273 5.19944 1.55273H0.717852C0.321422 1.5528 0 1.87445 0 2.27116V10.7818C0 11.1785 0.321422 11.5001 0.717852 11.5001H9.22253C9.61896 11.5001 9.94038 11.1785 9.94038 10.7818V6.29706C9.94038 5.90035 9.61896 5.57871 9.22253 5.57871H9.22246Z" fill="#AC7746"/>
</svg>
