<svg width="16" height="17" viewBox="0 0 16 17" fill="none" xmlns="http://www.w3.org/2000/svg">
<g clip-path="url(#clip0_572_10141)">
<path d="M14.0764 2.24512H1.92355C1.21056 2.24512 0.632568 2.80254 0.632568 3.49016V15.1448C0.632568 15.8324 1.21056 16.3898 1.92355 16.3898H14.0764C14.7894 16.3898 15.3674 15.8324 15.3674 15.1448V3.49016C15.3674 2.80254 14.7894 2.24512 14.0764 2.24512Z" stroke="#535353" stroke-miterlimit="10"/>
<path d="M4.4435 0.510254H4.42182C3.83505 0.510254 3.35938 0.968999 3.35938 1.53489V3.03109C3.35938 3.59698 3.83505 4.05573 4.42182 4.05573H4.4435C5.03027 4.05573 5.50594 3.59698 5.50594 3.03109V1.53489C5.50594 0.968999 5.03027 0.510254 4.4435 0.510254Z" stroke="#535353" stroke-miterlimit="10"/>
<path d="M11.3023 0.510254H11.2806C10.6938 0.510254 10.2181 0.968999 10.2181 1.53489V3.03109C10.2181 3.59698 10.6938 4.05573 11.2806 4.05573H11.3023C11.889 4.05573 12.3647 3.59698 12.3647 3.03109V1.53489C12.3647 0.968999 11.889 0.510254 11.3023 0.510254Z" stroke="#535353" stroke-miterlimit="10"/>
<path d="M0.494507 5.91211H15.2295" stroke="#535353" stroke-miterlimit="10"/>
<path d="M6.5175 9.37683C6.96444 9.37683 7.32675 9.02741 7.32675 8.59637C7.32675 8.16534 6.96444 7.81592 6.5175 7.81592C6.07057 7.81592 5.70825 8.16534 5.70825 8.59637C5.70825 9.02741 6.07057 9.37683 6.5175 9.37683Z" fill="#535353"/>
<path d="M9.48247 9.37683C9.9294 9.37683 10.2917 9.02741 10.2917 8.59637C10.2917 8.16534 9.9294 7.81592 9.48247 7.81592C9.03553 7.81592 8.67322 8.16534 8.67322 8.59637C8.67322 9.02741 9.03553 9.37683 9.48247 9.37683Z" fill="#535353"/>
<path d="M12.4473 9.37683C12.8942 9.37683 13.2566 9.02741 13.2566 8.59637C13.2566 8.16534 12.8942 7.81592 12.4473 7.81592C12.0004 7.81592 11.6381 8.16534 11.6381 8.59637C11.6381 9.02741 12.0004 9.37683 12.4473 9.37683Z" fill="#535353"/>
<path d="M3.55266 11.8929C3.99959 11.8929 4.36191 11.5435 4.36191 11.1125C4.36191 10.6815 3.99959 10.332 3.55266 10.332C3.10572 10.332 2.74341 10.6815 2.74341 11.1125C2.74341 11.5435 3.10572 11.8929 3.55266 11.8929Z" fill="#535353"/>
<path d="M6.5175 11.8929C6.96444 11.8929 7.32675 11.5435 7.32675 11.1125C7.32675 10.6815 6.96444 10.332 6.5175 10.332C6.07057 10.332 5.70825 10.6815 5.70825 11.1125C5.70825 11.5435 6.07057 11.8929 6.5175 11.8929Z" fill="#535353"/>
<path d="M9.48247 11.8929C9.9294 11.8929 10.2917 11.5435 10.2917 11.1125C10.2917 10.6815 9.9294 10.332 9.48247 10.332C9.03553 10.332 8.67322 10.6815 8.67322 11.1125C8.67322 11.5435 9.03553 11.8929 9.48247 11.8929Z" fill="#535353"/>
<path d="M12.4473 11.8929C12.8942 11.8929 13.2566 11.5435 13.2566 11.1125C13.2566 10.6815 12.8942 10.332 12.4473 10.332C12.0004 10.332 11.6381 10.6815 11.6381 11.1125C11.6381 11.5435 12.0004 11.8929 12.4473 11.8929Z" fill="#535353"/>
<path d="M3.55266 14.4091C3.99959 14.4091 4.36191 14.0596 4.36191 13.6286C4.36191 13.1976 3.99959 12.8481 3.55266 12.8481C3.10572 12.8481 2.74341 13.1976 2.74341 13.6286C2.74341 14.0596 3.10572 14.4091 3.55266 14.4091Z" fill="#535353"/>
<path d="M6.5175 14.4091C6.96444 14.4091 7.32675 14.0596 7.32675 13.6286C7.32675 13.1976 6.96444 12.8481 6.5175 12.8481C6.07057 12.8481 5.70825 13.1976 5.70825 13.6286C5.70825 14.0596 6.07057 14.4091 6.5175 14.4091Z" fill="#535353"/>
<path d="M9.48247 14.4091C9.9294 14.4091 10.2917 14.0596 10.2917 13.6286C10.2917 13.1976 9.9294 12.8481 9.48247 12.8481C9.03553 12.8481 8.67322 13.1976 8.67322 13.6286C8.67322 14.0596 9.03553 14.4091 9.48247 14.4091Z" fill="#535353"/>
<path d="M12.4473 14.4091C12.8942 14.4091 13.2566 14.0596 13.2566 13.6286C13.2566 13.1976 12.8942 12.8481 12.4473 12.8481C12.0004 12.8481 11.6381 13.1976 11.6381 13.6286C11.6381 14.0596 12.0004 14.4091 12.4473 14.4091Z" fill="#535353"/>
</g>
<defs>
<clipPath id="clip0_572_10141">
<rect width="16" height="17" fill="white"/>
</clipPath>
</defs>
</svg>
