<svg width="30" height="24" viewBox="0 0 30 24" fill="none" xmlns="http://www.w3.org/2000/svg">
<g clip-path="url(#clip0_572_7393)">
<path d="M14.6434 21.8631C14.6434 20.6851 13.6765 19.7266 12.4881 19.7266C11.2998 19.7266 10.3329 20.6851 10.3329 21.8631C10.3329 23.0411 11.2998 23.9996 12.4881 23.9996C13.6765 23.9996 14.6434 23.0411 14.6434 21.8631ZM11.0745 21.8631C11.0745 21.0904 11.7087 20.4617 12.4881 20.4617C13.2676 20.4617 13.9018 21.0904 13.9018 21.8631C13.9018 22.6357 13.2676 23.2644 12.4881 23.2644C11.7087 23.2644 11.0745 22.6357 11.0745 21.8631Z" fill="#AC7746"/>
<path d="M26.1146 21.8631C26.1146 20.6851 25.1477 19.7266 23.9593 19.7266C22.771 19.7266 21.8041 20.6851 21.8041 21.8631C21.8041 23.0411 22.771 23.9996 23.9593 23.9996C25.1477 23.9996 26.1146 23.0411 26.1146 21.8631ZM22.5462 21.8631C22.5462 21.0904 23.1805 20.4617 23.9599 20.4617C24.7393 20.4617 25.3735 21.0904 25.3735 21.8631C25.3735 22.6357 24.7393 23.2644 23.9599 23.2644C23.1805 23.2644 22.5462 22.6357 22.5462 21.8631Z" fill="#AC7746"/>
<path d="M28.8295 4.24872H7.82715L6.7523 0.272439C6.70891 0.111954 6.56203 0 6.39402 0H0.771102C0.56637 0 0.400024 0.164346 0.400024 0.367848C0.400024 0.57135 0.56637 0.735696 0.771102 0.735696H6.10973L10.9465 18.6312C10.9899 18.7917 11.1368 18.9036 11.3048 18.9036H25.0019C25.2066 18.9036 25.373 18.7393 25.373 18.5358C25.373 18.3323 25.2072 18.1679 25.0019 18.1679H11.5897L10.8442 15.4088H25.0024C25.1582 15.4088 25.2979 15.3123 25.3507 15.1667L29.1783 4.74231C29.2195 4.62981 29.2028 4.50407 29.1338 4.4059C29.0643 4.30773 28.9508 4.24928 28.8301 4.24928L28.8295 4.24872ZM24.7421 14.6731H10.645L8.02576 4.98387H28.2999L24.7421 14.6731Z" fill="#AC7746"/>
</g>
<defs>
<clipPath id="clip0_572_7393">
<rect width="28.8" height="24" fill="white" transform="translate(0.400024)"/>
</clipPath>
</defs>
</svg>
