<svg width="231" height="19" viewBox="0 0 231 19" fill="none" xmlns="http://www.w3.org/2000/svg">
<circle cx="1.5" cy="1.5" r="1.5" fill="white"/>
<circle cx="13.5" cy="1.5" r="1.5" fill="white"/>
<circle cx="25.5" cy="1.5" r="1.5" fill="white"/>
<circle cx="37.5" cy="1.5" r="1.5" fill="white"/>
<circle cx="49.5" cy="1.5" r="1.5" fill="white"/>
<circle cx="61.5" cy="1.5" r="1.5" fill="white"/>
<circle cx="73.5" cy="1.5" r="1.5" fill="white"/>
<circle cx="85.5" cy="1.5" r="1.5" fill="white"/>
<circle cx="97.5" cy="1.5" r="1.5" fill="white"/>
<circle cx="109.5" cy="1.5" r="1.5" fill="white"/>
<circle cx="121.5" cy="1.5" r="1.5" fill="white"/>
<circle cx="133.5" cy="1.5" r="1.5" fill="white"/>
<circle cx="145.5" cy="1.5" r="1.5" fill="white"/>
<circle cx="157.5" cy="1.5" r="1.5" fill="white"/>
<circle cx="169.5" cy="1.5" r="1.5" fill="white"/>
<circle cx="181.5" cy="1.5" r="1.5" fill="white"/>
<circle cx="193.5" cy="1.5" r="1.5" fill="white"/>
<circle cx="205.5" cy="1.5" r="1.5" fill="white"/>
<circle cx="217.5" cy="1.5" r="1.5" fill="white"/>
<circle cx="229.5" cy="1.5" r="1.5" fill="white"/>
<circle cx="7.5" cy="9.5" r="1.5" fill="white"/>
<circle cx="19.5" cy="9.5" r="1.5" fill="white"/>
<circle cx="31.5" cy="9.5" r="1.5" fill="white"/>
<circle cx="43.5" cy="9.5" r="1.5" fill="white"/>
<circle cx="55.5" cy="9.5" r="1.5" fill="white"/>
<circle cx="67.5" cy="9.5" r="1.5" fill="white"/>
<circle cx="79.5" cy="9.5" r="1.5" fill="white"/>
<circle cx="91.5" cy="9.5" r="1.5" fill="white"/>
<circle cx="103.5" cy="9.5" r="1.5" fill="white"/>
<circle cx="115.5" cy="9.5" r="1.5" fill="white"/>
<circle cx="127.5" cy="9.5" r="1.5" fill="white"/>
<circle cx="139.5" cy="9.5" r="1.5" fill="white"/>
<circle cx="151.5" cy="9.5" r="1.5" fill="white"/>
<circle cx="163.5" cy="9.5" r="1.5" fill="white"/>
<circle cx="175.5" cy="9.5" r="1.5" fill="white"/>
<circle cx="187.5" cy="9.5" r="1.5" fill="white"/>
<circle cx="199.5" cy="9.5" r="1.5" fill="white"/>
<circle cx="211.5" cy="9.5" r="1.5" fill="white"/>
<circle cx="223.5" cy="9.5" r="1.5" fill="white"/>
<circle cx="1.5" cy="17.5" r="1.5" fill="white"/>
<circle cx="13.5" cy="17.5" r="1.5" fill="white"/>
<circle cx="25.5" cy="17.5" r="1.5" fill="white"/>
<circle cx="37.5" cy="17.5" r="1.5" fill="white"/>
<circle cx="49.5" cy="17.5" r="1.5" fill="white"/>
<circle cx="61.5" cy="17.5" r="1.5" fill="white"/>
<circle cx="73.5" cy="17.5" r="1.5" fill="white"/>
<circle cx="85.5" cy="17.5" r="1.5" fill="white"/>
<circle cx="97.5" cy="17.5" r="1.5" fill="white"/>
<circle cx="109.5" cy="17.5" r="1.5" fill="white"/>
<circle cx="121.5" cy="17.5" r="1.5" fill="white"/>
<circle cx="133.5" cy="17.5" r="1.5" fill="white"/>
<circle cx="145.5" cy="17.5" r="1.5" fill="white"/>
<circle cx="157.5" cy="17.5" r="1.5" fill="white"/>
<circle cx="169.5" cy="17.5" r="1.5" fill="white"/>
<circle cx="181.5" cy="17.5" r="1.5" fill="white"/>
<circle cx="193.5" cy="17.5" r="1.5" fill="white"/>
<circle cx="205.5" cy="17.5" r="1.5" fill="white"/>
<circle cx="217.5" cy="17.5" r="1.5" fill="white"/>
<circle cx="229.5" cy="17.5" r="1.5" fill="white"/>
</svg>
