<svg width="224" height="87" viewBox="0 0 224 87" fill="none" xmlns="http://www.w3.org/2000/svg">
<path d="M48.5 85.58C48.71 85.03 48.84 84.53 48.89 84.07C48.91 83.92 48.93 83.79 48.93 83.71V83.62C49.23 83.66 49.44 83.7 49.55 83.73C49.64 83.75 49.69 83.78 49.69 83.82C49.69 83.84 49.67 83.88 49.64 83.93C49.64 83.95 49.61 84.04 49.57 84.22C49.48 84.78 49.36 85.28 49.21 85.7C49.17 85.81 49.14 85.87 49.1 85.87C49.06 85.87 49 85.84 48.91 85.78C48.77 85.69 48.64 85.62 48.5 85.58ZM51.41 81.67C51.62 82.08 51.82 82.56 52 83.12C52 83.15 52.01 83.17 52.01 83.18C52.01 83.22 51.97 83.25 51.9 83.28L51.52 83.42C51.52 83.42 51.47 83.44 51.45 83.44C51.42 83.44 51.39 83.42 51.38 83.37L51.29 83C51.16 83.01 50.95 83.03 50.67 83.07V85.3L50.69 86.36C50.69 86.36 50.69 86.43 50.67 86.44C50.66 86.44 50.63 86.45 50.6 86.45H49.97C49.97 86.45 49.9 86.45 49.89 86.43C49.89 86.43 49.88 86.39 49.88 86.36L49.9 85.3V83.14C49.74 83.16 49.49 83.17 49.14 83.2C49.02 83.2 48.92 83.23 48.85 83.27C48.8 83.3 48.75 83.31 48.72 83.31C48.68 83.31 48.65 83.26 48.63 83.17C48.61 83.08 48.57 82.86 48.52 82.49C48.71 82.5 48.87 82.51 49 82.51C49.05 82.51 49.1 82.51 49.16 82.51H49.27C49.42 82.33 49.56 82.15 49.68 81.95C49.35 81.53 48.98 81.13 48.56 80.73C48.53 80.7 48.51 80.67 48.51 80.66C48.51 80.65 48.53 80.61 48.56 80.56L48.83 80.14C48.83 80.14 48.89 80.07 48.91 80.07C48.93 80.07 48.95 80.09 48.99 80.12L49.23 80.36C49.36 80.15 49.51 79.86 49.68 79.52C49.76 79.35 49.82 79.19 49.86 79.02C50.18 79.13 50.41 79.23 50.56 79.31C50.63 79.35 50.67 79.4 50.67 79.44C50.67 79.47 50.65 79.51 50.6 79.55C50.54 79.59 50.49 79.65 50.45 79.74C50.18 80.2 49.94 80.58 49.73 80.88C49.95 81.13 50.08 81.28 50.12 81.32C50.31 81.03 50.5 80.71 50.7 80.36C50.78 80.21 50.86 80.03 50.95 79.8C51.19 79.9 51.41 80.02 51.62 80.15C51.69 80.19 51.72 80.23 51.72 80.27C51.72 80.32 51.69 80.36 51.63 80.39C51.57 80.43 51.48 80.54 51.37 80.72C50.98 81.33 50.58 81.91 50.15 82.46L51.08 82.4C51.04 82.29 50.97 82.13 50.86 81.91C50.85 81.88 50.84 81.86 50.84 81.85C50.84 81.82 50.88 81.8 50.95 81.77L51.27 81.64C51.27 81.64 51.33 81.62 51.35 81.62C51.38 81.62 51.4 81.64 51.43 81.69L51.41 81.67ZM51.35 83.55C51.35 83.55 51.4 83.54 51.42 83.54C51.45 83.54 51.47 83.57 51.49 83.62C51.63 84.08 51.73 84.5 51.79 84.88C51.79 84.9 51.79 84.91 51.79 84.92C51.79 84.97 51.75 85.01 51.68 85.02L51.29 85.13C51.24 85.14 51.2 85.15 51.19 85.15C51.16 85.15 51.15 85.13 51.15 85.08C51.11 84.63 51.03 84.2 50.89 83.78C50.89 83.76 50.88 83.74 50.88 83.72C50.88 83.69 50.92 83.66 50.99 83.65L51.36 83.55H51.35ZM52.53 86.2L51.44 86.22C51.44 86.22 51.36 86.22 51.36 86.2C51.35 86.19 51.34 86.16 51.34 86.12V85.49C51.34 85.49 51.34 85.42 51.36 85.41C51.38 85.4 51.4 85.39 51.44 85.39L52.12 85.41V80.92L52.1 79.49C52.1 79.49 52.1 79.41 52.12 79.4C52.12 79.4 52.15 79.39 52.19 79.39L53.11 79.41H54.38L55.3 79.39C55.3 79.39 55.38 79.39 55.39 79.41C55.39 79.42 55.4 79.45 55.4 79.49L55.38 80.92V85.41L55.99 85.39C55.99 85.39 56.06 85.39 56.07 85.41C56.07 85.42 56.08 85.45 56.08 85.48V86.11C56.08 86.11 56.08 86.18 56.06 86.19C56.06 86.19 56.02 86.2 55.98 86.2L54.9 86.18H52.52L52.53 86.2ZM54.56 80.2H52.94V81.37H54.56V80.2ZM52.94 83.34H54.56V82.15H52.94V83.34ZM52.94 85.42H54.56V84.12H52.94V85.42Z" fill="#9C1F25"/>
<path d="M61.7496 82.7802C61.8396 82.3802 61.8896 82.0302 61.9196 81.7402C61.9196 81.6602 61.9296 81.5802 61.9296 81.5102C61.9296 81.4202 61.9296 81.3102 61.9096 81.2002C62.3296 81.3002 62.6396 81.4202 62.8396 81.5502C62.8996 81.5802 62.9196 81.6302 62.9196 81.6902C62.9196 81.7202 62.9197 81.7502 62.8997 81.7702C62.8197 81.9402 62.7796 82.0402 62.7696 82.0902C62.7196 82.3402 62.6496 82.6902 62.5496 83.1302C63.0296 83.3702 63.4497 83.6302 63.8097 83.9102C63.8497 83.9302 63.8797 83.9602 63.8797 84.0002C63.8797 84.0202 63.8796 84.0502 63.8596 84.0802C63.7496 84.3302 63.6396 84.5602 63.5096 84.7702C63.4896 84.8102 63.4596 84.8302 63.4296 84.8302C63.3996 84.8302 63.3696 84.8102 63.3396 84.7702C62.9896 84.4702 62.6396 84.2102 62.2796 84.0102C62.0596 84.5102 61.8096 84.9302 61.5496 85.2602C61.3096 85.5602 61.0097 85.8502 60.6497 86.1302C60.5697 86.1902 60.5197 86.2202 60.4897 86.2202C60.4597 86.2202 60.4196 86.2002 60.3696 86.1602C60.1896 86.0102 59.9496 85.9002 59.6596 85.8302C60.1796 85.4702 60.5896 85.1002 60.8896 84.7102C61.1296 84.4002 61.3197 84.0402 61.4697 83.6502C61.0097 83.4102 60.4696 83.2502 59.8696 83.1602C59.4796 83.9702 59.1497 84.5102 58.8797 84.7802C58.5997 85.0802 58.2596 85.2302 57.8496 85.2302C57.5696 85.2302 57.3296 85.1302 57.1596 84.9302C56.9796 84.7302 56.8896 84.4602 56.8896 84.1202C56.8896 83.5802 57.1496 83.1402 57.6596 82.7902C58.1096 82.4902 58.6396 82.3302 59.2696 82.3302C59.5396 81.6602 59.7596 81.0202 59.9396 80.4202C59.5796 80.4602 59.2097 80.5002 58.8297 80.5502C58.6897 80.5702 58.5696 80.6002 58.4596 80.6402C58.4096 80.6602 58.3597 80.6702 58.3097 80.6702C58.2497 80.6702 58.2096 80.6402 58.1796 80.5802C58.1096 80.4202 58.0296 80.1302 57.9396 79.7002C58.1096 79.7302 58.2896 79.7502 58.4996 79.7502C58.5396 79.7502 58.5997 79.7502 58.6497 79.7502C58.9897 79.7502 59.3997 79.7102 59.8997 79.6402C60.0597 79.6202 60.1896 79.5702 60.2896 79.5002C60.3196 79.4802 60.3497 79.4702 60.3997 79.4702C60.4497 79.4702 60.4796 79.4702 60.5096 79.5002C60.7096 79.6202 60.8897 79.7702 61.0597 79.9502C61.1097 80.0002 61.1297 80.0402 61.1297 80.0902C61.1297 80.1302 61.0996 80.1702 61.0496 80.2302C60.9996 80.2802 60.9496 80.3502 60.9096 80.4402L60.8297 80.6502C60.4297 81.7102 60.1996 82.2902 60.1596 82.4102C60.6496 82.4702 61.1697 82.6102 61.7197 82.8102L61.7496 82.7802ZM58.9996 83.0702C58.5796 83.0902 58.2296 83.2002 57.9796 83.4002C57.7696 83.5702 57.6596 83.7602 57.6596 83.9902C57.6596 84.2402 57.7496 84.3602 57.9396 84.3602C58.0896 84.3602 58.2397 84.2602 58.3997 84.0502C58.5897 83.8202 58.7797 83.4902 58.9897 83.0702H58.9996Z" fill="#9C1F25"/>
<path d="M72.2698 81.8602C72.1298 82.0402 72.0098 82.2402 71.9298 82.4802C71.8898 82.6202 71.8398 82.6902 71.7798 82.6902C71.7398 82.6902 71.6798 82.6702 71.5898 82.6202C71.0098 82.3602 70.4798 82.0602 70.0098 81.7202V82.2802C70.0098 82.2802 70.0098 82.3502 69.9898 82.3502C69.9898 82.3502 69.9598 82.3602 69.9198 82.3602L69.0098 82.3402H67.7598L66.8498 82.3602C66.8498 82.3602 66.7798 82.3602 66.7698 82.3402C66.7698 82.3402 66.7598 82.3102 66.7598 82.2702V81.6902C66.3098 82.0402 65.8098 82.3602 65.2698 82.6402C65.1598 82.6902 65.0998 82.7202 65.0798 82.7202C65.0398 82.7202 64.9898 82.6502 64.9298 82.5202C64.8298 82.3102 64.6998 82.1302 64.5498 81.9802C65.9098 81.3702 66.9398 80.5502 67.6498 79.5102C67.7898 79.3002 67.8998 79.1102 67.9698 78.9302C68.3598 78.9902 68.6398 79.0402 68.8198 79.0802C68.9198 79.1102 68.9698 79.1602 68.9698 79.2102C68.9698 79.2602 68.9398 79.3002 68.8898 79.3302C68.8598 79.3502 68.8398 79.3702 68.8198 79.3802C69.7198 80.5202 70.8598 81.3402 72.2698 81.8402V81.8602ZM66.6798 86.3902H65.9898C65.9898 86.3902 65.9198 86.3902 65.9198 86.3702C65.9198 86.3602 65.9098 86.3402 65.9098 86.3002L65.9298 84.8702V84.1702L65.9098 83.1902C65.9098 83.1902 65.9098 83.1202 65.9298 83.1102C65.9298 83.1102 65.9598 83.1002 65.9998 83.1002L67.1098 83.1202H69.6898L70.7898 83.1002C70.7898 83.1002 70.8698 83.1002 70.8798 83.1202C70.8798 83.1302 70.8898 83.1502 70.8898 83.1902L70.8698 84.0402V84.8302L70.8898 86.2502C70.8898 86.2502 70.8898 86.3202 70.8698 86.3302C70.8598 86.3302 70.8298 86.3402 70.7898 86.3402H70.0998C70.0998 86.3402 70.0298 86.3402 70.0198 86.3202C70.0198 86.3102 70.0098 86.2902 70.0098 86.2502V85.9802H66.7698V86.2902C66.7698 86.2902 66.7698 86.3602 66.7498 86.3702C66.7398 86.3702 66.7098 86.3802 66.6698 86.3802L66.6798 86.3902ZM66.7798 83.8602V85.2702H70.0198V83.8602H66.7798ZM66.8998 81.5802C67.0298 81.5902 67.3198 81.6002 67.7698 81.6002H69.8498C69.2898 81.1602 68.7898 80.6502 68.3698 80.0602C67.9798 80.6002 67.4898 81.1102 66.8998 81.5802Z" fill="#9C1F25"/>
<path d="M74.6701 79.2202C75.1401 79.2702 75.4501 79.3202 75.6001 79.3602C75.7201 79.3902 75.7701 79.4502 75.7701 79.5302C75.7701 79.5602 75.7701 79.6002 75.7401 79.6402C75.7101 79.7202 75.6801 79.8402 75.6601 79.9902C75.6601 80.0502 75.6601 80.1502 75.6401 80.3202C75.6401 80.4602 75.6201 80.6002 75.6201 80.7202L75.6901 80.7002C75.6901 80.7002 75.7301 80.6802 75.7501 80.6802C75.8101 80.6802 75.8801 80.7402 75.9701 80.8702C76.0601 80.9902 76.1001 81.0702 76.1001 81.1202C76.1001 81.1602 76.0501 81.2402 75.9601 81.3402C75.8001 81.5402 75.6601 81.7402 75.5401 81.9202V82.1702C76.3001 81.5402 77.0801 81.2202 77.8601 81.2202C78.5101 81.2202 79.0201 81.4302 79.3901 81.8602C79.7101 82.2302 79.8701 82.7002 79.8701 83.2702C79.8701 84.4902 79.1501 85.3502 77.7201 85.8702C77.6801 85.8902 77.6301 85.9002 77.5801 85.9002C77.5001 85.9002 77.4301 85.8602 77.3701 85.7902C77.2001 85.5902 76.9901 85.4102 76.7301 85.2602C77.3901 85.0802 77.9401 84.8202 78.3501 84.4602C78.7201 84.1302 78.9001 83.7302 78.9001 83.2402C78.9001 82.8302 78.7801 82.5102 78.5501 82.2902C78.3401 82.0902 78.0601 81.9902 77.7001 81.9902C77.3201 81.9902 76.9401 82.0902 76.5701 82.2902C76.2701 82.4502 75.9301 82.6902 75.5401 83.0202C75.5401 83.4302 75.5401 83.9702 75.5601 84.6502C75.5701 85.3902 75.5801 85.8802 75.5801 86.1202C75.5801 86.1902 75.5401 86.2202 75.4701 86.2202C75.2301 86.2402 74.9901 86.2502 74.7501 86.2502C74.6901 86.2502 74.6601 86.2202 74.6601 86.1602V86.1302C74.6601 85.5102 74.6801 84.6802 74.7001 83.6402C74.3301 84.1902 73.9701 84.7202 73.6101 85.2402C73.5701 85.2902 73.5301 85.3202 73.5001 85.3202C73.4701 85.3202 73.4401 85.3002 73.4101 85.2702C73.2401 85.1202 73.0801 84.9602 72.9201 84.7802C72.8901 84.7602 72.8701 84.7302 72.8701 84.6902C72.8701 84.6602 72.8901 84.6302 72.9201 84.6002C73.6401 83.7202 74.2301 82.9702 74.7001 82.3302C74.7001 82.0502 74.7001 81.8602 74.7001 81.7502C74.2401 81.8902 73.9301 81.9902 73.7801 82.0502C73.7401 82.0702 73.6801 82.1002 73.6101 82.1402C73.5701 82.1702 73.5401 82.1802 73.5201 82.1802C73.4601 82.1802 73.4101 82.1302 73.3601 82.0302C73.2301 81.7902 73.1201 81.5502 73.0401 81.3202C73.2201 81.3002 73.4001 81.2802 73.5901 81.2402C73.9401 81.1602 74.3201 81.0702 74.7401 80.9502C74.7501 80.7202 74.7601 80.3702 74.7601 79.9002C74.7601 79.6502 74.7301 79.4202 74.6801 79.2002L74.6701 79.2202Z" fill="#9C1F25"/>
<path d="M85.4901 81.32C85.4901 81.05 85.4901 80.67 85.4901 80.19C85.4901 79.84 85.4501 79.53 85.3801 79.27C85.8701 79.33 86.2001 79.38 86.3601 79.43C86.4601 79.46 86.5101 79.51 86.5101 79.58C86.5101 79.62 86.4901 79.68 86.4601 79.74C86.4101 79.9 86.3801 80.02 86.3801 80.1C86.3701 80.43 86.3601 80.81 86.3501 81.23C86.9001 81.19 87.4201 81.16 87.9301 81.14C87.9901 81.14 88.0201 81.17 88.0201 81.22C88.0201 81.4 88.0201 81.52 88.0201 81.6C88.0201 81.7 88.0201 81.79 88.0201 81.88C88.0201 81.93 88.0201 81.97 88.0001 81.98C87.9901 81.98 87.9601 81.99 87.9201 81.99C87.4201 81.99 86.8801 82.01 86.3101 82.06C86.2801 82.64 86.2501 83.05 86.2101 83.3C86.1301 83.9 85.7701 84.2 85.1501 84.2C84.9301 84.2 84.7601 84.2 84.6501 84.18C84.5401 84.18 84.4901 84.1 84.4901 83.97C84.4701 83.72 84.4101 83.48 84.3101 83.24C84.5501 83.31 84.7701 83.34 85.0001 83.34C85.1201 83.34 85.2101 83.31 85.2701 83.26C85.3301 83.21 85.3601 83.12 85.3801 82.99C85.4101 82.77 85.4301 82.48 85.4401 82.13C84.7701 82.18 84.1201 82.26 83.4701 82.36C83.4701 82.85 83.4701 83.18 83.4701 83.33C83.4701 83.67 83.4701 83.96 83.4901 84.18C83.5201 84.53 83.6101 84.75 83.7801 84.85C83.9301 84.93 84.2401 84.98 84.7001 84.98C85.3701 84.98 86.0601 84.93 86.7901 84.82H86.8401C86.9101 84.82 86.9401 84.86 86.9501 84.93C86.9801 85.1 87.0001 85.32 87.0001 85.61C87.0001 85.7 86.9601 85.74 86.8901 85.75C86.3601 85.83 85.6801 85.87 84.8701 85.87C84.0101 85.87 83.4301 85.75 83.1301 85.52C82.8701 85.32 82.7101 84.97 82.6701 84.47C82.6301 84.06 82.6101 83.41 82.6101 82.5C82.2801 82.54 81.9601 82.6 81.6301 82.67C81.4701 82.71 81.3501 82.75 81.2701 82.79C81.2401 82.81 81.2101 82.81 81.1801 82.81C81.1301 82.81 81.0901 82.77 81.0501 82.7C80.9501 82.49 80.8701 82.22 80.8301 81.89C81.0201 81.89 81.3101 81.86 81.6901 81.81C81.7801 81.8 81.9301 81.77 82.1501 81.73C82.3701 81.69 82.5201 81.66 82.6001 81.65V80.79C82.5901 80.46 82.5501 80.18 82.4901 79.94C82.8901 79.97 83.2101 80.02 83.4601 80.08C83.5701 80.1 83.6301 80.16 83.6301 80.25C83.6301 80.29 83.6101 80.35 83.5801 80.42C83.5401 80.54 83.5101 80.65 83.5001 80.77C83.5001 80.84 83.5001 80.97 83.5001 81.16C83.5001 81.34 83.5001 81.47 83.5001 81.55C83.6601 81.53 84.3201 81.45 85.4901 81.32Z" fill="#9C1F25"/>
<path d="M88.9199 82.35C89.3699 82.05 89.7399 81.68 90.0199 81.25C90.1099 81.11 90.1699 80.97 90.2199 80.81C90.5099 80.93 90.7299 81.03 90.8599 81.12C90.9299 81.16 90.9699 81.2 90.9699 81.25C90.9699 81.32 90.9499 81.37 90.8999 81.4C90.8499 81.43 90.7699 81.51 90.6699 81.64C90.3599 82.09 90.0499 82.45 89.7299 82.74C89.6399 82.82 89.5799 82.85 89.5499 82.85C89.5099 82.85 89.4399 82.8 89.3399 82.69C89.2099 82.56 89.0699 82.44 88.9199 82.36V82.35ZM89.1699 84.57C89.7799 84.33 90.2899 84.04 90.6999 83.72C90.9999 83.48 91.2999 83.19 91.5899 82.83C91.6699 82.73 91.7399 82.61 91.7999 82.48C92.0399 82.53 92.2599 82.6 92.4899 82.68C92.5699 82.71 92.5999 82.76 92.5999 82.8C92.5999 82.85 92.5599 82.9 92.4799 82.94C92.4599 82.96 92.3899 83.03 92.2699 83.17C92.2399 83.22 92.1999 83.26 92.1599 83.3H93.8199C93.9399 83.3 94.0199 83.29 94.0599 83.27C94.1099 83.24 94.1499 83.23 94.1899 83.23C94.2299 83.23 94.3399 83.32 94.5199 83.49C94.6699 83.65 94.7399 83.76 94.7399 83.84C94.7399 83.91 94.6999 83.96 94.6299 84C94.5399 84.05 94.4599 84.12 94.3799 84.2C94.0399 84.54 93.7099 84.82 93.3699 85.06C94.0199 85.3 94.9999 85.47 96.3099 85.58C96.1999 85.71 96.1099 85.91 96.0199 86.16C95.9899 86.27 95.9599 86.33 95.9399 86.36C95.9199 86.39 95.8799 86.4 95.8299 86.4C95.7999 86.4 95.7599 86.4 95.6899 86.39C94.4599 86.25 93.4199 85.97 92.5899 85.55C91.7899 85.97 90.7999 86.25 89.6299 86.42C89.5599 86.42 89.5099 86.43 89.4899 86.43C89.4399 86.43 89.3899 86.41 89.3599 86.38C89.3399 86.36 89.3199 86.3 89.2699 86.21C89.1999 86.04 89.1099 85.88 88.9899 85.74C90.1099 85.63 91.0599 85.42 91.8299 85.1C91.5399 84.89 91.2799 84.66 91.0399 84.41C90.7099 84.66 90.3299 84.9 89.8699 85.13C89.7599 85.18 89.6999 85.2 89.6899 85.2C89.6499 85.2 89.5899 85.14 89.5199 85.01C89.4099 84.83 89.2899 84.69 89.1499 84.6L89.1699 84.57ZM90.0999 82.65C90.6499 82.39 91.0099 82.13 91.1999 81.86C91.3899 81.58 91.4999 81.16 91.5099 80.62H90.2099L89.1799 80.64C89.1799 80.64 89.1099 80.64 89.0999 80.62C89.0999 80.61 89.0899 80.59 89.0899 80.55V79.95C89.0899 79.9 89.1199 79.87 89.1799 79.87L90.2099 79.89H92.1299V79.78C92.1299 79.46 92.1099 79.21 92.0699 79.02C92.3699 79.02 92.6599 79.04 92.9299 79.07C93.0099 79.07 93.0499 79.11 93.0499 79.15C93.0499 79.19 93.0399 79.25 93.0099 79.3C92.9799 79.36 92.9699 79.52 92.9699 79.77V79.89H94.9399L95.9699 79.87C96.0299 79.87 96.0599 79.9 96.0599 79.95V80.55C96.0599 80.55 96.0599 80.62 96.0399 80.63C96.0399 80.63 96.0099 80.64 95.9699 80.64L94.9399 80.62H93.8899V81.3L93.9099 82.14C93.9099 82.42 93.8199 82.61 93.6399 82.73C93.4799 82.82 93.2499 82.87 92.9499 82.87C92.8999 82.87 92.8599 82.87 92.8499 82.87C92.7699 82.87 92.7199 82.85 92.6999 82.82C92.6799 82.8 92.6599 82.73 92.6299 82.63C92.5799 82.44 92.5099 82.28 92.4199 82.14C92.6099 82.17 92.7499 82.18 92.8299 82.18C93.0199 82.18 93.1099 82.09 93.1099 81.9V80.62H92.3099C92.2799 81.29 92.1399 81.81 91.8899 82.2C91.6799 82.52 91.3599 82.79 90.9199 83.04C90.8099 83.1 90.7399 83.13 90.7099 83.13C90.6799 83.13 90.6199 83.08 90.5299 82.98C90.3899 82.83 90.2399 82.72 90.0899 82.66L90.0999 82.65ZM93.5799 83.91H91.5999L91.5799 83.93C91.8999 84.23 92.2299 84.49 92.5799 84.69C92.9599 84.46 93.2899 84.2 93.5699 83.91H93.5799ZM94.9899 80.92C95.4099 81.3 95.7699 81.75 96.0699 82.29C96.0899 82.32 96.0899 82.34 96.0899 82.35C96.0899 82.38 96.0599 82.41 95.9999 82.44L95.5099 82.75C95.5099 82.75 95.4299 82.79 95.4199 82.79C95.3999 82.79 95.3799 82.77 95.3599 82.74C95.0399 82.14 94.6999 81.66 94.3399 81.31C94.3099 81.28 94.2999 81.26 94.2999 81.24C94.2999 81.22 94.3199 81.19 94.3699 81.16L94.8099 80.91C94.8099 80.91 94.8799 80.87 94.8999 80.87C94.9199 80.87 94.9499 80.89 94.9899 80.92Z" fill="#9C1F25"/>
<path d="M99.03 83.9104C99.23 84.1504 99.45 84.3704 99.71 84.5404C99.83 84.4004 99.93 84.2404 100 84.0604C100.03 83.9904 100.06 83.9004 100.08 83.8004H99.12L98 83.8204C98 83.8204 97.93 83.8204 97.92 83.8004C97.92 83.7904 97.91 83.7604 97.91 83.7204L97.93 82.9404V81.5004L97.91 80.7204C97.91 80.7204 97.91 80.6504 97.93 80.6504C97.95 80.6504 97.96 80.6404 98 80.6404L99.12 80.6604H100.24V80.1604H98.2L97.18 80.1804C97.18 80.1804 97.11 80.1804 97.1 80.1704C97.1 80.1704 97.09 80.1404 97.09 80.1004V79.4704C97.09 79.4704 97.09 79.4004 97.1 79.3904C97.11 79.3904 97.14 79.3804 97.18 79.3804L98.2 79.4004H103.12L104.14 79.3804C104.14 79.3804 104.21 79.3804 104.22 79.4004C104.23 79.4104 104.24 79.4304 104.24 79.4704V80.1004C104.24 80.1004 104.24 80.1604 104.22 80.1704C104.21 80.1704 104.18 80.1804 104.14 80.1804L103.12 80.1604H101.03V80.6604H102.19L103.32 80.6404C103.32 80.6404 103.39 80.6404 103.4 80.6604C103.4 80.6704 103.41 80.6904 103.41 80.7304L103.39 81.5104V82.9504L103.41 83.7304C103.41 83.7304 103.41 83.8004 103.4 83.8104C103.4 83.8204 103.37 83.8304 103.32 83.8304L102.19 83.8104H100.88C100.85 83.9704 100.82 84.1104 100.78 84.2304C100.7 84.5004 100.58 84.7404 100.43 84.9404C101.25 85.2704 102.57 85.4504 104.39 85.4604C104.3 85.6004 104.23 85.8004 104.16 86.0604C104.13 86.1804 104.11 86.2504 104.08 86.2704C104.06 86.2904 104.01 86.3104 103.94 86.3104C103.92 86.3104 103.89 86.3104 103.84 86.3104C102.08 86.2404 100.75 85.9704 99.86 85.5104C99.34 85.8904 98.6 86.1804 97.64 86.3704C97.59 86.3804 97.54 86.3904 97.47 86.3904C97.43 86.3904 97.39 86.3704 97.37 86.3404C97.35 86.3204 97.32 86.2604 97.29 86.1704C97.2 85.9604 97.08 85.7904 96.96 85.6604C97.86 85.5304 98.57 85.3204 99.11 85.0104C98.87 84.8204 98.63 84.5804 98.38 84.3004C98.35 84.2604 98.34 84.2404 98.34 84.2304C98.34 84.2104 98.37 84.1904 98.42 84.1504L98.84 83.8904C98.84 83.8904 98.92 83.8504 98.93 83.8504C98.94 83.8504 98.97 83.8704 99.01 83.9104H99.03ZM100.24 81.3104H98.72V81.8904H100.24C100.24 81.7704 100.24 81.5804 100.24 81.3104ZM100.23 82.5204H98.72V83.1504H100.19C100.21 82.9304 100.22 82.7204 100.23 82.5204ZM100.97 83.1504H102.6V82.5204H101.01C101.01 82.5204 101 82.6804 100.99 82.8804C100.99 83.0004 100.98 83.0904 100.97 83.1604V83.1504ZM101.03 81.9004H102.6V81.3204H101.04V81.9004H101.03Z" fill="#9C1F25"/>
<path d="M107.27 81.2804C107.35 80.9904 107.43 80.6504 107.51 80.2604C107.57 79.9404 107.59 79.6404 107.59 79.3704C107.98 79.4504 108.31 79.5404 108.55 79.6304C108.64 79.6604 108.68 79.7104 108.68 79.7904C108.68 79.8304 108.66 79.8704 108.63 79.9104C108.56 79.9904 108.51 80.1004 108.47 80.2204C108.43 80.3404 108.38 80.5104 108.32 80.7304C108.26 80.9304 108.21 81.0804 108.18 81.1904C108.38 81.1704 108.59 81.1504 108.83 81.1504C109.6 81.1504 109.98 81.6704 109.98 82.7104C109.98 83.2004 109.94 83.6804 109.85 84.1704C109.77 84.6204 109.67 84.9704 109.54 85.2404C109.31 85.7404 108.95 86.0004 108.45 86.0004C108.07 86.0004 107.79 85.9604 107.61 85.8804C107.51 85.8404 107.46 85.7704 107.46 85.6604C107.43 85.3304 107.38 85.0804 107.31 84.9104C107.61 85.0504 107.92 85.1204 108.24 85.1204C108.38 85.1204 108.49 85.0904 108.57 85.0204C108.64 84.9604 108.7 84.8504 108.76 84.6904C108.97 84.1304 109.08 83.4604 109.08 82.6804C109.08 82.3804 109.04 82.1804 108.97 82.0804C108.9 81.9904 108.78 81.9404 108.62 81.9404C108.44 81.9404 108.22 81.9604 107.94 81.9904C107.41 83.5304 106.87 84.7904 106.32 85.7804C106.29 85.8504 106.25 85.8804 106.2 85.8804C106.17 85.8804 106.14 85.8804 106.11 85.8504C105.86 85.7304 105.67 85.6104 105.55 85.4904C105.51 85.4504 105.49 85.4104 105.49 85.3704C105.49 85.3404 105.5 85.3104 105.52 85.2804C106.16 84.1704 106.65 83.1204 107 82.1204C106.82 82.1504 106.55 82.1904 106.21 82.2604C106.07 82.2904 105.92 82.3304 105.76 82.3904C105.72 82.4004 105.69 82.4104 105.66 82.4104C105.58 82.4104 105.53 82.3704 105.5 82.2804C105.42 82.0804 105.34 81.8004 105.25 81.4504C105.55 81.4504 105.9 81.4304 106.31 81.3904C106.6 81.3604 106.92 81.3204 107.26 81.2704L107.27 81.2804ZM110.06 81.2204C110.36 81.0104 110.58 80.8804 110.71 80.8104C110.73 80.8004 110.75 80.7904 110.76 80.7904C110.79 80.7904 110.82 80.8104 110.86 80.8504C111.47 81.4204 111.92 82.0804 112.2 82.8104C112.21 82.8404 112.22 82.8604 112.22 82.8804C112.22 82.9104 112.2 82.9404 112.17 82.9704C112.02 83.1104 111.82 83.2504 111.56 83.3704C111.53 83.3904 111.5 83.3904 111.48 83.3904C111.43 83.3904 111.39 83.3604 111.38 83.3004C111.05 82.4204 110.61 81.7304 110.06 81.2104V81.2204ZM110.5 79.9804L110.93 79.6804C110.93 79.6804 110.96 79.6604 110.98 79.6604C111 79.6604 111.02 79.6704 111.05 79.7004C111.33 79.9104 111.58 80.2004 111.82 80.5604C111.84 80.5804 111.84 80.6004 111.84 80.6204C111.84 80.6404 111.82 80.6704 111.79 80.6904L111.45 80.9404C111.45 80.9404 111.41 80.9704 111.39 80.9704C111.36 80.9704 111.34 80.9504 111.31 80.9204C111.06 80.5404 110.79 80.2304 110.49 79.9904L110.5 79.9804ZM111.24 79.4404L111.64 79.1504C111.64 79.1504 111.68 79.1304 111.69 79.1304C111.71 79.1304 111.73 79.1404 111.76 79.1704C112.07 79.4104 112.32 79.6804 112.52 80.0004C112.54 80.0204 112.54 80.0404 112.54 80.0604C112.54 80.0904 112.52 80.1104 112.49 80.1404L112.17 80.3904C112.17 80.3904 112.13 80.4204 112.11 80.4204C112.08 80.4204 112.06 80.4004 112.03 80.3704C111.8 80.0104 111.54 79.7004 111.23 79.4404H111.24Z" fill="#9C1F25"/>
<path d="M114.31 80.2702L113.3 80.2902C113.3 80.2902 113.23 80.2902 113.22 80.2702C113.22 80.2602 113.21 80.2402 113.21 80.2002V79.5402C113.21 79.5402 113.21 79.4702 113.23 79.4602C113.24 79.4602 113.27 79.4502 113.31 79.4502L114.32 79.4702H119.29L120.3 79.4502C120.3 79.4502 120.37 79.4502 120.37 79.4702C120.37 79.4702 120.38 79.5102 120.38 79.5402V80.2002C120.38 80.2002 120.38 80.2702 120.36 80.2802C120.36 80.2802 120.33 80.2902 120.29 80.2902C120.29 80.2902 120.2 80.2902 120.04 80.2902C119.86 80.2902 119.66 80.2902 119.45 80.2802V83.8102L119.47 85.3802C119.47 85.7402 119.38 85.9902 119.19 86.1302C119.01 86.2702 118.53 86.3402 117.74 86.3402C117.61 86.3402 117.53 86.3302 117.5 86.3002C117.48 86.2802 117.46 86.2002 117.43 86.0802C117.37 85.8102 117.29 85.6102 117.2 85.4602C117.5 85.4902 117.82 85.5102 118.18 85.5102C118.34 85.5102 118.44 85.4902 118.49 85.4402C118.54 85.3902 118.57 85.3202 118.57 85.2102V80.2702H114.31ZM114.88 84.8402H114.24C114.24 84.8402 114.17 84.8402 114.16 84.8202C114.16 84.8102 114.15 84.7802 114.15 84.7402L114.17 83.2202V82.3702L114.15 81.3002C114.15 81.3002 114.15 81.2302 114.17 81.2202C114.19 81.2102 114.2 81.2102 114.24 81.2102L115.15 81.2302H116.41L117.31 81.2102C117.31 81.2102 117.38 81.2102 117.39 81.2302C117.4 81.2502 117.4 81.2702 117.4 81.3102L117.38 82.2002V83.1102L117.4 84.5602C117.4 84.5602 117.4 84.6302 117.39 84.6402C117.39 84.6402 117.35 84.6502 117.31 84.6502H116.67C116.67 84.6502 116.6 84.6502 116.59 84.6302C116.59 84.6302 116.58 84.6002 116.58 84.5602V84.2102H114.98V84.7502C114.98 84.7502 114.98 84.8202 114.96 84.8302C114.95 84.8302 114.92 84.8402 114.88 84.8402ZM114.97 81.9802V83.4602H116.57V81.9802H114.97Z" fill="#9C1F25"/>
<path d="M124.18 79.7C124.44 80.05 124.72 80.53 125.03 81.15C125.05 81.18 125.05 81.2 125.05 81.22C125.05 81.25 125.02 81.28 124.97 81.31L124.51 81.56C124.51 81.56 124.45 81.6 124.43 81.6C124.41 81.6 124.38 81.57 124.36 81.52L124.21 81.17C123.55 81.27 122.75 81.36 121.8 81.44C121.65 81.46 121.54 81.48 121.48 81.51C121.42 81.53 121.38 81.54 121.36 81.54C121.31 81.54 121.28 81.5 121.26 81.41C121.21 81.15 121.17 80.91 121.15 80.71C121.45 80.71 121.67 80.71 121.81 80.71C121.98 80.37 122.14 80 122.29 79.59C122.35 79.4 122.4 79.22 122.44 79.04C122.73 79.08 122.99 79.12 123.2 79.19C123.29 79.22 123.33 79.26 123.33 79.31C123.33 79.36 123.3 79.41 123.24 79.46C123.2 79.5 123.15 79.58 123.1 79.7C122.92 80.1 122.76 80.42 122.63 80.67C123.2 80.63 123.62 80.59 123.89 80.56C123.78 80.37 123.67 80.2 123.57 80.04C123.55 80.01 123.54 79.99 123.54 79.98C123.54 79.96 123.57 79.93 123.62 79.9L124.01 79.68C124.01 79.68 124.07 79.65 124.09 79.65C124.12 79.65 124.15 79.67 124.18 79.72V79.7ZM123.04 85.6C123.21 85.62 123.37 85.63 123.52 85.63C123.7 85.63 123.78 85.55 123.78 85.39V84.78H122.45V85.3L122.47 86.29C122.47 86.35 122.44 86.37 122.38 86.37H121.77C121.71 86.37 121.68 86.34 121.68 86.29L121.7 85.3V82.88L121.68 81.88C121.68 81.88 121.68 81.81 121.7 81.8C121.71 81.8 121.74 81.79 121.78 81.79L122.63 81.81H123.64L124.48 81.79C124.48 81.79 124.55 81.79 124.56 81.81C124.57 81.83 124.57 81.85 124.57 81.88L124.55 82.96V84.41L124.57 85.5C124.57 85.82 124.51 86.03 124.39 86.14C124.32 86.21 124.22 86.25 124.1 86.27C123.97 86.3 123.77 86.31 123.51 86.31C123.38 86.31 123.3 86.3 123.28 86.27C123.26 86.25 123.24 86.18 123.21 86.06C123.17 85.88 123.12 85.72 123.05 85.58L123.04 85.6ZM123.79 82.46H122.46V83H123.79V82.46ZM122.45 84.16H123.78V83.62H122.45V84.16ZM127.63 79.36C127.8 79.51 127.97 79.68 128.13 79.88C128.18 79.93 128.2 79.97 128.2 80.02C128.2 80.07 128.16 80.1 128.09 80.11C128.01 80.13 127.88 80.17 127.72 80.26C127.28 80.49 126.71 80.72 126.01 80.95V81.43C126.01 81.56 126.06 81.64 126.15 81.67C126.24 81.7 126.45 81.72 126.76 81.72C127.21 81.72 127.48 81.67 127.57 81.57C127.62 81.52 127.65 81.44 127.66 81.33C127.66 81.27 127.67 81.12 127.68 80.87C127.83 80.96 128.02 81.04 128.24 81.1C128.33 81.13 128.38 81.15 128.4 81.17C128.42 81.19 128.43 81.23 128.43 81.28C128.43 81.3 128.43 81.33 128.43 81.37C128.4 81.63 128.36 81.82 128.3 81.95C128.25 82.07 128.17 82.16 128.06 82.23C127.87 82.37 127.42 82.44 126.71 82.44C126.08 82.44 125.67 82.39 125.48 82.3C125.3 82.23 125.2 82.05 125.2 81.78V79.87C125.2 79.52 125.18 79.26 125.15 79.08C125.45 79.09 125.72 79.11 125.95 79.14C126.04 79.15 126.09 79.18 126.09 79.23C126.09 79.26 126.07 79.3 126.04 79.37C126.01 79.43 126 79.58 126 79.81V80.21C126.43 80.05 126.83 79.88 127.19 79.69C127.35 79.61 127.49 79.5 127.63 79.36ZM127.72 84.65C127.91 84.76 128.1 84.83 128.3 84.88C128.38 84.9 128.44 84.92 128.46 84.93C128.48 84.95 128.49 84.98 128.49 85.02C128.49 85.04 128.49 85.08 128.48 85.15C128.45 85.42 128.4 85.62 128.34 85.75C128.28 85.87 128.2 85.97 128.1 86.04C127.86 86.21 127.41 86.29 126.76 86.29C126.11 86.29 125.68 86.24 125.49 86.14C125.3 86.05 125.21 85.85 125.21 85.55V83.51C125.21 83.17 125.19 82.91 125.16 82.73C125.46 82.73 125.73 82.76 125.96 82.78C126.05 82.8 126.1 82.83 126.1 82.88C126.1 82.91 126.08 82.96 126.05 83.03C126.02 83.08 126.01 83.22 126.01 83.46V83.85C126.46 83.68 126.87 83.49 127.24 83.26C127.42 83.15 127.57 83.03 127.68 82.92C127.8 83.02 127.97 83.19 128.18 83.44C128.23 83.51 128.26 83.56 128.26 83.59C128.26 83.65 128.22 83.68 128.13 83.69C128.07 83.69 127.95 83.74 127.77 83.83C126.98 84.21 126.4 84.46 126.01 84.6V85.21C126.01 85.35 126.06 85.44 126.16 85.49C126.25 85.53 126.46 85.55 126.81 85.55C127.23 85.55 127.49 85.5 127.59 85.4C127.65 85.34 127.68 85.24 127.7 85.12C127.71 85.05 127.72 84.9 127.73 84.65H127.72Z" fill="#9C1F25"/>
<path d="M132.32 80.6202C132.59 80.5902 132.93 80.5402 133.32 80.4502C133.35 80.4402 133.37 80.4302 133.38 80.4302C133.41 80.4302 133.43 80.4602 133.44 80.5102C133.48 80.7102 133.51 80.9302 133.52 81.1602C133.52 81.2202 133.49 81.2502 133.42 81.2502C133.14 81.3102 132.7 81.3802 132.09 81.4702C131.53 82.9502 131.01 84.1102 130.52 84.9302C130.49 84.9802 130.46 85.0102 130.43 85.0102C130.41 85.0102 130.38 85.0002 130.34 84.9702C130.11 84.8302 129.93 84.7002 129.78 84.5602C129.74 84.5302 129.72 84.5002 129.72 84.4702C129.72 84.4402 129.73 84.4102 129.76 84.3702C130.36 83.3802 130.82 82.4502 131.16 81.5602C130.96 81.5602 130.69 81.5802 130.35 81.5802C130.19 81.5802 130.04 81.5802 129.91 81.5802C129.85 81.5802 129.81 81.5402 129.8 81.4502C129.77 81.3202 129.74 81.0902 129.72 80.7602C130.01 80.7802 130.26 80.7902 130.47 80.7902C130.78 80.7902 131.09 80.7802 131.4 80.7502C131.47 80.5002 131.54 80.2002 131.61 79.8502C131.64 79.6602 131.66 79.4402 131.66 79.2002C132.12 79.2602 132.44 79.3202 132.6 79.3702C132.69 79.3902 132.73 79.4202 132.73 79.4902C132.73 79.5402 132.71 79.6002 132.66 79.6402C132.62 79.7002 132.57 79.8002 132.53 79.9402C132.52 79.9802 132.48 80.1002 132.43 80.2902C132.39 80.4302 132.36 80.5402 132.34 80.6202H132.32ZM133.61 83.9902C133.57 83.5902 133.55 83.1302 133.54 82.6002C133.54 82.3802 133.51 82.1902 133.47 82.0302C133.84 82.0702 134.13 82.1202 134.35 82.1802C134.43 82.2002 134.46 82.2402 134.46 82.3102C134.46 82.3302 134.44 82.3902 134.41 82.4802C134.39 82.5502 134.37 82.6302 134.37 82.7202C134.37 82.7402 134.37 82.7702 134.37 82.8102C134.37 83.2202 134.4 83.6802 134.46 84.1802C135.07 84.4302 135.56 84.6802 135.91 84.9302C135.96 84.9602 135.98 85.0002 135.98 85.0202C135.98 85.0402 135.98 85.0602 135.96 85.1002C135.84 85.3502 135.72 85.5602 135.59 85.7502C135.57 85.7902 135.54 85.8002 135.51 85.8002C135.49 85.8002 135.46 85.7802 135.43 85.7502C135.19 85.5402 134.86 85.3102 134.45 85.0702C134.45 85.4902 134.3 85.8002 133.99 86.0002C133.74 86.1702 133.39 86.2502 132.95 86.2502C132.47 86.2502 132.1 86.1302 131.82 85.9002C131.58 85.6902 131.46 85.4302 131.46 85.1102C131.46 84.7302 131.61 84.4402 131.92 84.2202C132.19 84.0302 132.53 83.9302 132.96 83.9302C133.18 83.9302 133.39 83.9502 133.59 83.9802L133.61 83.9902ZM133.63 84.7602C133.39 84.6802 133.17 84.6402 132.97 84.6402C132.74 84.6402 132.57 84.6802 132.43 84.7702C132.31 84.8502 132.25 84.9702 132.25 85.1002C132.25 85.3602 132.48 85.4902 132.94 85.4902C133.17 85.4902 133.35 85.4302 133.48 85.3102C133.59 85.2102 133.64 85.0802 133.64 84.9202C133.64 84.8402 133.64 84.7902 133.64 84.7602H133.63ZM134.11 81.3902C134.33 81.0002 134.45 80.7902 134.47 80.7602C134.5 80.7102 134.53 80.6802 134.57 80.6802C134.59 80.6802 134.61 80.6802 134.64 80.7002C135.12 80.8302 135.65 81.0802 136.22 81.4602C136.27 81.4902 136.29 81.5202 136.29 81.5502C136.29 81.5802 136.28 81.6102 136.26 81.6502C136.18 81.8302 136.06 82.0302 135.92 82.2502C135.9 82.2902 135.87 82.3002 135.85 82.3002C135.83 82.3002 135.81 82.2902 135.78 82.2702C135.15 81.8402 134.59 81.5502 134.11 81.3902Z" fill="#9C1F25"/>
<path d="M138.89 85.3704C138.62 85.7204 138.31 86.0303 137.96 86.3103C137.87 86.3703 137.81 86.4004 137.78 86.4004C137.74 86.4004 137.68 86.3504 137.6 86.2504C137.46 86.0804 137.32 85.9503 137.18 85.8503C137.65 85.5603 138 85.2604 138.23 84.9604C138.32 84.8404 138.38 84.7404 138.42 84.6404C138.69 84.7504 138.9 84.8403 139.04 84.9203C139.12 84.9603 139.15 85.0004 139.15 85.0404C139.15 85.0804 139.12 85.1204 139.06 85.1504C139.03 85.1704 138.97 85.2403 138.88 85.3503L138.89 85.3704ZM138.4 84.5903L137.39 84.6104C137.39 84.6104 137.32 84.6103 137.31 84.5903C137.31 84.5803 137.3 84.5603 137.3 84.5203V83.9704C137.3 83.9704 137.3 83.9004 137.32 83.9004C137.34 83.9004 137.35 83.8904 137.39 83.8904L138.04 83.9104V80.7904C137.9 80.7904 137.76 80.7904 137.64 80.8004C137.56 80.8004 137.52 80.8004 137.51 80.8004C137.46 80.8004 137.43 80.8003 137.42 80.7803C137.42 80.7803 137.41 80.7504 137.41 80.7204V80.1604C137.41 80.1604 137.41 80.0904 137.43 80.0804C137.44 80.0804 137.47 80.0704 137.51 80.0704L138.04 80.0903V79.9503C138.04 79.5703 138.02 79.2904 137.99 79.1104C138.29 79.1104 138.54 79.1404 138.75 79.1604C138.83 79.1704 138.86 79.2003 138.86 79.2403C138.86 79.2703 138.84 79.3204 138.81 79.3904C138.78 79.4504 138.77 79.6403 138.77 79.9503V80.1003H139.88V79.9503C139.88 79.5703 139.86 79.2904 139.83 79.1104C140.27 79.1404 140.52 79.1603 140.59 79.1703C140.67 79.1803 140.7 79.2104 140.7 79.2504C140.7 79.2704 140.69 79.3204 140.66 79.4004C140.63 79.4904 140.61 79.6704 140.61 79.9604V80.1104C140.72 80.1104 140.83 80.1103 140.94 80.1003C141.01 80.1003 141.05 80.1003 141.06 80.1003C141.11 80.1003 141.14 80.1304 141.14 80.1904V80.7504C141.14 80.8004 141.11 80.8304 141.06 80.8304H140.61V83.9404C140.73 83.9404 140.84 83.9404 140.95 83.9304C141.02 83.9304 141.06 83.9304 141.07 83.9304C141.12 83.9304 141.15 83.9603 141.15 84.0203V84.5704C141.15 84.6304 141.12 84.6604 141.07 84.6604L140.08 84.6404H138.37L138.4 84.5903ZM138.79 81.4004H139.9V80.7803H138.79V81.4004ZM138.79 82.6404H139.9V82.0404H138.79V82.6404ZM138.79 83.9004H139.9V83.2803H138.79V83.9004ZM140.14 84.7104C140.38 85.0204 140.61 85.2504 140.83 85.4104C140.65 85.5304 140.5 85.6604 140.38 85.8004C140.31 85.8804 140.27 85.9203 140.24 85.9203C140.21 85.9203 140.17 85.8904 140.11 85.8204C139.86 85.5504 139.66 85.3004 139.53 85.0704C139.51 85.0404 139.5 85.0204 139.5 85.0004C139.5 84.9804 139.52 84.9504 139.56 84.9304L139.98 84.7003C139.98 84.7003 140.06 84.6504 140.07 84.6504C140.09 84.6504 140.11 84.6704 140.14 84.7104ZM142.57 85.5203C142.82 85.5403 143.05 85.5404 143.26 85.5404C143.43 85.5404 143.51 85.4504 143.51 85.2604V83.8103H142.21C142.16 84.3803 142.06 84.8703 141.92 85.2803C141.81 85.6003 141.65 85.9203 141.45 86.2403C141.39 86.3403 141.34 86.3904 141.3 86.3904C141.27 86.3904 141.22 86.3503 141.14 86.2703C140.97 86.1003 140.8 85.9704 140.64 85.8904C141 85.4204 141.24 84.9103 141.35 84.3503C141.45 83.8503 141.5 83.0804 141.5 82.0504V80.7204L141.48 79.3904C141.48 79.3904 141.48 79.3203 141.5 79.3103C141.51 79.3103 141.54 79.3004 141.58 79.3004L142.41 79.3204H143.4L144.23 79.3004C144.23 79.3004 144.3 79.3004 144.31 79.3204C144.31 79.3304 144.32 79.3604 144.32 79.4004L144.3 80.7304V84.3704L144.32 85.4804C144.32 85.7904 144.24 86.0104 144.09 86.1404C143.92 86.2804 143.59 86.3503 143.1 86.3503C142.96 86.3503 142.88 86.3403 142.86 86.3103C142.84 86.2903 142.82 86.2203 142.78 86.1003C142.74 85.8803 142.67 85.6903 142.56 85.5203H142.57ZM142.26 83.0903H143.51V81.9104H142.29V82.0603C142.29 82.4403 142.29 82.7803 142.27 83.0903H142.26ZM143.51 80.0404H142.29V81.1904H143.51V80.0404Z" fill="#9C1F25"/>
<path d="M147.84 79.2903L148.66 79.2702C148.66 79.2702 148.72 79.2703 148.73 79.2903C148.73 79.3003 148.74 79.3303 148.74 79.3703L148.72 80.1302V81.1302L148.74 81.8903C148.74 81.8903 148.74 81.9703 148.72 81.9803C148.72 81.9803 148.69 81.9902 148.66 81.9902L147.84 81.9703H146.53V84.5803L146.55 86.3003C146.55 86.3003 146.55 86.3702 146.53 86.3802C146.51 86.3902 146.5 86.3903 146.46 86.3903H145.77C145.77 86.3903 145.71 86.3902 145.7 86.3802C145.7 86.3802 145.69 86.3502 145.69 86.3102L145.71 84.5902V81.1003L145.69 79.3703C145.69 79.3703 145.69 79.2903 145.71 79.2803C145.72 79.2803 145.75 79.2702 145.78 79.2702L146.73 79.2903H147.84ZM147.93 79.8903H146.54V80.3703H147.93V79.8903ZM147.93 81.4003V80.9202H146.54V81.4003H147.93ZM148.19 85.8503H147.62C147.62 85.8503 147.55 85.8503 147.54 85.8303C147.54 85.8303 147.53 85.7903 147.53 85.7503L147.55 84.2903V83.5803L147.53 82.5703C147.53 82.5703 147.53 82.5002 147.55 82.4902C147.55 82.4902 147.59 82.4803 147.62 82.4803L148.48 82.5003H149.57L150.44 82.4803C150.44 82.4803 150.51 82.4803 150.51 82.5003C150.51 82.5003 150.52 82.5403 150.52 82.5703L150.5 83.4403V84.2402L150.52 85.6702C150.52 85.6702 150.52 85.7403 150.51 85.7503C150.51 85.7503 150.48 85.7603 150.44 85.7603H149.86C149.86 85.7603 149.79 85.7602 149.78 85.7402C149.78 85.7302 149.77 85.7003 149.77 85.6603V85.4103H148.29V85.7402C148.29 85.7402 148.29 85.8103 148.27 85.8203C148.26 85.8203 148.23 85.8303 148.19 85.8303V85.8503ZM148.29 83.1203V83.6603H149.77V83.1203H148.29ZM148.29 84.8102H149.77V84.2503H148.29V84.8102ZM150.58 85.4803C150.79 85.5103 151.01 85.5202 151.26 85.5202C151.4 85.5202 151.49 85.4903 151.54 85.4403C151.58 85.4003 151.59 85.3202 151.59 85.2002V81.9803H150.27L149.39 82.0003C149.39 82.0003 149.32 82.0003 149.31 81.9803C149.31 81.9803 149.3 81.9403 149.3 81.9003L149.32 81.1903V80.0703L149.3 79.3603C149.3 79.3603 149.3 79.2802 149.32 79.2702C149.33 79.2702 149.36 79.2603 149.39 79.2603L150.27 79.2803H151.46L152.36 79.2603C152.36 79.2603 152.43 79.2603 152.44 79.2803C152.44 79.2903 152.45 79.3203 152.45 79.3603L152.43 80.4202V83.7303L152.46 85.3402C152.46 85.6902 152.38 85.9402 152.23 86.0902C152.14 86.1702 152 86.2303 151.84 86.2603C151.67 86.2903 151.42 86.3003 151.08 86.3003C150.95 86.3003 150.88 86.2903 150.86 86.2603C150.84 86.2403 150.82 86.1703 150.79 86.0403C150.74 85.8103 150.68 85.6102 150.6 85.4502L150.58 85.4803ZM151.59 79.8903H150.1V80.3703H151.59V79.8903ZM150.1 81.4003H151.59V80.9202H150.1V81.4003Z" fill="#9C1F25"/>
<path d="M15.39 9.27998V8.21998C15.39 7.90998 15.38 7.65998 15.34 7.47998C15.79 7.50998 16.15 7.55998 16.44 7.63998C16.56 7.66998 16.62 7.72998 16.62 7.81998C16.62 7.85998 16.6 7.90998 16.57 7.96998C16.5 8.09998 16.46 8.21998 16.44 8.32998C16.42 8.50998 16.41 8.75998 16.4 9.09998C16.73 9.02998 17.12 8.91998 17.59 8.75998C17.61 8.75998 17.63 8.74998 17.65 8.74998C17.7 8.74998 17.73 8.77998 17.74 8.83998C17.78 9.06998 17.79 9.30998 17.79 9.55998C17.79 9.63998 17.75 9.67998 17.67 9.70998C17.18 9.86998 16.74 9.97998 16.35 10.06L16.33 11.4C17.15 11.05 17.91 10.88 18.6 10.89C19.22 10.89 19.71 11.09 20.08 11.47C20.4 11.8 20.57 12.23 20.57 12.74C20.57 13.37 20.37 13.85 19.96 14.18C19.61 14.47 19.14 14.61 18.56 14.61C18.29 14.61 18.03 14.58 17.8 14.53C17.66 14.49 17.6 14.4 17.6 14.25C17.57 13.94 17.48 13.68 17.32 13.47C17.65 13.58 18.04 13.63 18.48 13.63C18.78 13.63 19.02 13.54 19.21 13.37C19.39 13.2 19.48 12.97 19.48 12.68C19.48 12.36 19.38 12.12 19.18 11.96C19.01 11.82 18.77 11.75 18.47 11.75C17.87 11.75 17.17 11.96 16.35 12.38C16.35 12.77 16.37 13.14 16.39 13.49C16.44 14.21 16.47 14.61 16.47 14.69C16.47 14.8 16.47 14.86 16.46 14.89C16.44 14.94 16.4 14.98 16.33 14.99C16.1 15.05 15.87 15.09 15.65 15.1C15.59 15.1 15.51 15.04 15.42 14.92C15.14 14.54 14.71 14.14 14.11 13.74C14 13.8 13.9 13.87 13.82 13.94C13.78 13.98 13.72 14 13.66 14C13.58 14 13.52 13.95 13.46 13.85C13.37 13.7 13.23 13.41 13.04 12.99C13.34 12.92 13.62 12.81 13.89 12.67C14.17 12.52 14.67 12.23 15.4 11.81V10.23C14.78 10.28 14.27 10.3 13.85 10.3C13.72 10.3 13.64 10.24 13.63 10.11C13.61 9.95998 13.57 9.68998 13.53 9.30998C13.73 9.33998 13.97 9.34998 14.25 9.34998C14.51 9.34998 14.91 9.32998 15.42 9.27998H15.39ZM15.41 12.78C15.02 13.04 14.72 13.25 14.51 13.41C14.83 13.58 15.12 13.72 15.38 13.83C15.4 13.83 15.42 13.83 15.43 13.83C15.46 13.83 15.47 13.81 15.47 13.78C15.47 13.78 15.47 13.76 15.47 13.75C15.47 13.66 15.45 13.49 15.44 13.25C15.43 13.01 15.42 12.85 15.41 12.78ZM18.5 9.27998C18.61 9.05998 18.75 8.81998 18.92 8.55998C18.97 8.47998 19.01 8.43998 19.04 8.43998C19.04 8.43998 19.06 8.43998 19.08 8.43998C19.88 8.66998 20.53 9.04998 21.04 9.56998C21.08 9.60998 21.09 9.63998 21.09 9.65998C21.09 9.66998 21.08 9.69998 21.05 9.74998C21 9.82998 20.91 9.94998 20.79 10.1C20.65 10.27 20.57 10.38 20.55 10.41C20.53 10.43 20.5 10.44 20.45 10.44C20.41 10.44 20.38 10.43 20.36 10.41C19.93 9.92998 19.3 9.54998 18.49 9.26998L18.5 9.27998Z" fill="#9C1F25"/>
<path d="M25.6503 6.96996C26.0503 6.96996 26.3903 6.99996 26.6603 7.02996C26.7603 7.03996 26.8103 7.06996 26.8103 7.11996C26.8103 7.17996 26.7903 7.23996 26.7703 7.30996C26.7303 7.41996 26.7003 7.66996 26.7003 8.06996V8.37996H28.3303L29.5903 8.35996C29.6403 8.35996 29.6703 8.35996 29.6803 8.37996C29.6903 8.39996 29.6903 8.41996 29.6903 8.46996L29.6703 9.88996V11.24L29.6903 13.34C29.6903 13.34 29.6903 13.41 29.6703 13.42C29.6603 13.43 29.6303 13.44 29.5903 13.44H28.8103C28.7603 13.44 28.7303 13.44 28.7203 13.42C28.7103 13.4 28.7103 13.38 28.7103 13.34V13.02H26.6903V15.33C26.6903 15.4 26.6703 15.43 26.6103 15.43H25.7803C25.7203 15.43 25.6903 15.4 25.6903 15.33L25.7103 13.63V13.02H23.7603V13.37C23.7603 13.37 23.7603 13.45 23.7403 13.45C23.7303 13.45 23.7003 13.46 23.6503 13.46H22.8703C22.8703 13.46 22.7903 13.46 22.7903 13.44C22.7903 13.43 22.7803 13.4 22.7803 13.36L22.8003 11.25V10.05L22.7803 8.44996C22.7803 8.39996 22.7803 8.36996 22.8003 8.35996C22.8203 8.34996 22.8403 8.34996 22.8903 8.34996L24.1503 8.36996H25.7103V8.07996C25.7103 7.62996 25.6903 7.24996 25.6403 6.95996L25.6503 6.96996ZM23.7703 9.21996V10.26H25.7203V9.21996H23.7703ZM23.7703 12.18H25.7203V11.08H23.7703V12.18ZM28.7203 9.21996H26.7003V10.26H28.7203V9.21996ZM26.7003 12.18H28.7203V11.08H26.7003V12.18Z" fill="#9C1F25"/>
<path d="M33.3603 7.41992C33.9503 7.48992 34.3303 7.53992 34.5203 7.58992C34.6703 7.62992 34.7403 7.67992 34.7403 7.76992C34.7403 7.81992 34.7103 7.91992 34.6503 8.07992C34.6103 8.20992 34.5603 8.57992 34.5203 9.19992C34.4303 10.6299 34.3803 11.8199 34.3803 12.7799C34.3803 13.2799 34.4403 13.5999 34.5503 13.7399C34.6603 13.8699 34.8903 13.9299 35.2303 13.9299C35.7203 13.9299 36.2603 13.7799 36.8503 13.4699C37.4303 13.1699 37.9703 12.7499 38.4703 12.2199C38.5003 12.5499 38.5703 12.8399 38.6803 13.0999C38.7303 13.2099 38.7503 13.2799 38.7503 13.3199C38.7503 13.3999 38.6903 13.4999 38.5703 13.6099C38.0503 14.0899 37.4503 14.4499 36.7703 14.6899C36.2003 14.8999 35.6403 14.9999 35.0603 14.9999C34.4103 14.9999 33.9603 14.8399 33.6903 14.5299C33.4403 14.2399 33.3203 13.7599 33.3203 13.1199C33.3203 12.5499 33.3603 11.2099 33.4503 9.12992C33.4503 8.81992 33.4603 8.59992 33.4603 8.48992C33.4603 8.06992 33.4203 7.71992 33.3503 7.43992L33.3603 7.41992Z" fill="#9C1F25"/>
<path d="M49.1705 14.13C49.0405 14.32 48.9605 14.56 48.9205 14.85C48.9005 15 48.8705 15.09 48.8305 15.12C48.8005 15.14 48.7105 15.16 48.5705 15.16C47.4505 15.22 46.3805 15.25 45.3305 15.25C44.2805 15.25 43.6005 15.16 43.1705 14.98C42.8005 14.83 42.5005 14.55 42.2605 14.15C41.9705 14.44 41.6505 14.71 41.3105 14.97C41.2205 15.04 41.1605 15.1 41.1205 15.15C41.0805 15.21 41.0305 15.24 40.9905 15.24C40.9505 15.24 40.9005 15.2 40.8605 15.12C40.7605 14.94 40.6305 14.65 40.4805 14.25C40.7105 14.14 40.8905 14.05 41.0305 13.96C41.2705 13.81 41.5305 13.62 41.8105 13.37V11.33H41.3605L40.6805 11.35C40.6305 11.35 40.6005 11.35 40.5905 11.33C40.5805 11.32 40.5705 11.29 40.5705 11.24V10.53C40.5705 10.53 40.5705 10.45 40.5905 10.44C40.6005 10.44 40.6305 10.43 40.6805 10.43L41.3605 10.45H41.9505L42.6405 10.43C42.6405 10.43 42.7205 10.43 42.7305 10.45C42.7305 10.46 42.7405 10.49 42.7405 10.53L42.7205 11.41V13.37C42.9205 13.75 43.1705 14.01 43.4805 14.14C43.7905 14.26 44.3605 14.33 45.1905 14.33C46.4905 14.33 47.8205 14.26 49.1605 14.13H49.1705ZM40.8205 7.8C40.8205 7.8 40.7805 7.75 40.7805 7.73C40.7805 7.71 40.8105 7.68 40.8705 7.64L41.3805 7.3C41.4405 7.26 41.4705 7.25 41.4905 7.25C41.5105 7.25 41.5405 7.26 41.5705 7.29C42.0405 7.73 42.4305 8.19 42.7305 8.67C42.7505 8.71 42.7705 8.73 42.7705 8.75C42.7705 8.77 42.7405 8.81 42.6805 8.85L42.1405 9.25C42.0805 9.29 42.0405 9.31 42.0205 9.31C42.0005 9.31 41.9705 9.29 41.9405 9.25C41.5705 8.65 41.1905 8.17 40.8005 7.81L40.8205 7.8ZM42.8805 12.95C43.6805 12.39 44.2805 11.71 44.7005 10.91C45.0705 10.19 45.3105 9.34 45.4005 8.37H44.6005L43.8105 8.39C43.7605 8.39 43.7205 8.39 43.7205 8.37C43.7105 8.36 43.7005 8.33 43.7005 8.28V7.56C43.7005 7.51 43.7005 7.48 43.7205 7.47C43.7305 7.47 43.7605 7.46 43.8105 7.46L44.6005 7.48H45.4205L46.2605 7.46C46.3205 7.46 46.3505 7.5 46.3505 7.56C46.3505 8.08 46.3905 8.53 46.4605 8.92C46.6105 9.76 46.9205 10.53 47.4105 11.24C47.8605 11.88 48.4005 12.4 49.0505 12.82C48.8505 13.05 48.6805 13.29 48.5605 13.54C48.4905 13.68 48.4305 13.74 48.3905 13.74C48.3405 13.74 48.2705 13.7 48.1905 13.62C47.0705 12.72 46.3205 11.55 45.9405 10.11C45.6005 11.48 44.9005 12.63 43.8305 13.55C43.7205 13.64 43.6605 13.68 43.6305 13.68C43.6005 13.68 43.5405 13.62 43.4405 13.5C43.2705 13.27 43.0805 13.09 42.8705 12.95H42.8805Z" fill="#9C1F25"/>
<path d="M55.6403 11.2602C55.7403 10.8002 55.8003 10.4102 55.8303 10.0702C55.8303 9.9802 55.8403 9.8902 55.8403 9.8002C55.8403 9.6902 55.8403 9.5702 55.8203 9.4402C56.3003 9.5602 56.6603 9.6902 56.8903 9.8402C56.9503 9.8802 56.9803 9.9302 56.9803 10.0002C56.9803 10.0402 56.9803 10.0702 56.9503 10.0902C56.8603 10.2802 56.8103 10.4002 56.8003 10.4502C56.7403 10.7402 56.6603 11.1402 56.5403 11.6402C57.0903 11.9202 57.5703 12.2202 57.9803 12.5302C58.0303 12.5602 58.0603 12.5902 58.0603 12.6302C58.0603 12.6502 58.0603 12.6802 58.0403 12.7202C57.9203 13.0102 57.7903 13.2702 57.6403 13.5102C57.6103 13.5502 57.5803 13.5702 57.5503 13.5702C57.5203 13.5702 57.4803 13.5502 57.4403 13.5102C57.0403 13.1602 56.6403 12.8702 56.2303 12.6402C55.9703 13.2202 55.7003 13.6902 55.4003 14.0802C55.1303 14.4302 54.7803 14.7602 54.3703 15.0802C54.2803 15.1502 54.2203 15.1802 54.1903 15.1802C54.1603 15.1802 54.1103 15.1602 54.0503 15.1202C53.8403 14.9502 53.5703 14.8202 53.2403 14.7402C53.8303 14.3302 54.3003 13.9002 54.6403 13.4502C54.9103 13.0902 55.1403 12.6902 55.3103 12.2302C54.7803 11.9602 54.1703 11.7702 53.4803 11.6702C53.0303 12.6002 52.6503 13.2202 52.3503 13.5202C52.0303 13.8602 51.6303 14.0302 51.1703 14.0302C50.8403 14.0302 50.5803 13.9202 50.3803 13.6902C50.1803 13.4602 50.0703 13.1502 50.0703 12.7602C50.0703 12.1402 50.3603 11.6402 50.9503 11.2402C51.4603 10.8902 52.0703 10.7202 52.7903 10.7202C53.1003 9.9502 53.3503 9.2202 53.5603 8.5302C53.1403 8.5802 52.7203 8.6202 52.2903 8.6802C52.1303 8.7002 51.9903 8.7402 51.8703 8.7802C51.8103 8.8002 51.7503 8.8202 51.7003 8.8202C51.6303 8.8202 51.5803 8.7902 51.5603 8.7202C51.4803 8.5402 51.3903 8.2102 51.2903 7.7102C51.4803 7.7502 51.6903 7.7702 51.9303 7.7702C51.9803 7.7702 52.0403 7.7702 52.1103 7.7702C52.4903 7.7702 52.9703 7.7302 53.5403 7.6502C53.7203 7.6202 53.8703 7.5702 53.9903 7.4902C54.0203 7.4702 54.0603 7.4502 54.1103 7.4502C54.1603 7.4502 54.2003 7.4602 54.2403 7.4902C54.4703 7.6302 54.6803 7.8002 54.8703 8.0002C54.9203 8.0502 54.9503 8.1102 54.9503 8.1602C54.9503 8.2002 54.9203 8.2502 54.8603 8.3202C54.8003 8.3702 54.7403 8.4502 54.7003 8.5602L54.6103 8.8002C54.1503 10.0102 53.8903 10.6802 53.8403 10.8202C54.4003 10.8902 55.0003 11.0502 55.6303 11.2802L55.6403 11.2602ZM52.4803 11.6002C51.9903 11.6202 51.6003 11.7502 51.3103 11.9802C51.0703 12.1702 50.9503 12.4002 50.9503 12.6502C50.9503 12.9302 51.0603 13.0702 51.2803 13.0702C51.4503 13.0702 51.6303 12.9502 51.8103 12.7202C52.0203 12.4502 52.2503 12.0802 52.4803 11.5902V11.6002Z" fill="#9C1F25"/>
<path d="M86.5602 39.8299C86.6502 39.1699 86.9302 38.6599 87.4002 38.3199C87.8002 38.0299 88.2802 37.8799 88.8602 37.8799C89.5902 37.8799 90.1602 38.0699 90.5602 38.4399C90.9202 38.7699 91.1002 39.2199 91.1002 39.7799C91.1002 40.1999 90.9802 40.5999 90.7302 40.9699C90.5102 41.2999 90.1302 41.6999 89.5902 42.1699C89.0302 42.6399 88.6102 43.0299 88.3402 43.3199C88.0902 43.5899 87.9002 43.8599 87.7802 44.1199H91.1202V45.0499H86.4902V44.2199C86.9102 43.3899 87.6202 42.5199 88.6202 41.6099C89.1402 41.1399 89.4802 40.7799 89.6302 40.5199C89.7702 40.2899 89.8402 40.0399 89.8402 39.7699C89.8402 39.4399 89.7402 39.1999 89.5302 39.0299C89.3502 38.8799 89.1202 38.7999 88.8302 38.7999C88.5002 38.7999 88.2302 38.9199 88.0402 39.1699C87.8702 39.3899 87.7702 39.6899 87.7502 40.0699L86.5502 39.8299H86.5602Z" fill="#9C1F25"/>
<path d="M102.481 44.4898C102.371 44.6898 102.291 44.9098 102.251 45.1798C102.231 45.3298 102.201 45.4198 102.161 45.4498C102.131 45.4698 102.041 45.4798 101.901 45.4898C100.821 45.5598 99.7206 45.5898 98.6206 45.5898C97.6106 45.5898 96.8906 45.4998 96.4706 45.3198C96.0506 45.1498 95.7305 44.8898 95.4905 44.5198C95.2905 44.7398 95.0106 44.9998 94.6506 45.3098C94.5406 45.3898 94.4706 45.4598 94.4406 45.4998C94.4006 45.5498 94.3605 45.5698 94.3205 45.5698C94.2805 45.5698 94.2306 45.5298 94.1906 45.4498C94.0906 45.2598 93.9605 44.9798 93.8105 44.5998C94.0105 44.4998 94.1905 44.3998 94.3405 44.2898C94.5405 44.1698 94.7705 43.9798 95.0305 43.7198V41.6598H94.6606L94.0205 41.6798C93.9705 41.6798 93.9305 41.6798 93.9205 41.6598C93.9205 41.6498 93.9106 41.6198 93.9106 41.5698V40.8698C93.9106 40.8698 93.9105 40.7898 93.9305 40.7798C93.9405 40.7798 93.9705 40.7698 94.0205 40.7698L94.6606 40.7898H95.1805L95.8405 40.7698C95.8905 40.7698 95.9205 40.7698 95.9305 40.7898C95.9305 40.7998 95.9406 40.8298 95.9406 40.8698L95.9205 41.7698V43.7798C96.0905 44.1098 96.3705 44.3498 96.7505 44.5098C97.1005 44.6298 97.6705 44.6998 98.4605 44.6998C99.7705 44.6998 101.101 44.6298 102.451 44.4998L102.481 44.4898ZM94.8405 37.6198C95.3005 38.0398 95.6805 38.4898 95.9905 38.9598C96.0105 38.9898 96.0305 39.0198 96.0305 39.0398C96.0305 39.0698 96.0006 39.1098 95.9406 39.1498L95.4505 39.5598C95.3905 39.6098 95.3506 39.6298 95.3306 39.6298C95.3106 39.6298 95.2805 39.6098 95.2505 39.5698C94.9305 39.0398 94.5506 38.5498 94.1206 38.1198C94.0906 38.0898 94.0705 38.0698 94.0705 38.0498C94.0705 38.0298 94.1006 37.9998 94.1506 37.9598L94.6405 37.6198C94.6405 37.6198 94.7205 37.5698 94.7505 37.5698C94.7805 37.5698 94.8105 37.5898 94.8405 37.6198ZM99.6005 41.5698L100.371 41.5498C100.431 41.5498 100.461 41.5798 100.461 41.6498L100.441 42.2698V42.9198C100.441 43.1998 100.441 43.3798 100.441 43.4398H100.671C100.841 43.4398 100.931 43.3498 100.931 43.1798V38.4798H97.5506V40.5498C97.5506 41.1998 97.5305 41.6998 97.4905 42.0598C97.4005 42.8798 97.2106 43.5498 96.9106 44.0698C96.8406 44.1798 96.8005 44.2398 96.7705 44.2398C96.7505 44.2398 96.6806 44.1898 96.5806 44.0798C96.4206 43.8998 96.2305 43.7498 96.0205 43.6198C96.3405 43.1798 96.5406 42.5898 96.6206 41.8598C96.6706 41.4798 96.6906 40.8898 96.6906 40.0898V39.1298V38.5798L96.6705 37.7698C96.6705 37.7698 96.6706 37.6898 96.6906 37.6798C96.7006 37.6798 96.7305 37.6698 96.7705 37.6698L98.0106 37.6898H100.501L101.751 37.6698C101.801 37.6698 101.831 37.6698 101.841 37.6898C101.841 37.6998 101.851 37.7298 101.851 37.7698L101.831 38.5798V41.9598L101.861 43.3498C101.861 43.6998 101.771 43.9498 101.601 44.0998C101.441 44.2298 101.071 44.2898 100.491 44.2998C100.341 44.2998 100.251 44.2898 100.231 44.2598C100.211 44.2398 100.191 44.1698 100.171 44.0498C100.141 43.8798 100.111 43.7398 100.081 43.6298C100.011 43.6298 99.8505 43.6298 99.6005 43.6298H98.8505L98.0806 43.6498C98.0306 43.6498 98.0005 43.6498 97.9905 43.6298C97.9905 43.6198 97.9806 43.5898 97.9806 43.5398L98.0005 42.9198V42.2698L97.9806 41.6498C97.9806 41.6498 97.9805 41.5698 98.0005 41.5698C98.0105 41.5698 98.0406 41.5598 98.0806 41.5598L98.8505 41.5798H99.6206L99.6005 41.5698ZM100.481 39.2198C100.531 39.2198 100.561 39.2198 100.571 39.2398C100.571 39.2398 100.581 39.2698 100.581 39.3198V39.8298C100.581 39.8798 100.581 39.9098 100.561 39.9198C100.551 39.9198 100.521 39.9298 100.471 39.9298L99.8105 39.9098H99.5905V40.4398H99.8306L100.611 40.4198C100.611 40.4198 100.691 40.4198 100.701 40.4398C100.701 40.4498 100.711 40.4798 100.711 40.5298V41.0498C100.711 41.0498 100.711 41.1298 100.691 41.1398C100.671 41.1498 100.651 41.1498 100.601 41.1498L99.8205 41.1298H98.6606L97.8405 41.1498C97.8405 41.1498 97.7605 41.1498 97.7505 41.1298C97.7505 41.1198 97.7405 41.0898 97.7405 41.0498V40.5298C97.7405 40.5298 97.7406 40.4498 97.7606 40.4398C97.7706 40.4398 97.8005 40.4298 97.8405 40.4298L98.6606 40.4498H98.7906V39.9198H98.6906L97.9605 39.9398C97.9605 39.9398 97.8806 39.9398 97.8706 39.9198C97.8706 39.9098 97.8605 39.8798 97.8605 39.8298V39.3198C97.8605 39.2598 97.8905 39.2298 97.9605 39.2298L98.6906 39.2498H98.7906C98.7906 39.0598 98.7705 38.8598 98.7405 38.6498C99.0305 38.6498 99.3106 38.6798 99.5506 38.6998C99.6306 38.7098 99.6705 38.7398 99.6705 38.7898C99.6705 38.8098 99.6605 38.8598 99.6305 38.9198C99.6005 38.9798 99.5806 39.0898 99.5806 39.2498H99.8006L100.461 39.2298L100.481 39.2198ZM99.6906 42.9398V42.2098H98.7405V42.9398H99.6906Z" fill="#9C1F25"/>
<path d="M105.93 37.5798L106.86 37.5598C106.86 37.5598 106.93 37.5598 106.94 37.5798C106.94 37.5898 106.95 37.6198 106.95 37.6698L106.93 38.5498V39.6998L106.95 40.5798C106.95 40.6298 106.95 40.6698 106.93 40.6798C106.93 40.6798 106.9 40.6898 106.86 40.6898L105.93 40.6698H104.43V43.6598L104.45 45.6298C104.45 45.6298 104.45 45.7098 104.43 45.7098C104.42 45.7098 104.39 45.7198 104.35 45.7198H103.56C103.56 45.7198 103.49 45.7198 103.48 45.6998C103.48 45.6898 103.46 45.6598 103.46 45.6198L103.48 43.6498V39.6498L103.46 37.6598C103.46 37.6098 103.46 37.5698 103.48 37.5598C103.49 37.5598 103.52 37.5498 103.57 37.5498L104.66 37.5698H105.94L105.93 37.5798ZM106.03 38.2798H104.43V38.8298H106.03V38.2798ZM106.03 40.0098V39.4598H104.43V40.0098H106.03ZM106.34 45.0998H105.69C105.64 45.0998 105.61 45.0998 105.6 45.0798C105.6 45.0698 105.59 45.0398 105.59 44.9898L105.61 43.3198V42.5098L105.59 41.3498C105.59 41.2998 105.59 41.2698 105.61 41.2598C105.62 41.2598 105.65 41.2498 105.7 41.2498L106.69 41.2698H107.94L108.93 41.2498C108.93 41.2498 109.01 41.2498 109.02 41.2698C109.02 41.2798 109.03 41.3098 109.03 41.3598L109.01 42.3598V43.2798L109.03 44.9098C109.03 44.9098 109.03 44.9898 109.01 44.9998C108.99 45.0098 108.97 45.0198 108.93 45.0198H108.26C108.26 45.0198 108.18 45.0198 108.17 44.9998C108.17 44.9898 108.16 44.9598 108.16 44.9098V44.6298H106.47V45.0098C106.47 45.0598 106.47 45.0898 106.45 45.0998C106.44 45.0998 106.41 45.1198 106.36 45.1198L106.34 45.0998ZM106.45 41.9698V42.5898H108.14V41.9698H106.45ZM106.45 43.9098H108.14V43.2598H106.45V43.9098ZM109.07 44.6698C109.31 44.6998 109.57 44.7198 109.85 44.7198C110.01 44.7198 110.11 44.6898 110.17 44.6298C110.21 44.5798 110.23 44.4898 110.23 44.3498V40.6598H108.71L107.7 40.6798C107.65 40.6798 107.62 40.6798 107.61 40.6598C107.61 40.6498 107.6 40.6198 107.6 40.5698L107.62 39.7598V38.4798L107.6 37.6698C107.6 37.6198 107.6 37.5798 107.62 37.5698C107.63 37.5698 107.66 37.5598 107.7 37.5598L108.71 37.5798H110.07L111.1 37.5598C111.1 37.5598 111.18 37.5598 111.19 37.5798C111.19 37.5898 111.2 37.6198 111.2 37.6698L111.18 38.8898V42.6798L111.22 44.5198C111.22 44.9298 111.13 45.2098 110.95 45.3698C110.84 45.4698 110.69 45.5298 110.5 45.5698C110.31 45.5998 110.02 45.6198 109.63 45.6198C109.48 45.6198 109.4 45.6098 109.37 45.5798C109.35 45.5598 109.32 45.4698 109.29 45.3298C109.23 45.0598 109.16 44.8398 109.07 44.6598V44.6698ZM110.23 38.2798H108.52V38.8298H110.23V38.2798ZM108.52 40.0098H110.23V39.4598H108.52V40.0098Z" fill="#9C1F25"/>
<path d="M159.08 48.25H34.2695V52.31H159.08V48.25Z" fill="#9C1F25"/>
<path d="M159.07 43.8599L167.4 50.2799L159.07 56.7099" fill="#9C1F25"/>
<path d="M215.58 48.25H171.33V52.31H215.58V48.25Z" fill="#9C1F25"/>
<path d="M215.58 43.8599L223.91 50.2799L215.58 56.7099" fill="#9C1F25"/>
<path d="M61.8 1H9.22C4.68 1 1 4.68 1 9.22V13.99C1 18.53 4.68 22.21 9.22 22.21H30.39L35.72 43.86L40.67 22.21H61.81C66.35 22.21 70.03 18.53 70.03 13.99V9.22C70.03 4.68 66.35 1 61.81 1H61.8Z" stroke="#9C1F25" stroke-miterlimit="10"/>
<path d="M152.02 12.7497L150.87 12.7697C150.87 12.7697 150.79 12.7697 150.78 12.7497C150.78 12.7397 150.77 12.7097 150.77 12.6697V12.0597C150.77 12.0597 150.77 11.9797 150.79 11.9697C150.81 11.9597 150.83 11.9597 150.87 11.9597L152.02 11.9797H154.65C154.65 11.8897 154.65 11.7397 154.63 11.5497H154.36C154.31 11.5497 154.27 11.5397 154.25 11.5197C154.23 11.4997 154.22 11.4597 154.21 11.3997C154.18 11.2197 154.12 11.0697 154.02 10.9497C154.11 10.9497 154.23 10.9497 154.39 10.9497C154.51 10.9497 154.57 10.8897 154.57 10.7597V10.4697H153.72V10.4997L153.74 11.6497C153.74 11.7097 153.71 11.7397 153.64 11.7397H152.97C152.9 11.7397 152.87 11.7097 152.87 11.6497L152.89 10.4997V10.4697H152.1V11.4097C152.1 11.4097 152.1 11.4897 152.1 11.4997C152.09 11.4997 152.06 11.5097 152.02 11.5097H151.4C151.35 11.5097 151.32 11.5097 151.31 11.4897C151.31 11.4897 151.3 11.4497 151.3 11.4097L151.32 10.8997V10.4297L151.3 9.90971C151.3 9.84971 151.34 9.81971 151.4 9.81971L152.51 9.83971H152.91V9.41971H152.14L150.95 9.43971C150.9 9.43971 150.87 9.43971 150.86 9.41971C150.86 9.40971 150.85 9.37971 150.85 9.32971V8.85971C150.85 8.80971 150.85 8.76971 150.87 8.75971C150.88 8.75971 150.91 8.74971 150.95 8.74971L152.14 8.76971H152.91V8.34971H151.9L151.73 8.57971C151.65 8.68971 151.58 8.74971 151.54 8.74971C151.51 8.74971 151.44 8.70971 151.32 8.62971C151.19 8.54971 151.04 8.47971 150.86 8.43971C151.15 8.15971 151.37 7.84971 151.53 7.51971C151.6 7.34971 151.65 7.18971 151.67 7.05971C152.03 7.12971 152.26 7.17971 152.36 7.19971C152.45 7.22971 152.49 7.25971 152.49 7.29971C152.49 7.33971 152.47 7.37971 152.43 7.40971C152.38 7.44971 152.33 7.52971 152.28 7.63971L152.25 7.69971H152.91C152.91 7.36971 152.88 7.11971 152.85 6.94971C153.19 6.94971 153.47 6.97971 153.69 6.99971C153.79 6.99971 153.84 7.03971 153.84 7.09971C153.84 7.11971 153.82 7.18971 153.77 7.29971C153.75 7.38971 153.73 7.51971 153.73 7.68971H154.17L155.24 7.66971C155.24 7.66971 155.32 7.66971 155.33 7.68971C155.33 7.70971 155.34 7.72971 155.34 7.77971V8.25971C155.34 8.25971 155.34 8.33971 155.32 8.34971C155.32 8.34971 155.28 8.35971 155.24 8.35971L154.17 8.33971H153.73V8.75971H154.37L155.54 8.73971C155.59 8.73971 155.62 8.73971 155.63 8.75971C155.63 8.76971 155.64 8.79971 155.64 8.84971V9.31971C155.64 9.36971 155.64 9.40971 155.62 9.41971C155.61 9.41971 155.58 9.42971 155.53 9.42971L154.36 9.40971H153.72V9.82971H154.16L155.27 9.80971C155.34 9.80971 155.37 9.83971 155.37 9.89971V10.2497V10.8897C155.37 11.0497 155.33 11.1897 155.24 11.2997L155.48 11.3197C155.59 11.3297 155.65 11.3697 155.65 11.4397C155.65 11.4997 155.63 11.5597 155.6 11.6297C155.56 11.6897 155.54 11.7997 155.54 11.9697H157.8L158.95 11.9497C158.95 11.9497 159.03 11.9497 159.04 11.9697C159.04 11.9797 159.05 12.0097 159.05 12.0497V12.6597C159.05 12.6597 159.05 12.7297 159.03 12.7397C159.03 12.7497 158.99 12.7597 158.94 12.7597L157.79 12.7397H157.62C157.83 12.8697 158.03 12.9997 158.21 13.1597C158.27 13.2097 158.3 13.2597 158.3 13.2997C158.3 13.3597 158.26 13.3997 158.18 13.4197C158.09 13.4497 157.99 13.5097 157.87 13.5897C157.79 13.6397 157.61 13.7597 157.32 13.9497C157.86 14.2097 158.5 14.3897 159.24 14.5097C159.09 14.6697 158.95 14.8797 158.84 15.1197C158.76 15.2797 158.69 15.3597 158.63 15.3597C158.6 15.3597 158.53 15.3497 158.42 15.3197C156.75 14.8397 155.59 13.9797 154.94 12.7397H154.87C154.65 12.9397 154.4 13.1297 154.11 13.3197V14.3297C154.65 14.2497 155.23 14.1297 155.84 13.9797C155.81 14.1297 155.79 14.3197 155.79 14.5397C155.79 14.6397 155.77 14.6997 155.74 14.7297C155.71 14.7497 155.63 14.7797 155.49 14.8197C154.71 15.0097 153.83 15.1797 152.84 15.3297C152.7 15.3497 152.59 15.3797 152.51 15.4197C152.43 15.4597 152.38 15.4797 152.35 15.4797C152.29 15.4797 152.25 15.4397 152.22 15.3497C152.18 15.2197 152.1 14.9497 152.01 14.5597C152.31 14.5397 152.64 14.5197 153 14.4797L153.25 14.4497V13.7897C152.68 14.0497 152.05 14.2597 151.38 14.4197C151.27 14.4397 151.2 14.4597 151.17 14.4597C151.1 14.4597 151.03 14.3797 150.98 14.2297C150.9 14.0197 150.78 13.8497 150.64 13.7197C151.87 13.5297 152.87 13.1997 153.63 12.7397H152.05L152.02 12.7497ZM156.64 13.5497C156.89 13.3897 157.1 13.2297 157.27 13.0797C157.38 12.9697 157.48 12.8697 157.56 12.7597H155.88C156.09 13.0697 156.35 13.3297 156.65 13.5497H156.64ZM155.94 7.46971C156.31 7.46971 156.62 7.49971 156.85 7.51971C156.94 7.51971 156.99 7.55971 156.99 7.61971C156.99 7.61971 156.97 7.68971 156.93 7.79971C156.9 7.87971 156.89 8.07971 156.89 8.38971V9.32971L156.91 10.1797C156.91 10.2297 156.91 10.2597 156.89 10.2697C156.88 10.2697 156.85 10.2797 156.81 10.2797H156.09C156.09 10.2797 156.01 10.2797 156 10.2597C156 10.2497 155.99 10.2197 155.99 10.1697L156.01 9.31971V8.37971C156.01 7.99971 155.99 7.68971 155.95 7.45971L155.94 7.46971ZM156.63 10.7497C156.84 10.7697 157.08 10.7797 157.36 10.7797C157.5 10.7797 157.6 10.7597 157.66 10.7097C157.71 10.6697 157.73 10.5997 157.73 10.5097V8.16971C157.73 7.67971 157.71 7.28971 157.66 7.00971C157.98 7.00971 158.3 7.03971 158.6 7.06971C158.7 7.07971 158.75 7.10971 158.75 7.15971C158.75 7.18971 158.73 7.24971 158.68 7.34971C158.64 7.44971 158.63 7.70971 158.63 8.13971V10.7597C158.63 11.0197 158.54 11.2297 158.35 11.3797C158.17 11.5197 157.78 11.5897 157.17 11.5997C157.01 11.5997 156.92 11.5897 156.89 11.5597C156.86 11.5297 156.84 11.4697 156.82 11.3497C156.78 11.1197 156.72 10.9097 156.63 10.7397V10.7497Z" fill="#9C1F25"/>
<path d="M159.87 10.6399C160.65 9.86994 161.28 8.84994 161.75 7.59994C161.81 7.42994 161.87 7.20994 161.92 6.93994C162.41 7.06994 162.71 7.15994 162.81 7.20994C162.91 7.24994 162.96 7.29994 162.96 7.34994C162.96 7.40994 162.93 7.45994 162.87 7.51994C162.81 7.56994 162.74 7.69994 162.67 7.90994C162.51 8.32994 162.33 8.73994 162.13 9.12994V13.9499L162.15 15.3499C162.15 15.3499 162.15 15.4299 162.13 15.4399C162.12 15.4399 162.09 15.4499 162.04 15.4499H161.25C161.25 15.4499 161.17 15.4499 161.17 15.4299C161.17 15.4199 161.16 15.3899 161.16 15.3399L161.18 13.9399V11.8199C161.18 11.5799 161.18 11.1999 161.2 10.6499C161.04 10.8799 160.81 11.1599 160.5 11.4999C160.44 11.5799 160.38 11.6099 160.34 11.6099C160.29 11.6099 160.25 11.5599 160.22 11.4499C160.14 11.1099 160.03 10.8399 159.88 10.6499L159.87 10.6399ZM162.37 10.5399C162.75 10.1399 163.11 9.63994 163.44 9.03994C163.71 8.55994 163.92 8.08994 164.06 7.65994C164.14 7.40994 164.19 7.17994 164.21 6.95994C164.62 7.03994 164.92 7.10994 165.12 7.16994C165.24 7.19994 165.3 7.23994 165.3 7.30994C165.3 7.37994 165.27 7.43994 165.21 7.48994C165.13 7.55994 165.05 7.70994 164.97 7.93994C164.87 8.19994 164.78 8.42994 164.68 8.62994H167.1L168.24 8.60994C168.29 8.60994 168.33 8.60994 168.34 8.62994C168.34 8.63994 168.35 8.66994 168.35 8.71994V9.39994C168.35 9.44994 168.35 9.47994 168.33 9.48994C168.31 9.48994 168.28 9.49994 168.24 9.49994L167.1 9.47994H165.59V10.5799H166.77L167.79 10.5599C167.79 10.5599 167.87 10.5599 167.88 10.5799C167.88 10.5899 167.89 10.6199 167.89 10.6599V11.3399C167.89 11.3399 167.89 11.4099 167.87 11.4199C167.85 11.4299 167.83 11.4399 167.78 11.4399L166.76 11.4199H165.58V12.5499H166.76L167.8 12.5299C167.87 12.5299 167.9 12.5599 167.9 12.6199V13.3099C167.9 13.3099 167.9 13.3899 167.88 13.3999C167.88 13.4099 167.84 13.4199 167.79 13.4199L166.75 13.3999H165.57V13.9099L165.59 15.3499C165.59 15.3499 165.59 15.4299 165.57 15.4399C165.57 15.4399 165.53 15.4499 165.49 15.4499H164.7C164.7 15.4499 164.62 15.4499 164.62 15.4299C164.62 15.4299 164.61 15.3899 164.61 15.3499L164.63 13.9099V9.47994H164.26C163.9 10.1399 163.53 10.6899 163.15 11.1499C163.07 11.2499 163.01 11.2999 162.97 11.2999C162.93 11.2999 162.87 11.2399 162.79 11.1099C162.66 10.8799 162.52 10.6899 162.35 10.5499L162.37 10.5399Z" fill="#9C1F25"/>
<path d="M172.01 7.22971L172.94 7.20971C173 7.20971 173.03 7.24971 173.03 7.30971L173.01 8.18971V9.27971L173.03 10.1597C173.03 10.2297 173 10.2597 172.94 10.2597L172.01 10.2397H170.49V13.3297L170.51 15.3197C170.51 15.3697 170.51 15.3997 170.49 15.4097C170.48 15.4097 170.45 15.4197 170.41 15.4197H169.62C169.62 15.4197 169.55 15.4197 169.54 15.3997C169.53 15.3897 169.52 15.3597 169.52 15.3097L169.54 13.3197V9.30971L169.52 7.29971C169.52 7.24971 169.52 7.21971 169.54 7.20971C169.55 7.20971 169.58 7.19971 169.62 7.19971L170.72 7.21971H172.01V7.22971ZM172.11 7.90971H170.49V8.42971H172.11V7.90971ZM172.11 9.58971V9.04971H170.49V9.58971H172.11ZM171.01 14.6997C171.53 14.3697 171.86 13.9197 172 13.3397L172.02 13.1697C171.72 13.1697 171.46 13.1697 171.24 13.1797C171.22 13.1797 171.17 13.1797 171.07 13.1797H171.02C171.02 13.1797 170.94 13.1797 170.93 13.1597C170.93 13.1497 170.92 13.1197 170.92 13.0697V12.5097C170.92 12.5097 170.92 12.4297 170.94 12.4297C170.95 12.4297 170.98 12.4197 171.03 12.4197L172.08 12.4397C172.09 12.1297 172.1 11.8497 172.1 11.5997C171.87 11.5997 171.66 11.5997 171.48 11.6097C171.36 11.6097 171.3 11.6097 171.29 11.6097C171.24 11.6097 171.2 11.6097 171.2 11.5897C171.19 11.5797 171.18 11.5497 171.18 11.5097V10.9497C171.18 10.8997 171.18 10.8697 171.2 10.8597C171.21 10.8597 171.24 10.8497 171.29 10.8497L172.45 10.8697H174.43L175.59 10.8497C175.59 10.8497 175.67 10.8497 175.68 10.8697C175.68 10.8797 175.69 10.9097 175.69 10.9597V11.5197C175.69 11.5197 175.69 11.5997 175.67 11.5997C175.66 11.5997 175.63 11.6097 175.58 11.6097C175.58 11.6097 175.53 11.6097 175.47 11.6097C175.24 11.6097 175 11.5997 174.73 11.5997V12.4397L175.78 12.4197C175.78 12.4197 175.86 12.4197 175.87 12.4397C175.87 12.4497 175.88 12.4797 175.88 12.5197V13.0797C175.88 13.0797 175.88 13.1597 175.86 13.1697C175.84 13.1797 175.82 13.1897 175.77 13.1897L174.72 13.1697V14.0297L174.74 15.0297C174.74 15.0797 174.74 15.1097 174.72 15.1197C174.71 15.1197 174.68 15.1297 174.63 15.1297H173.95C173.9 15.1297 173.87 15.1297 173.86 15.1097C173.86 15.0997 173.85 15.0697 173.85 15.0197L173.87 14.0197V13.1597H172.9C172.88 13.3297 172.86 13.4597 172.84 13.5597C172.71 14.1597 172.42 14.6797 171.96 15.1097C171.86 15.1997 171.81 15.2397 171.78 15.2397C171.75 15.2397 171.68 15.1797 171.57 15.0697C171.43 14.9297 171.24 14.7997 171.02 14.6797L171.01 14.6997ZM172.94 12.4497H173.85V11.6097H172.96C172.96 11.8497 172.96 12.1297 172.94 12.4497ZM175.27 14.3597C175.48 14.3897 175.71 14.3997 175.94 14.3997C176.1 14.3997 176.2 14.3697 176.26 14.3197C176.3 14.2697 176.32 14.1797 176.32 14.0497V10.2397H174.81L173.79 10.2597C173.74 10.2597 173.7 10.2597 173.69 10.2397C173.69 10.2297 173.68 10.1997 173.68 10.1597L173.7 9.35971V8.11971L173.68 7.30971C173.68 7.25971 173.68 7.22971 173.7 7.21971C173.71 7.21971 173.74 7.20971 173.79 7.20971L174.81 7.22971H176.16L177.19 7.20971C177.19 7.20971 177.27 7.20971 177.28 7.22971C177.29 7.24971 177.29 7.26971 177.29 7.31971L177.27 8.57971V12.5397L177.31 14.2297C177.31 14.4697 177.29 14.6597 177.25 14.7797C177.21 14.8997 177.14 14.9997 177.05 15.0797C176.93 15.1797 176.78 15.2497 176.6 15.2797C176.43 15.3097 176.17 15.3297 175.83 15.3297C175.68 15.3297 175.59 15.3197 175.56 15.2897C175.53 15.2597 175.51 15.1797 175.49 15.0497C175.45 14.7997 175.38 14.5697 175.28 14.3697L175.27 14.3597ZM176.32 7.90971H174.6V8.42971H176.32V7.90971ZM176.32 9.58971V9.04971H174.6V9.58971H176.32Z" fill="#9C1F25"/>
<path d="M179.599 7.02977C179.979 7.04977 180.279 7.08977 180.529 7.13977C180.619 7.15977 180.669 7.19977 180.669 7.24977C180.669 7.29977 180.649 7.36977 180.599 7.43977C180.549 7.50977 180.509 7.64977 180.489 7.85977C180.429 8.27977 180.379 8.61977 180.339 8.87977H180.749L181.699 8.85977C181.779 8.85977 181.819 8.89977 181.819 8.96977C181.789 9.17977 181.769 9.40977 181.759 9.63977C181.679 10.8298 181.469 11.8298 181.129 12.6398C181.359 12.8198 181.639 13.0498 181.959 13.3298C181.999 13.3598 182.009 13.3898 182.009 13.4198C182.009 13.4498 181.989 13.4798 181.949 13.5298L181.609 14.0498C181.569 14.1098 181.529 14.1398 181.509 14.1398C181.489 14.1398 181.469 14.1298 181.439 14.0998C181.119 13.8098 180.879 13.5898 180.709 13.4598C180.339 14.0598 179.839 14.5898 179.219 15.0798C179.109 15.1598 179.039 15.1998 179.009 15.1998C178.969 15.1998 178.909 15.1298 178.819 14.9898C178.699 14.7998 178.559 14.6398 178.399 14.5098C179.089 14.0598 179.619 13.5398 179.989 12.9398C179.819 12.8198 179.619 12.6998 179.409 12.5798L179.369 12.7098C179.339 12.7898 179.309 12.8298 179.269 12.8298C179.239 12.8298 179.199 12.8298 179.149 12.7998L178.649 12.6198C178.569 12.5998 178.519 12.5698 178.519 12.5298C178.519 12.5098 178.519 12.4798 178.549 12.4298C178.869 11.5798 179.119 10.6698 179.309 9.69977C179.109 9.69977 178.929 9.69977 178.769 9.70977C178.659 9.70977 178.599 9.70977 178.599 9.70977C178.539 9.70977 178.509 9.67977 178.509 9.60977V8.93976C178.509 8.87976 178.539 8.84977 178.599 8.84977L179.449 8.86977C179.509 8.52977 179.549 8.19977 179.589 7.86977C179.619 7.63977 179.629 7.40977 179.629 7.17977C179.629 7.10977 179.629 7.05977 179.629 7.00977L179.599 7.02977ZM180.879 9.70977H180.179C180.039 10.4298 179.869 11.1098 179.679 11.7498C179.999 11.9198 180.229 12.0498 180.389 12.1498C180.639 11.5098 180.809 10.6998 180.889 9.71977L180.879 9.70977ZM185.589 8.50977C186.109 9.19977 186.549 9.96977 186.909 10.8498C186.919 10.8798 186.929 10.9098 186.929 10.9198C186.929 10.9498 186.889 10.9798 186.819 11.0198L186.269 11.2798C186.209 11.3098 186.169 11.3198 186.149 11.3198C186.119 11.3198 186.099 11.2998 186.079 11.2498C185.999 11.0598 185.919 10.8498 185.809 10.6198C184.959 10.7598 183.879 10.8898 182.569 11.0198C182.449 11.0298 182.339 11.0598 182.249 11.1098C182.189 11.1498 182.139 11.1598 182.099 11.1598C182.049 11.1598 182.009 11.1098 181.979 11.0098C181.929 10.8098 181.879 10.4998 181.809 10.0898C181.949 10.0998 182.089 10.1098 182.229 10.1098C182.309 10.1098 182.399 10.1098 182.489 10.1098C182.839 9.33977 183.119 8.55977 183.339 7.76977C183.409 7.53977 183.459 7.30977 183.479 7.06977C183.839 7.11977 184.159 7.17977 184.429 7.25977C184.529 7.29977 184.579 7.33977 184.579 7.39977C184.579 7.45977 184.549 7.50977 184.489 7.57977C184.419 7.65977 184.359 7.77977 184.299 7.93977C184.019 8.78977 183.749 9.48977 183.499 10.0498C184.259 9.97977 184.899 9.91977 185.399 9.84977C185.229 9.52977 185.029 9.20977 184.799 8.88977C184.779 8.84977 184.769 8.82977 184.769 8.80977C184.769 8.78977 184.809 8.75977 184.879 8.71977L185.379 8.48977C185.379 8.48977 185.459 8.45977 185.479 8.45977C185.499 8.45977 185.529 8.47977 185.559 8.51977L185.589 8.50977ZM183.259 15.3098C183.259 15.3698 183.219 15.3998 183.159 15.3998H182.419C182.349 15.3998 182.319 15.3698 182.319 15.3098L182.339 13.6898V12.9198L182.319 11.8198C182.319 11.7698 182.319 11.7398 182.339 11.7298C182.349 11.7298 182.379 11.7198 182.419 11.7198L183.519 11.7398H185.109L186.209 11.7198C186.259 11.7198 186.299 11.7198 186.309 11.7398C186.309 11.7498 186.319 11.7798 186.319 11.8298L186.299 12.7898V13.6798L186.319 15.2998C186.319 15.2998 186.319 15.3698 186.299 15.3798C186.289 15.3798 186.249 15.3798 186.209 15.3798H185.459C185.389 15.3798 185.359 15.3498 185.359 15.2898V14.9398H183.269V15.3198L183.259 15.3098ZM185.349 12.5798H183.259V14.1098H185.349V12.5798Z" fill="#9C1F25"/>
<path d="M195.07 1H142.49C137.95 1 134.27 4.68 134.27 9.22V13.99C134.27 18.53 137.95 22.21 142.49 22.21H163.66L168.99 43.86L173.94 22.21H195.08C199.62 22.21 203.3 18.53 203.3 13.99V9.22C203.3 4.68 199.62 1 195.08 1H195.07Z" stroke="#9C1F25" stroke-miterlimit="10"/>
<path d="M35.5098 62.4199C40.3298 67.2399 64.6798 74.0699 100.65 74.0699C136.63 74.0699 160.97 67.2499 165.79 62.4199" stroke="#9C1F25" stroke-miterlimit="10"/>
</svg>
