<svg width="334" height="69" viewBox="0 0 334 69" fill="none" xmlns="http://www.w3.org/2000/svg">
<rect x="5" y="5" width="329" height="63" fill="white"/>
<path d="M56.5 5L334 5M334 68H5" stroke="#AC7746" stroke-miterlimit="11.4737" stroke-linejoin="round"/>
<path d="M2.45995 5.52379C2.45995 3.61579 3.29995 2.47579 4.61995 2.47579C5.93995 2.47579 6.77995 3.61579 6.77995 5.52379C6.77995 7.51579 5.93995 8.71579 4.61995 8.71579C3.29995 8.71579 2.45995 7.51579 2.45995 5.52379ZM8.66395 10.8398C8.41195 10.9238 8.07595 10.9838 7.69195 10.9838C6.88795 10.9838 6.08395 10.7078 5.67595 10.0358C7.43995 9.57979 8.59195 7.94779 8.59195 5.52379C8.59195 2.64379 6.97195 0.951786 4.61995 0.951786C2.26795 0.951786 0.647949 2.63179 0.647949 5.52379C0.647949 8.05579 1.90795 9.73579 3.80395 10.0958C4.41595 11.4398 5.67595 12.4118 7.48795 12.4118C8.13595 12.4118 8.67595 12.2918 8.97595 12.1478L8.66395 10.8398Z" fill="#535353"/>
<path d="M13.3743 10.1678C14.2983 10.1678 14.9463 9.72379 15.5223 9.03979H15.5703L15.7023 9.99979H17.1423V3.27979H15.3783V7.81579C14.9223 8.41579 14.5623 8.65579 14.0103 8.65579C13.3623 8.65579 13.0743 8.29579 13.0743 7.25179V3.27979H11.3103V7.47979C11.3103 9.15979 11.9343 10.1678 13.3743 10.1678Z" fill="#535353"/>
<path d="M21.8789 10.1678C22.6469 10.1678 23.3189 9.78379 23.9069 9.27979H23.9429L24.0749 9.99979H25.5149V6.07579C25.5149 4.13179 24.6389 3.11179 22.9349 3.11179C21.8789 3.11179 20.9189 3.50779 20.1269 3.99979L20.7629 5.16379C21.3869 4.80379 21.9869 4.52779 22.6109 4.52779C23.4389 4.52779 23.7269 5.03179 23.7509 5.69179C21.0509 5.97979 19.8869 6.73579 19.8869 8.17579C19.8869 9.31579 20.6789 10.1678 21.8789 10.1678ZM22.4549 8.78779C21.9389 8.78779 21.5669 8.55979 21.5669 8.03179C21.5669 7.43179 22.1189 6.98779 23.7509 6.77179V8.12779C23.3309 8.54779 22.9589 8.78779 22.4549 8.78779Z" fill="#535353"/>
<path d="M30.1688 10.1678C30.5768 10.1678 30.8768 10.0958 31.0808 10.0118L30.8648 8.70378C30.7448 8.72778 30.6968 8.72779 30.6248 8.72779C30.4568 8.72779 30.2648 8.59579 30.2648 8.19979V0.423786H28.5128V8.11579C28.5128 9.36379 28.9448 10.1678 30.1688 10.1678Z" fill="#535353"/>
<path d="M33.498 9.99979H35.25V3.27979H33.498V9.99979ZM34.3859 2.19979C34.9859 2.19979 35.43 1.79179 35.43 1.23979C35.43 0.663785 34.9859 0.279785 34.3859 0.279785C33.7739 0.279785 33.3299 0.663785 33.3299 1.23979C33.3299 1.79179 33.7739 2.19979 34.3859 2.19979Z" fill="#535353"/>
<path d="M40.8025 10.1678C41.3905 10.1678 41.8585 10.0358 42.2185 9.91579L41.9305 8.63179C41.7505 8.70379 41.4865 8.77579 41.2705 8.77579C40.6705 8.77579 40.3585 8.41579 40.3585 7.64779V4.67179H42.0145V3.27979H40.3585V1.47979H38.8825L38.6785 3.27979L37.6465 3.36379V4.67179H38.5945V7.64779C38.5945 9.15979 39.2065 10.1678 40.8025 10.1678Z" fill="#535353"/>
<path d="M45.1695 12.6998C46.6695 12.6998 47.3895 11.7878 47.9775 10.2038L50.3655 3.27979H48.6735L47.7495 6.39979C47.5935 7.02379 47.4255 7.67179 47.2695 8.29579H47.2095C47.0175 7.64779 46.8495 6.99979 46.6455 6.39979L45.5775 3.27979H43.8015L46.4175 9.87979L46.2975 10.2758C46.1055 10.8638 45.7215 11.2958 45.0375 11.2958C44.8815 11.2958 44.6895 11.2478 44.5695 11.2118L44.2455 12.5678C44.5095 12.6518 44.7735 12.6998 45.1695 12.6998Z" fill="#535353"/>
<path d="M68.7561 41.8358C68.0121 41.8358 67.4121 41.2118 67.2441 39.5918C67.6881 38.9078 68.2161 38.6558 68.6961 38.6558C69.4641 38.6558 69.9561 39.1478 69.9561 40.2038C69.9561 41.2838 69.4161 41.8358 68.7561 41.8358ZM71.4441 34.9598C70.9041 34.4078 70.1121 33.9518 69.0321 33.9518C67.2441 33.9518 65.6001 35.3678 65.6001 38.6798C65.6001 41.8118 67.1001 43.1678 68.7921 43.1678C70.3041 43.1678 71.5761 42.0278 71.5761 40.2038C71.5761 38.2958 70.5201 37.4078 69.0321 37.4078C68.4561 37.4078 67.6881 37.7678 67.2081 38.3558C67.2801 36.1358 68.1201 35.3678 69.1401 35.3678C69.6561 35.3678 70.1961 35.6558 70.5081 36.0158L71.4441 34.9598Z" fill="#AC7746"/>
<path d="M77.1065 40.1198V38.2958H79.1825V40.1198H77.1065ZM84.7625 40.1198H80.6585V38.2958H83.8265V36.9758H80.6585V35.5358H84.1025V34.1558H77.3225C77.4785 33.8318 77.6105 33.5078 77.7185 33.1718L76.2665 32.7998C75.7505 34.3478 74.8265 35.8838 73.7465 36.7958C74.0945 36.9998 74.7065 37.4798 74.9825 37.7198C75.5465 37.1558 76.1225 36.3878 76.6145 35.5358H79.1825V36.9758H75.6785V40.1198H73.7825V41.4878H79.1825V44.0558H80.6585V41.4878H84.7625V40.1198Z" fill="#AC7746"/>
<path d="M90.7025 34.3238V34.9598H88.8545V34.3238H90.7025ZM88.8545 36.6038V35.9198H90.7025V36.6038H88.8545ZM92.0345 37.6238V33.2918H87.4385V44.0438H88.8545V37.6238H92.0345ZM94.2185 36.6278V35.9198H96.1265V36.6278H94.2185ZM96.1265 34.3238V34.9598H94.2185V34.3238H96.1265ZM91.4465 41.8838V41.1398H93.4265V41.8838H91.4465ZM93.4265 39.3998V40.1198H91.4465V39.3998H93.4265ZM97.5665 33.2918H92.8625V37.6478H96.1265V42.3398C96.1265 42.5318 96.0545 42.6038 95.8385 42.6038C95.6825 42.6158 95.2385 42.6158 94.7705 42.6038V38.3438H90.1505V43.5398H91.4465V42.9278H94.4225C94.5665 43.2998 94.6985 43.7438 94.7345 44.0438C95.7665 44.0438 96.4625 44.0078 96.9305 43.7678C97.4105 43.5398 97.5665 43.1198 97.5665 42.3518V33.2918Z" fill="#AC7746"/>
<path d="M102.199 32.8718C101.671 34.6238 100.783 36.3758 99.8225 37.5038C100.051 37.8758 100.387 38.7038 100.507 39.0398C100.771 38.7398 101.023 38.3918 101.263 38.0318V44.0318H102.619V35.5358C102.955 34.7918 103.255 34.0118 103.507 33.2678L102.199 32.8718ZM104.527 36.1838C104.791 36.3758 105.079 36.6038 105.235 36.7598C105.475 36.5438 105.715 36.3038 105.931 36.0398C106.183 36.3518 106.483 36.6638 106.819 36.9638C106.147 37.3478 105.379 37.6358 104.527 37.8518V36.1838ZM108.739 35.1878C108.475 35.6078 108.163 35.9678 107.779 36.2918C107.311 35.9558 106.927 35.5718 106.627 35.1878H108.739ZM111.127 35.1878V34.0358H107.227C107.371 33.7478 107.503 33.4358 107.623 33.1358L106.327 32.8358C105.955 33.8798 105.307 34.8998 104.527 35.6318V34.3598H103.291V42.0398H104.527V38.1278C104.767 38.4038 105.043 38.7758 105.151 38.9918C106.159 38.6918 107.083 38.2838 107.887 37.7558C108.679 38.2478 109.639 38.6558 110.743 38.8958C110.911 38.5598 111.259 38.0198 111.511 37.7558C110.515 37.5998 109.639 37.3118 108.895 36.9518C109.423 36.4478 109.879 35.8718 110.227 35.1878H111.127ZM109.123 39.4358C108.331 40.2278 106.771 40.8278 105.271 41.1398C105.523 41.3678 105.811 41.7638 105.967 42.0278C107.599 41.6078 109.195 40.8878 110.143 39.8558L109.123 39.4358ZM107.947 38.3438C107.359 38.8838 106.207 39.3758 105.187 39.6398C105.463 39.8558 105.775 40.1918 105.943 40.4558C107.059 40.0958 108.247 39.5318 108.991 38.7758L107.947 38.3438ZM109.987 40.7918C108.955 41.9198 106.879 42.5678 104.671 42.8678C104.947 43.1798 105.235 43.6478 105.391 43.9958C107.839 43.5518 109.963 42.7478 111.211 41.2838L109.987 40.7918Z" fill="#AC7746"/>
<path d="M117.175 40.2998C116.791 40.4318 116.395 40.5518 115.999 40.6718V38.2718H117.079V36.9638H115.999V34.8518H117.283V33.5198H113.323V34.8518H114.643V36.9638H113.431V38.2718H114.643V41.0918C114.091 41.2478 113.599 41.3798 113.179 41.4878L113.503 42.9398C114.655 42.5678 116.095 42.1118 117.415 41.6438L117.175 40.2998ZM119.023 36.6758H120.259V37.7078H119.023V36.6758ZM119.023 34.5518H120.259V35.5478H119.023V34.5518ZM122.647 35.5478H121.459V34.5518H122.647V35.5478ZM122.647 37.7078H121.459V36.6758H122.647V37.7078ZM121.591 42.3758V41.2358H124.135V39.9518H121.591V38.9198H124.003V33.3398H117.739V38.9198H120.139V39.9518H117.655V41.2358H120.139V42.3758H116.827V43.6718H124.543V42.3758H121.591Z" fill="#AC7746"/>
<path d="M129.139 32.8598C128.515 34.5638 127.423 36.2678 126.307 37.3478C126.547 37.6958 126.943 38.4638 127.075 38.8118C127.387 38.4878 127.687 38.1278 127.987 37.7438V44.0198H129.343V35.6558C129.775 34.8878 130.147 34.0718 130.459 33.2918L129.139 32.8598ZM132.055 34.6118H135.571V36.2198H132.055V34.6118ZM137.587 39.8558V38.5598H134.491V37.4798H136.999V33.3638H130.699V37.4798H133.051V38.5598H129.907V39.8558H132.367C131.623 40.9118 130.555 41.8838 129.475 42.4478C129.799 42.7238 130.243 43.2398 130.459 43.5878C131.407 42.9758 132.319 42.0638 133.051 41.0078V44.0438H134.491V40.9478C135.175 42.0158 136.051 42.9878 136.927 43.6118C137.155 43.2518 137.611 42.7478 137.935 42.4718C136.927 41.8838 135.895 40.8998 135.187 39.8558H137.587Z" fill="#AC7746"/>
<path d="M143.683 33.2078H140.299V34.2878H143.683V33.2078ZM142.543 41.0678V42.4358H141.391V41.0678H142.543ZM143.767 39.9398H140.191V44.0318H141.391V43.5638H143.767V39.9398ZM140.227 39.3278H143.683V38.2478H140.227V39.3278ZM143.683 36.5798H140.227V37.6478H143.683V36.5798ZM139.663 35.9918H144.115V34.8638H139.663V35.9918ZM148.531 42.2918V38.9798H150.607V37.6358H148.531V34.8038H150.667V33.4478H144.487V34.8038H147.127V42.2918H146.215V36.6038H144.882V42.2918H144.151V43.6238H150.895V42.2918H148.531Z" fill="#AC7746"/>
<circle cx="41" cy="38" r="15.5" stroke="#AC7746"/>
<g clip-path="url(#clip0_700_89)">
<path d="M35.0943 32.5852L35.5692 30.8608C35.5754 30.8387 35.5692 30.8147 35.553 30.7985L33.9009 29.1262C33.8566 29.0814 33.8755 29.003 33.9353 28.9856C35.1428 28.6346 36.4969 28.9395 37.448 29.9023C38.3991 30.8651 38.7111 32.2971 38.3263 33.5397C38.3139 33.5802 38.3237 33.6237 38.3533 33.6537L45.1727 40.5569C45.2023 40.5868 45.2453 40.5967 45.2853 40.5842C46.5129 40.195 47.9061 40.4887 48.8786 41.4732C49.8512 42.4577 50.1313 43.8068 49.7842 45.029C49.767 45.0896 49.6896 45.1087 49.6453 45.0639L47.9929 43.3916C47.977 43.3754 47.9532 43.3692 47.9314 43.3751L46.228 43.8558C46.2068 43.8618 46.1902 43.8786 46.184 43.9003L45.7091 45.6247C45.703 45.6467 45.7091 45.6708 45.7254 45.6869L47.3775 47.3596C47.4217 47.4044 47.4029 47.4828 47.343 47.5002C46.1356 47.8512 44.7814 47.5463 43.8303 46.5835C42.8577 45.599 42.5673 44.1887 42.9521 42.9461C42.9644 42.9056 42.9547 42.8621 42.9251 42.8321L36.1056 35.9289C36.076 35.899 36.0331 35.8891 35.9931 35.9016C34.7655 36.2908 33.3723 35.9971 32.3997 35.0126C31.4271 34.028 31.1474 32.6784 31.4941 31.4564C31.5114 31.3958 31.5888 31.3767 31.633 31.4215L33.2851 33.0939C33.301 33.11 33.3248 33.1163 33.3466 33.1104L35.0501 32.6296C35.0712 32.6237 35.0878 32.6069 35.094 32.5852H35.0943Z" stroke="#AC7746" stroke-miterlimit="10" stroke-linecap="round"/>
<path d="M41.2451 34.8932L43.0582 33.1382C43.295 32.91 43.485 32.6281 43.5692 32.3084C43.9498 30.8656 42.5836 29.339 41.0997 29.4685C41.0411 29.4737 40.9829 29.4543 40.9413 29.4121L40.5178 28.9834C40.4612 28.9261 40.4765 28.8264 40.549 28.7921C42.5823 27.831 45.4461 28.5139 47.4169 30.4312C47.83 30.833 48.1644 31.1606 48.345 31.7424C48.3791 31.8517 48.4025 31.9643 48.4188 32.0779C48.4663 32.4138 48.5873 32.7882 48.8664 33.071C49.3458 33.5564 49.9313 33.6845 50.2065 33.718C50.3142 33.7312 50.4124 33.7793 50.4892 33.8567L51.6023 34.9834C51.6592 35.0411 51.6592 35.1346 51.6023 35.1925L49.152 37.6729C49.0951 37.7306 49.0027 37.7306 48.9454 37.6729L47.8265 36.5402C47.7503 36.4632 47.7016 36.3641 47.6895 36.2561C47.6554 35.9515 47.5832 35.5689 47.0952 35.0746C46.877 34.8537 46.6242 34.7335 46.3734 34.6812C45.8628 34.5748 45.3365 34.7806 44.977 35.1629L43.2836 36.9571" stroke="#AC7746" stroke-miterlimit="10" stroke-linecap="round"/>
<path d="M39.4705 41.0086L34.3526 46.4021C33.7567 47.0359 32.7623 47.0481 32.1511 46.4294L31.8918 46.167C31.281 45.5486 31.293 44.5423 31.9185 43.9391L37.2446 38.7554" stroke="#AC7746" stroke-miterlimit="10" stroke-linecap="round"/>
<path d="M44.9769 35.1628L43.0786 33.2412" stroke="#AC7746" stroke-miterlimit="10" stroke-linecap="round"/>
</g>
<defs>
<clipPath id="clip0_700_89">
<rect width="21" height="20" fill="white" transform="translate(31 28)"/>
</clipPath>
</defs>
</svg>
