<svg width="334" height="69" viewBox="0 0 334 69" fill="none" xmlns="http://www.w3.org/2000/svg">
<rect x="4.35205" y="4.71997" width="329" height="63" fill="white"/>
<path fill-rule="evenodd" clip-rule="evenodd" d="M333.352 5.21997H55.8521V4.21997H333.352V5.21997ZM4.35205 67.22H333.352V68.22H4.35205V67.22Z" fill="#AC7746"/>
<path d="M1.812 5.244C1.812 3.336 2.652 2.196 3.972 2.196C5.292 2.196 6.132 3.336 6.132 5.244C6.132 7.236 5.292 8.436 3.972 8.436C2.652 8.436 1.812 7.236 1.812 5.244ZM8.016 10.56C7.764 10.644 7.428 10.704 7.044 10.704C6.24 10.704 5.436 10.428 5.028 9.756C6.792 9.3 7.944 7.668 7.944 5.244C7.944 2.364 6.324 0.672 3.972 0.672C1.62 0.672 0 2.352 0 5.244C0 7.776 1.26 9.456 3.156 9.816C3.768 11.16 5.028 12.132 6.84 12.132C7.488 12.132 8.028 12.012 8.328 11.868L8.016 10.56Z" fill="#535353"/>
<path d="M12.7264 9.888C13.6504 9.888 14.2984 9.444 14.8744 8.76H14.9224L15.0544 9.72H16.4944V3H14.7304V7.536C14.2744 8.136 13.9144 8.376 13.3624 8.376C12.7144 8.376 12.4264 8.016 12.4264 6.972V3H10.6624V7.2C10.6624 8.88 11.2864 9.888 12.7264 9.888Z" fill="#535353"/>
<path d="M21.231 9.888C21.999 9.888 22.671 9.504 23.259 9H23.295L23.427 9.72H24.867V5.796C24.867 3.852 23.991 2.832 22.287 2.832C21.231 2.832 20.271 3.228 19.479 3.72L20.115 4.884C20.739 4.524 21.339 4.248 21.963 4.248C22.791 4.248 23.079 4.752 23.103 5.412C20.403 5.7 19.239 6.456 19.239 7.896C19.239 9.036 20.031 9.888 21.231 9.888ZM21.807 8.508C21.291 8.508 20.919 8.28 20.919 7.752C20.919 7.152 21.471 6.708 23.103 6.492V7.848C22.683 8.268 22.311 8.508 21.807 8.508Z" fill="#535353"/>
<path d="M29.5208 9.888C29.9288 9.888 30.2288 9.816 30.4328 9.732L30.2168 8.424C30.0968 8.448 30.0488 8.448 29.9768 8.448C29.8088 8.448 29.6168 8.316 29.6168 7.92V0.144001H27.8648V7.836C27.8648 9.084 28.2968 9.888 29.5208 9.888Z" fill="#535353"/>
<path d="M32.85 9.72H34.602V3H32.85V9.72ZM33.738 1.92C34.338 1.92 34.782 1.512 34.782 0.960001C34.782 0.384 34.338 0 33.738 0C33.126 0 32.682 0.384 32.682 0.960001C32.682 1.512 33.126 1.92 33.738 1.92Z" fill="#535353"/>
<path d="M40.1545 9.888C40.7425 9.888 41.2105 9.756 41.5705 9.636L41.2825 8.352C41.1025 8.424 40.8385 8.496 40.6225 8.496C40.0225 8.496 39.7105 8.136 39.7105 7.368V4.392H41.3665V3H39.7105V1.2H38.2345L38.0305 3L36.9985 3.084V4.392H37.9465V7.368C37.9465 8.88 38.5585 9.888 40.1545 9.888Z" fill="#535353"/>
<path d="M44.5216 12.42C46.0216 12.42 46.7416 11.508 47.3296 9.924L49.7176 3H48.0256L47.1016 6.12C46.9456 6.744 46.7776 7.392 46.6216 8.016H46.5616C46.3696 7.368 46.2016 6.72 45.9976 6.12L44.9296 3H43.1536L45.7696 9.6L45.6496 9.996C45.4576 10.584 45.0736 11.016 44.3896 11.016C44.2336 11.016 44.0416 10.968 43.9216 10.932L43.5976 12.288C43.8616 12.372 44.1256 12.42 44.5216 12.42Z" fill="#535353"/>
<path d="M65.7279 34.944H72.9519V36.444H74.4759V33.624H70.0719V32.556H68.5599V33.624H64.2759V36.444H65.7279V34.944ZM71.0439 38.352C70.7919 39.276 70.3719 39.996 69.7839 40.572C68.9919 40.284 68.2119 40.02 67.4919 39.816C67.7319 39.348 67.9959 38.856 68.2479 38.352H71.0439ZM74.6919 38.352V37.008H68.9199C69.1719 36.504 69.4119 36.012 69.6279 35.544L68.1279 35.232C67.8879 35.784 67.5999 36.396 67.2879 37.008H64.0239V38.352H66.6039C66.0879 39.324 65.5839 40.236 65.1519 40.932L66.6519 41.34L66.8679 40.956C67.3719 41.112 67.8879 41.304 68.4159 41.496C67.3359 42.012 65.9679 42.3 64.2879 42.468C64.5639 42.78 64.9719 43.428 65.1039 43.764C67.1199 43.476 68.7519 43.008 70.0239 42.156C71.2359 42.684 72.3399 43.248 73.0719 43.74L74.2119 42.576C73.4559 42.108 72.3759 41.604 71.2119 41.124C71.8599 40.392 72.3519 39.492 72.6999 38.352H74.6919Z" fill="#AC7746"/>
<path d="M84.8679 37.008C85.8159 38.328 86.6559 40.164 86.8959 41.388L88.3479 40.668C88.0479 39.42 87.1959 37.668 86.1759 36.348L84.8679 37.008ZM77.9919 36.828C77.8359 38.424 77.4879 39.972 76.7799 41.004L78.1119 41.772C78.9039 40.596 79.2159 38.76 79.3959 37.116L77.9919 36.828ZM80.1879 33.708C81.5919 34.248 83.2599 35.172 84.1839 35.94L85.1199 34.68C84.1719 33.984 82.5159 33.096 81.0999 32.592L80.1879 33.708ZM80.1399 35.976V41.676C80.1399 43.176 80.5599 43.644 82.0839 43.644H84.0399C85.4799 43.644 85.8639 42.936 86.0199 40.704C85.6239 40.596 85.0239 40.344 84.6879 40.08C84.6039 41.964 84.5079 42.336 83.9199 42.336H82.2759C81.7119 42.336 81.6279 42.252 81.6279 41.676V35.976H80.1399Z" fill="#AC7746"/>
<path d="M93.0279 40.56C92.5839 40.56 92.1039 39.972 92.1039 38.772C92.1039 37.464 93.1479 35.736 95.1159 35.328C94.9719 36.312 94.7559 37.332 94.4799 38.208C93.9999 39.816 93.5199 40.56 93.0279 40.56ZM96.2919 43.212C99.2919 42.756 100.828 40.98 100.828 38.484C100.828 35.892 98.9679 33.84 96.0279 33.84C92.9439 33.84 90.5559 36.192 90.5559 38.928C90.5559 40.932 91.6719 42.384 92.9799 42.384C94.2759 42.384 95.3079 40.92 96.0159 38.52C96.3519 37.404 96.5559 36.3 96.7239 35.292C98.3199 35.568 99.2079 36.792 99.2079 38.436C99.2079 40.164 98.0319 41.256 96.5079 41.616C96.1959 41.688 95.8599 41.748 95.4039 41.808L96.2919 43.212Z" fill="#AC7746"/>
<path d="M106.288 41.4V38.712H111.616V41.4H106.288ZM111.616 34.716V37.296H106.288V34.716H111.616ZM104.812 33.276V43.62H106.288V42.84H111.616V43.596H113.152V33.276H104.812Z" fill="#AC7746"/>
<path d="M122.896 40.284V37.644C123.436 38.616 124.084 39.516 124.804 40.284H122.896ZM119.512 40.284C120.22 39.516 120.856 38.628 121.396 37.668V40.284H119.512ZM127.444 36.324V34.884H122.896V32.568H121.396V34.884H116.884V36.324H120.544C119.62 38.172 118.108 39.9 116.416 40.824C116.752 41.1 117.208 41.652 117.46 42.012C118.12 41.592 118.756 41.064 119.332 40.476V41.736H121.396V43.764H122.896V41.736H124.888V40.368C125.488 41.004 126.148 41.544 126.844 41.976C127.096 41.568 127.588 40.968 127.948 40.68C126.232 39.78 124.696 38.124 123.76 36.324H127.444Z" fill="#AC7746"/>
<path d="M140.308 32.64H139.012V37.404C139.012 37.56 138.964 37.608 138.784 37.608C138.616 37.62 138.04 37.62 137.5 37.596C137.668 37.908 137.86 38.388 137.92 38.724C138.748 38.724 139.336 38.712 139.756 38.532C140.188 38.352 140.308 38.052 140.308 37.44V32.64ZM137.704 33.036H136.432V37.032H137.704V33.036ZM139.108 40.14C138.628 40.488 137.968 40.884 137.404 41.172C137.068 40.872 136.78 40.524 136.552 40.14H139.108ZM130.972 34.716C131.08 34.572 131.176 34.404 131.272 34.236H132.412V34.716H130.972ZM139.54 40.14H140.74V39.012H136.06V38.388H134.788C135.004 38.376 135.196 38.34 135.352 38.268C135.664 38.124 135.748 37.908 135.748 37.452V36.096H133.624V35.676H135.94V34.716H133.624V34.236H135.616V33.324H133.624V32.556H132.412V33.324H131.728C131.8 33.156 131.86 33 131.92 32.832L130.876 32.568C130.672 33.192 130.336 33.84 129.94 34.296C130.132 34.392 130.444 34.572 130.684 34.716H129.952V35.676H132.412V36.096H130.432V38.448H131.512V36.96H132.412V38.712H133.624V36.96H134.608V37.452C134.608 37.548 134.572 37.584 134.464 37.584C134.38 37.584 134.092 37.584 133.816 37.572C133.936 37.8 134.104 38.124 134.164 38.4C134.344 38.4 134.5 38.4 134.644 38.4V39.012H129.976V40.14H133.48C132.448 40.62 131.092 40.968 129.772 41.148C130.024 41.412 130.36 41.88 130.528 42.18C131.2 42.06 131.872 41.892 132.508 41.676V42.348C132.076 42.396 131.668 42.444 131.32 42.48L131.524 43.644C132.844 43.452 134.632 43.212 136.324 42.972L136.276 41.856C135.472 41.964 134.656 42.072 133.876 42.168V41.124C134.392 40.872 134.872 40.584 135.292 40.272C136.192 42.18 137.692 43.308 140.188 43.788C140.356 43.44 140.692 42.924 140.968 42.648C139.948 42.492 139.084 42.228 138.364 41.844C139 41.544 139.732 41.148 140.344 40.74L139.54 40.14Z" fill="#AC7746"/>
<path d="M219.108 41.556C218.364 41.556 217.764 40.932 217.596 39.312C218.04 38.628 218.568 38.376 219.048 38.376C219.816 38.376 220.308 38.868 220.308 39.924C220.308 41.004 219.768 41.556 219.108 41.556ZM221.796 34.68C221.256 34.128 220.464 33.672 219.384 33.672C217.596 33.672 215.952 35.088 215.952 38.4C215.952 41.532 217.452 42.888 219.144 42.888C220.656 42.888 221.928 41.748 221.928 39.924C221.928 38.016 220.872 37.128 219.384 37.128C218.808 37.128 218.04 37.488 217.56 38.076C217.632 35.856 218.472 35.088 219.492 35.088C220.008 35.088 220.548 35.376 220.86 35.736L221.796 34.68Z" fill="#AC7746"/>
<path d="M227.459 39.84V38.016H229.535V39.84H227.459ZM235.115 39.84H231.011V38.016H234.179V36.696H231.011V35.256H234.455V33.876H227.675C227.831 33.552 227.963 33.228 228.071 32.892L226.619 32.52C226.103 34.068 225.179 35.604 224.099 36.516C224.447 36.72 225.059 37.2 225.335 37.44C225.899 36.876 226.475 36.108 226.967 35.256H229.535V36.696H226.031V39.84H224.135V41.208H229.535V43.776H231.011V41.208H235.115V39.84Z" fill="#AC7746"/>
<path d="M241.055 34.044V34.68H239.207V34.044H241.055ZM239.207 36.324V35.64H241.055V36.324H239.207ZM242.387 37.344V33.012H237.791V43.764H239.207V37.344H242.387ZM244.571 36.348V35.64H246.479V36.348H244.571ZM246.479 34.044V34.68H244.571V34.044H246.479ZM241.799 41.604V40.86H243.779V41.604H241.799ZM243.779 39.12V39.84H241.799V39.12H243.779ZM247.919 33.012H243.215V37.368H246.479V42.06C246.479 42.252 246.407 42.324 246.191 42.324C246.035 42.336 245.591 42.336 245.123 42.324V38.064H240.503V43.26H241.799V42.648H244.775C244.919 43.02 245.051 43.464 245.087 43.764C246.119 43.764 246.815 43.728 247.283 43.488C247.763 43.26 247.919 42.84 247.919 42.072V33.012Z" fill="#AC7746"/>
<path d="M252.551 32.592C252.023 34.344 251.135 36.096 250.175 37.224C250.403 37.596 250.739 38.424 250.859 38.76C251.123 38.46 251.375 38.112 251.615 37.752V43.752H252.971V35.256C253.307 34.512 253.607 33.732 253.859 32.988L252.551 32.592ZM254.879 35.904C255.143 36.096 255.431 36.324 255.587 36.48C255.827 36.264 256.067 36.024 256.283 35.76C256.535 36.072 256.835 36.384 257.171 36.684C256.499 37.068 255.731 37.356 254.879 37.572V35.904ZM259.091 34.908C258.827 35.328 258.515 35.688 258.131 36.012C257.663 35.676 257.279 35.292 256.979 34.908H259.091ZM261.479 34.908V33.756H257.579C257.723 33.468 257.855 33.156 257.975 32.856L256.679 32.556C256.307 33.6 255.659 34.62 254.879 35.352V34.08H253.643V41.76H254.879V37.848C255.119 38.124 255.395 38.496 255.503 38.712C256.511 38.412 257.435 38.004 258.239 37.476C259.031 37.968 259.991 38.376 261.095 38.616C261.263 38.28 261.611 37.74 261.863 37.476C260.867 37.32 259.991 37.032 259.247 36.672C259.775 36.168 260.231 35.592 260.579 34.908H261.479ZM259.475 39.156C258.683 39.948 257.123 40.548 255.623 40.86C255.875 41.088 256.163 41.484 256.319 41.748C257.951 41.328 259.547 40.608 260.495 39.576L259.475 39.156ZM258.299 38.064C257.711 38.604 256.559 39.096 255.539 39.36C255.815 39.576 256.127 39.912 256.295 40.176C257.411 39.816 258.599 39.252 259.343 38.496L258.299 38.064ZM260.339 40.512C259.307 41.64 257.231 42.288 255.023 42.588C255.299 42.9 255.587 43.368 255.743 43.716C258.191 43.272 260.315 42.468 261.563 41.004L260.339 40.512Z" fill="#AC7746"/>
<path d="M267.527 40.02C267.143 40.152 266.747 40.272 266.351 40.392V37.992H267.431V36.684H266.351V34.572H267.635V33.24H263.675V34.572H264.995V36.684H263.783V37.992H264.995V40.812C264.443 40.968 263.951 41.1 263.531 41.208L263.855 42.66C265.007 42.288 266.447 41.832 267.767 41.364L267.527 40.02ZM269.375 36.396H270.611V37.428H269.375V36.396ZM269.375 34.272H270.611V35.268H269.375V34.272ZM272.999 35.268H271.811V34.272H272.999V35.268ZM272.999 37.428H271.811V36.396H272.999V37.428ZM271.943 42.096V40.956H274.487V39.672H271.943V38.64H274.355V33.06H268.091V38.64H270.491V39.672H268.007V40.956H270.491V42.096H267.179V43.392H274.895V42.096H271.943Z" fill="#AC7746"/>
<path d="M279.491 32.58C278.867 34.284 277.775 35.988 276.659 37.068C276.899 37.416 277.295 38.184 277.427 38.532C277.739 38.208 278.039 37.848 278.339 37.464V43.74H279.695V35.376C280.127 34.608 280.499 33.792 280.811 33.012L279.491 32.58ZM282.407 34.332H285.923V35.94H282.407V34.332ZM287.939 39.576V38.28H284.843V37.2H287.351V33.084H281.051V37.2H283.403V38.28H280.259V39.576H282.719C281.975 40.632 280.907 41.604 279.827 42.168C280.151 42.444 280.595 42.96 280.811 43.308C281.759 42.696 282.671 41.784 283.403 40.728V43.764H284.843V40.668C285.527 41.736 286.403 42.708 287.279 43.332C287.507 42.972 287.963 42.468 288.287 42.192C287.279 41.604 286.247 40.62 285.539 39.576H287.939Z" fill="#AC7746"/>
<path d="M294.035 32.928H290.651V34.008H294.035V32.928ZM292.895 40.788V42.156H291.743V40.788H292.895ZM294.119 39.66H290.543V43.752H291.743V43.284H294.119V39.66ZM290.579 39.048H294.035V37.968H290.579V39.048ZM294.035 36.3H290.579V37.368H294.035V36.3ZM290.015 35.712H294.467V34.584H290.015V35.712ZM298.883 42.012V38.7H300.959V37.356H298.883V34.524H301.019V33.168H294.839V34.524H297.479V42.012H296.567V36.324H295.235V42.012H294.503V43.344H301.247V42.012H298.883Z" fill="#AC7746"/>
<circle cx="40.3521" cy="37.72" r="15.5" stroke="#AC7746"/>
<g clip-path="url(#clip0_671_79)">
<path d="M49.9341 35.9289L48.5219 35.0469L49.051 33.4622C49.051 33.4622 46.1004 32.1426 43.9163 33.4153C43.82 33.4705 43.7237 33.5326 43.6274 33.5961C43.664 33.4705 43.6966 33.3463 43.725 33.2234C44.3586 30.471 42.0348 28.2734 42.0348 28.2734L40.7039 29.2783L39.4545 28.1879C39.4545 28.1879 37.1524 30.4834 37.4984 33.0191C37.5553 33.4401 37.6706 33.8915 37.8239 34.347C37.4509 34.0489 37.0697 33.7852 36.7021 33.5809C34.2629 32.2282 31.5633 33.9233 31.5633 33.9233L32.1616 35.4955L30.7969 36.4314C30.7969 36.4314 32.3597 39.2997 34.8544 39.6338C35.3278 39.6973 35.8596 39.6987 36.4022 39.6531C35.9288 40.0189 35.4947 40.4165 35.1528 40.8126C33.3201 42.937 34.3538 45.9876 34.3538 45.9876L35.9926 45.7405L36.5895 47.3003C36.5895 47.3003 39.6838 46.3782 40.5507 43.975C40.5819 43.8881 40.6117 43.797 40.6402 43.7045C40.6768 43.7914 40.7148 43.8784 40.7541 43.9612C41.9601 46.508 45.125 46.7316 45.125 46.7316L45.5401 45.1L47.1857 45.1497C47.1857 45.1497 47.5601 41.8921 45.7233 40.1404C45.4723 39.9016 45.1779 39.6697 44.8578 39.453C45.2756 39.453 45.6799 39.4267 46.0461 39.3701C48.7919 38.9436 49.9314 35.9303 49.9314 35.9303L49.9341 35.9289Z" stroke="#AC7746" stroke-miterlimit="10"/>
<path d="M42.9138 38.6108C42.7612 38.5543 42.598 38.605 42.4972 38.7218L41.4098 38.3226C41.4078 38.2253 41.3886 38.1299 41.3522 38.0413L42.4291 37.5301C42.5385 37.6431 42.7103 37.681 42.86 37.61C43.0501 37.5194 43.1316 37.2906 43.0433 37.0979C42.9541 36.9051 42.7285 36.8224 42.5385 36.9119C42.3916 36.9811 42.3101 37.1339 42.3216 37.2887L41.212 37.8154C41.1583 37.755 41.094 37.7034 41.021 37.6625L41.4338 36.4894C41.5902 36.4894 41.7361 36.393 41.7918 36.2353C41.8618 36.0347 41.7591 35.8147 41.5614 35.7427C41.3637 35.6706 41.1468 35.7758 41.0758 35.9763C41.021 36.1311 41.071 36.2976 41.1871 36.3979L40.7734 37.5749C40.6909 37.5613 40.6074 37.5613 40.5277 37.5749L40.0132 36.4719C40.1236 36.3599 40.1601 36.1866 40.09 36.0347C39.9998 35.842 39.7733 35.7602 39.5842 35.8517C39.3942 35.9423 39.3136 36.173 39.4028 36.3648C39.4719 36.5128 39.6226 36.5945 39.7752 36.5829L40.2791 37.6635C40.1927 37.7132 40.115 37.7794 40.0516 37.8612L38.9949 37.4776C38.9949 37.3189 38.8999 37.1699 38.7444 37.1135C38.5467 37.0424 38.3288 37.1456 38.2587 37.3461C38.1877 37.5467 38.2914 37.7667 38.4881 37.8388C38.6407 37.8943 38.8039 37.8436 38.9037 37.7258L39.9269 38.0977C39.8866 38.2233 39.8798 38.3518 39.9019 38.4735L38.9747 38.9175C38.8644 38.8055 38.6935 38.7685 38.5438 38.8396C38.3537 38.9311 38.2722 39.1599 38.3624 39.3526C38.4516 39.5454 38.6782 39.6282 38.8682 39.5367C39.0151 39.4666 39.0957 39.3137 39.0842 39.1589L39.9931 38.7237C40.0632 38.8454 40.1668 38.9476 40.2954 39.0168L39.9643 39.9514C39.8078 39.9514 39.661 40.0468 39.6053 40.2045C39.5343 40.4051 39.637 40.6261 39.8347 40.6971C40.0324 40.7692 40.2503 40.665 40.3213 40.4654C40.3761 40.3106 40.3261 40.1451 40.211 40.0439L40.5459 39.0995C40.687 39.12 40.8281 39.0976 40.9539 39.0421L41.3858 39.9738C41.2744 40.0848 41.238 40.259 41.308 40.4109C41.3973 40.6037 41.6238 40.6864 41.8138 40.5959C42.0039 40.5053 42.0855 40.2756 41.9962 40.0838C41.9271 39.9348 41.7764 39.8531 41.6238 39.8647L41.1746 38.8951C41.2581 38.8143 41.3253 38.714 41.3666 38.5972C41.3666 38.5972 41.3666 38.5942 41.3675 38.5933L42.4051 38.9739C42.4041 39.1326 42.4991 39.2816 42.6546 39.338C42.8523 39.4101 43.0693 39.3069 43.1412 39.1063C43.2123 38.9058 43.1105 38.6848 42.9128 38.6127L42.9138 38.6108Z" fill="#AC7746"/>
</g>
<circle cx="191.352" cy="37.72" r="15.5" stroke="#AC7746"/>
<g clip-path="url(#clip1_671_79)">
<path d="M185.446 32.3051L185.921 30.5807C185.927 30.5587 185.921 30.5346 185.905 30.5185L184.253 28.8461C184.209 28.8014 184.228 28.723 184.287 28.7055C185.495 28.3545 186.849 28.6594 187.8 29.6222C188.751 30.585 189.063 32.017 188.678 33.2597C188.666 33.3002 188.676 33.3437 188.705 33.3736L195.525 40.2768C195.554 40.3068 195.597 40.3167 195.637 40.3042C196.865 39.915 198.258 40.2087 199.231 41.1932C200.203 42.1777 200.483 43.5267 200.136 44.749C200.119 44.8096 200.042 44.8287 199.997 44.7839L198.345 43.1115C198.329 43.0954 198.305 43.0891 198.283 43.0951L196.58 43.5758C196.559 43.5817 196.542 43.5985 196.536 43.6203L196.061 45.3447C196.055 45.3667 196.061 45.3908 196.077 45.4069L197.73 47.0796C197.774 47.1244 197.755 47.2027 197.695 47.2202C196.488 47.5712 195.133 47.2663 194.182 46.3035C193.21 45.319 192.919 43.9087 193.304 42.666C193.316 42.6255 193.307 42.5821 193.277 42.5521L186.458 35.6489C186.428 35.6189 186.385 35.6091 186.345 35.6216C185.118 36.0108 183.724 35.7171 182.752 34.7325C181.779 33.748 181.499 32.3983 181.846 31.1764C181.863 31.1158 181.941 31.0967 181.985 31.1415L183.637 32.8139C183.653 32.83 183.677 32.8363 183.699 32.8303L185.402 32.3496C185.423 32.3437 185.44 32.3269 185.446 32.3051H185.446Z" stroke="#AC7746" stroke-miterlimit="10" stroke-linecap="round"/>
<path d="M191.597 34.6129L193.41 32.8579C193.647 32.6297 193.837 32.3479 193.921 32.0282C194.302 30.5853 192.936 29.0588 191.452 29.1882C191.393 29.1934 191.335 29.174 191.293 29.1319L190.87 28.7032C190.813 28.6459 190.829 28.5461 190.901 28.5119C192.934 27.5507 195.798 28.2336 197.769 30.151C198.182 30.5527 198.516 30.8803 198.697 31.4621C198.731 31.5714 198.755 31.6841 198.771 31.7977C198.818 32.1335 198.939 32.5079 199.218 32.7907C199.698 33.2761 200.283 33.4042 200.559 33.4378C200.666 33.4509 200.764 33.499 200.841 33.5764L201.954 34.7032C202.011 34.7608 202.011 34.8543 201.954 34.9122L199.504 37.3927C199.447 37.4503 199.355 37.4503 199.297 37.3927L198.179 36.26C198.102 36.1829 198.054 36.0838 198.042 35.9758C198.007 35.6712 197.935 35.2886 197.447 34.7944C197.229 34.5734 196.976 34.4532 196.725 34.4009C196.215 34.2945 195.689 34.5003 195.329 34.8826L193.636 36.6768" stroke="#AC7746" stroke-miterlimit="10" stroke-linecap="round"/>
<path d="M189.823 40.7286L184.705 46.122C184.109 46.7559 183.114 46.7681 182.503 46.1494L182.244 45.8869C181.633 45.2686 181.645 44.2623 182.271 43.6591L187.597 38.4753" stroke="#AC7746" stroke-miterlimit="10" stroke-linecap="round"/>
<path d="M195.329 34.8826L193.431 32.9609" stroke="#AC7746" stroke-miterlimit="10" stroke-linecap="round"/>
</g>
<defs>
<clipPath id="clip0_671_79">
<rect width="20" height="20" fill="white" transform="translate(30.3521 27.72)"/>
</clipPath>
<clipPath id="clip1_671_79">
<rect width="21" height="20" fill="white" transform="translate(181.352 27.72)"/>
</clipPath>
</defs>
</svg>
