<svg id="_レイヤー_2" xmlns="http://www.w3.org/2000/svg" viewBox="0 0 125.064380757 148.6319756342"><defs><style>.cls-1{fill:#010000;}.cls-2{fill:#fff;}.cls-3{fill:#c67a2c;}.cls-4{fill:#e2bc8f;}.cls-5{fill:#836951;}</style></defs><g id="txt"><g><circle class="cls-4" cx="62.5321903785" cy="62.5321903785" r="62.5321903785"/><polygon class="cls-3" points="108.7562504371 14.8393366651 16.3081303199 14.8393366651 16.3081303199 37.3016169385 59.7165775856 37.3016169385 62.5327396949 42.1780817823 65.3481693824 37.3016169385 108.7562504371 37.3016169385 108.7562504371 14.8393366651"/><g><path class="cls-1" d="M35.4801189791,136.9317803217c.025390625,.095703125,.08984375,.36328125,.08984375,.43359375,0,.1728515625-.1533203125,.3896484375-.3955078125,.3896484375-.2431640625,0-.3955078125-.216796875-.3955078125-.3896484375,0-.0703125,.0126953125-.12109375,.1396484375-.6181640625,.0771484375-.2998046875,.1083984375-.4462890625,.216796875-.8740234375-.4140625,.3955078125-.560546875,.529296875-.7841796875,.7587890625-.318359375,.306640625-.3505859375,.3447265625-.5166015625,.3447265625-.2236328125,0-.4013671875-.1787109375-.4013671875-.3955078125,0-.2998046875,.2294921875-.36328125,.4140625-.4208984375,.3447265625-.1025390625,.8994140625-.2548828125,1.25-.357421875-.22265625-.0634765625-1.19921875-.337890625-1.396484375-.4013671875-.2236328125-.0771484375-.267578125-.287109375-.267578125-.376953125,0-.216796875,.171875-.3955078125,.4013671875-.3955078125,.166015625,0,.1982421875,.0390625,.5166015625,.3447265625,.2548828125,.2548828125,.5166015625,.5107421875,.7841796875,.7587890625-.1142578125-.458984375-.1591796875-.6435546875-.267578125-1.05859375-.025390625-.095703125-.0888671875-.36328125-.0888671875-.43359375,0-.171875,.15234375-.388671875,.3955078125-.388671875,.2421875,0,.3955078125,.216796875,.3955078125,.388671875,0,.0703125-.0126953125,.12109375-.140625,.6181640625-.0771484375,.2998046875-.1083984375,.447265625-.216796875,.8740234375,.26171875-.248046875,.529296875-.50390625,.7841796875-.7587890625,.3193359375-.3056640625,.3505859375-.3447265625,.5166015625-.3447265625,.2294921875,0,.40234375,.1787109375,.40234375,.3955078125,0,.2998046875-.2294921875,.3642578125-.4150390625,.4208984375-.3447265625,.1025390625-.8994140625,.255859375-1.25,.357421875,.2236328125,.0634765625,1.19921875,.337890625,1.396484375,.40234375,.2236328125,.076171875,.2685546875,.2861328125,.2685546875,.3759765625,0,.216796875-.1728515625,.3955078125-.40234375,.3955078125-.166015625,0-.197265625-.0380859375-.5166015625-.3447265625-.2548828125-.2490234375-.5224609375-.509765625-.7841796875-.7587890625,.1142578125,.458984375,.1591796875,.650390625,.267578125,1.05859375Z"/><path class="cls-1" d="M39.6197674166,137.8116631342c-.2490234375,0-.3701171875-.03125-.43359375-.05078125l-.1533203125-.478515625c.236328125,.0517578125,.408203125,.064453125,.548828125,.064453125,.4970703125,0,.5166015625-.357421875,.5166015625-.427734375,0-.5419921875-.478515625-1.0908203125-1.0654296875-1.7666015625,.3759765625-.625,.625-1.0966796875,.8994140625-1.6396484375h-.962890625v5.1796875h-.453125v-5.5810546875h1.8115234375l.197265625,.216796875c-.439453125,.9052734375-.77734375,1.44140625-.994140625,1.779296875,.560546875,.5869140625,1.013671875,1.154296875,1.013671875,1.8818359375,0,.599609375-.3759765625,.822265625-.9248046875,.822265625Zm4.3115234375,.71484375c-1.6650390625-.7587890625-2.0341796875-2.2900390625-2.162109375-2.908203125h-.3759765625v2.1298828125c.36328125-.12109375,.529296875-.1845703125,.982421875-.3505859375l.0126953125,.43359375c-.95703125,.3505859375-1.4990234375,.5361328125-1.8505859375,.650390625-.0185546875,.05078125-.0439453125,.12109375-.1142578125,.12109375-.05078125,0-.0703125-.05078125-.076171875-.076171875l-.166015625-.43359375c.2802734375-.0634765625,.478515625-.12109375,.7646484375-.2109375v-4.783203125h2.6728515625v2.51953125h-1.4287109375c.0830078125,.5166015625,.3125,.962890625,.498046875,1.2685546875,.2734375-.216796875,.5546875-.4716796875,.9501953125-.9814453125l.3701171875,.3564453125c.0185546875,.01953125,.056640625,.0576171875,.056640625,.08984375,0,.0888671875-.1591796875,.076171875-.2353515625,.076171875-.5166015625,.4853515625-.7529296875,.669921875-.90625,.78515625,.357421875,.4521484375,.689453125,.6884765625,1.3271484375,.9306640625l-.3193359375,.3828125Zm-.7587890625-5.0322265625h-1.779296875v.6572265625h1.779296875v-.6572265625Zm0,1.0517578125h-1.779296875v.6767578125h1.779296875v-.6767578125Z"/><path class="cls-1" d="M50.7047283541,138.5011162592h-1.86328125c-1.3837890625,0-1.779296875-.2236328125-2.2705078125-1.09765625-.318359375,.619140625-.625,.931640625-1.0009765625,1.193359375l-.36328125-.3447265625c.580078125-.357421875,1.2119140625-.9443359375,1.3642578125-2.7421875l.47265625,.1591796875c.0634765625,.01953125,.1142578125,.05078125,.1142578125,.095703125,0,.0634765625-.0830078125,.0888671875-.1591796875,.115234375-.076171875,.4716796875-.1591796875,.802734375-.2548828125,1.1416015625,.19140625,.580078125,.630859375,.84765625,1.103515625,.9560546875v-2.767578125h-1.6591796875v-.4150390625h3.73828125v.4150390625h-1.6142578125v1.0966796875h1.51171875v.43359375h-1.51171875v1.314453125c.095703125,.005859375,.2236328125,.0126953125,.5166015625,.0126953125,.64453125,0,1.4482421875-.0322265625,2.0732421875-.115234375l-.197265625,.548828125Zm-.4150390625-3.4892578125v-.8603515625h-4.46484375v.962890625h-.4658203125v-1.3779296875h2.4755859375v-.841796875l.529296875,.0185546875c.0634765625,0,.1337890625,.013671875,.1337890625,.064453125,0,.0830078125-.1337890625,.1337890625-.2041015625,.1591796875v.599609375h2.4619140625v1.275390625h-.4658203125Z"/><path class="cls-1" d="M54.3717205416,134.4571709467c.0771484375,.095703125,.166015625,.216796875,.599609375,.5673828125l-.2998046875,.3125c-.337890625-.2802734375-.5166015625-.53515625-.630859375-.7138671875v.9951171875h-.43359375v-1.0146484375c-.478515625,.5166015625-.8486328125,.81640625-1.244140625,1.0849609375l-.3193359375-.2998046875c.5615234375-.33203125,.8681640625-.6064453125,1.1484375-.931640625h-.982421875v-.3955078125h1.3974609375v-1.0966796875l.439453125,.0439453125c.12109375,.013671875,.1591796875,.0830078125,.1591796875,.1083984375,0,.044921875-.095703125,.1083984375-.1650390625,.1533203125v.791015625h1.2119140625v.3955078125h-.880859375Zm-1.875,3.0419921875c.08984375-.1083984375,.1982421875-.22265625,.5107421875-.7138671875h-.7978515625v-.3828125h1.033203125c.1279296875-.2421875,.26171875-.4970703125,.33203125-.701171875l.4140625,.2548828125c.0576171875,.0322265625,.095703125,.0576171875,.095703125,.1015625,0,.0576171875-.0888671875,.0771484375-.216796875,.095703125-.076171875,.134765625-.0830078125,.1474609375-.146484375,.2490234375h1.677734375v.3828125h-.427734375c-.1337890625,.2802734375-.2802734375,.5673828125-.509765625,.8544921875,.26171875,.146484375,.388671875,.2294921875,.5927734375,.3896484375l-.2998046875,.3310546875c-.2421875-.1845703125-.357421875-.26171875-.599609375-.4013671875-.1591796875,.1337890625-.4267578125,.2998046875-.65625,.408203125-.1787109375,.076171875-.478515625,.197265625-.9384765625,.2744140625l-.2998046875-.4150390625c.765625-.0703125,1.224609375-.287109375,1.4990234375-.478515625-.2998046875-.140625-.50390625-.2041015625-.7080078125-.267578125-.076171875,.1015625-.12109375,.1591796875-.2099609375,.267578125l-.3447265625-.2490234375Zm.3447265625-4.470703125c.26171875,.2041015625,.439453125,.36328125,.630859375,.6123046875l-.2802734375,.267578125c-.2548828125-.29296875-.4150390625-.439453125-.6123046875-.599609375l.26171875-.2802734375Zm.6826171875,3.7568359375c-.1279296875,.2099609375-.1474609375,.2421875-.255859375,.3955078125,.2744140625,.076171875,.4912109375,.1533203125,.8037109375,.2802734375,.1279296875-.146484375,.2431640625-.29296875,.4150390625-.67578125h-.962890625Zm.6953125-3.1572265625c.2099609375-.1787109375,.3505859375-.337890625,.5859375-.6630859375l.2685546875,.2548828125c.0380859375,.0380859375,.0703125,.0634765625,.0703125,.095703125,0,.0576171875-.0830078125,.0634765625-.1220703125,.0703125-.1650390625,.2041015625-.3125,.34375-.50390625,.50390625l-.298828125-.26171875Zm3.5078125,4.9619140625c-.5810546875-.29296875-.88671875-.5419921875-1.2314453125-.9951171875-.29296875,.4208984375-.625,.78515625-1.1611328125,1.1162109375l-.43359375-.2998046875c.4404296875-.2548828125,.95703125-.6123046875,1.345703125-1.23046875-.34375-.7080078125-.458984375-1.3330078125-.5478515625-2.20703125l.4140625-.0703125c.064453125,.599609375,.140625,1.12890625,.3828125,1.779296875,.2548828125-.7138671875,.3125-1.2880859375,.3505859375-2.0595703125h-1.033203125c-.287109375,.6572265625-.484375,.9375-.625,1.12890625l-.3828125-.267578125c.3955078125-.548828125,.7783203125-1.2314453125,1.0908203125-2.5576171875l.47265625,.1845703125c.05078125,.025390625,.1015625,.0634765625,.1015625,.1142578125,0,.0517578125-.0576171875,.064453125-.1787109375,.1025390625-.05078125,.1337890625-.26171875,.740234375-.3125,.861328125h1.8115234375v.43359375h-.4912109375c-.1015625,1.1474609375-.1845703125,1.759765625-.5673828125,2.5576171875,.12109375,.1787109375,.4462890625,.650390625,1.294921875,1.013671875l-.2998046875,.3955078125Z"/><path class="cls-1" d="M60.1119549166,133.5958428217c-.115234375,.2939453125-.2294921875,.59375-.3447265625,1.2626953125-.0703125,.4150390625-.12109375,.8427734375-.12109375,1.263671875,0,.3505859375,.0322265625,.625,.0703125,.912109375,.025390625,.19140625,.0322265625,.216796875,.044921875,.34375,.0830078125-.2041015625,.1337890625-.34375,.3310546875-.943359375l.3701171875,.267578125c-.095703125,.216796875-.2421875,.5869140625-.4208984375,1.4736328125l-.3955078125,.05078125c-.267578125-.650390625-.4140625-1.1669921875-.4140625-2.021484375,0-.54296875,.0693359375-1.294921875,.146484375-1.6396484375,.140625-.5927734375,.1533203125-.6572265625,.1787109375-.796875,.05078125-.2744140625,.0576171875-.306640625,.0703125-.376953125l.484375,.2041015625Zm1.345703125,2.8896484375c0,.0634765625,.0126953125,.36328125,.025390625,.4208984375,.1025390625,.4716796875,.498046875,.5234375,.95703125,.5234375,.7587890625,0,1.1669921875-.1220703125,1.587890625-.26171875v.4970703125c-.337890625,.0830078125-.6953125,.166015625-1.61328125,.166015625-.810546875,0-1.3525390625-.0576171875-1.3583984375-1.2822265625l.4013671875-.0634765625Zm-.1533203125-2.640625c.166015625,.025390625,.427734375,.0634765625,.912109375,.0634765625,.3125,0,.9375-.0634765625,1.53125-.267578125l.0185546875,.50390625c-.9755859375,.166015625-1.44140625,.166015625-2.091796875,.166015625-.166015625,0-.2294921875-.0068359375-.318359375-.01953125l-.0517578125-.4462890625Z"/><path class="cls-1" d="M70.9351971041,138.4942803217c-2.6083984375,0-3.0615234375,0-3.5654296875-.0380859375-.7587890625-.0634765625-.91796875-.4013671875-1.0205078125-.630859375-.2099609375,.22265625-.318359375,.3251953125-.5732421875,.560546875-.013671875,.1279296875-.01953125,.2041015625-.08984375,.2041015625-.044921875,0-.0703125-.03125-.1083984375-.0830078125l-.26171875-.3828125c.3125-.171875,.57421875-.4140625,.7978515625-.6630859375v-1.447265625h-.71484375v-.427734375h1.1484375v1.677734375c0,.771484375,.453125,.84765625,1.6904296875,.84765625,.9755859375,0,1.9453125-.0380859375,2.908203125-.15234375l-.2109375,.53515625Zm-4.802734375-4.0244140625c-.2041015625-.4462890625-.4140625-.771484375-.6953125-1.1484375l.33203125-.2607421875c.43359375,.5166015625,.6376953125,.88671875,.7587890625,1.1416015625l-.3955078125,.267578125Zm3.66796875,.2744140625l.2353515625,.146484375c.0126953125,.0126953125,.0517578125,.0380859375,.0517578125,.0703125,0,.0576171875-.08984375,.0576171875-.12109375,.0576171875-.115234375,.2099609375-.1982421875,.337890625-.26171875,.439453125h.8798828125v.3828125h-1.5302734375v.408203125h1.3134765625v.3828125h-1.3134765625v.427734375h1.68359375v.3828125h-1.68359375v.529296875h-.447265625v-.529296875h-1.6513671875v-.3828125h1.6513671875v-.427734375h-1.30078125v-.3828125h1.30078125v-.408203125h-1.498046875v-.3828125h.7841796875c-.1025390625-.19140625-.19140625-.3125-.36328125-.53515625l.2802734375-.1787109375h-1.033203125v-.40234375h1.8115234375v-.484375h-1.3779296875v-.3828125h1.3779296875v-.580078125l.484375,.044921875c.05078125,.005859375,.095703125,.03125,.095703125,.076171875,0,.0576171875-.03125,.0703125-.1142578125,.115234375v.34375h1.4287109375v.3828125h-1.4287109375v.484375h1.830078125v.40234375h-1.083984375Zm-1.9072265625,0c.146484375,.1787109375,.267578125,.357421875,.3828125,.548828125l-.236328125,.1650390625h1.4990234375l-.236328125-.15234375c.12109375-.166015625,.2236328125-.3193359375,.33203125-.5615234375h-1.7412109375Z"/><path class="cls-1" d="M72.9517986666,133.4112725092c-.1474609375,1.294921875-.1474609375,2.9658203125-.1474609375,3.1123046875,0,.7841796875,.0576171875,.9189453125,.095703125,1.001953125,.166015625,.3818359375,.5361328125,.4521484375,.7021484375,.4521484375,.408203125,0,1.275390625-.2353515625,2.041015625-1.8427734375l.4013671875,.4013671875c-.2294921875,.3828125-1.103515625,1.875-2.4423828125,1.875-.6318359375,0-1.001953125-.4140625-1.123046875-.8037109375-.0888671875-.2861328125-.1015625-.4970703125-.1015625-1.54296875,0-.2998046875,.0185546875-1.6005859375,.0185546875-1.869140625,0-.287109375,0-.6123046875-.0380859375-.8994140625l.59375,.115234375Z"/><path class="cls-1" d="M79.5142986666,133.3604912592c-.0830078125,.3310546875-.115234375,.439453125-.28125,1.0458984375,.568359375-.115234375,.8544921875-.2236328125,1.078125-.3125v.478515625c-.4404296875,.1650390625-.91796875,.248046875-1.23046875,.2998046875-.16015625,.4970703125-.357421875,1.109375-.6767578125,1.8935546875-.337890625,.8232421875-.50390625,1.09765625-.701171875,1.41015625l-.5166015625-.1279296875c.2294921875-.33203125,.458984375-.6572265625,.796875-1.421875,.3193359375-.720703125,.4912109375-1.25,.6318359375-1.6845703125-.3505859375,.0263671875-.64453125,.044921875-1.05859375,.0322265625l-.0517578125-.4658203125c.115234375,.01953125,.2041015625,.0322265625,.453125,.0322265625,.2998046875,0,.5361328125-.0322265625,.7783203125-.0634765625,.0830078125-.3125,.2294921875-.8681640625,.2490234375-1.3330078125l.529296875,.216796875Zm.267578125,3.673828125c-.0380859375,.0888671875-.0703125,.1845703125-.0703125,.3505859375,0,.3447265625,.3828125,.4658203125,.9375,.4658203125,.4208984375,0,.8359375-.0703125,1.2373046875-.185546875l-.0634765625,.498046875c-.3955078125,.076171875-.791015625,.1142578125-1.1923828125,.1142578125-.3447265625,0-1.365234375-.05078125-1.365234375-.771484375,0-.1337890625,.0322265625-.3505859375,.1337890625-.6376953125l.3828125,.166015625Zm.2294921875-1.728515625c.2744140625-.0322265625,.74609375-.0703125,1.0146484375-.0703125,.3125,0,.5986328125,.03125,.8798828125,.1015625l-.01953125,.447265625c-.3955078125-.0830078125-.6123046875-.115234375-1.0458984375-.115234375-.50390625,0-.67578125,.044921875-.841796875,.0830078125l.0126953125-.4462890625Z"/><path class="cls-1" d="M84.3932049166,134.9034600092v1.658203125c.4140625-.15234375,.53515625-.197265625,.7138671875-.2802734375v.4658203125c-.5546875,.2294921875-1.1220703125,.458984375-1.6962890625,.650390625-.025390625,.0830078125-.05078125,.1533203125-.115234375,.1533203125-.0634765625,0-.08203125-.0830078125-.1015625-.166015625l-.115234375-.4404296875c.140625-.005859375,.216796875-.0126953125,.8486328125-.216796875v-1.82421875h-.765625v-.4140625h.765625v-1.4482421875l.453125,.05078125c.03125,0,.146484375,.0126953125,.146484375,.0830078125,0,.044921875-.0322265625,.0703125-.1337890625,.1337890625v1.1806640625h.740234375v.4140625h-.740234375Zm2.283203125,.9892578125c-.0888671875,.1396484375-.236328125,.3564453125-.2744140625,.408203125h2.2958984375c-.0126953125,.4208984375-.076171875,1.61328125-.248046875,1.9638671875-.16015625,.3251953125-.453125,.3251953125-.71484375,.3251953125h-.337890625l-.1279296875-.529296875c.115234375,.0322265625,.326171875,.0830078125,.50390625,.0830078125,.1083984375,0,.2744140625,0,.3447265625-.3125,.0380859375-.1787109375,.08984375-.5361328125,.115234375-1.12890625h-.3125c-.2744140625,.8486328125-.6064453125,1.3837890625-1.3974609375,1.990234375l-.46484375-.2294921875c.388671875-.2490234375,1.0771484375-.7021484375,1.4091796875-1.7607421875h-.4150390625c-.177734375,.40234375-.3564453125,.6630859375-.6689453125,.9755859375-.4599609375,.4599609375-.9638671875,.6953125-1.1865234375,.7978515625l-.3701171875-.3125c.43359375-.16015625,1.3134765625-.5361328125,1.7607421875-1.4609375h-.478515625c-.357421875,.357421875-.669921875,.6376953125-1.1162109375,.962890625l-.4150390625-.287109375c.6640625-.3251953125,1.1806640625-.873046875,1.6015625-1.4853515625h-1.193359375v-.376953125h3.8525390625v.376953125h-2.162109375Zm-1.083984375-.7724609375v-2.0087890625h2.6279296875v2.0087890625h-2.6279296875Zm2.193359375-1.6259765625h-1.759765625v.4208984375h1.759765625v-.4208984375Zm0,.7841796875h-1.759765625v.4462890625h1.759765625v-.4462890625Z"/><path class="cls-1" d="M95.3883221041,135.6368584467c-1.109375-.484375-2.021484375-1.3076171875-2.525390625-2.091796875-.408203125,.625-1.12890625,1.556640625-2.5263671875,2.1748046875l-.34375-.4013671875c.65625-.2744140625,1.9130859375-.8994140625,2.7041015625-2.4365234375l.5166015625,.19140625c.0888671875,.03125,.12109375,.0888671875,.12109375,.1142578125,0,.064453125-.0830078125,.0771484375-.140625,.08984375,.1337890625,.19140625,.43359375,.630859375,1.0078125,1.083984375,.4658203125,.3701171875,.9951171875,.64453125,1.5498046875,.841796875l-.36328125,.43359375Zm-1.1484375,2.998046875v-.29296875h-2.7099609375v.3125h-.4658203125v-2.2392578125h3.6416015625v2.2197265625h-.4658203125Zm-2.7548828125-3.0166015625v-.43359375h2.8251953125v.43359375h-2.8251953125Zm2.7548828125,1.2119140625h-2.7099609375v1.0771484375h2.7099609375v-1.0771484375Z"/><path class="cls-1" d="M97.1422283541,137.1681084467c.64453125,.4267578125,1.0146484375,.8349609375,1.294921875,1.1611328125l-.3310546875,.36328125c-.40234375-.57421875-.669921875-.861328125-1.2119140625-1.275390625l.248046875-.2490234375Z"/><path class="cls-1" d="M17.1529705416,142.8790459467c.064453125,.0068359375,.166015625,.01953125,.166015625,.0703125,0,.0576171875-.076171875,.076171875-.1142578125,.0888671875v.638671875h.5732421875v.3818359375h-.5732421875v2.544921875h.5478515625v.3955078125h-3.1376953125v-.3955078125h.6953125v-2.544921875h-.6318359375v-.3818359375h.6318359375v-.8486328125l.4013671875,.044921875c.0322265625,0,.146484375,.0126953125,.146484375,.0693359375,0,.0263671875-.0185546875,.0517578125-.1142578125,.109375v.625h1.0263671875v-.8291015625l.3828125,.03125Zm-2.404296875,5.5048828125c.267578125-.2998046875,.57421875-.689453125,.7587890625-1.2314453125l.408203125,.166015625c.0771484375,.0322265625,.115234375,.0576171875,.115234375,.1015625,0,.0576171875-.05078125,.0771484375-.1787109375,.1083984375-.1787109375,.3828125-.388671875,.7080078125-.720703125,1.103515625l-.3828125-.248046875Zm2.021484375-4.3251953125h-1.0263671875v.5810546875h1.0263671875v-.5810546875Zm0,.9443359375h-1.0263671875v.599609375h1.0263671875v-.599609375Zm0,.9697265625h-1.0263671875v.630859375h1.0263671875v-.630859375Zm.01953125,1.19921875c.29296875,.4267578125,.4716796875,.6376953125,.6826171875,.8291015625l-.3193359375,.2998046875c-.2744140625-.2548828125-.4912109375-.568359375-.6953125-.880859375l.33203125-.248046875Zm1.6962890625-.599609375c-.0693359375,.6435546875-.216796875,1.3583984375-.6435546875,2.041015625l-.4208984375-.216796875c.560546875-.90625,.6689453125-1.5751953125,.6689453125-3.169921875,0-.7275390625-.0126953125-1.4609375-.0380859375-2.1884765625h2.009765625v4.8857421875c0,.2490234375,0,.6640625-.619140625,.6640625-.044921875,0-.1845703125-.0068359375-.408203125-.0322265625l-.1015625-.4970703125c.15234375,.03125,.3564453125,.08203125,.46484375,.08203125,.19140625,0,.216796875-.1337890625,.216796875-.2802734375v-1.2880859375h-1.12890625Zm1.12890625-.3828125v-1.2060546875h-1.0771484375c0,.7275390625,0,.810546875-.01953125,1.2060546875h1.0966796875Zm0-1.587890625v-1.1611328125h-1.0771484375v1.1611328125h1.0771484375Z"/><path class="cls-1" d="M25.1822674166,148.5304131342v-.529296875h-2.8056640625v.529296875h-.4853515625v-5.3134765625h3.7763671875v5.3134765625h-.4853515625Zm0-4.84765625h-2.8056640625v1.708984375h2.8056640625v-1.708984375Zm0,2.15625h-2.8056640625v1.728515625h2.8056640625v-1.728515625Z"/><path class="cls-1" d="M27.3834392916,144.2628350092v-.43359375h1.6455078125c-.1591796875-.2802734375-.2998046875-.46484375-.50390625-.681640625l.3828125-.28125c.2548828125,.2548828125,.3955078125,.4462890625,.5673828125,.74609375l-.3505859375,.216796875h1.9267578125l-.23046875-.1845703125c.2490234375-.26171875,.40234375-.458984375,.5810546875-.7783203125l.36328125,.236328125c.0380859375,.025390625,.076171875,.05078125,.076171875,.0888671875,0,.044921875-.0126953125,.044921875-.146484375,.044921875-.1591796875,.2802734375-.287109375,.4404296875-.4267578125,.5927734375h1.6259765625v.43359375h-5.5107421875Zm2.0791015625,4.267578125h-.3125l-.2294921875-.498046875c.3701171875,.0517578125,.3896484375,.0576171875,.43359375,.0576171875,.115234375,0,.115234375-.076171875,.115234375-.166015625v-.6376953125h-1.2119140625v1.2763671875h-.453125v-3.8017578125h2.091796875v3.3544921875c0,.306640625-.0634765625,.4150390625-.43359375,.4150390625Zm.0068359375-3.35546875h-1.2119140625v.64453125h1.2119140625v-.64453125Zm0,1.046875h-1.2119140625v.6630859375h1.2119140625v-.6630859375Zm1.677734375-1.12890625v2.455078125h-.447265625v-2.6728515625l.4150390625,.0390625c.025390625,.005859375,.166015625,.0185546875,.166015625,.076171875,0,.044921875-.0517578125,.0634765625-.1337890625,.1025390625Zm1.2626953125-.23046875v3.1640625c0,.427734375-.12109375,.484375-.453125,.484375h-.509765625l-.166015625-.509765625c.1015625,.0126953125,.4912109375,.05078125,.53515625,.05078125,.08984375,0,.1279296875-.025390625,.1279296875-.2041015625v-3.1826171875l.453125,.0322265625c.0380859375,.005859375,.146484375,.0126953125,.146484375,.0634765625,0,.0380859375-.0703125,.0703125-.1337890625,.1015625Z"/><path class="cls-1" d="M35.2984783541,143.5167412592c-.115234375,.2939453125-.2294921875,.59375-.3447265625,1.263671875-.0703125,.4140625-.12109375,.841796875-.12109375,1.2626953125,0,.3505859375,.0322265625,.625,.0703125,.912109375,.025390625,.19140625,.0322265625,.216796875,.044921875,.34375,.0830078125-.2041015625,.1337890625-.34375,.3310546875-.943359375l.3701171875,.267578125c-.095703125,.216796875-.2421875,.5869140625-.4208984375,1.4736328125l-.3955078125,.05078125c-.267578125-.650390625-.4140625-1.1669921875-.4140625-2.021484375,0-.54296875,.0703125-1.294921875,.146484375-1.6396484375,.140625-.5927734375,.1533203125-.6572265625,.1787109375-.796875,.05078125-.2744140625,.0576171875-.306640625,.0703125-.376953125l.484375,.2041015625Zm1.345703125,2.8896484375c0,.0634765625,.0126953125,.36328125,.025390625,.4208984375,.1025390625,.4716796875,.498046875,.5234375,.95703125,.5234375,.7587890625,0,1.1669921875-.12109375,1.587890625-.26171875v.4970703125c-.337890625,.0830078125-.6953125,.166015625-1.61328125,.166015625-.810546875,0-1.3525390625-.0576171875-1.3583984375-1.2822265625l.4013671875-.0634765625Zm-.1533203125-2.640625c.166015625,.025390625,.427734375,.0634765625,.912109375,.0634765625,.3125,0,.9375-.0634765625,1.53125-.267578125l.0185546875,.50390625c-.9755859375,.166015625-1.44140625,.166015625-2.091796875,.166015625-.166015625,0-.2294921875-.0068359375-.318359375-.01953125l-.0517578125-.4462890625Z"/><path class="cls-1" d="M41.1217205416,146.5909600092c-.064453125,.64453125-.115234375,1.046875-.287109375,1.5888671875l-.427734375-.064453125c.216796875-.560546875,.28125-1.2177734375,.28125-1.779296875l.46484375,.0771484375c.0576171875,.005859375,.1025390625,.0185546875,.1025390625,.0634765625,0,.0576171875-.0634765625,.0830078125-.1337890625,.1142578125Zm4.662109375-.4716796875v-.912109375h-1.173828125v.765625h.9765625v1.8115234375c0,.4521484375-.140625,.4521484375-.7783203125,.46484375l-.115234375-.46484375c.0576171875,.005859375,.2041015625,.03125,.306640625,.03125,.1533203125,0,.1533203125-.0634765625,.1533203125-.146484375v-1.294921875h-.54296875v2.232421875h-.4208984375v-2.232421875h-.529296875v1.8564453125h-.43359375v-2.2578125h.962890625v-.765625h-1.12890625v.8798828125h-.34375l-.33203125,.166015625c-.044921875-.1337890625-.076171875-.22265625-.171875-.4267578125-.0830078125,.0185546875-.3447265625,.0830078125-.4150390625,.095703125v2.6845703125h-.4140625v-2.615234375c-.236328125,.0390625-.427734375,.0771484375-.7080078125,.1474609375-.0068359375,.025390625-.0390625,.1337890625-.1025390625,.1337890625-.044921875,0-.05078125-.05078125-.0634765625-.1083984375l-.08984375-.4912109375c.12109375,0,.3828125-.01953125,.5234375-.0380859375,.076171875-.1025390625,.3955078125-.5810546875,.458984375-.6767578125-.1533203125-.1650390625-.3759765625-.4140625-.962890625-.796875l.2294921875-.3505859375c.171875,.095703125,.2294921875,.1337890625,.2998046875,.1845703125,.3447265625-.4462890625,.580078125-.88671875,.7841796875-1.2626953125l.3955078125,.2041015625c.0322265625,.01953125,.0771484375,.044921875,.0771484375,.076171875,0,.0830078125-.146484375,.08984375-.1982421875,.095703125-.1787109375,.3642578125-.4208984375,.759765625-.7080078125,1.154296875,.115234375,.1025390625,.33203125,.2998046875,.3515625,.3125,.1904296875-.2861328125,.388671875-.5986328125,.5419921875-.892578125l.3564453125,.2548828125c.0263671875,.01953125,.064453125,.0517578125,.064453125,.08984375,0,.0703125-.095703125,.0830078125-.216796875,.0830078125-.0703125,.12109375-.43359375,.7646484375-.9638671875,1.447265625,.185546875-.0185546875,.3125-.0380859375,.59375-.1142578125-.01953125-.044921875-.115234375-.2490234375-.166015625-.33203125l.3193359375-.236328125c.171875,.287109375,.337890625,.5869140625,.4462890625,.951171875v-1.0146484375h.9306640625c-.1142578125-.2294921875-.2099609375-.3759765625-.4140625-.650390625l.2294921875-.1787109375h-.580078125v-.4013671875h1.396484375v-.71484375l.4970703125,.044921875c.0322265625,0,.095703125,.0126953125,.095703125,.0576171875,0,.0439453125-.0126953125,.05078125-.146484375,.12109375v.4912109375h1.51171875v.4013671875h-.67578125l.2548828125,.166015625c.01953125,.0126953125,.0634765625,.05078125,.0634765625,.0888671875,0,.0576171875-.05078125,.0576171875-.1591796875,.0576171875-.0703125,.1337890625-.12109375,.2294921875-.3125,.5166015625h.8671875v1.3076171875h-.4208984375Zm-3.501953125,1.849609375c-.056640625-.6630859375-.1650390625-1.1474609375-.248046875-1.4794921875l.3505859375-.1025390625c.146484375,.427734375,.26171875,.85546875,.3447265625,1.4609375l-.447265625,.12109375Zm1.2763671875-3.986328125c.1845703125,.2236328125,.3564453125,.5419921875,.43359375,.67578125l-.1982421875,.1533203125h1.294921875l-.197265625-.166015625c.2099609375-.2353515625,.337890625-.43359375,.4267578125-.6630859375h-1.759765625Z"/><path class="cls-1" d="M49.6041424166,147.3692803217c-.1337890625-.1591796875-.171875-.2041015625-.2490234375-.318359375-.2041015625,.248046875-.751953125,.8798828125-1.28125,.8798828125-.5419921875,0-.599609375-.7529296875-.599609375-1.0146484375,0-.7646484375,.3505859375-1.47265625,.8671875-2.041015625-.115234375-.3251953125-.140625-.408203125-.3828125-1.16015625l.4658203125-.1982421875c.140625,.669921875,.2041015625,.8994140625,.267578125,1.1103515625,.6953125-.408203125,1.0654296875-.4658203125,1.3779296875-.498046875,.0322265625-.216796875,.0703125-.509765625,.095703125-.9951171875l.5361328125,.1787109375c-.01953125,.166015625-.0576171875,.3515625-.1533203125,.8359375,.5478515625,.1337890625,.7587890625,.236328125,.9951171875,.43359375,.3759765625,.3251953125,.630859375,.8232421875,.630859375,1.4091796875,0,.669921875-.3251953125,1.3720703125-1.0009765625,1.8369140625-.3125,.2177734375-.529296875,.2939453125-1.0078125,.3896484375l-.2802734375-.40234375c.509765625-.0693359375,.720703125-.1337890625,.994140625-.3125,.5361328125-.337890625,.8486328125-.9052734375,.8486328125-1.5244140625,0-.650390625-.3056640625-1.0205078125-.701171875-1.23046875-.1787109375-.08984375-.306640625-.1279296875-.57421875-.1728515625-.140625,.4853515625-.3505859375,1.2060546875-.81640625,2.060546875,.1591796875,.2109375,.216796875,.287109375,.3125,.40234375l-.3447265625,.3310546875Zm-1.1162109375-2.0595703125c-.1591796875,.19140625-.3310546875,.4013671875-.478515625,.8349609375-.056640625,.1728515625-.1337890625,.453125-.1337890625,.71484375,0,.126953125,.0126953125,.5732421875,.28125,.5732421875,.2294921875,0,.5732421875-.22265625,.962890625-.7646484375-.2490234375-.47265625-.357421875-.6826171875-.6318359375-1.3583984375Zm1.4990234375-.734375c-.5361328125,.0576171875-.822265625,.205078125-1.1669921875,.453125,.1533203125,.40234375,.2802734375,.7333984375,.5673828125,1.224609375,.2490234375-.5224609375,.4208984375-.892578125,.599609375-1.677734375Z"/><path class="cls-1" d="M54.7447674166,147.6505303217c-.3505859375,0-.599609375-.044921875-.599609375-.5234375v-1.779296875l-.84765625,.19140625-.044921875-.4599609375,.892578125-.1904296875v-2.0224609375l.5166015625,.0703125c.044921875,.005859375,.140625,.01953125,.140625,.0888671875,0,.0771484375-.0830078125,.1220703125-.19140625,.16015625v1.5947265625l1.51171875-.3447265625,.0322265625,.458984375-1.5439453125,.3505859375v1.72265625c0,.171875,.0322265625,.216796875,.236328125,.216796875h.3759765625c.2236328125,0,.2802734375-.16015625,.3701171875-.7783203125l.4462890625,.2490234375c-.197265625,.791015625-.306640625,.9951171875-.74609375,.9951171875h-.548828125Zm4.1845703125-4.2548828125c0,1.275390625-.0390625,2.8701171875-.185546875,3.8017578125-.2041015625,1.2822265625-.57421875,1.2822265625-1.013671875,1.2822265625-.01953125,0-.2744140625,0-.5615234375-.0322265625l-.095703125-.5673828125c.306640625,.0888671875,.427734375,.12109375,.60546875,.12109375,.357421875,0,.478515625-.1279296875,.61328125-.982421875,.146484375-.9375,.1650390625-2.333984375,.1591796875-3.1767578125h-1.2626953125c-.0126953125,2.10546875-.216796875,3.642578125-1.697265625,4.771484375l-.4462890625-.33203125c1.44140625-.892578125,1.6455078125-2.30859375,1.658203125-4.439453125h-1.12890625v-.4462890625h3.35546875Z"/><path class="cls-1" d="M60.9957439791,143.5997490717c1.4033203125,.01953125,2.1875-.216796875,2.69140625-.3701171875l.216796875,.3515625c-.056640625,.05078125-.3125,.2734375-.3564453125,.318359375-.5810546875,.5869140625-.9189453125,.931640625-1.33984375,1.3076171875,.2109375-.095703125,.427734375-.197265625,.8037109375-.197265625,.4716796875,0,1.5693359375,.2294921875,1.5693359375,1.4345703125,0,1.2119140625-1.2060546875,1.7353515625-2.015625,1.7353515625-.548828125,0-1.2568359375-.2294921875-1.2568359375-.8291015625,0-.3828125,.33203125-.734375,.912109375-.734375,.8232421875,0,1.1611328125,.6513671875,1.2822265625,.88671875,.171875-.126953125,.6181640625-.46484375,.6181640625-1.0458984375,0-.43359375-.2734375-1.0009765625-1.1669921875-1.0009765625-1.1220703125,0-2.1552734375,1.109375-2.2578125,1.23046875l-.4013671875-.3310546875c1.103515625-.8486328125,2.0087890625-1.7666015625,2.646484375-2.5263671875-.3505859375,.095703125-1.0263671875,.2041015625-1.798828125,.2490234375l-.146484375-.478515625Zm1.1865234375,3.4189453125c-.267578125,0-.4404296875,.171875-.4404296875,.3125,0,.267578125,.458984375,.43359375,.78515625,.43359375,.177734375,0,.3564453125-.025390625,.529296875-.0634765625-.095703125-.2041015625-.3251953125-.6826171875-.8740234375-.6826171875Z"/><path class="cls-1" d="M67.1695721041,144.8243584467v1.658203125c.4140625-.15234375,.5361328125-.197265625,.7138671875-.2802734375v.4658203125c-.5546875,.2294921875-1.1220703125,.458984375-1.6962890625,.650390625-.025390625,.0830078125-.05078125,.1533203125-.1142578125,.1533203125-.064453125,0-.0830078125-.0830078125-.1025390625-.166015625l-.115234375-.4404296875c.140625-.005859375,.2177734375-.0126953125,.8486328125-.216796875v-1.82421875h-.765625v-.4140625h.765625v-1.4482421875l.453125,.05078125c.03125,0,.146484375,.0126953125,.146484375,.0830078125,0,.044921875-.0322265625,.0703125-.1337890625,.1337890625v1.1806640625h.7392578125v.4140625h-.7392578125Zm2.283203125,.9892578125c-.0888671875,.1396484375-.236328125,.3564453125-.2744140625,.408203125h2.2958984375c-.0126953125,.4208984375-.076171875,1.61328125-.248046875,1.9638671875-.16015625,.3251953125-.453125,.3251953125-.71484375,.3251953125h-.337890625l-.1279296875-.529296875c.115234375,.0322265625,.326171875,.0830078125,.50390625,.0830078125,.1083984375,0,.2744140625,0,.3447265625-.3125,.0380859375-.1787109375,.08984375-.5361328125,.115234375-1.12890625h-.3125c-.2744140625,.8486328125-.6064453125,1.3837890625-1.3974609375,1.990234375l-.46484375-.2294921875c.388671875-.2490234375,1.0771484375-.7021484375,1.4091796875-1.7607421875h-.4150390625c-.177734375,.4013671875-.3564453125,.6630859375-.6689453125,.9755859375-.4599609375,.4599609375-.9638671875,.6953125-1.1865234375,.7978515625l-.3701171875-.3125c.43359375-.16015625,1.3134765625-.5361328125,1.7607421875-1.4609375h-.478515625c-.357421875,.357421875-.669921875,.6376953125-1.1162109375,.962890625l-.4150390625-.287109375c.6640625-.3251953125,1.1806640625-.873046875,1.6015625-1.4853515625h-1.193359375v-.376953125h3.8525390625v.376953125h-2.162109375Zm-1.083984375-.7724609375v-2.0087890625h2.6279296875v2.0087890625h-2.6279296875Zm2.1943359375-1.6259765625h-1.7607421875v.4208984375h1.7607421875v-.4208984375Zm0,.7841796875h-1.7607421875v.4462890625h1.7607421875v-.4462890625Z"/><path class="cls-1" d="M78.1656658541,145.5577568842c-1.109375-.484375-2.021484375-1.3076171875-2.525390625-2.091796875-.408203125,.625-1.12890625,1.556640625-2.5263671875,2.1748046875l-.34375-.4013671875c.65625-.2744140625,1.9130859375-.8994140625,2.7041015625-2.4365234375l.5166015625,.19140625c.0888671875,.03125,.12109375,.0888671875,.12109375,.1142578125,0,.064453125-.0830078125,.0771484375-.140625,.08984375,.1337890625,.19140625,.43359375,.630859375,1.0078125,1.083984375,.4658203125,.3701171875,.9951171875,.64453125,1.5498046875,.841796875l-.36328125,.43359375Zm-1.1484375,2.998046875v-.29296875h-2.7099609375v.3125h-.4658203125v-2.2392578125h3.6416015625v2.2197265625h-.4658203125Zm-2.7548828125-3.0166015625v-.43359375h2.8251953125v.43359375h-2.8251953125Zm2.7548828125,1.2119140625h-2.7099609375v1.0771484375h2.7099609375v-1.0771484375Z"/><path class="cls-1" d="M79.6002361666,145.0099053217c.6376953125-.12109375,1.0078125-.236328125,1.3330078125-.33203125,.0576171875-.3125,.095703125-.5546875,.095703125-1.3271484375l.5810546875,.2109375c-.064453125,.2744140625-.095703125,.4716796875-.1787109375,.962890625,.1396484375-.025390625,.34375-.0634765625,.529296875-.0634765625,.3701171875,0,.912109375,.2294921875,.912109375,1.1865234375,0,.5419921875-.1279296875,1.416015625-.4150390625,1.9384765625-.2421875,.453125-.625,.4912109375-.84765625,.4912109375-.0703125,0-.1474609375-.005859375-.3447265625-.025390625l-.2041015625-.5166015625c.26171875,.0322265625,.4013671875,.05078125,.529296875,.05078125,.1591796875,0,.4013671875,0,.5673828125-.43359375,.0576171875-.1533203125,.2490234375-.7392578125,.2490234375-1.4033203125,0-.357421875-.0380859375-.8740234375-.5361328125-.8740234375-.166015625,0-.4013671875,.0576171875-.509765625,.0830078125-.2744140625,1.16796875-.6376953125,2.1435546875-1.294921875,3.1767578125l-.478515625-.2548828125c.2421875-.2998046875,.484375-.6064453125,.81640625-1.384765625,.306640625-.7138671875,.3828125-1.1162109375,.4404296875-1.421875-.095703125,.0380859375-.5166015625,.2041015625-.6064453125,.2421875-.2294921875,.08984375-.2998046875,.115234375-.4208984375,.140625l-.216796875-.4462890625Zm3.4892578125-1.2119140625c.34375,.318359375,1.1796875,1.083984375,1.1796875,1.759765625,0,.4599609375-.3759765625,.5361328125-.7333984375,.6123046875l-.2294921875-.509765625c.1787109375,.005859375,.4658203125,.0126953125,.4658203125-.1982421875,0-.1015625-.044921875-.216796875-.16015625-.408203125-.1845703125-.318359375-.4521484375-.5869140625-.8349609375-.943359375l.3125-.3125Zm1.1162109375,.3125c-.166015625-.1728515625-.3955078125-.40234375-.599609375-.548828125l.2998046875-.26171875c.216796875,.16015625,.4140625,.3193359375,.6435546875,.548828125l-.34375,.26171875Zm.34375-1.224609375c.166015625,.12109375,.3955078125,.3125,.599609375,.529296875l-.2998046875,.267578125c-.1845703125-.19140625-.388671875-.388671875-.560546875-.53515625l.2607421875-.26171875Z"/><path class="cls-1" d="M90.2262127291,147.8800225092c-.67578125,.12109375-1.41015625,.216796875-1.9267578125,.216796875-.1015625,0-.50390625,.005859375-.8798828125-.044921875-.60546875-.076171875-1.365234375-.2548828125-1.365234375-.9951171875,0-.4462890625,.326171875-.74609375,.6318359375-1.0205078125l.3701171875,.267578125c-.306640625,.23046875-.5234375,.3896484375-.5234375,.689453125,0,.4462890625,.4912109375,.6572265625,1.537109375,.6572265625,.5556640625,0,1.0146484375-.0703125,1.5439453125-.19140625,.3505859375-.0771484375,.388671875-.08984375,.630859375-.140625l-.0185546875,.5615234375Zm-3.7373046875-4.3310546875c.4970703125,.0634765625,.8798828125,.115234375,1.47265625,.115234375,.5234375,0,1.0458984375-.064453125,1.416015625-.134765625l.2490234375,.498046875c-.50390625,.3056640625-.982421875,.6435546875-1.4609375,1.0009765625l-.3125-.287109375c.1728515625-.1083984375,.912109375-.625,1.05859375-.7265625-.1845703125,.0439453125-.4140625,.1015625-.8798828125,.1015625-.4970703125,0-.9951171875,0-1.4736328125-.1015625l-.0693359375-.4658203125Zm3.673828125,.5615234375c-.08984375-.1787109375-.2685546875-.50390625-.5361328125-.74609375l.287109375-.2490234375c.216796875,.2099609375,.43359375,.5166015625,.548828125,.7138671875l-.2998046875,.28125Zm.43359375-.548828125c-.1337890625-.236328125-.3251953125-.4970703125-.568359375-.7138671875l.28125-.2490234375c.2099609375,.1845703125,.458984375,.4912109375,.580078125,.6826171875l-.29296875,.2802734375Z"/><path class="cls-1" d="M94.7027752291,148.3643975092c-.3056640625,.0703125-.625,.0830078125-.9375,.0830078125-.3447265625,0-1.849609375-.0322265625-1.849609375-1.2822265625,0-.765625,.650390625-1.275390625,1.486328125-1.275390625,.478515625,0,.892578125,.166015625,1.255859375,.318359375-.34375-.4462890625-.5478515625-.751953125-.91796875-1.4150390625-.931640625,.3310546875-1.4794921875,.3818359375-1.84375,.4140625l-.2607421875-.478515625c.962890625-.0439453125,1.3515625-.12109375,1.92578125-.2802734375-.287109375-.6318359375-.4208984375-.9951171875-.50390625-1.19921875l.5869140625-.01953125c.0888671875,.478515625,.236328125,.81640625,.3447265625,1.0654296875,.5673828125-.2548828125,.8544921875-.4716796875,1.033203125-.599609375l.248046875,.43359375c-.4970703125,.2685546875-.873046875,.4208984375-1.0966796875,.5166015625,.1591796875,.287109375,.3955078125,.720703125,.8994140625,1.359375,.05078125,.0693359375,.3125,.369140625,.36328125,.43359375l-.3828125,.4462890625c-.560546875-.3251953125-1.078125-.5810546875-1.658203125-.5810546875-.861328125,0-1.0009765625,.5615234375-1.0009765625,.8232421875,0,.74609375,.65625,.88671875,1.3583984375,.88671875,.36328125,0,.50390625-.0380859375,.91796875-.166015625l.0322265625,.5166015625Zm.43359375-5.548828125c.1787109375,.1845703125,.40234375,.4716796875,.548828125,.701171875l-.3125,.2294921875c-.185546875-.2861328125-.40234375-.5419921875-.5673828125-.6943359375l.3310546875-.236328125Zm.74609375-.1982421875c.2041015625,.2431640625,.3955078125,.5302734375,.50390625,.7333984375l-.318359375,.2109375c-.115234375-.2236328125-.3505859375-.5546875-.5166015625-.7587890625l.3310546875-.185546875Z"/><path class="cls-1" d="M97.9488689791,144.2501396967c-.0322265625,.1728515625-.1083984375,.54296875-.1083984375,1.0849609375,0,1.5556640625,.580078125,2.1494140625,.796875,2.1494140625,.23046875,0,.4599609375-.8037109375,.5556640625-1.1484375l.3818359375,.3505859375c-.146484375,.4150390625-.46484375,1.314453125-.9501953125,1.314453125-.5673828125,0-.9560546875-.9697265625-.9814453125-1.0400390625-.255859375-.630859375-.28125-1.4736328125-.28125-1.9638671875,0-.4404296875,.025390625-.740234375,.0380859375-.9189453125l.548828125,.171875Zm3.3232421875-.15234375c.751953125,.8544921875,1.0205078125,2.015625,1.12890625,2.5380859375l-.498046875,.166015625c-.2353515625-1.3779296875-.681640625-2.0478515625-1.064453125-2.5576171875l.43359375-.146484375Z"/><path class="cls-1" d="M107.4586346041,145.5265068842c-.4912109375,.126953125-1.1611328125,.1845703125-1.4921875,.216796875,.0126953125,.2099609375,.044921875,.599609375,.0830078125,1.0908203125,.4970703125,.1142578125,.88671875,.2294921875,1.5751953125,.5986328125l-.1982421875,.4658203125c-.337890625-.248046875-.65625-.43359375-1.345703125-.6435546875,0,.4267578125-.0126953125,1.0078125-.943359375,1.0078125-.9765625,0-1.365234375-.427734375-1.365234375-.7978515625,0-.4970703125,.5869140625-.7138671875,1.2568359375-.7138671875,.12109375,0,.2802734375,.005859375,.60546875,.0380859375-.0185546875-.1591796875-.1015625-.8740234375-.12109375-1.0146484375-.1083984375,.0068359375-.2421875,.0126953125-.529296875,.0126953125-.453125,0-1.078125-.03125-1.078125-.3564453125,0-.236328125,.287109375-.447265625,.5810546875-.650390625l.2607421875,.2099609375c-.056640625,.0576171875-.0693359375,.0634765625-.2099609375,.166015625-.0634765625,.044921875-.08984375,.0634765625-.08984375,.1083984375,0,.1083984375,.1982421875,.146484375,.740234375,.146484375,.05078125,0,.267578125-.005859375,.3125,0-.0322265625-.29296875-.0322265625-.36328125-.0703125-.9501953125-.287109375,.01953125-1.58203125,.12109375-1.8427734375,.1337890625l-.0517578125-.4658203125c.2998046875,.0068359375,.81640625,.01953125,1.8818359375-.03125-.005859375-.1337890625-.0126953125-.255859375-.0126953125-.453125,0-.3125,.0126953125-.43359375,.025390625-.5615234375l.5810546875,.146484375c-.0830078125,.216796875-.1025390625,.5556640625-.115234375,.8486328125,.337890625-.01953125,1.033203125-.0634765625,1.7607421875-.0634765625v.43359375c-.1787109375-.01953125-.3125-.0380859375-.669921875-.0380859375-.427734375,0-.861328125,.025390625-1.103515625,.0380859375,0,.12109375,.025390625,.6630859375,.044921875,.9248046875,.5546875-.05078125,.8603515625-.1279296875,1.517578125-.3447265625l.0126953125,.498046875Zm-2.4423828125,1.5625c-.43359375,0-.7978515625,.140625-.7978515625,.3701171875,0,.318359375,.5810546875,.388671875,.8935546875,.388671875,.5224609375,0,.560546875-.267578125,.5546875-.6953125-.306640625-.044921875-.478515625-.0634765625-.650390625-.0634765625Z"/><path class="cls-1" d="M111.9937908541,143.0645928217c-.0322265625,.2548828125-.05078125,.4775390625-.05078125,.9306640625,.6884765625-.044921875,1.3583984375-.0888671875,1.8935546875-.166015625l.0517578125,.529296875c-.8740234375,.0068359375-1.537109375,.044921875-1.9453125,.0703125-.0068359375,.166015625,0,.912109375,0,1.0654296875,.1337890625,.2421875,.177734375,.6630859375,.177734375,.8740234375,0,.5869140625-.2802734375,1.1923828125-.53515625,1.58203125-.166015625,.2548828125-.28125,.369140625-.478515625,.560546875l-.4970703125-.2099609375c.2041015625-.166015625,.630859375-.5234375,.8984375-1.19921875-.216796875,.1337890625-.4521484375,.1337890625-.458984375,.1337890625-.4013671875,0-.7841796875-.388671875-.7841796875-1.0712890625,0-.8232421875,.53515625-1.1865234375,.9248046875-1.1865234375,.1337890625,0,.216796875,.025390625,.287109375,.05078125v-.5673828125c-.6826171875,.044921875-1.7412109375,.12109375-2.513671875,.216796875l-.03125-.4658203125c.701171875-.0380859375,1.82421875-.12109375,2.525390625-.166015625,0-.60546875,0-.8291015625-.03125-1.0771484375l.5673828125,.095703125Zm-1.314453125,3.099609375c0,.4462890625,.26171875,.625,.453125,.625,.26171875,0,.458984375-.2939453125,.458984375-.7080078125,0-.2109375-.056640625-.6376953125-.4013671875-.6376953125-.2421875,0-.5107421875,.2744140625-.5107421875,.720703125Z"/><path class="cls-1" d="M117.0377361666,147.6114678217c0,.5361328125-.439453125,.9765625-.982421875,.9765625-.5419921875,0-.9814453125-.4404296875-.9814453125-.9765625,0-.5478515625,.4462890625-.9814453125,.9814453125-.9814453125,.5361328125,0,.982421875,.43359375,.982421875,.9814453125Zm-1.6962890625,0c0,.3896484375,.3193359375,.71484375,.7138671875,.71484375,.3955078125,0,.71484375-.3251953125,.71484375-.71484375,0-.4013671875-.3251953125-.7138671875-.71484375-.7138671875-.388671875,0-.7138671875,.3125-.7138671875,.7138671875Z"/></g><g><path class="cls-3" d="M40.5826580416,57.1602959467c0-.62890625,.654296875-1.4794921875,1.615234375-1.9208984375-.0087890625-.3828125-.0263671875-.7822265625-.0263671875-1.15625-.5439453125,.05078125-1.0703125,.0771484375-1.5126953125,.09375l-.1015625-.9521484375c.4677734375-.0078125,1.0283203125-.0419921875,1.59765625-.0849609375,0-.3994140625,0-.8671875,.0087890625-1.326171875l1.1298828125,.04296875c-.0166015625,.3486328125-.0341796875,.7646484375-.0419921875,1.1728515625,.4755859375-.0595703125,.92578125-.1279296875,1.2998046875-.2041015625l.119140625,.9521484375c-.4248046875,.068359375-.91796875,.1357421875-1.427734375,.1953125v.314453125c0,.1875,0,.408203125,.0087890625,.654296875,.5439453125-.15234375,1.1298828125-.2373046875,1.6572265625-.2373046875,1.359375,0,2.1669921875,.7392578125,2.1669921875,1.8271484375,0,1.232421875-.798828125,1.9970703125-2.0654296875,1.9970703125-.3310546875,0-.6796875-.05078125-.92578125-.14453125l-.162109375-1.044921875c.306640625,.126953125,.646484375,.203125,.9609375,.203125,.7216796875,0,1.138671875-.416015625,1.138671875-1.0029296875,0-.5263671875-.4169921875-.9169921875-1.2919921875-.9169921875-.458984375,0-.96875,.0927734375-1.4619140625,.2626953125,.017578125,.5185546875,.0341796875,1.0458984375,.05078125,1.4453125,.0087890625,.24609375,.0087890625,.408203125,.0087890625,.603515625,0,.560546875-.4248046875,.8076171875-.986328125,.8076171875-.951171875,0-1.7587890625-.6806640625-1.7587890625-1.5810546875Zm1.50390625,.560546875c.1962890625,0,.263671875-.14453125,.263671875-.3818359375,0-.1962890625-.0087890625-.400390625-.0166015625-.6806640625-.0087890625-.15234375-.0087890625-.296875-.0087890625-.43359375-.44140625,.255859375-.748046875,.6552734375-.748046875,.9267578125,0,.33984375,.2724609375,.5693359375,.509765625,.5693359375Zm2.916015625-4.615234375l.517578125-.82421875c.72265625,.314453125,1.2666015625,.671875,1.8701171875,1.2578125l-.611328125,.8505859375c-.6298828125-.62109375-1.1142578125-.9609375-1.7763671875-1.2841796875Z"/><path class="cls-3" d="M52.5123455416,57.2110771967h-1.666015625v.6123046875h-.9345703125v-5.0322265625h2.6005859375v-1.232421875h1.0029296875v1.232421875h2.6513671875v4.98046875h-.9345703125v-.560546875h-1.716796875v1.9970703125h-1.0029296875v-1.9970703125Zm.0419921875-2.634765625v-1.0029296875h-1.7080078125v1.0029296875h1.7080078125Zm0,1.8525390625v-1.087890625h-1.7080078125v1.087890625h1.7080078125Zm2.677734375-1.8525390625v-1.0029296875h-1.759765625v1.0029296875h1.759765625Zm0,1.8525390625v-1.087890625h-1.759765625v1.087890625h1.759765625Z"/><path class="cls-3" d="M58.3307049166,58.1886162592c.3994140625-.2294921875,.798828125-.509765625,1.2314453125-.8759765625v-1.6826171875h-1.12109375v-.900390625h2.0390625v2.5830078125c.5615234375,.646484375,1.19921875,.81640625,3.0263671875,.81640625,.7900390625,0,1.5888671875-.0341796875,2.634765625-.1103515625-.1533203125,.3310546875-.2470703125,.62890625-.306640625,.9853515625-1.0537109375,.0517578125-1.5126953125,.068359375-2.208984375,.068359375-1.2841796875,0-2.0146484375-.0849609375-2.5498046875-.2978515625-.3916015625-.15234375-.765625-.458984375-1.0029296875-.806640625-.5107421875,.611328125-.8583984375,.9765625-1.1982421875,1.2578125l-.5439453125-1.037109375Zm.296875-5.7373046875l.7060546875-.5859375c.509765625,.4248046875,.951171875,.8837890625,1.3251953125,1.376953125l-.755859375,.6455078125c-.3916015625-.5439453125-.8505859375-1.0625-1.275390625-1.4365234375Zm2.125,4.4541015625c1.30859375-.841796875,1.9033203125-2.005859375,2.0732421875-4.0625h-1.5546875v-.9013671875h2.5244140625v.43359375c-.0087890625,2.0146484375,.748046875,3.52734375,2.208984375,4.419921875l-.662109375,.92578125c-1.080078125-.8076171875-1.6748046875-1.6826171875-2.03125-2.9658203125-.3232421875,1.359375-.884765625,2.251953125-1.9130859375,2.9912109375l-.6455078125-.8408203125Z"/><path class="cls-3" d="M69.7838299166,57.6192803217l.578125-.4169921875h-2.830078125v-.78125h.798828125v-3.060546875h-.6796875v-.7646484375h.6796875v-.9521484375h.798828125v.9521484375h1.0712890625v-.9521484375h.798828125v.9521484375h.6455078125v.7646484375h-.6455078125v3.060546875h.7646484375v.78125h-1.2666015625c.306640625,.2294921875,.6123046875,.5439453125,.8505859375,.8837890625l-.6630859375,.6806640625c-.263671875-.4677734375-.5947265625-.8837890625-.9013671875-1.1474609375Zm-2.18359375,.9775390625c.466796875-.3486328125,.875-.8330078125,1.138671875-1.369140625l.748046875,.4169921875c-.3740234375,.7392578125-.7734375,1.2666015625-1.2158203125,1.623046875l-.6708984375-.6708984375Zm2.6005859375-4.6748046875v-.5615234375h-1.0712890625v.5615234375h1.0712890625Zm0,1.2236328125v-.560546875h-1.0712890625v.560546875h1.0712890625Zm0,1.275390625v-.6123046875h-1.0712890625v.6123046875h1.0712890625Zm1.01953125,2.1328125c.501953125-.5859375,.72265625-1.376953125,.72265625-2.6259765625v-4.0029296875h2.94921875v6.3740234375c0,.578125-.2470703125,.8076171875-.8583984375,.8076171875-.3232421875,0-.7060546875-.017578125-.9775390625-.04296875l-.169921875-.951171875c.2802734375,.033203125,.6201171875,.05859375,.82421875,.05859375,.24609375,0,.3486328125-.0849609375,.3486328125-.2802734375v-1.359375h-1.30078125c-.0673828125,1.20703125-.314453125,2.03125-.8154296875,2.7705078125l-.72265625-.748046875Zm2.8388671875-4.7421875v-1.037109375h-1.283203125v1.037109375h1.283203125Zm0,1.9033203125v-1.087890625h-1.283203125v1.087890625h1.283203125Z"/><path class="cls-3" d="M76.9967205416,51.8653740717h2.294921875l.4931640625,.4501953125c-.1875,.7138671875-.4423828125,1.4619140625-.7568359375,2.1845703125,.484375,.6201171875,.7314453125,1.2744140625,.7314453125,1.9541015625,0,.81640625-.2724609375,1.15625-.91796875,1.15625-.2294921875,0-.52734375-.025390625-.7314453125-.0595703125l-.1611328125-.8671875c.1787109375,.04296875,.416015625,.068359375,.6201171875,.068359375,.2470703125,0,.3232421875-.1015625,.3232421875-.416015625,0-.5703125-.2802734375-1.2412109375-.7392578125-1.7939453125,.263671875-.6201171875,.466796875-1.232421875,.5859375-1.810546875h-.875v6.4765625h-.8671875v-7.3427734375Zm2.244140625,6.390625c.2373046875-.033203125,.5947265625-.0927734375,.8076171875-.1357421875v-6.1953125h3.7138671875v3.654296875h-1.3857421875c.04296875,.3232421875,.162109375,.671875,.33203125,.9775390625,.3310546875-.23828125,.662109375-.5439453125,1.0107421875-.9345703125l.671875,.6455078125c-.3828125,.33984375-.798828125,.6455078125-1.2578125,.9345703125,.3232421875,.3916015625,.798828125,.7568359375,1.3681640625,1.0458984375l-.603515625,.892578125c-1.3427734375-.8671875-2.107421875-2.0146484375-2.3798828125-3.5615234375h-.5859375v2.345703125c.3564453125-.0849609375,.7138671875-.1865234375,1.2236328125-.3310546875l.09375,.8330078125c-.9013671875,.3310546875-1.904296875,.6201171875-2.7119140625,.7900390625l-.296875-.9609375Zm3.654296875-4.861328125v-.7216796875h-1.962890625v.7216796875h1.962890625Zm0,1.4365234375v-.755859375h-1.962890625v.755859375h1.962890625Z"/></g><g><path class="cls-5" d="M32.5816814791,73.9171318842h-5.859375v-2.0703125h8.6376953125v1.46875c-2.4423828125,3.8935546875-3.982421875,7.380859375-5.2041015625,11.3984375h-2.6015625c1.2041015625-3.681640625,3.02734375-7.5224609375,5.02734375-10.796875Z"/><path class="cls-5" d="M43.2779705416,71.8770928217h1.4365234375l-4.498046875,12.9580078125h-1.4365234375l4.498046875-12.9580078125Z"/><path class="cls-5" d="M51.4459392916,74.1827568842l-2.63671875,.4072265625-.0712890625-2.1591796875,5.2041015625-.7080078125-.017578125,1.451171875v11.5400390625h-2.478515625v-10.53125Z"/><path class="cls-5" d="M64.2623455416,73.9171318842h-5.859375v-2.0703125h8.6376953125v1.46875c-2.4423828125,3.8935546875-3.982421875,7.380859375-5.203125,11.3984375h-2.6025390625c1.2041015625-3.681640625,3.0263671875-7.5224609375,5.02734375-10.796875Z"/><path class="cls-5" d="M71.6715252291,78.1085381342c0-2.4638671875,.7607421875-4.7763671875,2.236328125-6.890625h2.0390625c-1.537109375,2.083984375-2.3427734375,4.396484375-2.3427734375,6.8603515625,0,2.46484375,.8056640625,4.837890625,2.3427734375,6.845703125h-2.0390625c-1.4755859375-1.9921875-2.236328125-4.3505859375-2.236328125-6.8154296875Z"/><path class="cls-5" d="M78.7525799166,83.6163506342c1.4306640625-1.29296875,1.962890625-2.75390625,1.962890625-5.431640625v-6.267578125h8.9912109375v11.197265625c0,1.1708984375-.3955078125,1.5517578125-1.658203125,1.5517578125-.791015625,0-1.7802734375-.03125-2.9208984375-.1064453125l-.3349609375-1.826171875c.943359375,.1220703125,1.734375,.16796875,2.5859375,.16796875,.45703125,0,.5634765625-.1064453125,.5634765625-.533203125v-2.14453125h-5.552734375c-.1826171875,2.1298828125-.74609375,3.4072265625-2.1298828125,4.76171875l-1.5068359375-1.369140625Zm9.189453125-4.9140625v-1.9013671875h-5.4462890625v1.1103515625c0,.3349609375,0,.501953125-.015625,.791015625h5.4619140625Zm0-3.4228515625v-1.810546875h-5.4462890625v1.810546875h5.4462890625Z"/><path class="cls-5" d="M96.4078533541,78.0782646967c0-2.4638671875-.806640625-4.7763671875-2.3427734375-6.8603515625h2.0380859375c1.4755859375,2.1142578125,2.236328125,4.4267578125,2.236328125,6.890625,0,2.46484375-.7607421875,4.8232421875-2.236328125,6.8154296875h-2.0380859375c1.5361328125-2.0078125,2.3427734375-4.380859375,2.3427734375-6.845703125Z"/></g><g><path class="cls-2" d="M27.8697674166,31.4181084467c1.046875-.15234375,1.9560546875-.46875,2.58984375-.896484375-.7578125-.31640625-1.267578125-.509765625-2.06640625-.78515625,.275390625-.4404296875,.4267578125-.7021484375,.798828125-1.4052734375h-1.54296875v-1.240234375h2.0810546875c.1376953125-.3583984375,.2060546875-.564453125,.34375-.9921875l.220703125,.0693359375v-1.556640625c-.6064453125,.83984375-1.28125,1.4736328125-2.01171875,1.873046875l-.826171875-1.046875c.9091796875-.3857421875,1.59765625-.8681640625,2.2041015625-1.529296875h-1.8603515625v-1.240234375h2.494140625v-2.6318359375h1.3779296875v2.6318359375h2.4248046875v1.240234375h-2.2314453125c.6748046875,.31640625,1.1298828125,.5791015625,1.845703125,1.046875l-.7578125,1.01953125c-.3857421875-.3720703125-.8125-.7294921875-1.28125-1.060546875v1.322265625h-1.1708984375l.8125,.2626953125-.2060546875,.591796875h3.11328125l-.8125-1.1845703125c.8818359375-1.4189453125,1.3916015625-3.1826171875,1.6806640625-5.8701171875l1.447265625,.26171875c-.1376953125,.8818359375-.220703125,1.3505859375-.3720703125,2.0673828125h3.8857421875v1.4326171875h-.9921875c-.166015625,1.75-.5791015625,3.3896484375-1.185546875,4.7265625,.6201171875,.826171875,1.515625,1.6806640625,2.5908203125,2.4658203125l-.9375,1.3369140625c-.826171875-.6611328125-1.7490234375-1.6123046875-2.4111328125-2.453125-.771484375,1.1162109375-1.791015625,2.0400390625-2.8515625,2.6318359375l-.951171875-1.2265625c1.212890625-.564453125,2.232421875-1.4873046875,2.94921875-2.6455078125-.44140625-.7158203125-.91015625-1.6943359375-1.25390625-2.6865234375-.1796875,.3994140625-.427734375,.8408203125-.703125,1.25390625v1.1298828125h-1.033203125c-.1376953125,.5791015625-.3720703125,1.1572265625-.716796875,1.75,.46875,.220703125,.78515625,.3720703125,1.046875,.509765625l-.8671875,1.19921875c-.427734375-.2900390625-.6064453125-.38671875-1.005859375-.6201171875-.7998046875,.7158203125-1.75,1.1708984375-3.00390625,1.4326171875l-.8544921875-1.1845703125Zm.1513671875-10.58203125l1.25390625-.427734375c.2890625,.49609375,.5234375,1.046875,.703125,1.6669921875l-1.240234375,.427734375c-.1513671875-.5517578125-.427734375-1.19921875-.716796875-1.6669921875Zm3.9267578125,7.4951171875h-1.349609375c-.0693359375,.1513671875-.193359375,.3994140625-.427734375,.8408203125,.193359375,.0546875,.73046875,.248046875,1.185546875,.4130859375,.2333984375-.3583984375,.4541015625-.8125,.591796875-1.25390625Zm-.0546875-6.2412109375c.2890625-.5517578125,.509765625-1.1162109375,.7021484375-1.7783203125l1.2958984375,.3447265625c-.20703125,.6064453125-.49609375,1.2265625-.8544921875,1.8046875l-1.1435546875-.37109375Zm5.7734375,1.7080078125h-1.8603515625l-.041015625,.1650390625c.248046875,1.0341796875,.6884765625,2.1494140625,1.2119140625,3.1279296875,.3037109375-.9091796875,.537109375-1.998046875,.689453125-3.29296875Z"/><path class="cls-2" d="M43.6754314791,31.1417412592h5.4296875v-.509765625h-4.271484375v-.9638671875h4.271484375v-.509765625h-3.9140625v-3.3486328125h9.3701171875v3.3486328125h-3.99609375v.509765625h4.3408203125v.9638671875h-4.3408203125v.509765625h5.51171875v1.0478515625h-12.4013671875v-1.0478515625Zm.0693359375-6.84765625h12.2626953125v1.046875h-12.2626953125v-1.046875Zm1.6943359375-4.0234375h8.818359375v3.541015625h-8.818359375v-3.541015625Zm3.666015625,6.84765625v-.564453125h-2.453125v.564453125h2.453125Zm0,1.2958984375v-.5791015625h-2.453125v.5791015625h2.453125Zm3.609375-6.751953125v-.509765625h-5.7314453125v.509765625h5.7314453125Zm0,1.3232421875v-.5517578125h-5.7314453125v.5517578125h5.7314453125Zm.3857421875,4.1328125v-.564453125h-2.53515625v.564453125h2.53515625Zm0,1.2958984375v-.5791015625h-2.53515625v.5791015625h2.53515625Z"/><path class="cls-2" d="M60.0328533541,20.5323662592h3.720703125l.798828125,.73046875c-.302734375,1.1572265625-.7158203125,2.3701171875-1.2255859375,3.541015625,.78515625,1.005859375,1.1845703125,2.06640625,1.1845703125,3.1689453125,0,1.3232421875-.44140625,1.8740234375-1.48828125,1.8740234375-.3720703125,0-.8544921875-.041015625-1.1845703125-.0966796875l-.26171875-1.4052734375c.2890625,.0693359375,.6748046875,.1103515625,1.005859375,.1103515625,.3994140625,0,.5234375-.1650390625,.5234375-.6748046875,0-.923828125-.455078125-2.01171875-1.19921875-2.9072265625,.427734375-1.005859375,.7578125-1.998046875,.951171875-2.935546875h-1.4189453125v10.5h-1.40625v-11.9052734375Zm3.6376953125,10.361328125c.3857421875-.0546875,.96484375-.1513671875,1.3095703125-.2197265625v-10.044921875h6.0205078125v5.9248046875h-2.2451171875c.068359375,.5234375,.26171875,1.0888671875,.537109375,1.5849609375,.537109375-.38671875,1.07421875-.8818359375,1.6396484375-1.515625l1.0888671875,1.046875c-.6201171875,.55078125-1.2958984375,1.046875-2.0400390625,1.515625,.5244140625,.6337890625,1.2958984375,1.2265625,2.21875,1.6943359375l-.978515625,1.447265625c-2.1767578125-1.4052734375-3.4169921875-3.265625-3.857421875-5.7734375h-.951171875v3.802734375c.5791015625-.1376953125,1.1572265625-.302734375,1.984375-.537109375l.1513671875,1.3505859375c-1.4609375,.537109375-3.0859375,1.005859375-4.3955078125,1.28125l-.482421875-1.5576171875Zm5.9248046875-7.880859375v-1.1708984375h-3.1826171875v1.1708984375h3.1826171875Zm0,2.328125v-1.2255859375h-3.1826171875v1.2255859375h3.1826171875Z"/><path class="cls-2" d="M75.7008221041,31.2520928217c1.267578125-1.1572265625,2.1357421875-2.837890625,2.521484375-4.86328125l1.529296875,.3720703125c-.20703125,.7431640625-.3720703125,1.322265625-.49609375,1.6669921875,.44140625,.578125,1.046875,1.07421875,1.75,1.4189453125v-4.3955078125h-2.755859375v-1.294921875h7.1923828125v1.294921875h-2.837890625v1.681640625h4.05078125v1.294921875h-4.05078125v1.8740234375c.9365234375,.1240234375,1.9287109375,.1923828125,3.072265625,.1923828125,.744140625,0,1.4189453125-.02734375,2.314453125-.08203125-.275390625,.6474609375-.3994140625,1.005859375-.5234375,1.625-.78515625,.0283203125-1.1162109375,.0283203125-1.556640625,.0283203125-4.009765625,0-5.8974609375-.6064453125-7.2060546875-2.3017578125-.5234375,1.1298828125-1.1298828125,1.998046875-1.9013671875,2.728515625l-1.1025390625-1.240234375Zm.49609375-9.64453125h4.794921875v-1.5712890625h1.6259765625v1.5712890625h4.8779296875v3.1826171875h-1.5712890625v-1.8876953125h-8.1572265625v1.8876953125h-1.5703125v-3.1826171875Z"/><path class="cls-2" d="M92.2047283541,30.4679131342c0-.6884765625,.5029296875-1.27734375,1.27734375-1.27734375,.7451171875,0,1.2763671875,.5888671875,1.2763671875,1.27734375,0,.7021484375-.53125,1.2900390625-1.2763671875,1.2900390625-.7744140625,0-1.27734375-.587890625-1.27734375-1.2900390625Zm.287109375-9.2236328125h1.96484375l-.12890625,6.95703125h-1.70703125l-.12890625-6.95703125Z"/></g></g></g></svg>