<svg width="126" height="134" viewBox="0 0 126 134" fill="none" xmlns="http://www.w3.org/2000/svg">
<g filter="url(#filter0_d_1302_123)">
<path d="M62.5322 125.064C97.0678 125.064 125.064 97.0678 125.064 62.5322C125.064 27.9966 97.0678 0 62.5322 0C27.9966 0 0 27.9966 0 62.5322C0 97.0678 27.9966 125.064 62.5322 125.064Z" fill="#E2BC8F"/>
<path d="M108.756 -0.161133H16.3081V41.3011H59.7166L62.5327 46.1776L65.3481 41.3011H87.0522H108.756V-0.161133Z" fill="#C67A2C"/>
<path d="M40.5825 57.1602C40.5825 56.5312 41.2368 55.6807 42.1978 55.2393C42.189 54.8564 42.1714 54.457 42.1714 54.083C41.6274 54.1338 41.1011 54.1602 40.6587 54.1768L40.5571 53.2246C41.0249 53.2168 41.5854 53.1826 42.1548 53.1396C42.1548 52.7402 42.1548 52.2725 42.1636 51.8135L43.2935 51.8564C43.2769 52.2051 43.2593 52.6211 43.2515 53.0293C43.7271 52.9697 44.1772 52.9014 44.5513 52.8252L44.6704 53.7773C44.2456 53.8457 43.7524 53.9131 43.2427 53.9727V54.2871C43.2427 54.4746 43.2427 54.6953 43.2515 54.9414C43.7954 54.7891 44.3813 54.7041 44.9087 54.7041C46.2681 54.7041 47.0757 55.4434 47.0757 56.5312C47.0757 57.7637 46.2769 58.5283 45.0103 58.5283C44.6792 58.5283 44.3306 58.4775 44.0845 58.3838L43.9224 57.3389C44.229 57.4658 44.5688 57.542 44.8833 57.542C45.605 57.542 46.022 57.126 46.022 56.5391C46.022 56.0127 45.605 55.6221 44.73 55.6221C44.271 55.6221 43.7612 55.7148 43.2681 55.8848C43.2856 56.4033 43.3022 56.9307 43.3188 57.3301C43.3276 57.5762 43.3276 57.7383 43.3276 57.9336C43.3276 58.4941 42.9028 58.7412 42.3413 58.7412C41.3901 58.7412 40.5825 58.0605 40.5825 57.1602ZM42.0864 57.7207C42.2827 57.7207 42.3501 57.5762 42.3501 57.3389C42.3501 57.1426 42.3413 56.9385 42.3335 56.6582C42.3247 56.5059 42.3247 56.3613 42.3247 56.2246C41.8833 56.4805 41.5767 56.8799 41.5767 57.1514C41.5767 57.4912 41.8491 57.7207 42.0864 57.7207ZM45.0024 53.1055L45.52 52.2812C46.2427 52.5957 46.7866 52.9531 47.3901 53.5391L46.7788 54.3896C46.1489 53.7686 45.6646 53.4287 45.0024 53.1055Z" fill="#C67A2C"/>
<path d="M52.5122 57.2109H50.8462V57.8232H49.9116V52.791H52.5122V51.5586H53.5151V52.791H56.1665V57.7715H55.2319V57.2109H53.5151V59.208H52.5122V57.2109ZM52.5542 54.5762V53.5732H50.8462V54.5762H52.5542ZM52.5542 56.4287V55.3408H50.8462V56.4287H52.5542ZM55.2319 54.5762V53.5732H53.4722V54.5762H55.2319ZM55.2319 56.4287V55.3408H53.4722V56.4287H55.2319Z" fill="#C67A2C"/>
<path d="M58.3306 58.1885C58.73 57.959 59.1294 57.6787 59.562 57.3125V55.6299H58.4409V54.7295H60.48V57.3125C61.0415 57.959 61.6792 58.1289 63.5063 58.1289C64.2964 58.1289 65.0952 58.0947 66.1411 58.0186C65.9878 58.3496 65.894 58.6475 65.8345 59.0039C64.7808 59.0557 64.3218 59.0723 63.6255 59.0723C62.3413 59.0723 61.6108 58.9873 61.0757 58.7744C60.6841 58.6221 60.3101 58.3154 60.0728 57.9678C59.562 58.5791 59.2144 58.9443 58.8745 59.2256L58.3306 58.1885ZM58.6274 52.4512L59.3335 51.8652C59.8433 52.29 60.2847 52.749 60.6587 53.2422L59.9028 53.8877C59.5112 53.3438 59.0522 52.8252 58.6274 52.4512ZM60.7524 56.9053C62.061 56.0635 62.6558 54.8994 62.8257 52.8428H61.271V51.9414H63.7954V52.375C63.7866 54.3896 64.5435 55.9023 66.0044 56.7949L65.3423 57.7207C64.2622 56.9131 63.6675 56.0381 63.311 54.7549C62.9878 56.1143 62.4263 57.0068 61.3979 57.7461L60.7524 56.9053Z" fill="#C67A2C"/>
<path d="M69.7837 57.6191L70.3618 57.2021H67.5317V56.4209H68.3306V53.3604H67.6509V52.5957H68.3306V51.6436H69.1294V52.5957H70.2007V51.6436H70.9995V52.5957H71.645V53.3604H70.9995V56.4209H71.7642V57.2021H70.4976C70.8042 57.4316 71.1099 57.7461 71.3481 58.0859L70.6851 58.7666C70.4214 58.2988 70.0903 57.8828 69.7837 57.6191ZM67.6001 58.5967C68.0669 58.248 68.4751 57.7637 68.7388 57.2275L69.4868 57.6445C69.1128 58.3838 68.7134 58.9111 68.271 59.2676L67.6001 58.5967ZM70.2007 53.9219V53.3604H69.1294V53.9219H70.2007ZM70.2007 55.1455V54.585H69.1294V55.1455H70.2007ZM70.2007 56.4209V55.8086H69.1294V56.4209H70.2007ZM71.2202 58.5537C71.7222 57.9678 71.9429 57.1768 71.9429 55.9277V51.9248H74.8921V58.2988C74.8921 58.877 74.645 59.1064 74.0337 59.1064C73.7104 59.1064 73.3276 59.0889 73.0562 59.0635L72.8862 58.1123C73.1665 58.1455 73.5063 58.1709 73.7104 58.1709C73.9565 58.1709 74.0591 58.0859 74.0591 57.8906V56.5312H72.7583C72.6909 57.7383 72.4438 58.5625 71.9429 59.3018L71.2202 58.5537ZM74.0591 53.8115V52.7744H72.7759V53.8115H74.0591ZM74.0591 55.7148V54.627H72.7759V55.7148H74.0591Z" fill="#C67A2C"/>
<path d="M76.9966 51.8652H79.2915L79.7847 52.3154C79.5972 53.0293 79.3423 53.7773 79.0278 54.5C79.5122 55.1201 79.7593 55.7744 79.7593 56.4541C79.7593 57.2705 79.4868 57.6104 78.8413 57.6104C78.6118 57.6104 78.314 57.585 78.1099 57.5508L77.9487 56.6836C78.1274 56.7266 78.3647 56.752 78.5688 56.752C78.8159 56.752 78.8921 56.6504 78.8921 56.3359C78.8921 55.7656 78.6118 55.0947 78.1528 54.542C78.4165 53.9219 78.6196 53.3096 78.7388 52.7314H77.8638V59.208H76.9966V51.8652ZM79.2407 58.2559C79.478 58.2227 79.8354 58.1631 80.0483 58.1201V51.9248H83.7622V55.5791H82.3765C82.4194 55.9023 82.5386 56.251 82.7085 56.5566C83.0396 56.3184 83.3706 56.0127 83.7192 55.6221L84.3911 56.2676C84.0083 56.6074 83.5923 56.9131 83.1333 57.2021C83.4565 57.5938 83.9321 57.959 84.5015 58.248L83.8979 59.1406C82.5552 58.2734 81.7905 57.126 81.5181 55.5791H80.9321V57.9248C81.2886 57.8398 81.646 57.7383 82.1558 57.5938L82.2495 58.4268C81.3481 58.7578 80.3452 59.0469 79.5376 59.2168L79.2407 58.2559ZM82.895 53.3945V52.6729H80.9321V53.3945H82.895ZM82.895 54.8311V54.0752H80.9321V54.8311H82.895Z" fill="#C67A2C"/>
<path d="M43.0701 69.2872H39V68H45V68.9132C43.3034 71.3339 42.2337 73.5021 41.3851 76H39.578C40.4144 73.711 41.6808 71.323 43.0701 69.2872Z" fill="#836951"/>
<path d="M50.0318 68H51L47.9682 76H47L50.0318 68Z" fill="#836951"/>
<path d="M55.5611 69.5148L54.0411 69.7656L54 68.436L57 68L56.9899 68.8936V76H55.5611V69.5148Z" fill="#836951"/>
<path d="M64.0701 69.2872H60V68H66V68.9132C64.3034 71.3339 63.2337 73.5021 62.3858 76H60.578C61.4144 73.711 62.6802 71.323 64.0701 69.2872Z" fill="#836951"/>
<path d="M69 71.5247C69 69.9068 69.3559 68.3883 70.0461 67H71C70.281 68.3684 69.9041 69.8869 69.9041 71.5048C69.9041 73.1233 70.281 74.6816 71 76H70.0461C69.3559 74.6918 69 73.1432 69 71.5247Z" fill="#836951"/>
<path d="M73 75.1619C73.9142 74.3703 74.2543 73.476 74.2543 71.8368V68H80V74.8546C80 75.5714 79.7473 75.8045 78.9404 75.8045C78.4349 75.8045 77.8027 75.7854 77.0738 75.7394L76.8598 74.6214C77.4626 74.6962 77.9681 74.7243 78.5123 74.7243C78.8043 74.7243 78.8723 74.6591 78.8723 74.3978V73.085H75.324C75.2073 74.3889 74.8472 75.1708 73.9629 76L73 75.1619ZM78.8723 72.1536V70.9897H75.392V71.6694C75.392 71.8745 75.392 71.9767 75.382 72.1536H78.8723ZM78.8723 70.0583V68.9499H75.392V70.0583H78.8723Z" fill="#836951"/>
<path d="M84.6443 71.5048C84.6443 69.8869 84.0781 68.3684 83 67H84.4304C85.4661 68.3883 86 69.9068 86 71.5247C86 73.1432 85.4661 74.6918 84.4304 76H83C84.0781 74.6816 84.6443 73.1233 84.6443 71.5048Z" fill="#836951"/>
<path d="M36 72H90" stroke="#FF0000" stroke-width="2"/>
<path d="M22.864 81.648C23.856 81.648 24.76 81.8 25.576 82.104C26.408 82.408 27.072 82.872 27.568 83.496C28.08 84.104 28.336 84.864 28.336 85.776C28.336 86.816 28.04 87.664 27.448 88.32C26.872 88.976 26.144 89.52 25.264 89.952C25.872 90.272 26.448 90.648 26.992 91.08C27.552 91.496 28 91.992 28.336 92.568C28.688 93.144 28.864 93.808 28.864 94.56C28.864 95.504 28.608 96.328 28.096 97.032C27.6 97.736 26.896 98.28 25.984 98.664C25.088 99.048 24.048 99.24 22.864 99.24C20.944 99.24 19.456 98.832 18.4 98.016C17.36 97.2 16.84 96.08 16.84 94.656C16.84 93.488 17.16 92.544 17.8 91.824C18.44 91.088 19.216 90.496 20.128 90.048C19.36 89.568 18.704 88.992 18.16 88.32C17.632 87.632 17.368 86.776 17.368 85.752C17.368 84.856 17.624 84.104 18.136 83.496C18.648 82.872 19.32 82.408 20.152 82.104C21 81.8 21.904 81.648 22.864 81.648ZM22.84 84.288C22.248 84.288 21.752 84.448 21.352 84.768C20.968 85.072 20.776 85.496 20.776 86.04C20.776 86.632 20.984 87.112 21.4 87.48C21.816 87.848 22.304 88.168 22.864 88.44C23.408 88.184 23.888 87.88 24.304 87.528C24.72 87.16 24.928 86.664 24.928 86.04C24.928 85.496 24.728 85.072 24.328 84.768C23.928 84.448 23.432 84.288 22.84 84.288ZM20.2 94.44C20.2 95.064 20.416 95.576 20.848 95.976C21.296 96.376 21.952 96.576 22.816 96.576C23.712 96.576 24.384 96.384 24.832 96C25.28 95.616 25.504 95.104 25.504 94.464C25.504 94.032 25.376 93.656 25.12 93.336C24.864 93 24.544 92.704 24.16 92.448C23.776 92.176 23.392 91.928 23.008 91.704L22.696 91.536C21.944 91.888 21.336 92.296 20.872 92.76C20.424 93.224 20.2 93.784 20.2 94.44ZM39.5264 81.864L33.1424 99H29.9024L36.2864 81.864H39.5264ZM49.5604 99H45.9364V89.088C45.9364 88.688 45.9444 88.152 45.9604 87.48C45.9764 86.792 46.0004 86.192 46.0324 85.68C45.9524 85.776 45.7764 85.952 45.5044 86.208C45.2484 86.448 45.0084 86.664 44.7844 86.856L42.8164 88.44L41.0644 86.256L46.5844 81.864H49.5604V99ZM65.6468 85.704C65.6468 86.888 65.2868 87.832 64.5668 88.536C63.8628 89.24 62.9908 89.72 61.9508 89.976V90.048C63.3108 90.224 64.3508 90.648 65.0708 91.32C65.7908 91.992 66.1508 92.888 66.1508 94.008C66.1508 95 65.9028 95.896 65.4068 96.696C64.9268 97.48 64.1748 98.104 63.1508 98.568C62.1428 99.016 60.8388 99.24 59.2388 99.24C57.3828 99.24 55.7348 98.928 54.2948 98.304V95.232C55.0308 95.6 55.7988 95.88 56.5988 96.072C57.3988 96.264 58.1508 96.36 58.8548 96.36C60.1508 96.36 61.0548 96.136 61.5668 95.688C62.0948 95.24 62.3588 94.608 62.3588 93.792C62.3588 93.328 62.2388 92.928 61.9988 92.592C61.7588 92.256 61.3348 92.008 60.7268 91.848C60.1348 91.672 59.3028 91.584 58.2308 91.584H56.9348V88.8H58.2548C59.3108 88.8 60.1108 88.704 60.6548 88.512C61.2148 88.304 61.5908 88.032 61.7828 87.696C61.9908 87.344 62.0948 86.944 62.0948 86.496C62.0948 85.888 61.9028 85.416 61.5188 85.08C61.1508 84.728 60.5268 84.552 59.6468 84.552C58.8308 84.552 58.1188 84.696 57.5108 84.984C56.9028 85.272 56.3988 85.544 55.9988 85.8L54.3188 83.304C54.9908 82.824 55.7748 82.424 56.6708 82.104C57.5828 81.784 58.6628 81.624 59.9108 81.624C61.6708 81.624 63.0628 81.984 64.0868 82.704C65.1268 83.408 65.6468 84.408 65.6468 85.704Z" fill="#836951"/>
<path d="M67.912 89.88C67.912 84.768 70.048 80.928 72.64 78.36L74.92 79.392C72.496 81.96 70.624 85.296 70.624 89.88C70.624 94.488 72.496 97.824 74.92 100.392L72.64 101.424C70.048 98.856 67.912 95.016 67.912 89.88ZM79.672 80.064H96.424V100.848H93.328V82.968H82.648V100.872H79.672V80.064ZM81.712 88.128H94.624V90.984H81.712V88.128ZM81.688 96.408H94.624V99.312H81.688V96.408ZM108.064 89.88C108.064 95.016 105.928 98.856 103.336 101.424L101.056 100.392C103.48 97.824 105.352 94.488 105.352 89.88C105.352 85.296 103.48 81.96 101.056 79.392L103.336 78.36C105.928 80.928 108.064 84.768 108.064 89.88Z" fill="#836951"/>
<path d="M23.3905 5.15435C24.4442 5.27002 25.7827 5.32785 27.2779 5.32785C28.6734 5.32785 30.3109 5.2411 31.4074 5.12543V7.04844C30.4106 7.1352 28.6449 7.22195 27.2921 7.22195C25.797 7.22195 24.5581 7.14965 23.3905 7.0629V5.15435ZM24.6008 11.2704C24.4584 11.7909 24.3588 12.2536 24.3588 12.7452C24.3588 13.6705 25.2131 14.3356 27.2779 14.3356C29.2002 14.3356 31.0087 14.1188 32.276 13.7718L32.2902 15.796C31.0514 16.0996 29.3426 16.2876 27.3348 16.2876C24.074 16.2876 22.4364 15.1742 22.4364 13.1934C22.4364 12.3548 22.6073 11.6463 22.7212 11.1113L24.6008 11.2704ZM31.7776 3.65064C32.1336 4.18562 32.632 5.11097 32.9025 5.64595L31.7634 6.13754C31.4643 5.54474 31.0229 4.67721 30.6384 4.12778L31.7776 3.65064ZM33.4579 3C33.8281 3.54943 34.355 4.46033 34.6113 4.96639L33.4721 5.47244C33.1873 4.86518 32.7174 4.02657 32.3329 3.47714L33.4579 3Z" fill="white"/>
<path d="M41.2897 3.95428H47.0709V5.55919H41.2897V3.95428ZM40.8055 8.98591H48.6658V10.6197H40.8055V8.98591ZM43.8101 7.29424H45.5331V14.8851C45.5331 15.7526 45.3622 16.2153 44.8068 16.49C44.2372 16.7502 43.4541 16.8081 42.4003 16.7936C42.3149 16.3165 42.0301 15.5646 41.8023 15.102C42.5285 15.1309 43.269 15.1453 43.511 15.1309C43.7389 15.1164 43.8101 15.0586 43.8101 14.8562V7.29424ZM46.4586 3.95428H46.8716L47.2276 3.86752L48.3383 4.72059C47.4981 5.9785 46.2878 7.51112 45.1771 8.4654C44.9492 8.16177 44.4793 7.68463 44.2088 7.45329C45.0489 6.62914 46.0314 5.19773 46.4586 4.3302V3.95428ZM35.3802 6.10863H39.9796V7.71354H35.3802V6.10863ZM37.2883 3.23134L38.8974 3.40485C38.3563 6.48455 37.5304 10.3595 36.8611 12.9621L35.4657 12.2102C36.078 9.92573 36.8469 6.10863 37.2883 3.23134ZM36.2061 11.9644L37.1459 10.7499C38.6268 11.6897 40.5065 13.0922 41.3324 14.1766L40.3071 15.5791C39.5097 14.4802 37.7013 12.9621 36.2061 11.9644ZM39.3958 6.10863H39.6663L39.9654 6.06525L40.9764 6.23875C40.6489 11.8777 39.2676 15.073 36.4482 16.8515C36.2204 16.4322 35.7647 15.8104 35.4229 15.4779C37.8437 14.1911 39.111 10.9957 39.3958 6.42672V6.10863Z" fill="white"/>
<path d="M60.9403 6.03633L62.5636 6.36888C62.2076 7.58342 61.8232 8.94254 61.4672 9.81006L60.1571 9.47751C60.4704 8.55215 60.7979 7.09182 60.9403 6.03633ZM55.515 6.45564L56.882 6.152C57.1953 7.22195 57.4658 8.59553 57.537 9.50643L56.0846 9.83898C56.0561 8.92808 55.7998 7.52558 55.515 6.45564ZM55.3726 3.95428H62.6348V5.55919H55.3726V3.95428ZM54.8885 10.2149H62.8911V11.8632H54.8885V10.2149ZM58.0354 4.51817H59.7157V16.7936H58.0354V4.51817ZM50.2036 7.67017H54.6037V8.97145H50.2036V7.67017ZM50.2464 3.67956H54.5752V4.9953H50.2464V3.67956ZM50.2036 9.63656H54.6037V10.9523H50.2036V9.63656ZM49.5059 5.63149H55.1163V7.00507H49.5059V5.63149ZM50.9868 11.6463H54.5894V16.0418H50.9868V14.6682H53.1228V13.0199H50.9868V11.6463ZM50.1609 11.6463H51.5991V16.6201H50.1609V11.6463Z" fill="white"/>
<path d="M69.6977 5.40015C71.4491 5.64595 74.297 5.57365 75.8207 5.38569V7.25087C74.0835 7.42437 71.4918 7.42437 69.7119 7.25087L69.6977 5.40015ZM70.8368 11.574C70.7229 12.0656 70.666 12.4126 70.666 12.7886C70.666 13.4392 71.2213 13.8296 72.6737 13.8296C73.9411 13.8296 74.9948 13.7139 76.2336 13.4392L76.2764 15.3911C75.3508 15.5791 74.1974 15.6803 72.5883 15.6803C70.1391 15.6803 68.9572 14.7839 68.9572 13.3091C68.9572 12.7307 69.0426 12.1668 69.2135 11.4294L70.8368 11.574ZM67.5048 4.43141C67.4051 4.73505 67.22 5.47244 67.163 5.7327C66.9637 6.68698 66.4653 9.57872 66.4653 11.0246C66.4653 11.3138 66.4795 11.6752 66.5222 11.9644C66.7358 11.4728 66.9637 10.9812 67.1772 10.4896L68.0601 11.1981C67.6472 12.4126 67.1772 13.9742 67.0349 14.7405C66.9921 14.9574 66.9494 15.2755 66.9494 15.42C66.9637 15.5791 66.9637 15.8249 66.9779 16.0273L65.3403 16.1285C65.0555 15.1453 64.785 13.3814 64.785 11.415C64.785 9.23171 65.2122 6.80264 65.3688 5.67487C65.4258 5.28448 65.497 4.73505 65.5112 4.27237L67.5048 4.43141Z" fill="white"/>
<path d="M78.3269 7.58342C78.8537 7.49666 79.5657 7.3087 80.0926 7.14965C81.1748 6.80264 84.0797 5.77608 86.1729 5.77608C88.736 5.77608 90.7723 7.27978 90.7723 9.95465C90.7723 13.2223 87.6965 15.3188 82.6842 15.5791L81.844 13.6561C85.703 13.5693 88.736 12.4415 88.736 9.91127C88.736 8.55215 87.8104 7.52558 86.1017 7.52558C83.9942 7.52558 80.6337 8.957 79.1385 9.6221L78.3269 7.58342Z" fill="white"/>
<path d="M94.1471 5.13989C96.226 5.38569 97.9633 5.41461 99.4727 5.29894C100.768 5.21219 101.936 4.98085 103.118 4.60492L103.346 6.25321C102.321 6.54239 101.082 6.78819 99.8429 6.87494C98.3762 6.99061 96.4112 7.00507 94.2467 6.78819L94.1471 5.13989ZM93.8907 8.16177C96.4539 8.42202 98.7607 8.37865 100.469 8.20514C102.007 8.07501 103.075 7.78584 103.901 7.54004L104.186 9.24617C103.332 9.46305 102.278 9.66547 101.124 9.7956C99.3303 9.99802 96.5535 10.0414 93.9904 9.8679L93.8907 8.16177ZM98.6468 5.54474C98.5044 5.00976 98.3335 4.47479 98.1341 3.9109L100.042 3.69402C100.213 5.08206 100.569 6.35443 100.939 7.46775C101.281 8.47986 101.979 9.96911 102.634 10.9812C102.833 11.2704 103.018 11.4873 103.275 11.7331L102.42 13.0633C101.623 12.8898 100.071 12.7163 99.0312 12.6006L99.1736 11.2126C99.7717 11.2704 100.555 11.3427 100.968 11.3861C100.213 10.0992 99.6863 8.84133 99.3303 7.78584C98.9743 6.75927 98.8319 6.23875 98.6468 5.54474ZM96.6247 11.5306C96.283 12.0078 95.984 12.4994 95.984 13.1211C95.984 14.1911 96.9807 14.6248 98.8746 14.6248C100.213 14.6248 101.423 14.5236 102.449 14.3212L102.349 16.1574C101.352 16.3165 100.042 16.4177 98.8746 16.4177C96.0409 16.4177 94.2752 15.5646 94.2325 13.5115C94.2183 12.5717 94.5173 11.8632 94.859 11.1836L96.6247 11.5306Z" fill="white"/>
<path d="M31.9069 20.1908H36.6707V22.2078H31.9069V20.1908ZM31.9069 24.4116H36.6707V26.3725H31.9069V24.4116ZM31.9069 28.6696H36.6891V30.668H31.9069V28.6696ZM35.7143 20.1908H37.8478V34.4218C37.8478 35.505 37.6455 36.1213 36.9834 36.4575C36.3396 36.8123 35.4016 36.8683 34.0221 36.8683C33.9669 36.2707 33.6727 35.2996 33.3968 34.7393C34.1877 34.7766 35.0889 34.7766 35.3464 34.758C35.6223 34.758 35.7143 34.6646 35.7143 34.3845V20.1908ZM31.0057 20.1908H33.0657V27.0448C33.0657 29.9956 32.8266 34.2724 31.2632 36.9244C30.8953 36.5322 29.9941 35.8785 29.5159 35.6544C30.8953 33.2639 31.0057 29.7155 31.0057 27.0448V20.1908ZM21.3679 21.5541H30.3803V23.4964H21.3679V21.5541ZM23.7773 24.5983H28.1548V26.3165H23.7773V24.5983ZM23.7773 27.5117H28.1732V29.2112H23.7773V27.5117ZM21.1471 30.4625H30.2516V32.4235H21.1471V30.4625ZM22.8209 19.5558H24.8073V31.1722H22.8209V19.5558ZM27.1064 19.5558H29.1296V31.1722H27.1064V19.5558ZM23.4462 32.5542L25.5246 33.1705C24.8441 34.5525 23.7589 36.0093 22.7841 36.9244C22.3611 36.5509 21.515 35.9159 21 35.6171C21.9932 34.8514 22.9312 33.6934 23.4462 32.5542ZM26.1684 33.3946L27.8421 32.4608C28.5778 33.2826 29.5159 34.4218 29.9389 35.1875L28.1548 36.252C27.787 35.505 26.9041 34.2724 26.1684 33.3946Z" fill="white"/>
<path d="M45.6648 30.7427H50.7044V32.3488H45.6648V30.7427ZM45.536 27.9786H51.7344V35.1502H45.536V33.5067H49.6744V29.6221H45.536V27.9786ZM44.6348 27.9786H46.6212V36.1026H44.6348V27.9786ZM41.5448 22.656H46.1614V24.1688H41.5448V22.656ZM50.079 22.656H54.7324V24.1688H50.079V22.656ZM53.8312 20.0601H56.0567V34.235C56.0567 35.449 55.8176 36.1026 55.0819 36.4762C54.3462 36.8497 53.2794 36.887 51.6976 36.887C51.6057 36.252 51.2746 35.2062 50.9803 34.6086C51.9367 34.6646 53.0587 34.6459 53.3898 34.6459C53.7208 34.6459 53.8312 34.5339 53.8312 34.2164V20.0601ZM41.7287 20.0601H47.5408V26.8394H41.7287V25.2333H45.4808V21.6849H41.7287V20.0601ZM55.0083 20.0601V21.6849H50.8883V25.2893H55.0083V26.8954H48.7915V20.0601H55.0083ZM40.4596 20.0601H42.6483V36.887H40.4596V20.0601Z" fill="white"/>
<path d="M64.1128 30.6866H75.0197V32.7223H64.1128V30.6866ZM69.8513 25.1959H74.5967V27.1569H69.8513V25.1959ZM68.9685 21.6662H71.1388V31.6765H68.9685V21.6662ZM65.4003 24.2435H67.4787V31.8819H65.4003V24.2435ZM73.2724 19.3877L74.7806 21.1993C72.0217 21.9837 68.2695 22.4693 65.0508 22.7307C64.9772 22.2078 64.6829 21.3861 64.4622 20.9005C67.5706 20.6017 71.0836 20.0601 73.2724 19.3877ZM57.988 20.3776H61.9792V22.3385H57.988V20.3776ZM61.501 20.3776H61.7953L62.1263 20.2842L63.6713 20.7698C62.7149 22.9735 61.2803 25.943 60.048 28.2961L58.0431 27.7172C59.2938 25.4014 60.8021 22.2825 61.501 20.6203V20.3776ZM59.9744 25.7375H62.9356V27.6985H59.9008L59.9744 25.7375ZM62.1263 25.7375H62.531L62.8988 25.7002L64.2231 26.0177C63.6713 31.6951 62.0528 35.2249 59.4594 36.9991C59.1283 36.5509 58.2822 35.7665 57.804 35.4677C60.3055 33.9176 61.7217 30.9294 62.1263 26.1484V25.7375ZM60.1031 28.651C61.5929 33.5627 64.9956 34.3284 69.3363 34.3284C70.4399 34.3284 74.0633 34.3284 75.406 34.2724C75.0749 34.7953 74.6886 35.8225 74.5783 36.4575H69.2628C63.9656 36.4575 60.3055 35.3556 58.3742 29.2673L60.1031 28.651Z" fill="white"/>
<path d="M76.6383 28.1841H93.3206V30.145H76.6383V28.1841ZM80.9422 22.8054H90.8743V24.5423H80.9422V22.8054ZM80.9422 25.4761H90.8743V27.2129H80.9422V25.4761ZM77.4476 34.7206C79.6179 34.4778 82.9286 33.9736 85.9818 33.5254L86.0738 35.505C83.2413 35.9719 80.1881 36.4388 77.9442 36.7936L77.4476 34.7206ZM85.7611 28.7257C86.9383 31.9939 89.5133 34.123 93.67 34.9074C93.1918 35.3743 92.5665 36.3081 92.2722 36.9244C87.7659 35.8412 85.2277 33.3199 83.7379 29.2299L85.7611 28.7257ZM90.9847 29.9023L92.7504 31.1722C91.4077 32.162 89.734 33.1518 88.4465 33.7682L86.975 32.6102C88.2441 31.9379 89.9547 30.7987 90.9847 29.9023ZM79.7283 19.9854H91.3893V21.8343H81.9906V29.0058H79.7283V19.9854ZM79.7099 28.763H81.9906V34.9821L79.7099 35.2249V28.763Z" fill="white"/>
<path d="M102.425 30.4065L101.947 24.0194L101.855 21.2367H104.89L104.798 24.0194L104.319 30.4065H102.425ZM103.381 35.393C102.425 35.393 101.744 34.7019 101.744 33.7308C101.744 32.7597 102.443 32.0873 103.381 32.0873C104.301 32.0873 105 32.7597 105 33.7308C105 34.7019 104.301 35.393 103.381 35.393Z" fill="white"/>
</g>
<defs>
<filter id="filter0_d_1302_123" x="-4" y="-0.161133" width="133.064" height="133.226" filterUnits="userSpaceOnUse" color-interpolation-filters="sRGB">
<feFlood flood-opacity="0" result="BackgroundImageFix"/>
<feColorMatrix in="SourceAlpha" type="matrix" values="0 0 0 0 0 0 0 0 0 0 0 0 0 0 0 0 0 0 127 0" result="hardAlpha"/>
<feOffset dy="4"/>
<feGaussianBlur stdDeviation="2"/>
<feComposite in2="hardAlpha" operator="out"/>
<feColorMatrix type="matrix" values="0 0 0 0 0 0 0 0 0 0 0 0 0 0 0 0 0 0 0.25 0"/>
<feBlend mode="normal" in2="BackgroundImageFix" result="effect1_dropShadow_1302_123"/>
<feBlend mode="normal" in="SourceGraphic" in2="effect1_dropShadow_1302_123" result="shape"/>
</filter>
</defs>
</svg>
