<svg width="333" height="305" viewBox="0 0 333 305" fill="none" xmlns="http://www.w3.org/2000/svg">
<path d="M0 0H333V305H0V0Z" fill="#F5EEE6"/>
<path d="M272.129 123.56C273.105 123.544 274.081 123.528 275.057 123.464L285.745 122.68L285.953 125.24C284.321 125.272 282.977 125.448 281.521 126.264C280.065 127.08 278.769 128.392 278.769 130.152C278.769 132.568 281.633 133.24 283.537 133.384L282.337 135.912C279.185 135.544 276.097 133.928 276.097 130.344C276.097 128.84 276.689 127.352 277.793 126.312C278.161 125.96 278.593 125.656 279.009 125.368L272.321 126.232L272.129 123.56ZM281.505 127.816L282.849 127.048C283.601 127.944 284.161 128.984 284.673 130.024L283.265 130.856C282.753 129.672 282.289 128.856 281.505 127.816ZM283.681 126.6L285.041 125.88C285.809 126.776 286.385 127.768 286.913 128.824L285.505 129.608C284.929 128.392 284.513 127.656 283.681 126.6Z" fill="#6F6356"/>
<path d="M263.426 132.008C265.234 133.112 267.122 133.768 269.202 134.152L267.762 136.552C265.522 135.976 263.362 135.08 261.49 133.688C259.506 135.096 257.554 135.928 255.202 136.552L253.874 134.168C255.89 133.72 257.826 133.064 259.602 132.008C257.874 130.088 256.85 128.104 256.146 125.64H253.938V123.256H260.258V121.352H262.786V123.256H269.09V125.64H266.866C266.178 128.088 265.154 130.136 263.426 132.008ZM261.522 130.52C262.946 129.032 263.666 127.608 264.258 125.64H258.738C259.33 127.592 260.082 129.048 261.522 130.52Z" fill="#6F6356"/>
<path d="M245.41 124.104C244.626 123.48 243.81 122.952 242.914 122.504L245.154 121.096C246.258 121.672 247.314 122.344 248.29 123.112L246.658 124.104H251.218V126.36H247.186V128.824H250.69V131.08H247.186V133.88H251.538V136.12H240.114V133.88H244.69V131.08H241.234V128.824H244.69V126.36H240.706V124.104H245.41ZM237.97 121.288C239.01 121.736 239.89 122.248 240.802 122.904L239.378 124.888C238.434 124.12 237.746 123.704 236.674 123.144L237.97 121.288ZM237.506 125.336C238.482 125.784 239.394 126.36 240.242 127.048L238.882 129.032C237.986 128.296 237.234 127.8 236.21 127.256L237.506 125.336ZM240.786 131.016C239.938 133.016 238.994 134.84 237.666 136.584L236.162 134.312C237.33 132.872 238.226 131.224 238.978 129.528L240.786 131.016Z" fill="#6F6356"/>
<path d="M220.77 122.392L223.378 122.68C222.818 125.112 222.466 127.528 222.466 130.04C222.466 131.832 222.642 133.544 223.042 135.304L220.498 135.592C220.098 133.8 219.97 131.96 219.97 130.136C219.97 127.432 220.274 125.048 220.77 122.392ZM232.306 126.056C231.362 125.976 230.418 125.928 229.458 125.928C227.922 125.928 226.402 126.056 224.882 126.264L224.93 123.704C226.45 123.544 227.97 123.432 229.49 123.432C230.45 123.432 231.41 123.48 232.37 123.56L232.306 126.056ZM227.026 130.088C226.786 130.44 226.562 130.936 226.562 131.384C226.562 131.784 226.818 132.024 227.186 132.136C227.73 132.312 228.658 132.328 229.25 132.328C230.514 132.328 231.778 132.168 233.026 131.944L232.962 134.552C231.746 134.728 230.514 134.84 229.282 134.84C227.17 134.84 224.242 134.632 224.242 131.832C224.242 131.032 224.498 130.36 224.882 129.656L227.026 130.088Z" fill="#6F6356"/>
<path d="M211.047 121.16C213.767 123.048 215.463 126.056 215.463 129.816C215.463 133.576 213.767 136.584 211.047 138.472L209.735 137.032C211.799 135.416 213.127 132.936 213.127 129.816C213.127 126.696 211.799 124.232 209.735 122.6L211.047 121.16Z" fill="#6F6356"/>
<path d="M193.111 121.943H206.007V136.007H193.111V121.943ZM195.623 127.703H203.447V124.327H195.623V127.703ZM195.623 130.039V133.623H203.447V130.039H195.623Z" fill="#6F6356"/>
<path d="M188.077 138.472C185.357 136.6 183.661 133.592 183.661 129.816C183.661 126.056 185.357 123.048 188.077 121.176L189.405 122.6C187.325 124.232 185.997 126.696 185.997 129.816C185.997 132.936 187.325 135.416 189.405 137.032L188.077 138.472Z" fill="#6F6356"/>
<path d="M175.327 135.447C172.415 135.447 170.623 134.103 170.623 131.975C170.623 130.503 171.551 129.399 172.991 128.775C171.823 128.135 170.895 127.191 170.895 125.495C170.895 123.175 172.943 121.959 175.471 121.959C178.399 121.959 179.903 123.463 179.903 125.335C179.903 126.551 179.167 127.687 177.743 128.295C179.071 128.935 180.223 129.895 180.223 131.687C180.223 134.135 178.255 135.447 175.327 135.447ZM173.839 125.575C173.839 126.471 174.655 127.015 175.727 127.479C176.639 126.983 176.959 126.231 176.959 125.639C176.959 124.711 176.335 124.231 175.407 124.231C174.431 124.231 173.839 124.775 173.839 125.575ZM173.567 131.607C173.567 132.567 174.287 133.143 175.423 133.143C176.655 133.143 177.279 132.439 177.279 131.655C177.279 130.647 176.207 130.135 174.943 129.639C173.967 130.151 173.567 130.887 173.567 131.607Z" fill="#6F6356"/>
<path d="M159.467 138.008L165.595 121.64H168.091L161.947 138.008H159.467Z" fill="#6F6356"/>
<path d="M149.052 135.032L149.292 132.616C149.98 132.872 150.572 132.968 151.388 132.968C153.276 132.968 154.364 131.864 154.732 129.688C154.044 130.248 153.244 130.552 152.22 130.552C149.756 130.552 148.108 129.016 148.108 126.456C148.108 123.912 149.948 122.008 152.844 122.008C155.58 122.008 157.772 123.624 157.772 128.104C157.772 132.52 155.468 135.384 151.436 135.384C150.492 135.384 149.692 135.24 149.052 135.032ZM151.116 126.504C151.116 127.784 151.836 128.488 152.956 128.488C153.692 128.488 154.332 128.216 154.86 127.624C154.812 125.272 154.124 124.44 152.924 124.44C151.788 124.44 151.116 125.32 151.116 126.504Z" fill="#6F6356"/>
<path d="M133.996 131.4L131.532 131.112C131.628 127.896 133.356 126.424 135.276 126.424C136.62 126.424 137.708 127.064 138.892 127.912C139.692 128.472 140.172 128.696 140.636 128.696C141.452 128.696 141.964 127.816 142.06 126.44L144.524 126.728C144.428 129.944 142.7 131.416 140.796 131.416C139.436 131.416 138.348 130.776 137.164 129.928C136.364 129.368 135.9 129.144 135.42 129.144C134.604 129.144 134.092 130.04 133.996 131.4Z" fill="#6F6356"/>
<path d="M122.738 121.16C125.458 123.048 127.154 126.056 127.154 129.816C127.154 133.576 125.458 136.584 122.738 138.472L121.426 137.032C123.49 135.416 124.818 132.936 124.818 129.816C124.818 126.696 123.49 124.232 121.426 122.6L122.738 121.16Z" fill="#6F6356"/>
<path d="M109.986 121.352H112.514V125.24H117.938V127.736H112.514V133.56H118.802V136.04H103.698V133.56H109.986V127.736H104.626V125.24H109.986V121.352Z" fill="#6F6356"/>
<path d="M99.7681 138.472C97.0481 136.6 95.3521 133.592 95.3521 129.816C95.3521 126.056 97.0481 123.048 99.7681 121.176L101.096 122.6C99.0161 124.232 97.6881 126.696 97.6881 129.816C97.6881 132.936 99.0161 135.416 101.096 137.032L99.7681 138.472Z" fill="#6F6356"/>
<path d="M92.1051 122.264V124.568C89.4331 127.48 88.0571 131.128 87.5611 135.128H84.4091C84.8891 131.416 86.1691 127.816 88.7131 124.824H82.5371V122.264H92.1051Z" fill="#6F6356"/>
<path d="M74.4105 135.128V125.72C73.7065 126.328 72.9385 126.84 72.0585 127.304L70.8105 125.176C72.3305 124.36 73.7385 123.4 74.8585 122.264H77.2265V135.128H74.4105Z" fill="#6F6356"/>
<path d="M58.8389 138.008L64.9669 121.64H67.4629L61.3189 138.008H58.8389Z" fill="#6F6356"/>
<path d="M52.2641 135.447C49.3521 135.447 47.5601 134.103 47.5601 131.975C47.5601 130.503 48.4881 129.399 49.9281 128.775C48.7601 128.135 47.8321 127.191 47.8321 125.495C47.8321 123.175 49.8801 121.959 52.4081 121.959C55.3361 121.959 56.8401 123.463 56.8401 125.335C56.8401 126.551 56.1041 127.687 54.6801 128.295C56.0081 128.935 57.1601 129.895 57.1601 131.687C57.1601 134.135 55.1921 135.447 52.2641 135.447ZM50.7761 125.575C50.7761 126.471 51.5921 127.015 52.6641 127.479C53.5761 126.983 53.8961 126.231 53.8961 125.639C53.8961 124.711 53.2721 124.231 52.3441 124.231C51.3681 124.231 50.7761 124.775 50.7761 125.575ZM50.5041 131.607C50.5041 132.567 51.2241 133.143 52.3601 133.143C53.5921 133.143 54.2161 132.439 54.2161 131.655C54.2161 130.647 53.1441 130.135 51.8801 129.639C50.9041 130.151 50.5041 130.887 50.5041 131.607Z" fill="#6F6356"/>
<path d="M237.139 143.991C237.993 143.977 238.847 143.963 239.701 143.907L249.053 143.221L249.235 145.461C247.807 145.489 246.631 145.643 245.357 146.357C244.083 147.071 242.949 148.219 242.949 149.759C242.949 151.873 245.455 152.461 247.121 152.587L246.071 154.799C243.313 154.477 240.611 153.063 240.611 149.927C240.611 148.611 241.129 147.309 242.095 146.399C242.417 146.091 242.795 145.825 243.159 145.573L237.307 146.329L237.139 143.991ZM245.343 147.715L246.519 147.043C247.177 147.827 247.667 148.737 248.115 149.647L246.883 150.375C246.435 149.339 246.029 148.625 245.343 147.715ZM247.247 146.651L248.437 146.021C249.109 146.805 249.613 147.673 250.075 148.597L248.843 149.283C248.339 148.219 247.975 147.575 247.247 146.651Z" fill="#6F6356"/>
<path d="M226.905 144.074L226.891 142.492H229.089L229.103 144.046C230.545 144.032 231.973 144.004 233.415 143.934L233.401 145.992C231.973 146.02 230.545 146.048 229.117 146.062L229.131 146.902C230.363 146.86 231.595 146.818 232.841 146.748V148.778C231.609 148.82 230.377 148.862 229.145 148.89V150.164C230.643 150.556 231.903 151.172 233.233 151.97L232.197 154.084C231.189 153.356 230.265 152.838 229.117 152.376C229.061 154.182 227.605 154.756 226.009 154.756C224.469 154.756 222.663 154.112 222.663 152.278C222.663 151.312 223.265 150.528 224.147 150.164C224.833 149.884 225.589 149.8 226.317 149.8C226.527 149.8 226.737 149.8 226.947 149.814L226.933 148.918C225.575 148.932 224.217 148.946 222.845 148.932L222.859 146.888C223.685 146.916 224.511 146.944 225.351 146.944C225.869 146.944 226.401 146.93 226.919 146.93V146.09C226.149 146.09 225.379 146.104 224.623 146.104C223.867 146.104 223.125 146.09 222.369 146.09L222.383 144.018C223.895 144.06 225.393 144.074 226.905 144.074ZM226.933 151.872V151.732C226.653 151.69 226.373 151.676 226.093 151.676C225.687 151.676 224.679 151.718 224.679 152.306C224.679 152.782 225.449 152.866 225.799 152.866C226.891 152.866 226.933 152.362 226.933 151.872Z" fill="#6F6356"/>
<path d="M214.492 141.891C216.872 143.543 218.356 146.175 218.356 149.465C218.356 152.755 216.872 155.387 214.492 157.039L213.344 155.779C215.15 154.365 216.312 152.195 216.312 149.465C216.312 146.735 215.15 144.579 213.344 143.151L214.492 141.891Z" fill="#6F6356"/>
<path d="M198.798 142.576H210.082V154.882H198.798V142.576ZM200.996 147.616H207.842V144.662H200.996V147.616ZM200.996 149.66V152.796H207.842V149.66H200.996Z" fill="#6F6356"/>
<path d="M194.393 157.038C192.013 155.4 190.529 152.768 190.529 149.464C190.529 146.174 192.013 143.542 194.393 141.904L195.555 143.15C193.735 144.578 192.573 146.734 192.573 149.464C192.573 152.194 193.735 154.364 195.555 155.778L194.393 157.038Z" fill="#6F6356"/>
<path d="M183.236 154.392C180.688 154.392 179.12 153.216 179.12 151.354C179.12 150.066 179.932 149.1 181.192 148.554C180.17 147.994 179.358 147.168 179.358 145.684C179.358 143.654 181.15 142.59 183.362 142.59C185.924 142.59 187.24 143.906 187.24 145.544C187.24 146.608 186.596 147.602 185.35 148.134C186.512 148.694 187.52 149.534 187.52 151.102C187.52 153.244 185.798 154.392 183.236 154.392ZM181.934 145.754C181.934 146.538 182.648 147.014 183.586 147.42C184.384 146.986 184.664 146.328 184.664 145.81C184.664 144.998 184.118 144.578 183.306 144.578C182.452 144.578 181.934 145.054 181.934 145.754ZM181.696 151.032C181.696 151.872 182.326 152.376 183.32 152.376C184.398 152.376 184.944 151.76 184.944 151.074C184.944 150.192 184.006 149.744 182.9 149.31C182.046 149.758 181.696 150.402 181.696 151.032Z" fill="#6F6356"/>
<path d="M169.359 156.633L174.721 142.311H176.905L171.529 156.633H169.359Z" fill="#6F6356"/>
<path d="M160.246 154.029L160.456 151.915C161.058 152.139 161.576 152.223 162.29 152.223C163.942 152.223 164.894 151.257 165.216 149.353C164.614 149.843 163.914 150.109 163.018 150.109C160.862 150.109 159.42 148.765 159.42 146.525C159.42 144.299 161.03 142.633 163.564 142.633C165.958 142.633 167.876 144.047 167.876 147.967C167.876 151.831 165.86 154.337 162.332 154.337C161.506 154.337 160.806 154.211 160.246 154.029ZM162.052 146.567C162.052 147.687 162.682 148.303 163.662 148.303C164.306 148.303 164.866 148.065 165.328 147.547C165.286 145.489 164.684 144.761 163.634 144.761C162.64 144.761 162.052 145.531 162.052 146.567Z" fill="#6F6356"/>
<path d="M152.056 145.139L152 142.717H154.212L154.254 145.013C154.954 144.943 155.64 144.859 156.326 144.747V146.973C155.654 147.057 154.982 147.127 154.296 147.183L154.366 150.067C155.346 150.487 156.088 150.879 156.942 151.509L156.088 153.539C155.514 153.077 154.996 152.755 154.352 152.405C154.324 152.769 154.254 153.119 154.086 153.455C153.596 154.393 152.49 154.673 151.51 154.673C149.886 154.673 148.276 153.889 148.276 152.055C148.276 151.019 148.864 150.081 149.858 149.717C150.334 149.535 150.852 149.465 151.356 149.465C151.636 149.465 151.888 149.493 152.154 149.521L152.112 147.309C151.734 147.323 151.37 147.323 151.006 147.323C150.138 147.323 149.27 147.309 148.416 147.253V145.041C149.354 145.097 150.306 145.153 151.258 145.153C151.524 145.153 151.79 145.153 152.056 145.139ZM152.21 151.523C151.916 151.425 151.622 151.369 151.328 151.369C150.88 151.369 150.236 151.523 150.236 152.069C150.236 152.573 150.88 152.769 151.286 152.769C152.182 152.769 152.224 152.251 152.21 151.523ZM145.602 142.759L147.884 143.025C147.38 145.251 147.086 147.463 147.086 149.759C147.086 151.299 147.226 152.713 147.534 154.225L145.392 154.547C145.014 152.979 144.916 151.271 144.916 149.675C144.916 147.351 145.182 145.041 145.602 142.759Z" fill="#6F6356"/>
<path d="M134.444 153.049V142.381H141.388V149.129H141.108L142.018 150.697C141.472 151.173 141.01 151.495 140.394 151.859C140.884 152.475 141.388 152.937 142.004 153.441L140.716 155.359C138.812 153.875 137.636 151.481 137.244 149.129H136.46V152.741C137.062 152.643 137.65 152.531 138.252 152.391L138.392 154.267C136.824 154.701 135.2 154.953 133.59 155.233L133.31 153.189C133.688 153.147 134.066 153.105 134.444 153.049ZM128.858 142.381H133.926V144.313C133.66 145.279 133.324 146.273 132.932 147.183C133.73 148.037 134.066 149.255 134.066 150.403C134.066 151.033 133.926 151.775 133.45 152.209C133.198 152.447 132.778 152.643 132.428 152.643H131.28L130.972 150.641H131.364C131.896 150.641 132.008 150.431 132.008 149.927C132.008 148.933 131.672 148.177 130.972 147.491C131.392 146.413 131.658 145.419 131.91 144.299H130.874V155.331H128.858V142.381ZM139.372 144.215H136.46V145.083H139.372V144.215ZM139.372 146.525H136.46V147.435H139.372V146.525ZM139.498 150.333C139.988 149.955 140.464 149.591 140.884 149.129H139.064C139.19 149.563 139.316 149.913 139.498 150.333Z" fill="#6F6356"/>
<path d="M119.324 153.944L118.4 154.714C118.036 154.084 117.406 153.23 116.916 152.684L118.218 151.802H114.998L116.468 152.6C116.132 153.468 115.138 154.784 114.382 155.344L112.982 153.972C113.696 153.44 114.34 152.558 114.83 151.802H113.136V150.01H114.004V144.802H113.304V142.996H114.004V142.072H115.964V142.996H117.77V142.072H119.716V142.996H120.472V144.802H119.716V150.01H120.57C120.654 149.282 120.696 148.554 120.696 147.826V142.352H125.988V154C125.988 154.98 125.582 155.274 124.644 155.274H122.754L122.404 153.3H123.594C123.944 153.3 124 153.104 124 152.796V151.074H122.39C122.25 152.474 121.746 154.196 120.878 155.33L119.324 153.944ZM124 144.396H122.53V145.922H124V144.396ZM117.77 144.802H115.964V145.488H117.77V144.802ZM117.77 147.014H115.964V147.756H117.77V147.014ZM124 147.728H122.53L122.488 149.212H124V147.728ZM117.77 149.184H115.964V150.01H117.77V149.184ZM119.604 153.244C119.87 152.768 120.066 152.32 120.22 151.802H118.386C118.792 152.18 119.282 152.782 119.604 153.244Z" fill="#6F6356"/>
<path d="M104.274 152.545C105.884 153.035 107.592 153.231 109.272 153.231C109.888 153.231 110.49 153.203 111.106 153.161L110.392 155.331C107.76 155.317 105.226 154.981 102.776 153.973C101.516 154.771 100.018 155.163 98.5483 155.373L97.6943 153.231C98.7443 153.147 99.5283 153.035 100.55 152.769C100.06 152.419 99.7243 152.111 99.3183 151.677L100.62 150.865H98.7443V144.887H103.364V144.271H97.7923V142.437H110.994V144.271H105.38V144.887H110.014V150.865H105.072C104.904 151.439 104.61 152.055 104.274 152.545ZM105.38 146.385V147.113H107.998V146.385H105.38ZM103.364 147.113V146.385H100.774V147.113H103.364ZM105.38 148.485V148.709C105.38 148.877 105.38 149.059 105.366 149.241H107.998V148.485H105.38ZM103.336 149.241C103.35 149.059 103.364 148.877 103.364 148.695V148.485H100.774V149.241H103.336ZM102.328 151.733C102.566 151.453 102.734 151.187 102.888 150.865H101.096C101.53 151.243 101.838 151.453 102.328 151.733Z" fill="#6F6356"/>
<path d="M85.8221 149.156L84.6041 147.84C85.7801 147.112 86.4941 146.216 86.6761 144.816H82.3501V142.912H87.9081V142.03H90.1061V142.912H95.6501V144.816H93.7181C94.2081 145.712 95.0761 146.762 95.8181 147.462L94.4321 148.876C93.4381 147.994 92.7241 146.86 92.0521 145.726L93.6201 144.816H91.8001V147.574C91.8001 148.26 91.2401 148.61 90.6241 148.61H89.2801C89.1541 148.792 89.0141 148.974 88.8741 149.142H93.5921V150.878C92.8361 151.69 92.3461 152.152 91.4081 152.754C92.8081 153.076 94.2501 153.174 95.6921 153.23L94.8661 155.302C92.8641 155.092 90.7221 154.742 88.8321 154.014C86.9001 154.728 85.1221 155.078 83.0641 155.288L82.4621 153.44C83.9041 153.328 85.2061 153.132 86.6061 152.782C86.1861 152.446 85.8361 152.138 85.4721 151.732C84.7721 152.096 84.1701 152.334 83.4281 152.6L82.4481 150.822C83.7921 150.346 84.6461 149.996 85.8221 149.156ZM87.2781 148.078L88.9861 148.512L88.6781 146.622H89.4761C89.8261 146.622 89.8541 146.552 89.8541 146.286V144.816H88.6361C88.4681 146.034 88.1041 147.154 87.2781 148.078ZM83.6241 148.778L82.2241 147.42C83.0501 146.622 83.4981 145.88 84.0161 144.886L85.7661 145.586C85.1361 146.874 84.6041 147.714 83.6241 148.778ZM89.0001 151.97C89.7841 151.62 90.2601 151.312 90.9741 150.808H87.0961C87.6841 151.256 88.3141 151.648 89.0001 151.97Z" fill="#6F6356"/>
<path d="M81.287 111.259H87.177V112.699H84.177V113.659H86.857V115.059H84.177V116.389H87.527V117.829H84.177V119.939H82.637V117.829H78.067V116.389H79.417V114.159C79.257 114.319 79.077 114.479 78.897 114.629L77.917 113.309C78.867 112.569 79.627 111.519 79.957 110.359L81.517 110.569C81.447 110.809 81.377 111.019 81.287 111.259ZM80.557 112.699C80.347 113.039 80.117 113.349 79.867 113.659H82.637V112.699H80.557ZM82.637 115.059H80.907V116.389H82.637V115.059Z" fill="#6F6356"/>
<path d="M73.9176 119.08V117.45H70.3276V115.95L73.7976 111H75.5976V115.95H76.5876V117.45H75.5976V119.08H73.9176ZM71.9576 115.95H73.9176V113.1L71.9576 115.95Z" fill="#6F6356"/>
<path d="M62.9485 119.079V117.689L65.4585 115.389C66.2185 114.669 66.5785 114.209 66.5785 113.589C66.5785 112.919 66.1385 112.499 65.4685 112.499C64.7785 112.499 64.1885 112.919 63.7285 113.609L62.9185 112.179C63.6185 111.359 64.5485 110.879 65.6985 110.879C67.3285 110.879 68.4385 111.799 68.4385 113.319C68.4385 114.469 67.8685 115.209 66.5785 116.369L65.3385 117.479H68.5185V119.079H62.9485Z" fill="#6F6356"/>
<path d="M58.0493 119.23C56.1793 119.23 55.0493 117.78 55.0493 115.06C55.0493 112.34 56.1793 110.89 58.0493 110.89C59.9193 110.89 61.0493 112.34 61.0493 115.06C61.0493 117.78 59.9193 119.23 58.0493 119.23ZM58.0493 117.68C58.7593 117.68 59.1593 116.9 59.1593 115.06C59.1593 113.22 58.7593 112.44 58.0493 112.44C57.3393 112.44 56.9393 113.22 56.9393 115.06C56.9393 116.9 57.3393 117.68 58.0493 117.68Z" fill="#6F6356"/>
<path d="M47.55 119.079V117.689L50.06 115.389C50.82 114.669 51.18 114.209 51.18 113.589C51.18 112.919 50.74 112.499 50.07 112.499C49.38 112.499 48.79 112.919 48.33 113.609L47.52 112.179C48.22 111.359 49.15 110.879 50.3 110.879C51.93 110.879 53.04 111.799 53.04 113.319C53.04 114.469 52.47 115.209 51.18 116.369L49.94 117.479H53.12V119.079H47.55Z" fill="#6F6356"/>
<path d="M320.389 282.473C321.196 282.473 321.842 283.119 321.842 283.926C321.842 284.734 321.196 285.38 320.389 285.38C319.591 285.38 318.935 284.734 318.935 283.926C318.935 283.128 319.591 282.473 320.389 282.473ZM320.389 283.033C319.895 283.033 319.496 283.432 319.496 283.926C319.496 284.42 319.895 284.819 320.389 284.819C320.892 284.819 321.291 284.42 321.291 283.926C321.291 283.432 320.883 283.033 320.389 283.033Z" fill="#6F6356"/>
<path d="M315.76 279.328L315.798 282.235C315.817 284.05 314.877 285.133 313.224 285.75L312.53 284.886C313.433 284.572 314.164 284.164 314.592 283.261C314.288 283.518 313.955 283.641 313.556 283.641C312.502 283.641 311.818 282.767 311.818 281.76C311.818 280.677 312.587 279.86 313.68 279.86C314.107 279.86 314.44 279.965 314.772 280.231L314.753 279.347L311.97 279.423C311.381 279.442 310.801 279.461 310.212 279.499L310.193 278.454C310.497 278.464 310.811 278.473 311.124 278.473C311.39 278.473 311.666 278.473 311.941 278.464L314.725 278.407L314.696 277.21H315.741L315.751 278.388L316.577 278.369C317.147 278.35 317.727 278.331 318.297 278.283L318.316 279.319C318.031 279.3 317.746 279.3 317.461 279.3C317.166 279.3 316.881 279.3 316.587 279.3L315.76 279.328ZM314.706 281.751C314.706 281.19 314.345 280.753 313.765 280.753C313.195 280.753 312.825 281.209 312.825 281.751C312.825 282.302 313.176 282.748 313.746 282.748C314.316 282.748 314.706 282.302 314.706 281.751Z" fill="#6F6356"/>
<path d="M304.322 278.549L304.313 277.295H305.367L305.377 278.539C306.384 278.52 307.381 278.492 308.388 278.454V279.451C307.391 279.489 306.384 279.508 305.377 279.527L305.386 280.401C306.26 280.382 307.134 280.354 308.008 280.306L308.018 281.313C307.144 281.351 306.27 281.37 305.396 281.389V282.615C306.45 282.862 307.334 283.308 308.255 283.859L307.733 284.866C306.973 284.334 306.27 283.964 305.396 283.65C305.386 284.144 305.396 284.562 305.016 284.942C304.626 285.322 303.942 285.427 303.41 285.427C302.489 285.427 301.349 285.028 301.349 283.935C301.349 282.7 302.698 282.396 303.676 282.396C303.904 282.396 304.132 282.415 304.351 282.434L304.341 281.408C303.847 281.418 303.344 281.427 302.84 281.427C302.375 281.427 301.909 281.418 301.444 281.418V280.392C301.985 280.411 302.527 280.42 303.059 280.42C303.486 280.42 303.914 280.42 304.341 280.42L304.332 279.537C303.819 279.537 303.315 279.546 302.812 279.546C302.242 279.546 301.681 279.537 301.121 279.527V278.511C302.185 278.539 303.258 278.549 304.322 278.549ZM304.351 283.384C304.104 283.346 303.857 283.318 303.61 283.318C303.201 283.318 302.346 283.384 302.346 283.954C302.346 284.41 302.992 284.524 303.344 284.524C304.427 284.524 304.351 283.973 304.351 283.384Z" fill="#6F6356"/>
<path d="M292.542 277.467L293.587 277.59C293.369 278.616 293.236 279.661 293.236 280.716C293.236 281.001 293.255 281.286 293.264 281.58C293.483 281.077 293.711 280.583 293.948 280.098L294.594 280.678C294.167 281.495 293.72 282.445 293.483 283.338L292.628 283.433C292.333 282.454 292.219 281.542 292.219 280.526C292.219 279.5 292.343 278.474 292.542 277.467ZM296.988 277.457H298.081C298.166 278.464 298.252 279.471 298.252 280.488C298.252 282.996 297.615 284.449 295.297 285.599L294.423 284.858C295.316 284.421 296.152 283.898 296.656 283.015C297.121 282.217 297.159 281.276 297.159 280.374C297.159 279.395 297.074 278.426 296.988 277.457Z" fill="#6F6356"/>
<path d="M283.688 278.72C283.85 278.217 284.002 277.713 284.144 277.21L285.246 277.419C285.104 277.827 284.961 278.236 284.819 278.644C285.284 278.597 285.74 278.54 286.196 278.454L286.149 279.499C285.598 279.575 284.999 279.651 284.448 279.68C283.926 281.133 283.346 282.558 282.681 283.955L281.655 283.499C282.292 282.283 282.852 281.029 283.327 279.746C282.995 279.756 282.653 279.756 282.32 279.756C282.197 279.756 282.073 279.756 281.95 279.756L281.912 278.692C282.273 278.72 282.624 278.73 282.985 278.73C283.213 278.73 283.451 278.73 283.688 278.72ZM287.821 282.663C288.533 282.929 289.17 283.29 289.797 283.717L289.284 284.648C288.828 284.325 288.362 284.021 287.859 283.784C287.849 285 287.165 285.446 286.006 285.446C285.028 285.446 283.897 285.009 283.897 283.869C283.897 282.805 284.895 282.292 285.835 282.292C286.149 282.292 286.462 282.34 286.776 282.397C286.738 281.713 286.709 281.019 286.7 280.335L287.716 280.354C287.726 281.124 287.783 281.893 287.821 282.663ZM286.833 283.366C286.529 283.271 286.082 283.214 285.769 283.214C285.379 283.214 284.847 283.366 284.847 283.85C284.847 284.382 285.484 284.534 285.911 284.534C286.434 284.534 286.852 284.392 286.852 283.803C286.852 283.651 286.842 283.508 286.833 283.366ZM286.728 279.214L287.184 278.34C288.087 278.692 288.913 279.072 289.759 279.556L289.293 280.497C288.486 279.974 287.64 279.518 286.728 279.214Z" fill="#6F6356"/>
<path d="M280.088 282.169H278.245V282.948H280.639V283.813H271.833V282.948H274.217V282.169H272.355V281.381H274.217V280.621H272.517V277.248H279.955V280.621H278.245V281.381H280.088V282.169ZM279.053 277.98H276.64V278.607H279.053V277.98ZM275.794 277.98H273.429V278.607H275.794V277.98ZM279.053 279.243H276.64V279.899H279.053V279.243ZM275.794 279.243H273.429V279.899H275.794V279.243ZM277.314 280.621H275.148V281.381H277.314V280.621ZM277.314 282.169H275.148V282.948H277.314V282.169ZM280.269 285.846C279.195 285.665 278.131 285.133 277.219 284.544L277.865 283.841C278.768 284.402 279.594 284.753 280.649 284.934L280.269 285.846ZM275.329 284.535C274.455 285.19 273.315 285.608 272.241 285.798L271.909 284.934C272.925 284.753 273.809 284.487 274.654 283.86L275.329 284.535Z" fill="#6F6356"/>
<path d="M264.042 277.467L265.087 277.59C264.869 278.616 264.736 279.661 264.736 280.716C264.736 281.001 264.755 281.286 264.764 281.58C264.983 281.077 265.211 280.583 265.448 280.098L266.094 280.678C265.667 281.495 265.22 282.445 264.983 283.338L264.128 283.433C263.833 282.454 263.719 281.542 263.719 280.526C263.719 279.5 263.843 278.474 264.042 277.467ZM268.488 277.457H269.581C269.666 278.464 269.752 279.471 269.752 280.488C269.752 282.996 269.115 284.449 266.797 285.599L265.923 284.858C266.816 284.421 267.652 283.898 268.156 283.015C268.621 282.217 268.659 281.276 268.659 280.374C268.659 279.395 268.574 278.426 268.488 277.457Z" fill="#6F6356"/>
<path d="M257.763 280.155L257.801 282.169C259.102 282.511 260.119 282.995 261.249 283.708L260.717 284.658C259.786 284.012 258.874 283.546 257.801 283.185V283.423C257.801 284.002 257.772 284.553 257.288 284.943C256.851 285.285 256.271 285.37 255.72 285.37C254.656 285.37 253.345 284.905 253.345 283.632C253.345 282.995 253.725 282.53 254.276 282.254C254.78 282.007 255.397 281.95 255.939 281.95C256.214 281.95 256.48 281.969 256.746 281.998L256.651 277.238L257.725 277.295L257.753 279.138C258.732 279.091 259.482 279.015 260.451 278.815L260.442 279.917C259.53 280.031 258.684 280.107 257.763 280.155ZM256.756 283.043V282.967C256.452 282.919 256.138 282.891 255.834 282.891C255.34 282.891 254.314 282.967 254.314 283.641C254.314 284.259 255.198 284.42 255.663 284.42C256.746 284.42 256.756 283.917 256.756 283.043Z" fill="#6F6356"/>
<path d="M244.568 277.609L245.67 277.742C245.328 279.177 245.119 280.64 245.119 282.122C245.119 283.148 245.223 284.107 245.442 285.114L244.406 285.247C244.15 284.24 244.083 283.176 244.083 282.141C244.083 280.602 244.264 279.12 244.568 277.609ZM251.199 279.405C250.657 279.357 250.106 279.329 249.565 279.329C248.681 279.329 247.807 279.405 246.933 279.519L246.952 278.436C247.845 278.35 248.738 278.284 249.631 278.284C250.163 278.284 250.695 278.303 251.218 278.35L251.199 279.405ZM247.921 282.055C247.722 282.321 247.541 282.644 247.541 282.996C247.541 283.281 247.712 283.48 247.978 283.585C248.349 283.737 248.957 283.756 249.356 283.756C250.135 283.756 250.838 283.67 251.598 283.528L251.579 284.639C250.876 284.744 250.173 284.801 249.46 284.801C248.33 284.801 246.572 284.715 246.572 283.186C246.572 282.701 246.753 282.274 247.019 281.875L247.921 282.055Z" fill="#6F6356"/>
<path d="M239.76 279.5L239.713 277.391H240.767L240.796 279.414C241.309 279.357 241.822 279.319 242.335 279.234L242.42 280.298C241.879 280.307 241.337 280.345 240.796 280.383C240.777 281.02 240.796 281.941 240.492 282.502C240.359 282.739 240.14 282.929 239.884 283.005C239.456 283.148 238.972 283.176 238.525 283.176C238.487 283.176 238.449 283.176 238.411 283.176L238.136 282.179C238.307 282.198 238.478 282.207 238.658 282.207C239.817 282.207 239.732 281.941 239.76 280.469L236.777 280.725V282.255C236.777 282.948 236.711 283.68 237.157 284.003C237.566 284.316 238.497 284.316 239 284.316C239.836 284.316 240.663 284.25 241.489 284.174L241.366 285.228C240.577 285.285 239.779 285.323 238.981 285.323C238.136 285.323 236.977 285.314 236.331 284.696C235.789 284.174 235.742 283.499 235.742 282.787L235.732 280.811C235.21 280.858 234.687 280.906 234.165 280.982L234.079 279.927C234.63 279.918 235.181 279.88 235.723 279.832L235.713 277.609H236.787L236.777 279.747L239.76 279.5Z" fill="#6F6356"/>
<path d="M227.506 279.832C228.285 279.253 229.035 278.863 230.033 278.863C231.705 278.863 232.816 279.994 232.816 281.656C232.816 283.784 231.106 284.896 229.178 285.143L228.798 284.145C230.232 284.012 231.733 283.252 231.733 281.618C231.733 280.554 231.021 279.842 229.957 279.842C229.007 279.842 228.161 280.393 227.496 281.029C227.487 281.675 227.487 282.312 227.487 282.958C227.487 283.784 227.496 284.611 227.506 285.447H226.48L226.499 282.122C226.062 282.749 225.634 283.404 225.235 284.06L224.437 283.357C225.14 282.388 225.824 281.39 226.508 280.402L226.518 279.965C225.967 280.041 225.416 280.098 224.865 280.117L224.76 279.072C225.349 279.072 225.938 279.044 226.518 278.977L226.527 277.324H227.544C227.534 278.16 227.515 278.996 227.506 279.832Z" fill="#6F6356"/>
<path d="M221.777 279.794V280.544H216.799V279.775C216.267 280.088 215.849 280.307 215.288 280.544L214.709 279.556C216.181 279.072 217.758 278.112 218.784 276.925H219.715C220.912 278.236 222.166 278.901 223.8 279.556L223.211 280.544C222.689 280.316 222.271 280.088 221.777 279.794ZM217.017 279.642H221.53C220.646 279.072 219.943 278.549 219.231 277.761C218.594 278.511 217.844 279.11 217.017 279.642ZM215.697 281.504H222.774V285.646H215.697V281.504ZM221.767 282.397H216.694V284.753H221.767V282.397Z" fill="#6F6356"/>
<path d="M211.393 282.559C210.795 282.179 210.158 281.818 209.465 281.618C209.132 282.283 208.819 282.863 208.401 283.48C208.04 284.012 207.584 284.668 206.871 284.668C206.035 284.668 205.693 283.851 205.693 283.129C205.693 281.628 206.957 280.469 208.439 280.469C208.6 280.469 208.762 280.478 208.933 280.507C209.199 279.899 209.446 279.291 209.693 278.673C208.999 278.749 208.306 278.797 207.612 278.797C207.432 278.797 207.251 278.797 207.071 278.787L207.052 277.761C207.403 277.78 207.764 277.79 208.125 277.79C208.857 277.79 209.645 277.761 210.367 277.609L211.023 278.113C210.652 278.987 210.282 279.851 209.911 280.716C210.567 280.944 211.203 281.229 211.802 281.599C212.02 280.944 212.144 280.326 212.201 279.642L213.227 279.908C213.141 280.763 212.989 281.381 212.695 282.188C213.122 282.502 213.54 282.815 213.93 283.167L213.35 284.136C213.008 283.794 212.638 283.48 212.258 283.176C211.773 284.117 211.165 284.905 210.358 285.58L209.455 284.943C210.272 284.316 210.937 283.48 211.393 282.559ZM208.429 281.447C207.299 281.381 206.624 282.302 206.624 283.129C206.624 283.29 206.672 283.613 206.89 283.613C207.223 283.613 207.85 282.568 208.429 281.447Z" fill="#6F6356"/>
<path d="M197.077 280.345C196.668 279.832 196.203 279.395 195.709 279.053L196.184 278.284C196.279 278.36 196.383 278.426 196.469 278.502C196.906 277.856 197.029 277.609 197.343 276.935L198.283 277.248C197.913 277.961 197.59 278.445 197.124 279.082C197.286 279.243 197.447 279.405 197.599 279.576C197.951 279.053 198.274 278.502 198.587 277.942L199.471 278.322C198.901 279.215 198.217 280.155 197.571 281.048C197.979 281.029 198.378 281.001 198.787 280.982C198.711 280.725 198.644 280.545 198.53 280.298L199.338 280.013C199.67 280.735 199.794 281.124 199.974 281.884L199.1 282.16C199.062 282.008 199.034 281.846 198.986 281.694L198.207 281.77V285.874H197.276V281.865C196.754 281.903 196.222 281.951 195.699 281.998L195.633 281.115C195.937 281.115 196.222 281.115 196.526 281.105C196.716 280.849 196.896 280.602 197.077 280.345ZM196.896 282.635C196.896 283.309 196.744 284.63 196.573 285.238L195.728 284.867C195.965 284.126 196.079 283.309 196.098 282.53L196.896 282.635ZM199.252 282.426C199.499 283.252 199.556 283.461 199.708 284.316L198.863 284.497C198.768 283.756 198.692 283.3 198.502 282.568L199.252 282.426ZM200.079 277.248H204.211V284.668H204.705V285.599H199.271V284.668H200.079V277.248ZM203.242 278.17H201.029V279.68H203.242V278.17ZM203.242 280.573H201.029V282.046H203.242V280.573ZM203.242 282.939H201.029V284.668H203.242V282.939Z" fill="#6F6356"/>
<path d="M190.493 280.184C191.548 279.804 192.707 279.5 193.79 279.224L194.113 280.288C192.802 280.583 191.035 281.001 189.819 281.542C189.211 281.818 188.289 282.331 188.289 283.1C188.289 283.528 188.546 283.775 188.926 283.927C189.486 284.155 190.465 284.212 191.082 284.212C192.127 284.212 193.163 284.079 194.189 283.917L194.274 285.019C193.248 285.171 192.175 285.247 191.139 285.247C189.714 285.247 187.216 285.095 187.216 283.148C187.216 281.827 188.394 281.077 189.467 280.592C189.382 280.26 189.306 279.918 189.239 279.576L188.821 277.457L189.914 277.248L190.294 279.329C190.351 279.623 190.417 279.899 190.493 280.184Z" fill="#6F6356"/>
<path d="M184.47 283.043H182.76C182.608 284.05 182.238 285.038 181.63 285.855L180.803 285.209C181.117 284.772 181.402 284.316 181.573 283.812C181.953 282.729 182.01 281.447 182.01 280.307V277.219H185.411V285.095C185.411 285.665 185.154 285.855 184.603 285.855H183.387L183.235 284.895H184.166C184.375 284.895 184.47 284.829 184.47 284.61V283.043ZM184.47 278.112H182.931V279.68H184.47V278.112ZM184.47 280.563H182.931L182.865 282.131H184.47V280.563ZM178.827 283.812C178.485 284.572 177.934 285.304 177.317 285.855L176.671 285.123C177.165 284.686 177.659 284.021 177.963 283.432L178.827 283.812ZM177.459 276.925H178.362V277.78H180.167V276.925H181.069V277.78H181.63V278.682H181.069V282.416H181.63V283.29H176.747V282.416H177.459V278.682H176.918V277.78H177.459V276.925ZM180.167 278.682H178.362V279.357H180.167V278.682ZM180.167 280.155H178.362V280.858H180.167V280.155ZM180.167 281.618H178.362V282.416H180.167V281.618ZM180.091 283.442C180.471 283.793 180.822 284.192 181.069 284.648L180.376 285.256C180.186 284.905 179.701 284.24 179.435 283.945L180.091 283.442Z" fill="#6F6356"/>
<path d="M167.513 277.305H170.477V285.218H167.513V277.305ZM169.574 278.264H168.425V280.744H169.574V278.264ZM169.574 281.637H168.425V284.287H169.574V281.637ZM175.236 282.52V284.848C175.236 285.608 174.951 285.817 174.22 285.817H172.823L172.633 284.848H173.982C174.191 284.848 174.258 284.772 174.258 284.563V282.52H170.847V281.608H174.258V280.668H170.771V279.746H172.994V278.644H171.104V277.732H172.994V276.925H173.954V277.732H175.911V278.644H173.954V279.746H176.205V280.668H175.236V281.608H176.129V282.52H175.236ZM171.721 282.682C172.291 283.204 172.595 283.556 173.004 284.211L172.177 284.838C171.721 284.135 171.55 283.85 170.952 283.233L171.721 282.682Z" fill="#6F6356"/>
<path d="M163.893 282.559C163.295 282.179 162.658 281.818 161.965 281.618C161.632 282.283 161.319 282.863 160.901 283.48C160.54 284.012 160.084 284.668 159.371 284.668C158.535 284.668 158.193 283.851 158.193 283.129C158.193 281.628 159.457 280.469 160.939 280.469C161.1 280.469 161.262 280.478 161.433 280.507C161.699 279.899 161.946 279.291 162.193 278.673C161.499 278.749 160.806 278.797 160.112 278.797C159.932 278.797 159.751 278.797 159.571 278.787L159.552 277.761C159.903 277.78 160.264 277.79 160.625 277.79C161.357 277.79 162.145 277.761 162.867 277.609L163.523 278.113C163.152 278.987 162.782 279.851 162.411 280.716C163.067 280.944 163.703 281.229 164.302 281.599C164.52 280.944 164.644 280.326 164.701 279.642L165.727 279.908C165.641 280.763 165.489 281.381 165.195 282.188C165.622 282.502 166.04 282.815 166.43 283.167L165.85 284.136C165.508 283.794 165.138 283.48 164.758 283.176C164.273 284.117 163.665 284.905 162.858 285.58L161.955 284.943C162.772 284.316 163.437 283.48 163.893 282.559ZM160.929 281.447C159.799 281.381 159.124 282.302 159.124 283.129C159.124 283.29 159.172 283.613 159.39 283.613C159.723 283.613 160.35 282.568 160.929 281.447Z" fill="#6F6356"/>
<path d="M153.833 278.208H151.819V277.267H154.83C154.925 279.68 155.524 281.618 157.357 283.281L156.673 284.164C155.438 282.929 154.678 281.628 154.289 279.918C153.804 281.58 152.721 282.996 151.42 284.107L150.688 283.224C152.389 282.207 153.557 280.146 153.833 278.208ZM149.083 277.077C149.767 277.571 150.28 278.027 150.821 278.673L150.118 279.395C149.624 278.768 149.045 278.227 148.427 277.742L149.083 277.077ZM148.304 280.583H150.394V283.623C150.907 284.43 151.486 284.62 152.408 284.62H157.281L157.101 285.589H152.626C151.515 285.589 150.688 285.333 149.995 284.44C149.624 284.905 149.13 285.418 148.665 285.798L148.171 284.639C148.617 284.383 149.045 284.088 149.444 283.756V281.533H148.304V280.583Z" fill="#6F6356"/>
<path d="M140.58 277.371L141.72 277.438L141.53 282.264C141.521 282.359 141.521 282.444 141.521 282.53C141.521 283.081 141.559 283.641 142.024 284.002C142.347 284.259 142.784 284.344 143.193 284.344C144.903 284.344 145.815 282.767 146.28 281.323L147.268 281.884C146.575 283.793 145.425 285.408 143.193 285.408C142.3 285.408 141.312 285.142 140.799 284.344C140.457 283.822 140.4 283.242 140.4 282.625C140.4 282.53 140.409 282.425 140.409 282.33L140.58 277.371Z" fill="#6F6356"/>
<path d="M134.215 285.845H133.218V283.546H129.826V278.169H133.218V276.943H134.215V278.169H137.626V283.546H134.215V285.845ZM130.795 279.081V280.401H133.218V279.081H130.795ZM136.666 279.081H134.215V280.401H136.666V279.081ZM130.795 281.256V282.624H133.218V281.256H130.795ZM136.666 281.256H134.215V282.624H136.666V281.256Z" fill="#6F6356"/>
<path d="M122.483 278.863V277.248H123.518V278.797C124.183 278.721 124.753 278.635 125.409 278.483L125.428 279.538C124.791 279.642 124.155 279.728 123.518 279.804V280.782C124.174 280.592 124.772 280.44 125.456 280.44C126.406 280.44 127.347 280.754 127.841 281.618C128.059 282.008 128.173 282.464 128.173 282.91C128.173 283.642 127.85 284.44 127.204 284.839C126.786 285.105 126.264 285.209 125.77 285.209C125.428 285.209 125.133 285.162 124.801 285.057L124.791 283.965C125.105 284.098 125.38 284.174 125.722 284.174C126.53 284.174 127.09 283.718 127.09 282.882C127.09 281.808 126.254 281.409 125.304 281.409C124.658 281.409 124.126 281.552 123.518 281.77V283.623C123.518 283.927 123.518 284.288 123.433 284.582C123.271 285.105 122.853 285.39 122.312 285.39C121.808 285.39 121.276 285.181 120.887 284.886C120.478 284.573 120.241 284.155 120.241 283.632C120.241 282.483 121.542 281.599 122.483 281.162V279.88C122.008 279.908 121.542 279.927 121.077 279.927C120.896 279.927 120.725 279.918 120.545 279.918L120.535 278.863C120.896 278.882 121.248 278.882 121.609 278.882C121.894 278.882 122.188 278.882 122.483 278.863ZM122.502 282.226C122.027 282.492 121.172 283.034 121.172 283.651C121.172 284.088 121.751 284.421 122.131 284.421C122.483 284.421 122.502 284.069 122.502 283.775V282.226ZM125.827 278.645L126.482 277.923C127.271 278.426 127.888 278.958 128.515 279.671L127.746 280.393C127.166 279.671 126.615 279.148 125.827 278.645Z" fill="#6F6356"/>
<path d="M115.576 278.654C115.576 279.11 115.206 279.48 114.75 279.48C114.294 279.48 113.923 279.11 113.923 278.654C113.923 278.198 114.294 277.837 114.75 277.837C115.206 277.837 115.576 278.198 115.576 278.654ZM118.227 284.335L117.695 284.867L114.75 281.903L111.805 284.867L111.273 284.335L114.237 281.39L111.273 278.445L111.805 277.913L114.75 280.877L117.695 277.913L118.227 278.445L115.263 281.39L118.227 284.335ZM112.84 281.39C112.84 281.846 112.47 282.216 112.014 282.216C111.558 282.216 111.197 281.846 111.197 281.39C111.197 280.934 111.558 280.563 112.014 280.563C112.47 280.563 112.84 280.934 112.84 281.39ZM118.303 281.39C118.303 281.846 117.942 282.216 117.486 282.216C117.03 282.216 116.659 281.846 116.659 281.39C116.659 280.934 117.03 280.563 117.486 280.563C117.942 280.563 118.303 280.934 118.303 281.39ZM115.576 284.126C115.576 284.582 115.206 284.943 114.75 284.943C114.294 284.943 113.923 284.582 113.923 284.126C113.923 283.67 114.294 283.299 114.75 283.299C115.206 283.299 115.576 283.67 115.576 284.126Z" fill="#6F6356"/>
<path d="M305.51 185.618H282.116V200.906H275.648V162.266H312.02V196.034C312.02 199.226 310.718 200.906 307.442 200.906H299.588L298.454 194.396H304.25C305.258 194.396 305.51 194.018 305.51 193.094V185.618ZM296.942 168.44V179.57H305.51V168.44H296.942ZM282.116 168.44V179.57H290.684V168.44H282.116Z" fill="#B61C31"/>
<path d="M258.767 197.965C250.913 197.965 246.167 191.876 246.167 180.452C246.167 169.028 250.913 162.938 258.767 162.938C266.621 162.938 271.367 169.028 271.367 180.452C271.367 191.876 266.621 197.965 258.767 197.965ZM258.767 191.456C261.749 191.456 263.429 188.18 263.429 180.452C263.429 172.724 261.749 169.448 258.767 169.448C255.785 169.448 254.105 172.724 254.105 180.452C254.105 188.18 255.785 191.456 258.767 191.456Z" fill="#B61C31"/>
<path d="M230.631 197.965C222.777 197.965 218.031 191.876 218.031 180.452C218.031 169.028 222.777 162.938 230.631 162.938C238.485 162.938 243.231 169.028 243.231 180.452C243.231 191.876 238.485 197.965 230.631 197.965ZM230.631 191.456C233.613 191.456 235.293 188.18 235.293 180.452C235.293 172.724 233.613 169.448 230.631 169.448C227.649 169.448 225.969 172.724 225.969 180.452C225.969 188.18 227.649 191.456 230.631 191.456Z" fill="#B61C31"/>
<path d="M202.242 198.176C194.598 198.176 189.894 194.648 189.894 189.062C189.894 185.198 192.33 182.3 196.11 180.662C193.044 178.982 190.608 176.504 190.608 172.052C190.608 165.962 195.984 162.77 202.62 162.77C210.306 162.77 214.254 166.718 214.254 171.632C214.254 174.824 212.322 177.806 208.584 179.402C212.07 181.082 215.094 183.602 215.094 188.306C215.094 194.732 209.928 198.176 202.242 198.176ZM198.336 172.262C198.336 174.614 200.478 176.042 203.292 177.26C205.686 175.958 206.526 173.984 206.526 172.43C206.526 169.994 204.888 168.734 202.452 168.734C199.89 168.734 198.336 170.162 198.336 172.262ZM197.622 188.096C197.622 190.616 199.512 192.128 202.494 192.128C205.728 192.128 207.366 190.28 207.366 188.222C207.366 185.576 204.552 184.232 201.234 182.93C198.672 184.274 197.622 186.206 197.622 188.096Z" fill="#B61C31"/>
<path d="M180.447 204.728L174.483 203.846C176.877 199.94 177.927 195.908 177.927 191.414C177.927 190.112 177.801 189.02 177.759 188.516H185.067C185.109 189.062 185.277 190.238 185.277 191.666C185.277 196.538 183.639 201.074 180.447 204.728Z" fill="#B61C31"/>
<path d="M162.181 197.335V190.489H147.103V184.189L161.677 163.399H169.237V184.189H173.395V190.489H169.237V197.335H162.181ZM153.949 184.189H162.181V172.219L153.949 184.189Z" fill="#B61C31"/>
<path d="M141.562 170.162C139.924 169.49 138.454 169.196 136.228 169.196C130.684 169.196 127.996 172.514 127.324 178.436C129.298 176.546 131.692 175.538 134.59 175.538C140.848 175.538 144.922 179.738 144.922 186.164C144.922 192.884 140.302 198.008 132.658 198.008C124.468 198.008 119.554 192.38 119.554 181.418C119.554 169.742 125.518 162.896 136.186 162.896C138.706 162.896 140.764 163.274 142.444 163.778L141.562 170.162ZM132.574 180.956C130.264 180.956 128.458 182.048 127.198 183.686C127.576 189.188 129.34 191.624 132.406 191.624C135.43 191.624 136.984 189.272 136.984 186.038C136.984 182.846 135.43 180.956 132.574 180.956Z" fill="#B61C31"/>
<path d="M288.004 248.896H279.244V238.888C278.668 239.488 278.092 240.016 277.468 240.544L275.356 236.992C277.612 235.144 279.892 232.264 280.612 229.408L284.932 229.6C284.716 230.2 284.524 230.8 284.284 231.376H298.012C297.964 235.84 297.988 240.304 297.748 244.744C297.652 246.208 297.532 248.032 297.124 249.424C296.5 251.56 294.82 252.304 292.732 252.304H288.844L288.004 248.896ZM291.796 248.608C292.924 248.56 293.428 248.44 293.716 247.264C294.268 245.008 294.268 237.736 294.268 235.072H282.292C281.956 235.6 281.596 236.104 281.212 236.584H291.796V248.608ZM288.268 239.752H282.796V241.336H288.268V239.752ZM288.268 244.072H282.796V245.68H288.268V244.072Z" fill="#6F6356"/>
<path d="M252.676 233.175H261.268V229.479H264.964V233.175H273.676V245.919H264.964V252.231H261.268V245.919H252.676V233.175ZM261.268 236.679H256.348V242.415H261.268V236.679ZM270.004 236.679H264.964V242.415H270.004V236.679Z" fill="#6F6356"/>
<path d="M237.67 254.511L246.862 229.959H250.606L241.39 254.511H237.67Z" fill="#6F6356"/>
<path d="M223.393 248.895L224.113 244.983C225.625 246.087 227.425 246.783 229.249 246.783C231.409 246.783 232.633 246.063 232.633 244.455C232.633 242.967 231.649 242.007 228.265 242.007H226.177V238.791H228.097C230.737 238.791 232.201 237.903 232.201 236.247C232.201 234.951 231.265 234.279 229.513 234.279C227.977 234.279 226.465 234.879 225.121 236.127L223.537 232.695C225.433 231.207 227.641 230.535 230.041 230.535C234.073 230.535 236.665 232.095 236.665 235.455C236.665 237.711 235.345 239.487 232.873 240.207C235.561 240.759 237.121 242.295 237.121 244.839C237.121 248.439 234.217 250.575 229.657 250.575C227.233 250.575 224.929 249.927 223.393 248.895Z" fill="#6F6356"/>
<path d="M206.689 231.424H220.825V234.88H213.625V237.184H220.057V240.544H213.625V243.736H221.665V247.192H213.625V252.256H209.929V247.192H198.961V243.736H202.201V238.384C201.817 238.768 201.385 239.152 200.953 239.512L198.601 236.344C200.881 234.568 202.705 232.048 203.497 229.264L207.241 229.768C207.073 230.344 206.905 230.848 206.689 231.424ZM204.937 234.88C204.433 235.696 203.881 236.44 203.281 237.184H209.929V234.88H204.937ZM209.929 240.544H205.777V243.736H209.929V240.544Z" fill="#6F6356"/>
<path d="M183.434 248.896L184.13 244.984C185.57 246.088 187.226 246.784 189.242 246.784C191.354 246.784 192.626 245.896 192.626 244.24C192.626 242.44 191.402 241.552 188.186 241.552C186.962 241.552 185.474 241.768 184.562 241.984V230.896H196.034V234.736H188.33V238.48C189.002 238.432 189.722 238.384 190.394 238.384C194.522 238.384 197.09 240.4 197.09 244.288C197.09 248.128 194.186 250.576 189.65 250.576C187.154 250.576 185.018 249.904 183.434 248.896Z" fill="#6F6356"/>
<path d="M167.476 250.192V246.856L173.5 241.336C175.324 239.608 176.188 238.504 176.188 237.016C176.188 235.408 175.132 234.4 173.524 234.4C171.868 234.4 170.452 235.408 169.348 237.064L167.404 233.632C169.084 231.664 171.316 230.512 174.076 230.512C177.988 230.512 180.652 232.72 180.652 236.368C180.652 239.128 179.284 240.904 176.188 243.688L173.212 246.352H180.844V250.192H167.476Z" fill="#6F6356"/>
<path d="M158.118 250.551C153.63 250.551 150.918 247.071 150.918 240.543C150.918 234.015 153.63 230.535 158.118 230.535C162.606 230.535 165.318 234.015 165.318 240.543C165.318 247.071 162.606 250.551 158.118 250.551ZM158.118 246.831C159.822 246.831 160.782 244.959 160.782 240.543C160.782 236.127 159.822 234.255 158.118 234.255C156.414 234.255 155.454 236.127 155.454 240.543C155.454 244.959 156.414 246.831 158.118 246.831Z" fill="#6F6356"/>
<path d="M135.32 250.192V246.856L141.344 241.336C143.168 239.608 144.032 238.504 144.032 237.016C144.032 235.408 142.976 234.4 141.368 234.4C139.712 234.4 138.296 235.408 137.192 237.064L135.248 233.632C136.928 231.664 139.16 230.512 141.92 230.512C145.832 230.512 148.496 232.72 148.496 236.368C148.496 239.128 147.128 240.904 144.032 243.688L141.056 246.352H148.688V250.192H135.32Z" fill="#6F6356"/>
<path d="M115.952 244.6L112.256 244.168C112.4 239.344 114.992 237.136 117.872 237.136C119.888 237.136 121.52 238.096 123.296 239.368C124.496 240.208 125.216 240.544 125.912 240.544C127.136 240.544 127.904 239.224 128.048 237.16L131.744 237.592C131.6 242.416 129.008 244.624 126.152 244.624C124.112 244.624 122.48 243.664 120.704 242.392C119.504 241.552 118.808 241.216 118.088 241.216C116.864 241.216 116.096 242.56 115.952 244.6Z" fill="#6F6356"/>
<path d="M100 36H234V103H100V36Z" fill="white"/>
<path fill-rule="evenodd" clip-rule="evenodd" d="M231 39H103V100H231V39ZM100 36V103H234V36H100Z" fill="#B61C31"/>
<path d="M100 17H234V44.4599L167 50L100 44.4599V17Z" fill="#B61C31"/>
<path d="M204.835 25.752L207.651 25.96C207.331 27.016 207.251 27.896 207.075 28.984C208.035 27.944 209.251 27.24 210.707 27.24C211.859 27.24 213.251 27.784 213.971 28.712C214.867 29.848 215.091 31.64 215.091 33.048C215.091 35.24 214.451 37.416 212.499 38.648C210.579 39.88 207.971 39.976 205.747 40.104L205.059 37.656C206.915 37.624 209.123 37.608 210.755 36.68C212.195 35.864 212.387 34.28 212.387 32.76C212.387 31.24 212.259 29.64 210.307 29.64C209.219 29.64 208.451 30.168 207.795 30.984C207.235 31.688 206.979 32.28 206.819 33.176C206.803 34.056 206.883 34.92 206.931 35.8L204.323 35.928C204.243 35.24 204.211 34.76 204.211 34.056C204.211 31.416 204.499 28.376 204.835 25.752Z" fill="white"/>
<path d="M194.339 35.0636C193.587 37.4796 191.875 39.3356 189.619 40.6956L187.891 38.7116C188.451 38.4236 188.899 38.1516 189.411 37.7676C189.235 37.8156 189.011 37.8636 188.819 37.8636H187.027C186.067 37.8636 185.603 37.1596 185.603 36.2636V32.0556L184.435 32.2796L184.371 29.8796L185.603 29.6556V25.3516H187.987V29.2076L190.707 28.7116L190.819 31.0956L187.987 31.6236V35.1916C187.987 35.4316 188.035 35.4796 188.275 35.4796H188.739C188.883 35.4796 188.963 35.3676 189.027 34.9996C189.091 34.5836 189.155 33.8156 189.171 33.2236L191.027 33.6396C190.915 35.0476 190.755 36.0556 190.467 36.8556C191.635 35.7196 192.275 34.5516 192.547 31.7196C192.627 30.8716 192.691 29.7196 192.707 28.2476H190.211V25.8636H199.139C199.139 28.9196 199.123 31.1276 199.107 32.7116C199.059 35.9276 198.899 37.5916 198.579 38.8876C198.307 40.0076 197.507 40.4876 196.595 40.4876H193.763L193.299 38.0876H195.315C195.811 38.0876 196.035 38.0396 196.195 37.4956C196.307 37.1276 196.419 36.3756 196.483 35.4796C196.595 33.9436 196.675 32.5036 196.675 30.6476V28.2476H195.123C195.075 31.2716 194.899 33.2716 194.339 35.0636Z" fill="white"/>
<path d="M168.963 33.9601C168.243 34.0561 167.539 34.1201 166.835 34.1681L166.707 32.0561C167.011 32.0561 167.315 32.0401 167.619 32.0241C167.859 31.7041 168.115 31.3841 168.355 31.0481C167.763 30.3121 167.267 29.7361 166.515 29.1761L167.443 27.1121C167.571 27.2241 167.699 27.3201 167.827 27.4321C168.211 26.7281 168.515 26.0401 168.771 25.2881L170.739 25.7041C170.371 26.7121 169.715 27.8161 169.107 28.6801C169.267 28.8561 169.427 29.0481 169.587 29.2241C170.067 28.4561 170.531 27.6881 170.963 26.9041L172.595 27.4801V26.3121H176.035V25.3361H178.371V26.3121H181.923V28.2961H180.739C180.659 28.7441 180.595 29.0801 180.451 29.5121H181.763V33.2401H181.043V38.1361C181.043 39.1281 180.771 39.4801 179.747 39.4801H178.707L178.259 37.2401H178.787C179.043 37.2401 179.059 37.1601 179.059 36.9361V34.6801H178.227V40.5041H176.227V34.6801H175.395V39.4641H173.459V33.2401H173.155C173.187 33.4161 173.235 33.5761 173.283 33.7361L171.603 34.3121C171.571 34.0881 171.539 33.8641 171.507 33.6401L170.819 33.7201V40.5041H168.963V33.9601ZM172.595 27.9921C171.715 29.3681 170.691 30.7281 169.619 31.9761C170.115 31.9441 170.611 31.9281 171.107 31.8961C170.995 31.5441 170.883 31.1761 170.739 30.8241L172.147 30.3441C172.355 30.8241 172.547 31.3041 172.707 31.8001V29.5121H174.067C173.955 29.1121 173.827 28.7121 173.715 28.2961H172.595V27.9921ZM178.467 28.2961H175.987C176.131 28.7281 176.211 29.0801 176.307 29.5121H178.147C178.307 29.1121 178.403 28.7281 178.467 28.2961ZM174.819 32.7121H176.227V31.4961H174.819V32.7121ZM178.227 31.4961V32.7121H179.667V31.4961H178.227ZM168.579 34.8561C168.531 36.2641 168.419 38.2641 168.035 39.6081L166.467 38.6001C166.851 37.3041 166.995 35.9761 167.027 34.6321L168.579 34.8561ZM172.611 34.6481C172.867 35.8801 172.979 37.0481 173.027 38.3121L171.443 38.5521C171.443 38.4401 171.443 38.2961 171.443 38.1841C171.443 37.0641 171.363 35.9761 171.187 34.8721L172.611 34.6481Z" fill="white"/>
<path d="M161.315 39.7203H152.067V40.4083H149.683V26.0723H163.763V40.4083H161.315V39.7203ZM161.315 37.4803V28.2963H152.067V37.4803H161.315ZM153.171 29.4003H160.179V36.3123H153.171V29.4003ZM155.219 31.3043V34.3763H158.083V31.3043H155.219Z" fill="white"/>
<path d="M135.148 30.7437C135.164 29.4957 135.164 28.1997 136.172 27.2877C137.244 26.3277 139.292 26.2637 140.668 26.2637C143.74 26.2637 146.332 26.4877 146.332 30.2797C146.332 31.2557 146.188 32.4077 145.468 33.1277C144.892 33.7037 143.836 34.1357 142.988 34.2317L139.052 34.7117C138.732 34.7597 138.124 34.8717 137.9 35.0957C137.66 35.3357 137.548 35.8797 137.548 36.1997V36.5997H146.252V38.9997H134.924V36.7597C134.924 35.5757 135.004 34.4877 135.772 33.5277C136.316 32.8397 137.228 32.5197 138.076 32.4077L142.172 31.9437C143.276 31.8157 143.724 31.5437 143.724 30.3757C143.724 29.7677 143.596 29.2237 142.988 28.9357C142.476 28.6957 141.132 28.6637 140.54 28.6637C138.06 28.6637 137.772 29.0477 137.74 30.7437H135.148Z" fill="white"/>
<path d="M128.924 29.5122H131.02V33.6562H125.596V34.4882H131.692C131.644 36.1362 131.564 37.5282 131.42 38.3442C131.356 38.7122 131.244 39.0642 130.972 39.3362C130.716 39.6082 130.3 39.7522 129.916 39.7522H127.164L126.732 37.4802H128.636C128.892 37.4802 129.052 37.4482 129.116 37.3202C129.196 37.1762 129.212 36.8882 129.244 36.2962H125.596V40.4882H123.276V37.3202C121.66 38.7602 119.868 39.6082 117.788 40.1682L116.7 37.8322C118.364 37.5442 119.804 37.1122 121.292 36.2962H117.26C117.804 34.8402 118.06 33.6562 118.268 32.1042H123.276V31.2562H117.596V29.5122H117.788L116.668 28.1522C117.708 27.4322 118.54 26.3922 119.052 25.2402L121.5 25.4962C121.42 25.7842 121.372 25.9442 121.244 26.2162H124.204V27.6082C124.876 26.8882 125.34 26.1842 125.692 25.2562L128.076 25.5122C127.996 25.7522 127.916 25.9762 127.836 26.2162H131.996V28.2802H129.516C129.708 28.5522 129.884 28.8562 130.028 29.1602L128.924 29.5122ZM120.572 29.5122C120.428 29.0482 120.332 28.7442 120.14 28.2802H119.948C119.596 28.7282 119.212 29.1442 118.764 29.5122H120.572ZM121.74 29.5122H124.86L123.484 28.3442L123.564 28.2802H122.476C122.636 28.5682 122.796 28.8722 122.908 29.1762L121.74 29.5122ZM125.58 29.5122H127.548C127.372 29.0962 127.212 28.6802 127.036 28.2802H126.668C126.332 28.7282 125.98 29.1282 125.58 29.5122ZM125.596 32.1042H128.668V31.2562H125.596V32.1042ZM123.276 33.6562H120.412C120.38 33.9282 120.348 34.2322 120.252 34.4882H123.276V33.6562Z" fill="white"/>
<path d="M190.46 66.8918V68.5298H184.412V70.0838H191.636V74.1158H184.412V75.7118H193.274V80.2898H169.502V75.7118H178.868V74.1158H171.77V70.0838H178.868V68.5298H172.862V66.8918H170.342V57.8198H178.49V55.1318H184.748V57.8198H193.232V66.8918H190.46ZM207.764 55.1318V89.4458C207.764 93.1418 206.882 94.9058 202.892 94.9058H196.718L195.416 88.3118H200.666C201.674 88.3118 201.884 88.0178 201.884 87.0098V55.1318H207.764ZM194.492 57.2318H199.616V84.8678H194.492V57.2318ZM187.94 64.7078V62.5238H175.718V64.7078H178.868V63.2798H184.412V64.7078H187.94ZM171.644 81.6758H191.846V94.3178H171.644V81.6758ZM185.798 85.9178H177.692V89.9078H185.798V85.9178Z" fill="#6F6356"/>
<path d="M162.866 79.8696V85.8336H146.024V94.9476H139.64V85.8336H123.134V79.8696H139.64V76.6776H126.788V56.3496H159.212V76.6776H146.024V79.8696H162.866ZM152.87 61.8096H133.004V64.3296H152.87V61.8096ZM152.87 68.9916H133.004V71.6796H152.87V68.9916Z" fill="#6F6356"/>
<path d="M16 171H102V200H16V171Z" fill="#B61C31"/>
<path d="M83.5843 178.352H86.0003V179.488H91.9843V183.648H89.6003V181.616H80.0163V183.648H77.6323V179.488H83.5843V178.352ZM81.5523 188.576C82.0483 189.376 82.7203 189.968 83.6003 190.304V185.168H80.4643V182.992H89.1523V185.168H85.9843V186.688H90.6243V188.88H85.9843V190.784C86.2723 190.8 86.5603 190.816 86.8483 190.816H92.5603L92.0643 193.2H86.4163C83.9683 193.2 82.3363 192.592 80.7523 190.672C80.1763 191.888 79.6483 192.64 78.6563 193.552L77.0083 191.6C78.7683 190.064 79.4883 187.936 79.7603 185.68L82.0803 185.984C81.9523 186.928 81.8083 187.664 81.5523 188.576Z" fill="white"/>
<path d="M66.3362 190.912V178.72H74.2722V186.432H73.9522L74.9921 188.224C74.3681 188.768 73.8401 189.136 73.1362 189.552C73.6961 190.256 74.2722 190.784 74.9762 191.36L73.5042 193.552C71.3281 191.856 69.9842 189.12 69.5362 186.432H68.6401V190.56C69.3281 190.448 70.0002 190.32 70.6882 190.16L70.8481 192.304C69.0561 192.8 67.2001 193.088 65.3601 193.408L65.0401 191.072C65.4721 191.024 65.9042 190.976 66.3362 190.912ZM59.9521 178.72H65.7441V180.928C65.4401 182.032 65.0562 183.168 64.6082 184.208C65.5202 185.184 65.9041 186.576 65.9041 187.888C65.9041 188.608 65.7441 189.456 65.2001 189.952C64.9121 190.224 64.4322 190.448 64.0322 190.448H62.7201L62.3681 188.16H62.8162C63.4242 188.16 63.5522 187.92 63.5522 187.344C63.5522 186.208 63.1681 185.344 62.3681 184.56C62.8481 183.328 63.1522 182.192 63.4402 180.912H62.2561V193.52H59.9521V178.72ZM71.9682 180.816H68.6401V181.808H71.9682V180.816ZM71.9682 183.456H68.6401V184.496H71.9682V183.456ZM72.1121 187.808C72.6721 187.376 73.2161 186.96 73.6961 186.432H71.6161C71.7601 186.928 71.9041 187.328 72.1121 187.808Z" fill="white"/>
<path d="M43.1844 178.672H56.0324V182.832H43.1844V178.672ZM45.5524 180.416H53.7284V179.904H45.5524V180.416ZM45.5524 181.296V181.808H53.7284V181.296H45.5524ZM57.2004 183.264V184.64H41.9844V183.264H57.2004ZM55.9364 185.104V189.152H50.7364V189.616H56.3204V190.944H50.7364V191.424H57.2004V193.072H41.9844V191.424H48.4484V190.944H42.8804V189.616H48.4484V189.152H43.2964V185.104H55.9364ZM53.6484 186.144H50.7364V186.656H53.6484V186.144ZM48.4484 186.144H45.6324V186.656H48.4484V186.144ZM48.4484 187.584H45.6324V188.096H48.4484V187.584ZM53.6484 187.584H50.7364V188.096H53.6484V187.584Z" fill="white"/>
<path d="M36.0642 191.231C35.1362 192.175 34.2242 192.815 33.0882 193.455L31.9682 191.807L31.1842 193.167C30.5602 192.719 30.0482 192.431 29.3602 192.095C28.0962 192.911 26.7682 193.327 25.2962 193.583L24.4482 191.599C25.3442 191.519 26.1602 191.375 27.0082 191.055C26.3202 190.799 25.5522 190.495 24.8322 190.351C25.2642 189.727 25.4722 189.311 25.7922 188.623H24.4482V186.703H26.5602C26.7042 186.303 26.8162 185.919 26.9122 185.519L27.5362 185.583V183.871C26.8322 184.751 26.1762 185.359 25.2002 185.951L24.0962 184.223C25.0562 183.887 25.8242 183.279 26.5602 182.591H24.4482V180.767H25.3762C25.1842 180.111 24.9442 179.487 24.6242 178.879L26.2882 178.287C26.6562 178.991 26.9122 179.471 27.1682 180.239L25.7602 180.767H27.5362V178.303H29.7762V180.767H31.6802L29.9682 180.255C30.3842 179.599 30.6722 178.959 30.9282 178.239L32.7842 178.719C32.4802 179.471 32.1602 180.063 31.7762 180.767H32.5602V182.591H30.4962C30.9442 183.039 31.4402 183.439 31.9842 183.775C33.0402 182.191 33.7122 180.079 33.9042 178.191L36.2562 178.447C36.1602 179.119 36.0482 179.775 35.9042 180.447H39.6002V182.863H39.0882C38.9442 184.927 38.6242 187.311 37.6162 189.151C38.2882 189.983 38.9922 190.575 39.8882 191.151L38.5602 193.503C37.5682 192.831 36.8162 192.159 36.0642 191.231ZM36.1922 186.751C36.6402 185.455 36.7842 184.223 36.8322 182.863H35.1842C35.3442 184.223 35.6642 185.503 36.1922 186.751ZM34.7682 189.183C34.2402 188.015 33.9202 186.879 33.6642 185.631C33.4402 185.951 33.2642 186.159 33.0082 186.447L31.5682 184.815L31.1042 185.423C30.5282 185.007 30.2082 184.639 29.7762 184.079V185.807H29.1682C29.0722 186.111 28.9762 186.399 28.8642 186.703H32.7202V188.623H31.9202C31.6962 189.327 31.4242 189.903 31.0082 190.511C31.4082 190.671 31.8082 190.847 32.2082 191.023C33.2002 190.575 34.0322 189.983 34.7682 189.183ZM28.0962 188.623C27.9682 188.911 27.8402 189.199 27.6962 189.487C28.1602 189.583 28.6242 189.695 29.0722 189.823C29.4242 189.439 29.6322 189.103 29.8402 188.623H28.0962Z" fill="white"/>
<path d="M227.816 264.361L227.348 265.441C227.072 265.021 226.904 264.709 226.688 264.253V268.129H224.972V264.445C224.54 265.321 224.132 265.909 223.508 266.653L222.896 264.517C223.736 263.845 224.3 262.993 224.78 262.045H223.136V260.401H224.972V256.753H226.688V260.401H228.368V261.385L229.388 260.197C230.156 260.665 230.804 261.193 231.416 261.841L230.18 263.173C229.676 262.549 229.04 261.937 228.368 261.529V262.045H226.808C227.144 262.681 227.588 263.245 228.092 263.749L227.996 263.977L231.68 263.269V258.973L230.612 260.173C230 259.429 229.496 258.949 228.716 258.397L229.808 257.209C230.492 257.629 231.128 258.121 231.68 258.709V256.729H233.528V262.897L234.392 262.729L234.548 264.517L233.528 264.709V268.093H231.68V265.069L228.02 265.777L227.816 264.361ZM228.812 257.485C228.656 258.325 228.332 259.273 227.96 260.041L226.76 259.501C227.048 258.829 227.324 257.869 227.42 257.149L228.812 257.485ZM224.18 257.185C224.456 257.893 224.684 258.757 224.792 259.513L223.52 260.029C223.46 259.117 223.292 258.385 222.956 257.545L224.18 257.185Z" fill="#6F6356"/>
<path d="M211.688 259.464C211.364 259.764 211.136 259.944 210.752 260.148L209.732 258.744C210.572 258.252 211.46 257.544 211.868 256.632L213.656 256.848C213.548 257.124 213.464 257.28 213.32 257.532H221V259.152H220.028V260.328H221.3V261.972H220.028V263.16H221V264.78H210.2V263.16H211.544V261.972H209.924V260.328H211.688V259.464ZM213.944 259.152H213.08V260.328H213.944V259.152ZM216.188 259.152H215.312V260.328H216.188V259.152ZM218.432 259.152H217.556V260.328H218.432V259.152ZM213.944 261.972H213.08V263.16H213.944V261.972ZM216.188 261.972H215.312V263.16H216.188V261.972ZM218.432 261.972H217.556V263.16H218.432V261.972ZM212.744 265.38C212.396 266.472 212.036 267.372 211.304 268.26L209.78 267.216C210.44 266.52 210.848 265.704 211.172 264.804L212.744 265.38ZM219.8 264.804C220.496 265.728 220.892 266.388 221.396 267.432L219.716 268.236C219.332 267.264 218.804 266.34 218.24 265.464L219.8 264.804ZM217.28 265.116C217.604 265.884 218.048 267.156 218.168 267.96L216.38 268.104C216.26 267.096 216.02 266.184 215.684 265.236L217.28 265.116ZM214.832 265.2C214.976 266.004 215.06 267.216 215.06 268.032L213.248 268.08C213.344 267.504 213.344 266.76 213.344 266.172C213.344 265.848 213.344 265.56 213.32 265.248L214.832 265.2Z" fill="#6F6356"/>
<path d="M201.416 264.361L200.948 265.441C200.672 265.021 200.504 264.709 200.288 264.253V268.129H198.572V264.445C198.14 265.321 197.732 265.909 197.108 266.653L196.496 264.517C197.336 263.845 197.9 262.993 198.38 262.045H196.736V260.401H198.572V256.753H200.288V260.401H201.968V261.385L202.988 260.197C203.756 260.665 204.404 261.193 205.016 261.841L203.78 263.173C203.276 262.549 202.64 261.937 201.968 261.529V262.045H200.408C200.744 262.681 201.188 263.245 201.692 263.749L201.596 263.977L205.28 263.269V258.973L204.212 260.173C203.6 259.429 203.096 258.949 202.316 258.397L203.408 257.209C204.092 257.629 204.728 258.121 205.28 258.709V256.729H207.128V262.897L207.992 262.729L208.148 264.517L207.128 264.709V268.093H205.28V265.069L201.62 265.777L201.416 264.361ZM202.412 257.485C202.256 258.325 201.932 259.273 201.56 260.041L200.36 259.501C200.648 258.829 200.924 257.869 201.02 257.149L202.412 257.485ZM197.78 257.185C198.056 257.893 198.284 258.757 198.392 259.513L197.12 260.029C197.06 259.117 196.892 258.385 196.556 257.545L197.78 257.185Z" fill="#6F6356"/>
<path d="M192.272 262.643C192.944 263.603 193.892 264.167 194.996 264.503L193.976 266.099H195.092L194.744 267.839H188.552C187.472 267.839 186.5 267.467 185.84 266.579C185.324 267.203 184.772 267.707 184.088 268.163L183.38 266.171C183.872 265.931 184.196 265.703 184.616 265.355V262.871H183.572V261.191H186.344V264.683C186.536 265.547 187.064 265.907 187.916 266.051L186.812 264.527C187.844 264.155 188.828 263.615 189.392 262.643H186.764V260.939H189.884V259.895H187.088V258.191H188.156C188 257.759 187.832 257.423 187.616 257.015L189.38 256.691C189.608 257.171 189.824 257.699 190.004 258.191H191.54C191.756 257.783 191.996 257.147 192.104 256.691L193.916 256.967C193.772 257.387 193.568 257.795 193.376 258.191H194.528V259.895H191.624V260.939H194.864V262.643H192.272ZM184.844 256.823C185.624 257.435 186.224 258.035 186.872 258.779L185.528 260.087C184.976 259.355 184.364 258.659 183.644 258.083L184.844 256.823ZM193.748 266.099C192.416 265.511 191.456 264.563 190.832 263.255C190.364 264.443 189.308 265.511 188.18 266.087C188.372 266.099 188.564 266.099 188.744 266.099H193.748Z" fill="#6F6356"/>
<path d="M16 223H102V287H16V223Z" fill="#6F6356"/>
<path d="M81.0637 271.448L81.0957 272.36C81.1117 272.664 81.1117 272.968 81.1117 273.272C81.1117 276.216 80.5517 278.44 78.0237 280.232L75.7517 278.584C77.9437 277.24 78.5517 275.56 78.5517 273.064C78.5517 272.856 78.5357 272.648 78.5357 272.424L78.5037 271.672C77.5277 271.72 76.5677 271.752 75.5917 271.752C74.9677 271.752 74.3437 271.736 73.7037 271.704L73.6557 269.192C74.4397 269.24 75.2237 269.256 76.0077 269.256C76.8077 269.256 77.6077 269.224 78.4077 269.208L78.2957 266.12H80.9037L80.9997 268.984C81.7517 268.888 82.5037 268.76 83.2397 268.6L83.3677 271.096C82.5997 271.24 81.8477 271.352 81.0637 271.448ZM70.5357 266.232L73.1597 266.536C72.6157 268.808 72.2637 270.984 72.2637 273.32C72.2637 275.304 72.5197 277.16 72.9997 279.064L70.5517 279.448C69.9597 277.592 69.7837 275.352 69.7837 273.416C69.7837 271 70.0717 268.6 70.5357 266.232Z" fill="white"/>
<path d="M61.3997 270.856V271.896H65.6237V280.296H55.0317V271.896H59.1917V270.856H54.5037V272.712C54.5037 275.24 54.0557 278.312 52.7757 280.504L50.8237 278.584C51.7997 276.824 52.1357 274.616 52.1357 272.616V265.784H65.6077V270.856H61.3997ZM63.2397 267.88H54.5037V268.952H63.2397V267.88ZM59.1917 273.848H57.3037V275.128H59.1917V273.848ZM63.3677 273.848H61.3997V275.128H63.3677V273.848ZM59.1917 276.888H57.3037V278.248H59.1917V276.888ZM63.3677 276.888H61.3997V278.248H63.3677V276.888Z" fill="white"/>
<path d="M37.7359 268.296V265.816H40.2319V268.104C41.1599 268.024 42.1199 267.832 43.0159 267.624L43.0639 270.12C42.1199 270.264 41.1759 270.392 40.2319 270.504V271.48C41.1439 271.224 42.0879 271.064 43.0319 271.064C44.7119 271.064 46.3279 271.624 47.1919 273.16C47.5759 273.848 47.7519 274.648 47.7519 275.448C47.7519 276.776 47.1919 278.184 46.0079 278.904C45.2719 279.352 44.3599 279.544 43.4959 279.544C42.9519 279.544 42.5199 279.48 41.9919 279.352L41.9119 276.744C42.3759 276.936 42.7919 277.032 43.2879 277.032C44.3759 277.032 45.1759 276.52 45.1759 275.352C45.1759 273.88 43.9439 273.384 42.6799 273.384C41.8159 273.384 41.0479 273.56 40.2319 273.832V276.648C40.2319 277.208 40.2159 277.816 40.0399 278.312C39.7199 279.304 38.8719 279.816 37.8639 279.816C36.9839 279.816 36.0719 279.48 35.3679 278.968C34.5519 278.392 34.0879 277.576 34.0879 276.568C34.0879 274.584 36.0879 273.112 37.7359 272.376V270.728C36.9039 270.76 36.0719 270.808 35.2239 270.808C35.0479 270.808 34.8719 270.808 34.6959 270.808L34.6639 268.28C35.1919 268.312 35.7359 268.328 36.2639 268.328C36.7599 268.328 37.2399 268.312 37.7359 268.296ZM37.7999 274.904C37.2719 275.224 36.2959 275.896 36.2959 276.6C36.2959 277.096 36.9519 277.496 37.4159 277.496C37.8159 277.496 37.7999 277.064 37.7999 276.616V274.904ZM43.4959 268.456L45.0159 266.76C46.3919 267.608 47.5439 268.616 48.5999 269.816L46.8239 271.528C45.8319 270.232 44.8559 269.336 43.4959 268.456Z" fill="white"/>
<path d="M53.9703 261.49C55.799 259.786 56.0806 257.115 54.5993 255.526C53.118 253.937 50.4347 254.031 48.606 255.736C46.7774 257.44 46.4958 260.11 47.9771 261.7C49.4584 263.289 52.1416 263.195 53.9703 261.49Z" fill="white"/>
<path d="M78.1666 261.492C79.9953 259.788 80.2769 257.117 78.7956 255.528C77.3142 253.939 74.631 254.033 72.8023 255.738C70.9736 257.442 70.692 260.112 72.1734 261.701C73.6547 263.291 76.3379 263.197 78.1666 261.492Z" fill="white"/>
<path d="M34.9347 240.729C34.9347 239.598 34.0177 238.681 32.8865 238.681C31.7554 238.681 30.8384 239.598 30.8384 240.729C30.8384 241.86 31.7554 242.777 32.8865 242.777C34.0177 242.777 34.9347 241.86 34.9347 240.729Z" fill="white"/>
<path d="M69.1238 258.134C69.803 254.787 72.9742 252.127 76.3827 252.127C79.6647 252.127 82.0302 254.594 81.9653 257.766C85.5148 257.859 86.5028 253.198 86.5028 253.198C86.8016 251.895 87.2481 249.354 87.6218 246.86C87.7443 246.09 87.6502 245.302 87.3499 244.582C86.4221 242.422 85.3008 240.35 83.9997 238.391C82.7688 236.56 80.7042 235.476 78.3476 235.436C76.9422 235.414 75.5625 235.401 74.5207 235.401L74.5117 235.392C74.3775 233.151 72.7393 231.435 70.4397 231.23C68.9436 231.097 63.0175 231 60.173 231C59.0428 231 57.4214 231.016 55.781 231.042V231.036H55.7675H36.0442C35.7932 231.036 35.5446 231.085 35.3126 231.18C35.0807 231.276 34.8699 231.417 34.6924 231.594C34.5149 231.771 34.3742 231.981 34.2782 232.212C34.1822 232.443 34.1328 232.691 34.133 232.942V232.95C34.133 233.454 34.3334 233.936 34.6901 234.292C35.0469 234.647 35.5307 234.847 36.0353 234.847H40.011C40.4898 234.883 40.9375 235.097 41.2643 235.447C41.5912 235.798 41.773 236.259 41.7734 236.738V236.748C41.7742 236.998 41.7254 237.246 41.6298 237.478C41.5342 237.71 41.3937 237.92 41.2164 238.098C41.0391 238.276 40.8284 238.416 40.5964 238.513C40.3645 238.609 40.1157 238.659 39.8644 238.659H37.8256C37.319 238.659 36.8332 238.86 36.475 239.217C36.1168 239.574 35.9155 240.059 35.9155 240.564C35.9154 240.814 35.9647 241.062 36.0606 241.293C36.1565 241.524 36.2972 241.734 36.4746 241.911C36.652 242.088 36.8626 242.229 37.0944 242.324C37.3262 242.42 37.5747 242.469 37.8256 242.469H39.8644C40.3713 242.469 40.8575 242.67 41.2159 243.028C41.5743 243.385 41.7757 243.87 41.7757 244.375C41.7757 244.881 41.5743 245.366 41.2159 245.723C40.8575 246.08 40.3713 246.281 39.8644 246.281H32.2374C31.7307 246.281 31.2447 246.482 30.8864 246.839C30.528 247.196 30.3265 247.681 30.3262 248.186C30.3262 248.691 30.5275 249.176 30.886 249.533C31.2444 249.891 31.7305 250.092 32.2374 250.092H39.8644C40.3713 250.092 40.8575 250.292 41.2159 250.65C41.5743 251.007 41.7757 251.492 41.7757 251.997C41.7751 252.503 41.5735 252.987 41.2151 253.344C40.8567 253.701 40.3709 253.901 39.8644 253.901H37.5056C36.999 253.901 36.5132 254.102 36.155 254.459C35.7967 254.816 35.5955 255.301 35.5955 255.806C35.5955 256.311 35.7967 256.796 36.1549 257.153C36.5131 257.51 36.9989 257.711 37.5056 257.712L45.0319 257.706L45.6575 256.152C46.9387 253.795 49.4878 252.126 52.1868 252.126C55.5963 252.126 58.0178 254.788 57.7515 258.138H69.1227M50.167 239.546H47.6023C47.5998 239.546 47.5975 239.547 47.5957 239.549C47.5939 239.55 47.5927 239.553 47.5922 239.555L47.3561 241.229C47.3557 241.23 47.3557 241.231 47.356 241.233C47.3563 241.234 47.3569 241.235 47.3578 241.237C47.3586 241.238 47.3597 241.238 47.361 241.239C47.3623 241.24 47.3636 241.24 47.365 241.24H49.274C49.3677 241.237 49.4608 241.255 49.5466 241.293C49.6323 241.331 49.7085 241.387 49.7696 241.458C49.8308 241.529 49.8752 241.613 49.8998 241.703C49.9244 241.793 49.9285 241.888 49.9119 241.98C49.8791 242.182 49.7768 242.366 49.6224 242.501C49.468 242.636 49.2712 242.713 49.0659 242.719H47.1547C47.1523 242.719 47.1501 242.72 47.1482 242.722C47.1464 242.723 47.1451 242.725 47.1446 242.727L46.8022 245.159C46.7695 245.361 46.6671 245.545 46.5127 245.68C46.3583 245.815 46.1615 245.892 45.9562 245.898C45.8626 245.901 45.7695 245.883 45.6838 245.845C45.5981 245.807 45.5219 245.751 45.4609 245.68C45.3999 245.609 45.3555 245.525 45.331 245.435C45.3066 245.345 45.3026 245.251 45.3195 245.159L46.208 238.852C46.2432 238.638 46.3518 238.444 46.5151 238.301C46.6784 238.159 46.8863 238.077 47.1032 238.071H50.374C50.4677 238.068 50.5608 238.086 50.6465 238.124C50.7322 238.162 50.8083 238.218 50.8693 238.289C50.9304 238.36 50.9747 238.444 50.9992 238.534C51.0237 238.624 51.0276 238.719 51.0107 238.811C50.9775 239.012 50.8752 239.195 50.7213 239.329C50.5673 239.464 50.3714 239.54 50.167 239.546ZM57.0219 238.573C57.2884 238.809 57.4758 239.12 57.559 239.466C57.6521 239.857 57.6673 240.263 57.6038 240.66C57.526 241.277 57.2724 241.86 56.8731 242.339C56.6292 242.626 56.3195 242.851 55.9701 242.994C55.9685 242.996 55.9676 242.998 55.9676 243C55.9676 243.002 55.9685 243.005 55.9701 243.006L56.6057 244.835C56.7769 245.326 56.3371 245.898 55.7899 245.898H55.7541C55.6214 245.902 55.4908 245.864 55.3814 245.789C55.2719 245.714 55.1893 245.606 55.1454 245.481L54.3766 243.249C54.3755 243.248 54.374 243.246 54.3723 243.245C54.3705 243.244 54.3686 243.244 54.3666 243.244H52.7328C52.7306 243.244 52.7284 243.245 52.7266 243.246C52.7248 243.248 52.7234 243.25 52.7228 243.252L52.4542 245.158C52.4215 245.36 52.3191 245.544 52.1647 245.679C52.0103 245.814 51.8135 245.891 51.6082 245.897C51.5146 245.9 51.4215 245.882 51.3358 245.844C51.2501 245.806 51.1739 245.75 51.1129 245.679C51.0519 245.608 51.0075 245.524 50.9831 245.434C50.9586 245.344 50.9547 245.249 50.9715 245.158L51.86 238.851C51.8952 238.637 52.0038 238.443 52.1671 238.3C52.3304 238.158 52.5383 238.076 52.7552 238.07H55.2841C55.2841 238.07 56.3942 238.035 57.0219 238.573ZM63.982 238.758C63.9516 238.947 63.8561 239.119 63.7118 239.246C63.5676 239.372 63.3838 239.444 63.192 239.449H60.2502C60.2479 239.449 60.2457 239.45 60.2439 239.451C60.2421 239.453 60.2408 239.455 60.2401 239.457L60.0063 241.113C60.0059 241.114 60.0059 241.115 60.0062 241.117C60.0065 241.118 60.0071 241.119 60.0079 241.12C60.0088 241.122 60.0099 241.122 60.0112 241.123C60.0124 241.124 60.0138 241.124 60.0152 241.124H62.3002C62.3877 241.121 62.4747 241.138 62.5548 241.173C62.6349 241.209 62.706 241.261 62.7631 241.328C62.8202 241.394 62.8617 241.472 62.8846 241.556C62.9075 241.64 62.9112 241.729 62.8955 241.815C62.8651 242.003 62.7695 242.176 62.6253 242.302C62.4811 242.428 62.2972 242.5 62.1055 242.505H59.8194C59.8171 242.505 59.8149 242.506 59.8131 242.508C59.8113 242.509 59.81 242.511 59.8093 242.513L59.5285 244.506C59.5284 244.509 59.5295 244.511 59.5313 244.513C59.5332 244.515 59.5358 244.517 59.5385 244.517H62.4781C62.5656 244.514 62.6526 244.531 62.7327 244.567C62.8128 244.602 62.884 244.655 62.941 244.721C62.9981 244.787 63.0396 244.865 63.0625 244.949C63.0854 245.034 63.0891 245.122 63.0734 245.208C63.043 245.397 62.9474 245.569 62.8032 245.695C62.659 245.821 62.4751 245.893 62.2834 245.898H58.6355C58.5371 245.9 58.4395 245.88 58.3498 245.839C58.2601 245.799 58.1804 245.739 58.1163 245.665C58.0523 245.59 58.0054 245.502 57.9791 245.408C57.9528 245.313 57.9477 245.214 57.9641 245.117L58.847 238.855C58.8822 238.642 58.9907 238.447 59.1541 238.305C59.3174 238.162 59.5253 238.081 59.7422 238.074H63.389C63.4756 238.072 63.5616 238.089 63.6409 238.124C63.7201 238.159 63.7906 238.211 63.8473 238.277C63.904 238.342 63.9455 238.419 63.9688 238.502C63.9921 238.586 63.9966 238.673 63.982 238.758ZM70.0928 238.758C70.0624 238.947 69.9669 239.119 69.8226 239.246C69.6784 239.372 69.4946 239.444 69.3028 239.449H66.361C66.3587 239.449 66.3565 239.45 66.3547 239.451C66.3529 239.453 66.3516 239.455 66.3509 239.457L66.1182 241.113C66.1178 241.114 66.1178 241.115 66.1181 241.117C66.1184 241.118 66.119 241.119 66.1199 241.12C66.1207 241.122 66.1218 241.122 66.1231 241.123C66.1244 241.124 66.1258 241.124 66.1271 241.124H68.4121C68.4996 241.121 68.5866 241.138 68.6667 241.173C68.7468 241.209 68.818 241.261 68.875 241.328C68.9321 241.394 68.9736 241.472 68.9965 241.556C69.0194 241.64 69.0231 241.729 69.0074 241.815C68.977 242.003 68.8814 242.176 68.7372 242.302C68.593 242.428 68.4091 242.5 68.2174 242.505H65.9302C65.9279 242.505 65.9257 242.506 65.9239 242.508C65.9221 242.509 65.9208 242.511 65.9201 242.513L65.6393 244.506C65.6392 244.509 65.6403 244.511 65.6421 244.513C65.644 244.515 65.6466 244.517 65.6493 244.517H68.5889C68.6764 244.514 68.7634 244.531 68.8435 244.567C68.9236 244.602 68.9948 244.655 69.0518 244.721C69.1089 244.787 69.1504 244.865 69.1733 244.949C69.1962 245.034 69.1999 245.122 69.1842 245.208C69.1538 245.397 69.0582 245.569 68.914 245.695C68.7698 245.821 68.5859 245.893 68.3942 245.898H64.7463C64.6479 245.9 64.5504 245.88 64.4606 245.839C64.3709 245.799 64.2912 245.739 64.2271 245.665C64.1631 245.59 64.1162 245.502 64.0899 245.408C64.0636 245.313 64.0585 245.214 64.0749 245.117L64.9578 238.855C64.993 238.642 65.1016 238.447 65.2649 238.305C65.4282 238.162 65.6361 238.081 65.853 238.074H69.4998C69.5864 238.072 69.6725 238.089 69.7517 238.124C69.8309 238.159 69.9014 238.211 69.9581 238.277C70.0148 238.342 70.0563 238.419 70.0796 238.502C70.1029 238.586 70.1074 238.673 70.0928 238.758ZM74.345 238.043C75.3443 238.043 76.6378 238.056 77.9358 238.078C79.5091 238.103 80.8855 238.824 81.7113 240.054C82.5934 241.38 83.3863 242.763 84.0847 244.193C84.454 244.943 83.7747 245.92 82.8851 245.92H73.3457L74.345 238.043Z" fill="white"/>
<path d="M54.5474 241.752H52.8555L53.1767 239.705H54.8675C54.8675 239.705 56.1086 239.634 55.9051 240.729C55.9105 240.729 55.7681 241.752 54.5474 241.752Z" fill="white"/>
<rect width="333" height="305" fill="black" fill-opacity="0.7"/>
<path d="M49.488 148.512H70.536V153.768H67.704V151.008H52.176V153.768H49.488V148.512ZM52.968 152.856H65.616V155.496H52.968V152.856ZM67.704 141.48L69.648 143.808C64.224 144.864 56.736 145.392 50.352 145.584C50.304 144.864 49.968 143.76 49.704 143.136C56.064 142.92 63.288 142.344 67.704 141.48ZM51.816 146.04L54.336 145.344C54.888 146.208 55.488 147.36 55.704 148.152L53.064 148.944C52.872 148.152 52.32 146.952 51.816 146.04ZM58.152 145.536L60.696 144.96C61.2 145.92 61.68 147.216 61.8 148.08L59.112 148.728C59.016 147.888 58.608 146.544 58.152 145.536ZM65.784 144.912L68.832 145.632C67.992 147.12 67.032 148.68 66.312 149.712L63.96 149.016C64.608 147.864 65.376 146.16 65.784 144.912ZM64.56 152.856H65.16L65.664 152.76L67.608 153.912C64.752 160.2 58.176 162.864 50.616 163.944C50.328 163.224 49.512 161.952 48.936 161.352C56.328 160.608 62.4 158.424 64.56 153.312V152.856ZM55.8 154.8C58.488 158.448 63.984 160.536 70.968 161.184C70.368 161.832 69.576 163.08 69.216 163.896C61.992 162.96 56.64 160.44 53.28 155.832L55.8 154.8Z" fill="white"/>
<path d="M83.016 143.784L84.912 141.576C86.856 142.488 89.4 144 90.624 145.176L88.56 147.648C87.456 146.448 84.984 144.816 83.016 143.784ZM81.432 153.528H93.888V156.288H81.432V153.528ZM79.704 160.656H95.28V163.392H79.704V160.656ZM80.568 146.856H94.776V149.592H80.568V146.856ZM86.04 147.768H89.04V161.88H86.04V147.768ZM74.256 143.856L75.816 141.744C77.352 142.296 79.392 143.328 80.4 144.192L78.72 146.544C77.784 145.68 75.816 144.528 74.256 143.856ZM72.648 150.384L74.136 148.2C75.696 148.728 77.784 149.712 78.816 150.504L77.232 152.904C76.272 152.088 74.232 151.008 72.648 150.384ZM73.68 161.928C74.952 160.128 76.8 157.128 78.24 154.368L80.352 156.264C79.08 158.808 77.544 161.544 76.104 163.872L73.68 161.928Z" fill="white"/>
<path d="M110.736 142.704H116.952V145.296H110.736V142.704ZM110.736 148.128H116.952V150.648H110.736V148.128ZM110.736 153.6H116.976V156.168H110.736V153.6ZM115.704 142.704H118.488V160.992C118.488 162.384 118.224 163.176 117.36 163.608C116.52 164.064 115.296 164.136 113.496 164.136C113.424 163.368 113.04 162.12 112.68 161.4C113.712 161.448 114.888 161.448 115.224 161.424C115.584 161.424 115.704 161.304 115.704 160.944V142.704ZM109.56 142.704H112.248V151.512C112.248 155.304 111.936 160.8 109.896 164.208C109.416 163.704 108.24 162.864 107.616 162.576C109.416 159.504 109.56 154.944 109.56 151.512V142.704ZM96.984 144.456H108.744V146.952H96.984V144.456ZM100.128 148.368H105.84V150.576H100.128V148.368ZM100.128 152.112H105.864V154.296H100.128V152.112ZM96.696 155.904H108.576V158.424H96.696V155.904ZM98.88 141.888H101.472V156.816H98.88V141.888ZM104.472 141.888H107.112V156.816H104.472V141.888ZM99.696 158.592L102.408 159.384C101.52 161.16 100.104 163.032 98.832 164.208C98.28 163.728 97.176 162.912 96.504 162.528C97.8 161.544 99.024 160.056 99.696 158.592ZM103.248 159.672L105.432 158.472C106.392 159.528 107.616 160.992 108.168 161.976L105.84 163.344C105.36 162.384 104.208 160.8 103.248 159.672Z" fill="white"/>
<path d="M128.688 156.264H135.264V158.328H128.688V156.264ZM128.52 152.712H136.608V161.928H128.52V159.816H133.92V154.824H128.52V152.712ZM127.344 152.712H129.936V163.152H127.344V152.712ZM123.312 145.872H129.336V147.816H123.312V145.872ZM134.448 145.872H140.52V147.816H134.448V145.872ZM139.344 142.536H142.248V160.752C142.248 162.312 141.936 163.152 140.976 163.632C140.016 164.112 138.624 164.16 136.56 164.16C136.44 163.344 136.008 162 135.624 161.232C136.872 161.304 138.336 161.28 138.768 161.28C139.2 161.28 139.344 161.136 139.344 160.728V142.536ZM123.552 142.536H131.136V151.248H123.552V149.184H128.448V144.624H123.552V142.536ZM140.88 142.536V144.624H135.504V149.256H140.88V151.32H132.768V142.536H140.88ZM121.896 142.536H124.752V164.16H121.896V142.536Z" fill="white"/>
<path d="M157.416 156.264L159.024 154.44C160.776 155.088 162.864 156.216 164.016 157.08L162.36 159.072C161.232 158.16 159.12 156.936 157.416 156.264ZM154.8 160.536L156.48 158.52C159.6 159.36 163.32 160.92 165.552 162.12L163.872 164.376C161.76 163.056 157.944 161.448 154.8 160.536ZM157.776 141.624L160.584 142.104C159.264 145.056 157.416 148.008 154.512 150.408C154.08 149.808 153.168 148.92 152.568 148.536C155.16 146.544 156.888 143.88 157.776 141.624ZM158.232 143.904H164.184V146.376H157.008L158.232 143.904ZM163.416 143.904H163.944L164.424 143.808L166.2 144.792C164.064 150.168 159.648 153.96 154.968 155.904C154.632 155.232 153.768 154.104 153.216 153.624C157.704 151.992 161.784 148.68 163.416 144.408V143.904ZM157.944 145.8C159.792 149.256 163.464 152.304 167.688 153.696C167.088 154.248 166.248 155.328 165.84 156.048C161.472 154.296 157.848 150.816 155.664 146.616L157.944 145.8ZM148.32 141.648L150.816 142.584C149.832 144.408 148.728 146.544 147.792 147.888L145.872 147.048C146.736 145.632 147.768 143.328 148.32 141.648ZM151.08 144.48L153.408 145.536C151.68 148.296 149.328 151.632 147.504 153.72L145.848 152.784C147.624 150.6 149.832 147.072 151.08 144.48ZM144.624 147.336L145.992 145.368C147.264 146.472 148.752 147.984 149.376 149.088L147.888 151.32C147.312 150.168 145.848 148.488 144.624 147.336ZM150.36 150.216L152.256 149.424C153.192 151.032 154.104 153.12 154.368 154.488L152.328 155.4C152.088 154.032 151.248 151.848 150.36 150.216ZM144.6 152.208C146.808 152.136 150.048 152.016 153.216 151.872L153.192 154.152C150.24 154.368 147.168 154.56 144.84 154.728L144.6 152.208ZM150.888 156.192L152.904 155.544C153.504 156.912 154.128 158.712 154.392 159.912L152.28 160.656C152.04 159.456 151.416 157.608 150.888 156.192ZM145.632 155.736L148.008 156.144C147.768 158.448 147.24 160.848 146.544 162.384C146.04 162.072 144.96 161.568 144.36 161.328C145.056 159.912 145.44 157.776 145.632 155.736ZM148.32 153.48H150.84V164.184H148.32V153.48Z" fill="white"/>
<path d="M178.608 149.832H181.656V160.824C181.656 162.456 181.248 163.248 180.048 163.68C178.872 164.112 177.144 164.16 174.84 164.16C174.672 163.32 174.12 162.024 173.664 161.232C175.368 161.304 177.336 161.304 177.888 161.304C178.416 161.304 178.608 161.16 178.608 160.752V149.832ZM170.4 143.304H187.176V146.136H170.4V143.304ZM186.096 143.304H186.864L187.56 143.112L189.816 144.792C187.656 147.432 184.488 150.48 181.536 152.328C181.08 151.704 180.144 150.744 179.568 150.288C182.064 148.704 184.896 145.824 186.096 144V143.304Z" fill="white"/>
<path d="M200.904 142.968C200.76 143.976 200.64 145.224 200.592 146.184C200.472 148.776 200.304 154.128 200.304 157.104C200.304 159.528 201.744 160.32 203.616 160.32C207.576 160.32 210.072 158.04 211.824 155.424L214.008 158.088C212.448 160.392 209.04 163.584 203.568 163.584C199.632 163.584 197.112 161.856 197.112 157.752C197.112 154.536 197.328 148.248 197.328 146.184C197.328 145.032 197.232 143.88 197.04 142.944L200.904 142.968Z" fill="white"/>
<path d="M230.328 142.608C230.256 143.088 230.184 143.688 230.16 144.312C230.112 145.536 230.088 148.944 230.088 150.96C230.088 153.6 230.472 157.944 230.472 159.84C230.472 161.904 228.912 163.488 225.768 163.488C221.928 163.488 219.912 162.024 219.912 159.48C219.912 157.056 222.144 155.352 225.816 155.352C231.096 155.352 235.032 157.944 237.024 159.624L235.296 162.312C233.016 160.152 229.536 157.824 225.432 157.824C223.752 157.824 222.816 158.472 222.816 159.312C222.816 160.224 223.656 160.776 225.312 160.776C226.584 160.776 227.448 160.416 227.448 159.024C227.448 157.584 227.184 153.288 227.184 150.96C227.184 148.656 227.208 145.608 227.208 144.24C227.208 143.808 227.16 143.064 227.064 142.608H230.328ZM220.368 144.84C222.072 145.128 224.832 145.368 226.296 145.368C229.56 145.368 232.704 145.2 236.208 144.648L236.184 147.384C233.736 147.72 229.92 148.008 226.32 148.008C224.784 148.008 222 147.792 220.416 147.6L220.368 144.84ZM220.224 150.024C221.808 150.312 224.736 150.48 226.008 150.48C230.448 150.48 233.544 150.192 236.496 149.808L236.472 152.64C233.16 153.024 230.544 153.168 225.984 153.168C224.568 153.168 221.856 153.048 220.272 152.856L220.224 150.024Z" fill="white"/>
<path d="M248.904 142.968C248.76 143.976 248.64 145.224 248.592 146.184C248.472 148.776 248.304 154.128 248.304 157.104C248.304 159.528 249.744 160.32 251.616 160.32C255.576 160.32 258.072 158.04 259.824 155.424L262.008 158.088C260.448 160.392 257.04 163.584 251.568 163.584C247.632 163.584 245.112 161.856 245.112 157.752C245.112 154.536 245.328 148.248 245.328 146.184C245.328 145.032 245.232 143.88 245.04 142.944L248.904 142.968Z" fill="white"/>
<path d="M275.352 142.848C275.184 143.52 274.968 144.6 274.848 145.128C274.512 146.76 273.912 149.688 273.264 152.136C272.4 155.496 270.792 160.392 269.472 163.248L266.136 162.12C267.552 159.696 269.376 154.68 270.288 151.32C270.888 149.064 271.44 146.424 271.608 145.008C271.728 144.12 271.752 143.136 271.68 142.56L275.352 142.848ZM269.232 146.448C272.16 146.448 275.544 145.992 278.664 145.248V148.248C275.688 148.944 271.92 149.352 269.208 149.352C268.032 149.352 267.144 149.304 266.304 149.256L266.208 146.256C267.456 146.4 268.248 146.448 269.232 146.448ZM276.768 150.12C278.112 149.976 279.84 149.88 281.4 149.88C282.768 149.88 284.208 149.952 285.6 150.096L285.552 152.976C284.328 152.832 282.864 152.664 281.424 152.664C279.768 152.664 278.28 152.736 276.768 152.928V150.12ZM278.064 156.144C277.896 156.84 277.752 157.608 277.752 158.136C277.752 159.192 278.448 159.984 281.04 159.984C282.648 159.984 284.304 159.816 286.008 159.504L285.888 162.552C284.544 162.744 282.936 162.888 281.016 162.888C276.96 162.888 274.8 161.52 274.8 159.096C274.8 157.968 275.016 156.816 275.208 155.88L278.064 156.144Z" fill="white"/>
</svg>
