<svg width="333" height="298" viewBox="0 0 333 298" fill="none" xmlns="http://www.w3.org/2000/svg">
<path d="M0 0H333V298H0V0Z" fill="#F5EEE6"/>
<path d="M267.444 61.0082C269.252 62.1122 271.14 62.7682 273.22 63.1522L271.78 65.5522C269.54 64.9762 267.38 64.0802 265.508 62.6882C263.524 64.0962 261.572 64.9282 259.22 65.5522L257.892 63.1682C259.908 62.7202 261.844 62.0642 263.62 61.0082C261.892 59.0882 260.868 57.1042 260.164 54.6402H257.956V52.2562H264.276V50.3522H266.804V52.2562H273.108V54.6402H270.884C270.196 57.0882 269.172 59.1362 267.444 61.0082ZM265.54 59.5202C266.964 58.0322 267.684 56.6082 268.276 54.6402H262.756C263.348 56.5922 264.1 58.0482 265.54 59.5202Z" fill="#6F6356"/>
<path d="M249.428 53.1041C248.644 52.4801 247.828 51.9521 246.932 51.5041L249.172 50.0961C250.276 50.6721 251.332 51.3441 252.308 52.1121L250.676 53.1041H255.236V55.3601H251.204V57.8241H254.708V60.0801H251.204V62.8801H255.556V65.1201H244.132V62.8801H248.708V60.0801H245.252V57.8241H248.708V55.3601H244.724V53.1041H249.428ZM241.988 50.2881C243.028 50.7361 243.908 51.2481 244.82 51.9041L243.396 53.8881C242.452 53.1201 241.764 52.7041 240.692 52.1441L241.988 50.2881ZM241.524 54.3361C242.5 54.7841 243.412 55.3601 244.26 56.0481L242.9 58.0321C242.004 57.2961 241.252 56.8001 240.228 56.2561L241.524 54.3361ZM244.804 60.0161C243.956 62.0161 243.012 63.8401 241.684 65.5841L240.18 63.3121C241.348 61.8721 242.244 60.2241 242.996 58.5281L244.804 60.0161Z" fill="#6F6356"/>
<path d="M225.412 52.2241C226.66 52.1121 227.924 52.0321 229.172 52.0321C230.932 52.0321 232.676 52.1921 234.42 52.4961L234.212 55.1361C232.532 54.8161 231.028 54.6561 229.3 54.6561C227.956 54.6561 226.628 54.7361 225.3 54.8961L225.412 52.2241ZM226.5 57.3441L228.324 58.7841C227.812 59.1201 226.644 59.8881 226.644 60.5601C226.644 61.1201 227.348 61.3441 227.796 61.4401C228.788 61.6481 229.7 61.7121 230.708 61.7121C232.644 61.7121 234.404 61.4881 236.276 61.0401L236.436 63.8081C234.66 64.1601 232.852 64.3041 231.044 64.3041C229.268 64.3041 227.428 64.2081 225.812 63.4721C224.756 63.0081 223.988 62.0321 223.988 60.8481C223.988 59.2801 225.332 58.1601 226.5 57.3441ZM235.748 50.4641L236.868 49.8401C237.556 50.8321 237.988 51.7761 238.436 52.8961L237.236 53.5521C236.82 52.3681 236.436 51.5201 235.748 50.4641ZM233.604 50.9921L234.724 50.3841C235.412 51.3601 235.844 52.3201 236.292 53.4401L235.092 54.0961C234.66 52.8641 234.292 52.1121 233.604 50.9921Z" fill="#6F6356"/>
<path d="M207.188 51.3921L209.796 51.6801C209.236 54.1121 208.884 56.5281 208.884 59.0401C208.884 60.8321 209.06 62.5441 209.46 64.3041L206.916 64.5921C206.516 62.8001 206.388 60.9601 206.388 59.1361C206.388 56.4321 206.692 54.0481 207.188 51.3921ZM218.724 55.0561C217.78 54.9761 216.836 54.9281 215.876 54.9281C214.34 54.9281 212.82 55.0561 211.3 55.2641L211.348 52.7041C212.868 52.5441 214.388 52.4321 215.908 52.4321C216.868 52.4321 217.828 52.4801 218.788 52.5601L218.724 55.0561ZM213.444 59.0881C213.204 59.4401 212.98 59.9361 212.98 60.3841C212.98 60.7841 213.236 61.0241 213.604 61.1361C214.148 61.3121 215.076 61.3281 215.668 61.3281C216.932 61.3281 218.196 61.1681 219.444 60.9441L219.38 63.5521C218.164 63.7281 216.932 63.8401 215.7 63.8401C213.588 63.8401 210.66 63.6321 210.66 60.8321C210.66 60.0321 210.916 59.3601 211.3 58.6561L213.444 59.0881Z" fill="#6F6356"/>
<path d="M188.148 52.5602C189.124 52.5442 190.1 52.5282 191.076 52.4642L201.764 51.6802L201.972 54.2402C200.34 54.2722 198.996 54.4482 197.54 55.2642C196.084 56.0802 194.788 57.3922 194.788 59.1522C194.788 61.5682 197.652 62.2402 199.556 62.3842L198.356 64.9122C195.204 64.5442 192.116 62.9282 192.116 59.3442C192.116 57.8402 192.708 56.3522 193.812 55.3122C194.18 54.9602 194.612 54.6562 195.028 54.3682L188.34 55.2322L188.148 52.5602ZM197.524 56.8162L198.868 56.0482C199.62 56.9442 200.18 57.9842 200.692 59.0242L199.284 59.8562C198.772 58.6722 198.308 57.8562 197.524 56.8162ZM199.7 55.6002L201.06 54.8802C201.828 55.7762 202.404 56.7682 202.932 57.8242L201.524 58.6082C200.948 57.3922 200.532 56.6562 199.7 55.6002Z" fill="#6F6356"/>
<path d="M176.452 52.6561L176.436 50.8481H178.948L178.964 52.6241C180.612 52.6081 182.244 52.5761 183.892 52.4961L183.876 54.8481C182.244 54.8801 180.612 54.9121 178.98 54.9281L178.996 55.8881C180.404 55.8401 181.812 55.7921 183.236 55.7121V58.0321C181.828 58.0801 180.42 58.1281 179.012 58.1601V59.6161C180.724 60.0641 182.164 60.7681 183.684 61.6801L182.5 64.0961C181.348 63.2641 180.292 62.6721 178.98 62.1441C178.916 64.2081 177.252 64.8641 175.428 64.8641C173.668 64.8641 171.604 64.1281 171.604 62.0321C171.604 60.9281 172.292 60.0321 173.3 59.6161C174.084 59.2961 174.948 59.2001 175.78 59.2001C176.02 59.2001 176.26 59.2001 176.5 59.2161L176.484 58.1921C174.932 58.2081 173.38 58.2241 171.812 58.2081L171.828 55.8721C172.772 55.9041 173.716 55.9361 174.676 55.9361C175.268 55.9361 175.876 55.9201 176.468 55.9201V54.9601C175.588 54.9601 174.708 54.9761 173.844 54.9761C172.98 54.9761 172.132 54.9601 171.268 54.9601L171.284 52.5921C173.012 52.6401 174.724 52.6561 176.452 52.6561ZM176.484 61.5681V61.4081C176.164 61.3601 175.844 61.3441 175.524 61.3441C175.06 61.3441 173.908 61.3921 173.908 62.0641C173.908 62.6081 174.788 62.7041 175.188 62.7041C176.436 62.7041 176.484 62.1281 176.484 61.5681Z" fill="#6F6356"/>
<path d="M162.266 50.1602C164.986 52.0482 166.682 55.0562 166.682 58.8162C166.682 62.5762 164.986 65.5842 162.266 67.4722L160.954 66.0322C163.018 64.4162 164.346 61.9362 164.346 58.8162C164.346 55.6962 163.018 53.2322 160.954 51.6002L162.266 50.1602Z" fill="#6F6356"/>
<path d="M146.202 55.5841C145.53 55.9201 144.842 56.2401 144.154 56.5281L142.986 54.1281C145.274 53.4241 147.946 52.1121 149.546 50.3201H152.042C153.962 52.0961 156.106 53.2961 158.57 54.1601L157.418 56.6241C156.73 56.3201 156.058 56.0001 155.402 55.6321V56.6241H151.994V57.7121H157.754V59.9681H151.994V62.9121H152.986C153.354 61.9681 153.658 61.0241 153.914 60.0481L156.346 60.7041C156.074 61.4561 155.77 62.1921 155.466 62.9121H158.106V65.1841H143.418V62.9121H145.994C145.738 62.0961 145.514 61.5201 145.162 60.7521L147.514 60.0801C147.946 60.9761 148.266 61.9361 148.522 62.9121H149.562V59.9681H143.802V57.7121H149.562V56.6241H146.202V55.5841ZM148.17 54.4481H153.434C152.458 53.7761 151.626 53.0721 150.778 52.2401C149.962 53.1041 149.162 53.8081 148.17 54.4481Z" fill="#6F6356"/>
<path d="M139.296 67.4722C136.576 65.6002 134.88 62.5922 134.88 58.8162C134.88 55.0562 136.576 52.0481 139.296 50.1761L140.624 51.6001C138.544 53.2321 137.216 55.6961 137.216 58.8162C137.216 61.9362 138.544 64.4162 140.624 66.0322L139.296 67.4722Z" fill="#6F6356"/>
<path d="M117.552 50.9441H130.448V65.0081H117.552V50.9441ZM120.064 56.7041H127.888V53.3281H120.064V56.7041ZM120.064 59.0401V62.6241H127.888V59.0401H120.064Z" fill="#6F6356"/>
<path d="M109.041 64.3682C106.049 64.3682 104.241 62.0482 104.241 57.6962C104.241 53.3442 106.049 51.0242 109.041 51.0242C112.033 51.0242 113.841 53.3442 113.841 57.6962C113.841 62.0482 112.033 64.3682 109.041 64.3682ZM109.041 61.8882C110.177 61.8882 110.817 60.6402 110.817 57.6962C110.817 54.7522 110.177 53.5042 109.041 53.5042C107.905 53.5042 107.265 54.7522 107.265 57.6962C107.265 60.6402 107.905 61.8882 109.041 61.8882Z" fill="#6F6356"/>
<path d="M92.2425 64.1282V61.9042L96.2585 58.2242C97.4745 57.0722 98.0505 56.3362 98.0505 55.3442C98.0505 54.2722 97.3465 53.6002 96.2745 53.6002C95.1705 53.6002 94.2265 54.2722 93.4905 55.3762L92.1945 53.0882C93.3145 51.7762 94.8025 51.0082 96.6425 51.0082C99.2505 51.0082 101.026 52.4802 101.026 54.9122C101.026 56.7522 100.114 57.9362 98.0505 59.7922L96.0665 61.5682H101.154V64.1282H92.2425Z" fill="#6F6356"/>
<path d="M87.7624 50.8801V63.9201C87.7624 64.8321 87.1704 65.4881 86.2424 65.4881H82.4984L82.0984 62.9601H84.7864C85.1064 62.9601 85.2664 62.7841 85.2664 62.4801V60.6241H78.2264C77.9704 62.4321 77.4424 64.0801 76.3864 65.5841L74.2264 63.8401C75.5384 61.9841 75.9864 59.8401 75.9864 57.5841V50.8801H87.7624ZM78.4184 53.2801V54.6721H85.2664V53.2801H78.4184ZM78.4184 56.8961V58.3841H85.2664V56.8961H78.4184Z" fill="#6F6356"/>
<path d="M62.8677 64.0322L63.1077 61.6162C63.7957 61.8722 64.3877 61.9682 65.2037 61.9682C67.0917 61.9682 68.1797 60.8642 68.5477 58.6882C67.8597 59.2482 67.0597 59.5522 66.0357 59.5522C63.5717 59.5522 61.9237 58.0162 61.9237 55.4562C61.9237 52.9122 63.7637 51.0082 66.6597 51.0082C69.3957 51.0082 71.5877 52.6242 71.5877 57.1042C71.5877 61.5202 69.2837 64.3842 65.2517 64.3842C64.3077 64.3842 63.5077 64.2402 62.8677 64.0322ZM64.9317 55.5042C64.9317 56.7842 65.6517 57.4882 66.7717 57.4882C67.5077 57.4882 68.1477 57.2162 68.6757 56.6242C68.6277 54.2722 67.9397 53.4402 66.7397 53.4402C65.6037 53.4402 64.9317 54.3202 64.9317 55.5042Z" fill="#6F6356"/>
<path d="M265.49 29.6482L267.01 27.9202C268.45 28.8802 269.666 29.8882 270.802 31.2002L269.106 32.9602C268.018 31.6482 266.898 30.6402 265.49 29.6482Z" fill="#6F6356"/>
<path d="M255.362 23.4081C254.994 23.0721 254.674 22.7201 254.354 22.3361C254.002 22.5921 253.778 22.7361 253.41 22.9601L252.658 21.9681C252.434 22.7521 252.178 23.5201 251.938 24.3041C252.658 25.2641 252.994 26.7681 252.994 27.9681C252.994 28.5121 252.882 29.1201 252.642 29.6001H253.634V26.6081H257.33V25.7921H259.65V26.6081H261.778V28.6081H259.65V29.6001H262.37V31.6961H259.65V33.5361H257.33V31.6961H252.546V29.7761C252.274 30.2081 251.73 30.4961 251.218 30.4961H250.434L250.018 28.2721H250.45C250.93 28.2721 251.058 28.0161 251.058 27.3601C251.058 26.2881 250.722 25.3441 250.034 24.5281C250.482 23.2801 250.818 22.3041 251.01 20.9601H249.874V33.5361H247.778V18.7521H252.914V20.7041C253.842 20.0321 254.626 19.3441 255.17 18.3201L257.474 18.4961C257.362 18.7361 257.234 18.9761 257.106 19.2001H261.618V21.1201C260.994 21.9841 260.37 22.6561 259.57 23.3441C260.642 23.7601 261.602 23.9841 262.754 24.1601L261.922 26.3521C260.402 25.9201 258.882 25.4561 257.442 24.7841C256.098 25.5201 254.77 25.9521 253.266 26.2721L252.466 24.1441C253.49 23.9841 254.386 23.7761 255.362 23.4081ZM257.506 22.3521C258.114 21.9681 258.45 21.6641 258.914 21.1201H255.922C256.402 21.6001 256.93 22.0001 257.506 22.3521ZM257.33 28.6081H255.746V29.6001H257.33V28.6081Z" fill="#6F6356"/>
<path d="M231.058 29.2641L230.93 18.5921L233.522 18.5441L233.65 28.3521C234.834 27.8881 235.986 27.3761 237.122 26.8161L237.538 29.1041C235.714 30.0801 232.114 31.5681 230.13 32.2561L229.682 29.6801C230.146 29.5521 230.61 29.4241 231.058 29.2641ZM242.642 28.3841C243.522 29.2481 244.514 30.2561 245.25 31.2481L243.474 33.4881C242.786 32.4161 242.034 31.4401 241.234 30.4641C239.89 31.9681 238.402 32.9121 236.498 33.5361L235.042 31.2001C237.138 30.6241 238.946 29.5681 240.114 27.6801C241.074 26.1441 241.282 24.4481 241.33 22.6721L241.426 18.5601L244.05 18.6241L243.922 23.0561C243.858 25.0081 243.538 26.6401 242.642 28.3841ZM236.466 18.9441C237.778 20.1441 238.994 21.4881 240.018 22.9601L237.938 24.6561C236.658 22.6881 236.082 22.1601 234.562 20.4801L236.466 18.9441Z" fill="#6F6356"/>
<path d="M222.104 18.1602C224.824 20.0482 226.52 23.0562 226.52 26.8162C226.52 30.5762 224.824 33.5842 222.104 35.4722L220.792 34.0322C222.856 32.4162 224.184 29.9362 224.184 26.8162C224.184 23.6962 222.856 21.2322 220.792 19.6002L222.104 18.1602Z" fill="#6F6356"/>
<path d="M209.352 18.3522H211.88V22.2402H217.304V24.7362H211.88V30.5602H218.168V33.0402H203.064V30.5602H209.352V24.7362H203.992V22.2402H209.352V18.3522Z" fill="#6F6356"/>
<path d="M199.134 35.4721C196.414 33.6001 194.718 30.5921 194.718 26.8161C194.718 23.0561 196.414 20.0481 199.134 18.1761L200.462 19.6001C198.382 21.2321 197.054 23.6961 197.054 26.8161C197.054 29.9361 198.382 32.4161 200.462 34.0321L199.134 35.4721Z" fill="#6F6356"/>
<path d="M177.39 18.9441H190.286V33.0081H177.39V18.9441ZM179.902 24.7041H187.726V21.3281H179.902V24.7041ZM179.902 27.0401V30.6241H187.726V27.0401H179.902Z" fill="#6F6356"/>
<path d="M173.871 19.2642V21.5682C171.199 24.4802 169.823 28.1282 169.327 32.1282H166.175C166.655 28.4162 167.935 24.8162 170.479 21.8242H164.303V19.2642H173.871Z" fill="#6F6356"/>
<path d="M156.176 32.1282V22.7202C155.472 23.3282 154.704 23.8402 153.824 24.3042L152.576 22.1762C154.096 21.3602 155.504 20.4002 156.624 19.2642H158.992V32.1282H156.176Z" fill="#6F6356"/>
<path d="M147.6 18.8801V31.9201C147.6 32.8321 147.008 33.4881 146.08 33.4881H142.336L141.936 30.9601H144.624C144.944 30.9601 145.104 30.7841 145.104 30.4801V28.6241H138.064C137.808 30.4321 137.28 32.0801 136.224 33.5841L134.064 31.8401C135.376 29.9841 135.824 27.8401 135.824 25.5841V18.8801H147.6ZM138.256 21.2801V22.6721H145.104V21.2801H138.256ZM138.256 24.8961V26.3841H145.104V24.8961H138.256Z" fill="#6F6356"/>
<path d="M126.545 32.4481C123.633 32.4481 121.841 31.1041 121.841 28.9761C121.841 27.5041 122.769 26.4001 124.209 25.7761C123.041 25.1361 122.113 24.1921 122.113 22.4961C122.113 20.1761 124.161 18.9601 126.689 18.9601C129.617 18.9601 131.121 20.4641 131.121 22.3361C131.121 23.5521 130.385 24.6881 128.961 25.2961C130.289 25.9361 131.441 26.8961 131.441 28.6881C131.441 31.1361 129.473 32.4481 126.545 32.4481ZM125.057 22.5761C125.057 23.4721 125.873 24.0161 126.945 24.4801C127.857 23.9841 128.177 23.2321 128.177 22.6401C128.177 21.7121 127.553 21.2321 126.625 21.2321C125.649 21.2321 125.057 21.7761 125.057 22.5761ZM124.785 28.6081C124.785 29.5681 125.505 30.1441 126.641 30.1441C127.873 30.1441 128.497 29.4401 128.497 28.6561C128.497 27.6481 127.425 27.1361 126.161 26.6401C125.185 27.1521 124.785 27.8881 124.785 28.6081Z" fill="#6F6356"/>
<path d="M109.265 19.6161H118.689V21.9201H113.889V23.4561H118.177V25.6961H113.889V27.8241H119.249V30.1281H113.889V33.5041H111.425V30.1281H104.113V27.8241H106.273V24.2561C106.017 24.5121 105.729 24.7681 105.441 25.0081L103.873 22.8961C105.393 21.7121 106.609 20.0321 107.137 18.1761L109.633 18.5121C109.521 18.8961 109.409 19.2321 109.265 19.6161ZM108.097 21.9201C107.761 22.4641 107.393 22.9601 106.993 23.4561H111.425V21.9201H108.097ZM111.425 25.6961H108.657V27.8241H111.425V25.6961Z" fill="#6F6356"/>
<path d="M97.4745 32.1281V29.5201H91.7305V27.1201L97.2825 19.2001H100.162V27.1201H101.746V29.5201H100.162V32.1281H97.4745ZM94.3385 27.1201H97.4745V22.5601L94.3385 27.1201Z" fill="#6F6356"/>
<path d="M79.9237 32.1282V29.9042L83.9397 26.2242C85.1557 25.0722 85.7317 24.3362 85.7317 23.3442C85.7317 22.2722 85.0277 21.6002 83.9557 21.6002C82.8517 21.6002 81.9077 22.2722 81.1717 23.3762L79.8757 21.0882C80.9957 19.7762 82.4837 19.0082 84.3237 19.0082C86.9317 19.0082 88.7077 20.4802 88.7077 22.9122C88.7077 24.7522 87.7957 25.9362 85.7317 27.7922L83.7477 29.5682H88.8357V32.1282H79.9237Z" fill="#6F6356"/>
<path d="M72.085 32.3682C69.093 32.3682 67.285 30.0482 67.285 25.6962C67.285 21.3442 69.093 19.0242 72.085 19.0242C75.077 19.0242 76.885 21.3442 76.885 25.6962C76.885 30.0482 75.077 32.3682 72.085 32.3682ZM72.085 29.8882C73.221 29.8882 73.861 28.6402 73.861 25.6962C73.861 22.7522 73.221 21.5042 72.085 21.5042C70.949 21.5042 70.309 22.7522 70.309 25.6962C70.309 28.6402 70.949 29.8882 72.085 29.8882Z" fill="#6F6356"/>
<path d="M55.2863 32.1282V29.9042L59.3023 26.2242C60.5183 25.0722 61.0943 24.3362 61.0943 23.3442C61.0943 22.2722 60.3903 21.6002 59.3183 21.6002C58.2143 21.6002 57.2703 22.2722 56.5343 23.3762L55.2383 21.0882C56.3583 19.7762 57.8463 19.0082 59.6863 19.0082C62.2943 19.0082 64.0703 20.4802 64.0703 22.9122C64.0703 24.7522 63.1583 25.9362 61.0943 27.7922L59.1103 29.5682H64.1983V32.1282H55.2863Z" fill="#6F6356"/>
<path d="M255.51 110.618H232.116V125.906H225.648V87.2656H262.02V121.034C262.02 124.226 260.718 125.906 257.442 125.906H249.588L248.454 119.396H254.25C255.258 119.396 255.51 119.018 255.51 118.094V110.618ZM246.942 93.4396V104.57H255.51V93.4396H246.942ZM232.116 93.4396V104.57H240.684V93.4396H232.116Z" fill="#6F6356"/>
<path d="M208.767 122.966C200.913 122.966 196.167 116.876 196.167 105.452C196.167 94.0276 200.913 87.9376 208.767 87.9376C216.621 87.9376 221.367 94.0276 221.367 105.452C221.367 116.876 216.621 122.966 208.767 122.966ZM208.767 116.456C211.749 116.456 213.429 113.18 213.429 105.452C213.429 97.7236 211.749 94.4476 208.767 94.4476C205.785 94.4476 204.105 97.7236 204.105 105.452C204.105 113.18 205.785 116.456 208.767 116.456Z" fill="#6F6356"/>
<path d="M180.631 122.966C172.777 122.966 168.031 116.876 168.031 105.452C168.031 94.0276 172.777 87.9376 180.631 87.9376C188.485 87.9376 193.231 94.0276 193.231 105.452C193.231 116.876 188.485 122.966 180.631 122.966ZM180.631 116.456C183.613 116.456 185.293 113.18 185.293 105.452C185.293 97.7236 183.613 94.4476 180.631 94.4476C177.649 94.4476 175.969 97.7236 175.969 105.452C175.969 113.18 177.649 116.456 180.631 116.456Z" fill="#6F6356"/>
<path d="M152.242 123.176C144.598 123.176 139.894 119.648 139.894 114.062C139.894 110.198 142.33 107.3 146.11 105.662C143.044 103.982 140.608 101.504 140.608 97.0517C140.608 90.9617 145.984 87.7697 152.62 87.7697C160.306 87.7697 164.254 91.7177 164.254 96.6317C164.254 99.8237 162.322 102.806 158.584 104.402C162.07 106.082 165.094 108.602 165.094 113.306C165.094 119.732 159.928 123.176 152.242 123.176ZM148.336 97.2617C148.336 99.6137 150.478 101.042 153.292 102.26C155.686 100.958 156.526 98.9837 156.526 97.4297C156.526 94.9937 154.888 93.7337 152.452 93.7337C149.89 93.7337 148.336 95.1617 148.336 97.2617ZM147.622 113.096C147.622 115.616 149.512 117.128 152.494 117.128C155.728 117.128 157.366 115.28 157.366 113.222C157.366 110.576 154.552 109.232 151.234 107.93C148.672 109.274 147.622 111.206 147.622 113.096Z" fill="#6F6356"/>
<path d="M130.447 129.728L124.483 128.846C126.877 124.94 127.927 120.908 127.927 116.414C127.927 115.112 127.801 114.02 127.759 113.516H135.067C135.109 114.062 135.277 115.238 135.277 116.666C135.277 121.538 133.639 126.074 130.447 129.728Z" fill="#6F6356"/>
<path d="M99.8747 122.084L100.505 115.742C102.311 116.414 103.865 116.666 106.007 116.666C110.963 116.666 113.819 113.768 114.785 108.056C112.979 109.526 110.879 110.324 108.191 110.324C101.723 110.324 97.3967 106.292 97.3967 99.5716C97.3967 92.8936 102.227 87.8956 109.829 87.8956C117.011 87.8956 122.765 92.1376 122.765 103.898C122.765 115.49 116.717 123.008 106.133 123.008C103.655 123.008 101.555 122.63 99.8747 122.084ZM105.293 99.6976C105.293 103.058 107.183 104.906 110.123 104.906C112.055 104.906 113.735 104.192 115.121 102.638C114.995 96.4636 113.189 94.2796 110.039 94.2796C107.057 94.2796 105.293 96.5896 105.293 99.6976Z" fill="#6F6356"/>
<path d="M91.562 95.1616C89.924 94.4896 88.454 94.1956 86.228 94.1956C80.684 94.1956 77.996 97.5136 77.324 103.436C79.298 101.546 81.692 100.538 84.59 100.538C90.848 100.538 94.922 104.738 94.922 111.164C94.922 117.884 90.302 123.008 82.658 123.008C74.468 123.008 69.554 117.38 69.554 106.418C69.554 94.7416 75.518 87.8956 86.186 87.8956C88.706 87.8956 90.764 88.2736 92.444 88.7776L91.562 95.1616ZM82.574 105.956C80.264 105.956 78.458 107.048 77.198 108.686C77.576 114.188 79.34 116.624 82.406 116.624C85.43 116.624 86.984 114.272 86.984 111.038C86.984 107.846 85.43 105.956 82.574 105.956Z" fill="#6F6356"/>
<path d="M300.865 162.674H308.389V160.755H311.315V162.674H318.877V165.41H311.315V167.595H317.908V170.312H312.759C314.393 172.516 316.692 173.884 319.143 175.005L317.49 177.836C315.419 176.734 312.569 174.416 311.315 172.421V178.824H308.389V172.421C307.211 174.34 304.171 176.791 302.195 177.874L300.618 174.91C303.259 173.808 305.14 172.497 307.002 170.312H301.834V167.595H308.389V165.41H300.865V162.674Z" fill="#6F6356"/>
<path d="M297.996 161.42V176.905C297.996 177.988 297.293 178.767 296.191 178.767H291.745L291.27 175.765H294.462C294.842 175.765 295.032 175.556 295.032 175.195V172.991H286.672C286.368 175.138 285.741 177.095 284.487 178.881L281.922 176.81C283.48 174.606 284.012 172.06 284.012 169.381V161.42H297.996ZM286.9 164.27V165.923H295.032V164.27H286.9ZM286.9 168.564V170.331H295.032V168.564H286.9Z" fill="#6F6356"/>
<path d="M269.498 176.126L270.068 173.029C271.265 173.903 272.69 174.454 274.134 174.454C275.844 174.454 276.813 173.884 276.813 172.611C276.813 171.433 276.034 170.673 273.355 170.673H271.702V168.127H273.222C275.312 168.127 276.471 167.424 276.471 166.113C276.471 165.087 275.73 164.555 274.343 164.555C273.127 164.555 271.93 165.03 270.866 166.018L269.612 163.301C271.113 162.123 272.861 161.591 274.761 161.591C277.953 161.591 280.005 162.826 280.005 165.486C280.005 167.272 278.96 168.678 277.003 169.248C279.131 169.685 280.366 170.901 280.366 172.915C280.366 175.765 278.067 177.456 274.457 177.456C272.538 177.456 270.714 176.943 269.498 176.126Z" fill="#6F6356"/>
<path d="M254.355 172.725L251.429 172.383C251.543 168.564 253.595 166.816 255.875 166.816C257.471 166.816 258.763 167.576 260.169 168.583C261.119 169.248 261.689 169.514 262.24 169.514C263.209 169.514 263.817 168.469 263.931 166.835L266.857 167.177C266.743 170.996 264.691 172.744 262.43 172.744C260.815 172.744 259.523 171.984 258.117 170.977C257.167 170.312 256.616 170.046 256.046 170.046C255.077 170.046 254.469 171.11 254.355 172.725Z" fill="#6F6356"/>
<path d="M240.808 176.126H233.873V168.203C233.417 168.678 232.961 169.096 232.467 169.514L230.795 166.702C232.581 165.239 234.386 162.959 234.956 160.698L238.376 160.85C238.205 161.325 238.053 161.8 237.863 162.256H248.731C248.693 165.79 248.712 169.324 248.522 172.839C248.446 173.998 248.351 175.442 248.028 176.544C247.534 178.235 246.204 178.824 244.551 178.824H241.473L240.808 176.126ZM243.81 175.898C244.703 175.86 245.102 175.765 245.33 174.834C245.767 173.048 245.767 167.291 245.767 165.182H236.286C236.02 165.6 235.735 165.999 235.431 166.379H243.81V175.898ZM241.017 168.887H236.685V170.141H241.017V168.887ZM241.017 172.307H236.685V173.58H241.017V172.307Z" fill="#6F6356"/>
<path d="M212.84 163.681H219.642V160.755H222.568V163.681H229.465V173.77H222.568V178.767H219.642V173.77H212.84V163.681ZM219.642 166.455H215.747V170.996H219.642V166.455ZM226.558 166.455H222.568V170.996H226.558V166.455Z" fill="#6F6356"/>
<path d="M209.268 161.42V176.905C209.268 177.988 208.565 178.767 207.463 178.767H203.017L202.542 175.765H205.734C206.114 175.765 206.304 175.556 206.304 175.195V172.991H197.944C197.64 175.138 197.013 177.095 195.759 178.881L193.194 176.81C194.752 174.606 195.284 172.06 195.284 169.381V161.42H209.268ZM198.172 164.27V165.923H206.304V164.27H198.172ZM198.172 168.564V170.331H206.304V168.564H198.172Z" fill="#6F6356"/>
<path d="M180.769 176.126L181.339 173.029C182.536 173.903 183.961 174.454 185.405 174.454C187.115 174.454 188.084 173.884 188.084 172.611C188.084 171.433 187.305 170.673 184.626 170.673H182.973V168.127H184.493C186.583 168.127 187.742 167.424 187.742 166.113C187.742 165.087 187.001 164.555 185.614 164.555C184.398 164.555 183.201 165.03 182.137 166.018L180.883 163.301C182.384 162.123 184.132 161.591 186.032 161.591C189.224 161.591 191.276 162.826 191.276 165.486C191.276 167.272 190.231 168.678 188.274 169.248C190.402 169.685 191.637 170.901 191.637 172.915C191.637 175.765 189.338 177.456 185.728 177.456C183.809 177.456 181.985 176.943 180.769 176.126Z" fill="#6F6356"/>
<path d="M167.545 162.294H178.736V165.03H173.036V166.854H178.128V169.514H173.036V172.041H179.401V174.777H173.036V178.786H170.11V174.777H161.427V172.041H163.992V167.804C163.688 168.108 163.346 168.412 163.004 168.697L161.142 166.189C162.947 164.783 164.391 162.788 165.018 160.584L167.982 160.983C167.849 161.439 167.716 161.838 167.545 162.294ZM166.158 165.03C165.759 165.676 165.322 166.265 164.847 166.854H170.11V165.03H166.158ZM170.11 169.514H166.823V172.041H170.11V169.514Z" fill="#6F6356"/>
<path d="M149.135 176.126L149.686 173.029C150.826 173.903 152.137 174.454 153.733 174.454C155.405 174.454 156.413 173.751 156.413 172.44C156.413 171.015 155.443 170.312 152.897 170.312C151.928 170.312 150.751 170.483 150.029 170.654V161.876H159.111V164.916H153.012V167.88C153.544 167.842 154.113 167.804 154.645 167.804C157.913 167.804 159.947 169.4 159.947 172.478C159.947 175.518 157.648 177.456 154.057 177.456C152.081 177.456 150.389 176.924 149.135 176.126Z" fill="#6F6356"/>
<path d="M136.502 177.152V174.511L141.271 170.141C142.715 168.773 143.399 167.899 143.399 166.721C143.399 165.448 142.563 164.65 141.29 164.65C139.979 164.65 138.858 165.448 137.984 166.759L136.445 164.042C137.775 162.484 139.542 161.572 141.727 161.572C144.824 161.572 146.933 163.32 146.933 166.208C146.933 168.393 145.85 169.799 143.399 172.003L141.043 174.112H147.085V177.152H136.502Z" fill="#6F6356"/>
<path d="M129.094 177.437C125.541 177.437 123.394 174.682 123.394 169.514C123.394 164.346 125.541 161.591 129.094 161.591C132.647 161.591 134.794 164.346 134.794 169.514C134.794 174.682 132.647 177.437 129.094 177.437ZM129.094 174.492C130.443 174.492 131.203 173.01 131.203 169.514C131.203 166.018 130.443 164.536 129.094 164.536C127.745 164.536 126.985 166.018 126.985 169.514C126.985 173.01 127.745 174.492 129.094 174.492Z" fill="#6F6356"/>
<path d="M111.045 177.152V174.511L115.814 170.141C117.258 168.773 117.942 167.899 117.942 166.721C117.942 165.448 117.106 164.65 115.833 164.65C114.522 164.65 113.401 165.448 112.527 166.759L110.988 164.042C112.318 162.484 114.085 161.572 116.27 161.572C119.367 161.572 121.476 163.32 121.476 166.208C121.476 168.393 120.393 169.799 117.942 172.003L115.586 174.112H121.628V177.152H111.045Z" fill="#6F6356"/>
<path d="M16 148H102V212H16V148Z" fill="#6F6356"/>
<path d="M16 231H318V281H16V231Z" fill="white"/>
<path d="M81.0639 196.448L81.0959 197.36C81.1119 197.664 81.1119 197.968 81.1119 198.272C81.1119 201.216 80.5519 203.44 78.0239 205.232L75.7519 203.584C77.9439 202.24 78.5519 200.56 78.5519 198.064C78.5519 197.856 78.5359 197.648 78.5359 197.424L78.5039 196.672C77.5279 196.72 76.5679 196.752 75.5919 196.752C74.9679 196.752 74.3439 196.736 73.7039 196.704L73.6559 194.192C74.4399 194.24 75.2239 194.256 76.0079 194.256C76.8079 194.256 77.6079 194.224 78.4079 194.208L78.2959 191.12H80.9039L80.9999 193.984C81.7519 193.888 82.5039 193.76 83.2399 193.6L83.3679 196.096C82.5999 196.24 81.8479 196.352 81.0639 196.448ZM70.5359 191.232L73.1599 191.536C72.6159 193.808 72.2639 195.984 72.2639 198.32C72.2639 200.304 72.5199 202.16 72.9999 204.064L70.5519 204.448C69.9599 202.592 69.7839 200.352 69.7839 198.416C69.7839 196 70.0719 193.6 70.5359 191.232Z" fill="white"/>
<path d="M61.3999 195.856V196.896H65.6239V205.296H55.0319V196.896H59.1919V195.856H54.5039V197.712C54.5039 200.24 54.0559 203.312 52.7759 205.504L50.8239 203.584C51.7999 201.824 52.1358 199.616 52.1358 197.616V190.784H65.6078V195.856H61.3999ZM63.2399 192.88H54.5039V193.952H63.2399V192.88ZM59.1919 198.848H57.3039V200.128H59.1919V198.848ZM63.3679 198.848H61.3999V200.128H63.3679V198.848ZM59.1919 201.888H57.3039V203.248H59.1919V201.888ZM63.3679 201.888H61.3999V203.248H63.3679V201.888Z" fill="white"/>
<path d="M37.7359 193.296V190.816H40.2319V193.104C41.1599 193.024 42.1199 192.832 43.0159 192.624L43.0639 195.12C42.1199 195.264 41.1759 195.392 40.2319 195.504V196.48C41.1439 196.224 42.0879 196.064 43.0319 196.064C44.7119 196.064 46.3279 196.624 47.1919 198.16C47.5759 198.848 47.7519 199.648 47.7519 200.448C47.7519 201.776 47.1919 203.184 46.0079 203.904C45.2719 204.352 44.3599 204.544 43.4959 204.544C42.9519 204.544 42.5199 204.48 41.9919 204.352L41.9119 201.744C42.3759 201.936 42.7919 202.032 43.2879 202.032C44.3759 202.032 45.1759 201.52 45.1759 200.352C45.1759 198.88 43.9439 198.384 42.6799 198.384C41.8159 198.384 41.0479 198.56 40.2319 198.832V201.648C40.2319 202.208 40.2159 202.816 40.0399 203.312C39.7199 204.304 38.8719 204.816 37.8639 204.816C36.9839 204.816 36.0719 204.48 35.3679 203.968C34.5519 203.392 34.0879 202.576 34.0879 201.568C34.0879 199.584 36.0879 198.112 37.7359 197.376V195.728C36.9039 195.76 36.0719 195.808 35.2239 195.808C35.0479 195.808 34.8719 195.808 34.6959 195.808L34.6639 193.28C35.1919 193.312 35.7359 193.328 36.2639 193.328C36.7599 193.328 37.2399 193.312 37.7359 193.296ZM37.7999 199.904C37.2719 200.224 36.2959 200.896 36.2959 201.6C36.2959 202.096 36.9519 202.496 37.4159 202.496C37.8159 202.496 37.7999 202.064 37.7999 201.616V199.904ZM43.4959 193.456L45.0159 191.76C46.3919 192.608 47.5439 193.616 48.5999 194.816L46.8239 196.528C45.8319 195.232 44.8559 194.336 43.4959 193.456Z" fill="white"/>
<path d="M248.021 266.192C249.225 266.192 250.205 267.172 250.205 268.376C250.205 269.594 249.225 270.574 248.021 270.574C246.803 270.574 245.823 269.594 245.823 268.376C245.823 267.172 246.803 266.192 248.021 266.192ZM248.021 267.088C247.307 267.088 246.733 267.662 246.733 268.376C246.733 269.09 247.307 269.678 248.021 269.678C248.735 269.678 249.309 269.09 249.309 268.376C249.309 267.662 248.735 267.088 248.021 267.088Z" fill="#6F6356"/>
<path d="M239.965 260.116L240.987 260.102C241.869 260.074 242.751 260.046 243.633 259.976L243.675 261.754C243.241 261.726 242.793 261.726 242.345 261.726C241.911 261.726 241.463 261.726 241.029 261.74L239.979 261.768L240.021 265.856C240.049 268.628 238.705 270.21 236.185 271.162L234.967 269.65C236.031 269.3 237.207 268.698 237.879 267.76C237.459 267.97 237.095 268.082 236.619 268.082C235.009 268.082 233.973 266.766 233.973 265.226C233.973 263.56 235.163 262.37 236.815 262.37C237.347 262.37 237.767 262.482 238.243 262.72L238.215 261.81L234.295 261.908C233.413 261.936 232.531 261.964 231.649 262.034L231.621 260.228C232.013 260.242 232.419 260.256 232.811 260.256C233.301 260.256 233.777 260.256 234.267 260.242L238.173 260.158L238.145 258.492H239.937L239.965 260.116ZM236.941 266.528C237.711 266.528 238.145 265.912 238.145 265.184C238.145 264.47 237.669 263.924 236.941 263.924C236.227 263.924 235.737 264.526 235.737 265.226C235.737 265.94 236.185 266.528 236.941 266.528Z" fill="#6F6356"/>
<path d="M221.485 264.82C220.659 264.834 219.833 264.834 219.007 264.834C218.433 264.834 217.873 264.834 217.313 264.834L217.299 263.056C218.097 263.07 218.895 263.084 219.679 263.084C220.281 263.084 220.883 263.084 221.471 263.084V262.076C220.757 262.076 220.043 262.09 219.329 262.09C218.489 262.09 217.663 262.076 216.837 262.062V260.298C218.377 260.326 219.917 260.34 221.457 260.34L221.443 258.618H223.291V260.326C224.747 260.298 226.203 260.27 227.645 260.2V261.95C226.203 261.992 224.761 262.034 223.305 262.048L223.319 263.042C224.579 263.014 225.839 262.972 227.099 262.916L227.113 264.666C225.853 264.722 224.593 264.764 223.333 264.792L223.347 266.332C224.859 266.724 226.119 267.34 227.477 268.096L226.595 269.888C225.517 269.16 224.565 268.614 223.333 268.152C223.319 268.74 223.305 269.23 222.941 269.72C222.353 270.49 221.205 270.672 220.295 270.672C218.867 270.672 217.145 270.056 217.145 268.362C217.145 267.452 217.719 266.71 218.545 266.36C219.231 266.066 219.945 265.996 220.687 265.996C220.953 265.996 221.233 266.01 221.499 266.024L221.485 264.82ZM221.499 267.676C221.177 267.62 220.855 267.606 220.519 267.606C220.015 267.606 218.881 267.676 218.881 268.39C218.881 268.978 219.707 269.118 220.155 269.118C221.499 269.118 221.499 268.544 221.499 267.676Z" fill="#6F6356"/>
<path d="M202.809 258.842L204.629 259.052C204.279 260.718 204.083 262.286 204.083 263.98C204.083 264.148 204.083 264.316 204.097 264.498C204.391 263.868 204.685 263.238 204.993 262.622L206.099 263.63C205.469 264.834 204.783 266.248 204.461 267.564L202.949 267.732C202.501 266.276 202.333 264.946 202.333 263.42C202.333 261.88 202.501 260.354 202.809 258.842ZM209.193 258.828H211.083C211.209 260.368 211.335 261.922 211.335 263.476C211.335 267.144 210.341 269.286 206.953 270.938L205.427 269.636C206.729 269.02 207.975 268.25 208.731 266.976C209.361 265.87 209.431 264.554 209.431 263.308C209.431 261.81 209.319 260.312 209.193 258.828Z" fill="#6F6356"/>
<path d="M188.319 260.62C188.557 259.892 188.767 259.178 188.963 258.45L190.881 258.814C190.699 259.374 190.503 259.92 190.321 260.466C190.937 260.396 191.553 260.326 192.155 260.2L192.057 262.02C191.273 262.146 190.475 262.23 189.677 262.3C188.907 264.428 188.053 266.528 187.073 268.572L185.281 267.802C186.205 266.066 187.031 264.26 187.703 262.412C187.339 262.426 186.961 262.44 186.597 262.44C186.331 262.44 186.079 262.44 185.813 262.426L185.743 260.578C186.275 260.606 186.793 260.634 187.325 260.634C187.661 260.634 187.997 260.62 188.319 260.62ZM194.605 266.416C195.655 266.808 196.579 267.354 197.503 267.984L196.621 269.608C195.991 269.16 195.347 268.726 194.661 268.39C194.591 270.112 193.443 270.728 191.847 270.728C190.363 270.728 188.655 270.028 188.655 268.292C188.655 266.668 190.181 265.856 191.637 265.856C192.015 265.856 192.393 265.898 192.785 265.968C192.729 265.016 192.687 264.078 192.673 263.126L194.465 263.168C194.479 264.246 194.549 265.338 194.605 266.416ZM192.869 267.634C192.463 267.522 191.917 267.452 191.497 267.452C190.993 267.452 190.293 267.648 190.293 268.264C190.293 268.95 191.161 269.132 191.693 269.132C192.365 269.132 192.897 268.95 192.897 268.18C192.897 267.998 192.883 267.816 192.869 267.634ZM192.757 261.586L193.541 260.06C194.913 260.578 196.187 261.152 197.447 261.866L196.663 263.518C195.431 262.72 194.157 262.02 192.757 261.586Z" fill="#6F6356"/>
<path d="M173.751 263.42C173.625 262.972 173.513 262.496 173.429 262.048L172.813 258.87L174.717 258.506L175.291 261.642C175.347 261.964 175.445 262.384 175.543 262.706C177.083 262.16 178.679 261.768 180.261 261.348L180.821 263.196C178.763 263.644 175.865 264.33 174.003 265.268C173.303 265.618 172.379 266.262 172.379 267.13C172.379 267.746 172.771 268.082 173.303 268.278C174.059 268.558 175.389 268.628 176.201 268.628C177.769 268.628 179.323 268.432 180.849 268.194L181.003 270.084C179.477 270.308 177.881 270.42 176.341 270.42C174.185 270.42 170.503 270.196 170.503 267.256C170.503 265.268 172.127 264.162 173.751 263.42Z" fill="#6F6356"/>
<path d="M154.949 263.672L153.731 263.882L153.605 262.146L154.949 261.922V258.114H156.657V261.614L159.359 261.138L159.401 262.874L156.657 263.364V266.906C156.657 267.144 156.685 267.2 156.937 267.2H157.483C157.693 267.2 157.749 266.976 157.791 266.668C157.847 266.262 157.903 265.576 157.931 265.156L159.401 265.492C159.261 266.738 159.107 267.704 158.799 268.236C158.547 268.67 158.155 268.866 157.651 268.866H155.943C155.313 268.866 154.949 268.32 154.949 267.732V263.672ZM158.911 258.632H166.541C166.541 260.816 166.541 262.916 166.485 265.058C166.457 266.206 166.275 269.188 165.869 270.168C165.659 270.672 165.407 270.98 164.889 271.162C164.651 271.246 164.371 271.302 164.133 271.302H161.837L161.487 269.524H163.419C163.895 269.524 164.091 269.496 164.259 268.978C164.371 268.6 164.525 267.48 164.567 267.046C164.735 265.352 164.749 263.714 164.749 261.908C164.749 261.404 164.749 260.886 164.749 260.354H162.971C162.971 261.726 162.901 263.042 162.705 264.4C162.481 266.066 161.963 267.704 160.871 269.02C160.059 269.986 159.205 270.714 158.141 271.386L156.895 269.902C158.631 268.992 160.087 267.634 160.661 265.716C161.151 264.05 161.193 262.076 161.193 260.354H158.911V258.632Z" fill="#6F6356"/>
<path d="M139.955 263.014C139.423 262.412 138.863 261.81 138.219 261.32L138.975 259.906C139.101 260.004 139.227 260.102 139.353 260.2C139.773 259.556 140.109 258.8 140.361 258.072L141.859 258.478C141.467 259.458 140.963 260.298 140.361 261.166C140.515 261.334 140.683 261.502 140.837 261.67C141.299 260.97 141.733 260.256 142.139 259.514L143.483 260.018V259.024H146.591V258.086H148.285V259.024H151.561V260.522H150.413C150.329 260.9 150.203 261.46 150.091 261.824H151.407V264.82H150.763V269.174C150.763 269.874 150.581 270.336 149.797 270.336H148.635L148.355 268.698H149.027C149.237 268.698 149.265 268.628 149.265 268.46V265.982H148.243V271.274H146.731V265.982H145.737V270.308H144.267V264.82H143.777C143.819 264.988 143.861 265.156 143.903 265.31L142.671 265.786C142.643 265.59 142.629 265.394 142.587 265.212L141.831 265.296V271.274H140.375V265.478C139.717 265.52 139.059 265.562 138.401 265.604L138.359 264.064H139.185C139.465 263.728 139.717 263.364 139.955 263.014ZM143.483 260.228C142.783 261.418 141.649 262.944 140.767 264.036C141.257 263.994 141.761 263.98 142.265 263.938C142.167 263.63 142.055 263.322 141.943 263.028L143.021 262.608C143.273 263.182 143.399 263.574 143.581 264.162V261.824H144.953C144.827 261.39 144.715 260.956 144.575 260.522H143.483V260.228ZM148.761 260.522H146.185C146.311 260.956 146.451 261.39 146.549 261.824H148.439C148.551 261.502 148.705 260.858 148.761 260.522ZM145.107 264.484H146.731V263.294H145.107V264.484ZM148.243 263.294V264.484H149.895V263.294H148.243ZM139.983 266.374C139.955 267.788 139.857 268.978 139.493 270.364L138.191 269.776C138.513 268.6 138.667 267.382 138.709 266.15L139.983 266.374ZM143.357 266.192C143.595 267.228 143.721 268.278 143.749 269.328L142.475 269.538C142.475 269.412 142.489 269.286 142.489 269.146C142.489 268.236 142.363 267.284 142.223 266.374L143.357 266.192Z" fill="#6F6356"/>
<path d="M124.793 259.052L126.711 259.262C126.221 261.376 125.899 263.532 125.899 265.716C125.899 267.256 126.067 268.712 126.403 270.21L124.555 270.434C124.191 268.908 124.079 267.326 124.079 265.758C124.079 263.448 124.359 261.306 124.793 259.052ZM134.705 261.936C133.893 261.866 133.081 261.824 132.255 261.824C130.939 261.824 129.637 261.936 128.335 262.104L128.363 260.242C129.693 260.088 131.009 260.004 132.339 260.004C133.151 260.004 133.949 260.032 134.747 260.102L134.705 261.936ZM129.973 265.674C129.721 266.038 129.483 266.486 129.483 266.948C129.483 267.354 129.721 267.606 130.085 267.732C130.603 267.914 131.457 267.942 132.017 267.942C133.165 267.942 134.201 267.816 135.321 267.606L135.279 269.524C134.229 269.678 133.179 269.776 132.129 269.776C130.379 269.776 127.789 269.622 127.789 267.298C127.789 266.57 128.027 265.968 128.405 265.366L129.973 265.674Z" fill="#6F6356"/>
<path d="M107.587 259.64H110.863C110.667 259.22 110.429 258.758 110.191 258.352L112.081 258.016C112.319 258.464 112.641 259.164 112.823 259.64H115.637C115.889 259.15 116.071 258.618 116.211 258.072L118.199 258.268C118.031 258.73 117.821 259.192 117.611 259.64H120.747V261.222H107.587V259.64ZM118.213 261.964H119.963V270.07C119.963 270.854 119.543 271.274 118.759 271.274H116.169L115.847 269.566H117.961C118.101 269.566 118.213 269.538 118.213 269.37V261.964ZM108.357 262.244H113.929V270.028C113.929 270.35 113.929 270.574 113.747 270.854C113.509 271.204 113.173 271.274 112.781 271.274H110.947L110.667 269.608H111.969C112.277 269.608 112.277 269.482 112.277 269.314V268.194H110.051V271.274H108.357V262.244ZM115.021 262.37H116.729V268.53H115.021V262.37ZM112.277 263.7H110.051V264.638H112.277V263.7ZM112.277 265.912H110.051V266.864H112.277V265.912Z" fill="#6F6356"/>
<path d="M93.2513 258.674H104.283V270.882H93.2513V258.674ZM95.0853 263.84H102.421V260.396H95.0853V263.84ZM95.0853 265.534V269.146H102.421V265.534H95.0853Z" fill="#6F6356"/>
<path d="M77.6834 258.086H79.2934V259.192H81.5754V258.086H83.1854V259.192H84.0814V260.732H83.1854V266.094H84.0534V267.606H76.7314V266.094H77.6834V260.732H76.9274V259.192H77.6834V258.086ZM89.5274 258.45V270.056C89.5274 270.966 89.1354 271.246 88.2674 271.246H86.4334L86.1534 269.58H87.4414C87.7774 269.58 87.8754 269.44 87.8754 269.118V267.074H85.7894C85.6494 268.572 85.2994 270.056 84.3614 271.26L82.9474 270.084C83.4234 269.426 83.7734 268.754 83.9834 267.97C84.3474 266.472 84.3894 264.932 84.3894 263.406V258.45H89.5274ZM87.8754 260.088H85.9574V262.034H87.8754V260.088ZM81.5754 260.732H79.2934V261.586H81.5754V260.732ZM81.5754 262.916H79.2934V263.826H81.5754V262.916ZM87.8754 263.56H85.9574L85.9294 265.506H87.8754V263.56ZM81.5754 265.086H79.2934V266.094H81.5754V265.086ZM79.8954 268.39C79.4894 269.37 78.5654 270.588 77.7394 271.274L76.5774 270.07C77.2914 269.496 78.0474 268.488 78.4954 267.69L79.8954 268.39ZM81.7574 267.704C82.3174 268.208 82.8354 268.824 83.2274 269.482L82.0514 270.504C81.6594 269.804 81.1554 269.118 80.6094 268.53L81.7574 267.704Z" fill="#6F6356"/>
<path d="M262.658 250.542C263.89 251.368 264.94 252.25 265.906 253.384L264.618 254.77C263.666 253.608 262.7 252.768 261.482 251.9L262.658 250.542Z" fill="#6F6356"/>
<path d="M255.882 246.454V247.588H248.616V246.426C247.832 246.888 247.202 247.21 246.376 247.574L245.452 245.81C247.594 245.11 249.848 243.78 251.318 242.058H253.11C254.748 243.892 256.708 244.942 258.976 245.81L258.01 247.574C257.24 247.224 256.596 246.888 255.882 246.454ZM249.288 245.992H255.154C254.02 245.236 253.11 244.508 252.186 243.486C251.304 244.522 250.408 245.236 249.288 245.992ZM246.88 248.778H257.492V255.008H246.88V248.778ZM255.7 250.374H248.658V253.426H255.7V250.374Z" fill="#6F6356"/>
<path d="M236.058 250.948C235.456 251.466 234.924 251.76 234.21 252.082L233.972 251.704C232.712 252.236 231.494 252.726 230.178 253.118L229.996 251.298C230.472 251.186 230.948 251.074 231.424 250.92V246.692H230.164V245.026H231.424V242.1H233.09V245.026H234.014V246.692H233.09V250.374C233.412 250.262 233.72 250.136 234.014 249.996L234.056 250.654C234.98 250.248 235.554 249.758 236.17 248.974H234V247.658H243.422V248.974H237.752C237.598 249.212 237.486 249.408 237.318 249.646H243.072C243.058 250.64 242.974 253.636 242.624 254.434C242.358 255.05 241.938 255.246 241.28 255.246H239.264L239.012 253.72H240.678C241.112 253.72 241.168 253.51 241.238 253.16C241.336 252.684 241.392 251.578 241.42 250.948H240.832C239.978 253.048 238.466 254.504 236.408 255.414L235.4 254.252C237.024 253.58 238.55 252.53 239.404 250.948H238.578C237.276 252.74 235.918 253.622 233.818 254.252L233.174 253.034C234.7 252.628 235.848 252.054 236.982 250.948H236.058ZM234.63 242.506H242.568V247.056H234.63V242.506ZM240.93 243.64H236.254V244.382H240.93V243.64ZM240.93 245.264H236.254V246.02H240.93V245.264Z" fill="#6F6356"/>
<path d="M219.958 246.356C219.356 248.764 218.236 252.166 217.214 254.42L215.45 253.706C216.626 251.34 217.396 249.03 218.082 246.496C217.592 246.51 217.088 246.524 216.584 246.524C216.332 246.524 216.08 246.524 215.828 246.524L215.8 244.704C216.276 244.718 216.766 244.732 217.256 244.732C217.676 244.732 218.096 244.732 218.516 244.718C218.684 243.948 218.838 243.192 218.978 242.436L220.84 242.688C220.7 243.276 220.532 243.948 220.392 244.578C221.4 244.452 222.086 244.34 223.094 244.116L223.164 245.88C222.1 246.076 221.036 246.244 219.958 246.356ZM222.086 250.906C221.834 251.172 221.386 251.648 221.386 252.04C221.386 252.404 221.778 252.558 222.086 252.614C222.688 252.726 223.304 252.754 223.92 252.754C224.998 252.754 226.076 252.628 227.14 252.488V254.308C226.146 254.42 225.152 254.476 224.144 254.476C223.108 254.476 222.184 254.448 221.302 254.182C220.252 253.86 219.608 253.23 219.608 252.18C219.608 251.34 220.112 250.668 220.672 250.108L222.086 250.906ZM221.47 246.636C222.436 246.51 223.402 246.44 224.382 246.44C225.25 246.44 226.104 246.496 226.972 246.608L226.804 248.344C225.936 248.246 225.082 248.176 224.214 248.176C223.234 248.176 222.24 248.26 221.26 248.4L221.47 246.636Z" fill="#6F6356"/>
<path d="M201.982 242.674L203.956 242.8L203.676 249.94C203.676 250.052 203.676 250.15 203.676 250.262C203.676 251.004 203.704 251.774 204.32 252.292C204.768 252.656 205.356 252.754 205.916 252.754C206.98 252.754 207.876 252.348 208.576 251.55C209.374 250.64 209.92 249.52 210.298 248.372L212.02 249.352C210.914 252.222 209.304 254.63 205.916 254.63C204.586 254.63 203.13 254.224 202.346 253.076C201.8 252.278 201.702 251.396 201.702 250.458C201.702 250.318 201.702 250.22 201.716 250.024L201.982 242.674Z" fill="#6F6356"/>
<path d="M191.398 242.1H193.12V242.716H196.62V244.004H193.12V244.69H197.152V245.964H195.598C195.458 246.356 195.374 246.594 195.22 246.972H196.816V248.26H193.12V248.946H196.522V250.094H193.12V250.822H197.04V252.124H193.12V253.09H191.384V252.124H187.422V250.822H191.398V250.094H187.968V248.946H191.398V248.26H187.632V246.972H189.312C189.256 246.678 189.116 246.23 189.018 245.964H187.296V244.69H191.398V244.004H187.884V242.716H191.398V242.1ZM185.252 242.226C186.05 242.856 186.82 243.696 187.324 244.578L185.952 245.74C185.42 244.802 184.86 244.046 184.062 243.332L185.252 242.226ZM193.862 245.964H190.712C190.824 246.286 190.908 246.636 190.992 246.972H193.54C193.666 246.65 193.778 246.3 193.862 245.964ZM196.998 254.952H190.138C188.64 254.952 187.436 254.658 186.484 253.426C185.882 254.196 185.294 254.77 184.496 255.33L183.838 253.356C184.286 253.174 184.874 252.782 185.196 252.446V249.002H184.076V247.378H186.848V251.34C186.848 251.984 187.254 252.432 187.758 252.768C188.486 253.244 189.158 253.314 189.998 253.314H197.376L196.998 254.952Z" fill="#6F6356"/>
<path d="M170.426 243.052L172.344 243.262C171.854 245.376 171.532 247.532 171.532 249.716C171.532 251.256 171.7 252.712 172.036 254.21L170.188 254.434C169.824 252.908 169.712 251.326 169.712 249.758C169.712 247.448 169.992 245.306 170.426 243.052ZM180.338 245.936C179.526 245.866 178.714 245.824 177.888 245.824C176.572 245.824 175.27 245.936 173.968 246.104L173.996 244.242C175.326 244.088 176.642 244.004 177.972 244.004C178.784 244.004 179.582 244.032 180.38 244.102L180.338 245.936ZM175.606 249.674C175.354 250.038 175.116 250.486 175.116 250.948C175.116 251.354 175.354 251.606 175.718 251.732C176.236 251.914 177.09 251.942 177.65 251.942C178.798 251.942 179.834 251.816 180.954 251.606L180.912 253.524C179.862 253.678 178.812 253.776 177.762 253.776C176.012 253.776 173.422 253.622 173.422 251.298C173.422 250.57 173.66 249.968 174.038 249.366L175.606 249.674Z" fill="#6F6356"/>
<path d="M162.922 244.046H166.324V245.782H165.806C165.708 247.77 165.442 249.884 164.434 251.62C165.05 252.46 165.722 253.048 166.604 253.608L165.596 255.246C164.658 254.616 164.014 254.014 163.314 253.118C162.516 253.986 161.69 254.602 160.682 255.19L159.702 253.804L159.072 254.868C158.554 254.532 158.036 254.252 157.476 253.986C156.398 254.7 155.194 255.092 153.948 255.372L153.276 253.916C154.172 253.79 154.984 253.608 155.838 253.244C155.124 252.95 154.48 252.726 153.738 252.558C154.13 251.97 154.382 251.522 154.662 250.878H153.276V249.464H155.222C155.334 249.128 155.432 248.792 155.53 248.456L156.118 248.554V246.636C155.46 247.462 154.802 248.036 153.92 248.61L152.982 247.364C153.864 246.986 154.676 246.328 155.334 245.656H153.276V244.312H154.186C154.004 243.612 153.864 243.22 153.542 242.59L154.858 242.114C155.152 242.702 155.39 243.332 155.558 243.962L154.55 244.312H156.118V242.072H157.686V244.312H159.268L157.994 243.934C158.33 243.332 158.61 242.702 158.834 242.044L160.276 242.408C159.996 243.136 159.772 243.626 159.422 244.312H160.108V245.656H158.204C158.694 246.104 159.198 246.482 159.786 246.79L158.876 247.938C158.428 247.616 158.036 247.238 157.686 246.804V248.638H156.664L157.14 248.722C157.07 249.002 157.014 249.184 156.93 249.464H160.346V250.878H159.632C159.408 251.606 159.142 252.208 158.708 252.824C159.114 252.992 159.534 253.188 159.94 253.398L159.898 253.468C160.906 253.062 161.69 252.46 162.404 251.648C161.858 250.542 161.522 249.226 161.326 248.008C161.116 248.344 160.92 248.61 160.668 248.932L159.422 247.63C160.64 246.02 161.312 243.976 161.564 241.988L163.258 242.212C163.174 242.828 163.062 243.444 162.922 244.046ZM163.44 249.94C163.958 248.68 164.14 247.14 164.168 245.782H162.46C162.6 247.182 162.88 248.638 163.44 249.94ZM156.37 250.878C156.216 251.214 156.062 251.536 155.894 251.858C156.356 251.984 156.818 252.11 157.266 252.264C157.644 251.83 157.868 251.424 158.064 250.878H156.37Z" fill="#6F6356"/>
<path d="M143.518 251.34V247.56C142.412 249.828 140.69 251.802 138.632 253.272L137.624 251.55C139.906 250.038 141.544 248.4 142.776 245.95H137.82V244.228H143.518V242.058H145.254V244.228H150.98V245.95H145.968C146.948 248.036 149.146 250.36 151.162 251.48L150.168 253.272C149.342 252.684 148.656 252.096 147.942 251.382V252.964H145.226V255.302H143.518V252.964H140.872V251.34H143.518ZM145.226 251.34H147.9C146.752 250.122 145.996 249.058 145.226 247.56V251.34Z" fill="#6F6356"/>
<path d="M123.918 248.428C123.54 248.848 123.232 249.156 122.798 249.534L122.154 247.616C123.848 246.048 124.604 244.298 125.122 242.072L126.83 242.282C126.564 243.472 126.228 244.522 125.71 245.628V255.316H123.918V248.428ZM129.84 243.906H135.594V245.6H131.156V247.294H135.272V248.96H131.156V250.682H135.272V252.362H131.156V255.316H129.35V245.6H129.084C128.454 246.762 127.824 247.672 126.886 248.596L125.976 246.874C127.306 245.586 128.132 243.85 128.538 242.072L130.33 242.24C130.19 242.828 130.036 243.346 129.84 243.906Z" fill="#6F6356"/>
<path d="M110.464 253.678V252.796C109.428 253.174 108.504 253.412 107.398 253.552L106.894 252.082C108.392 251.928 109.666 251.732 111.024 251.046H107.118V249.618H112.914V249.072H112.424L112.144 247.952H112.984C113.096 247.952 113.166 247.91 113.166 247.798V247.28H111.668V249.142H110.184V247.28H108.896V249.002H107.496V246.216H110.184V245.712H106.95V244.606H108.112L107.118 244.06C107.636 243.43 107.986 242.8 108.252 242.016L109.666 242.282C109.582 242.478 109.512 242.674 109.442 242.856H110.184V242.086H111.668V242.856H114.412V244.018H111.668V244.606H115.056V245.712H111.668V246.216H114.496V247.98C114.496 248.274 114.44 248.512 114.258 248.75H114.748V249.618H120.082V251.046H118.794L119.746 251.704C119.13 252.208 118.626 252.586 117.94 253.006C118.766 253.328 119.466 253.524 120.334 253.706L119.522 255.274C118.164 254.966 117.072 254.49 115.91 253.706C114.944 253.048 114.034 252.18 113.502 251.102C112.998 251.536 112.592 251.802 112.004 252.124V253.608C112.942 253.538 113.88 253.482 114.818 253.37L114.804 254.7C112.69 254.966 110.548 255.134 108.406 255.204L108.266 253.776C109.008 253.762 109.736 253.72 110.464 253.678ZM118.052 242.086H119.718V247.812C119.718 248.624 119.242 249.016 118.724 249.016H116.54L116.33 247.532H117.674C118.024 247.532 118.052 247.392 118.052 247.14V242.086ZM115.392 242.632H116.946V246.804H115.392V242.632ZM108.42 244.606H110.184V244.018H108.868C108.728 244.228 108.588 244.424 108.42 244.606ZM116.456 252.25C116.946 251.914 117.506 251.438 117.954 251.046H115.196C115.546 251.55 115.952 251.9 116.456 252.25Z" fill="#6F6356"/>
<path d="M101.378 253.608H102.33C102.61 253.608 102.68 253.468 102.68 253.202V247.84H98.648V242.59H104.332V253.874C104.332 254.56 104.08 255.274 103.268 255.274H100.874L100.65 253.916H94.98V248.596H101.378V253.608ZM92.068 242.59H97.584V247.84H93.72V255.274H92.068V242.59ZM102.68 243.878H100.258V244.676H102.68V243.878ZM95.96 243.878H93.72V244.676H95.96V243.878ZM102.68 245.74H100.258V246.552H102.68V245.74ZM95.96 245.74H93.72V246.552H95.96V245.74ZM99.796 249.87H96.548V250.696H99.796V249.87ZM99.796 251.732H96.548V252.6H99.796V251.732Z" fill="#6F6356"/>
<path d="M80.504 243.332H88.876V245.012H84.508V246.664H88.428V248.302H84.508V250.542H89.3941V252.222H84.508V255.274H82.744V252.222H76.206V250.542H78.152V246.916C77.816 247.266 77.5641 247.504 77.1861 247.812L76.024 246.3C77.466 245.194 78.5161 243.724 79.0201 241.974L80.882 242.324C80.756 242.674 80.644 242.996 80.504 243.332ZM79.622 245.012C79.23 245.628 78.88 246.118 78.39 246.664H82.744V245.012H79.622ZM82.744 248.302H79.916V250.542H82.744V248.302Z" fill="#6F6356"/>
<path d="M68.66 244.592C68.66 245.292 68.1 245.852 67.4 245.852C66.7 245.852 66.14 245.292 66.14 244.592C66.14 243.892 66.7 243.332 67.4 243.332C68.1 243.332 68.66 243.892 68.66 244.592ZM72.566 252.936L71.656 253.846L67.4 249.548L63.144 253.846L62.234 252.936L66.532 248.68L62.234 244.424L63.144 243.514L67.4 247.812L71.656 243.514L72.566 244.424L68.268 248.68L72.566 252.936ZM64.572 248.68C64.572 249.38 64.012 249.94 63.312 249.94C62.612 249.94 62.052 249.38 62.052 248.68C62.052 247.98 62.612 247.42 63.312 247.42C64.012 247.42 64.572 247.98 64.572 248.68ZM72.748 248.68C72.748 249.38 72.188 249.94 71.488 249.94C70.788 249.94 70.228 249.38 70.228 248.68C70.228 247.98 70.788 247.42 71.488 247.42C72.188 247.42 72.748 247.98 72.748 248.68ZM68.66 252.768C68.66 253.468 68.1 254.028 67.4 254.028C66.7 254.028 66.14 253.468 66.14 252.768C66.14 252.068 66.7 251.508 67.4 251.508C68.1 251.508 68.66 252.068 68.66 252.768Z" fill="#6F6356"/>
<path d="M53.9704 186.49C55.7991 184.786 56.0807 182.116 54.5994 180.526C53.1181 178.937 50.4348 179.031 48.6061 180.736C46.7775 182.44 46.4959 185.111 47.9772 186.7C49.4585 188.289 52.1418 188.195 53.9704 186.49Z" fill="white"/>
<path d="M78.1667 186.492C79.9954 184.787 80.277 182.117 78.7956 180.528C77.3143 178.939 74.6311 179.033 72.8024 180.737C70.9737 182.442 70.6921 185.112 72.1734 186.701C73.6548 188.29 76.338 188.196 78.1667 186.492Z" fill="white"/>
<path d="M34.9345 165.729C34.9345 164.597 34.0175 163.681 32.8863 163.681C31.7552 163.681 30.8382 164.597 30.8382 165.729C30.8382 166.86 31.7552 167.777 32.8863 167.777C34.0175 167.777 34.9345 166.86 34.9345 165.729Z" fill="white"/>
<path d="M69.1238 183.134C69.803 179.787 72.9742 177.127 76.3827 177.127C79.6647 177.127 82.0302 179.594 81.9653 182.766C85.5148 182.859 86.5028 178.198 86.5028 178.198C86.8016 176.895 87.2481 174.354 87.6218 171.86C87.7443 171.09 87.6502 170.302 87.3499 169.582C86.4221 167.422 85.3008 165.35 83.9996 163.391C82.7688 161.56 80.7042 160.476 78.3476 160.436C76.9422 160.414 75.5625 160.401 74.5207 160.401L74.5117 160.392C74.3775 158.151 72.7393 156.435 70.4397 156.23C68.9436 156.097 63.0175 156 60.173 156C59.0428 156 57.4214 156.016 55.781 156.042V156.036H36.0442C35.7932 156.036 35.5446 156.085 35.3126 156.18C35.0807 156.276 34.8699 156.417 34.6924 156.594C34.5149 156.771 34.3742 156.981 34.2782 157.212C34.1822 157.443 34.1328 157.691 34.133 157.942V157.95C34.133 158.454 34.3334 158.936 34.6901 159.292C35.0469 159.647 35.5307 159.847 36.0353 159.847H40.011C40.4898 159.883 40.9375 160.097 41.2643 160.447C41.5912 160.798 41.773 161.259 41.7734 161.738V161.748C41.7742 161.998 41.7254 162.246 41.6298 162.478C41.5342 162.71 41.3937 162.92 41.2164 163.098C41.0391 163.276 40.8284 163.416 40.5964 163.513C40.3645 163.609 40.1157 163.659 39.8644 163.659H37.8256C37.319 163.659 36.8332 163.86 36.475 164.217C36.1168 164.574 35.9155 165.059 35.9155 165.564C35.9154 165.814 35.9647 166.062 36.0606 166.293C36.1565 166.524 36.2972 166.734 36.4746 166.911C36.652 167.088 36.8626 167.229 37.0944 167.324C37.3262 167.42 37.5747 167.469 37.8256 167.469H39.8644C40.3713 167.469 40.8575 167.67 41.2159 168.028C41.5743 168.385 41.7757 168.87 41.7757 169.375C41.7757 169.881 41.5743 170.366 41.2159 170.723C40.8575 171.08 40.3713 171.281 39.8644 171.281H32.2374C31.7307 171.281 31.2447 171.482 30.8864 171.839C30.528 172.196 30.3265 172.681 30.3262 173.186C30.3262 173.691 30.5275 174.176 30.886 174.533C31.2444 174.891 31.7305 175.092 32.2374 175.092H39.8644C40.3713 175.092 40.8575 175.292 41.2159 175.65C41.5743 176.007 41.7757 176.492 41.7757 176.997C41.7751 177.503 41.5735 177.987 41.2151 178.344C40.8567 178.701 40.3709 178.901 39.8644 178.901H37.5056C36.999 178.901 36.5132 179.102 36.155 179.459C35.7967 179.816 35.5955 180.301 35.5955 180.806C35.5955 181.311 35.7967 181.796 36.1549 182.153C36.5131 182.51 36.9989 182.711 37.5056 182.712L45.0319 182.706L45.6575 181.152C46.9387 178.795 49.4878 177.126 52.1868 177.126C55.5963 177.126 58.0178 179.788 57.7515 183.138H69.1227M50.167 164.546H47.6023C47.5998 164.546 47.5975 164.547 47.5957 164.549C47.5939 164.55 47.5927 164.553 47.5922 164.555L47.3561 166.229C47.3557 166.23 47.3557 166.231 47.356 166.233C47.3563 166.234 47.3569 166.235 47.3578 166.237C47.3586 166.238 47.3597 166.238 47.361 166.239C47.3623 166.24 47.3636 166.24 47.365 166.24H49.274C49.3677 166.237 49.4608 166.255 49.5466 166.293C49.6323 166.331 49.7085 166.387 49.7696 166.458C49.8308 166.529 49.8752 166.613 49.8998 166.703C49.9244 166.793 49.9285 166.888 49.9119 166.98C49.8791 167.182 49.7768 167.366 49.6224 167.501C49.468 167.636 49.2712 167.713 49.0659 167.719H47.1547C47.1523 167.719 47.1501 167.72 47.1482 167.722C47.1464 167.723 47.1451 167.725 47.1446 167.727L46.8022 170.159C46.7695 170.361 46.6671 170.545 46.5127 170.68C46.3583 170.815 46.1615 170.892 45.9562 170.898C45.8626 170.901 45.7695 170.883 45.6838 170.845C45.5981 170.807 45.5219 170.751 45.4609 170.68C45.3999 170.609 45.3555 170.525 45.331 170.435C45.3066 170.345 45.3026 170.251 45.3195 170.159L46.208 163.852C46.2432 163.639 46.3518 163.444 46.5151 163.301C46.6784 163.159 46.8863 163.077 47.1032 163.071H50.374C50.4677 163.068 50.5608 163.086 50.6465 163.124C50.7322 163.162 50.8083 163.218 50.8693 163.289C50.9304 163.36 50.9747 163.444 50.9992 163.534C51.0236 163.624 51.0276 163.719 51.0107 163.811C50.9775 164.012 50.8752 164.195 50.7213 164.329C50.5673 164.464 50.3714 164.54 50.167 164.546ZM57.0219 163.573C57.2884 163.809 57.4758 164.12 57.559 164.466C57.6521 164.857 57.6673 165.263 57.6038 165.66C57.526 166.277 57.2724 166.86 56.8731 167.339C56.6292 167.626 56.3195 167.851 55.9701 167.994C55.9685 167.996 55.9676 167.998 55.9676 168C55.9676 168.002 55.9685 168.005 55.9701 168.006L56.6057 169.835C56.7769 170.326 56.3371 170.898 55.7899 170.898H55.7541C55.6214 170.902 55.4908 170.864 55.3814 170.789C55.2719 170.714 55.1893 170.606 55.1454 170.481L54.3766 168.249C54.3755 168.248 54.374 168.246 54.3723 168.245C54.3705 168.244 54.3686 168.244 54.3666 168.244H52.7328C52.7306 168.244 52.7284 168.245 52.7266 168.246C52.7248 168.248 52.7234 168.25 52.7228 168.252L52.4542 170.158C52.4215 170.36 52.3191 170.544 52.1647 170.679C52.0103 170.814 51.8135 170.891 51.6082 170.897C51.5146 170.9 51.4215 170.882 51.3358 170.844C51.2501 170.806 51.1739 170.75 51.1129 170.679C51.0519 170.608 51.0075 170.524 50.9831 170.434C50.9586 170.344 50.9547 170.249 50.9715 170.158L51.86 163.851C51.8952 163.637 52.0038 163.443 52.1671 163.3C52.3304 163.158 52.5383 163.076 52.7552 163.07H55.2841C55.2841 163.07 56.3942 163.035 57.0219 163.573ZM63.982 163.758C63.9516 163.947 63.8561 164.119 63.7118 164.246C63.5676 164.372 63.3838 164.444 63.192 164.449H60.2502C60.2479 164.449 60.2457 164.45 60.2439 164.451C60.2421 164.453 60.2408 164.455 60.2401 164.457L60.0063 166.113C60.0059 166.114 60.0059 166.115 60.0062 166.117C60.0065 166.118 60.0071 166.119 60.0079 166.12C60.0088 166.122 60.0099 166.122 60.0112 166.123C60.0124 166.124 60.0138 166.124 60.0152 166.124H62.3002C62.3877 166.121 62.4747 166.138 62.5548 166.173C62.6349 166.209 62.706 166.261 62.7631 166.328C62.8202 166.394 62.8617 166.472 62.8846 166.556C62.9075 166.64 62.9112 166.729 62.8955 166.815C62.8651 167.003 62.7695 167.176 62.6253 167.302C62.4811 167.428 62.2972 167.5 62.1055 167.505H59.8194C59.8171 167.505 59.8149 167.506 59.8131 167.508C59.8113 167.509 59.81 167.511 59.8093 167.513L59.5285 169.506C59.5284 169.509 59.5295 169.511 59.5313 169.513C59.5332 169.515 59.5358 169.517 59.5385 169.517H62.4781C62.5656 169.514 62.6526 169.531 62.7327 169.567C62.8128 169.602 62.884 169.655 62.941 169.721C62.9981 169.787 63.0396 169.865 63.0625 169.949C63.0854 170.034 63.0891 170.122 63.0734 170.208C63.043 170.397 62.9474 170.569 62.8032 170.695C62.659 170.821 62.4751 170.893 62.2834 170.898H58.6355C58.5371 170.9 58.4395 170.88 58.3498 170.839C58.2601 170.799 58.1804 170.739 58.1163 170.665C58.0523 170.59 58.0054 170.502 57.9791 170.408C57.9528 170.313 57.9477 170.214 57.9641 170.117L58.847 163.855C58.8822 163.642 58.9908 163.447 59.1541 163.305C59.3174 163.162 59.5253 163.081 59.7422 163.074H63.389C63.4756 163.072 63.5616 163.089 63.6409 163.124C63.7201 163.159 63.7906 163.211 63.8473 163.277C63.904 163.342 63.9455 163.419 63.9688 163.502C63.9921 163.586 63.9966 163.673 63.982 163.758ZM70.0928 163.758C70.0624 163.947 69.9669 164.119 69.8226 164.246C69.6784 164.372 69.4946 164.444 69.3028 164.449H66.361C66.3587 164.449 66.3566 164.45 66.3548 164.451C66.353 164.453 66.3516 164.455 66.3509 164.457L66.1182 166.113C66.1178 166.114 66.1178 166.115 66.1181 166.117C66.1184 166.118 66.119 166.119 66.1199 166.12C66.1207 166.122 66.1218 166.122 66.1231 166.123C66.1244 166.124 66.1257 166.124 66.1271 166.124H68.4121C68.4996 166.121 68.5866 166.138 68.6667 166.173C68.7468 166.209 68.818 166.261 68.875 166.328C68.9321 166.394 68.9736 166.472 68.9965 166.556C69.0194 166.64 69.0231 166.729 69.0074 166.815C68.977 167.003 68.8814 167.176 68.7372 167.302C68.593 167.428 68.4091 167.5 68.2174 167.505H65.9302C65.9279 167.505 65.9257 167.506 65.9239 167.508C65.9221 167.509 65.9208 167.511 65.9201 167.513L65.6393 169.506C65.6392 169.509 65.6403 169.511 65.6421 169.513C65.644 169.515 65.6466 169.517 65.6493 169.517H68.5889C68.6764 169.514 68.7634 169.531 68.8435 169.567C68.9236 169.602 68.9948 169.655 69.0518 169.721C69.1089 169.787 69.1504 169.865 69.1733 169.949C69.1962 170.034 69.1999 170.122 69.1842 170.208C69.1538 170.397 69.0582 170.569 68.914 170.695C68.7698 170.821 68.5859 170.893 68.3942 170.898H64.7463C64.6479 170.9 64.5503 170.88 64.4606 170.839C64.3709 170.799 64.2912 170.739 64.2271 170.665C64.1631 170.59 64.1162 170.502 64.0899 170.408C64.0636 170.313 64.0585 170.214 64.0749 170.117L64.9578 163.855C64.993 163.642 65.1016 163.447 65.2649 163.305C65.4282 163.162 65.6361 163.081 65.853 163.074H69.4998C69.5864 163.072 69.6725 163.089 69.7517 163.124C69.8309 163.159 69.9014 163.211 69.9581 163.277C70.0148 163.342 70.0563 163.419 70.0796 163.502C70.1029 163.586 70.1074 163.673 70.0928 163.758ZM74.345 163.043C75.3443 163.043 76.6378 163.056 77.9358 163.078C79.5091 163.103 80.8855 163.824 81.7113 165.054C82.5934 166.38 83.3863 167.763 84.0847 169.193C84.454 169.943 83.7747 170.92 82.8851 170.92H73.3457L74.345 163.043Z" fill="white"/>
<path d="M54.5476 166.753H52.8557L53.1769 164.706H54.8677C54.8677 164.706 56.1088 164.635 55.9054 165.729C55.9107 165.729 55.7683 166.753 54.5476 166.753Z" fill="white"/>
<path d="M227.816 193.36L227.348 194.44C227.072 194.02 226.904 193.708 226.688 193.252V197.128H224.972V193.444C224.54 194.32 224.132 194.908 223.508 195.652L222.896 193.516C223.736 192.844 224.3 191.992 224.78 191.044H223.136V189.4H224.972V185.752H226.688V189.4H228.368V190.384L229.388 189.196C230.156 189.664 230.804 190.192 231.416 190.84L230.18 192.172C229.676 191.548 229.04 190.936 228.368 190.528V191.044H226.808C227.144 191.68 227.588 192.244 228.092 192.748L227.996 192.976L231.68 192.268V187.972L230.612 189.172C230 188.428 229.496 187.948 228.716 187.396L229.808 186.208C230.492 186.628 231.128 187.12 231.68 187.708V185.728H233.528V191.896L234.392 191.728L234.548 193.516L233.528 193.708V197.092H231.68V194.068L228.02 194.776L227.816 193.36ZM228.812 186.484C228.656 187.324 228.332 188.272 227.96 189.04L226.76 188.5C227.048 187.828 227.324 186.868 227.42 186.148L228.812 186.484ZM224.18 186.184C224.456 186.892 224.684 187.756 224.792 188.512L223.52 189.028C223.46 188.116 223.292 187.384 222.956 186.544L224.18 186.184Z" fill="#6F6356"/>
<path d="M211.688 188.464C211.364 188.764 211.136 188.944 210.752 189.148L209.732 187.744C210.572 187.252 211.46 186.544 211.868 185.632L213.656 185.848C213.548 186.124 213.464 186.28 213.32 186.532H221V188.152H220.028V189.328H221.3V190.972H220.028V192.16H221V193.78H210.2V192.16H211.544V190.972H209.924V189.328H211.688V188.464ZM213.944 188.152H213.08V189.328H213.944V188.152ZM216.188 188.152H215.312V189.328H216.188V188.152ZM218.432 188.152H217.556V189.328H218.432V188.152ZM213.944 190.972H213.08V192.16H213.944V190.972ZM216.188 190.972H215.312V192.16H216.188V190.972ZM218.432 190.972H217.556V192.16H218.432V190.972ZM212.744 194.38C212.396 195.472 212.036 196.372 211.304 197.26L209.78 196.216C210.44 195.52 210.848 194.704 211.172 193.804L212.744 194.38ZM219.8 193.804C220.496 194.728 220.892 195.388 221.396 196.432L219.716 197.236C219.332 196.264 218.804 195.34 218.24 194.464L219.8 193.804ZM217.28 194.116C217.604 194.884 218.048 196.156 218.168 196.96L216.38 197.104C216.26 196.096 216.02 195.184 215.684 194.236L217.28 194.116ZM214.832 194.2C214.976 195.004 215.06 196.216 215.06 197.032L213.248 197.08C213.344 196.504 213.344 195.76 213.344 195.172C213.344 194.848 213.344 194.56 213.32 194.248L214.832 194.2Z" fill="#6F6356"/>
<path d="M201.416 193.36L200.948 194.44C200.672 194.02 200.504 193.708 200.288 193.252V197.128H198.572V193.444C198.14 194.32 197.732 194.908 197.108 195.652L196.496 193.516C197.336 192.844 197.9 191.992 198.38 191.044H196.736V189.4H198.572V185.752H200.288V189.4H201.968V190.384L202.988 189.196C203.756 189.664 204.404 190.192 205.016 190.84L203.78 192.172C203.276 191.548 202.64 190.936 201.968 190.528V191.044H200.408C200.744 191.68 201.188 192.244 201.692 192.748L201.596 192.976L205.28 192.268V187.972L204.212 189.172C203.6 188.428 203.096 187.948 202.316 187.396L203.408 186.208C204.092 186.628 204.728 187.12 205.28 187.708V185.728H207.128V191.896L207.992 191.728L208.148 193.516L207.128 193.708V197.092H205.28V194.068L201.62 194.776L201.416 193.36ZM202.412 186.484C202.256 187.324 201.932 188.272 201.56 189.04L200.36 188.5C200.648 187.828 200.924 186.868 201.02 186.148L202.412 186.484ZM197.78 186.184C198.056 186.892 198.284 187.756 198.392 188.512L197.12 189.028C197.06 188.116 196.892 187.384 196.556 186.544L197.78 186.184Z" fill="#6F6356"/>
<path d="M192.272 191.644C192.944 192.604 193.892 193.168 194.996 193.504L193.976 195.1H195.092L194.744 196.84H188.552C187.472 196.84 186.5 196.468 185.84 195.58C185.324 196.204 184.772 196.708 184.088 197.164L183.38 195.172C183.872 194.932 184.196 194.704 184.616 194.356V191.872H183.572V190.192H186.344V193.684C186.536 194.548 187.064 194.908 187.916 195.052L186.812 193.528C187.844 193.156 188.828 192.616 189.392 191.644H186.764V189.94H189.884V188.896H187.088V187.192H188.156C188 186.76 187.832 186.424 187.616 186.016L189.38 185.692C189.608 186.172 189.824 186.7 190.004 187.192H191.54C191.756 186.784 191.996 186.148 192.104 185.692L193.916 185.968C193.772 186.388 193.568 186.796 193.376 187.192H194.528V188.896H191.624V189.94H194.864V191.644H192.272ZM184.844 185.824C185.624 186.436 186.224 187.036 186.872 187.78L185.528 189.088C184.976 188.356 184.364 187.66 183.644 187.084L184.844 185.824ZM193.748 195.1C192.416 194.512 191.456 193.564 190.832 192.256C190.364 193.444 189.308 194.512 188.18 195.088C188.372 195.1 188.564 195.1 188.744 195.1H193.748Z" fill="#6F6356"/>
<path d="M0 0H333V298H0V0Z" fill="black" fill-opacity="0.7"/>
<path d="M49.488 128.512H70.536V133.768H67.704V131.008H52.176V133.768H49.488V128.512ZM52.968 132.856H65.616V135.496H52.968V132.856ZM67.704 121.48L69.648 123.808C64.224 124.864 56.736 125.392 50.352 125.584C50.304 124.864 49.968 123.76 49.704 123.136C56.064 122.92 63.288 122.344 67.704 121.48ZM51.816 126.04L54.336 125.344C54.888 126.208 55.488 127.36 55.704 128.152L53.064 128.944C52.872 128.152 52.32 126.952 51.816 126.04ZM58.152 125.536L60.696 124.96C61.2 125.92 61.68 127.216 61.8 128.08L59.112 128.728C59.016 127.888 58.608 126.544 58.152 125.536ZM65.784 124.912L68.832 125.632C67.992 127.12 67.032 128.68 66.312 129.712L63.96 129.016C64.608 127.864 65.376 126.16 65.784 124.912ZM64.56 132.856H65.16L65.664 132.76L67.608 133.912C64.752 140.2 58.176 142.864 50.616 143.944C50.328 143.224 49.512 141.952 48.936 141.352C56.328 140.608 62.4 138.424 64.56 133.312V132.856ZM55.8 134.8C58.488 138.448 63.984 140.536 70.968 141.184C70.368 141.832 69.576 143.08 69.216 143.896C61.992 142.96 56.64 140.44 53.28 135.832L55.8 134.8Z" fill="white"/>
<path d="M82.416 133.168H85.392V144.136H82.416V133.168ZM78.24 129.232V130.984H89.568V129.232H78.24ZM78.24 125.152V126.88H89.568V125.152H78.24ZM75.408 122.632H92.544V133.528H75.408V122.632ZM73.032 136.24H95.064V139H73.032V136.24Z" fill="white"/>
<path d="M110.688 124.192H113.4V137.656H110.688V124.192ZM115.656 122.056H118.464V140.632C118.464 142.264 118.152 143.056 117.216 143.512C116.256 143.992 114.768 144.088 112.776 144.088C112.68 143.272 112.248 141.952 111.864 141.112C113.232 141.184 114.624 141.184 115.104 141.184C115.512 141.16 115.656 141.04 115.656 140.632V122.056ZM99.504 140.92H106.92V143.08H99.504V140.92ZM96.984 133.72H109.416V135.904H96.984V133.72ZM98.112 127.72H108.408V129.76H98.112V127.72ZM98.352 130.768H108.096V132.688H98.352V130.768ZM101.832 121.768H104.616V124.984H101.832V121.768ZM101.904 126.424H104.568V134.872H101.904V126.424ZM98.28 136.744H108.384V143.92H105.672V138.88H100.872V144.16H98.28V136.744ZM96.936 123.784H109.68V127.912H107.016V125.944H99.456V127.912H96.936V123.784Z" fill="white"/>
<path d="M134.736 122.704H140.952V125.296H134.736V122.704ZM134.736 128.128H140.952V130.648H134.736V128.128ZM134.736 133.6H140.976V136.168H134.736V133.6ZM139.704 122.704H142.488V140.992C142.488 142.384 142.224 143.176 141.36 143.608C140.52 144.064 139.296 144.136 137.496 144.136C137.424 143.368 137.04 142.12 136.68 141.4C137.712 141.448 138.888 141.448 139.224 141.424C139.584 141.424 139.704 141.304 139.704 140.944V122.704ZM133.56 122.704H136.248V131.512C136.248 135.304 135.936 140.8 133.896 144.208C133.416 143.704 132.24 142.864 131.616 142.576C133.416 139.504 133.56 134.944 133.56 131.512V122.704ZM120.984 124.456H132.744V126.952H120.984V124.456ZM124.128 128.368H129.84V130.576H124.128V128.368ZM124.128 132.112H129.864V134.296H124.128V132.112ZM120.696 135.904H132.576V138.424H120.696V135.904ZM122.88 121.888H125.472V136.816H122.88V121.888ZM128.472 121.888H131.112V136.816H128.472V121.888ZM123.696 138.592L126.408 139.384C125.52 141.16 124.104 143.032 122.832 144.208C122.28 143.728 121.176 142.912 120.504 142.528C121.8 141.544 123.024 140.056 123.696 138.592ZM127.248 139.672L129.432 138.472C130.392 139.528 131.616 140.992 132.168 141.976L129.84 143.344C129.36 142.384 128.208 140.8 127.248 139.672Z" fill="white"/>
<path d="M152.688 136.264H159.264V138.328H152.688V136.264ZM152.52 132.712H160.608V141.928H152.52V139.816H157.92V134.824H152.52V132.712ZM151.344 132.712H153.936V143.152H151.344V132.712ZM147.312 125.872H153.336V127.816H147.312V125.872ZM158.448 125.872H164.52V127.816H158.448V125.872ZM163.344 122.536H166.248V140.752C166.248 142.312 165.936 143.152 164.976 143.632C164.016 144.112 162.624 144.16 160.56 144.16C160.44 143.344 160.008 142 159.624 141.232C160.872 141.304 162.336 141.28 162.768 141.28C163.2 141.28 163.344 141.136 163.344 140.728V122.536ZM147.552 122.536H155.136V131.248H147.552V129.184H152.448V124.624H147.552V122.536ZM164.88 122.536V124.624H159.504V129.256H164.88V131.32H156.768V122.536H164.88ZM145.896 122.536H148.752V144.16H145.896V122.536Z" fill="white"/>
<path d="M176.76 136.192H190.992V138.808H176.76V136.192ZM184.248 129.136H190.44V131.656H184.248V129.136ZM183.096 124.6H185.928V137.464H183.096V124.6ZM178.44 127.912H181.152V137.728H178.44V127.912ZM188.712 121.672L190.68 124C187.08 125.008 182.184 125.632 177.984 125.968C177.888 125.296 177.504 124.24 177.216 123.616C181.272 123.232 185.856 122.536 188.712 121.672ZM168.768 122.944H173.976V125.464H168.768V122.944ZM173.352 122.944H173.736L174.168 122.824L176.184 123.448C174.936 126.28 173.064 130.096 171.456 133.12L168.84 132.376C170.472 129.4 172.44 125.392 173.352 123.256V122.944ZM171.36 129.832H175.224V132.352H171.264L171.36 129.832ZM174.168 129.832H174.696L175.176 129.784L176.904 130.192C176.184 137.488 174.072 142.024 170.688 144.304C170.256 143.728 169.152 142.72 168.528 142.336C171.792 140.344 173.64 136.504 174.168 130.36V129.832ZM171.528 133.576C173.472 139.888 177.912 140.872 183.576 140.872C185.016 140.872 189.744 140.872 191.496 140.8C191.064 141.472 190.56 142.792 190.416 143.608H183.48C176.568 143.608 171.792 142.192 169.272 134.368L171.528 133.576Z" fill="white"/>
<path d="M193.104 132.976H214.872V135.496H193.104V132.976ZM198.72 126.064H211.68V128.296H198.72V126.064ZM198.72 129.496H211.68V131.728H198.72V129.496ZM194.16 141.376C196.992 141.064 201.312 140.416 205.296 139.84L205.416 142.384C201.72 142.984 197.736 143.584 194.808 144.04L194.16 141.376ZM205.008 133.672C206.544 137.872 209.904 140.608 215.328 141.616C214.704 142.216 213.888 143.416 213.504 144.208C207.624 142.816 204.312 139.576 202.368 134.32L205.008 133.672ZM211.824 135.184L214.128 136.816C212.376 138.088 210.192 139.36 208.512 140.152L206.592 138.664C208.248 137.8 210.48 136.336 211.824 135.184ZM197.136 122.44H212.352V124.816H200.088V134.032H197.136V122.44ZM197.112 133.72H200.088V141.712L197.112 142.024V133.72Z" fill="white"/>
<path d="M230.184 125.56C229.848 128.008 229.368 130.816 228.528 133.648C227.088 138.496 225.024 141.472 222.408 141.472C219.72 141.472 217.512 138.52 217.512 134.464C217.512 128.944 222.336 124.192 228.552 124.192C234.48 124.192 238.248 128.32 238.248 133.576C238.248 138.616 235.152 142.192 229.104 143.128L227.28 140.296C228.216 140.176 228.888 140.056 229.536 139.912C232.584 139.168 234.984 136.984 234.984 133.456C234.984 129.688 232.632 127 228.48 127C223.392 127 220.608 131.152 220.608 134.176C220.608 136.6 221.568 137.776 222.48 137.776C223.512 137.776 224.424 136.24 225.432 133C226.128 130.744 226.656 127.984 226.896 125.464L230.184 125.56Z" fill="white"/>
<path d="M251.352 122.848C251.184 123.52 250.968 124.6 250.848 125.128C250.512 126.76 249.912 129.688 249.264 132.136C248.4 135.496 246.792 140.392 245.472 143.248L242.136 142.12C243.552 139.696 245.376 134.68 246.288 131.32C246.888 129.064 247.44 126.424 247.608 125.008C247.728 124.12 247.752 123.136 247.68 122.56L251.352 122.848ZM245.232 126.448C248.16 126.448 251.544 125.992 254.664 125.248V128.248C251.688 128.944 247.92 129.352 245.208 129.352C244.032 129.352 243.144 129.304 242.304 129.256L242.208 126.256C243.456 126.4 244.248 126.448 245.232 126.448ZM252.768 130.12C254.112 129.976 255.84 129.88 257.4 129.88C258.768 129.88 260.208 129.952 261.6 130.096L261.552 132.976C260.328 132.832 258.864 132.664 257.424 132.664C255.768 132.664 254.28 132.736 252.768 132.928V130.12ZM254.064 136.144C253.896 136.84 253.752 137.608 253.752 138.136C253.752 139.192 254.448 139.984 257.04 139.984C258.648 139.984 260.304 139.816 262.008 139.504L261.888 142.552C260.544 142.744 258.936 142.888 257.016 142.888C252.96 142.888 250.8 141.52 250.8 139.096C250.8 137.968 251.016 136.816 251.208 135.88L254.064 136.144Z" fill="white"/>
<path d="M280.776 123.184C280.56 123.856 280.344 125.032 280.2 125.608C279.192 129.856 277.632 134.848 275.328 137.752C273.12 140.536 271.584 141.784 269.376 141.784C267.384 141.784 265.56 140.104 265.56 137.008C265.56 133.792 267.408 130.36 270.216 128.56C272.784 126.904 275.208 126.304 277.776 126.304C282.72 126.304 286.272 129.64 286.272 134.632C286.272 139.72 282.648 142.648 277.632 143.416L275.808 140.632C281.088 140.176 283.152 137.488 283.152 134.488C283.152 131.224 280.92 128.968 277.464 128.968C274.968 128.968 273.024 129.88 271.344 131.104C269.472 132.424 268.368 134.776 268.368 136.744C268.368 137.92 268.872 138.664 269.712 138.664C270.96 138.664 272.28 137.128 273.528 135.232C275.376 132.52 276.768 128.104 277.272 125.152C277.392 124.456 277.464 123.448 277.44 122.872L280.776 123.184ZM270.648 123.976C270.768 124.792 270.96 125.584 271.152 126.28C271.896 128.968 273.168 132.64 274.272 134.368C275.088 135.664 276.216 137.176 277.344 138.232L274.896 140.176C273.96 139.12 273.24 138.208 272.472 136.984C271.008 134.848 269.568 131.008 268.464 127.456C268.2 126.616 267.912 125.848 267.48 124.984L270.648 123.976Z" fill="white"/>
<path d="M49.488 161.512H70.536V166.768H67.704V164.008H52.176V166.768H49.488V161.512ZM52.968 165.856H65.616V168.496H52.968V165.856ZM67.704 154.48L69.648 156.808C64.224 157.864 56.736 158.392 50.352 158.584C50.304 157.864 49.968 156.76 49.704 156.136C56.064 155.92 63.288 155.344 67.704 154.48ZM51.816 159.04L54.336 158.344C54.888 159.208 55.488 160.36 55.704 161.152L53.064 161.944C52.872 161.152 52.32 159.952 51.816 159.04ZM58.152 158.536L60.696 157.96C61.2 158.92 61.68 160.216 61.8 161.08L59.112 161.728C59.016 160.888 58.608 159.544 58.152 158.536ZM65.784 157.912L68.832 158.632C67.992 160.12 67.032 161.68 66.312 162.712L63.96 162.016C64.608 160.864 65.376 159.16 65.784 157.912ZM64.56 165.856H65.16L65.664 165.76L67.608 166.912C64.752 173.2 58.176 175.864 50.616 176.944C50.328 176.224 49.512 174.952 48.936 174.352C56.328 173.608 62.4 171.424 64.56 166.312V165.856ZM55.8 167.8C58.488 171.448 63.984 173.536 70.968 174.184C70.368 174.832 69.576 176.08 69.216 176.896C61.992 175.96 56.64 173.44 53.28 168.832L55.8 167.8Z" fill="white"/>
<path d="M83.016 156.784L84.912 154.576C86.856 155.488 89.4 157 90.624 158.176L88.56 160.648C87.456 159.448 84.984 157.816 83.016 156.784ZM81.432 166.528H93.888V169.288H81.432V166.528ZM79.704 173.656H95.28V176.392H79.704V173.656ZM80.568 159.856H94.776V162.592H80.568V159.856ZM86.04 160.768H89.04V174.88H86.04V160.768ZM74.256 156.856L75.816 154.744C77.352 155.296 79.392 156.328 80.4 157.192L78.72 159.544C77.784 158.68 75.816 157.528 74.256 156.856ZM72.648 163.384L74.136 161.2C75.696 161.728 77.784 162.712 78.816 163.504L77.232 165.904C76.272 165.088 74.232 164.008 72.648 163.384ZM73.68 174.928C74.952 173.128 76.8 170.128 78.24 167.368L80.352 169.264C79.08 171.808 77.544 174.544 76.104 176.872L73.68 174.928Z" fill="white"/>
<path d="M110.736 155.704H116.952V158.296H110.736V155.704ZM110.736 161.128H116.952V163.648H110.736V161.128ZM110.736 166.6H116.976V169.168H110.736V166.6ZM115.704 155.704H118.488V173.992C118.488 175.384 118.224 176.176 117.36 176.608C116.52 177.064 115.296 177.136 113.496 177.136C113.424 176.368 113.04 175.12 112.68 174.4C113.712 174.448 114.888 174.448 115.224 174.424C115.584 174.424 115.704 174.304 115.704 173.944V155.704ZM109.56 155.704H112.248V164.512C112.248 168.304 111.936 173.8 109.896 177.208C109.416 176.704 108.24 175.864 107.616 175.576C109.416 172.504 109.56 167.944 109.56 164.512V155.704ZM96.984 157.456H108.744V159.952H96.984V157.456ZM100.128 161.368H105.84V163.576H100.128V161.368ZM100.128 165.112H105.864V167.296H100.128V165.112ZM96.696 168.904H108.576V171.424H96.696V168.904ZM98.88 154.888H101.472V169.816H98.88V154.888ZM104.472 154.888H107.112V169.816H104.472V154.888ZM99.696 171.592L102.408 172.384C101.52 174.16 100.104 176.032 98.832 177.208C98.28 176.728 97.176 175.912 96.504 175.528C97.8 174.544 99.024 173.056 99.696 171.592ZM103.248 172.672L105.432 171.472C106.392 172.528 107.616 173.992 108.168 174.976L105.84 176.344C105.36 175.384 104.208 173.8 103.248 172.672Z" fill="white"/>
<path d="M128.688 169.264H135.264V171.328H128.688V169.264ZM128.52 165.712H136.608V174.928H128.52V172.816H133.92V167.824H128.52V165.712ZM127.344 165.712H129.936V176.152H127.344V165.712ZM123.312 158.872H129.336V160.816H123.312V158.872ZM134.448 158.872H140.52V160.816H134.448V158.872ZM139.344 155.536H142.248V173.752C142.248 175.312 141.936 176.152 140.976 176.632C140.016 177.112 138.624 177.16 136.56 177.16C136.44 176.344 136.008 175 135.624 174.232C136.872 174.304 138.336 174.28 138.768 174.28C139.2 174.28 139.344 174.136 139.344 173.728V155.536ZM123.552 155.536H131.136V164.248H123.552V162.184H128.448V157.624H123.552V155.536ZM140.88 155.536V157.624H135.504V162.256H140.88V164.32H132.768V155.536H140.88ZM121.896 155.536H124.752V177.16H121.896V155.536Z" fill="white"/>
<path d="M145.368 156.688H166.704V159.352H145.368V156.688ZM154.488 154.624H157.464V157.792H154.488V154.624ZM157.704 157.768H160.512V163.672C160.512 164.92 160.32 165.592 159.456 166C158.64 166.408 157.536 166.432 156.096 166.432C155.976 165.664 155.64 164.632 155.304 163.888C156.144 163.912 157.056 163.912 157.344 163.912C157.632 163.912 157.704 163.864 157.704 163.6V157.768ZM152.832 157.408H155.52V159.304C155.52 161.824 155.112 165.088 151.56 167.32C151.128 166.72 150.12 165.784 149.472 165.352C152.496 163.576 152.832 161.128 152.832 159.232V157.408ZM161.184 161.344L163.416 160.048C164.784 161.392 166.464 163.288 167.232 164.584L164.832 166.024C164.16 164.728 162.552 162.76 161.184 161.344ZM148.44 160.144L151.128 160.864C150.12 162.76 148.536 164.704 146.856 165.856C146.352 165.352 145.44 164.584 144.864 164.2C146.4 163.24 147.792 161.584 148.44 160.144ZM152.424 168.808C154.872 172.408 160.104 174.088 167.424 174.448C166.824 175.12 166.104 176.344 165.744 177.16C158.04 176.512 153 174.352 149.856 169.624L152.424 168.808ZM153.024 165.592L156.024 166.168C154.08 168.952 151.344 171.16 147.192 172.84C146.808 172.168 145.992 171.136 145.392 170.704C149.232 169.432 151.728 167.536 153.024 165.592ZM152.976 167.344H161.472V169.624H150.96L152.976 167.344ZM160.68 167.344H161.304L161.784 167.248L163.656 168.496C160.56 174.064 153.648 176.344 146.04 177.208C145.8 176.512 145.176 175.24 144.672 174.64C152.04 174.064 158.376 172.192 160.68 167.8V167.344Z" fill="white"/>
<path d="M169.44 155.704H190.584V158.272H169.44V155.704ZM178.68 156.808H181.704V166.504C181.704 171.352 179.712 175.384 170.664 177.184C170.352 176.536 169.536 175.288 168.912 174.64C177.576 173.32 178.68 170.296 178.68 166.456V156.808ZM174.24 165.712V167.296H186.192V165.712H174.24ZM174.24 162.016V163.552H186.192V162.016H174.24ZM171.528 159.688H189.072V169.6H171.528V159.688ZM174.384 169.504C177.744 173.8 183.36 174.136 191.544 174.064C191.04 174.736 190.488 175.96 190.344 176.92C181.872 176.752 175.536 175.96 171.864 170.512L174.384 169.504Z" fill="white"/>
<path d="M200.904 155.968C200.76 156.976 200.64 158.224 200.592 159.184C200.472 161.776 200.304 167.128 200.304 170.104C200.304 172.528 201.744 173.32 203.616 173.32C207.576 173.32 210.072 171.04 211.824 168.424L214.008 171.088C212.448 173.392 209.04 176.584 203.568 176.584C199.632 176.584 197.112 174.856 197.112 170.752C197.112 167.536 197.328 161.248 197.328 159.184C197.328 158.032 197.232 156.88 197.04 155.944L200.904 155.968Z" fill="white"/>
<path d="M230.328 155.608C230.256 156.088 230.184 156.688 230.16 157.312C230.112 158.536 230.088 161.944 230.088 163.96C230.088 166.6 230.472 170.944 230.472 172.84C230.472 174.904 228.912 176.488 225.768 176.488C221.928 176.488 219.912 175.024 219.912 172.48C219.912 170.056 222.144 168.352 225.816 168.352C231.096 168.352 235.032 170.944 237.024 172.624L235.296 175.312C233.016 173.152 229.536 170.824 225.432 170.824C223.752 170.824 222.816 171.472 222.816 172.312C222.816 173.224 223.656 173.776 225.312 173.776C226.584 173.776 227.448 173.416 227.448 172.024C227.448 170.584 227.184 166.288 227.184 163.96C227.184 161.656 227.208 158.608 227.208 157.24C227.208 156.808 227.16 156.064 227.064 155.608H230.328ZM220.368 157.84C222.072 158.128 224.832 158.368 226.296 158.368C229.56 158.368 232.704 158.2 236.208 157.648L236.184 160.384C233.736 160.72 229.92 161.008 226.32 161.008C224.784 161.008 222 160.792 220.416 160.6L220.368 157.84ZM220.224 163.024C221.808 163.312 224.736 163.48 226.008 163.48C230.448 163.48 233.544 163.192 236.496 162.808L236.472 165.64C233.16 166.024 230.544 166.168 225.984 166.168C224.568 166.168 221.856 166.048 220.272 165.856L220.224 163.024Z" fill="white"/>
<path d="M248.904 155.968C248.76 156.976 248.64 158.224 248.592 159.184C248.472 161.776 248.304 167.128 248.304 170.104C248.304 172.528 249.744 173.32 251.616 173.32C255.576 173.32 258.072 171.04 259.824 168.424L262.008 171.088C260.448 173.392 257.04 176.584 251.568 176.584C247.632 176.584 245.112 174.856 245.112 170.752C245.112 167.536 245.328 161.248 245.328 159.184C245.328 158.032 245.232 156.88 245.04 155.944L248.904 155.968Z" fill="white"/>
<path d="M275.352 155.848C275.184 156.52 274.968 157.6 274.848 158.128C274.512 159.76 273.912 162.688 273.264 165.136C272.4 168.496 270.792 173.392 269.472 176.248L266.136 175.12C267.552 172.696 269.376 167.68 270.288 164.32C270.888 162.064 271.44 159.424 271.608 158.008C271.728 157.12 271.752 156.136 271.68 155.56L275.352 155.848ZM269.232 159.448C272.16 159.448 275.544 158.992 278.664 158.248V161.248C275.688 161.944 271.92 162.352 269.208 162.352C268.032 162.352 267.144 162.304 266.304 162.256L266.208 159.256C267.456 159.4 268.248 159.448 269.232 159.448ZM276.768 163.12C278.112 162.976 279.84 162.88 281.4 162.88C282.768 162.88 284.208 162.952 285.6 163.096L285.552 165.976C284.328 165.832 282.864 165.664 281.424 165.664C279.768 165.664 278.28 165.736 276.768 165.928V163.12ZM278.064 169.144C277.896 169.84 277.752 170.608 277.752 171.136C277.752 172.192 278.448 172.984 281.04 172.984C282.648 172.984 284.304 172.816 286.008 172.504L285.888 175.552C284.544 175.744 282.936 175.888 281.016 175.888C276.96 175.888 274.8 174.52 274.8 172.096C274.8 170.968 275.016 169.816 275.208 168.88L278.064 169.144Z" fill="white"/>
</svg>
