<?xml version="1.0" encoding="UTF-8"?>
<svg xmlns="http://www.w3.org/2000/svg" version="1.1" viewBox="0 0 333 305">
  <defs>
    <style>
      .cls-1 {
        fill-opacity: .7;
      }

      .cls-2 {
        fill: #b61c31;
      }

      .cls-3 {
        fill: #6f6356;
      }

      .cls-4 {
        fill: #fff;
      }

      .cls-5 {
        fill: #f5eee6;
      }
    </style>
  </defs>
  <!-- Generator: Adobe Illustrator 28.7.1, SVG Export Plug-In . SVG Version: 1.2.0 Build 142)  -->
  <g>
    <g id="_レイヤー_1" data-name="レイヤー_1">
      <path class="cls-5" d="M0,0h333v305H0V0Z"/>
      <path class="cls-3" d="M293,115c1.8,1.1,3.7,1.8,5.8,2.1l-1.4,2.4c-2.2-.6-4.4-1.5-6.3-2.9-2,1.4-3.9,2.2-6.3,2.9l-1.3-2.4c2-.4,4-1.1,5.7-2.2-1.7-1.9-2.8-3.9-3.5-6.4h-2.2v-2.4h6.3v-1.9h2.5v1.9h6.3v2.4h-2.2c-.7,2.4-1.7,4.5-3.4,6.4ZM291.1,113.5c1.4-1.5,2.1-2.9,2.7-4.9h-5.5c.6,2,1.3,3.4,2.8,4.9Z"/>
      <path class="cls-3" d="M275,107.1c-.8-.6-1.6-1.2-2.5-1.6l2.2-1.4c1.1.6,2.2,1.2,3.1,2l-1.6,1h4.6v2.3h-4v2.5h3.5v2.3h-3.5v2.8h4.4v2.2h-11.4v-2.2h4.6v-2.8h-3.5v-2.3h3.5v-2.5h-4v-2.3h4.7ZM267.6,104.3c1,.4,1.9,1,2.8,1.6l-1.4,2c-.9-.8-1.6-1.2-2.7-1.7l1.3-1.9ZM267.1,108.3c1,.4,1.9,1,2.7,1.7l-1.4,2c-.9-.7-1.6-1.2-2.7-1.8l1.3-1.9ZM270.4,114c-.8,2-1.8,3.8-3.1,5.6l-1.5-2.3c1.2-1.4,2.1-3.1,2.8-4.8l1.8,1.5Z"/>
      <path class="cls-3" d="M250.4,105.4l2.6.3c-.6,2.4-.9,4.8-.9,7.4s.2,3.5.6,5.3l-2.5.3c-.4-1.8-.5-3.6-.5-5.5,0-2.7.3-5.1.8-7.7ZM261.9,109.1c-.9,0-1.9-.1-2.8-.1-1.5,0-3.1.1-4.6.3v-2.6c1.6-.2,3.1-.3,4.6-.3s1.9,0,2.9.1v2.5ZM256.6,113.1c-.2.4-.5.8-.5,1.3s.3.6.6.8c.5.2,1.5.2,2.1.2,1.3,0,2.5-.2,3.8-.4v2.6c-1.3.2-2.5.3-3.7.3-2.1,0-5-.2-5-3s.3-1.5.6-2.2l2.1.4Z"/>
      <path class="cls-3" d="M231.4,106.6c1,0,2,0,2.9,0l10.7-.8.2,2.6c-1.6,0-3,.2-4.4,1-1.5.8-2.8,2.1-2.8,3.9s2.9,3.1,4.8,3.2l-1.2,2.5c-3.2-.4-6.2-2-6.2-5.6s.6-3,1.7-4c.4-.4.8-.7,1.2-.9l-6.7.9-.2-2.7ZM240.7,110.8l1.3-.8c.8.9,1.3,1.9,1.8,3l-1.4.8c-.5-1.2-1-2-1.8-3ZM242.9,109.6l1.4-.7c.8.9,1.3,1.9,1.9,2.9l-1.4.8c-.6-1.2-1-2-1.8-3Z"/>
      <path class="cls-3" d="M219.7,106.7v-1.8s2.5,0,2.5,0v1.8c1.7,0,3.3,0,4.9-.1v2.4c-1.6,0-3.3,0-4.9,0v1c1.4,0,2.8,0,4.3-.2v2.3c-1.4,0-2.8,0-4.2.1v1.5c1.7.4,3.2,1.2,4.7,2.1l-1.2,2.4c-1.2-.8-2.2-1.4-3.5-2,0,2.1-1.7,2.7-3.6,2.7s-3.8-.7-3.8-2.8.7-2,1.7-2.4c.8-.3,1.6-.4,2.5-.4s.5,0,.7,0v-1c-1.6,0-3.1,0-4.7,0v-2.3c1,0,1.9,0,2.9,0s1.2,0,1.8,0v-1c-.9,0-1.8,0-2.6,0s-1.7,0-2.6,0v-2.4c1.7,0,3.5,0,5.2,0ZM219.7,115.6v-.2c-.3,0-.6,0-1,0-.5,0-1.6,0-1.6.7s.9.6,1.3.6c1.2,0,1.3-.6,1.3-1.1Z"/>
      <path class="cls-3" d="M205.5,104.2c2.7,1.9,4.4,4.9,4.4,8.7s-1.7,6.8-4.4,8.7l-1.3-1.4c2.1-1.6,3.4-4.1,3.4-7.2s-1.3-5.6-3.4-7.2l1.3-1.4Z"/>
      <path class="cls-3" d="M200,104.9v13c0,.9-.6,1.6-1.5,1.6h-3.7l-.4-2.5h2.7c.3,0,.5-.2.5-.5v-1.9h-7c-.3,1.8-.8,3.5-1.8,5l-2.2-1.7c1.3-1.9,1.8-4,1.8-6.3v-6.7h11.8ZM190.6,107.3v1.4h6.8v-1.4h-6.8ZM190.6,110.9v1.5h6.8v-1.5h-6.8Z"/>
      <path class="cls-3" d="M182.5,121.5c-2.7-1.9-4.4-4.9-4.4-8.7s1.7-6.8,4.4-8.6l1.3,1.4c-2.1,1.6-3.4,4.1-3.4,7.2s1.3,5.6,3.4,7.2l-1.3,1.4Z"/>
      <path class="cls-3" d="M169.8,118.4c-3,0-4.8-2.3-4.8-6.7s1.8-6.7,4.8-6.7,4.8,2.3,4.8,6.7-1.8,6.7-4.8,6.7ZM169.8,115.9c1.1,0,1.8-1.2,1.8-4.2s-.6-4.2-1.8-4.2-1.8,1.2-1.8,4.2.6,4.2,1.8,4.2Z"/>
      <path class="cls-3" d="M152.9,117.3l.5-2.6c1,.7,2.2,1.2,3.4,1.2s2.3-.5,2.3-1.6-.7-1.6-2.9-1.6h-1.4v-2.1h1.3c1.8,0,2.7-.6,2.7-1.7s-.6-1.3-1.8-1.3-2,.4-2.9,1.2l-1.1-2.3c1.3-1,2.7-1.4,4.3-1.4,2.7,0,4.4,1,4.4,3.3s-.9,2.7-2.5,3.2c1.8.4,2.8,1.4,2.8,3.1,0,2.4-1.9,3.8-5,3.8s-3.2-.4-4.2-1.1Z"/>
      <path class="cls-3" d="M141.6,121l6.1-16.4h2.5l-6.1,16.4h-2.5Z"/>
      <path class="cls-3" d="M131.2,118l.2-2.4c.7.3,1.3.4,2.1.4,1.9,0,3-1.1,3.3-3.3-.7.6-1.5.9-2.5.9-2.5,0-4.1-1.5-4.1-4.1s1.8-4.4,4.7-4.4,4.9,1.6,4.9,6.1-2.3,7.3-6.3,7.3-1.7-.1-2.4-.4ZM133.2,109.5c0,1.3.7,2,1.8,2s1.4-.3,1.9-.9c0-2.4-.7-3.2-1.9-3.2s-1.8.9-1.8,2.1Z"/>
      <path class="cls-3" d="M116.1,114.4l-2.5-.3c0-3.2,1.8-4.7,3.7-4.7s2.4.6,3.6,1.5c.8.6,1.3.8,1.7.8.8,0,1.3-.9,1.4-2.3l2.5.3c0,3.2-1.8,4.7-3.7,4.7s-2.4-.6-3.6-1.5c-.8-.6-1.3-.8-1.7-.8-.8,0-1.3.9-1.4,2.3Z"/>
      <path class="cls-3" d="M96.4,103.3c2.7,1.9,4.4,4.9,4.4,8.7s-1.7,6.8-4.4,8.7l-1.3-1.4c2.1-1.6,3.4-4.1,3.4-7.2s-1.3-5.6-3.4-7.2l1.3-1.4Z"/>
      <path class="cls-3" d="M90.9,104.9v13c0,.9-.6,1.6-1.5,1.6h-3.7l-.4-2.5h2.7c.3,0,.5-.2.5-.5v-1.9h-7c-.3,1.8-.8,3.5-1.8,5l-2.2-1.7c1.3-1.9,1.8-4,1.8-6.3v-6.7h11.8ZM81.6,107.3v1.4h6.8v-1.4h-6.8ZM81.6,110.9v1.5h6.8v-1.5h-6.8Z"/>
      <path class="cls-3" d="M73.4,121.5c-2.7-1.9-4.4-4.9-4.4-8.7s1.7-6.8,4.4-8.6l1.3,1.4c-2.1,1.6-3.4,4.1-3.4,7.2s1.3,5.6,3.4,7.2l-1.3,1.4Z"/>
      <path class="cls-3" d="M56.9,118l.2-2.4c.7.3,1.3.4,2.1.4,1.9,0,3-1.1,3.3-3.3-.7.6-1.5.9-2.5.9-2.5,0-4.1-1.5-4.1-4.1s1.8-4.4,4.7-4.4,4.9,1.6,4.9,6.1-2.3,7.3-6.3,7.3-1.7-.1-2.4-.4ZM58.9,109.5c0,1.3.7,2,1.8,2s1.4-.3,1.9-.9c0-2.4-.7-3.2-1.9-3.2s-1.8.9-1.8,2.1Z"/>
      <path class="cls-3" d="M44.8,121l6.1-16.4h2.5l-6.1,16.4h-2.5Z"/>
      <path class="cls-3" d="M34.4,118l.2-2.4c.7.3,1.3.4,2.1.4,1.9,0,3-1.1,3.3-3.3-.7.6-1.5.9-2.5.9-2.5,0-4.1-1.5-4.1-4.1s1.8-4.4,4.7-4.4,4.9,1.6,4.9,6.1-2.3,7.3-6.3,7.3-1.7-.1-2.4-.4ZM36.5,109.5c0,1.3.7,2,1.8,2s1.4-.3,1.9-.9c0-2.4-.7-3.2-1.9-3.2s-1.8.9-1.8,2.1Z"/>
      <path class="cls-3" d="M67.3,94.3h5.9v1.4h-3v1h2.7v1.4h-2.7v1.3h3.3v1.4h-3.3v2.1h-1.5v-2.1h-4.6v-1.4h1.3v-2.2c-.2.2-.3.3-.5.5l-1-1.3c.9-.7,1.7-1.8,2-3l1.6.2c0,.2-.1.5-.2.7ZM66.6,95.7c-.2.3-.4.7-.7,1h2.8v-1h-2.1ZM68.6,98.1h-1.7v1.3h1.7v-1.3Z"/>
      <path class="cls-3" d="M59.9,102.1v-1.6h-3.6v-1.5l3.5-4.9h1.8v4.9h1v1.5h-1v1.6h-1.7ZM58,98.9h2v-2.8l-2,2.8Z"/>
      <path class="cls-3" d="M48.9,102.1v-1.4l2.5-2.3c.8-.7,1.1-1.2,1.1-1.8s-.4-1.1-1.1-1.1-1.3.4-1.7,1.1l-.8-1.4c.7-.8,1.6-1.3,2.8-1.3,1.6,0,2.7.9,2.7,2.4s-.6,1.9-1.9,3.1l-1.2,1.1h3.2v1.6h-5.6Z"/>
      <path class="cls-3" d="M44,102.2c-1.9,0-3-1.5-3-4.2s1.1-4.2,3-4.2,3,1.4,3,4.2-1.1,4.2-3,4.2ZM44,100.7c.7,0,1.1-.8,1.1-2.6s-.4-2.6-1.1-2.6-1.1.8-1.1,2.6.4,2.6,1.1,2.6Z"/>
      <path class="cls-3" d="M33.5,102.1v-1.4l2.5-2.3c.8-.7,1.1-1.2,1.1-1.8s-.4-1.1-1.1-1.1-1.3.4-1.7,1.1l-.8-1.4c.7-.8,1.6-1.3,2.8-1.3,1.6,0,2.7.9,2.7,2.4s-.6,1.9-1.9,3.1l-1.2,1.1h3.2v1.6h-5.6Z"/>
      <path class="cls-3" d="M320.4,282.5c.8,0,1.5.6,1.5,1.5s-.6,1.5-1.5,1.5-1.5-.6-1.5-1.5.7-1.5,1.5-1.5ZM320.4,283c-.5,0-.9.4-.9.9s.4.9.9.9.9-.4.9-.9-.4-.9-.9-.9Z"/>
      <path class="cls-3" d="M315.8,279.3v2.9c0,1.8-.9,2.9-2.5,3.5l-.7-.9c.9-.3,1.6-.7,2.1-1.6-.3.3-.6.4-1,.4-1.1,0-1.7-.9-1.7-1.9s.8-1.9,1.9-1.9.8.1,1.1.4v-.9s-2.8,0-2.8,0c-.6,0-1.2,0-1.8,0v-1c.3,0,.6,0,.9,0s.5,0,.8,0h2.8c0,0,0-1.3,0-1.3h1v1.2s.8,0,.8,0c.6,0,1.1,0,1.7,0v1c-.3,0-.6,0-.8,0h-1.7ZM314.7,281.8c0-.6-.4-1-.9-1s-.9.5-.9,1,.4,1,.9,1,1-.4,1-1Z"/>
      <path class="cls-3" d="M304.3,278.5v-1.3s1,0,1,0v1.2c1,0,2,0,3,0v1c-1,0-2,0-3,0v.9c.9,0,1.8,0,2.6,0v1c-.9,0-1.7,0-2.6,0v1.2c1.1.2,1.9.7,2.9,1.2l-.5,1c-.8-.5-1.5-.9-2.3-1.2,0,.5,0,.9-.4,1.3-.4.4-1.1.5-1.6.5-.9,0-2.1-.4-2.1-1.5s1.3-1.5,2.3-1.5.5,0,.7,0v-1c-.5,0-1,0-1.5,0s-.9,0-1.4,0v-1c.5,0,1.1,0,1.6,0h1.3v-.9c-.5,0-1,0-1.5,0s-1.1,0-1.7,0v-1c1.1,0,2.1,0,3.2,0ZM304.4,283.4c-.2,0-.5,0-.7,0-.4,0-1.3,0-1.3.6s.6.6,1,.6c1.1,0,1-.6,1-1.1Z"/>
      <path class="cls-3" d="M292.5,277.5h1c-.2,1.1-.4,2.2-.4,3.2s0,.6,0,.9c.2-.5.4-1,.7-1.5l.6.6c-.4.8-.9,1.8-1.1,2.7h-.9c-.3-.9-.4-1.8-.4-2.8s.1-2.1.3-3.1ZM297,277.5h1.1c0,1,.2,2,.2,3,0,2.5-.6,4-3,5.1l-.9-.7c.9-.4,1.7-1,2.2-1.8.5-.8.5-1.7.5-2.6s0-1.9-.2-2.9Z"/>
      <path class="cls-3" d="M283.7,278.7c.2-.5.3-1,.5-1.5l1.1.2c-.1.4-.3.8-.4,1.2.5,0,.9-.1,1.4-.2v1c-.6,0-1.2.2-1.7.2-.5,1.5-1.1,2.9-1.8,4.3l-1-.5c.6-1.2,1.2-2.5,1.7-3.8-.3,0-.7,0-1,0h-.4v-1.1c.3,0,.7,0,1,0s.5,0,.7,0ZM287.8,282.7c.7.3,1.3.6,2,1.1l-.5.9c-.5-.3-.9-.6-1.4-.9,0,1.2-.7,1.7-1.9,1.7s-2.1-.4-2.1-1.6,1-1.6,1.9-1.6.6,0,.9.1c0-.7,0-1.4,0-2.1h1c0,.8,0,1.6.1,2.3ZM286.8,283.4c-.3,0-.8-.2-1.1-.2s-.9.2-.9.6.6.7,1.1.7.9-.1.9-.7,0-.3,0-.4ZM286.7,279.2l.5-.9c.9.4,1.7.7,2.6,1.2l-.5.9c-.8-.5-1.7-1-2.6-1.3Z"/>
      <path class="cls-3" d="M280.1,282.2h-1.8v.8h2.4v.9h-8.8v-.9h2.4v-.8h-1.9v-.8h1.9v-.8h-1.7v-3.4h7.4v3.4h-1.7v.8h1.8v.8ZM279.1,278h-2.4v.6h2.4v-.6ZM275.8,278h-2.4v.6h2.4v-.6ZM279.1,279.2h-2.4v.7h2.4v-.7ZM275.8,279.2h-2.4v.7h2.4v-.7ZM277.3,280.6h-2.2v.8h2.2v-.8ZM277.3,282.2h-2.2v.8h2.2v-.8ZM280.3,285.8c-1.1-.2-2.1-.7-3.1-1.3l.6-.7c.9.6,1.7.9,2.8,1.1l-.4.9ZM275.3,284.5c-.9.7-2,1.1-3.1,1.3l-.3-.9c1-.2,1.9-.4,2.7-1.1l.7.7Z"/>
      <path class="cls-3" d="M264,277.5h1c-.2,1.1-.4,2.2-.4,3.2s0,.6,0,.9c.2-.5.4-1,.7-1.5l.6.6c-.4.8-.9,1.8-1.1,2.7h-.9c-.3-.9-.4-1.8-.4-2.8s.1-2.1.3-3.1ZM268.5,277.5h1.1c0,1,.2,2,.2,3,0,2.5-.6,4-3,5.1l-.9-.7c.9-.4,1.7-1,2.2-1.8.5-.8.5-1.7.5-2.6s0-1.9-.2-2.9Z"/>
      <path class="cls-3" d="M257.8,280.2v2c1.3.3,2.4.8,3.5,1.5l-.5.9c-.9-.6-1.8-1.1-2.9-1.5v.2c0,.6,0,1.1-.5,1.5-.4.3-1,.4-1.6.4-1.1,0-2.4-.5-2.4-1.7s.4-1.1.9-1.4c.5-.2,1.1-.3,1.7-.3s.5,0,.8,0v-4.8c0,0,1,0,1,0v1.8c1,0,1.8-.1,2.7-.3v1.1c-.9.1-1.8.2-2.7.2ZM256.8,283h0c-.3-.1-.6-.2-.9-.2-.5,0-1.5,0-1.5.8s.9.8,1.3.8c1.1,0,1.1-.5,1.1-1.4Z"/>
      <path class="cls-3" d="M244.6,277.6h1.1c-.3,1.6-.6,3-.6,4.5s.1,2,.3,3h-1c-.3-.9-.3-1.9-.3-3,0-1.5.2-3,.5-4.5ZM251.2,279.4c-.5,0-1.1,0-1.6,0-.9,0-1.8,0-2.6.2v-1.1c.9,0,1.8-.2,2.7-.2s1.1,0,1.6,0v1.1ZM247.9,282.1c-.2.3-.4.6-.4.9s.2.5.4.6c.4.2,1,.2,1.4.2.8,0,1.5,0,2.2-.2v1.1c-.7.1-1.4.2-2.1.2-1.1,0-2.9,0-2.9-1.6s.2-.9.4-1.3l.9.2Z"/>
      <path class="cls-3" d="M239.8,279.5v-2.1s1,0,1,0v2c.5,0,1.1,0,1.6-.2v1.1c-.5,0-1,0-1.5,0,0,.6,0,1.6-.3,2.1-.1.2-.4.4-.6.5-.4.1-.9.2-1.4.2h-.1l-.3-1c.2,0,.3,0,.5,0,1.2,0,1.1-.3,1.1-1.7l-3,.3v1.5c0,.7,0,1.4.4,1.7.4.3,1.3.3,1.8.3.8,0,1.7,0,2.5-.1v1.1c-.9,0-1.7,0-2.5,0s-2,0-2.7-.6c-.5-.5-.6-1.2-.6-1.9v-2c-.5,0-1.1,0-1.6.2v-1.1c.5,0,1,0,1.6,0v-2.2s1.1,0,1.1,0v2.1s3-.2,3-.2Z"/>
      <path class="cls-3" d="M227.5,279.8c.8-.6,1.5-1,2.5-1,1.7,0,2.8,1.1,2.8,2.8s-1.7,3.2-3.6,3.5l-.4-1c1.4-.1,2.9-.9,2.9-2.5s-.7-1.8-1.8-1.8-1.8.6-2.5,1.2c0,.6,0,1.3,0,1.9s0,1.7,0,2.5h-1v-3.3c-.4.6-.8,1.3-1.2,1.9l-.8-.7c.7-1,1.4-2,2.1-3v-.4c-.5,0-1.1.1-1.6.2v-1c.5,0,1.1,0,1.7,0v-1.7h1c0,.8,0,1.7,0,2.5Z"/>
      <path class="cls-3" d="M221.8,279.8v.8h-5v-.8c-.5.3-.9.5-1.5.8l-.6-1c1.5-.5,3-1.4,4.1-2.6h.9c1.2,1.3,2.5,2,4.1,2.6l-.6,1c-.5-.2-.9-.5-1.4-.8ZM217,279.6h4.5c-.9-.6-1.6-1.1-2.3-1.9-.6.8-1.4,1.3-2.2,1.9ZM215.7,281.5h7.1v4.1h-7.1v-4.1ZM221.8,282.4h-5.1v2.4h5.1v-2.4Z"/>
      <path class="cls-3" d="M211.4,282.6c-.6-.4-1.2-.7-1.9-.9-.3.7-.6,1.2-1.1,1.9-.4.5-.8,1.2-1.5,1.2s-1.2-.8-1.2-1.5c0-1.5,1.3-2.7,2.7-2.7s.3,0,.5,0c.3-.6.5-1.2.8-1.8-.7,0-1.4.1-2.1.1s-.4,0-.5,0v-1c.3,0,.7,0,1.1,0,.7,0,1.5,0,2.2-.2l.7.5c-.4.9-.7,1.7-1.1,2.6.7.2,1.3.5,1.9.9.2-.7.3-1.3.4-2l1,.3c0,.9-.2,1.5-.5,2.3.4.3.8.6,1.2,1l-.6,1c-.3-.3-.7-.7-1.1-1-.5.9-1.1,1.7-1.9,2.4l-.9-.6c.8-.6,1.5-1.5,1.9-2.4ZM208.4,281.4c-1.1,0-1.8.9-1.8,1.7s0,.5.3.5c.3,0,1-1,1.5-2.2Z"/>
      <path class="cls-3" d="M197.1,280.3c-.4-.5-.9-1-1.4-1.3l.5-.8c0,0,.2.1.3.2.4-.6.6-.9.9-1.6l.9.3c-.4.7-.7,1.2-1.2,1.8.2.2.3.3.5.5.4-.5.7-1.1,1-1.6l.9.4c-.6.9-1.3,1.8-1.9,2.7.4,0,.8,0,1.2,0,0-.3-.1-.4-.3-.7l.8-.3c.3.7.5,1.1.6,1.9l-.9.3c0-.2,0-.3-.1-.5h-.8v4.2h-.9v-4c-.5,0-1.1,0-1.6.1v-.9c.2,0,.5,0,.8,0,.2-.3.4-.5.6-.8ZM196.9,282.6c0,.7-.2,2-.3,2.6l-.8-.4c.2-.7.4-1.6.4-2.3h.8ZM199.3,282.4c.2.8.3,1,.5,1.9l-.8.2c0-.7-.2-1.2-.4-1.9h.8ZM200.1,277.2h4.1v7.4h.5v.9h-5.4v-.9h.8v-7.4ZM203.2,278.2h-2.2v1.5h2.2v-1.5ZM203.2,280.6h-2.2v1.5h2.2v-1.5ZM203.2,282.9h-2.2v1.7h2.2v-1.7Z"/>
      <path class="cls-3" d="M190.5,280.2c1.1-.4,2.2-.7,3.3-1l.3,1.1c-1.3.3-3.1.7-4.3,1.3-.6.3-1.5.8-1.5,1.6s.3.7.6.8c.6.2,1.5.3,2.2.3,1,0,2.1-.1,3.1-.3v1.1c-.9.2-2,.2-3,.2s-3.9-.2-3.9-2.1,1.2-2.1,2.3-2.6c0-.3-.2-.7-.2-1l-.4-2.1,1.1-.2.4,2.1c0,.3.1.6.2.9Z"/>
      <path class="cls-3" d="M184.5,283h-1.7c-.2,1-.5,2-1.1,2.8l-.8-.6c.3-.4.6-.9.8-1.4.4-1.1.4-2.4.4-3.5v-3.1h3.4v7.9c0,.6-.3.8-.8.8h-1.2l-.2-1h.9c.2,0,.3,0,.3-.3v-1.6ZM184.5,278.1h-1.5v1.6h1.5v-1.6ZM184.5,280.6h-1.5v1.6c0,0,1.5,0,1.5,0v-1.6ZM178.8,283.8c-.3.8-.9,1.5-1.5,2l-.6-.7c.5-.4,1-1.1,1.3-1.7l.9.4ZM177.5,276.9h.9v.9h1.8v-.9h.9v.9h.6v.9h-.6v3.7h.6v.9h-4.9v-.9h.7v-3.7h-.5v-.9h.5v-.9ZM180.2,278.7h-1.8v.7h1.8v-.7ZM180.2,280.2h-1.8v.7h1.8v-.7ZM180.2,281.6h-1.8v.8h1.8v-.8ZM180.1,283.4c.4.4.7.8,1,1.2l-.7.6c-.2-.4-.7-1-.9-1.3l.7-.5Z"/>
      <path class="cls-3" d="M167.5,277.3h3v7.9h-3v-7.9ZM169.6,278.3h-1.1v2.5h1.1v-2.5ZM169.6,281.6h-1.1v2.6h1.1v-2.6ZM175.2,282.5v2.3c0,.8-.3,1-1,1h-1.4l-.2-1h1.3c.2,0,.3,0,.3-.3v-2h-3.4v-.9h3.4v-.9h-3.5v-.9h2.2v-1.1h-1.9v-.9h1.9v-.8h1v.8h2v.9h-2v1.1h2.3v.9h-1v.9h.9v.9h-.9ZM171.7,282.7c.6.5.9.9,1.3,1.5l-.8.6c-.5-.7-.6-1-1.2-1.6l.8-.6Z"/>
      <path class="cls-3" d="M163.9,282.6c-.6-.4-1.2-.7-1.9-.9-.3.7-.6,1.2-1.1,1.9-.4.5-.8,1.2-1.5,1.2s-1.2-.8-1.2-1.5c0-1.5,1.3-2.7,2.7-2.7s.3,0,.5,0c.3-.6.5-1.2.8-1.8-.7,0-1.4.1-2.1.1s-.4,0-.5,0v-1c.3,0,.7,0,1.1,0,.7,0,1.5,0,2.2-.2l.7.5c-.4.9-.7,1.7-1.1,2.6.7.2,1.3.5,1.9.9.2-.7.3-1.3.4-2l1,.3c0,.9-.2,1.5-.5,2.3.4.3.8.6,1.2,1l-.6,1c-.3-.3-.7-.7-1.1-1-.5.9-1.1,1.7-1.9,2.4l-.9-.6c.8-.6,1.5-1.5,1.9-2.4ZM160.9,281.4c-1.1,0-1.8.9-1.8,1.7s0,.5.3.5c.3,0,1-1,1.5-2.2Z"/>
      <path class="cls-3" d="M153.8,278.2h-2v-.9h3c0,2.4.7,4.4,2.5,6l-.7.9c-1.2-1.2-2-2.5-2.4-4.2-.5,1.7-1.6,3.1-2.9,4.2l-.7-.9c1.7-1,2.9-3.1,3.1-5ZM149.1,277.1c.7.5,1.2,1,1.7,1.6l-.7.7c-.5-.6-1.1-1.2-1.7-1.7l.7-.7ZM148.3,280.6h2.1v3c.5.8,1.1,1,2,1h4.9l-.2,1h-4.5c-1.1,0-1.9-.3-2.6-1.1-.4.5-.9,1-1.3,1.4l-.5-1.2c.4-.3.9-.6,1.3-.9v-2.2h-1.1v-.9Z"/>
      <path class="cls-3" d="M140.6,277.4h1.1c0,0-.2,4.9-.2,4.9,0,0,0,.2,0,.3,0,.6,0,1.1.5,1.5.3.3.8.3,1.2.3,1.7,0,2.6-1.6,3.1-3l1,.6c-.7,1.9-1.8,3.5-4.1,3.5s-1.9-.3-2.4-1.1c-.3-.5-.4-1.1-.4-1.7s0-.2,0-.3l.2-5Z"/>
      <path class="cls-3" d="M134.2,285.8h-1v-2.3h-3.4v-5.4h3.4v-1.2h1v1.2h3.4v5.4h-3.4v2.3ZM130.8,279.1v1.3h2.4v-1.3h-2.4ZM136.7,279.1h-2.5v1.3h2.5v-1.3ZM130.8,281.3v1.4h2.4v-1.4h-2.4ZM136.7,281.3h-2.5v1.4h2.5v-1.4Z"/>
      <path class="cls-3" d="M122.5,278.9v-1.6h1v1.5c.7,0,1.2-.2,1.9-.3v1.1c-.6.1-1.3.2-1.9.3v1c.7-.2,1.3-.3,1.9-.3s1.9.3,2.4,1.2c.2.4.3.8.3,1.3,0,.7-.3,1.5-1,1.9-.4.3-.9.4-1.4.4s-.6,0-1-.2v-1.1c.3.1.6.2.9.2.8,0,1.4-.5,1.4-1.3s-.8-1.5-1.8-1.5-1.2.1-1.8.4v1.9c0,.3,0,.7,0,1-.2.5-.6.8-1.1.8s-1-.2-1.4-.5c-.4-.3-.6-.7-.6-1.3,0-1.1,1.3-2,2.2-2.5v-1.3c-.5,0-.9,0-1.4,0s-.4,0-.5,0v-1.1c.4,0,.7,0,1.1,0s.6,0,.9,0ZM122.5,282.2c-.5.3-1.3.8-1.3,1.4s.6.8,1,.8.4-.4.4-.6v-1.5ZM125.8,278.6l.7-.7c.8.5,1.4,1,2,1.7l-.8.7c-.6-.7-1.1-1.2-1.9-1.7Z"/>
      <path class="cls-3" d="M115.6,278.7c0,.5-.4.8-.8.8s-.8-.4-.8-.8.4-.8.8-.8.8.4.8.8ZM118.2,284.3l-.5.5-2.9-3-2.9,3-.5-.5,3-2.9-3-2.9.5-.5,2.9,3,2.9-3,.5.5-3,2.9,3,2.9ZM112.8,281.4c0,.5-.4.8-.8.8s-.8-.4-.8-.8.4-.8.8-.8.8.4.8.8ZM118.3,281.4c0,.5-.4.8-.8.8s-.8-.4-.8-.8.4-.8.8-.8.8.4.8.8ZM115.6,284.1c0,.5-.4.8-.8.8s-.8-.4-.8-.8.4-.8.8-.8.8.4.8.8Z"/>
      <path class="cls-2" d="M305.5,185.6h-23.4v15.3h-6.5v-38.6h36.4v33.8c0,3.2-1.3,4.9-4.6,4.9h-7.9l-1.1-6.5h5.8c1,0,1.3-.4,1.3-1.3v-7.5ZM296.9,168.4v11.1h8.6v-11.1h-8.6ZM282.1,168.4v11.1h8.6v-11.1h-8.6Z"/>
      <path class="cls-2" d="M258.8,198c-7.9,0-12.6-6.1-12.6-17.5s4.7-17.5,12.6-17.5,12.6,6.1,12.6,17.5-4.7,17.5-12.6,17.5ZM258.8,191.5c3,0,4.7-3.3,4.7-11s-1.7-11-4.7-11-4.7,3.3-4.7,11,1.7,11,4.7,11Z"/>
      <path class="cls-2" d="M230.6,198c-7.9,0-12.6-6.1-12.6-17.5s4.7-17.5,12.6-17.5,12.6,6.1,12.6,17.5-4.7,17.5-12.6,17.5ZM230.6,191.5c3,0,4.7-3.3,4.7-11s-1.7-11-4.7-11-4.7,3.3-4.7,11,1.7,11,4.7,11Z"/>
      <path class="cls-2" d="M202.2,198.2c-7.6,0-12.3-3.5-12.3-9.1s2.4-6.8,6.2-8.4c-3.1-1.7-5.5-4.2-5.5-8.6s5.4-9.3,12-9.3,11.6,3.9,11.6,8.9-1.9,6.2-5.7,7.8c3.5,1.7,6.5,4.2,6.5,8.9s-5.2,9.9-12.9,9.9ZM198.3,172.3c0,2.4,2.1,3.8,5,5,2.4-1.3,3.2-3.3,3.2-4.8,0-2.4-1.6-3.7-4.1-3.7s-4.1,1.4-4.1,3.5ZM197.6,188.1c0,2.5,1.9,4,4.9,4s4.9-1.8,4.9-3.9-2.8-4-6.1-5.3c-2.6,1.3-3.6,3.3-3.6,5.2Z"/>
      <path class="cls-2" d="M180.4,204.7l-6-.9c2.4-3.9,3.4-7.9,3.4-12.4s-.1-2.4-.2-2.9h7.3c0,.5.2,1.7.2,3.1,0,4.9-1.6,9.4-4.8,13.1Z"/>
      <path class="cls-2" d="M149.9,197.1l.6-6.3c1.8.7,3.4.9,5.5.9,5,0,7.8-2.9,8.8-8.6-1.8,1.5-3.9,2.3-6.6,2.3-6.5,0-10.8-4-10.8-10.8s4.8-11.7,12.4-11.7,12.9,4.2,12.9,16-6,19.1-16.6,19.1-4.6-.4-6.3-.9ZM155.3,174.7c0,3.4,1.9,5.2,4.8,5.2s3.6-.7,5-2.3c-.1-6.2-1.9-8.4-5.1-8.4s-4.7,2.3-4.7,5.4Z"/>
      <path class="cls-2" d="M141.6,170.2c-1.6-.7-3.1-1-5.3-1-5.5,0-8.2,3.3-8.9,9.2,2-1.9,4.4-2.9,7.3-2.9,6.3,0,10.3,4.2,10.3,10.6s-4.6,11.8-12.3,11.8-13.1-5.6-13.1-16.6,6-18.5,16.6-18.5,4.6.4,6.3.9l-.9,6.4ZM132.6,181c-2.3,0-4.1,1.1-5.4,2.7.4,5.5,2.1,7.9,5.2,7.9s4.6-2.4,4.6-5.6-1.6-5.1-4.4-5.1Z"/>
      <path class="cls-3" d="M291.5,230.2h8.3v-2.1h3.2v2.1h8.4v3h-8.4v2.4h7.3v3h-5.7c1.8,2.4,4.3,3.9,7.1,5.2l-1.8,3.1c-2.3-1.2-5.4-3.8-6.8-6v7.1h-3.2v-7.1c-1.3,2.1-4.7,4.8-6.8,6l-1.7-3.3c2.9-1.2,5-2.7,7.1-5.1h-5.7v-3h7.2v-2.4h-8.3v-3Z"/>
      <path class="cls-3" d="M279.1,249.9l8-21.5h3.3l-8.1,21.5h-3.3Z"/>
      <path class="cls-3" d="M266.6,245l.6-3.4c1.3,1,2.9,1.6,4.5,1.6s3-.6,3-2-.9-2.1-3.8-2.1h-1.8v-2.8h1.7c2.3,0,3.6-.8,3.6-2.2s-.8-1.7-2.4-1.7-2.7.5-3.8,1.6l-1.4-3c1.7-1.3,3.6-1.9,5.7-1.9,3.5,0,5.8,1.4,5.8,4.3s-1.2,3.5-3.3,4.2c2.4.5,3.7,1.8,3.7,4.1,0,3.2-2.5,5-6.5,5s-4.1-.6-5.5-1.5Z"/>
      <path class="cls-3" d="M249.9,241.3l-3.2-.4c.1-4.2,2.4-6.2,4.9-6.2s3.2.8,4.7,2c1,.7,1.7,1,2.3,1,1.1,0,1.7-1.2,1.9-3l3.2.4c-.1,4.2-2.4,6.2-4.9,6.2s-3.2-.8-4.8-2c-1.1-.7-1.7-1-2.3-1-1.1,0-1.7,1.2-1.9,3Z"/>
      <path class="cls-3" d="M234.9,245h-7.7v-8.8c-.5.5-1,1-1.6,1.4l-1.8-3.1c2-1.6,4-4.1,4.6-6.6l3.8.2c-.2.5-.4,1.1-.6,1.6h12c0,3.9,0,7.8-.2,11.7,0,1.3-.2,2.9-.5,4.1-.5,1.9-2,2.5-3.8,2.5h-3.4l-.7-3ZM238.2,244.8c1,0,1.4-.1,1.7-1.2.5-2,.5-8.3.5-10.7h-10.5c-.3.5-.6.9-.9,1.3h9.3v10.5ZM235.2,237h-4.8v1.4h4.8v-1.4ZM235.2,240.8h-4.8v1.4h4.8v-1.4Z"/>
      <path class="cls-3" d="M204,231.3h7.5v-3.2h3.2v3.2h7.6v11.2h-7.6v5.5h-3.2v-5.5h-7.5v-11.2ZM211.5,234.3h-4.3v5h4.3v-5ZM219.2,234.3h-4.4v5h4.4v-5Z"/>
      <path class="cls-3" d="M190.9,249.9l8-21.5h3.3l-8.1,21.5h-3.3Z"/>
      <path class="cls-3" d="M178.4,245l.6-3.4c1.3,1,2.9,1.6,4.5,1.6s3-.6,3-2-.9-2.1-3.8-2.1h-1.8v-2.8h1.7c2.3,0,3.6-.8,3.6-2.2s-.8-1.7-2.4-1.7-2.7.5-3.8,1.6l-1.4-3c1.7-1.3,3.6-1.9,5.7-1.9,3.5,0,5.8,1.4,5.8,4.3s-1.2,3.5-3.3,4.2c2.4.5,3.7,1.8,3.7,4.1,0,3.2-2.5,5-6.5,5s-4.1-.6-5.5-1.5Z"/>
      <path class="cls-3" d="M165.6,249.9l8-21.5h3.3l-8.1,21.5h-3.3Z"/>
      <path class="cls-3" d="M153.3,245l.6-3.4c1.3,1,2.7,1.6,4.5,1.6s3-.8,3-2.2-1.1-2.4-3.9-2.4-2.4.2-3.2.4v-9.7h10v3.4h-6.7v3.3c.6,0,1.2,0,1.8,0,3.6,0,5.9,1.8,5.9,5.2s-2.5,5.5-6.5,5.5-4.1-.6-5.4-1.5Z"/>
      <path class="cls-3" d="M139.3,246.2v-2.9l5.3-4.8c1.6-1.5,2.4-2.5,2.4-3.8s-.9-2.3-2.3-2.3-2.7.9-3.7,2.3l-1.7-3c1.5-1.7,3.4-2.7,5.8-2.7,3.4,0,5.8,1.9,5.8,5.1s-1.2,4-3.9,6.4l-2.6,2.3h6.7v3.4h-11.7Z"/>
      <path class="cls-3" d="M131.1,246.5c-3.9,0-6.3-3-6.3-8.8s2.4-8.8,6.3-8.8,6.3,3,6.3,8.8-2.4,8.8-6.3,8.8ZM131.1,243.2c1.5,0,2.3-1.6,2.3-5.5s-.8-5.5-2.3-5.5-2.3,1.6-2.3,5.5.8,5.5,2.3,5.5Z"/>
      <path class="cls-3" d="M111.2,246.2v-2.9l5.3-4.8c1.6-1.5,2.4-2.5,2.4-3.8s-.9-2.3-2.3-2.3-2.7.9-3.7,2.3l-1.7-3c1.5-1.7,3.4-2.7,5.8-2.7,3.4,0,5.8,1.9,5.8,5.1s-1.2,4-3.9,6.4l-2.6,2.3h6.7v3.4h-11.7Z"/>
      <path class="cls-2" d="M100,17h134v53.3l-67,10.7-67-10.7V17Z"/>
      <path class="cls-4" d="M203.2,44.3l3.3.2c-.4,1.3-.5,2.3-.7,3.6,1.1-1.2,2.6-2.1,4.3-2.1s3,.6,3.9,1.7c1.1,1.3,1.3,3.5,1.3,5.1,0,2.6-.8,5.2-3.1,6.7-2.3,1.5-5.4,1.6-8,1.7l-.8-2.9c2.2,0,4.8,0,6.8-1.2,1.7-1,1.9-2.8,1.9-4.7s-.2-3.7-2.5-3.7-2.2.6-3,1.6c-.7.8-1,1.5-1.2,2.6,0,1,0,2.1.1,3.1l-3.1.2c0-.8-.1-1.4-.1-2.2,0-3.1.3-6.7.7-9.9Z"/>
      <path class="cls-4" d="M190.8,55.3c-.9,2.9-2.9,5.1-5.6,6.7l-2.1-2.4c.7-.3,1.2-.7,1.8-1.1-.2,0-.5.1-.7.1h-2.1c-1.1,0-1.7-.8-1.7-1.9v-5l-1.4.3v-2.9c0,0,1.4-.3,1.4-.3v-5.1h2.8v4.6l3.2-.6v2.8c.1,0-3.2.6-3.2.6v4.2c0,.3,0,.3.3.3h.6c.2,0,.3-.1.3-.6,0-.5.2-1.4.2-2.1l2.2.5c-.1,1.7-.3,2.9-.7,3.8,1.4-1.3,2.1-2.7,2.5-6.1,0-1,.2-2.4.2-4.1h-3v-2.8h10.6c0,3.6,0,6.3,0,8.1,0,3.8-.2,5.8-.6,7.3-.3,1.3-1.3,1.9-2.4,1.9h-3.4l-.6-2.8h2.4c.6,0,.9,0,1-.7.1-.4.3-1.3.3-2.4.1-1.8.2-3.5.2-5.7v-2.9h-1.8c0,3.6-.3,6-.9,8.1Z"/>
      <path class="cls-4" d="M160.6,54c-.9.1-1.7.2-2.5.2l-.2-2.5c.4,0,.7,0,1.1,0,.3-.4.6-.8.9-1.2-.7-.9-1.3-1.6-2.2-2.2l1.1-2.5c.2.1.3.2.5.4.5-.8.8-1.7,1.1-2.5l2.3.5c-.4,1.2-1.2,2.5-1.9,3.5.2.2.4.4.6.6.6-.9,1.1-1.8,1.6-2.8l1.9.7v-1.4h4.1v-1.2h2.8v1.2h4.2v2.4h-1.4c0,.5-.2.9-.3,1.4h1.6v4.4h-.9v5.8c0,1.2-.3,1.6-1.5,1.6h-1.2l-.5-2.7h.6c.3,0,.3,0,.3-.4v-2.7h-1v6.9h-2.4v-6.9h-1v5.7h-2.3v-7.4h-.4c0,.2,0,.4.2.6l-2,.7c0-.3,0-.5-.1-.8h-.8v8.2h-2.2v-7.8ZM164.9,46.9c-1,1.6-2.3,3.2-3.5,4.7.6,0,1.2,0,1.8,0-.1-.4-.3-.9-.4-1.3l1.7-.6c.2.6.5,1.1.7,1.7v-2.7h1.6c-.1-.5-.3-1-.4-1.4h-1.3v-.4ZM171.9,47.3h-2.9c.2.5.3.9.4,1.4h2.2c.2-.5.3-.9.4-1.4ZM167.6,52.5h1.7v-1.4h-1.7v1.4ZM171.6,51.1v1.4h1.7v-1.4h-1.7ZM160.2,55.1c0,1.7-.2,4-.6,5.6l-1.9-1.2c.5-1.5.6-3.1.7-4.7l1.8.3ZM165,54.8c.3,1.5.4,2.9.5,4.4l-1.9.3v-.4c0-1.3,0-2.6-.3-3.9l1.7-.3Z"/>
      <path class="cls-4" d="M142.1,53.8v8h-2.2v-7.7c-.8,0-1.7.2-2.5.2l-.2-2.5h1.1l.9-1.3c-.7-.7-1.4-1.3-2.2-1.9l.9-2.5c.2.1.3.2.5.3.5-.9.9-1.7,1.3-2.7l2.5.6c-.6,1.2-1.3,2.5-2.1,3.6.2.2.4.3.6.5.6-.9,1.1-1.9,1.7-2.8l2.2.7c-.4.6-.7,1.3-1.2,1.9,1.5-1.1,2.9-2.8,3.5-4.5l2.9.3c-.2.5-.2.7-.5,1.2h5v2.4c-.6,1.5-1.4,2.7-2.6,3.8,1.3.6,2.4,1,3.8,1.3l-1.3,2.8c-1.7-.6-3.2-1.3-4.8-2.4-.4.3-.8.5-1.2.8,1.3.5,2.8,1.3,4,2.1l-1.5,2c-1.1-.9-2.6-1.6-3.9-2.2l1.2-1.8c-1,.6-2.1,1-3.2,1.4l-.6-1.2-1.1.4c0-.3,0-.5-.1-.8-.3,0-.5,0-.8.1ZM149.3,49.9c.9-.8,1.5-1.4,2.1-2.4h-3.8c0,0-.2.2-.2.3.5.8,1.2,1.5,1.9,2.1ZM144.7,52.5c.9-.3,1.7-.7,2.5-1.1-.6-.6-1.1-1.2-1.5-1.9-.3.3-.6.5-.9.7l-1.7-1.9c-.8,1.1-1.6,2.3-2.5,3.4.6,0,1.1,0,1.6,0-.1-.4-.3-.8-.4-1.2l1.8-.6c.5,1,.7,1.7,1,2.7ZM144.3,54.9c.3,1.2.5,3,.6,4.3l-2,.4c0-1.4-.1-2.9-.4-4.3l1.8-.3ZM139.3,55.1c0,2.1,0,3.6-.6,5.7l-1.9-1.3c.4-1.4.6-3,.6-4.5h1.8ZM153.7,59.4l-1.4,2.6c-2.6-1-4.8-1.7-7.6-2.2l.9-2.5c2.3.3,5.9,1.2,8,2.1Z"/>
      <path class="cls-4" d="M117.6,44.2h15.2v5.8h-15.2v-5.8ZM129.9,45.8h-9.5v.7h9.5v-.7ZM129.9,47.7h-9.5v.7h9.5v-.7ZM129.6,60.2c-1.2.7-2.3,1.1-3.6,1.5l-1-2.3v2.3h-2.7v-1.2c-2,.3-4,.4-6.1.5l-.2-2.4c.4,0,.7,0,1.1,0v-5.9h-1v-2.2h18.1v2.2h-9.3v6.6c.9-.2,1.6-.5,2.5-.8-.7-.8-1.2-1.5-1.6-2.5l2.2-.6h-2.6v-2h8.2v2c-.4,1.2-1,2.1-1.8,3,.9.4,1.8.6,2.7.8l-1.4,2.5c-1.3-.4-2.4-.8-3.5-1.6ZM122.3,52.7h-2.6v.8h2.6v-.8ZM122.3,55.2h-2.6v.8h2.6v-.8ZM128.1,55.5c.4.7.9,1.2,1.5,1.7.6-.5.9-1,1.3-1.7h-2.8ZM119.7,58.6c.9,0,1.7,0,2.6-.2v-.9h-2.6v1Z"/>
      <path class="cls-4" d="M224.4,25.7v12.4c1.3-.4,2.2-1.2,2.8-2.4.7-1.3,1.1-2.7,1.3-4.2l2.9,1.4c-.6,3.1-1.9,5.5-4,7-1.6,1.2-3.6,1.9-6.1,2v-16.2h3ZM219.2,26.3v4.4c0,2.1-.2,4.4-.6,6.3-.5,2.1-1.3,4-2.9,5.5l-2.4-2.5c1.3-1.2,1.9-2.5,2.3-4.3.3-1.5.5-3.1.5-4.7v-4.8h3.1Z"/>
      <path class="cls-4" d="M210.4,24.5c.3.6.6,1.6.8,2.9l-1.6.2c-.1-.9-.4-2-.7-2.9l1.6-.2ZM208.1,24.7c.3.9.6,1.8.7,2.8l-1.7.3c-.1-1.1-.2-1.6-.6-2.8l1.5-.2ZM195.3,26.1h10.9c.2.7.3,1.5.4,2.2h1c0-.1,0,.6,0,.6h-12.3v-2.7ZM194,30.9h16.1v2.8h-6v.4c0,1.8-.7,4.1-2.1,5.5-1.5,1.6-4,2.3-6.1,2.7l-1.3-2.8c2-.3,3.8-.8,4.8-1.6,1.1-.9,1.5-2.5,1.5-3.9v-.4s-7,0-7,0v-2.8Z"/>
      <path class="cls-4" d="M173.8,26.2h14.7v2.8h-7.3v2.7h8.2v2.9h-8.2v3.5c0,.6,0,.8.9.8h3.2c1,0,2.6,0,3.6-.1l-.2,2.9h-7.5c-1,0-1.7-.2-2.3-.6-.6-.5-.9-1.2-.9-2v-4.3h-4.9v-2.9h4.9v-2.7h-4.1v-2.8Z"/>
      <path class="cls-4" d="M162.5,26h4.4v9.2h2.4v2.8h-2.4v2.9h-3.1v-2.9h-8.9v-3.1l7.6-8.9ZM163.7,28.6l-5.7,6.6h5.7v-6.6Z"/>
      <path class="cls-4" d="M138.2,31.2c0-1.5,0-3,1.2-4.1,1.3-1.1,3.7-1.2,5.3-1.2,3.6,0,6.7.3,6.7,4.8s-.2,2.5-1,3.4c-.7.7-1.9,1.2-2.9,1.3l-4.7.6c-.4,0-1.1.2-1.4.5-.3.3-.4.9-.4,1.3v.5h10.3v2.8h-13.5v-2.7c0-1.4,0-2.7,1-3.8.6-.8,1.7-1.2,2.7-1.3l4.9-.6c1.3-.2,1.8-.5,1.8-1.9s-.2-1.4-.9-1.7c-.6-.3-2.2-.3-2.9-.3-2.9,0-3.3.5-3.3,2.5h-3.1Z"/>
      <path class="cls-4" d="M134.1,33.5c0,1.5,0,3.3-.5,4.7-.2.7-.6,1.4-1.2,1.8-1.4,1.1-3.3,1.1-5.3,1.1s-4.3,0-5.6-1.6c-1.1-1.4-1.1-4.3-1.1-6.1s0-3.3.5-4.7c.2-.7.6-1.4,1.2-1.8,1.3-1.1,3.2-1.1,5.3-1.1s4.3,0,5.6,1.6c1.1,1.4,1.1,4.3,1.1,6.1ZM127.6,28.7h-.7c-.9,0-2.3,0-2.8.7s-.5,3.1-.5,4.1,0,1.8,0,2.6c0,.5.1,1,.4,1.5s.8.6,1.3.6c.7,0,1.4,0,2.1,0,1.1,0,2.4,0,2.9-.7.5-.7.5-2.9.5-3.7s0-2.1-.1-2.9c0-.5-.1-1-.4-1.4-.5-.7-1.9-.7-2.8-.7Z"/>
      <path class="cls-4" d="M103.4,31.2c0-1.5,0-3,1.2-4.1,1.3-1.1,3.7-1.2,5.3-1.2,3.6,0,6.7.3,6.7,4.8s-.2,2.5-1,3.4c-.7.7-1.9,1.2-2.9,1.3l-4.7.6c-.4,0-1.1.2-1.4.5-.3.3-.4.9-.4,1.3v.5h10.3v2.8h-13.5v-2.7c0-1.4,0-2.7,1-3.8.6-.8,1.7-1.2,2.7-1.3l4.9-.6c1.3-.2,1.8-.5,1.8-1.9s-.2-1.4-.9-1.7c-.6-.3-2.2-.3-2.9-.3-2.9,0-3.3.5-3.3,2.5h-3.1Z"/>
      <path class="cls-2" d="M16,171h86v29H16v-29Z"/>
      <path class="cls-4" d="M83.6,178.4h2.4v1.1h6v4.2h-2.4v-2h-9.6v2h-2.4v-4.2h6v-1.1ZM81.6,188.6c.5.8,1.2,1.4,2,1.7v-5.1h-3.1v-2.2h8.7v2.2h-3.2v1.5h4.6v2.2h-4.6v1.9c.3,0,.6,0,.9,0h5.7l-.5,2.4h-5.6c-2.4,0-4.1-.6-5.7-2.5-.6,1.2-1.1,2-2.1,2.9l-1.6-2c1.8-1.5,2.5-3.7,2.8-5.9l2.3.3c-.1.9-.3,1.7-.5,2.6Z"/>
      <path class="cls-4" d="M66.3,190.9v-12.2h7.9v7.7h-.3l1,1.8c-.6.5-1.2.9-1.9,1.3.6.7,1.1,1.2,1.8,1.8l-1.5,2.2c-2.2-1.7-3.5-4.4-4-7.1h-.9v4.1c.7-.1,1.4-.2,2-.4l.2,2.1c-1.8.5-3.6.8-5.5,1.1l-.3-2.3c.4,0,.9,0,1.3-.2ZM60,178.7h5.8v2.2c-.3,1.1-.7,2.2-1.1,3.3.9,1,1.3,2.4,1.3,3.7s-.2,1.6-.7,2.1c-.3.3-.8.5-1.2.5h-1.3l-.4-2.3h.4c.6,0,.7-.2.7-.8,0-1.1-.4-2-1.2-2.8.5-1.2.8-2.4,1.1-3.6h-1.2v12.6h-2.3v-14.8ZM72,180.8h-3.3v1h3.3v-1ZM72,183.5h-3.3v1h3.3v-1ZM72.1,187.8c.6-.4,1.1-.8,1.6-1.4h-2.1c.1.5.3.9.5,1.4Z"/>
      <path class="cls-4" d="M43.2,178.7h12.8v4.2h-12.8v-4.2ZM45.6,180.4h8.2v-.5h-8.2v.5ZM45.6,181.3v.5h8.2v-.5h-8.2ZM57.2,183.3v1.4h-15.2v-1.4h15.2ZM55.9,185.1v4h-5.2v.5h5.6v1.3h-5.6v.5h6.5v1.6h-15.2v-1.6h6.5v-.5h-5.6v-1.3h5.6v-.5h-5.2v-4h12.6ZM53.6,186.1h-2.9v.5h2.9v-.5ZM48.4,186.1h-2.8v.5h2.8v-.5ZM48.4,187.6h-2.8v.5h2.8v-.5ZM53.6,187.6h-2.9v.5h2.9v-.5Z"/>
      <path class="cls-4" d="M36.1,191.2c-.9.9-1.8,1.6-3,2.2l-1.1-1.6-.8,1.4c-.6-.4-1.1-.7-1.8-1.1-1.3.8-2.6,1.2-4.1,1.5l-.8-2c.9,0,1.7-.2,2.6-.5-.7-.3-1.5-.6-2.2-.7.4-.6.6-1,1-1.7h-1.3v-1.9h2.1c.1-.4.3-.8.4-1.2h.6c0,0,0-1.6,0-1.6-.7.9-1.4,1.5-2.3,2.1l-1.1-1.7c1-.3,1.7-.9,2.5-1.6h-2.1v-1.8h.9c-.2-.7-.4-1.3-.8-1.9l1.7-.6c.4.7.6,1.2.9,2l-1.4.5h1.8v-2.5h2.2v2.5h1.9l-1.7-.5c.4-.7.7-1.3,1-2l1.9.5c-.3.8-.6,1.3-1,2h.8v1.8h-2.1c.4.4.9.8,1.5,1.2,1.1-1.6,1.7-3.7,1.9-5.6l2.4.3c0,.7-.2,1.3-.4,2h3.7v2.4h-.5c-.1,2.1-.5,4.4-1.5,6.3.7.8,1.4,1.4,2.3,2l-1.3,2.4c-1-.7-1.7-1.3-2.5-2.3ZM36.2,186.8c.4-1.3.6-2.5.6-3.9h-1.6c.2,1.4.5,2.6,1,3.9ZM34.8,189.2c-.5-1.2-.8-2.3-1.1-3.6-.2.3-.4.5-.7.8l-1.4-1.6-.5.6c-.6-.4-.9-.8-1.3-1.3v1.7h-.6c0,.3-.2.6-.3.9h3.9v1.9h-.8c-.2.7-.5,1.3-.9,1.9.4.2.8.3,1.2.5,1-.4,1.8-1,2.6-1.8ZM28.1,188.6c-.1.3-.3.6-.4.9.5,0,.9.2,1.4.3.4-.4.6-.7.8-1.2h-1.7Z"/>
      <path class="cls-3" d="M227.8,264.4l-.5,1.1c-.3-.4-.4-.7-.7-1.2v3.9h-1.7v-3.7c-.4.9-.8,1.5-1.5,2.2l-.6-2.1c.8-.7,1.4-1.5,1.9-2.5h-1.6v-1.6h1.8v-3.6h1.7v3.6h1.7v1l1-1.2c.8.5,1.4,1,2,1.6l-1.2,1.3c-.5-.6-1.1-1.2-1.8-1.6v.5h-1.6c.3.6.8,1.2,1.3,1.7v.2c0,0,3.6-.7,3.6-.7v-4.3l-1.1,1.2c-.6-.7-1.1-1.2-1.9-1.8l1.1-1.2c.7.4,1.3.9,1.9,1.5v-2h1.8v6.2l.9-.2.2,1.8-1,.2v3.4h-1.8v-3l-3.7.7-.2-1.4ZM228.8,257.5c-.2.8-.5,1.8-.9,2.6l-1.2-.5c.3-.7.6-1.6.7-2.4l1.4.3ZM224.2,257.2c.3.7.5,1.6.6,2.3l-1.3.5c0-.9-.2-1.6-.6-2.5l1.2-.4Z"/>
      <path class="cls-3" d="M211.7,259.5c-.3.3-.6.5-.9.7l-1-1.4c.8-.5,1.7-1.2,2.1-2.1l1.8.2c-.1.3-.2.4-.3.7h7.7v1.6h-1v1.2h1.3v1.6h-1.3v1.2h1v1.6h-10.8v-1.6h1.3v-1.2h-1.6v-1.6h1.8v-.9ZM213.9,259.2h-.9v1.2h.9v-1.2ZM216.2,259.2h-.9v1.2h.9v-1.2ZM218.4,259.2h-.9v1.2h.9v-1.2ZM213.9,262h-.9v1.2h.9v-1.2ZM216.2,262h-.9v1.2h.9v-1.2ZM218.4,262h-.9v1.2h.9v-1.2ZM212.7,265.4c-.3,1.1-.7,2-1.4,2.9l-1.5-1c.7-.7,1.1-1.5,1.4-2.4l1.6.6ZM219.8,264.8c.7.9,1.1,1.6,1.6,2.6l-1.7.8c-.4-1-.9-1.9-1.5-2.8l1.6-.7ZM217.3,265.1c.3.8.8,2,.9,2.8h-1.8c-.1-.9-.4-1.8-.7-2.7h1.6ZM214.8,265.2c.1.8.2,2,.2,2.8h-1.8c0-.5,0-1.3,0-1.9s0-.6,0-.9h1.5Z"/>
      <path class="cls-3" d="M201.4,264.4l-.5,1.1c-.3-.4-.4-.7-.7-1.2v3.9h-1.7v-3.7c-.4.9-.8,1.5-1.5,2.2l-.6-2.1c.8-.7,1.4-1.5,1.9-2.5h-1.6v-1.6h1.8v-3.6h1.7v3.6h1.7v1l1-1.2c.8.5,1.4,1,2,1.6l-1.2,1.3c-.5-.6-1.1-1.2-1.8-1.6v.5h-1.6c.3.6.8,1.2,1.3,1.7v.2c0,0,3.6-.7,3.6-.7v-4.3l-1.1,1.2c-.6-.7-1.1-1.2-1.9-1.8l1.1-1.2c.7.4,1.3.9,1.9,1.5v-2h1.8v6.2l.9-.2.2,1.8-1,.2v3.4h-1.8v-3l-3.7.7-.2-1.4ZM202.4,257.5c-.2.8-.5,1.8-.9,2.6l-1.2-.5c.3-.7.6-1.6.7-2.4l1.4.3ZM197.8,257.2c.3.7.5,1.6.6,2.3l-1.3.5c0-.9-.2-1.6-.6-2.5l1.2-.4Z"/>
      <path class="cls-3" d="M192.3,262.6c.7,1,1.6,1.5,2.7,1.9l-1,1.6h1.1l-.3,1.7h-6.2c-1.1,0-2.1-.4-2.7-1.3-.5.6-1.1,1.1-1.8,1.6l-.7-2c.5-.2.8-.5,1.2-.8v-2.5h-1v-1.7h2.8v3.5c.2.9.7,1.2,1.6,1.4l-1.1-1.5c1-.4,2-.9,2.6-1.9h-2.6v-1.7h3.1v-1h-2.8v-1.7h1.1c-.2-.4-.3-.8-.5-1.2l1.8-.3c.2.5.4,1,.6,1.5h1.5c.2-.4.5-1,.6-1.5l1.8.3c-.1.4-.3.8-.5,1.2h1.2v1.7h-2.9v1h3.2v1.7h-2.6ZM184.8,256.8c.8.6,1.4,1.2,2,2l-1.3,1.3c-.6-.7-1.2-1.4-1.9-2l1.2-1.3ZM193.7,266.1c-1.3-.6-2.3-1.5-2.9-2.8-.5,1.2-1.5,2.3-2.7,2.8.2,0,.4,0,.6,0h5Z"/>
      <path class="cls-3" d="M16,223h86v64H16v-64Z"/>
      <path class="cls-4" d="M81.1,271.4v.9c0,.3,0,.6,0,.9,0,2.9-.6,5.2-3.1,7l-2.3-1.6c2.2-1.3,2.8-3,2.8-5.5s0-.4,0-.6v-.8c-1,0-2,0-2.9,0s-1.2,0-1.9,0v-2.5c.7,0,1.5,0,2.3,0s1.6,0,2.4,0v-3.1c-.1,0,2.5,0,2.5,0v2.9c.8,0,1.6-.2,2.3-.4v2.5c-.6.1-1.4.3-2.2.4ZM70.5,266.2l2.6.3c-.5,2.3-.9,4.4-.9,6.8s.3,3.8.7,5.7l-2.4.4c-.6-1.9-.8-4.1-.8-6s.3-4.8.8-7.2Z"/>
      <path class="cls-4" d="M61.4,270.9v1h4.2v8.4h-10.6v-8.4h4.2v-1h-4.7v1.9c0,2.5-.4,5.6-1.7,7.8l-2-1.9c1-1.8,1.3-4,1.3-6v-6.8h13.5v5.1h-4.2ZM63.2,267.9h-8.7v1.1h8.7v-1.1ZM59.2,273.8h-1.9v1.3h1.9v-1.3ZM63.4,273.8h-2v1.3h2v-1.3ZM59.2,276.9h-1.9v1.4h1.9v-1.4ZM63.4,276.9h-2v1.4h2v-1.4Z"/>
      <path class="cls-4" d="M37.7,268.3v-2.5h2.5v2.3c.9,0,1.9-.3,2.8-.5v2.5c-.9.1-1.8.3-2.8.4v1c.9-.3,1.9-.4,2.8-.4,1.7,0,3.3.6,4.2,2.1.4.7.6,1.5.6,2.3,0,1.3-.6,2.7-1.7,3.5-.7.4-1.6.6-2.5.6s-1,0-1.5-.2v-2.6c.4.2.8.3,1.3.3,1.1,0,1.9-.5,1.9-1.7s-1.2-2-2.5-2-1.6.2-2.4.4v2.8c0,.6,0,1.2-.2,1.7-.3,1-1.2,1.5-2.2,1.5s-1.8-.3-2.5-.8c-.8-.6-1.3-1.4-1.3-2.4,0-2,2-3.5,3.6-4.2v-1.6c-.8,0-1.7,0-2.5,0h-.5v-2.5c.5,0,1,0,1.6,0s1,0,1.5,0ZM37.8,274.9c-.5.3-1.5,1-1.5,1.7s.7.9,1.1.9.4-.4.4-.9v-1.7ZM43.5,268.5l1.5-1.7c1.4.8,2.5,1.9,3.6,3.1l-1.8,1.7c-1-1.3-2-2.2-3.3-3.1Z"/>
      <path class="cls-4" d="M54,261.5c1.8-1.7,2.1-4.4.6-6-1.5-1.6-4.2-1.5-6,.2-1.8,1.7-2.1,4.4-.6,6,1.5,1.6,4.2,1.5,6-.2Z"/>
      <path class="cls-4" d="M78.2,261.5c1.8-1.7,2.1-4.4.6-6-1.5-1.6-4.2-1.5-6,.2-1.8,1.7-2.1,4.4-.6,6,1.5,1.6,4.2,1.5,6-.2Z"/>
      <path class="cls-4" d="M34.9,240.7c0-1.1-.9-2-2-2s-2,.9-2,2,.9,2,2,2,2-.9,2-2Z"/>
      <path class="cls-4" d="M69.1,258.1c.7-3.3,3.9-6,7.3-6s5.6,2.5,5.6,5.6c3.5,0,4.5-4.6,4.5-4.6.3-1.3.7-3.8,1.1-6.3.1-.8,0-1.6-.3-2.3-.9-2.2-2-4.2-3.4-6.2-1.2-1.8-3.3-2.9-5.7-3-1.4,0-2.8,0-3.8,0h0c-.1-2.2-1.8-4-4.1-4.2-1.5-.1-7.4-.2-10.3-.2s-2.8,0-4.4,0h0s0,0,0,0h-19.7c-.3,0-.5,0-.7.1-.2,0-.4.2-.6.4-.2.2-.3.4-.4.6,0,.2-.1.5-.1.7h0c0,.5.2,1,.6,1.4.4.4.8.6,1.3.6h4c.5,0,.9.2,1.3.6.3.4.5.8.5,1.3h0c0,.3,0,.5-.1.7,0,.2-.2.4-.4.6-.2.2-.4.3-.6.4-.2,0-.5.1-.7.1h-2c-.5,0-1,.2-1.4.6-.4.4-.6.8-.6,1.3,0,.2,0,.5.1.7s.2.4.4.6c.2.2.4.3.6.4.2,0,.5.1.7.1h2c.5,0,1,.2,1.4.6.4.4.6.8.6,1.3s-.2,1-.6,1.3c-.4.4-.8.6-1.4.6h-7.6c-.5,0-1,.2-1.4.6-.4.4-.6.8-.6,1.3,0,.5.2,1,.6,1.3.4.4.8.6,1.4.6h7.6c.5,0,1,.2,1.4.6.4.4.6.8.6,1.3,0,.5-.2,1-.6,1.3-.4.4-.8.6-1.4.6h-2.4c-.5,0-1,.2-1.4.6-.4.4-.6.8-.6,1.3s.2,1,.6,1.3c.4.4.8.6,1.4.6h7.5s.6-1.6.6-1.6c1.3-2.4,3.8-4,6.5-4s5.8,2.7,5.6,6h11.4M50.2,239.5h-2.6s0,0,0,0c0,0,0,0,0,0l-.2,1.7s0,0,0,0c0,0,0,0,0,0,0,0,0,0,0,0,0,0,0,0,0,0h1.9c0,0,.2,0,.3,0,0,0,.2,0,.2.2,0,0,.1.2.1.2s0,.2,0,.3c0,.2-.1.4-.3.5-.2.1-.4.2-.6.2h-1.9s0,0,0,0c0,0,0,0,0,0l-.3,2.4c0,.2-.1.4-.3.5-.2.1-.4.2-.6.2,0,0-.2,0-.3,0s-.2,0-.2-.2c0,0-.1-.2-.1-.2,0,0,0-.2,0-.3l.9-6.3c0-.2.1-.4.3-.6.2-.1.4-.2.6-.2h3.3c0,0,.2,0,.3,0,0,0,.2,0,.2.2,0,0,.1.2.1.2,0,0,0,.2,0,.3,0,.2-.1.4-.3.5-.2.1-.3.2-.6.2ZM57,238.6c.3.2.5.5.5.9,0,.4.1.8,0,1.2,0,.6-.3,1.2-.7,1.7-.2.3-.6.5-.9.7,0,0,0,0,0,0s0,0,0,0l.6,1.8c.2.5-.3,1.1-.8,1.1h0c-.1,0-.3,0-.4-.1-.1,0-.2-.2-.2-.3l-.8-2.2s0,0,0,0c0,0,0,0,0,0h-1.6s0,0,0,0c0,0,0,0,0,0l-.3,1.9c0,.2-.1.4-.3.5s-.4.2-.6.2c0,0-.2,0-.3,0,0,0-.2,0-.2-.2s-.1-.2-.1-.2c0,0,0-.2,0-.3l.9-6.3c0-.2.1-.4.3-.6.2-.1.4-.2.6-.2h2.5s1.1,0,1.7.5ZM64,238.8c0,.2-.1.4-.3.5-.1.1-.3.2-.5.2h-2.9s0,0,0,0c0,0,0,0,0,0l-.2,1.7s0,0,0,0c0,0,0,0,0,0,0,0,0,0,0,0,0,0,0,0,0,0h2.3c0,0,.2,0,.3,0,0,0,.2,0,.2.2,0,0,0,.1.1.2,0,0,0,.2,0,.3,0,.2-.1.4-.3.5-.1.1-.3.2-.5.2h-2.3s0,0,0,0c0,0,0,0,0,0l-.3,2s0,0,0,0c0,0,0,0,0,0h2.9c0,0,.2,0,.3,0,0,0,.2,0,.2.2,0,0,0,.1.1.2,0,0,0,.2,0,.3,0,.2-.1.4-.3.5-.1.1-.3.2-.5.2h-3.6c0,0-.2,0-.3,0,0,0-.2-.1-.2-.2,0,0-.1-.2-.1-.3,0,0,0-.2,0-.3l.9-6.3c0-.2.1-.4.3-.6.2-.1.4-.2.6-.2h3.6c0,0,.2,0,.3,0,0,0,.1,0,.2.2,0,0,0,.1.1.2,0,0,0,.2,0,.3ZM70.1,238.8c0,.2-.1.4-.3.5-.1.1-.3.2-.5.2h-2.9s0,0,0,0c0,0,0,0,0,0l-.2,1.7s0,0,0,0c0,0,0,0,0,0,0,0,0,0,0,0,0,0,0,0,0,0h2.3c0,0,.2,0,.3,0,0,0,.2,0,.2.2,0,0,0,.1.1.2,0,0,0,.2,0,.3,0,.2-.1.4-.3.5-.1.1-.3.2-.5.2h-2.3s0,0,0,0c0,0,0,0,0,0l-.3,2s0,0,0,0c0,0,0,0,0,0h2.9c0,0,.2,0,.3,0,0,0,.2,0,.2.2,0,0,0,.1.1.2,0,0,0,.2,0,.3,0,.2-.1.4-.3.5-.1.1-.3.2-.5.2h-3.6c0,0-.2,0-.3,0,0,0-.2-.1-.2-.2,0,0-.1-.2-.1-.3,0,0,0-.2,0-.3l.9-6.3c0-.2.1-.4.3-.6.2-.1.4-.2.6-.2h3.6c0,0,.2,0,.3,0,0,0,.1,0,.2.2,0,0,0,.1.1.2,0,0,0,.2,0,.3ZM74.3,238c1,0,2.3,0,3.6,0,1.6,0,2.9.7,3.8,2,.9,1.3,1.7,2.7,2.4,4.1.4.8-.3,1.7-1.2,1.7h-9.5l1-7.9Z"/>
      <path class="cls-4" d="M54.5,241.8h-1.7l.3-2h1.7s1.2,0,1,1c0,0-.1,1-1.4,1Z"/>
      <path class="cls-3" d="M267.7,143.3h.7c.4,0,.4-.2.4-.5v-4.9h-3.9v-5.4h5.9v11.3c0,1-.6,1.5-1.2,1.5h-2.7l-.2-1.3h-5.2v-5.5h6.3v4.8ZM258.3,132.5h5.7v5.4h-3.8v7.4h-2v-12.8ZM268.8,133.9h-1.9v.6h1.9v-.6ZM262.2,133.9h-1.8v.6h1.8v-.6ZM268.8,135.8h-1.9v.7h1.9v-.7ZM262.2,135.8h-1.8v.7h1.8v-.7ZM265.8,140h-2.5v.7h2.5v-.7ZM265.8,141.8h-2.5v.7h2.5v-.7Z"/>
      <path class="cls-3" d="M244,132.1c.9.6,1.9,1.4,2.6,2.2l-1.5,1.7c-.8-1-1.5-1.6-2.5-2.3l1.4-1.6ZM250.2,133.9h-1.6v3.9c0,.7,0,1.8-.2,2.5-.1.9-.4,1.6-.8,2.4l-1.5-1.6c.5-1.2.7-2.5.7-3.8v-5h8.5v9.1c0,.7-.4,1.2-1.1,1.2h-1.8l-.2-1h-3.4v-3.4h4.2v2.7h.1c.3,0,.3-.2.3-.4v-6.6h-1.7v.7h1.5v1.3h-1.5v.6h1.5v1.3h-4.5v-1.3h1.4v-.6h-1.3v-1.3h1.3v-.7ZM242.6,137.3h3.4v4.2c.2.5.4.9.9,1.2.5.3,1.1.4,1.8.4h7.3l-.4,2h-6.8c-.7,0-1.5-.1-2.2-.4-.6-.2-1-.6-1.4-1.1-.5.6-1.4,1.3-2,1.8l-.8-2.2c.6-.4,1-.6,1.6-1v-2.9h-1.4v-1.9ZM251.7,139.5h-1.3v.9h1.3v-.9Z"/>
      <path class="cls-3" d="M232.2,144.1v-1.9l3.5-3.2c1.1-1,1.6-1.7,1.6-2.5s-.6-1.5-1.6-1.5-1.8.6-2.4,1.6l-1.1-2c1-1.1,2.3-1.8,3.9-1.8,2.3,0,3.8,1.3,3.8,3.4s-.8,2.6-2.6,4.3l-1.7,1.6h4.5v2.2h-7.8Z"/>
      <path class="cls-3" d="M220.5,132.4c2,.2,3.9.6,5.8,1.3l-.8,2c-2-.7-3.7-1.1-5.8-1.3l.7-1.9ZM218.9,134.6l2.2.5c-.2,1-.5,2-.7,2.9,1.2-.6,2.5-1,3.9-1,2.1,0,4.1,1.1,4.1,3.5s-1.1,3-2.7,3.6c-1.2.4-2.6.5-3.9.5s-1.6,0-2.3-.2l-.4-2.3c1,.2,1.9.3,2.9.3s4.1-.2,4.1-2-1-1.4-1.9-1.4c-1.7,0-3.3.8-4.6,1.9l-1.8-.5c.3-1.9.6-3.9,1.1-5.8Z"/>
      <path class="cls-3" d="M204.7,135.6c.2-1,.4-2,.5-3l2.3.4c-.2.8-.3,1.6-.5,2.5,1,0,2,.1,2.7.9.8.8.9,2,.9,3.1s-.1,3.3-.8,4.3c-.5.8-1.4,1.1-2.4,1.1s-1.1,0-1.7-.2v-2.2c.4.1.9.2,1.3.2s.9-.2,1.1-.7c.2-.7.3-1.8.3-2.6,0-1.1,0-1.7-1.4-1.7s-.3,0-.5,0c-.7,2.6-1.6,5.1-3,7.4l-1.9-1.2c1.2-1.9,2-3.8,2.6-5.9-.8.1-1.6.2-2.4.4l-.3-2.1,3.2-.4ZM211.2,133.9c1.7,1.7,2.5,3.8,2.7,6.2l-2.1.7c-.1-2.2-.7-4.1-2.2-5.7l1.7-1.1Z"/>
      <path class="cls-3" d="M194.2,140.5c-.7-.4-1.4-.8-2.2-1.1-.5,1-1.1,2-1.8,3-.5.7-1.2,1.3-2.2,1.3-1.4,0-2-1.3-2-2.6,0-2.3,1.9-4.1,4.2-4.1s.4,0,.5,0c.3-.6.5-1.2.8-1.9-.9,0-1.8.2-2.7.2s-.5,0-.8,0v-2.2c.5,0,1.1,0,1.7,0,1.1,0,2.2,0,3.3-.3l1.3,1c-.5,1.2-1,2.4-1.5,3.6.7.3,1.5.6,2.1,1,.2-.9.4-1.7.4-2.6l2.2.5c-.1,1.1-.3,2.2-.7,3.2.6.4,1.1.8,1.6,1.3l-1.2,2.1c-.5-.4-.9-.8-1.4-1.2-.7,1.2-1.5,2.3-2.6,3.2l-1.9-1.3c1.1-.9,2-1.9,2.7-3.2ZM189.8,139.1c-1.2,0-1.9,1.1-1.9,2.1s0,.4.2.4c.4,0,1.5-2.1,1.7-2.5Z"/>
      <path class="cls-3" d="M171.6,132.1c1,.7,1.9,1.4,2.6,2.2l-1.5,1.6c-.7-.9-1.6-1.6-2.5-2.3l1.4-1.6ZM178.2,134.5h-3.1v-2h5.1c0,3.5.7,6,3.4,8.3l-1.4,1.9c-1.6-1.4-2.7-3.1-3.2-5.2-.8,2.1-2.1,3.8-3.9,5.2l-1.4-1.9c2.3-1.2,3.8-3.8,4.4-6.3ZM170.2,137.2h3.4v4.4c.5,1.1,1.4,1.4,2.5,1.4h7.5l-.4,2h-6.9c-1.5,0-2.5-.3-3.5-1.5-.5.7-1.3,1.3-2,1.8l-.8-2.3c.6-.3,1.1-.5,1.6-.9v-2.9h-1.4v-1.9Z"/>
      <path class="cls-3" d="M157.3,132.6h2.4c0,.1-.3,7.4-.3,7.4v.3c0,1.4.4,2.2,2,2.2,2.4,0,3.5-2.3,4.1-4.3l2,1.1c-1.1,2.9-2.8,5.4-6.2,5.4s-2.9-.4-3.7-1.6c-.5-.8-.6-1.7-.6-2.6s0-.8,0-1.1l.3-6.8Z"/>
      <path class="cls-3" d="M147,145.3h-2.1v-3h-4.9v-8.5h4.9v-1.7h2.1v1.7h4.9v8.5h-4.9v3ZM142.1,135.6v1.5h2.8v-1.5h-2.8ZM149.8,135.6h-2.8v1.5h2.8v-1.5ZM142.1,138.8v1.5h2.8v-1.5h-2.8ZM149.8,138.8h-2.8v1.5h2.8v-1.5Z"/>
      <path class="cls-3" d="M132.1,135.1v-2.4c0,0,2.2,0,2.2,0v2.3c.7,0,1.4-.2,2.1-.3v2.2c-.7,0-1.3.2-2,.2v2.9c1,.4,1.8.8,2.6,1.4l-.9,2c-.6-.5-1.1-.8-1.7-1.1,0,.4,0,.7-.3,1-.5.9-1.6,1.2-2.6,1.2-1.6,0-3.2-.8-3.2-2.6s.6-2,1.6-2.3c.5-.2,1-.3,1.5-.3s.5,0,.8,0v-2.2c-.4,0-.8,0-1.1,0-.9,0-1.7,0-2.6,0v-2.2c.9,0,1.9.1,2.8.1s.5,0,.8,0ZM132.2,141.5c-.3,0-.6-.2-.9-.2-.4,0-1.1.2-1.1.7s.6.7,1.1.7c.9,0,.9-.5.9-1.2ZM125.6,132.8l2.3.3c-.5,2.2-.8,4.4-.8,6.7s.1,3,.4,4.5l-2.1.3c-.4-1.6-.5-3.3-.5-4.9,0-2.3.3-4.6.7-6.9Z"/>
      <path class="cls-3" d="M114.4,143v-10.7h6.9v6.7h-.3l.9,1.6c-.5.5-1,.8-1.6,1.2.5.6,1,1.1,1.6,1.6l-1.3,1.9c-1.9-1.5-3.1-3.9-3.5-6.2h-.8v3.6c.6,0,1.2-.2,1.8-.4v1.9c-1.4.4-3.1.7-4.7,1l-.3-2c.4,0,.8,0,1.1-.1ZM108.9,132.4h5.1v1.9c-.3,1-.6,2-1,2.9.8.9,1.1,2.1,1.1,3.2s-.1,1.4-.6,1.8c-.3.2-.7.4-1,.4h-1.1l-.3-2h.4c.5,0,.6-.2.6-.7,0-1-.3-1.8-1-2.4.4-1.1.7-2.1.9-3.2h-1v11h-2v-12.9ZM119.4,134.2h-2.9v.9h2.9v-.9ZM119.4,136.5h-2.9v.9h2.9v-.9ZM119.5,140.3c.5-.4,1-.7,1.4-1.2h-1.8c.1.4.3.8.4,1.2Z"/>
      <path class="cls-3" d="M99.3,143.9l-.9.8c-.4-.6-1-1.5-1.5-2l1.3-.9h-3.2l1.5.8c-.3.9-1.3,2.2-2.1,2.7l-1.4-1.4c.7-.5,1.4-1.4,1.8-2.2h-1.7v-1.8h.9v-5.2h-.7v-1.8h.7v-.9h2v.9h1.8v-.9h1.9v.9h.8v1.8h-.8v5.2h.9c0-.7.1-1.5.1-2.2v-5.5h5.3v11.6c0,1-.4,1.3-1.3,1.3h-1.9l-.3-2h1.2c.3,0,.4-.2.4-.5v-1.7h-1.6c-.1,1.4-.6,3.1-1.5,4.3l-1.6-1.4ZM104,134.4h-1.5v1.5h1.5v-1.5ZM97.8,134.8h-1.8v.7h1.8v-.7ZM97.8,137h-1.8v.7h1.8v-.7ZM104,137.7h-1.5v1.5s1.5,0,1.5,0v-1.5ZM97.8,139.2h-1.8v.8h1.8v-.8ZM99.6,143.2c.3-.5.5-.9.6-1.4h-1.8c.4.4.9,1,1.2,1.4Z"/>
      <path class="cls-3" d="M84.3,142.5c1.6.5,3.3.7,5,.7s1.2,0,1.8,0l-.7,2.2c-2.6,0-5.2-.3-7.6-1.4-1.3.8-2.8,1.2-4.2,1.4l-.9-2.1c1.1,0,1.8-.2,2.9-.5-.5-.3-.8-.7-1.2-1.1l1.3-.8h-1.9v-6h4.6v-.6h-5.6v-1.8h13.2v1.8h-5.6v.6h4.6v6h-4.9c-.2.6-.5,1.2-.8,1.7ZM85.4,136.4v.7h2.6v-.7h-2.6ZM83.4,137.1v-.7h-2.6v.7h2.6ZM85.4,138.5v.2c0,.2,0,.4,0,.5h2.6v-.8h-2.6ZM83.3,139.2c0-.2,0-.4,0-.5v-.2h-2.6v.8h2.6ZM82.3,141.7c.2-.3.4-.5.6-.9h-1.8c.4.4.7.6,1.2.9Z"/>
      <path class="cls-3" d="M65.8,139.2l-1.2-1.3c1.2-.7,1.9-1.6,2.1-3h-4.3v-1.9h5.6v-.9h2.2v.9h5.5v1.9h-1.9c.5.9,1.4,1.9,2.1,2.6l-1.4,1.4c-1-.9-1.7-2-2.4-3.2l1.6-.9h-1.8v2.8c0,.7-.6,1-1.2,1h-1.3c-.1.2-.3.4-.4.5h4.7v1.7c-.8.8-1.2,1.3-2.2,1.9,1.4.3,2.8.4,4.3.5l-.8,2.1c-2-.2-4.1-.6-6-1.3-1.9.7-3.7,1.1-5.8,1.3l-.6-1.8c1.4-.1,2.7-.3,4.1-.7-.4-.3-.8-.6-1.1-1.1-.7.4-1.3.6-2,.9l-1-1.8c1.3-.5,2.2-.8,3.4-1.7ZM67.3,138.1l1.7.4-.3-1.9h.8c.4,0,.4,0,.4-.3v-1.5h-1.2c-.2,1.2-.5,2.3-1.4,3.3ZM63.6,138.8l-1.4-1.4c.8-.8,1.3-1.5,1.8-2.5l1.8.7c-.6,1.3-1.2,2.1-2.1,3.2ZM69,142c.8-.4,1.3-.7,2-1.2h-3.9c.6.4,1.2.8,1.9,1.2Z"/>
      <rect class="cls-1" y="0" width="333" height="305"/>
      <path class="cls-4" d="M49.5,148.5h21v5.3h-2.8v-2.8h-15.5v2.8h-2.7v-5.3ZM53,152.9h12.6v2.6h-12.6v-2.6ZM67.7,141.5l1.9,2.3c-5.4,1.1-12.9,1.6-19.3,1.8,0-.7-.4-1.8-.6-2.4,6.4-.2,13.6-.8,18-1.7ZM51.8,146l2.5-.7c.6.9,1.2,2,1.4,2.8l-2.6.8c-.2-.8-.7-2-1.2-2.9ZM58.2,145.5l2.5-.6c.5,1,1,2.3,1.1,3.1l-2.7.6c0-.8-.5-2.2-1-3.2ZM65.8,144.9l3,.7c-.8,1.5-1.8,3-2.5,4.1l-2.4-.7c.6-1.2,1.4-2.9,1.8-4.1ZM64.6,152.9h1.1c0,0,1.9,1.1,1.9,1.1-2.9,6.3-9.4,9-17,10-.3-.7-1.1-2-1.7-2.6,7.4-.7,13.5-2.9,15.6-8v-.5ZM55.8,154.8c2.7,3.6,8.2,5.7,15.2,6.4-.6.6-1.4,1.9-1.8,2.7-7.2-.9-12.6-3.5-15.9-8.1l2.5-1Z"/>
      <path class="cls-4" d="M83,143.8l1.9-2.2c1.9.9,4.5,2.4,5.7,3.6l-2.1,2.5c-1.1-1.2-3.6-2.8-5.5-3.9ZM81.4,153.5h12.5v2.8h-12.5v-2.8ZM79.7,160.7h15.6v2.7h-15.6v-2.7ZM80.6,146.9h14.2v2.7h-14.2v-2.7ZM86,147.8h3v14.1h-3v-14.1ZM74.3,143.9l1.6-2.1c1.5.6,3.6,1.6,4.6,2.4l-1.7,2.4c-.9-.9-2.9-2-4.5-2.7ZM72.6,150.4l1.5-2.2c1.6.5,3.6,1.5,4.7,2.3l-1.6,2.4c-1-.8-3-1.9-4.6-2.5ZM73.7,161.9c1.3-1.8,3.1-4.8,4.6-7.6l2.1,1.9c-1.3,2.5-2.8,5.3-4.2,7.6l-2.4-1.9Z"/>
      <path class="cls-4" d="M110.7,142.7h6.2v2.6h-6.2v-2.6ZM110.7,148.1h6.2v2.5h-6.2v-2.5ZM110.7,153.6h6.2v2.6h-6.2v-2.6ZM115.7,142.7h2.8v18.3c0,1.4-.3,2.2-1.1,2.6-.8.5-2.1.5-3.9.5,0-.8-.5-2-.8-2.7,1,0,2.2,0,2.5,0,.4,0,.5-.1.5-.5v-18.2ZM109.6,142.7h2.7v8.8c0,3.8-.3,9.3-2.4,12.7-.5-.5-1.7-1.3-2.3-1.6,1.8-3.1,1.9-7.6,1.9-11.1v-8.8ZM97,144.5h11.8v2.5h-11.8v-2.5ZM100.1,148.4h5.7v2.2h-5.7v-2.2ZM100.1,152.1h5.7v2.2h-5.7v-2.2ZM96.7,155.9h11.9v2.5h-11.9v-2.5ZM98.9,141.9h2.6v14.9h-2.6v-14.9ZM104.5,141.9h2.6v14.9h-2.6v-14.9ZM99.7,158.6l2.7.8c-.9,1.8-2.3,3.6-3.6,4.8-.6-.5-1.7-1.3-2.3-1.7,1.3-1,2.5-2.5,3.2-3.9ZM103.2,159.7l2.2-1.2c1,1.1,2.2,2.5,2.7,3.5l-2.3,1.4c-.5-1-1.6-2.5-2.6-3.7Z"/>
      <path class="cls-4" d="M128.7,156.3h6.6v2.1h-6.6v-2.1ZM128.5,152.7h8.1v9.2h-8.1v-2.1h5.4v-5h-5.4v-2.1ZM127.3,152.7h2.6v10.4h-2.6v-10.4ZM123.3,145.9h6v1.9h-6v-1.9ZM134.4,145.9h6.1v1.9h-6.1v-1.9ZM139.3,142.5h2.9v18.2c0,1.6-.3,2.4-1.3,2.9-1,.5-2.4.5-4.4.5-.1-.8-.6-2.2-.9-2.9,1.2,0,2.7,0,3.1,0s.6-.1.6-.6v-18.2ZM123.6,142.5h7.6v8.7h-7.6v-2.1h4.9v-4.6h-4.9v-2.1ZM140.9,142.5v2.1h-5.4v4.6h5.4v2.1h-8.1v-8.8h8.1ZM121.9,142.5h2.9v21.6h-2.9v-21.6Z"/>
      <path class="cls-4" d="M157.4,156.3l1.6-1.8c1.8.6,3.8,1.8,5,2.6l-1.7,2c-1.1-.9-3.2-2.1-4.9-2.8ZM154.8,160.5l1.7-2c3.1.8,6.8,2.4,9.1,3.6l-1.7,2.3c-2.1-1.3-5.9-2.9-9.1-3.8ZM157.8,141.6l2.8.5c-1.3,3-3.2,5.9-6.1,8.3-.4-.6-1.3-1.5-1.9-1.9,2.6-2,4.3-4.7,5.2-6.9ZM158.2,143.9h6v2.5h-7.2l1.2-2.5ZM163.4,143.9h1c0,0,1.8.9,1.8.9-2.1,5.4-6.6,9.2-11.2,11.1-.3-.7-1.2-1.8-1.8-2.3,4.5-1.6,8.6-4.9,10.2-9.2v-.5ZM157.9,145.8c1.8,3.5,5.5,6.5,9.7,7.9-.6.6-1.4,1.6-1.8,2.4-4.4-1.8-8-5.2-10.2-9.4l2.3-.8ZM148.3,141.6l2.5.9c-1,1.8-2.1,4-3,5.3l-1.9-.8c.9-1.4,1.9-3.7,2.4-5.4ZM151.1,144.5l2.3,1.1c-1.7,2.8-4.1,6.1-5.9,8.2l-1.7-.9c1.8-2.2,4-5.7,5.2-8.3ZM144.6,147.3l1.4-2c1.3,1.1,2.8,2.6,3.4,3.7l-1.5,2.2c-.6-1.2-2-2.8-3.3-4ZM150.4,150.2l1.9-.8c.9,1.6,1.8,3.7,2.1,5.1l-2,.9c-.2-1.4-1.1-3.6-2-5.2ZM144.6,152.2c2.2,0,5.4-.2,8.6-.3v2.3c-3,.2-6,.4-8.4.6l-.2-2.5ZM150.9,156.2l2-.6c.6,1.4,1.2,3.2,1.5,4.4l-2.1.7c-.2-1.2-.9-3-1.4-4.5ZM145.6,155.7l2.4.4c-.2,2.3-.8,4.7-1.5,6.2-.5-.3-1.6-.8-2.2-1.1.7-1.4,1.1-3.6,1.3-5.6ZM148.3,153.5h2.5v10.7h-2.5v-10.7Z"/>
      <path class="cls-4" d="M178.6,149.8h3v11c0,1.6-.4,2.4-1.6,2.9-1.2.4-2.9.5-5.2.5-.2-.8-.7-2.1-1.2-2.9,1.7,0,3.7,0,4.2,0s.7-.1.7-.6v-10.9ZM170.4,143.3h16.8v2.8h-16.8v-2.8ZM186.1,143.3h.8l.7-.2,2.3,1.7c-2.2,2.6-5.3,5.7-8.3,7.5-.5-.6-1.4-1.6-2-2,2.5-1.6,5.3-4.5,6.5-6.3v-.7Z"/>
      <path class="cls-4" d="M200.9,143c-.1,1-.3,2.3-.3,3.2-.1,2.6-.3,7.9-.3,10.9s1.4,3.2,3.3,3.2c4,0,6.5-2.3,8.2-4.9l2.2,2.7c-1.6,2.3-5,5.5-10.4,5.5s-6.5-1.7-6.5-5.8.2-9.5.2-11.6,0-2.3-.3-3.2h3.9Z"/>
      <path class="cls-4" d="M230.3,142.6c0,.5-.1,1.1-.2,1.7,0,1.2,0,4.6,0,6.6s.4,7,.4,8.9-1.6,3.6-4.7,3.6-5.9-1.5-5.9-4,2.2-4.1,5.9-4.1c5.3,0,9.2,2.6,11.2,4.3l-1.7,2.7c-2.3-2.2-5.8-4.5-9.9-4.5s-2.6.6-2.6,1.5.8,1.5,2.5,1.5,2.1-.4,2.1-1.8-.3-5.7-.3-8.1,0-5.4,0-6.7,0-1.2-.1-1.6h3.3ZM220.4,144.8c1.7.3,4.5.5,5.9.5,3.3,0,6.4-.2,9.9-.7v2.7c-2.5.3-6.3.6-9.9.6s-4.3-.2-5.9-.4v-2.8ZM220.2,150c1.6.3,4.5.5,5.8.5,4.4,0,7.5-.3,10.5-.7v2.8c-3.3.4-6,.5-10.5.5s-4.1-.1-5.7-.3v-2.8Z"/>
      <path class="cls-4" d="M248.9,143c-.1,1-.3,2.3-.3,3.2-.1,2.6-.3,7.9-.3,10.9s1.4,3.2,3.3,3.2c4,0,6.5-2.3,8.2-4.9l2.2,2.7c-1.6,2.3-5,5.5-10.4,5.5s-6.5-1.7-6.5-5.8.2-9.5.2-11.6,0-2.3-.3-3.2h3.9Z"/>
      <path class="cls-4" d="M275.4,142.8c-.2.7-.4,1.8-.5,2.3-.3,1.6-.9,4.6-1.6,7-.9,3.4-2.5,8.3-3.8,11.1l-3.3-1.1c1.4-2.4,3.2-7.4,4.2-10.8.6-2.3,1.2-4.9,1.3-6.3.1-.9.1-1.9,0-2.4l3.7.3ZM269.2,146.4c2.9,0,6.3-.5,9.4-1.2v3c-3,.7-6.7,1.1-9.5,1.1s-2.1,0-2.9,0v-3c1.2.1,1.9.2,2.9.2ZM276.8,150.1c1.3-.1,3.1-.2,4.6-.2s2.8,0,4.2.2v2.9c-1.3-.1-2.7-.3-4.2-.3s-3.1,0-4.7.3v-2.8ZM278.1,156.1c-.2.7-.3,1.5-.3,2,0,1.1.7,1.8,3.3,1.8s3.3-.2,5-.5v3c-1.5.2-3.1.3-5,.3-4.1,0-6.2-1.4-6.2-3.8s.2-2.3.4-3.2l2.9.3Z"/>
    </g>
  </g>
</svg>