<svg width="333" height="298" viewBox="0 0 333 298" fill="none" xmlns="http://www.w3.org/2000/svg">
<path d="M0 0H333V298H0V0Z" fill="#F5EEE6"/>
<path d="M267.444 61.0085C269.252 62.1125 271.14 62.7685 273.22 63.1525L271.78 65.5525C269.54 64.9765 267.38 64.0805 265.508 62.6885C263.524 64.0965 261.572 64.9285 259.22 65.5525L257.892 63.1685C259.908 62.7205 261.844 62.0645 263.62 61.0085C261.892 59.0885 260.868 57.1045 260.164 54.6405H257.956V52.2565H264.276V50.3525H266.804V52.2565H273.108V54.6405H270.884C270.196 57.0885 269.172 59.1365 267.444 61.0085ZM265.54 59.5205C266.964 58.0325 267.684 56.6085 268.276 54.6405H262.756C263.348 56.5925 264.1 58.0485 265.54 59.5205Z" fill="#6F6356"/>
<path d="M249.428 53.1037C248.644 52.4797 247.828 51.9517 246.932 51.5037L249.172 50.0957C250.276 50.6717 251.332 51.3437 252.308 52.1117L250.676 53.1037H255.236V55.3597H251.204V57.8237H254.708V60.0797H251.204V62.8797H255.556V65.1197H244.132V62.8797H248.708V60.0797H245.252V57.8237H248.708V55.3597H244.724V53.1037H249.428ZM241.988 50.2877C243.028 50.7357 243.908 51.2477 244.82 51.9037L243.396 53.8877C242.452 53.1197 241.764 52.7037 240.692 52.1437L241.988 50.2877ZM241.524 54.3357C242.5 54.7837 243.412 55.3597 244.26 56.0477L242.9 58.0317C242.004 57.2957 241.252 56.7997 240.228 56.2557L241.524 54.3357ZM244.804 60.0157C243.956 62.0157 243.012 63.8397 241.684 65.5837L240.18 63.3117C241.348 61.8717 242.244 60.2237 242.996 58.5277L244.804 60.0157Z" fill="#6F6356"/>
<path d="M225.412 52.2238C226.66 52.1118 227.924 52.0318 229.172 52.0318C230.932 52.0318 232.676 52.1918 234.42 52.4958L234.212 55.1358C232.532 54.8158 231.028 54.6558 229.3 54.6558C227.956 54.6558 226.628 54.7358 225.3 54.8958L225.412 52.2238ZM226.5 57.3438L228.324 58.7838C227.812 59.1198 226.644 59.8878 226.644 60.5598C226.644 61.1198 227.348 61.3438 227.796 61.4398C228.788 61.6478 229.7 61.7118 230.708 61.7118C232.644 61.7118 234.404 61.4878 236.276 61.0398L236.436 63.8078C234.66 64.1598 232.852 64.3038 231.044 64.3038C229.268 64.3038 227.428 64.2078 225.812 63.4718C224.756 63.0078 223.988 62.0318 223.988 60.8478C223.988 59.2798 225.332 58.1598 226.5 57.3438ZM235.748 50.4638L236.868 49.8398C237.556 50.8318 237.988 51.7758 238.436 52.8958L237.236 53.5518C236.82 52.3678 236.436 51.5198 235.748 50.4638ZM233.604 50.9918L234.724 50.3838C235.412 51.3598 235.844 52.3198 236.292 53.4398L235.092 54.0958C234.66 52.8638 234.292 52.1118 233.604 50.9918Z" fill="#6F6356"/>
<path d="M207.188 51.3926L209.796 51.6806C209.236 54.1126 208.884 56.5286 208.884 59.0406C208.884 60.8326 209.06 62.5446 209.46 64.3046L206.916 64.5926C206.516 62.8006 206.388 60.9606 206.388 59.1366C206.388 56.4326 206.692 54.0486 207.188 51.3926ZM218.724 55.0566C217.78 54.9766 216.836 54.9286 215.876 54.9286C214.34 54.9286 212.82 55.0566 211.3 55.2646L211.348 52.7046C212.868 52.5446 214.388 52.4326 215.908 52.4326C216.868 52.4326 217.828 52.4806 218.788 52.5606L218.724 55.0566ZM213.444 59.0886C213.204 59.4406 212.98 59.9366 212.98 60.3846C212.98 60.7846 213.236 61.0246 213.604 61.1366C214.148 61.3126 215.076 61.3286 215.668 61.3286C216.932 61.3286 218.196 61.1686 219.444 60.9446L219.38 63.5526C218.164 63.7286 216.932 63.8406 215.7 63.8406C213.588 63.8406 210.66 63.6326 210.66 60.8326C210.66 60.0326 210.916 59.3606 211.3 58.6566L213.444 59.0886Z" fill="#6F6356"/>
<path d="M188.148 52.5597C189.124 52.5437 190.1 52.5277 191.076 52.4637L201.764 51.6797L201.972 54.2397C200.34 54.2717 198.996 54.4477 197.54 55.2637C196.084 56.0797 194.788 57.3917 194.788 59.1517C194.788 61.5677 197.652 62.2397 199.556 62.3837L198.356 64.9117C195.204 64.5437 192.116 62.9277 192.116 59.3437C192.116 57.8397 192.708 56.3517 193.812 55.3117C194.18 54.9597 194.612 54.6557 195.028 54.3677L188.34 55.2317L188.148 52.5597ZM197.524 56.8157L198.868 56.0477C199.62 56.9437 200.18 57.9837 200.692 59.0237L199.284 59.8557C198.772 58.6717 198.308 57.8557 197.524 56.8157ZM199.7 55.5997L201.06 54.8797C201.828 55.7757 202.404 56.7677 202.932 57.8237L201.524 58.6077C200.948 57.3917 200.532 56.6557 199.7 55.5997Z" fill="#6F6356"/>
<path d="M176.452 52.6557L176.436 50.8477H178.948L178.964 52.6237C180.612 52.6077 182.244 52.5757 183.892 52.4957L183.876 54.8477C182.244 54.8797 180.612 54.9117 178.98 54.9277L178.996 55.8877C180.404 55.8397 181.812 55.7917 183.236 55.7117V58.0317C181.828 58.0797 180.42 58.1277 179.012 58.1597V59.6157C180.724 60.0637 182.164 60.7677 183.684 61.6797L182.5 64.0957C181.348 63.2637 180.292 62.6717 178.98 62.1437C178.916 64.2077 177.252 64.8637 175.428 64.8637C173.668 64.8637 171.604 64.1277 171.604 62.0317C171.604 60.9277 172.292 60.0317 173.3 59.6157C174.084 59.2957 174.948 59.1997 175.78 59.1997C176.02 59.1997 176.26 59.1997 176.5 59.2157L176.484 58.1917C174.932 58.2077 173.38 58.2237 171.812 58.2077L171.828 55.8717C172.772 55.9037 173.716 55.9357 174.676 55.9357C175.268 55.9357 175.876 55.9197 176.468 55.9197V54.9597C175.588 54.9597 174.708 54.9757 173.844 54.9757C172.98 54.9757 172.132 54.9597 171.268 54.9597L171.284 52.5917C173.012 52.6397 174.724 52.6557 176.452 52.6557ZM176.484 61.5677V61.4077C176.164 61.3597 175.844 61.3437 175.524 61.3437C175.06 61.3437 173.908 61.3917 173.908 62.0637C173.908 62.6077 174.788 62.7037 175.188 62.7037C176.436 62.7037 176.484 62.1277 176.484 61.5677Z" fill="#6F6356"/>
<path d="M162.266 50.1602C164.986 52.0482 166.682 55.0562 166.682 58.8162C166.682 62.5762 164.986 65.5842 162.266 67.4722L160.954 66.0322C163.018 64.4162 164.346 61.9362 164.346 58.8162C164.346 55.6962 163.018 53.2322 160.954 51.6002L162.266 50.1602Z" fill="#6F6356"/>
<path d="M146.202 55.5843C145.53 55.9203 144.842 56.2403 144.154 56.5283L142.986 54.1283C145.274 53.4243 147.946 52.1123 149.546 50.3203H152.042C153.962 52.0963 156.106 53.2963 158.57 54.1603L157.418 56.6243C156.73 56.3203 156.058 56.0003 155.402 55.6323V56.6243H151.994V57.7123H157.754V59.9683H151.994V62.9123H152.986C153.354 61.9683 153.658 61.0243 153.914 60.0483L156.346 60.7043C156.074 61.4563 155.77 62.1923 155.466 62.9123H158.106V65.1843H143.418V62.9123H145.994C145.738 62.0963 145.514 61.5203 145.162 60.7523L147.514 60.0803C147.946 60.9763 148.266 61.9363 148.522 62.9123H149.562V59.9683H143.802V57.7123H149.562V56.6243H146.202V55.5843ZM148.17 54.4483H153.434C152.458 53.7763 151.626 53.0723 150.778 52.2403C149.962 53.1043 149.162 53.8083 148.17 54.4483Z" fill="#6F6356"/>
<path d="M139.296 67.4718C136.576 65.5998 134.88 62.5918 134.88 58.8158C134.88 55.0558 136.576 52.0478 139.296 50.1758L140.624 51.5998C138.544 53.2318 137.216 55.6958 137.216 58.8158C137.216 61.9358 138.544 64.4158 140.624 66.0318L139.296 67.4718Z" fill="#6F6356"/>
<path d="M117.552 50.9443H130.448V65.0083H117.552V50.9443ZM120.064 56.7043H127.888V53.3283H120.064V56.7043ZM120.064 59.0403V62.6243H127.888V59.0403H120.064Z" fill="#6F6356"/>
<path d="M109.041 64.3684C106.049 64.3684 104.241 62.0484 104.241 57.6964C104.241 53.3444 106.049 51.0244 109.041 51.0244C112.033 51.0244 113.841 53.3444 113.841 57.6964C113.841 62.0484 112.033 64.3684 109.041 64.3684ZM109.041 61.8884C110.177 61.8884 110.817 60.6404 110.817 57.6964C110.817 54.7524 110.177 53.5044 109.041 53.5044C107.905 53.5044 107.265 54.7524 107.265 57.6964C107.265 60.6404 107.905 61.8884 109.041 61.8884Z" fill="#6F6356"/>
<path d="M92.2423 64.1278V61.9038L96.2583 58.2238C97.4743 57.0718 98.0503 56.3358 98.0503 55.3438C98.0503 54.2718 97.3463 53.5998 96.2743 53.5998C95.1703 53.5998 94.2263 54.2718 93.4903 55.3758L92.1943 53.0878C93.3143 51.7758 94.8023 51.0078 96.6423 51.0078C99.2503 51.0078 101.026 52.4798 101.026 54.9118C101.026 56.7518 100.114 57.9358 98.0503 59.7918L96.0663 61.5678H101.154V64.1278H92.2423Z" fill="#6F6356"/>
<path d="M87.7626 50.8799V63.9199C87.7626 64.8319 87.1706 65.4879 86.2426 65.4879H82.4986L82.0986 62.9599H84.7866C85.1066 62.9599 85.2666 62.7839 85.2666 62.4799V60.6239H78.2266C77.9706 62.4319 77.4426 64.0799 76.3866 65.5839L74.2266 63.8399C75.5386 61.9839 75.9866 59.8399 75.9866 57.5839V50.8799H87.7626ZM78.4186 53.2799V54.6719H85.2666V53.2799H78.4186ZM78.4186 56.8959V58.3839H85.2666V56.8959H78.4186Z" fill="#6F6356"/>
<path d="M62.8678 64.0318L63.1078 61.6158C63.7958 61.8718 64.3878 61.9678 65.2038 61.9678C67.0918 61.9678 68.1798 60.8638 68.5478 58.6878C67.8598 59.2478 67.0598 59.5518 66.0358 59.5518C63.5718 59.5518 61.9238 58.0158 61.9238 55.4558C61.9238 52.9118 63.7638 51.0078 66.6598 51.0078C69.3958 51.0078 71.5878 52.6238 71.5878 57.1038C71.5878 61.5198 69.2838 64.3838 65.2518 64.3838C64.3078 64.3838 63.5078 64.2398 62.8678 64.0318ZM64.9318 55.5038C64.9318 56.7838 65.6518 57.4878 66.7718 57.4878C67.5078 57.4878 68.1478 57.2158 68.6758 56.6238C68.6278 54.2718 67.9398 53.4398 66.7398 53.4398C65.6038 53.4398 64.9318 54.3198 64.9318 55.5038Z" fill="#6F6356"/>
<path d="M265.49 29.6479L267.01 27.9199C268.45 28.8799 269.666 29.8879 270.802 31.1999L269.106 32.9599C268.018 31.6479 266.898 30.6399 265.49 29.6479Z" fill="#6F6356"/>
<path d="M255.362 23.4083C254.994 23.0723 254.674 22.7203 254.354 22.3363C254.002 22.5923 253.778 22.7363 253.41 22.9603L252.658 21.9683C252.434 22.7523 252.178 23.5203 251.938 24.3043C252.658 25.2643 252.994 26.7683 252.994 27.9683C252.994 28.5123 252.882 29.1203 252.642 29.6003H253.634V26.6083H257.33V25.7923H259.65V26.6083H261.778V28.6083H259.65V29.6003H262.37V31.6963H259.65V33.5363H257.33V31.6963H252.546V29.7763C252.274 30.2083 251.73 30.4963 251.218 30.4963H250.434L250.018 28.2723H250.45C250.93 28.2723 251.058 28.0163 251.058 27.3603C251.058 26.2883 250.722 25.3443 250.034 24.5283C250.482 23.2803 250.818 22.3043 251.01 20.9603H249.874V33.5363H247.778V18.7523H252.914V20.7043C253.842 20.0323 254.626 19.3443 255.17 18.3203L257.474 18.4963C257.362 18.7363 257.234 18.9763 257.106 19.2003H261.618V21.1203C260.994 21.9843 260.37 22.6563 259.57 23.3443C260.642 23.7603 261.602 23.9843 262.754 24.1603L261.922 26.3523C260.402 25.9203 258.882 25.4563 257.442 24.7843C256.098 25.5203 254.77 25.9523 253.266 26.2723L252.466 24.1443C253.49 23.9843 254.386 23.7763 255.362 23.4083ZM257.506 22.3523C258.114 21.9683 258.45 21.6643 258.914 21.1203H255.922C256.402 21.6003 256.93 22.0003 257.506 22.3523ZM257.33 28.6083H255.746V29.6003H257.33V28.6083Z" fill="#6F6356"/>
<path d="M231.058 29.2639L230.93 18.5919L233.522 18.5439L233.65 28.3519C234.834 27.8879 235.986 27.3759 237.122 26.8159L237.538 29.1039C235.714 30.0799 232.114 31.5679 230.13 32.2559L229.682 29.6799C230.146 29.5519 230.61 29.4239 231.058 29.2639ZM242.642 28.3839C243.522 29.2479 244.514 30.2559 245.25 31.2479L243.474 33.4879C242.786 32.4159 242.034 31.4399 241.234 30.4639C239.89 31.9679 238.402 32.9119 236.498 33.5359L235.042 31.1999C237.138 30.6239 238.946 29.5679 240.114 27.6799C241.074 26.1439 241.282 24.4479 241.33 22.6719L241.426 18.5599L244.05 18.6239L243.922 23.0559C243.858 25.0079 243.538 26.6399 242.642 28.3839ZM236.466 18.9439C237.778 20.1439 238.994 21.4879 240.018 22.9599L237.938 24.6559C236.658 22.6879 236.082 22.1599 234.562 20.4799L236.466 18.9439Z" fill="#6F6356"/>
<path d="M222.104 18.1602C224.824 20.0482 226.52 23.0562 226.52 26.8162C226.52 30.5762 224.824 33.5842 222.104 35.4722L220.792 34.0322C222.856 32.4162 224.184 29.9362 224.184 26.8162C224.184 23.6962 222.856 21.2322 220.792 19.6002L222.104 18.1602Z" fill="#6F6356"/>
<path d="M209.351 18.3525H211.879V22.2405H217.303V24.7365H211.879V30.5605H218.167V33.0405H203.063V30.5605H209.351V24.7365H203.991V22.2405H209.351V18.3525Z" fill="#6F6356"/>
<path d="M199.134 35.4718C196.414 33.5998 194.718 30.5918 194.718 26.8158C194.718 23.0558 196.414 20.0478 199.134 18.1758L200.462 19.5998C198.382 21.2318 197.054 23.6958 197.054 26.8158C197.054 29.9358 198.382 32.4158 200.462 34.0318L199.134 35.4718Z" fill="#6F6356"/>
<path d="M177.39 18.9443H190.286V33.0083H177.39V18.9443ZM179.902 24.7043H187.726V21.3283H179.902V24.7043ZM179.902 27.0403V30.6243H187.726V27.0403H179.902Z" fill="#6F6356"/>
<path d="M173.871 19.2637V21.5677C171.199 24.4797 169.823 28.1277 169.327 32.1277H166.175C166.655 28.4157 167.935 24.8157 170.479 21.8237H164.303V19.2637H173.871Z" fill="#6F6356"/>
<path d="M156.176 32.1277V22.7197C155.472 23.3277 154.704 23.8397 153.824 24.3037L152.576 22.1757C154.096 21.3597 155.504 20.3997 156.624 19.2637H158.992V32.1277H156.176Z" fill="#6F6356"/>
<path d="M147.6 18.8799V31.9199C147.6 32.8319 147.008 33.4879 146.08 33.4879H142.336L141.936 30.9599H144.624C144.944 30.9599 145.104 30.7839 145.104 30.4799V28.6239H138.064C137.808 30.4319 137.28 32.0799 136.224 33.5839L134.064 31.8399C135.376 29.9839 135.824 27.8399 135.824 25.5839V18.8799H147.6ZM138.256 21.2799V22.6719H145.104V21.2799H138.256ZM138.256 24.8959V26.3839H145.104V24.8959H138.256Z" fill="#6F6356"/>
<path d="M126.545 32.448C123.633 32.448 121.841 31.104 121.841 28.976C121.841 27.504 122.769 26.4 124.209 25.776C123.041 25.136 122.113 24.192 122.113 22.496C122.113 20.176 124.161 18.96 126.689 18.96C129.617 18.96 131.121 20.464 131.121 22.336C131.121 23.552 130.385 24.688 128.961 25.296C130.289 25.936 131.441 26.896 131.441 28.688C131.441 31.136 129.473 32.448 126.545 32.448ZM125.057 22.576C125.057 23.472 125.873 24.016 126.945 24.48C127.857 23.984 128.177 23.232 128.177 22.64C128.177 21.712 127.553 21.232 126.625 21.232C125.649 21.232 125.057 21.776 125.057 22.576ZM124.785 28.608C124.785 29.568 125.505 30.144 126.641 30.144C127.873 30.144 128.497 29.44 128.497 28.656C128.497 27.648 127.425 27.136 126.161 26.64C125.185 27.152 124.785 27.888 124.785 28.608Z" fill="#6F6356"/>
<path d="M109.265 19.6158H118.689V21.9198H113.889V23.4558H118.177V25.6958H113.889V27.8238H119.249V30.1278H113.889V33.5038H111.425V30.1278H104.113V27.8238H106.273V24.2558C106.017 24.5118 105.729 24.7678 105.441 25.0078L103.873 22.8958C105.393 21.7118 106.609 20.0318 107.137 18.1758L109.633 18.5118C109.521 18.8958 109.409 19.2318 109.265 19.6158ZM108.097 21.9198C107.761 22.4638 107.393 22.9598 106.993 23.4558H111.425V21.9198H108.097ZM111.425 25.6958H108.657V27.8238H111.425V25.6958Z" fill="#6F6356"/>
<path d="M97.4745 32.1282V29.5202H91.7305V27.1202L97.2825 19.2002H100.162V27.1202H101.746V29.5202H100.162V32.1282H97.4745ZM94.3385 27.1202H97.4745V22.5602L94.3385 27.1202Z" fill="#6F6356"/>
<path d="M79.9237 32.1278V29.9038L83.9397 26.2238C85.1557 25.0718 85.7317 24.3358 85.7317 23.3438C85.7317 22.2718 85.0277 21.5998 83.9557 21.5998C82.8517 21.5998 81.9077 22.2718 81.1717 23.3758L79.8757 21.0878C80.9957 19.7758 82.4837 19.0078 84.3237 19.0078C86.9317 19.0078 88.7077 20.4798 88.7077 22.9118C88.7077 24.7518 87.7957 25.9358 85.7317 27.7918L83.7477 29.5678H88.8357V32.1278H79.9237Z" fill="#6F6356"/>
<path d="M72.0852 32.3684C69.0932 32.3684 67.2852 30.0484 67.2852 25.6964C67.2852 21.3444 69.0932 19.0244 72.0852 19.0244C75.0772 19.0244 76.8852 21.3444 76.8852 25.6964C76.8852 30.0484 75.0772 32.3684 72.0852 32.3684ZM72.0852 29.8884C73.2212 29.8884 73.8612 28.6404 73.8612 25.6964C73.8612 22.7524 73.2212 21.5044 72.0852 21.5044C70.9492 21.5044 70.3092 22.7524 70.3092 25.6964C70.3092 28.6404 70.9492 29.8884 72.0852 29.8884Z" fill="#6F6356"/>
<path d="M55.2863 32.1278V29.9038L59.3023 26.2238C60.5183 25.0718 61.0943 24.3358 61.0943 23.3438C61.0943 22.2718 60.3903 21.5998 59.3183 21.5998C58.2143 21.5998 57.2703 22.2718 56.5343 23.3758L55.2383 21.0878C56.3583 19.7758 57.8463 19.0078 59.6863 19.0078C62.2943 19.0078 64.0703 20.4798 64.0703 22.9118C64.0703 24.7518 63.1583 25.9358 61.0943 27.7918L59.1103 29.5678H64.1983V32.1278H55.2863Z" fill="#6F6356"/>
<path d="M255.51 110.618H232.116V125.906H225.648V87.2656H262.02V121.034C262.02 124.226 260.718 125.906 257.442 125.906H249.588L248.454 119.396H254.25C255.258 119.396 255.51 119.018 255.51 118.094V110.618ZM246.942 93.4396V104.57H255.51V93.4396H246.942ZM232.116 93.4396V104.57H240.684V93.4396H232.116Z" fill="#6F6356"/>
<path d="M208.767 122.965C200.913 122.965 196.167 116.876 196.167 105.452C196.167 94.0275 200.913 87.9375 208.767 87.9375C216.621 87.9375 221.367 94.0275 221.367 105.452C221.367 116.876 216.621 122.965 208.767 122.965ZM208.767 116.456C211.749 116.456 213.429 113.18 213.429 105.452C213.429 97.7235 211.749 94.4475 208.767 94.4475C205.785 94.4475 204.105 97.7235 204.105 105.452C204.105 113.18 205.785 116.456 208.767 116.456Z" fill="#6F6356"/>
<path d="M180.631 122.965C172.777 122.965 168.031 116.876 168.031 105.452C168.031 94.0275 172.777 87.9375 180.631 87.9375C188.485 87.9375 193.231 94.0275 193.231 105.452C193.231 116.876 188.485 122.965 180.631 122.965ZM180.631 116.456C183.613 116.456 185.293 113.18 185.293 105.452C185.293 97.7235 183.613 94.4475 180.631 94.4475C177.649 94.4475 175.969 97.7235 175.969 105.452C175.969 113.18 177.649 116.456 180.631 116.456Z" fill="#6F6356"/>
<path d="M152.242 123.176C144.598 123.176 139.894 119.648 139.894 114.062C139.894 110.198 142.33 107.3 146.11 105.662C143.044 103.982 140.608 101.504 140.608 97.0515C140.608 90.9615 145.984 87.7695 152.62 87.7695C160.306 87.7695 164.254 91.7175 164.254 96.6315C164.254 99.8235 162.322 102.806 158.584 104.402C162.07 106.082 165.094 108.602 165.094 113.306C165.094 119.732 159.928 123.176 152.242 123.176ZM148.336 97.2615C148.336 99.6135 150.478 101.042 153.292 102.26C155.686 100.958 156.526 98.9835 156.526 97.4295C156.526 94.9935 154.888 93.7335 152.452 93.7335C149.89 93.7335 148.336 95.1615 148.336 97.2615ZM147.622 113.096C147.622 115.616 149.512 117.128 152.494 117.128C155.728 117.128 157.366 115.28 157.366 113.222C157.366 110.576 154.552 109.232 151.234 107.93C148.672 109.274 147.622 111.206 147.622 113.096Z" fill="#6F6356"/>
<path d="M130.447 129.728L124.483 128.846C126.877 124.94 127.927 120.908 127.927 116.414C127.927 115.112 127.801 114.02 127.759 113.516H135.067C135.109 114.062 135.277 115.238 135.277 116.666C135.277 121.538 133.639 126.074 130.447 129.728Z" fill="#6F6356"/>
<path d="M99.8747 122.084L100.505 115.742C102.311 116.414 103.865 116.666 106.007 116.666C110.963 116.666 113.819 113.768 114.785 108.056C112.979 109.526 110.879 110.324 108.191 110.324C101.723 110.324 97.3967 106.292 97.3967 99.5715C97.3967 92.8935 102.227 87.8955 109.829 87.8955C117.011 87.8955 122.765 92.1375 122.765 103.898C122.765 115.49 116.717 123.008 106.133 123.008C103.655 123.008 101.555 122.63 99.8747 122.084ZM105.293 99.6975C105.293 103.058 107.183 104.906 110.123 104.906C112.055 104.906 113.735 104.192 115.121 102.638C114.995 96.4635 113.189 94.2795 110.039 94.2795C107.057 94.2795 105.293 96.5895 105.293 99.6975Z" fill="#6F6356"/>
<path d="M91.562 95.1615C89.924 94.4895 88.454 94.1955 86.228 94.1955C80.684 94.1955 77.996 97.5135 77.324 103.436C79.298 101.546 81.692 100.538 84.59 100.538C90.848 100.538 94.922 104.738 94.922 111.164C94.922 117.884 90.302 123.008 82.658 123.008C74.468 123.008 69.554 117.38 69.554 106.418C69.554 94.7415 75.518 87.8955 86.186 87.8955C88.706 87.8955 90.764 88.2735 92.444 88.7775L91.562 95.1615ZM82.574 105.956C80.264 105.956 78.458 107.048 77.198 108.686C77.576 114.188 79.34 116.624 82.406 116.624C85.43 116.624 86.984 114.272 86.984 111.038C86.984 107.846 85.43 105.956 82.574 105.956Z" fill="#6F6356"/>
<path d="M300.865 162.674H308.389V160.755H311.315V162.674H318.877V165.41H311.315V167.595H317.908V170.312H312.759C314.393 172.516 316.692 173.884 319.143 175.005L317.49 177.836C315.419 176.734 312.569 174.416 311.315 172.421V178.824H308.389V172.421C307.211 174.34 304.171 176.791 302.195 177.874L300.618 174.91C303.259 173.808 305.14 172.497 307.002 170.312H301.834V167.595H308.389V165.41H300.865V162.674Z" fill="#6F6356"/>
<path d="M297.996 161.42V176.905C297.996 177.988 297.293 178.767 296.191 178.767H291.745L291.27 175.765H294.462C294.842 175.765 295.032 175.556 295.032 175.195V172.991H286.672C286.368 175.138 285.741 177.095 284.487 178.881L281.922 176.81C283.48 174.606 284.012 172.06 284.012 169.381V161.42H297.996ZM286.9 164.27V165.923H295.032V164.27H286.9ZM286.9 168.564V170.331H295.032V168.564H286.9Z" fill="#6F6356"/>
<path d="M269.498 176.126L270.068 173.029C271.265 173.903 272.69 174.454 274.134 174.454C275.844 174.454 276.813 173.884 276.813 172.611C276.813 171.433 276.034 170.673 273.355 170.673H271.702V168.127H273.222C275.312 168.127 276.471 167.424 276.471 166.113C276.471 165.087 275.73 164.555 274.343 164.555C273.127 164.555 271.93 165.03 270.866 166.018L269.612 163.301C271.113 162.123 272.861 161.591 274.761 161.591C277.953 161.591 280.005 162.826 280.005 165.486C280.005 167.272 278.96 168.678 277.003 169.248C279.131 169.685 280.366 170.901 280.366 172.915C280.366 175.765 278.067 177.456 274.457 177.456C272.538 177.456 270.714 176.943 269.498 176.126Z" fill="#6F6356"/>
<path d="M254.355 172.725L251.429 172.383C251.543 168.564 253.595 166.816 255.875 166.816C257.471 166.816 258.763 167.576 260.169 168.583C261.119 169.248 261.689 169.514 262.24 169.514C263.209 169.514 263.817 168.469 263.931 166.835L266.857 167.177C266.743 170.996 264.691 172.744 262.43 172.744C260.815 172.744 259.523 171.984 258.117 170.977C257.167 170.312 256.616 170.046 256.046 170.046C255.077 170.046 254.469 171.11 254.355 172.725Z" fill="#6F6356"/>
<path d="M240.807 176.126H233.872V168.203C233.416 168.678 232.96 169.096 232.466 169.514L230.794 166.702C232.58 165.239 234.385 162.959 234.955 160.698L238.375 160.85C238.204 161.325 238.052 161.8 237.862 162.256H248.73C248.692 165.79 248.711 169.324 248.521 172.839C248.445 173.998 248.35 175.442 248.027 176.544C247.533 178.235 246.203 178.824 244.55 178.824H241.472L240.807 176.126ZM243.809 175.898C244.702 175.86 245.101 175.765 245.329 174.834C245.766 173.048 245.766 167.291 245.766 165.182H236.285C236.019 165.6 235.734 165.999 235.43 166.379H243.809V175.898ZM241.016 168.887H236.684V170.141H241.016V168.887ZM241.016 172.307H236.684V173.58H241.016V172.307Z" fill="#6F6356"/>
<path d="M212.84 163.681H219.642V160.755H222.568V163.681H229.465V173.77H222.568V178.767H219.642V173.77H212.84V163.681ZM219.642 166.455H215.747V170.996H219.642V166.455ZM226.558 166.455H222.568V170.996H226.558V166.455Z" fill="#6F6356"/>
<path d="M209.268 161.42V176.905C209.268 177.988 208.565 178.767 207.463 178.767H203.017L202.542 175.765H205.734C206.114 175.765 206.304 175.556 206.304 175.195V172.991H197.944C197.64 175.138 197.013 177.095 195.759 178.881L193.194 176.81C194.752 174.606 195.284 172.06 195.284 169.381V161.42H209.268ZM198.172 164.27V165.923H206.304V164.27H198.172ZM198.172 168.564V170.331H206.304V168.564H198.172Z" fill="#6F6356"/>
<path d="M180.769 176.126L181.339 173.029C182.536 173.903 183.961 174.454 185.405 174.454C187.115 174.454 188.084 173.884 188.084 172.611C188.084 171.433 187.305 170.673 184.626 170.673H182.973V168.127H184.493C186.583 168.127 187.742 167.424 187.742 166.113C187.742 165.087 187.001 164.555 185.614 164.555C184.398 164.555 183.201 165.03 182.137 166.018L180.883 163.301C182.384 162.123 184.132 161.591 186.032 161.591C189.224 161.591 191.276 162.826 191.276 165.486C191.276 167.272 190.231 168.678 188.274 169.248C190.402 169.685 191.637 170.901 191.637 172.915C191.637 175.765 189.338 177.456 185.728 177.456C183.809 177.456 181.985 176.943 180.769 176.126Z" fill="#6F6356"/>
<path d="M167.545 162.294H178.736V165.03H173.036V166.854H178.128V169.514H173.036V172.041H179.401V174.777H173.036V178.786H170.11V174.777H161.427V172.041H163.992V167.804C163.688 168.108 163.346 168.412 163.004 168.697L161.142 166.189C162.947 164.783 164.391 162.788 165.018 160.584L167.982 160.983C167.849 161.439 167.716 161.838 167.545 162.294ZM166.158 165.03C165.759 165.676 165.322 166.265 164.847 166.854H170.11V165.03H166.158ZM170.11 169.514H166.823V172.041H170.11V169.514Z" fill="#6F6356"/>
<path d="M149.135 176.126L149.686 173.029C150.826 173.903 152.137 174.454 153.733 174.454C155.405 174.454 156.412 173.751 156.412 172.44C156.412 171.015 155.443 170.312 152.897 170.312C151.928 170.312 150.75 170.483 150.028 170.654V161.876H159.11V164.916H153.011V167.88C153.543 167.842 154.113 167.804 154.645 167.804C157.913 167.804 159.946 169.4 159.946 172.478C159.946 175.518 157.647 177.456 154.056 177.456C152.08 177.456 150.389 176.924 149.135 176.126Z" fill="#6F6356"/>
<path d="M136.502 177.152V174.511L141.271 170.141C142.715 168.773 143.399 167.899 143.399 166.721C143.399 165.448 142.563 164.65 141.29 164.65C139.979 164.65 138.858 165.448 137.984 166.759L136.445 164.042C137.775 162.484 139.542 161.572 141.727 161.572C144.824 161.572 146.933 163.32 146.933 166.208C146.933 168.393 145.85 169.799 143.399 172.003L141.043 174.112H147.085V177.152H136.502Z" fill="#6F6356"/>
<path d="M129.094 177.437C125.541 177.437 123.394 174.682 123.394 169.514C123.394 164.346 125.541 161.591 129.094 161.591C132.647 161.591 134.794 164.346 134.794 169.514C134.794 174.682 132.647 177.437 129.094 177.437ZM129.094 174.492C130.443 174.492 131.203 173.01 131.203 169.514C131.203 166.018 130.443 164.536 129.094 164.536C127.745 164.536 126.985 166.018 126.985 169.514C126.985 173.01 127.745 174.492 129.094 174.492Z" fill="#6F6356"/>
<path d="M111.045 177.152V174.511L115.814 170.141C117.258 168.773 117.942 167.899 117.942 166.721C117.942 165.448 117.106 164.65 115.833 164.65C114.522 164.65 113.401 165.448 112.527 166.759L110.988 164.042C112.318 162.484 114.085 161.572 116.27 161.572C119.367 161.572 121.476 163.32 121.476 166.208C121.476 168.393 120.393 169.799 117.942 172.003L115.586 174.112H121.628V177.152H111.045Z" fill="#6F6356"/>
<path d="M16 148H102V212H16V148Z" fill="#6F6356"/>
<path d="M16 231H318V281H16V231Z" fill="white"/>
<path d="M81.0639 196.448L81.0959 197.36C81.1119 197.664 81.1119 197.968 81.1119 198.272C81.1119 201.216 80.5519 203.44 78.0239 205.232L75.7519 203.584C77.9439 202.24 78.5519 200.56 78.5519 198.064C78.5519 197.856 78.5359 197.648 78.5359 197.424L78.5039 196.672C77.5279 196.72 76.5679 196.752 75.5919 196.752C74.9679 196.752 74.3439 196.736 73.7039 196.704L73.6559 194.192C74.4399 194.24 75.2239 194.256 76.0079 194.256C76.8079 194.256 77.6079 194.224 78.4079 194.208L78.2959 191.12H80.9039L80.9999 193.984C81.7519 193.888 82.5039 193.76 83.2399 193.6L83.3679 196.096C82.5999 196.24 81.8479 196.352 81.0639 196.448ZM70.5359 191.232L73.1599 191.536C72.6159 193.808 72.2639 195.984 72.2639 198.32C72.2639 200.304 72.5199 202.16 72.9999 204.064L70.5519 204.448C69.9599 202.592 69.7839 200.352 69.7839 198.416C69.7839 196 70.0719 193.6 70.5359 191.232Z" fill="white"/>
<path d="M61.3997 195.856V196.896H65.6237V205.296H55.0317V196.896H59.1917V195.856H54.5037V197.712C54.5037 200.24 54.0557 203.312 52.7757 205.504L50.8237 203.584C51.7997 201.824 52.1357 199.616 52.1357 197.616V190.784H65.6077V195.856H61.3997ZM63.2397 192.88H54.5037V193.952H63.2397V192.88ZM59.1917 198.848H57.3037V200.128H59.1917V198.848ZM63.3677 198.848H61.3997V200.128H63.3677V198.848ZM59.1917 201.888H57.3037V203.248H59.1917V201.888ZM63.3677 201.888H61.3997V203.248H63.3677V201.888Z" fill="white"/>
<path d="M37.7359 193.296V190.816H40.2319V193.104C41.1599 193.024 42.1199 192.832 43.0159 192.624L43.0639 195.12C42.1199 195.264 41.1759 195.392 40.2319 195.504V196.48C41.1439 196.224 42.0879 196.064 43.0319 196.064C44.7119 196.064 46.3279 196.624 47.1919 198.16C47.5759 198.848 47.7519 199.648 47.7519 200.448C47.7519 201.776 47.1919 203.184 46.0079 203.904C45.2719 204.352 44.3599 204.544 43.4959 204.544C42.9519 204.544 42.5199 204.48 41.9919 204.352L41.9119 201.744C42.3759 201.936 42.7919 202.032 43.2879 202.032C44.3759 202.032 45.1759 201.52 45.1759 200.352C45.1759 198.88 43.9439 198.384 42.6799 198.384C41.8159 198.384 41.0479 198.56 40.2319 198.832V201.648C40.2319 202.208 40.2159 202.816 40.0399 203.312C39.7199 204.304 38.8719 204.816 37.8639 204.816C36.9839 204.816 36.0719 204.48 35.3679 203.968C34.5519 203.392 34.0879 202.576 34.0879 201.568C34.0879 199.584 36.0879 198.112 37.7359 197.376V195.728C36.9039 195.76 36.0719 195.808 35.2239 195.808C35.0479 195.808 34.8719 195.808 34.6959 195.808L34.6639 193.28C35.1919 193.312 35.7359 193.328 36.2639 193.328C36.7599 193.328 37.2399 193.312 37.7359 193.296ZM37.7999 199.904C37.2719 200.224 36.2959 200.896 36.2959 201.6C36.2959 202.096 36.9519 202.496 37.4159 202.496C37.8159 202.496 37.7999 202.064 37.7999 201.616V199.904ZM43.4959 193.456L45.0159 191.76C46.3919 192.608 47.5439 193.616 48.5999 194.816L46.8239 196.528C45.8319 195.232 44.8559 194.336 43.4959 193.456Z" fill="white"/>
<path d="M248.021 266.191C249.225 266.191 250.205 267.171 250.205 268.375C250.205 269.593 249.225 270.573 248.021 270.573C246.803 270.573 245.823 269.593 245.823 268.375C245.823 267.171 246.803 266.191 248.021 266.191ZM248.021 267.087C247.307 267.087 246.733 267.661 246.733 268.375C246.733 269.089 247.307 269.677 248.021 269.677C248.735 269.677 249.309 269.089 249.309 268.375C249.309 267.661 248.735 267.087 248.021 267.087Z" fill="#6F6356"/>
<path d="M239.965 260.115L240.987 260.101C241.869 260.073 242.751 260.045 243.633 259.975L243.675 261.753C243.241 261.725 242.793 261.725 242.345 261.725C241.911 261.725 241.463 261.725 241.029 261.739L239.979 261.767L240.021 265.855C240.049 268.627 238.705 270.209 236.185 271.161L234.967 269.649C236.031 269.299 237.207 268.697 237.879 267.759C237.459 267.969 237.095 268.081 236.619 268.081C235.009 268.081 233.973 266.765 233.973 265.225C233.973 263.559 235.163 262.369 236.815 262.369C237.347 262.369 237.767 262.481 238.243 262.719L238.215 261.809L234.295 261.907C233.413 261.935 232.531 261.963 231.649 262.033L231.621 260.227C232.013 260.241 232.419 260.255 232.811 260.255C233.301 260.255 233.777 260.255 234.267 260.241L238.173 260.157L238.145 258.491H239.937L239.965 260.115ZM236.941 266.527C237.711 266.527 238.145 265.911 238.145 265.183C238.145 264.469 237.669 263.923 236.941 263.923C236.227 263.923 235.737 264.525 235.737 265.225C235.737 265.939 236.185 266.527 236.941 266.527Z" fill="#6F6356"/>
<path d="M221.485 264.819C220.659 264.833 219.833 264.833 219.007 264.833C218.433 264.833 217.873 264.833 217.313 264.833L217.299 263.055C218.097 263.069 218.895 263.083 219.679 263.083C220.281 263.083 220.883 263.083 221.471 263.083V262.075C220.757 262.075 220.043 262.089 219.329 262.089C218.489 262.089 217.663 262.075 216.837 262.061V260.297C218.377 260.325 219.917 260.339 221.457 260.339L221.443 258.617H223.291V260.325C224.747 260.297 226.203 260.269 227.645 260.199V261.949C226.203 261.991 224.761 262.033 223.305 262.047L223.319 263.041C224.579 263.013 225.839 262.971 227.099 262.915L227.113 264.665C225.853 264.721 224.593 264.763 223.333 264.791L223.347 266.331C224.859 266.723 226.119 267.339 227.477 268.095L226.595 269.887C225.517 269.159 224.565 268.613 223.333 268.151C223.319 268.739 223.305 269.229 222.941 269.719C222.353 270.489 221.205 270.671 220.295 270.671C218.867 270.671 217.145 270.055 217.145 268.361C217.145 267.451 217.719 266.709 218.545 266.359C219.231 266.065 219.945 265.995 220.687 265.995C220.953 265.995 221.233 266.009 221.499 266.023L221.485 264.819ZM221.499 267.675C221.177 267.619 220.855 267.605 220.519 267.605C220.015 267.605 218.881 267.675 218.881 268.389C218.881 268.977 219.707 269.117 220.155 269.117C221.499 269.117 221.499 268.543 221.499 267.675Z" fill="#6F6356"/>
<path d="M202.809 258.842L204.629 259.052C204.279 260.718 204.083 262.286 204.083 263.98C204.083 264.148 204.083 264.316 204.097 264.498C204.391 263.868 204.685 263.238 204.993 262.622L206.099 263.63C205.469 264.834 204.783 266.248 204.461 267.564L202.949 267.732C202.501 266.276 202.333 264.946 202.333 263.42C202.333 261.88 202.501 260.354 202.809 258.842ZM209.193 258.828H211.083C211.209 260.368 211.335 261.922 211.335 263.476C211.335 267.144 210.341 269.286 206.953 270.938L205.427 269.636C206.729 269.02 207.975 268.25 208.731 266.976C209.361 265.87 209.431 264.554 209.431 263.308C209.431 261.81 209.319 260.312 209.193 258.828Z" fill="#6F6356"/>
<path d="M188.319 260.619C188.557 259.891 188.767 259.177 188.963 258.449L190.881 258.813C190.699 259.373 190.503 259.919 190.321 260.465C190.937 260.395 191.553 260.325 192.155 260.199L192.057 262.019C191.273 262.145 190.475 262.229 189.677 262.299C188.907 264.427 188.053 266.527 187.073 268.571L185.281 267.801C186.205 266.065 187.031 264.259 187.703 262.411C187.339 262.425 186.961 262.439 186.597 262.439C186.331 262.439 186.079 262.439 185.813 262.425L185.743 260.577C186.275 260.605 186.793 260.633 187.325 260.633C187.661 260.633 187.997 260.619 188.319 260.619ZM194.605 266.415C195.655 266.807 196.579 267.353 197.503 267.983L196.621 269.607C195.991 269.159 195.347 268.725 194.661 268.389C194.591 270.111 193.443 270.727 191.847 270.727C190.363 270.727 188.655 270.027 188.655 268.291C188.655 266.667 190.181 265.855 191.637 265.855C192.015 265.855 192.393 265.897 192.785 265.967C192.729 265.015 192.687 264.077 192.673 263.125L194.465 263.167C194.479 264.245 194.549 265.337 194.605 266.415ZM192.869 267.633C192.463 267.521 191.917 267.451 191.497 267.451C190.993 267.451 190.293 267.647 190.293 268.263C190.293 268.949 191.161 269.131 191.693 269.131C192.365 269.131 192.897 268.949 192.897 268.179C192.897 267.997 192.883 267.815 192.869 267.633ZM192.757 261.585L193.541 260.059C194.913 260.577 196.187 261.151 197.447 261.865L196.663 263.517C195.431 262.719 194.157 262.019 192.757 261.585Z" fill="#6F6356"/>
<path d="M173.751 263.42C173.625 262.972 173.513 262.496 173.429 262.048L172.813 258.87L174.717 258.506L175.291 261.642C175.347 261.964 175.445 262.384 175.543 262.706C177.083 262.16 178.679 261.768 180.261 261.348L180.821 263.196C178.763 263.644 175.865 264.33 174.003 265.268C173.303 265.618 172.379 266.262 172.379 267.13C172.379 267.746 172.771 268.082 173.303 268.278C174.059 268.558 175.389 268.628 176.201 268.628C177.769 268.628 179.323 268.432 180.849 268.194L181.003 270.084C179.477 270.308 177.881 270.42 176.341 270.42C174.185 270.42 170.503 270.196 170.503 267.256C170.503 265.268 172.127 264.162 173.751 263.42Z" fill="#6F6356"/>
<path d="M154.949 263.671L153.731 263.881L153.605 262.145L154.949 261.921V258.113H156.657V261.613L159.359 261.137L159.401 262.873L156.657 263.363V266.905C156.657 267.143 156.685 267.199 156.937 267.199H157.483C157.693 267.199 157.749 266.975 157.791 266.667C157.847 266.261 157.903 265.575 157.931 265.155L159.401 265.491C159.261 266.737 159.107 267.703 158.799 268.235C158.547 268.669 158.155 268.865 157.651 268.865H155.943C155.313 268.865 154.949 268.319 154.949 267.731V263.671ZM158.911 258.631H166.541C166.541 260.815 166.541 262.915 166.485 265.057C166.457 266.205 166.275 269.187 165.869 270.167C165.659 270.671 165.407 270.979 164.889 271.161C164.651 271.245 164.371 271.301 164.133 271.301H161.837L161.487 269.523H163.419C163.895 269.523 164.091 269.495 164.259 268.977C164.371 268.599 164.525 267.479 164.567 267.045C164.735 265.351 164.749 263.713 164.749 261.907C164.749 261.403 164.749 260.885 164.749 260.353H162.971C162.971 261.725 162.901 263.041 162.705 264.399C162.481 266.065 161.963 267.703 160.871 269.019C160.059 269.985 159.205 270.713 158.141 271.385L156.895 269.901C158.631 268.991 160.087 267.633 160.661 265.715C161.151 264.049 161.193 262.075 161.193 260.353H158.911V258.631Z" fill="#6F6356"/>
<path d="M139.955 263.013C139.423 262.411 138.863 261.809 138.219 261.319L138.975 259.905C139.101 260.003 139.227 260.101 139.353 260.199C139.773 259.555 140.109 258.799 140.361 258.071L141.859 258.477C141.467 259.457 140.963 260.297 140.361 261.165C140.515 261.333 140.683 261.501 140.837 261.669C141.299 260.969 141.733 260.255 142.139 259.513L143.483 260.017V259.023H146.591V258.085H148.285V259.023H151.561V260.521H150.413C150.329 260.899 150.203 261.459 150.091 261.823H151.407V264.819H150.763V269.173C150.763 269.873 150.581 270.335 149.797 270.335H148.635L148.355 268.697H149.027C149.237 268.697 149.265 268.627 149.265 268.459V265.981H148.243V271.273H146.731V265.981H145.737V270.307H144.267V264.819H143.777C143.819 264.987 143.861 265.155 143.903 265.309L142.671 265.785C142.643 265.589 142.629 265.393 142.587 265.211L141.831 265.295V271.273H140.375V265.477C139.717 265.519 139.059 265.561 138.401 265.603L138.359 264.063H139.185C139.465 263.727 139.717 263.363 139.955 263.013ZM143.483 260.227C142.783 261.417 141.649 262.943 140.767 264.035C141.257 263.993 141.761 263.979 142.265 263.937C142.167 263.629 142.055 263.321 141.943 263.027L143.021 262.607C143.273 263.181 143.399 263.573 143.581 264.161V261.823H144.953C144.827 261.389 144.715 260.955 144.575 260.521H143.483V260.227ZM148.761 260.521H146.185C146.311 260.955 146.451 261.389 146.549 261.823H148.439C148.551 261.501 148.705 260.857 148.761 260.521ZM145.107 264.483H146.731V263.293H145.107V264.483ZM148.243 263.293V264.483H149.895V263.293H148.243ZM139.983 266.373C139.955 267.787 139.857 268.977 139.493 270.363L138.191 269.775C138.513 268.599 138.667 267.381 138.709 266.149L139.983 266.373ZM143.357 266.191C143.595 267.227 143.721 268.277 143.749 269.327L142.475 269.537C142.475 269.411 142.489 269.285 142.489 269.145C142.489 268.235 142.363 267.283 142.223 266.373L143.357 266.191Z" fill="#6F6356"/>
<path d="M124.793 259.052L126.711 259.262C126.221 261.376 125.899 263.532 125.899 265.716C125.899 267.256 126.067 268.712 126.403 270.21L124.555 270.434C124.191 268.908 124.079 267.326 124.079 265.758C124.079 263.448 124.359 261.306 124.793 259.052ZM134.705 261.936C133.893 261.866 133.081 261.824 132.255 261.824C130.939 261.824 129.637 261.936 128.335 262.104L128.363 260.242C129.693 260.088 131.009 260.004 132.339 260.004C133.151 260.004 133.949 260.032 134.747 260.102L134.705 261.936ZM129.973 265.674C129.721 266.038 129.483 266.486 129.483 266.948C129.483 267.354 129.721 267.606 130.085 267.732C130.603 267.914 131.457 267.942 132.017 267.942C133.165 267.942 134.201 267.816 135.321 267.606L135.279 269.524C134.229 269.678 133.179 269.776 132.129 269.776C130.379 269.776 127.789 269.622 127.789 267.298C127.789 266.57 128.027 265.968 128.405 265.366L129.973 265.674Z" fill="#6F6356"/>
<path d="M107.587 259.64H110.863C110.667 259.22 110.429 258.758 110.191 258.352L112.081 258.016C112.319 258.464 112.641 259.164 112.823 259.64H115.637C115.889 259.15 116.071 258.618 116.211 258.072L118.199 258.268C118.031 258.73 117.821 259.192 117.611 259.64H120.747V261.222H107.587V259.64ZM118.213 261.964H119.963V270.07C119.963 270.854 119.543 271.274 118.759 271.274H116.169L115.847 269.566H117.961C118.101 269.566 118.213 269.538 118.213 269.37V261.964ZM108.357 262.244H113.929V270.028C113.929 270.35 113.929 270.574 113.747 270.854C113.509 271.204 113.173 271.274 112.781 271.274H110.947L110.667 269.608H111.969C112.277 269.608 112.277 269.482 112.277 269.314V268.194H110.051V271.274H108.357V262.244ZM115.021 262.37H116.729V268.53H115.021V262.37ZM112.277 263.7H110.051V264.638H112.277V263.7ZM112.277 265.912H110.051V266.864H112.277V265.912Z" fill="#6F6356"/>
<path d="M93.2515 258.674H104.283V270.882H93.2515V258.674ZM95.0855 263.84H102.421V260.396H95.0855V263.84ZM95.0855 265.534V269.146H102.421V265.534H95.0855Z" fill="#6F6356"/>
<path d="M77.6834 258.086H79.2934V259.192H81.5754V258.086H83.1854V259.192H84.0814V260.732H83.1854V266.094H84.0534V267.606H76.7314V266.094H77.6834V260.732H76.9274V259.192H77.6834V258.086ZM89.5274 258.45V270.056C89.5274 270.966 89.1354 271.246 88.2674 271.246H86.4334L86.1534 269.58H87.4414C87.7774 269.58 87.8754 269.44 87.8754 269.118V267.074H85.7894C85.6494 268.572 85.2994 270.056 84.3614 271.26L82.9474 270.084C83.4234 269.426 83.7734 268.754 83.9834 267.97C84.3474 266.472 84.3894 264.932 84.3894 263.406V258.45H89.5274ZM87.8754 260.088H85.9574V262.034H87.8754V260.088ZM81.5754 260.732H79.2934V261.586H81.5754V260.732ZM81.5754 262.916H79.2934V263.826H81.5754V262.916ZM87.8754 263.56H85.9574L85.9294 265.506H87.8754V263.56ZM81.5754 265.086H79.2934V266.094H81.5754V265.086ZM79.8954 268.39C79.4894 269.37 78.5654 270.588 77.7394 271.274L76.5774 270.07C77.2914 269.496 78.0474 268.488 78.4954 267.69L79.8954 268.39ZM81.7574 267.704C82.3174 268.208 82.8354 268.824 83.2274 269.482L82.0514 270.504C81.6594 269.804 81.1554 269.118 80.6094 268.53L81.7574 267.704Z" fill="#6F6356"/>
<path d="M262.658 250.542C263.89 251.368 264.94 252.25 265.906 253.384L264.618 254.77C263.666 253.608 262.7 252.768 261.482 251.9L262.658 250.542Z" fill="#6F6356"/>
<path d="M255.882 246.454V247.588H248.616V246.426C247.832 246.888 247.202 247.21 246.376 247.574L245.452 245.81C247.594 245.11 249.848 243.78 251.318 242.058H253.11C254.748 243.892 256.708 244.942 258.976 245.81L258.01 247.574C257.24 247.224 256.596 246.888 255.882 246.454ZM249.288 245.992H255.154C254.02 245.236 253.11 244.508 252.186 243.486C251.304 244.522 250.408 245.236 249.288 245.992ZM246.88 248.778H257.492V255.008H246.88V248.778ZM255.7 250.374H248.658V253.426H255.7V250.374Z" fill="#6F6356"/>
<path d="M236.058 250.948C235.456 251.466 234.924 251.76 234.21 252.082L233.972 251.704C232.712 252.236 231.494 252.726 230.178 253.118L229.996 251.298C230.472 251.186 230.948 251.074 231.424 250.92V246.692H230.164V245.026H231.424V242.1H233.09V245.026H234.014V246.692H233.09V250.374C233.412 250.262 233.72 250.136 234.014 249.996L234.056 250.654C234.98 250.248 235.554 249.758 236.17 248.974H234V247.658H243.422V248.974H237.752C237.598 249.212 237.486 249.408 237.318 249.646H243.072C243.058 250.64 242.974 253.636 242.624 254.434C242.358 255.05 241.938 255.246 241.28 255.246H239.264L239.012 253.72H240.678C241.112 253.72 241.168 253.51 241.238 253.16C241.336 252.684 241.392 251.578 241.42 250.948H240.832C239.978 253.048 238.466 254.504 236.408 255.414L235.4 254.252C237.024 253.58 238.55 252.53 239.404 250.948H238.578C237.276 252.74 235.918 253.622 233.818 254.252L233.174 253.034C234.7 252.628 235.848 252.054 236.982 250.948H236.058ZM234.63 242.506H242.568V247.056H234.63V242.506ZM240.93 243.64H236.254V244.382H240.93V243.64ZM240.93 245.264H236.254V246.02H240.93V245.264Z" fill="#6F6356"/>
<path d="M219.958 246.356C219.356 248.764 218.236 252.166 217.214 254.42L215.45 253.706C216.626 251.34 217.396 249.03 218.082 246.496C217.592 246.51 217.088 246.524 216.584 246.524C216.332 246.524 216.08 246.524 215.828 246.524L215.8 244.704C216.276 244.718 216.766 244.732 217.256 244.732C217.676 244.732 218.096 244.732 218.516 244.718C218.684 243.948 218.838 243.192 218.978 242.436L220.84 242.688C220.7 243.276 220.532 243.948 220.392 244.578C221.4 244.452 222.086 244.34 223.094 244.116L223.164 245.88C222.1 246.076 221.036 246.244 219.958 246.356ZM222.086 250.906C221.834 251.172 221.386 251.648 221.386 252.04C221.386 252.404 221.778 252.558 222.086 252.614C222.688 252.726 223.304 252.754 223.92 252.754C224.998 252.754 226.076 252.628 227.14 252.488V254.308C226.146 254.42 225.152 254.476 224.144 254.476C223.108 254.476 222.184 254.448 221.302 254.182C220.252 253.86 219.608 253.23 219.608 252.18C219.608 251.34 220.112 250.668 220.672 250.108L222.086 250.906ZM221.47 246.636C222.436 246.51 223.402 246.44 224.382 246.44C225.25 246.44 226.104 246.496 226.972 246.608L226.804 248.344C225.936 248.246 225.082 248.176 224.214 248.176C223.234 248.176 222.24 248.26 221.26 248.4L221.47 246.636Z" fill="#6F6356"/>
<path d="M201.982 242.674L203.956 242.8L203.676 249.94C203.676 250.052 203.676 250.15 203.676 250.262C203.676 251.004 203.704 251.774 204.32 252.292C204.768 252.656 205.356 252.754 205.916 252.754C206.98 252.754 207.876 252.348 208.576 251.55C209.374 250.64 209.92 249.52 210.298 248.372L212.02 249.352C210.914 252.222 209.304 254.63 205.916 254.63C204.586 254.63 203.13 254.224 202.346 253.076C201.8 252.278 201.702 251.396 201.702 250.458C201.702 250.318 201.702 250.22 201.716 250.024L201.982 242.674Z" fill="#6F6356"/>
<path d="M191.398 242.1H193.12V242.716H196.62V244.004H193.12V244.69H197.152V245.964H195.598C195.458 246.356 195.374 246.594 195.22 246.972H196.816V248.26H193.12V248.946H196.522V250.094H193.12V250.822H197.04V252.124H193.12V253.09H191.384V252.124H187.422V250.822H191.398V250.094H187.968V248.946H191.398V248.26H187.632V246.972H189.312C189.256 246.678 189.116 246.23 189.018 245.964H187.296V244.69H191.398V244.004H187.884V242.716H191.398V242.1ZM185.252 242.226C186.05 242.856 186.82 243.696 187.324 244.578L185.952 245.74C185.42 244.802 184.86 244.046 184.062 243.332L185.252 242.226ZM193.862 245.964H190.712C190.824 246.286 190.908 246.636 190.992 246.972H193.54C193.666 246.65 193.778 246.3 193.862 245.964ZM196.998 254.952H190.138C188.64 254.952 187.436 254.658 186.484 253.426C185.882 254.196 185.294 254.77 184.496 255.33L183.838 253.356C184.286 253.174 184.874 252.782 185.196 252.446V249.002H184.076V247.378H186.848V251.34C186.848 251.984 187.254 252.432 187.758 252.768C188.486 253.244 189.158 253.314 189.998 253.314H197.376L196.998 254.952Z" fill="#6F6356"/>
<path d="M170.426 243.052L172.344 243.262C171.854 245.376 171.532 247.532 171.532 249.716C171.532 251.256 171.7 252.712 172.036 254.21L170.188 254.434C169.824 252.908 169.712 251.326 169.712 249.758C169.712 247.448 169.992 245.306 170.426 243.052ZM180.338 245.936C179.526 245.866 178.714 245.824 177.888 245.824C176.572 245.824 175.27 245.936 173.968 246.104L173.996 244.242C175.326 244.088 176.642 244.004 177.972 244.004C178.784 244.004 179.582 244.032 180.38 244.102L180.338 245.936ZM175.606 249.674C175.354 250.038 175.116 250.486 175.116 250.948C175.116 251.354 175.354 251.606 175.718 251.732C176.236 251.914 177.09 251.942 177.65 251.942C178.798 251.942 179.834 251.816 180.954 251.606L180.912 253.524C179.862 253.678 178.812 253.776 177.762 253.776C176.012 253.776 173.422 253.622 173.422 251.298C173.422 250.57 173.66 249.968 174.038 249.366L175.606 249.674Z" fill="#6F6356"/>
<path d="M162.922 244.045H166.324V245.781H165.806C165.708 247.769 165.442 249.883 164.434 251.619C165.05 252.459 165.722 253.047 166.604 253.607L165.596 255.245C164.658 254.615 164.014 254.013 163.314 253.117C162.516 253.985 161.69 254.601 160.682 255.189L159.702 253.803L159.072 254.867C158.554 254.531 158.036 254.251 157.476 253.985C156.398 254.699 155.194 255.091 153.948 255.371L153.276 253.915C154.172 253.789 154.984 253.607 155.838 253.243C155.124 252.949 154.48 252.725 153.738 252.557C154.13 251.969 154.382 251.521 154.662 250.877H153.276V249.463H155.222C155.334 249.127 155.432 248.791 155.53 248.455L156.118 248.553V246.635C155.46 247.461 154.802 248.035 153.92 248.609L152.982 247.363C153.864 246.985 154.676 246.327 155.334 245.655H153.276V244.311H154.186C154.004 243.611 153.864 243.219 153.542 242.589L154.858 242.113C155.152 242.701 155.39 243.331 155.558 243.961L154.55 244.311H156.118V242.071H157.686V244.311H159.268L157.994 243.933C158.33 243.331 158.61 242.701 158.834 242.043L160.276 242.407C159.996 243.135 159.772 243.625 159.422 244.311H160.108V245.655H158.204C158.694 246.103 159.198 246.481 159.786 246.789L158.876 247.937C158.428 247.615 158.036 247.237 157.686 246.803V248.637H156.664L157.14 248.721C157.07 249.001 157.014 249.183 156.93 249.463H160.346V250.877H159.632C159.408 251.605 159.142 252.207 158.708 252.823C159.114 252.991 159.534 253.187 159.94 253.397L159.898 253.467C160.906 253.061 161.69 252.459 162.404 251.647C161.858 250.541 161.522 249.225 161.326 248.007C161.116 248.343 160.92 248.609 160.668 248.931L159.422 247.629C160.64 246.019 161.312 243.975 161.564 241.987L163.258 242.211C163.174 242.827 163.062 243.443 162.922 244.045ZM163.44 249.939C163.958 248.679 164.14 247.139 164.168 245.781H162.46C162.6 247.181 162.88 248.637 163.44 249.939ZM156.37 250.877C156.216 251.213 156.062 251.535 155.894 251.857C156.356 251.983 156.818 252.109 157.266 252.263C157.644 251.829 157.868 251.423 158.064 250.877H156.37Z" fill="#6F6356"/>
<path d="M143.518 251.34V247.56C142.412 249.828 140.69 251.802 138.632 253.272L137.624 251.55C139.906 250.038 141.544 248.4 142.776 245.95H137.82V244.228H143.518V242.058H145.254V244.228H150.98V245.95H145.968C146.948 248.036 149.146 250.36 151.162 251.48L150.168 253.272C149.342 252.684 148.656 252.096 147.942 251.382V252.964H145.226V255.302H143.518V252.964H140.872V251.34H143.518ZM145.226 251.34H147.9C146.752 250.122 145.996 249.058 145.226 247.56V251.34Z" fill="#6F6356"/>
<path d="M123.918 248.427C123.54 248.847 123.232 249.155 122.798 249.533L122.154 247.615C123.848 246.047 124.604 244.297 125.122 242.071L126.83 242.281C126.564 243.471 126.228 244.521 125.71 245.627V255.315H123.918V248.427ZM129.84 243.905H135.594V245.599H131.156V247.293H135.272V248.959H131.156V250.681H135.272V252.361H131.156V255.315H129.35V245.599H129.084C128.454 246.761 127.824 247.671 126.886 248.595L125.976 246.873C127.306 245.585 128.132 243.849 128.538 242.071L130.33 242.239C130.19 242.827 130.036 243.345 129.84 243.905Z" fill="#6F6356"/>
<path d="M110.464 253.678V252.796C109.428 253.174 108.504 253.412 107.398 253.552L106.894 252.082C108.392 251.928 109.666 251.732 111.024 251.046H107.118V249.618H112.914V249.072H112.424L112.144 247.952H112.984C113.096 247.952 113.166 247.91 113.166 247.798V247.28H111.668V249.142H110.184V247.28H108.896V249.002H107.496V246.216H110.184V245.712H106.95V244.606H108.112L107.118 244.06C107.636 243.43 107.986 242.8 108.252 242.016L109.666 242.282C109.582 242.478 109.512 242.674 109.442 242.856H110.184V242.086H111.668V242.856H114.412V244.018H111.668V244.606H115.056V245.712H111.668V246.216H114.496V247.98C114.496 248.274 114.44 248.512 114.258 248.75H114.748V249.618H120.082V251.046H118.794L119.746 251.704C119.13 252.208 118.626 252.586 117.94 253.006C118.766 253.328 119.466 253.524 120.334 253.706L119.522 255.274C118.164 254.966 117.072 254.49 115.91 253.706C114.944 253.048 114.034 252.18 113.502 251.102C112.998 251.536 112.592 251.802 112.004 252.124V253.608C112.942 253.538 113.88 253.482 114.818 253.37L114.804 254.7C112.69 254.966 110.548 255.134 108.406 255.204L108.266 253.776C109.008 253.762 109.736 253.72 110.464 253.678ZM118.052 242.086H119.718V247.812C119.718 248.624 119.242 249.016 118.724 249.016H116.54L116.33 247.532H117.674C118.024 247.532 118.052 247.392 118.052 247.14V242.086ZM115.392 242.632H116.946V246.804H115.392V242.632ZM108.42 244.606H110.184V244.018H108.868C108.728 244.228 108.588 244.424 108.42 244.606ZM116.456 252.25C116.946 251.914 117.506 251.438 117.954 251.046H115.196C115.546 251.55 115.952 251.9 116.456 252.25Z" fill="#6F6356"/>
<path d="M101.378 253.608H102.33C102.61 253.608 102.68 253.468 102.68 253.202V247.84H98.6479V242.59H104.332V253.874C104.332 254.56 104.08 255.274 103.268 255.274H100.874L100.65 253.916H94.9799V248.596H101.378V253.608ZM92.0679 242.59H97.5839V247.84H93.7199V255.274H92.0679V242.59ZM102.68 243.878H100.258V244.676H102.68V243.878ZM95.9599 243.878H93.7199V244.676H95.9599V243.878ZM102.68 245.74H100.258V246.552H102.68V245.74ZM95.9599 245.74H93.7199V246.552H95.9599V245.74ZM99.7959 249.87H96.5479V250.696H99.7959V249.87ZM99.7959 251.732H96.5479V252.6H99.7959V251.732Z" fill="#6F6356"/>
<path d="M80.5039 243.332H88.8759V245.012H84.5079V246.664H88.4279V248.302H84.5079V250.542H89.3939V252.222H84.5079V255.274H82.7439V252.222H76.2059V250.542H78.1519V246.916C77.8159 247.266 77.5639 247.504 77.1859 247.812L76.0239 246.3C77.4659 245.194 78.5159 243.724 79.0199 241.974L80.8819 242.324C80.7559 242.674 80.6439 242.996 80.5039 243.332ZM79.6219 245.012C79.2299 245.628 78.8799 246.118 78.3899 246.664H82.7439V245.012H79.6219ZM82.7439 248.302H79.9159V250.542H82.7439V248.302Z" fill="#6F6356"/>
<path d="M68.66 244.592C68.66 245.292 68.1 245.852 67.4 245.852C66.7 245.852 66.14 245.292 66.14 244.592C66.14 243.892 66.7 243.332 67.4 243.332C68.1 243.332 68.66 243.892 68.66 244.592ZM72.566 252.936L71.656 253.846L67.4 249.548L63.144 253.846L62.234 252.936L66.532 248.68L62.234 244.424L63.144 243.514L67.4 247.812L71.656 243.514L72.566 244.424L68.268 248.68L72.566 252.936ZM64.572 248.68C64.572 249.38 64.012 249.94 63.312 249.94C62.612 249.94 62.052 249.38 62.052 248.68C62.052 247.98 62.612 247.42 63.312 247.42C64.012 247.42 64.572 247.98 64.572 248.68ZM72.748 248.68C72.748 249.38 72.188 249.94 71.488 249.94C70.788 249.94 70.228 249.38 70.228 248.68C70.228 247.98 70.788 247.42 71.488 247.42C72.188 247.42 72.748 247.98 72.748 248.68ZM68.66 252.768C68.66 253.468 68.1 254.028 67.4 254.028C66.7 254.028 66.14 253.468 66.14 252.768C66.14 252.068 66.7 251.508 67.4 251.508C68.1 251.508 68.66 252.068 68.66 252.768Z" fill="#6F6356"/>
<path d="M53.9706 186.49C55.7992 184.786 56.0808 182.115 54.5995 180.526C53.1182 178.937 50.4349 179.031 48.6063 180.736C46.7776 182.44 46.496 185.11 47.9773 186.7C49.4586 188.289 52.1419 188.195 53.9706 186.49Z" fill="white"/>
<path d="M78.1666 186.492C79.9953 184.788 80.2769 182.117 78.7956 180.528C77.3142 178.939 74.631 179.033 72.8023 180.738C70.9736 182.442 70.692 185.112 72.1734 186.701C73.6547 188.291 76.3379 188.197 78.1666 186.492Z" fill="white"/>
<path d="M34.9344 165.729C34.9344 164.598 34.0174 163.681 32.8863 163.681C31.7551 163.681 30.8381 164.598 30.8381 165.729C30.8381 166.86 31.7551 167.777 32.8863 167.777C34.0174 167.777 34.9344 166.86 34.9344 165.729Z" fill="white"/>
<path d="M69.1238 183.134C69.803 179.787 72.9742 177.127 76.3827 177.127C79.6647 177.127 82.0302 179.594 81.9653 182.766C85.5148 182.859 86.5028 178.198 86.5028 178.198C86.8016 176.895 87.2481 174.354 87.6218 171.86C87.7443 171.09 87.6502 170.302 87.3499 169.582C86.4221 167.422 85.3008 165.35 83.9997 163.391C82.7688 161.56 80.7042 160.476 78.3476 160.436C76.9422 160.414 75.5625 160.401 74.5207 160.401L74.5117 160.392C74.3775 158.151 72.7393 156.435 70.4397 156.23C68.9436 156.097 63.0175 156 60.173 156C59.0428 156 57.4214 156.016 55.781 156.042V156.036H55.7675H36.0442C35.7932 156.036 35.5446 156.085 35.3126 156.18C35.0807 156.276 34.8699 156.417 34.6924 156.594C34.5149 156.771 34.3742 156.981 34.2782 157.212C34.1822 157.443 34.1328 157.691 34.133 157.942V157.95C34.133 158.454 34.3334 158.936 34.6901 159.292C35.0469 159.647 35.5307 159.847 36.0353 159.847H40.011C40.4898 159.883 40.9375 160.097 41.2643 160.447C41.5912 160.798 41.773 161.259 41.7734 161.738V161.748C41.7742 161.998 41.7254 162.246 41.6298 162.478C41.5342 162.71 41.3937 162.92 41.2164 163.098C41.0391 163.276 40.8284 163.416 40.5964 163.513C40.3645 163.609 40.1157 163.659 39.8644 163.659H37.8256C37.319 163.659 36.8332 163.86 36.475 164.217C36.1168 164.574 35.9155 165.059 35.9155 165.564C35.9154 165.814 35.9647 166.062 36.0606 166.293C36.1565 166.524 36.2972 166.734 36.4746 166.911C36.652 167.088 36.8626 167.229 37.0944 167.324C37.3262 167.42 37.5747 167.469 37.8256 167.469H39.8644C40.3713 167.469 40.8575 167.67 41.2159 168.028C41.5743 168.385 41.7757 168.87 41.7757 169.375C41.7757 169.881 41.5743 170.366 41.2159 170.723C40.8575 171.08 40.3713 171.281 39.8644 171.281H32.2374C31.7307 171.281 31.2447 171.482 30.8864 171.839C30.528 172.196 30.3265 172.681 30.3262 173.186C30.3262 173.691 30.5275 174.176 30.886 174.533C31.2444 174.891 31.7305 175.092 32.2374 175.092H39.8644C40.3713 175.092 40.8575 175.292 41.2159 175.65C41.5743 176.007 41.7757 176.492 41.7757 176.997C41.7751 177.503 41.5735 177.987 41.2151 178.344C40.8567 178.701 40.3709 178.901 39.8644 178.901H37.5056C36.999 178.901 36.5132 179.102 36.155 179.459C35.7967 179.816 35.5955 180.301 35.5955 180.806C35.5955 181.311 35.7967 181.796 36.1549 182.153C36.5131 182.51 36.9989 182.711 37.5056 182.712L45.0319 182.706L45.6575 181.152C46.9387 178.795 49.4878 177.126 52.1868 177.126C55.5963 177.126 58.0178 179.788 57.7515 183.138H69.1227M50.167 164.546H47.6023C47.5998 164.546 47.5975 164.547 47.5957 164.549C47.5939 164.55 47.5927 164.553 47.5922 164.555L47.3561 166.229C47.3557 166.23 47.3557 166.231 47.356 166.233C47.3563 166.234 47.3569 166.235 47.3578 166.237C47.3586 166.238 47.3597 166.238 47.361 166.239C47.3623 166.24 47.3636 166.24 47.365 166.24H49.274C49.3677 166.237 49.4608 166.255 49.5466 166.293C49.6323 166.331 49.7085 166.387 49.7696 166.458C49.8308 166.529 49.8752 166.613 49.8998 166.703C49.9244 166.793 49.9285 166.888 49.9119 166.98C49.8791 167.182 49.7768 167.366 49.6224 167.501C49.468 167.636 49.2712 167.713 49.0659 167.719H47.1547C47.1523 167.719 47.1501 167.72 47.1482 167.722C47.1464 167.723 47.1451 167.725 47.1446 167.727L46.8022 170.159C46.7695 170.361 46.6671 170.545 46.5127 170.68C46.3583 170.815 46.1615 170.892 45.9562 170.898C45.8626 170.901 45.7695 170.883 45.6838 170.845C45.5981 170.807 45.5219 170.751 45.4609 170.68C45.3999 170.609 45.3555 170.525 45.331 170.435C45.3066 170.345 45.3026 170.251 45.3195 170.159L46.208 163.852C46.2432 163.638 46.3518 163.444 46.5151 163.301C46.6784 163.159 46.8863 163.077 47.1032 163.071H50.374C50.4677 163.068 50.5608 163.086 50.6465 163.124C50.7322 163.162 50.8083 163.218 50.8693 163.289C50.9304 163.36 50.9747 163.444 50.9992 163.534C51.0237 163.624 51.0276 163.719 51.0107 163.811C50.9775 164.012 50.8752 164.195 50.7213 164.329C50.5673 164.464 50.3714 164.54 50.167 164.546ZM57.0219 163.573C57.2884 163.809 57.4758 164.12 57.559 164.466C57.6521 164.857 57.6673 165.263 57.6038 165.66C57.526 166.277 57.2724 166.86 56.8731 167.339C56.6292 167.626 56.3195 167.851 55.9701 167.994C55.9685 167.996 55.9676 167.998 55.9676 168C55.9676 168.002 55.9685 168.005 55.9701 168.006L56.6057 169.835C56.7769 170.326 56.3371 170.898 55.7899 170.898H55.7541C55.6214 170.902 55.4908 170.864 55.3814 170.789C55.2719 170.714 55.1893 170.606 55.1454 170.481L54.3766 168.249C54.3755 168.248 54.374 168.246 54.3723 168.245C54.3705 168.244 54.3686 168.244 54.3666 168.244H52.7328C52.7306 168.244 52.7284 168.245 52.7266 168.246C52.7248 168.248 52.7234 168.25 52.7228 168.252L52.4542 170.158C52.4215 170.36 52.3191 170.544 52.1647 170.679C52.0103 170.814 51.8135 170.891 51.6082 170.897C51.5146 170.9 51.4215 170.882 51.3358 170.844C51.2501 170.806 51.1739 170.75 51.1129 170.679C51.0519 170.608 51.0075 170.524 50.9831 170.434C50.9586 170.344 50.9547 170.249 50.9715 170.158L51.86 163.851C51.8952 163.637 52.0038 163.443 52.1671 163.3C52.3304 163.158 52.5383 163.076 52.7552 163.07H55.2841C55.2841 163.07 56.3942 163.035 57.0219 163.573ZM63.982 163.758C63.9516 163.947 63.8561 164.119 63.7118 164.246C63.5676 164.372 63.3838 164.444 63.192 164.449H60.2502C60.2479 164.449 60.2457 164.45 60.2439 164.451C60.2421 164.453 60.2408 164.455 60.2401 164.457L60.0063 166.113C60.0059 166.114 60.0059 166.115 60.0062 166.117C60.0065 166.118 60.0071 166.119 60.0079 166.12C60.0088 166.122 60.0099 166.122 60.0112 166.123C60.0124 166.124 60.0138 166.124 60.0152 166.124H62.3002C62.3877 166.121 62.4747 166.138 62.5548 166.173C62.6349 166.209 62.706 166.261 62.7631 166.328C62.8202 166.394 62.8617 166.472 62.8846 166.556C62.9075 166.64 62.9112 166.729 62.8955 166.815C62.8651 167.003 62.7695 167.176 62.6253 167.302C62.4811 167.428 62.2972 167.5 62.1055 167.505H59.8194C59.8171 167.505 59.8149 167.506 59.8131 167.508C59.8113 167.509 59.81 167.511 59.8093 167.513L59.5285 169.506C59.5284 169.509 59.5295 169.511 59.5313 169.513C59.5332 169.515 59.5358 169.517 59.5385 169.517H62.4781C62.5656 169.514 62.6526 169.531 62.7327 169.567C62.8128 169.602 62.884 169.655 62.941 169.721C62.9981 169.787 63.0396 169.865 63.0625 169.949C63.0854 170.034 63.0891 170.122 63.0734 170.208C63.043 170.397 62.9474 170.569 62.8032 170.695C62.659 170.821 62.4751 170.893 62.2834 170.898H58.6355C58.5371 170.9 58.4395 170.88 58.3498 170.839C58.2601 170.799 58.1804 170.739 58.1163 170.665C58.0523 170.59 58.0054 170.502 57.9791 170.408C57.9528 170.313 57.9477 170.214 57.9641 170.117L58.847 163.855C58.8822 163.642 58.9907 163.447 59.1541 163.305C59.3174 163.162 59.5253 163.081 59.7422 163.074H63.389C63.4756 163.072 63.5616 163.089 63.6409 163.124C63.7201 163.159 63.7906 163.211 63.8473 163.277C63.904 163.342 63.9455 163.419 63.9688 163.502C63.9921 163.586 63.9966 163.673 63.982 163.758ZM70.0928 163.758C70.0624 163.947 69.9669 164.119 69.8226 164.246C69.6784 164.372 69.4946 164.444 69.3028 164.449H66.361C66.3587 164.449 66.3565 164.45 66.3547 164.451C66.3529 164.453 66.3516 164.455 66.3509 164.457L66.1182 166.113C66.1178 166.114 66.1178 166.115 66.1181 166.117C66.1184 166.118 66.119 166.119 66.1199 166.12C66.1207 166.122 66.1218 166.122 66.1231 166.123C66.1244 166.124 66.1258 166.124 66.1271 166.124H68.4121C68.4996 166.121 68.5866 166.138 68.6667 166.173C68.7468 166.209 68.818 166.261 68.875 166.328C68.9321 166.394 68.9736 166.472 68.9965 166.556C69.0194 166.64 69.0231 166.729 69.0074 166.815C68.977 167.003 68.8814 167.176 68.7372 167.302C68.593 167.428 68.4091 167.5 68.2174 167.505H65.9302C65.9279 167.505 65.9257 167.506 65.9239 167.508C65.9221 167.509 65.9208 167.511 65.9201 167.513L65.6393 169.506C65.6392 169.509 65.6403 169.511 65.6421 169.513C65.644 169.515 65.6466 169.517 65.6493 169.517H68.5889C68.6764 169.514 68.7634 169.531 68.8435 169.567C68.9236 169.602 68.9948 169.655 69.0518 169.721C69.1089 169.787 69.1504 169.865 69.1733 169.949C69.1962 170.034 69.1999 170.122 69.1842 170.208C69.1538 170.397 69.0582 170.569 68.914 170.695C68.7698 170.821 68.5859 170.893 68.3942 170.898H64.7463C64.6479 170.9 64.5504 170.88 64.4606 170.839C64.3709 170.799 64.2912 170.739 64.2271 170.665C64.1631 170.59 64.1162 170.502 64.0899 170.408C64.0636 170.313 64.0585 170.214 64.0749 170.117L64.9578 163.855C64.993 163.642 65.1016 163.447 65.2649 163.305C65.4282 163.162 65.6361 163.081 65.853 163.074H69.4998C69.5864 163.072 69.6725 163.089 69.7517 163.124C69.8309 163.159 69.9014 163.211 69.9581 163.277C70.0148 163.342 70.0563 163.419 70.0796 163.502C70.1029 163.586 70.1074 163.673 70.0928 163.758ZM74.345 163.043C75.3443 163.043 76.6378 163.056 77.9358 163.078C79.5091 163.103 80.8855 163.824 81.7113 165.054C82.5934 166.38 83.3863 167.763 84.0847 169.193C84.454 169.943 83.7747 170.92 82.8851 170.92H73.3457L74.345 163.043Z" fill="white"/>
<path d="M54.5476 166.752H52.8557L53.177 164.705H54.8678C54.8678 164.705 56.1088 164.634 55.9054 165.729C55.9107 165.729 55.7683 166.752 54.5476 166.752Z" fill="white"/>
<path d="M227.816 193.36L227.348 194.44C227.072 194.02 226.904 193.708 226.688 193.252V197.128H224.972V193.444C224.54 194.32 224.132 194.908 223.508 195.652L222.896 193.516C223.736 192.844 224.3 191.992 224.78 191.044H223.136V189.4H224.972V185.752H226.688V189.4H228.368V190.384L229.388 189.196C230.156 189.664 230.804 190.192 231.416 190.84L230.18 192.172C229.676 191.548 229.04 190.936 228.368 190.528V191.044H226.808C227.144 191.68 227.588 192.244 228.092 192.748L227.996 192.976L231.68 192.268V187.972L230.612 189.172C230 188.428 229.496 187.948 228.716 187.396L229.808 186.208C230.492 186.628 231.128 187.12 231.68 187.708V185.728H233.528V191.896L234.392 191.728L234.548 193.516L233.528 193.708V197.092H231.68V194.068L228.02 194.776L227.816 193.36ZM228.812 186.484C228.656 187.324 228.332 188.272 227.96 189.04L226.76 188.5C227.048 187.828 227.324 186.868 227.42 186.148L228.812 186.484ZM224.18 186.184C224.456 186.892 224.684 187.756 224.792 188.512L223.52 189.028C223.46 188.116 223.292 187.384 222.956 186.544L224.18 186.184Z" fill="#6F6356"/>
<path d="M211.688 188.464C211.364 188.764 211.136 188.944 210.752 189.148L209.732 187.744C210.572 187.252 211.46 186.544 211.868 185.632L213.656 185.848C213.548 186.124 213.464 186.28 213.32 186.532H221V188.152H220.028V189.328H221.3V190.972H220.028V192.16H221V193.78H210.2V192.16H211.544V190.972H209.924V189.328H211.688V188.464ZM213.944 188.152H213.08V189.328H213.944V188.152ZM216.188 188.152H215.312V189.328H216.188V188.152ZM218.432 188.152H217.556V189.328H218.432V188.152ZM213.944 190.972H213.08V192.16H213.944V190.972ZM216.188 190.972H215.312V192.16H216.188V190.972ZM218.432 190.972H217.556V192.16H218.432V190.972ZM212.744 194.38C212.396 195.472 212.036 196.372 211.304 197.26L209.78 196.216C210.44 195.52 210.848 194.704 211.172 193.804L212.744 194.38ZM219.8 193.804C220.496 194.728 220.892 195.388 221.396 196.432L219.716 197.236C219.332 196.264 218.804 195.34 218.24 194.464L219.8 193.804ZM217.28 194.116C217.604 194.884 218.048 196.156 218.168 196.96L216.38 197.104C216.26 196.096 216.02 195.184 215.684 194.236L217.28 194.116ZM214.832 194.2C214.976 195.004 215.06 196.216 215.06 197.032L213.248 197.08C213.344 196.504 213.344 195.76 213.344 195.172C213.344 194.848 213.344 194.56 213.32 194.248L214.832 194.2Z" fill="#6F6356"/>
<path d="M201.416 193.36L200.948 194.44C200.672 194.02 200.504 193.708 200.288 193.252V197.128H198.572V193.444C198.14 194.32 197.732 194.908 197.108 195.652L196.496 193.516C197.336 192.844 197.9 191.992 198.38 191.044H196.736V189.4H198.572V185.752H200.288V189.4H201.968V190.384L202.988 189.196C203.756 189.664 204.404 190.192 205.016 190.84L203.78 192.172C203.276 191.548 202.64 190.936 201.968 190.528V191.044H200.408C200.744 191.68 201.188 192.244 201.692 192.748L201.596 192.976L205.28 192.268V187.972L204.212 189.172C203.6 188.428 203.096 187.948 202.316 187.396L203.408 186.208C204.092 186.628 204.728 187.12 205.28 187.708V185.728H207.128V191.896L207.992 191.728L208.148 193.516L207.128 193.708V197.092H205.28V194.068L201.62 194.776L201.416 193.36ZM202.412 186.484C202.256 187.324 201.932 188.272 201.56 189.04L200.36 188.5C200.648 187.828 200.924 186.868 201.02 186.148L202.412 186.484ZM197.78 186.184C198.056 186.892 198.284 187.756 198.392 188.512L197.12 189.028C197.06 188.116 196.892 187.384 196.556 186.544L197.78 186.184Z" fill="#6F6356"/>
<path d="M192.272 191.643C192.944 192.603 193.892 193.167 194.996 193.503L193.976 195.099H195.092L194.744 196.839H188.552C187.472 196.839 186.5 196.467 185.84 195.579C185.324 196.203 184.772 196.707 184.088 197.163L183.38 195.171C183.872 194.931 184.196 194.703 184.616 194.355V191.871H183.572V190.191H186.344V193.683C186.536 194.547 187.064 194.907 187.916 195.051L186.812 193.527C187.844 193.155 188.828 192.615 189.392 191.643H186.764V189.939H189.884V188.895H187.088V187.191H188.156C188 186.759 187.832 186.423 187.616 186.015L189.38 185.691C189.608 186.171 189.824 186.699 190.004 187.191H191.54C191.756 186.783 191.996 186.147 192.104 185.691L193.916 185.967C193.772 186.387 193.568 186.795 193.376 187.191H194.528V188.895H191.624V189.939H194.864V191.643H192.272ZM184.844 185.823C185.624 186.435 186.224 187.035 186.872 187.779L185.528 189.087C184.976 188.355 184.364 187.659 183.644 187.083L184.844 185.823ZM193.748 195.099C192.416 194.511 191.456 193.563 190.832 192.255C190.364 193.443 189.308 194.511 188.18 195.087C188.372 195.099 188.564 195.099 188.744 195.099H193.748Z" fill="#6F6356"/>
</svg>
