<svg width="333" height="305" viewBox="0 0 333 305" fill="none" xmlns="http://www.w3.org/2000/svg">
<path d="M0 0H333V305H0V0Z" fill="#F5EEE6"/>
<path d="M257.544 127.56C258.52 127.544 259.496 127.528 260.472 127.464L271.16 126.68L271.368 129.24C269.736 129.272 268.392 129.448 266.936 130.264C265.48 131.08 264.184 132.392 264.184 134.152C264.184 136.568 267.048 137.24 268.952 137.384L267.752 139.912C264.6 139.544 261.512 137.928 261.512 134.344C261.512 132.84 262.104 131.352 263.208 130.312C263.576 129.96 264.008 129.656 264.424 129.368L257.736 130.232L257.544 127.56ZM266.92 131.816L268.264 131.048C269.016 131.944 269.576 132.984 270.088 134.024L268.68 134.856C268.168 133.672 267.704 132.856 266.92 131.816ZM269.096 130.6L270.456 129.88C271.224 130.776 271.8 131.768 272.328 132.824L270.92 133.608C270.344 132.392 269.928 131.656 269.096 130.6Z" fill="#6F6356"/>
<path d="M248.841 136.008C250.649 137.112 252.537 137.768 254.617 138.152L253.177 140.552C250.937 139.976 248.777 139.08 246.905 137.688C244.921 139.096 242.969 139.928 240.617 140.552L239.289 138.168C241.305 137.72 243.241 137.064 245.017 136.008C243.289 134.088 242.265 132.104 241.561 129.64H239.353V127.256H245.673V125.352H248.201V127.256H254.505V129.64H252.281C251.593 132.088 250.569 134.136 248.841 136.008ZM246.937 134.52C248.361 133.032 249.081 131.608 249.673 129.64H244.153C244.745 131.592 245.497 133.048 246.937 134.52Z" fill="#6F6356"/>
<path d="M230.824 128.104C230.04 127.48 229.224 126.952 228.328 126.504L230.568 125.096C231.672 125.672 232.728 126.344 233.704 127.112L232.072 128.104H236.632V130.36H232.6V132.824H236.104V135.08H232.6V137.88H236.952V140.12H225.528V137.88H230.104V135.08H226.648V132.824H230.104V130.36H226.12V128.104H230.824ZM223.384 125.288C224.424 125.736 225.304 126.248 226.216 126.904L224.792 128.888C223.848 128.12 223.16 127.704 222.088 127.144L223.384 125.288ZM222.92 129.336C223.896 129.784 224.808 130.36 225.656 131.048L224.296 133.032C223.4 132.296 222.648 131.8 221.624 131.256L222.92 129.336ZM226.2 135.016C225.352 137.016 224.408 138.84 223.08 140.584L221.576 138.312C222.744 136.872 223.64 135.224 224.392 133.528L226.2 135.016Z" fill="#6F6356"/>
<path d="M206.184 126.392L208.792 126.68C208.232 129.112 207.88 131.528 207.88 134.04C207.88 135.832 208.056 137.544 208.456 139.304L205.912 139.592C205.512 137.8 205.384 135.96 205.384 134.136C205.384 131.432 205.688 129.048 206.184 126.392ZM217.72 130.056C216.776 129.976 215.832 129.928 214.872 129.928C213.336 129.928 211.816 130.056 210.296 130.264L210.344 127.704C211.864 127.544 213.384 127.432 214.904 127.432C215.864 127.432 216.824 127.48 217.784 127.56L217.72 130.056ZM212.44 134.088C212.2 134.44 211.976 134.936 211.976 135.384C211.976 135.784 212.232 136.024 212.6 136.136C213.144 136.312 214.072 136.328 214.664 136.328C215.928 136.328 217.192 136.168 218.44 135.944L218.376 138.552C217.16 138.728 215.928 138.84 214.696 138.84C212.584 138.84 209.656 138.632 209.656 135.832C209.656 135.032 209.912 134.36 210.296 133.656L212.44 134.088Z" fill="#6F6356"/>
<path d="M187.145 127.56C188.121 127.544 189.097 127.528 190.073 127.464L200.761 126.68L200.969 129.24C199.337 129.272 197.993 129.448 196.537 130.264C195.081 131.08 193.785 132.392 193.785 134.152C193.785 136.568 196.649 137.24 198.553 137.384L197.353 139.912C194.201 139.544 191.113 137.928 191.113 134.344C191.113 132.84 191.705 131.352 192.809 130.312C193.177 129.96 193.609 129.656 194.025 129.368L187.337 130.232L187.145 127.56ZM196.521 131.816L197.865 131.048C198.617 131.944 199.177 132.984 199.689 134.024L198.281 134.856C197.769 133.672 197.305 132.856 196.521 131.816ZM198.697 130.6L200.057 129.88C200.825 130.776 201.401 131.768 201.929 132.824L200.521 133.608C199.945 132.392 199.529 131.656 198.697 130.6Z" fill="#6F6356"/>
<path d="M175.448 127.656L175.432 125.848H177.944L177.96 127.624C179.608 127.608 181.24 127.576 182.888 127.496L182.872 129.848C181.24 129.88 179.608 129.912 177.976 129.928L177.992 130.888C179.4 130.84 180.808 130.792 182.232 130.712V133.032C180.824 133.08 179.416 133.128 178.008 133.16V134.616C179.72 135.064 181.16 135.768 182.68 136.68L181.496 139.096C180.344 138.264 179.288 137.672 177.976 137.144C177.912 139.208 176.248 139.864 174.424 139.864C172.664 139.864 170.6 139.128 170.6 137.032C170.6 135.928 171.288 135.032 172.296 134.616C173.08 134.296 173.944 134.2 174.776 134.2C175.016 134.2 175.256 134.2 175.496 134.216L175.48 133.192C173.928 133.208 172.376 133.224 170.808 133.208L170.824 130.872C171.768 130.904 172.712 130.936 173.672 130.936C174.264 130.936 174.872 130.92 175.464 130.92V129.96C174.584 129.96 173.704 129.976 172.84 129.976C171.976 129.976 171.128 129.96 170.264 129.96L170.28 127.592C172.008 127.64 173.72 127.656 175.448 127.656ZM175.48 136.568V136.408C175.16 136.36 174.84 136.344 174.52 136.344C174.056 136.344 172.904 136.392 172.904 137.064C172.904 137.608 173.784 137.704 174.184 137.704C175.432 137.704 175.48 137.128 175.48 136.568Z" fill="#6F6356"/>
<path d="M161.262 125.16C163.982 127.048 165.678 130.056 165.678 133.816C165.678 137.576 163.982 140.584 161.262 142.472L159.95 141.032C162.014 139.416 163.342 136.936 163.342 133.816C163.342 130.696 162.014 128.232 159.95 126.6L161.262 125.16Z" fill="#6F6356"/>
<path d="M145.198 130.583C144.526 130.919 143.838 131.239 143.15 131.527L141.982 129.127C144.27 128.423 146.942 127.111 148.542 125.319H151.038C152.958 127.095 155.102 128.295 157.566 129.159L156.414 131.623C155.726 131.319 155.054 130.999 154.398 130.631V131.623H150.99V132.711H156.75V134.967H150.99V137.911H151.982C152.35 136.967 152.654 136.023 152.91 135.047L155.342 135.703C155.07 136.455 154.766 137.191 154.462 137.911H157.102V140.183H142.414V137.911H144.99C144.734 137.095 144.51 136.519 144.158 135.751L146.51 135.079C146.942 135.975 147.262 136.935 147.518 137.911H148.558V134.967H142.798V132.711H148.558V131.623H145.198V130.583ZM147.166 129.447H152.43C151.454 128.775 150.622 128.071 149.774 127.239C148.958 128.103 148.158 128.807 147.166 129.447Z" fill="#6F6356"/>
<path d="M138.292 142.472C135.572 140.6 133.876 137.592 133.876 133.816C133.876 130.056 135.572 127.048 138.292 125.176L139.62 126.6C137.54 128.232 136.212 130.696 136.212 133.816C136.212 136.936 137.54 139.416 139.62 141.032L138.292 142.472Z" fill="#6F6356"/>
<path d="M116.548 125.943H129.444V140.007H116.548V125.943ZM119.06 131.703H126.884V128.327H119.06V131.703ZM119.06 134.039V137.623H126.884V134.039H119.06Z" fill="#6F6356"/>
<path d="M111.654 128.776C111.03 128.52 110.47 128.408 109.622 128.408C107.51 128.408 106.486 129.672 106.23 131.928C106.982 131.208 107.894 130.824 108.998 130.824C111.382 130.824 112.934 132.424 112.934 134.872C112.934 137.432 111.174 139.384 108.262 139.384C105.142 139.384 103.27 137.24 103.27 133.064C103.27 128.616 105.542 126.008 109.606 126.008C110.566 126.008 111.35 126.152 111.99 126.344L111.654 128.776ZM108.23 132.888C107.35 132.888 106.662 133.304 106.182 133.928C106.326 136.024 106.998 136.952 108.166 136.952C109.318 136.952 109.91 136.056 109.91 134.824C109.91 133.608 109.318 132.888 108.23 132.888Z" fill="#6F6356"/>
<path d="M95.3349 139.128V129.72C94.6309 130.328 93.8629 130.84 92.9829 131.304L91.7349 129.176C93.2549 128.36 94.6629 127.4 95.7829 126.264H98.1509V139.128H95.3349Z" fill="#6F6356"/>
<path d="M86.7587 125.88V138.92C86.7587 139.832 86.1667 140.488 85.2387 140.488H81.4947L81.0947 137.96H83.7827C84.1027 137.96 84.2627 137.784 84.2627 137.48V135.624H77.2227C76.9667 137.432 76.4387 139.08 75.3827 140.584L73.2227 138.84C74.5347 136.984 74.9827 134.84 74.9827 132.584V125.88H86.7587ZM77.4147 128.28V129.672H84.2627V128.28H77.4147ZM77.4147 131.896V133.384H84.2627V131.896H77.4147Z" fill="#6F6356"/>
<path d="M65.704 139.448C62.792 139.448 61 138.104 61 135.976C61 134.504 61.928 133.4 63.368 132.776C62.2 132.136 61.272 131.192 61.272 129.496C61.272 127.176 63.32 125.96 65.848 125.96C68.776 125.96 70.28 127.464 70.28 129.336C70.28 130.552 69.544 131.688 68.12 132.296C69.448 132.936 70.6 133.896 70.6 135.688C70.6 138.136 68.632 139.448 65.704 139.448ZM64.216 129.576C64.216 130.472 65.032 131.016 66.104 131.48C67.016 130.984 67.336 130.232 67.336 129.64C67.336 128.712 66.712 128.232 65.784 128.232C64.808 128.232 64.216 128.776 64.216 129.576ZM63.944 135.608C63.944 136.568 64.664 137.144 65.8 137.144C67.032 137.144 67.656 136.44 67.656 135.656C67.656 134.648 66.584 134.136 65.32 133.64C64.344 134.152 63.944 134.888 63.944 135.608Z" fill="#6F6356"/>
<path d="M94.767 115.26H100.657V116.7H97.657V117.66H100.337V119.06H97.657V120.39H101.007V121.83H97.657V123.94H96.117V121.83H91.547V120.39H92.897V118.16C92.737 118.32 92.557 118.48 92.377 118.63L91.397 117.31C92.347 116.57 93.107 115.52 93.437 114.36L94.997 114.57C94.927 114.81 94.857 115.02 94.767 115.26ZM94.037 116.7C93.827 117.04 93.597 117.35 93.347 117.66H96.117V116.7H94.037ZM96.117 119.06H94.387V120.39H96.117V119.06Z" fill="#6F6356"/>
<path d="M87.3976 123.08V121.45H83.8076V119.95L87.2776 115H89.0776V119.95H90.0676V121.45H89.0776V123.08H87.3976ZM85.4376 119.95H87.3976V117.1L85.4376 119.95Z" fill="#6F6356"/>
<path d="M76.4284 123.081V121.691L78.9384 119.391C79.6984 118.671 80.0584 118.211 80.0584 117.591C80.0584 116.921 79.6184 116.501 78.9484 116.501C78.2584 116.501 77.6684 116.921 77.2084 117.611L76.3984 116.181C77.0984 115.361 78.0284 114.881 79.1784 114.881C80.8084 114.881 81.9184 115.801 81.9184 117.321C81.9184 118.471 81.3484 119.211 80.0584 120.371L78.8184 121.481H81.9984V123.081H76.4284Z" fill="#6F6356"/>
<path d="M71.5293 123.231C69.6593 123.231 68.5293 121.781 68.5293 119.061C68.5293 116.341 69.6593 114.891 71.5293 114.891C73.3993 114.891 74.5293 116.341 74.5293 119.061C74.5293 121.781 73.3993 123.231 71.5293 123.231ZM71.5293 121.681C72.2393 121.681 72.6393 120.901 72.6393 119.061C72.6393 117.221 72.2393 116.441 71.5293 116.441C70.8193 116.441 70.4193 117.221 70.4193 119.061C70.4193 120.901 70.8193 121.681 71.5293 121.681Z" fill="#6F6356"/>
<path d="M61.03 123.081V121.691L63.54 119.391C64.3 118.671 64.66 118.211 64.66 117.591C64.66 116.921 64.22 116.501 63.55 116.501C62.86 116.501 62.27 116.921 61.81 117.611L61 116.181C61.7 115.361 62.63 114.881 63.78 114.881C65.41 114.881 66.52 115.801 66.52 117.321C66.52 118.471 65.95 119.211 64.66 120.371L63.42 121.481H66.6V123.081H61.03Z" fill="#6F6356"/>
<path d="M320.389 282.473C321.196 282.473 321.842 283.119 321.842 283.926C321.842 284.734 321.196 285.38 320.389 285.38C319.591 285.38 318.935 284.734 318.935 283.926C318.935 283.128 319.591 282.473 320.389 282.473ZM320.389 283.033C319.895 283.033 319.496 283.432 319.496 283.926C319.496 284.42 319.895 284.819 320.389 284.819C320.892 284.819 321.291 284.42 321.291 283.926C321.291 283.432 320.883 283.033 320.389 283.033Z" fill="#6F6356"/>
<path d="M315.76 279.328L315.798 282.235C315.817 284.05 314.877 285.133 313.224 285.75L312.53 284.886C313.433 284.572 314.164 284.164 314.592 283.261C314.288 283.518 313.955 283.641 313.556 283.641C312.502 283.641 311.818 282.767 311.818 281.76C311.818 280.677 312.587 279.86 313.68 279.86C314.107 279.86 314.44 279.965 314.772 280.231L314.753 279.347L311.97 279.423C311.381 279.442 310.801 279.461 310.212 279.499L310.193 278.454C310.497 278.464 310.811 278.473 311.124 278.473C311.39 278.473 311.666 278.473 311.941 278.464L314.725 278.407L314.696 277.21H315.741L315.751 278.388L316.577 278.369C317.147 278.35 317.727 278.331 318.297 278.283L318.316 279.319C318.031 279.3 317.746 279.3 317.461 279.3C317.166 279.3 316.881 279.3 316.587 279.3L315.76 279.328ZM314.706 281.751C314.706 281.19 314.345 280.753 313.765 280.753C313.195 280.753 312.825 281.209 312.825 281.751C312.825 282.302 313.176 282.748 313.746 282.748C314.316 282.748 314.706 282.302 314.706 281.751Z" fill="#6F6356"/>
<path d="M304.323 278.549L304.313 277.295H305.368L305.377 278.539C306.384 278.52 307.382 278.492 308.389 278.454V279.451C307.391 279.489 306.384 279.508 305.377 279.527L305.387 280.401C306.261 280.382 307.135 280.354 308.009 280.306L308.018 281.313C307.144 281.351 306.27 281.37 305.396 281.389V282.615C306.451 282.862 307.334 283.308 308.256 283.859L307.733 284.866C306.973 284.334 306.27 283.964 305.396 283.65C305.387 284.144 305.396 284.562 305.016 284.942C304.627 285.322 303.943 285.427 303.411 285.427C302.489 285.427 301.349 285.028 301.349 283.935C301.349 282.7 302.698 282.396 303.677 282.396C303.905 282.396 304.133 282.415 304.351 282.434L304.342 281.408C303.848 281.418 303.344 281.427 302.841 281.427C302.375 281.427 301.91 281.418 301.444 281.418V280.392C301.986 280.411 302.527 280.42 303.059 280.42C303.487 280.42 303.914 280.42 304.342 280.42L304.332 279.537C303.819 279.537 303.316 279.546 302.812 279.546C302.242 279.546 301.682 279.537 301.121 279.527V278.511C302.185 278.539 303.259 278.549 304.323 278.549ZM304.351 283.384C304.104 283.346 303.857 283.318 303.61 283.318C303.202 283.318 302.347 283.384 302.347 283.954C302.347 284.41 302.993 284.524 303.344 284.524C304.427 284.524 304.351 283.973 304.351 283.384Z" fill="#6F6356"/>
<path d="M292.542 277.467L293.587 277.59C293.369 278.616 293.236 279.661 293.236 280.716C293.236 281.001 293.255 281.286 293.264 281.58C293.483 281.077 293.711 280.583 293.948 280.098L294.594 280.678C294.167 281.495 293.72 282.445 293.483 283.338L292.628 283.433C292.333 282.454 292.219 281.542 292.219 280.526C292.219 279.5 292.343 278.474 292.542 277.467ZM296.988 277.457H298.081C298.166 278.464 298.252 279.471 298.252 280.488C298.252 282.996 297.615 284.449 295.297 285.599L294.423 284.858C295.316 284.421 296.152 283.898 296.656 283.015C297.121 282.217 297.159 281.276 297.159 280.374C297.159 279.395 297.074 278.426 296.988 277.457Z" fill="#6F6356"/>
<path d="M283.689 278.72C283.85 278.217 284.002 277.713 284.145 277.21L285.247 277.419C285.104 277.827 284.962 278.236 284.819 278.644C285.285 278.597 285.741 278.54 286.197 278.454L286.149 279.499C285.598 279.575 285 279.651 284.449 279.68C283.926 281.133 283.347 282.558 282.682 283.955L281.656 283.499C282.292 282.283 282.853 281.029 283.328 279.746C282.995 279.756 282.653 279.756 282.321 279.756C282.197 279.756 282.074 279.756 281.95 279.756L281.912 278.692C282.273 278.72 282.625 278.73 282.986 278.73C283.214 278.73 283.451 278.73 283.689 278.72ZM287.821 282.663C288.534 282.929 289.17 283.29 289.797 283.717L289.284 284.648C288.828 284.325 288.363 284.021 287.859 283.784C287.85 285 287.166 285.446 286.007 285.446C285.028 285.446 283.898 285.009 283.898 283.869C283.898 282.805 284.895 282.292 285.836 282.292C286.149 282.292 286.463 282.34 286.776 282.397C286.738 281.713 286.71 281.019 286.7 280.335L287.717 280.354C287.726 281.124 287.783 281.893 287.821 282.663ZM286.833 283.366C286.529 283.271 286.083 283.214 285.769 283.214C285.38 283.214 284.848 283.366 284.848 283.85C284.848 284.382 285.484 284.534 285.912 284.534C286.434 284.534 286.852 284.392 286.852 283.803C286.852 283.651 286.843 283.508 286.833 283.366ZM286.729 279.214L287.185 278.34C288.087 278.692 288.914 279.072 289.759 279.556L289.294 280.497C288.486 279.974 287.641 279.518 286.729 279.214Z" fill="#6F6356"/>
<path d="M280.088 282.169H278.245V282.948H280.639V283.813H271.833V282.948H274.217V282.169H272.355V281.381H274.217V280.621H272.517V277.248H279.955V280.621H278.245V281.381H280.088V282.169ZM279.053 277.98H276.64V278.607H279.053V277.98ZM275.794 277.98H273.429V278.607H275.794V277.98ZM279.053 279.243H276.64V279.899H279.053V279.243ZM275.794 279.243H273.429V279.899H275.794V279.243ZM277.314 280.621H275.148V281.381H277.314V280.621ZM277.314 282.169H275.148V282.948H277.314V282.169ZM280.269 285.846C279.195 285.665 278.131 285.133 277.219 284.544L277.865 283.841C278.768 284.402 279.594 284.753 280.649 284.934L280.269 285.846ZM275.329 284.535C274.455 285.19 273.315 285.608 272.241 285.798L271.909 284.934C272.925 284.753 273.809 284.487 274.654 283.86L275.329 284.535Z" fill="#6F6356"/>
<path d="M264.042 277.467L265.087 277.59C264.869 278.616 264.736 279.661 264.736 280.716C264.736 281.001 264.755 281.286 264.764 281.58C264.983 281.077 265.211 280.583 265.448 280.098L266.094 280.678C265.667 281.495 265.22 282.445 264.983 283.338L264.128 283.433C263.833 282.454 263.719 281.542 263.719 280.526C263.719 279.5 263.843 278.474 264.042 277.467ZM268.488 277.457H269.581C269.666 278.464 269.752 279.471 269.752 280.488C269.752 282.996 269.115 284.449 266.797 285.599L265.923 284.858C266.816 284.421 267.652 283.898 268.156 283.015C268.621 282.217 268.659 281.276 268.659 280.374C268.659 279.395 268.574 278.426 268.488 277.457Z" fill="#6F6356"/>
<path d="M257.763 280.155L257.801 282.169C259.102 282.511 260.119 282.995 261.249 283.708L260.717 284.658C259.786 284.012 258.874 283.546 257.801 283.185V283.423C257.801 284.002 257.772 284.553 257.288 284.943C256.851 285.285 256.271 285.37 255.72 285.37C254.656 285.37 253.345 284.905 253.345 283.632C253.345 282.995 253.725 282.53 254.276 282.254C254.78 282.007 255.397 281.95 255.939 281.95C256.214 281.95 256.48 281.969 256.746 281.998L256.651 277.238L257.725 277.295L257.753 279.138C258.732 279.091 259.482 279.015 260.451 278.815L260.442 279.917C259.53 280.031 258.684 280.107 257.763 280.155ZM256.756 283.043V282.967C256.452 282.919 256.138 282.891 255.834 282.891C255.34 282.891 254.314 282.967 254.314 283.641C254.314 284.259 255.198 284.42 255.663 284.42C256.746 284.42 256.756 283.917 256.756 283.043Z" fill="#6F6356"/>
<path d="M244.568 277.608L245.67 277.741C245.328 279.176 245.119 280.639 245.119 282.121C245.119 283.147 245.223 284.106 245.442 285.113L244.406 285.246C244.15 284.239 244.083 283.175 244.083 282.14C244.083 280.601 244.264 279.119 244.568 277.608ZM251.199 279.404C250.657 279.356 250.106 279.328 249.565 279.328C248.681 279.328 247.807 279.404 246.933 279.518L246.952 278.435C247.845 278.349 248.738 278.283 249.631 278.283C250.163 278.283 250.695 278.302 251.218 278.349L251.199 279.404ZM247.921 282.054C247.722 282.32 247.541 282.643 247.541 282.995C247.541 283.28 247.712 283.479 247.978 283.584C248.349 283.736 248.957 283.755 249.356 283.755C250.135 283.755 250.838 283.669 251.598 283.527L251.579 284.638C250.876 284.743 250.173 284.8 249.46 284.8C248.33 284.8 246.572 284.714 246.572 283.185C246.572 282.7 246.753 282.273 247.019 281.874L247.921 282.054Z" fill="#6F6356"/>
<path d="M239.761 279.5L239.713 277.391H240.768L240.796 279.414C241.309 279.357 241.822 279.319 242.335 279.234L242.421 280.298C241.879 280.307 241.338 280.345 240.796 280.383C240.777 281.02 240.796 281.941 240.492 282.502C240.359 282.739 240.141 282.929 239.884 283.005C239.457 283.148 238.972 283.176 238.526 283.176C238.488 283.176 238.45 283.176 238.412 283.176L238.136 282.179C238.307 282.198 238.478 282.207 238.659 282.207C239.818 282.207 239.732 281.941 239.761 280.469L236.778 280.725V282.255C236.778 282.948 236.711 283.68 237.158 284.003C237.566 284.316 238.497 284.316 239.001 284.316C239.837 284.316 240.663 284.25 241.49 284.174L241.366 285.228C240.578 285.285 239.78 285.323 238.982 285.323C238.136 285.323 236.977 285.314 236.331 284.696C235.79 284.174 235.742 283.499 235.742 282.787L235.733 280.811C235.21 280.858 234.688 280.906 234.165 280.982L234.08 279.927C234.631 279.918 235.182 279.88 235.723 279.832L235.714 277.609H236.787L236.778 279.747L239.761 279.5Z" fill="#6F6356"/>
<path d="M227.506 279.832C228.285 279.253 229.035 278.863 230.033 278.863C231.705 278.863 232.816 279.994 232.816 281.656C232.816 283.784 231.106 284.896 229.178 285.143L228.798 284.145C230.232 284.012 231.733 283.252 231.733 281.618C231.733 280.554 231.021 279.842 229.957 279.842C229.007 279.842 228.161 280.393 227.496 281.029C227.487 281.675 227.487 282.312 227.487 282.958C227.487 283.784 227.496 284.611 227.506 285.447H226.48L226.499 282.122C226.062 282.749 225.634 283.404 225.235 284.06L224.437 283.357C225.14 282.388 225.824 281.39 226.508 280.402L226.518 279.965C225.967 280.041 225.416 280.098 224.865 280.117L224.76 279.072C225.349 279.072 225.938 279.044 226.518 278.977L226.527 277.324H227.544C227.534 278.16 227.515 278.996 227.506 279.832Z" fill="#6F6356"/>
<path d="M221.777 279.794V280.544H216.799V279.775C216.267 280.088 215.849 280.307 215.288 280.544L214.709 279.556C216.181 279.072 217.758 278.112 218.784 276.925H219.715C220.912 278.236 222.166 278.901 223.8 279.556L223.211 280.544C222.689 280.316 222.271 280.088 221.777 279.794ZM217.017 279.642H221.53C220.646 279.072 219.943 278.549 219.231 277.761C218.594 278.511 217.844 279.11 217.017 279.642ZM215.697 281.504H222.774V285.646H215.697V281.504ZM221.767 282.397H216.694V284.753H221.767V282.397Z" fill="#6F6356"/>
<path d="M211.393 282.558C210.795 282.178 210.158 281.817 209.465 281.617C209.132 282.282 208.819 282.862 208.401 283.479C208.04 284.011 207.584 284.667 206.871 284.667C206.035 284.667 205.693 283.85 205.693 283.128C205.693 281.627 206.957 280.468 208.439 280.468C208.6 280.468 208.762 280.477 208.933 280.506C209.199 279.898 209.446 279.29 209.693 278.672C208.999 278.748 208.306 278.796 207.612 278.796C207.432 278.796 207.251 278.796 207.071 278.786L207.052 277.76C207.403 277.779 207.764 277.789 208.125 277.789C208.857 277.789 209.645 277.76 210.367 277.608L211.023 278.112C210.652 278.986 210.282 279.85 209.911 280.715C210.567 280.943 211.203 281.228 211.802 281.598C212.02 280.943 212.144 280.325 212.201 279.641L213.227 279.907C213.141 280.762 212.989 281.38 212.695 282.187C213.122 282.501 213.54 282.814 213.93 283.166L213.35 284.135C213.008 283.793 212.638 283.479 212.258 283.175C211.773 284.116 211.165 284.904 210.358 285.579L209.455 284.942C210.272 284.315 210.937 283.479 211.393 282.558ZM208.429 281.446C207.299 281.38 206.624 282.301 206.624 283.128C206.624 283.289 206.672 283.612 206.89 283.612C207.223 283.612 207.85 282.567 208.429 281.446Z" fill="#6F6356"/>
<path d="M197.077 280.345C196.669 279.832 196.203 279.395 195.709 279.053L196.184 278.284C196.279 278.36 196.384 278.426 196.469 278.502C196.906 277.856 197.03 277.609 197.343 276.935L198.284 277.248C197.913 277.961 197.59 278.445 197.125 279.082C197.286 279.243 197.448 279.405 197.6 279.576C197.951 279.053 198.274 278.502 198.588 277.942L199.471 278.322C198.901 279.215 198.217 280.155 197.571 281.048C197.98 281.029 198.379 281.001 198.787 280.982C198.711 280.725 198.645 280.545 198.531 280.298L199.338 280.013C199.671 280.735 199.794 281.124 199.975 281.884L199.101 282.16C199.063 282.008 199.034 281.846 198.987 281.694L198.208 281.77V285.874H197.277V281.865C196.754 281.903 196.222 281.951 195.7 281.998L195.633 281.115C195.937 281.115 196.222 281.115 196.526 281.105C196.716 280.849 196.897 280.602 197.077 280.345ZM196.897 282.635C196.897 283.309 196.745 284.63 196.574 285.238L195.728 284.867C195.966 284.126 196.08 283.309 196.099 282.53L196.897 282.635ZM199.253 282.426C199.5 283.252 199.557 283.461 199.709 284.316L198.863 284.497C198.768 283.756 198.692 283.3 198.502 282.568L199.253 282.426ZM200.079 277.248H204.212V284.668H204.706V285.599H199.272V284.668H200.079V277.248ZM203.243 278.17H201.029V279.68H203.243V278.17ZM203.243 280.573H201.029V282.046H203.243V280.573ZM203.243 282.939H201.029V284.668H203.243V282.939Z" fill="#6F6356"/>
<path d="M190.494 280.184C191.548 279.804 192.707 279.5 193.79 279.224L194.113 280.288C192.802 280.583 191.035 281.001 189.819 281.542C189.211 281.818 188.29 282.331 188.29 283.1C188.29 283.528 188.546 283.775 188.926 283.927C189.487 284.155 190.465 284.212 191.083 284.212C192.128 284.212 193.163 284.079 194.189 283.917L194.275 285.019C193.249 285.171 192.175 285.247 191.14 285.247C189.715 285.247 187.216 285.095 187.216 283.148C187.216 281.827 188.394 281.077 189.468 280.592C189.382 280.26 189.306 279.918 189.24 279.576L188.822 277.457L189.914 277.248L190.294 279.329C190.351 279.623 190.418 279.899 190.494 280.184Z" fill="#6F6356"/>
<path d="M184.47 283.043H182.76C182.608 284.05 182.238 285.038 181.63 285.855L180.803 285.209C181.117 284.772 181.402 284.316 181.573 283.812C181.953 282.729 182.01 281.447 182.01 280.307V277.219H185.411V285.095C185.411 285.665 185.154 285.855 184.603 285.855H183.387L183.235 284.895H184.166C184.375 284.895 184.47 284.829 184.47 284.61V283.043ZM184.47 278.112H182.931V279.68H184.47V278.112ZM184.47 280.563H182.931L182.865 282.131H184.47V280.563ZM178.827 283.812C178.485 284.572 177.934 285.304 177.317 285.855L176.671 285.123C177.165 284.686 177.659 284.021 177.963 283.432L178.827 283.812ZM177.459 276.925H178.362V277.78H180.167V276.925H181.069V277.78H181.63V278.682H181.069V282.416H181.63V283.29H176.747V282.416H177.459V278.682H176.918V277.78H177.459V276.925ZM180.167 278.682H178.362V279.357H180.167V278.682ZM180.167 280.155H178.362V280.858H180.167V280.155ZM180.167 281.618H178.362V282.416H180.167V281.618ZM180.091 283.442C180.471 283.793 180.822 284.192 181.069 284.648L180.376 285.256C180.186 284.905 179.701 284.24 179.435 283.945L180.091 283.442Z" fill="#6F6356"/>
<path d="M167.513 277.305H170.477V285.218H167.513V277.305ZM169.574 278.264H168.425V280.744H169.574V278.264ZM169.574 281.637H168.425V284.287H169.574V281.637ZM175.236 282.52V284.848C175.236 285.608 174.951 285.817 174.22 285.817H172.823L172.633 284.848H173.982C174.191 284.848 174.258 284.772 174.258 284.563V282.52H170.847V281.608H174.258V280.668H170.771V279.746H172.994V278.644H171.104V277.732H172.994V276.925H173.954V277.732H175.911V278.644H173.954V279.746H176.205V280.668H175.236V281.608H176.129V282.52H175.236ZM171.721 282.682C172.291 283.204 172.595 283.556 173.004 284.211L172.177 284.838C171.721 284.135 171.55 283.85 170.952 283.233L171.721 282.682Z" fill="#6F6356"/>
<path d="M163.893 282.558C163.295 282.178 162.658 281.817 161.965 281.617C161.632 282.282 161.319 282.862 160.901 283.479C160.54 284.011 160.084 284.667 159.371 284.667C158.535 284.667 158.193 283.85 158.193 283.128C158.193 281.627 159.457 280.468 160.939 280.468C161.1 280.468 161.262 280.477 161.433 280.506C161.699 279.898 161.946 279.29 162.193 278.672C161.499 278.748 160.806 278.796 160.112 278.796C159.932 278.796 159.751 278.796 159.571 278.786L159.552 277.76C159.903 277.779 160.264 277.789 160.625 277.789C161.357 277.789 162.145 277.76 162.867 277.608L163.523 278.112C163.152 278.986 162.782 279.85 162.411 280.715C163.067 280.943 163.703 281.228 164.302 281.598C164.52 280.943 164.644 280.325 164.701 279.641L165.727 279.907C165.641 280.762 165.489 281.38 165.195 282.187C165.622 282.501 166.04 282.814 166.43 283.166L165.85 284.135C165.508 283.793 165.138 283.479 164.758 283.175C164.273 284.116 163.665 284.904 162.858 285.579L161.955 284.942C162.772 284.315 163.437 283.479 163.893 282.558ZM160.929 281.446C159.799 281.38 159.124 282.301 159.124 283.128C159.124 283.289 159.172 283.612 159.39 283.612C159.723 283.612 160.35 282.567 160.929 281.446Z" fill="#6F6356"/>
<path d="M153.833 278.208H151.819V277.267H154.83C154.925 279.68 155.524 281.618 157.357 283.281L156.673 284.164C155.438 282.929 154.678 281.628 154.289 279.918C153.804 281.58 152.721 282.996 151.42 284.107L150.688 283.224C152.389 282.207 153.557 280.146 153.833 278.208ZM149.083 277.077C149.767 277.571 150.28 278.027 150.821 278.673L150.118 279.395C149.624 278.768 149.045 278.227 148.427 277.742L149.083 277.077ZM148.304 280.583H150.394V283.623C150.907 284.43 151.486 284.62 152.408 284.62H157.281L157.101 285.589H152.626C151.515 285.589 150.688 285.333 149.995 284.44C149.624 284.905 149.13 285.418 148.665 285.798L148.171 284.639C148.617 284.383 149.045 284.088 149.444 283.756V281.533H148.304V280.583Z" fill="#6F6356"/>
<path d="M140.58 277.371L141.72 277.438L141.53 282.264C141.521 282.359 141.521 282.444 141.521 282.53C141.521 283.081 141.559 283.641 142.024 284.002C142.347 284.259 142.784 284.344 143.193 284.344C144.903 284.344 145.815 282.767 146.28 281.323L147.268 281.884C146.575 283.793 145.425 285.408 143.193 285.408C142.3 285.408 141.312 285.142 140.799 284.344C140.457 283.822 140.4 283.242 140.4 282.625C140.4 282.53 140.409 282.425 140.409 282.33L140.58 277.371Z" fill="#6F6356"/>
<path d="M134.216 285.845H133.218V283.546H129.827V278.169H133.218V276.943H134.216V278.169H137.626V283.546H134.216V285.845ZM130.796 279.081V280.401H133.218V279.081H130.796ZM136.667 279.081H134.216V280.401H136.667V279.081ZM130.796 281.256V282.624H133.218V281.256H130.796ZM136.667 281.256H134.216V282.624H136.667V281.256Z" fill="#6F6356"/>
<path d="M122.483 278.863V277.248H123.518V278.797C124.183 278.721 124.753 278.635 125.409 278.483L125.428 279.538C124.791 279.642 124.155 279.728 123.518 279.804V280.782C124.174 280.592 124.772 280.44 125.456 280.44C126.406 280.44 127.347 280.754 127.841 281.618C128.059 282.008 128.173 282.464 128.173 282.91C128.173 283.642 127.85 284.44 127.204 284.839C126.786 285.105 126.264 285.209 125.77 285.209C125.428 285.209 125.133 285.162 124.801 285.057L124.791 283.965C125.105 284.098 125.38 284.174 125.722 284.174C126.53 284.174 127.09 283.718 127.09 282.882C127.09 281.808 126.254 281.409 125.304 281.409C124.658 281.409 124.126 281.552 123.518 281.77V283.623C123.518 283.927 123.518 284.288 123.433 284.582C123.271 285.105 122.853 285.39 122.312 285.39C121.808 285.39 121.276 285.181 120.887 284.886C120.478 284.573 120.241 284.155 120.241 283.632C120.241 282.483 121.542 281.599 122.483 281.162V279.88C122.008 279.908 121.542 279.927 121.077 279.927C120.896 279.927 120.725 279.918 120.545 279.918L120.535 278.863C120.896 278.882 121.248 278.882 121.609 278.882C121.894 278.882 122.188 278.882 122.483 278.863ZM122.502 282.226C122.027 282.492 121.172 283.034 121.172 283.651C121.172 284.088 121.751 284.421 122.131 284.421C122.483 284.421 122.502 284.069 122.502 283.775V282.226ZM125.827 278.645L126.482 277.923C127.271 278.426 127.888 278.958 128.515 279.671L127.746 280.393C127.166 279.671 126.615 279.148 125.827 278.645Z" fill="#6F6356"/>
<path d="M115.577 278.654C115.577 279.11 115.206 279.48 114.75 279.48C114.294 279.48 113.924 279.11 113.924 278.654C113.924 278.198 114.294 277.837 114.75 277.837C115.206 277.837 115.577 278.198 115.577 278.654ZM118.227 284.335L117.695 284.867L114.75 281.903L111.805 284.867L111.273 284.335L114.237 281.39L111.273 278.445L111.805 277.913L114.75 280.877L117.695 277.913L118.227 278.445L115.263 281.39L118.227 284.335ZM112.841 281.39C112.841 281.846 112.47 282.216 112.014 282.216C111.558 282.216 111.197 281.846 111.197 281.39C111.197 280.934 111.558 280.563 112.014 280.563C112.47 280.563 112.841 280.934 112.841 281.39ZM118.303 281.39C118.303 281.846 117.942 282.216 117.486 282.216C117.03 282.216 116.66 281.846 116.66 281.39C116.66 280.934 117.03 280.563 117.486 280.563C117.942 280.563 118.303 280.934 118.303 281.39ZM115.577 284.126C115.577 284.582 115.206 284.943 114.75 284.943C114.294 284.943 113.924 284.582 113.924 284.126C113.924 283.67 114.294 283.299 114.75 283.299C115.206 283.299 115.577 283.67 115.577 284.126Z" fill="#6F6356"/>
<path d="M305.51 185.618H282.116V200.906H275.648V162.266H312.02V196.034C312.02 199.226 310.718 200.906 307.442 200.906H299.588L298.454 194.396H304.25C305.258 194.396 305.51 194.018 305.51 193.094V185.618ZM296.942 168.44V179.57H305.51V168.44H296.942ZM282.116 168.44V179.57H290.684V168.44H282.116Z" fill="#B61C31"/>
<path d="M258.767 197.965C250.913 197.965 246.167 191.876 246.167 180.452C246.167 169.028 250.913 162.938 258.767 162.938C266.621 162.938 271.367 169.028 271.367 180.452C271.367 191.876 266.621 197.965 258.767 197.965ZM258.767 191.456C261.749 191.456 263.429 188.18 263.429 180.452C263.429 172.724 261.749 169.448 258.767 169.448C255.785 169.448 254.105 172.724 254.105 180.452C254.105 188.18 255.785 191.456 258.767 191.456Z" fill="#B61C31"/>
<path d="M230.631 197.965C222.777 197.965 218.031 191.876 218.031 180.452C218.031 169.028 222.777 162.938 230.631 162.938C238.485 162.938 243.231 169.028 243.231 180.452C243.231 191.876 238.485 197.965 230.631 197.965ZM230.631 191.456C233.613 191.456 235.293 188.18 235.293 180.452C235.293 172.724 233.613 169.448 230.631 169.448C227.649 169.448 225.969 172.724 225.969 180.452C225.969 188.18 227.649 191.456 230.631 191.456Z" fill="#B61C31"/>
<path d="M202.242 198.176C194.598 198.176 189.894 194.648 189.894 189.062C189.894 185.198 192.33 182.3 196.11 180.662C193.044 178.982 190.608 176.504 190.608 172.052C190.608 165.962 195.984 162.77 202.62 162.77C210.306 162.77 214.254 166.718 214.254 171.632C214.254 174.824 212.322 177.806 208.584 179.402C212.07 181.082 215.094 183.602 215.094 188.306C215.094 194.732 209.928 198.176 202.242 198.176ZM198.336 172.262C198.336 174.614 200.478 176.042 203.292 177.26C205.686 175.958 206.526 173.984 206.526 172.43C206.526 169.994 204.888 168.734 202.452 168.734C199.89 168.734 198.336 170.162 198.336 172.262ZM197.622 188.096C197.622 190.616 199.512 192.128 202.494 192.128C205.728 192.128 207.366 190.28 207.366 188.222C207.366 185.576 204.552 184.232 201.234 182.93C198.672 184.274 197.622 186.206 197.622 188.096Z" fill="#B61C31"/>
<path d="M180.447 204.728L174.483 203.846C176.877 199.94 177.927 195.908 177.927 191.414C177.927 190.112 177.801 189.02 177.759 188.516H185.067C185.109 189.062 185.277 190.238 185.277 191.666C185.277 196.538 183.639 201.074 180.447 204.728Z" fill="#B61C31"/>
<path d="M162.181 197.335V190.489H147.103V184.189L161.677 163.399H169.237V184.189H173.395V190.489H169.237V197.335H162.181ZM153.949 184.189H162.181V172.219L153.949 184.189Z" fill="#B61C31"/>
<path d="M141.562 170.162C139.924 169.49 138.454 169.196 136.228 169.196C130.684 169.196 127.996 172.514 127.324 178.436C129.298 176.546 131.692 175.538 134.59 175.538C140.848 175.538 144.922 179.738 144.922 186.164C144.922 192.884 140.302 198.008 132.658 198.008C124.468 198.008 119.554 192.38 119.554 181.418C119.554 169.742 125.518 162.896 136.186 162.896C138.706 162.896 140.764 163.274 142.444 163.778L141.562 170.162ZM132.574 180.956C130.264 180.956 128.458 182.048 127.198 183.686C127.576 189.188 129.34 191.624 132.406 191.624C135.43 191.624 136.984 189.272 136.984 186.038C136.984 182.846 135.43 180.956 132.574 180.956Z" fill="#B61C31"/>
<path d="M308.421 244.6L304.725 244.168C304.869 239.344 307.461 237.136 310.341 237.136C312.357 237.136 313.989 238.096 315.765 239.368C316.965 240.208 317.685 240.544 318.381 240.544C319.605 240.544 320.373 239.224 320.517 237.16L324.213 237.592C324.069 242.416 321.477 244.624 318.621 244.624C316.581 244.624 314.949 243.664 313.173 242.392C311.973 241.552 311.277 241.216 310.557 241.216C309.333 241.216 308.565 242.56 308.421 244.6Z" fill="#6F6356"/>
<path d="M291.309 248.895H282.549V238.887C281.973 239.487 281.397 240.015 280.773 240.543L278.661 236.991C280.917 235.143 283.197 232.263 283.917 229.407L288.237 229.599C288.021 230.199 287.829 230.799 287.589 231.375H301.317C301.269 235.839 301.293 240.303 301.053 244.743C300.957 246.207 300.837 248.031 300.429 249.423C299.805 251.559 298.125 252.303 296.037 252.303H292.149L291.309 248.895ZM295.101 248.607C296.229 248.559 296.733 248.439 297.021 247.263C297.573 245.007 297.573 237.735 297.573 235.071H285.597C285.261 235.599 284.901 236.103 284.517 236.583H295.101V248.607ZM291.573 239.751H286.101V241.335H291.573V239.751ZM291.573 244.071H286.101V245.679H291.573V244.071Z" fill="#6F6356"/>
<path d="M255.981 233.175H264.573V229.479H268.269V233.175H276.981V245.919H268.269V252.231H264.573V245.919H255.981V233.175ZM264.573 236.679H259.653V242.415H264.573V236.679ZM273.309 236.679H268.269V242.415H273.309V236.679Z" fill="#6F6356"/>
<path d="M251.469 230.319V249.879C251.469 251.247 250.581 252.231 249.189 252.231H243.573L242.973 248.439H247.005C247.485 248.439 247.725 248.175 247.725 247.719V244.935H237.165C236.781 247.647 235.989 250.119 234.405 252.375L231.165 249.759C233.133 246.975 233.805 243.759 233.805 240.375V230.319H251.469ZM237.453 233.919V236.007H247.725V233.919H237.453ZM237.453 239.343V241.575H247.725V239.343H237.453Z" fill="#6F6356"/>
<path d="M215.711 250.192V246.856L221.735 241.336C223.559 239.608 224.423 238.504 224.423 237.016C224.423 235.408 223.367 234.4 221.759 234.4C220.103 234.4 218.687 235.408 217.583 237.064L215.639 233.632C217.319 231.664 219.551 230.512 222.311 230.512C226.223 230.512 228.887 232.72 228.887 236.368C228.887 239.128 227.519 240.904 224.423 243.688L221.447 246.352H229.079V250.192H215.711Z" fill="#6F6356"/>
<path d="M205.776 250.192V236.08C204.72 236.992 203.568 237.76 202.248 238.456L200.376 235.264C202.656 234.04 204.768 232.6 206.448 230.896H210V250.192H205.776Z" fill="#6F6356"/>
<path d="M182.689 231.424H196.825V234.88H189.625V237.184H196.057V240.544H189.625V243.736H197.665V247.192H189.625V252.256H185.929V247.192H174.961V243.736H178.201V238.384C177.817 238.768 177.385 239.152 176.953 239.512L174.601 236.344C176.881 234.568 178.705 232.048 179.497 229.264L183.241 229.768C183.073 230.344 182.905 230.848 182.689 231.424ZM180.937 234.88C180.433 235.696 179.881 236.44 179.281 237.184H185.929V234.88H180.937ZM185.929 240.544H181.777V243.736H185.929V240.544Z" fill="#6F6356"/>
<path d="M167.402 250.192V246.28H158.786V242.68L167.114 230.8H171.434V242.68H173.81V246.28H171.434V250.192H167.402ZM162.698 242.68H167.402V235.84L162.698 242.68Z" fill="#6F6356"/>
<path d="M143.476 250.192V246.856L149.5 241.336C151.324 239.608 152.188 238.504 152.188 237.016C152.188 235.408 151.132 234.4 149.524 234.4C147.868 234.4 146.452 235.408 145.348 237.064L143.404 233.632C145.084 231.664 147.316 230.512 150.076 230.512C153.988 230.512 156.652 232.72 156.652 236.368C156.652 239.128 155.284 240.904 152.188 243.688L149.212 246.352H156.844V250.192H143.476Z" fill="#6F6356"/>
<path d="M134.118 250.551C129.63 250.551 126.918 247.071 126.918 240.543C126.918 234.015 129.63 230.535 134.118 230.535C138.606 230.535 141.318 234.015 141.318 240.543C141.318 247.071 138.606 250.551 134.118 250.551ZM134.118 246.831C135.822 246.831 136.782 244.959 136.782 240.543C136.782 236.127 135.822 234.255 134.118 234.255C132.414 234.255 131.454 236.127 131.454 240.543C131.454 244.959 132.414 246.831 134.118 246.831Z" fill="#6F6356"/>
<path d="M111.32 250.192V246.856L117.344 241.336C119.168 239.608 120.032 238.504 120.032 237.016C120.032 235.408 118.976 234.4 117.368 234.4C115.712 234.4 114.296 235.408 113.192 237.064L111.248 233.632C112.928 231.664 115.16 230.512 117.92 230.512C121.832 230.512 124.496 232.72 124.496 236.368C124.496 239.128 123.128 240.904 120.032 243.688L117.056 246.352H124.688V250.192H111.32Z" fill="#6F6356"/>
<path d="M100 36H234V103H100V36Z" fill="white"/>
<path fill-rule="evenodd" clip-rule="evenodd" d="M231 39H103V100H231V39ZM100 36V103H234V36H100Z" fill="#B61C31"/>
<path d="M100 17H234V44.4599L167 50L100 44.4599V17Z" fill="#B61C31"/>
<path d="M129.256 29.5122H131.352V33.6562H125.928V34.4882H132.024C131.976 36.1362 131.896 37.5282 131.752 38.3442C131.688 38.7122 131.576 39.0642 131.304 39.3362C131.048 39.6082 130.632 39.7522 130.248 39.7522H127.496L127.064 37.4802H128.968C129.224 37.4802 129.384 37.4482 129.448 37.3202C129.528 37.1762 129.544 36.8882 129.576 36.2962H125.928V40.4882H123.608V37.3202C121.992 38.7602 120.2 39.6082 118.12 40.1682L117.032 37.8322C118.696 37.5442 120.136 37.1122 121.624 36.2962H117.592C118.136 34.8402 118.392 33.6562 118.6 32.1042H123.608V31.2562H117.928V29.5122H118.12L117 28.1522C118.04 27.4322 118.872 26.3922 119.384 25.2402L121.832 25.4962C121.752 25.7842 121.704 25.9442 121.576 26.2162H124.536V27.6082C125.208 26.8882 125.672 26.1842 126.024 25.2562L128.408 25.5122C128.328 25.7522 128.248 25.9762 128.168 26.2162H132.328V28.2802H129.848C130.04 28.5522 130.216 28.8562 130.36 29.1602L129.256 29.5122ZM120.904 29.5122C120.76 29.0482 120.664 28.7442 120.472 28.2802H120.28C119.928 28.7282 119.544 29.1442 119.096 29.5122H120.904ZM122.072 29.5122H125.192L123.816 28.3442L123.896 28.2802H122.808C122.968 28.5682 123.128 28.8722 123.24 29.1762L122.072 29.5122ZM125.912 29.5122H127.88C127.704 29.0962 127.544 28.6802 127.368 28.2802H127C126.664 28.7282 126.312 29.1282 125.912 29.5122ZM125.928 32.1042H129V31.2562H125.928V32.1042ZM123.608 33.6562H120.744C120.712 33.9282 120.68 34.2322 120.584 34.4882H123.608V33.6562Z" fill="white"/>
<path d="M137.608 26.3922H142.808V39.0002H140.168V28.7922H137.608V26.3922Z" fill="white"/>
<path d="M161.647 39.7202H152.399V40.4082H150.015V26.0722H164.095V40.4082H161.647V39.7202ZM161.647 37.4802V28.2962H152.399V37.4802H161.647ZM153.503 29.4002H160.511V36.3122H153.503V29.4002ZM155.551 31.3042V34.3762H158.415V31.3042H155.551Z" fill="white"/>
<path d="M169.295 33.9602C168.575 34.0562 167.871 34.1202 167.167 34.1682L167.039 32.0562C167.343 32.0562 167.647 32.0402 167.951 32.0242C168.191 31.7042 168.447 31.3842 168.687 31.0482C168.095 30.3122 167.599 29.7362 166.847 29.1762L167.775 27.1122C167.903 27.2242 168.031 27.3202 168.159 27.4322C168.543 26.7282 168.847 26.0402 169.103 25.2882L171.071 25.7042C170.703 26.7122 170.047 27.8162 169.439 28.6802C169.599 28.8562 169.759 29.0482 169.919 29.2242C170.399 28.4562 170.863 27.6882 171.295 26.9042L172.927 27.4802V26.3122H176.367V25.3362H178.703V26.3122H182.255V28.2962H181.071C180.991 28.7442 180.927 29.0802 180.783 29.5122H182.095V33.2402H181.375V38.1362C181.375 39.1282 181.103 39.4802 180.079 39.4802H179.039L178.591 37.2402H179.119C179.375 37.2402 179.391 37.1602 179.391 36.9362V34.6802H178.559V40.5042H176.559V34.6802H175.727V39.4642H173.791V33.2402H173.487C173.519 33.4162 173.567 33.5762 173.615 33.7362L171.935 34.3122C171.903 34.0882 171.871 33.8642 171.839 33.6402L171.151 33.7202V40.5042H169.295V33.9602ZM172.927 27.9922C172.047 29.3682 171.023 30.7282 169.951 31.9762C170.447 31.9442 170.943 31.9282 171.439 31.8962C171.327 31.5442 171.215 31.1762 171.071 30.8242L172.479 30.3442C172.687 30.8242 172.879 31.3042 173.039 31.8002V29.5122H174.399C174.287 29.1122 174.159 28.7122 174.047 28.2962H172.927V27.9922ZM178.799 28.2962H176.319C176.463 28.7282 176.543 29.0802 176.639 29.5122H178.479C178.639 29.1122 178.735 28.7282 178.799 28.2962ZM175.151 32.7122H176.559V31.4962H175.151V32.7122ZM178.559 31.4962V32.7122H179.999V31.4962H178.559ZM168.911 34.8562C168.863 36.2642 168.751 38.2642 168.367 39.6082L166.799 38.6002C167.183 37.3042 167.327 35.9762 167.359 34.6322L168.911 34.8562ZM172.943 34.6482C173.199 35.8802 173.311 37.0482 173.359 38.3122L171.775 38.5522C171.775 38.4402 171.775 38.2962 171.775 38.1842C171.775 37.0642 171.695 35.9762 171.519 34.8722L172.943 34.6482Z" fill="white"/>
<path d="M194.671 35.0642C193.919 37.4802 192.207 39.3362 189.951 40.6962L188.223 38.7122C188.783 38.4242 189.231 38.1522 189.743 37.7682C189.567 37.8162 189.343 37.8642 189.151 37.8642H187.359C186.399 37.8642 185.935 37.1602 185.935 36.2642V32.0562L184.767 32.2802L184.703 29.8802L185.935 29.6562V25.3522H188.319V29.2082L191.039 28.7122L191.151 31.0962L188.319 31.6242V35.1922C188.319 35.4322 188.367 35.4802 188.607 35.4802H189.071C189.215 35.4802 189.295 35.3682 189.359 35.0002C189.423 34.5842 189.487 33.8162 189.503 33.2242L191.359 33.6402C191.247 35.0482 191.087 36.0562 190.799 36.8562C191.967 35.7202 192.607 34.5522 192.879 31.7202C192.959 30.8722 193.023 29.7202 193.039 28.2482H190.543V25.8642H199.471C199.471 28.9202 199.455 31.1282 199.439 32.7122C199.391 35.9282 199.231 37.5922 198.911 38.8882C198.639 40.0082 197.839 40.4882 196.927 40.4882H194.095L193.631 38.0882H195.647C196.143 38.0882 196.367 38.0402 196.527 37.4962C196.639 37.1282 196.751 36.3762 196.815 35.4802C196.927 33.9442 197.007 32.5042 197.007 30.6482V28.2482H195.455C195.407 31.2722 195.231 33.2722 194.671 35.0642Z" fill="white"/>
<path d="M205.167 25.7522L207.983 25.9602C207.663 27.0162 207.583 27.8962 207.407 28.9842C208.367 27.9442 209.583 27.2402 211.039 27.2402C212.191 27.2402 213.583 27.7842 214.303 28.7122C215.199 29.8482 215.423 31.6402 215.423 33.0482C215.423 35.2402 214.783 37.4162 212.831 38.6482C210.911 39.8802 208.303 39.9762 206.079 40.1042L205.391 37.6562C207.247 37.6242 209.455 37.6082 211.087 36.6802C212.527 35.8642 212.719 34.2802 212.719 32.7602C212.719 31.2402 212.591 29.6402 210.639 29.6402C209.551 29.6402 208.783 30.1682 208.127 30.9842C207.567 31.6882 207.311 32.2802 207.151 33.1762C207.135 34.0562 207.215 34.9202 207.263 35.8002L204.655 35.9282C204.575 35.2402 204.543 34.7602 204.543 34.0562C204.543 31.4162 204.831 28.3762 205.167 25.7522Z" fill="white"/>
<path d="M191.326 66.8918V68.5298H185.278V70.0838H192.502V74.1158H185.278V75.7118H194.14V80.2898H170.368V75.7118H179.734V74.1158H172.636V70.0838H179.734V68.5298H173.728V66.8918H171.208V57.8198H179.356V55.1318H185.614V57.8198H194.098V66.8918H191.326ZM208.63 55.1318V89.4458C208.63 93.1418 207.748 94.9058 203.758 94.9058H197.584L196.282 88.3118H201.532C202.54 88.3118 202.75 88.0178 202.75 87.0098V55.1318H208.63ZM195.358 57.2318H200.482V84.8678H195.358V57.2318ZM188.806 64.7078V62.5238H176.584V64.7078H179.734V63.2798H185.278V64.7078H188.806ZM172.51 81.6758H192.712V94.3178H172.51V81.6758ZM186.664 85.9178H178.558V89.9078H186.664V85.9178Z" fill="#6F6356"/>
<path d="M163.732 79.8696V85.8336H146.89V94.9476H140.506V85.8336H124V79.8696H140.506V76.6776H127.654V56.3496H160.078V76.6776H146.89V79.8696H163.732ZM153.736 61.8096H133.87V64.3296H153.736V61.8096ZM153.736 68.9916H133.87V71.6796H153.736V68.9916Z" fill="#6F6356"/>
<path d="M16 171H102V200H16V171Z" fill="#B61C31"/>
<path d="M83.5841 178.353H86.0001V179.489H91.9841V183.649H89.6001V181.617H80.0161V183.649H77.6321V179.489H83.5841V178.353ZM81.5521 188.577C82.0481 189.377 82.7201 189.969 83.6001 190.305V185.169H80.4641V182.993H89.1521V185.169H85.9841V186.689H90.6241V188.881H85.9841V190.785C86.2721 190.801 86.5601 190.817 86.8481 190.817H92.5601L92.0641 193.201H86.4161C83.9681 193.201 82.3361 192.593 80.7521 190.673C80.1761 191.889 79.6481 192.641 78.6561 193.553L77.0081 191.601C78.7681 190.065 79.4881 187.937 79.7601 185.681L82.0801 185.985C81.9521 186.929 81.8081 187.665 81.5521 188.577Z" fill="white"/>
<path d="M66.3359 190.913V178.721H74.2719V186.433H73.9519L74.9919 188.225C74.3679 188.769 73.8399 189.137 73.1359 189.553C73.6959 190.257 74.2719 190.785 74.9759 191.361L73.5039 193.553C71.3279 191.857 69.9839 189.121 69.5359 186.433H68.6399V190.561C69.3279 190.449 69.9999 190.321 70.6879 190.161L70.8479 192.305C69.0559 192.801 67.1999 193.089 65.3599 193.409L65.0399 191.073C65.4719 191.025 65.9039 190.977 66.3359 190.913ZM59.9519 178.721H65.7439V180.929C65.4399 182.033 65.0559 183.169 64.6079 184.209C65.5199 185.185 65.9039 186.577 65.9039 187.889C65.9039 188.609 65.7439 189.457 65.1999 189.953C64.9119 190.225 64.4319 190.449 64.0319 190.449H62.7199L62.3679 188.161H62.8159C63.4239 188.161 63.5519 187.921 63.5519 187.345C63.5519 186.209 63.1679 185.345 62.3679 184.561C62.8479 183.329 63.1519 182.193 63.4399 180.913H62.2559V193.521H59.9519V178.721ZM71.9679 180.817H68.6399V181.809H71.9679V180.817ZM71.9679 183.457H68.6399V184.497H71.9679V183.457ZM72.1119 187.809C72.6719 187.377 73.2159 186.961 73.6959 186.433H71.6159C71.7599 186.929 71.9039 187.329 72.1119 187.809Z" fill="white"/>
<path d="M43.1839 178.672H56.0319V182.832H43.1839V178.672ZM45.5519 180.416H53.7279V179.904H45.5519V180.416ZM45.5519 181.296V181.808H53.7279V181.296H45.5519ZM57.1999 183.264V184.64H41.9839V183.264H57.1999ZM55.9359 185.104V189.152H50.7359V189.616H56.3199V190.944H50.7359V191.424H57.1999V193.072H41.9839V191.424H48.4479V190.944H42.8799V189.616H48.4479V189.152H43.2959V185.104H55.9359ZM53.6479 186.144H50.7359V186.656H53.6479V186.144ZM48.4479 186.144H45.6319V186.656H48.4479V186.144ZM48.4479 187.584H45.6319V188.096H48.4479V187.584ZM53.6479 187.584H50.7359V188.096H53.6479V187.584Z" fill="white"/>
<path d="M36.0639 191.232C35.1359 192.176 34.2239 192.816 33.0879 193.456L31.9679 191.808L31.1839 193.168C30.5599 192.72 30.0479 192.432 29.3599 192.096C28.0959 192.912 26.7679 193.328 25.2959 193.584L24.4479 191.6C25.3439 191.52 26.1599 191.376 27.0079 191.056C26.3199 190.8 25.5519 190.496 24.8319 190.352C25.2639 189.728 25.4719 189.312 25.7919 188.624H24.4479V186.704H26.5599C26.7039 186.304 26.8159 185.92 26.9119 185.52L27.5359 185.584V183.872C26.8319 184.752 26.1759 185.36 25.1999 185.952L24.0959 184.224C25.0559 183.888 25.8239 183.28 26.5599 182.592H24.4479V180.768H25.3759C25.1839 180.112 24.9439 179.488 24.6239 178.88L26.2879 178.288C26.6559 178.992 26.9119 179.472 27.1679 180.24L25.7599 180.768H27.5359V178.304H29.7759V180.768H31.6799L29.9679 180.256C30.3839 179.6 30.6719 178.96 30.9279 178.24L32.7839 178.72C32.4799 179.472 32.1599 180.064 31.7759 180.768H32.5599V182.592H30.4959C30.9439 183.04 31.4399 183.44 31.9839 183.776C33.0399 182.192 33.7119 180.08 33.9039 178.192L36.2559 178.448C36.1599 179.12 36.0479 179.776 35.9039 180.448H39.5999V182.864H39.0879C38.9439 184.928 38.6239 187.312 37.6159 189.152C38.2879 189.984 38.9919 190.576 39.8879 191.152L38.5599 193.504C37.5679 192.832 36.8159 192.16 36.0639 191.232ZM36.1919 186.752C36.6399 185.456 36.7839 184.224 36.8319 182.864H35.1839C35.3439 184.224 35.6639 185.504 36.1919 186.752ZM34.7679 189.184C34.2399 188.016 33.9199 186.88 33.6639 185.632C33.4399 185.952 33.2639 186.16 33.0079 186.448L31.5679 184.816L31.1039 185.424C30.5279 185.008 30.2079 184.64 29.7759 184.08V185.808H29.1679C29.0719 186.112 28.9759 186.4 28.8639 186.704H32.7199V188.624H31.9199C31.6959 189.328 31.4239 189.904 31.0079 190.512C31.4079 190.672 31.8079 190.848 32.2079 191.024C33.1999 190.576 34.0319 189.984 34.7679 189.184ZM28.0959 188.624C27.9679 188.912 27.8399 189.2 27.6959 189.488C28.1599 189.584 28.6239 189.696 29.0719 189.824C29.4239 189.44 29.6319 189.104 29.8399 188.624H28.0959Z" fill="white"/>
<path d="M227.816 264.36L227.348 265.44C227.072 265.02 226.904 264.708 226.688 264.252V268.128H224.972V264.444C224.54 265.32 224.132 265.908 223.508 266.652L222.896 264.516C223.736 263.844 224.3 262.992 224.78 262.044H223.136V260.4H224.972V256.752H226.688V260.4H228.368V261.384L229.388 260.196C230.156 260.664 230.804 261.192 231.416 261.84L230.18 263.172C229.676 262.548 229.04 261.936 228.368 261.528V262.044H226.808C227.144 262.68 227.588 263.244 228.092 263.748L227.996 263.976L231.68 263.268V258.972L230.612 260.172C230 259.428 229.496 258.948 228.716 258.396L229.808 257.208C230.492 257.628 231.128 258.12 231.68 258.708V256.728H233.528V262.896L234.392 262.728L234.548 264.516L233.528 264.708V268.092H231.68V265.068L228.02 265.776L227.816 264.36ZM228.812 257.484C228.656 258.324 228.332 259.272 227.96 260.04L226.76 259.5C227.048 258.828 227.324 257.868 227.42 257.148L228.812 257.484ZM224.18 257.184C224.456 257.892 224.684 258.756 224.792 259.512L223.52 260.028C223.46 259.116 223.292 258.384 222.956 257.544L224.18 257.184Z" fill="#6F6356"/>
<path d="M211.688 259.464C211.364 259.764 211.136 259.944 210.752 260.148L209.732 258.744C210.572 258.252 211.46 257.544 211.868 256.632L213.656 256.848C213.548 257.124 213.464 257.28 213.32 257.532H221V259.152H220.028V260.328H221.3V261.972H220.028V263.16H221V264.78H210.2V263.16H211.544V261.972H209.924V260.328H211.688V259.464ZM213.944 259.152H213.08V260.328H213.944V259.152ZM216.188 259.152H215.312V260.328H216.188V259.152ZM218.432 259.152H217.556V260.328H218.432V259.152ZM213.944 261.972H213.08V263.16H213.944V261.972ZM216.188 261.972H215.312V263.16H216.188V261.972ZM218.432 261.972H217.556V263.16H218.432V261.972ZM212.744 265.38C212.396 266.472 212.036 267.372 211.304 268.26L209.78 267.216C210.44 266.52 210.848 265.704 211.172 264.804L212.744 265.38ZM219.8 264.804C220.496 265.728 220.892 266.388 221.396 267.432L219.716 268.236C219.332 267.264 218.804 266.34 218.24 265.464L219.8 264.804ZM217.28 265.116C217.604 265.884 218.048 267.156 218.168 267.96L216.38 268.104C216.26 267.096 216.02 266.184 215.684 265.236L217.28 265.116ZM214.832 265.2C214.976 266.004 215.06 267.216 215.06 268.032L213.248 268.08C213.344 267.504 213.344 266.76 213.344 266.172C213.344 265.848 213.344 265.56 213.32 265.248L214.832 265.2Z" fill="#6F6356"/>
<path d="M201.416 264.36L200.948 265.44C200.672 265.02 200.504 264.708 200.288 264.252V268.128H198.572V264.444C198.14 265.32 197.732 265.908 197.108 266.652L196.496 264.516C197.336 263.844 197.9 262.992 198.38 262.044H196.736V260.4H198.572V256.752H200.288V260.4H201.968V261.384L202.988 260.196C203.756 260.664 204.404 261.192 205.016 261.84L203.78 263.172C203.276 262.548 202.64 261.936 201.968 261.528V262.044H200.408C200.744 262.68 201.188 263.244 201.692 263.748L201.596 263.976L205.28 263.268V258.972L204.212 260.172C203.6 259.428 203.096 258.948 202.316 258.396L203.408 257.208C204.092 257.628 204.728 258.12 205.28 258.708V256.728H207.128V262.896L207.992 262.728L208.148 264.516L207.128 264.708V268.092H205.28V265.068L201.62 265.776L201.416 264.36ZM202.412 257.484C202.256 258.324 201.932 259.272 201.56 260.04L200.36 259.5C200.648 258.828 200.924 257.868 201.02 257.148L202.412 257.484ZM197.78 257.184C198.056 257.892 198.284 258.756 198.392 259.512L197.12 260.028C197.06 259.116 196.892 258.384 196.556 257.544L197.78 257.184Z" fill="#6F6356"/>
<path d="M192.272 262.643C192.944 263.603 193.892 264.167 194.996 264.503L193.976 266.099H195.092L194.744 267.839H188.552C187.472 267.839 186.5 267.467 185.84 266.579C185.324 267.203 184.772 267.707 184.088 268.163L183.38 266.171C183.872 265.931 184.196 265.703 184.616 265.355V262.871H183.572V261.191H186.344V264.683C186.536 265.547 187.064 265.907 187.916 266.051L186.812 264.527C187.844 264.155 188.828 263.615 189.392 262.643H186.764V260.939H189.884V259.895H187.088V258.191H188.156C188 257.759 187.832 257.423 187.616 257.015L189.38 256.691C189.608 257.171 189.824 257.699 190.004 258.191H191.54C191.756 257.783 191.996 257.147 192.104 256.691L193.916 256.967C193.772 257.387 193.568 257.795 193.376 258.191H194.528V259.895H191.624V260.939H194.864V262.643H192.272ZM184.844 256.823C185.624 257.435 186.224 258.035 186.872 258.779L185.528 260.087C184.976 259.355 184.364 258.659 183.644 258.083L184.844 256.823ZM193.748 266.099C192.416 265.511 191.456 264.563 190.832 263.255C190.364 264.443 189.308 265.511 188.18 266.087C188.372 266.099 188.564 266.099 188.744 266.099H193.748Z" fill="#6F6356"/>
<path d="M16 223H102V287H16V223Z" fill="#6F6356"/>
<path d="M81.0639 271.448L81.0959 272.36C81.1119 272.664 81.1119 272.968 81.1119 273.272C81.1119 276.216 80.5519 278.44 78.0239 280.232L75.7519 278.584C77.9439 277.24 78.5519 275.56 78.5519 273.064C78.5519 272.856 78.5359 272.648 78.5359 272.424L78.5039 271.672C77.5279 271.72 76.5679 271.752 75.5919 271.752C74.9679 271.752 74.3439 271.736 73.7039 271.704L73.6559 269.192C74.4399 269.24 75.2239 269.256 76.0079 269.256C76.8079 269.256 77.6079 269.224 78.4079 269.208L78.2959 266.12H80.9039L80.9999 268.984C81.7519 268.888 82.5039 268.76 83.2399 268.6L83.3679 271.096C82.5999 271.24 81.8479 271.352 81.0639 271.448ZM70.5359 266.232L73.1599 266.536C72.6159 268.808 72.2639 270.984 72.2639 273.32C72.2639 275.304 72.5199 277.16 72.9999 279.064L70.5519 279.448C69.9599 277.592 69.7839 275.352 69.7839 273.416C69.7839 271 70.0719 268.6 70.5359 266.232Z" fill="white"/>
<path d="M61.3997 270.856V271.896H65.6237V280.296H55.0317V271.896H59.1917V270.856H54.5037V272.712C54.5037 275.24 54.0557 278.312 52.7757 280.504L50.8237 278.584C51.7997 276.824 52.1357 274.616 52.1357 272.616V265.784H65.6077V270.856H61.3997ZM63.2397 267.88H54.5037V268.952H63.2397V267.88ZM59.1917 273.848H57.3037V275.128H59.1917V273.848ZM63.3677 273.848H61.3997V275.128H63.3677V273.848ZM59.1917 276.888H57.3037V278.248H59.1917V276.888ZM63.3677 276.888H61.3997V278.248H63.3677V276.888Z" fill="white"/>
<path d="M37.7359 268.296V265.816H40.2319V268.104C41.1599 268.024 42.1199 267.832 43.0159 267.624L43.0639 270.12C42.1199 270.264 41.1759 270.392 40.2319 270.504V271.48C41.1439 271.224 42.0879 271.064 43.0319 271.064C44.7119 271.064 46.3279 271.624 47.1919 273.16C47.5759 273.848 47.7519 274.648 47.7519 275.448C47.7519 276.776 47.1919 278.184 46.0079 278.904C45.2719 279.352 44.3599 279.544 43.4959 279.544C42.9519 279.544 42.5199 279.48 41.9919 279.352L41.9119 276.744C42.3759 276.936 42.7919 277.032 43.2879 277.032C44.3759 277.032 45.1759 276.52 45.1759 275.352C45.1759 273.88 43.9439 273.384 42.6799 273.384C41.8159 273.384 41.0479 273.56 40.2319 273.832V276.648C40.2319 277.208 40.2159 277.816 40.0399 278.312C39.7199 279.304 38.8719 279.816 37.8639 279.816C36.9839 279.816 36.0719 279.48 35.3679 278.968C34.5519 278.392 34.0879 277.576 34.0879 276.568C34.0879 274.584 36.0879 273.112 37.7359 272.376V270.728C36.9039 270.76 36.0719 270.808 35.2239 270.808C35.0479 270.808 34.8719 270.808 34.6959 270.808L34.6639 268.28C35.1919 268.312 35.7359 268.328 36.2639 268.328C36.7599 268.328 37.2399 268.312 37.7359 268.296ZM37.7999 274.904C37.2719 275.224 36.2959 275.896 36.2959 276.6C36.2959 277.096 36.9519 277.496 37.4159 277.496C37.8159 277.496 37.7999 277.064 37.7999 276.616V274.904ZM43.4959 268.456L45.0159 266.76C46.3919 267.608 47.5439 268.616 48.5999 269.816L46.8239 271.528C45.8319 270.232 44.8559 269.336 43.4959 268.456Z" fill="white"/>
<path d="M53.9706 261.49C55.7992 259.786 56.0808 257.115 54.5995 255.526C53.1182 253.937 50.4349 254.031 48.6063 255.736C46.7776 257.44 46.496 260.11 47.9773 261.7C49.4586 263.289 52.1419 263.195 53.9706 261.49Z" fill="white"/>
<path d="M78.1666 261.492C79.9953 259.788 80.2769 257.117 78.7956 255.528C77.3142 253.939 74.631 254.033 72.8023 255.738C70.9736 257.442 70.692 260.112 72.1734 261.701C73.6547 263.291 76.3379 263.197 78.1666 261.492Z" fill="white"/>
<path d="M34.9344 240.729C34.9344 239.598 34.0174 238.681 32.8863 238.681C31.7551 238.681 30.8381 239.598 30.8381 240.729C30.8381 241.86 31.7551 242.777 32.8863 242.777C34.0174 242.777 34.9344 241.86 34.9344 240.729Z" fill="white"/>
<path d="M69.1238 258.134C69.803 254.787 72.9742 252.127 76.3827 252.127C79.6647 252.127 82.0302 254.594 81.9653 257.766C85.5148 257.859 86.5028 253.198 86.5028 253.198C86.8016 251.895 87.2481 249.354 87.6218 246.86C87.7443 246.09 87.6502 245.302 87.3499 244.582C86.4221 242.422 85.3008 240.35 83.9997 238.391C82.7688 236.56 80.7042 235.476 78.3476 235.436C76.9422 235.414 75.5625 235.401 74.5207 235.401L74.5117 235.392C74.3775 233.151 72.7393 231.435 70.4397 231.23C68.9436 231.097 63.0175 231 60.173 231C59.0428 231 57.4214 231.016 55.781 231.042V231.036H55.7675H36.0442C35.7932 231.036 35.5446 231.085 35.3126 231.18C35.0807 231.276 34.8699 231.417 34.6924 231.594C34.5149 231.771 34.3742 231.981 34.2782 232.212C34.1822 232.443 34.1328 232.691 34.133 232.942V232.95C34.133 233.454 34.3334 233.936 34.6901 234.292C35.0469 234.647 35.5307 234.847 36.0353 234.847H40.011C40.4898 234.883 40.9375 235.097 41.2643 235.447C41.5912 235.798 41.773 236.259 41.7734 236.738V236.748C41.7742 236.998 41.7254 237.246 41.6298 237.478C41.5342 237.71 41.3937 237.92 41.2164 238.098C41.0391 238.276 40.8284 238.416 40.5964 238.513C40.3645 238.609 40.1157 238.659 39.8644 238.659H37.8256C37.319 238.659 36.8332 238.86 36.475 239.217C36.1168 239.574 35.9155 240.059 35.9155 240.564C35.9154 240.814 35.9647 241.062 36.0606 241.293C36.1565 241.524 36.2972 241.734 36.4746 241.911C36.652 242.088 36.8626 242.229 37.0944 242.324C37.3262 242.42 37.5747 242.469 37.8256 242.469H39.8644C40.3713 242.469 40.8575 242.67 41.2159 243.028C41.5743 243.385 41.7757 243.87 41.7757 244.375C41.7757 244.881 41.5743 245.366 41.2159 245.723C40.8575 246.08 40.3713 246.281 39.8644 246.281H32.2374C31.7307 246.281 31.2447 246.482 30.8864 246.839C30.528 247.196 30.3265 247.681 30.3262 248.186C30.3262 248.691 30.5275 249.176 30.886 249.533C31.2444 249.891 31.7305 250.092 32.2374 250.092H39.8644C40.3713 250.092 40.8575 250.292 41.2159 250.65C41.5743 251.007 41.7757 251.492 41.7757 251.997C41.7751 252.503 41.5735 252.987 41.2151 253.344C40.8567 253.701 40.3709 253.901 39.8644 253.901H37.5056C36.999 253.901 36.5132 254.102 36.155 254.459C35.7967 254.816 35.5955 255.301 35.5955 255.806C35.5955 256.311 35.7967 256.796 36.1549 257.153C36.5131 257.51 36.9989 257.711 37.5056 257.712L45.0319 257.706L45.6575 256.152C46.9387 253.795 49.4878 252.126 52.1868 252.126C55.5963 252.126 58.0178 254.788 57.7515 258.138H69.1227M50.167 239.546H47.6023C47.5998 239.546 47.5975 239.547 47.5957 239.549C47.5939 239.55 47.5927 239.553 47.5922 239.555L47.3561 241.229C47.3557 241.23 47.3557 241.231 47.356 241.233C47.3563 241.234 47.3569 241.235 47.3578 241.237C47.3586 241.238 47.3597 241.238 47.361 241.239C47.3623 241.24 47.3636 241.24 47.365 241.24H49.274C49.3677 241.237 49.4608 241.255 49.5466 241.293C49.6323 241.331 49.7085 241.387 49.7696 241.458C49.8308 241.529 49.8752 241.613 49.8998 241.703C49.9244 241.793 49.9285 241.888 49.9119 241.98C49.8791 242.182 49.7768 242.366 49.6224 242.501C49.468 242.636 49.2712 242.713 49.0659 242.719H47.1547C47.1523 242.719 47.1501 242.72 47.1482 242.722C47.1464 242.723 47.1451 242.725 47.1446 242.727L46.8022 245.159C46.7695 245.361 46.6671 245.545 46.5127 245.68C46.3583 245.815 46.1615 245.892 45.9562 245.898C45.8626 245.901 45.7695 245.883 45.6838 245.845C45.5981 245.807 45.5219 245.751 45.4609 245.68C45.3999 245.609 45.3555 245.525 45.331 245.435C45.3066 245.345 45.3026 245.251 45.3195 245.159L46.208 238.852C46.2432 238.638 46.3518 238.444 46.5151 238.301C46.6784 238.159 46.8863 238.077 47.1032 238.071H50.374C50.4677 238.068 50.5608 238.086 50.6465 238.124C50.7322 238.162 50.8083 238.218 50.8693 238.289C50.9304 238.36 50.9747 238.444 50.9992 238.534C51.0237 238.624 51.0276 238.719 51.0107 238.811C50.9775 239.012 50.8752 239.195 50.7213 239.329C50.5673 239.464 50.3714 239.54 50.167 239.546ZM57.0219 238.573C57.2884 238.809 57.4758 239.12 57.559 239.466C57.6521 239.857 57.6673 240.263 57.6038 240.66C57.526 241.277 57.2724 241.86 56.8731 242.339C56.6292 242.626 56.3195 242.851 55.9701 242.994C55.9685 242.996 55.9676 242.998 55.9676 243C55.9676 243.002 55.9685 243.005 55.9701 243.006L56.6057 244.835C56.7769 245.326 56.3371 245.898 55.7899 245.898H55.7541C55.6214 245.902 55.4908 245.864 55.3814 245.789C55.2719 245.714 55.1893 245.606 55.1454 245.481L54.3766 243.249C54.3755 243.248 54.374 243.246 54.3723 243.245C54.3705 243.244 54.3686 243.244 54.3666 243.244H52.7328C52.7306 243.244 52.7284 243.245 52.7266 243.246C52.7248 243.248 52.7234 243.25 52.7228 243.252L52.4542 245.158C52.4215 245.36 52.3191 245.544 52.1647 245.679C52.0103 245.814 51.8135 245.891 51.6082 245.897C51.5146 245.9 51.4215 245.882 51.3358 245.844C51.2501 245.806 51.1739 245.75 51.1129 245.679C51.0519 245.608 51.0075 245.524 50.9831 245.434C50.9586 245.344 50.9547 245.249 50.9715 245.158L51.86 238.851C51.8952 238.637 52.0038 238.443 52.1671 238.3C52.3304 238.158 52.5383 238.076 52.7552 238.07H55.2841C55.2841 238.07 56.3942 238.035 57.0219 238.573ZM63.982 238.758C63.9516 238.947 63.8561 239.119 63.7118 239.246C63.5676 239.372 63.3838 239.444 63.192 239.449H60.2502C60.2479 239.449 60.2457 239.45 60.2439 239.451C60.2421 239.453 60.2408 239.455 60.2401 239.457L60.0063 241.113C60.0059 241.114 60.0059 241.115 60.0062 241.117C60.0065 241.118 60.0071 241.119 60.0079 241.12C60.0088 241.122 60.0099 241.122 60.0112 241.123C60.0124 241.124 60.0138 241.124 60.0152 241.124H62.3002C62.3877 241.121 62.4747 241.138 62.5548 241.173C62.6349 241.209 62.706 241.261 62.7631 241.328C62.8202 241.394 62.8617 241.472 62.8846 241.556C62.9075 241.64 62.9112 241.729 62.8955 241.815C62.8651 242.003 62.7695 242.176 62.6253 242.302C62.4811 242.428 62.2972 242.5 62.1055 242.505H59.8194C59.8171 242.505 59.8149 242.506 59.8131 242.508C59.8113 242.509 59.81 242.511 59.8093 242.513L59.5285 244.506C59.5284 244.509 59.5295 244.511 59.5313 244.513C59.5332 244.515 59.5358 244.517 59.5385 244.517H62.4781C62.5656 244.514 62.6526 244.531 62.7327 244.567C62.8128 244.602 62.884 244.655 62.941 244.721C62.9981 244.787 63.0396 244.865 63.0625 244.949C63.0854 245.034 63.0891 245.122 63.0734 245.208C63.043 245.397 62.9474 245.569 62.8032 245.695C62.659 245.821 62.4751 245.893 62.2834 245.898H58.6355C58.5371 245.9 58.4395 245.88 58.3498 245.839C58.2601 245.799 58.1804 245.739 58.1163 245.665C58.0523 245.59 58.0054 245.502 57.9791 245.408C57.9528 245.313 57.9477 245.214 57.9641 245.117L58.847 238.855C58.8822 238.642 58.9907 238.447 59.1541 238.305C59.3174 238.162 59.5253 238.081 59.7422 238.074H63.389C63.4756 238.072 63.5616 238.089 63.6409 238.124C63.7201 238.159 63.7906 238.211 63.8473 238.277C63.904 238.342 63.9455 238.419 63.9688 238.502C63.9921 238.586 63.9966 238.673 63.982 238.758ZM70.0928 238.758C70.0624 238.947 69.9669 239.119 69.8226 239.246C69.6784 239.372 69.4946 239.444 69.3028 239.449H66.361C66.3587 239.449 66.3565 239.45 66.3547 239.451C66.3529 239.453 66.3516 239.455 66.3509 239.457L66.1182 241.113C66.1178 241.114 66.1178 241.115 66.1181 241.117C66.1184 241.118 66.119 241.119 66.1199 241.12C66.1207 241.122 66.1218 241.122 66.1231 241.123C66.1244 241.124 66.1258 241.124 66.1271 241.124H68.4121C68.4996 241.121 68.5866 241.138 68.6667 241.173C68.7468 241.209 68.818 241.261 68.875 241.328C68.9321 241.394 68.9736 241.472 68.9965 241.556C69.0194 241.64 69.0231 241.729 69.0074 241.815C68.977 242.003 68.8814 242.176 68.7372 242.302C68.593 242.428 68.4091 242.5 68.2174 242.505H65.9302C65.9279 242.505 65.9257 242.506 65.9239 242.508C65.9221 242.509 65.9208 242.511 65.9201 242.513L65.6393 244.506C65.6392 244.509 65.6403 244.511 65.6421 244.513C65.644 244.515 65.6466 244.517 65.6493 244.517H68.5889C68.6764 244.514 68.7634 244.531 68.8435 244.567C68.9236 244.602 68.9948 244.655 69.0518 244.721C69.1089 244.787 69.1504 244.865 69.1733 244.949C69.1962 245.034 69.1999 245.122 69.1842 245.208C69.1538 245.397 69.0582 245.569 68.914 245.695C68.7698 245.821 68.5859 245.893 68.3942 245.898H64.7463C64.6479 245.9 64.5504 245.88 64.4606 245.839C64.3709 245.799 64.2912 245.739 64.2271 245.665C64.1631 245.59 64.1162 245.502 64.0899 245.408C64.0636 245.313 64.0585 245.214 64.0749 245.117L64.9578 238.855C64.993 238.642 65.1016 238.447 65.2649 238.305C65.4282 238.162 65.6361 238.081 65.853 238.074H69.4998C69.5864 238.072 69.6725 238.089 69.7517 238.124C69.8309 238.159 69.9014 238.211 69.9581 238.277C70.0148 238.342 70.0563 238.419 70.0796 238.502C70.1029 238.586 70.1074 238.673 70.0928 238.758ZM74.345 238.043C75.3443 238.043 76.6378 238.056 77.9358 238.078C79.5091 238.103 80.8855 238.824 81.7113 240.054C82.5934 241.38 83.3863 242.763 84.0847 244.193C84.454 244.943 83.7747 245.92 82.8851 245.92H73.3457L74.345 238.043Z" fill="white"/>
<path d="M54.5476 241.752H52.8557L53.177 239.705H54.8678C54.8678 239.705 56.1088 239.634 55.9054 240.729C55.9107 240.729 55.7683 241.752 54.5476 241.752Z" fill="white"/>
<rect width="333" height="305" fill="black" fill-opacity="0.7"/>
<path d="M49.488 148.512H70.536V153.768H67.704V151.008H52.176V153.768H49.488V148.512ZM52.968 152.856H65.616V155.496H52.968V152.856ZM67.704 141.48L69.648 143.808C64.224 144.864 56.736 145.392 50.352 145.584C50.304 144.864 49.968 143.76 49.704 143.136C56.064 142.92 63.288 142.344 67.704 141.48ZM51.816 146.04L54.336 145.344C54.888 146.208 55.488 147.36 55.704 148.152L53.064 148.944C52.872 148.152 52.32 146.952 51.816 146.04ZM58.152 145.536L60.696 144.96C61.2 145.92 61.68 147.216 61.8 148.08L59.112 148.728C59.016 147.888 58.608 146.544 58.152 145.536ZM65.784 144.912L68.832 145.632C67.992 147.12 67.032 148.68 66.312 149.712L63.96 149.016C64.608 147.864 65.376 146.16 65.784 144.912ZM64.56 152.856H65.16L65.664 152.76L67.608 153.912C64.752 160.2 58.176 162.864 50.616 163.944C50.328 163.224 49.512 161.952 48.936 161.352C56.328 160.608 62.4 158.424 64.56 153.312V152.856ZM55.8 154.8C58.488 158.448 63.984 160.536 70.968 161.184C70.368 161.832 69.576 163.08 69.216 163.896C61.992 162.96 56.64 160.44 53.28 155.832L55.8 154.8Z" fill="white"/>
<path d="M83.016 143.784L84.912 141.576C86.856 142.488 89.4 144 90.624 145.176L88.56 147.648C87.456 146.448 84.984 144.816 83.016 143.784ZM81.432 153.528H93.888V156.288H81.432V153.528ZM79.704 160.656H95.28V163.392H79.704V160.656ZM80.568 146.856H94.776V149.592H80.568V146.856ZM86.04 147.768H89.04V161.88H86.04V147.768ZM74.256 143.856L75.816 141.744C77.352 142.296 79.392 143.328 80.4 144.192L78.72 146.544C77.784 145.68 75.816 144.528 74.256 143.856ZM72.648 150.384L74.136 148.2C75.696 148.728 77.784 149.712 78.816 150.504L77.232 152.904C76.272 152.088 74.232 151.008 72.648 150.384ZM73.68 161.928C74.952 160.128 76.8 157.128 78.24 154.368L80.352 156.264C79.08 158.808 77.544 161.544 76.104 163.872L73.68 161.928Z" fill="white"/>
<path d="M110.736 142.704H116.952V145.296H110.736V142.704ZM110.736 148.128H116.952V150.648H110.736V148.128ZM110.736 153.6H116.976V156.168H110.736V153.6ZM115.704 142.704H118.488V160.992C118.488 162.384 118.224 163.176 117.36 163.608C116.52 164.064 115.296 164.136 113.496 164.136C113.424 163.368 113.04 162.12 112.68 161.4C113.712 161.448 114.888 161.448 115.224 161.424C115.584 161.424 115.704 161.304 115.704 160.944V142.704ZM109.56 142.704H112.248V151.512C112.248 155.304 111.936 160.8 109.896 164.208C109.416 163.704 108.24 162.864 107.616 162.576C109.416 159.504 109.56 154.944 109.56 151.512V142.704ZM96.984 144.456H108.744V146.952H96.984V144.456ZM100.128 148.368H105.84V150.576H100.128V148.368ZM100.128 152.112H105.864V154.296H100.128V152.112ZM96.696 155.904H108.576V158.424H96.696V155.904ZM98.88 141.888H101.472V156.816H98.88V141.888ZM104.472 141.888H107.112V156.816H104.472V141.888ZM99.696 158.592L102.408 159.384C101.52 161.16 100.104 163.032 98.832 164.208C98.28 163.728 97.176 162.912 96.504 162.528C97.8 161.544 99.024 160.056 99.696 158.592ZM103.248 159.672L105.432 158.472C106.392 159.528 107.616 160.992 108.168 161.976L105.84 163.344C105.36 162.384 104.208 160.8 103.248 159.672Z" fill="white"/>
<path d="M128.688 156.264H135.264V158.328H128.688V156.264ZM128.52 152.712H136.608V161.928H128.52V159.816H133.92V154.824H128.52V152.712ZM127.344 152.712H129.936V163.152H127.344V152.712ZM123.312 145.872H129.336V147.816H123.312V145.872ZM134.448 145.872H140.52V147.816H134.448V145.872ZM139.344 142.536H142.248V160.752C142.248 162.312 141.936 163.152 140.976 163.632C140.016 164.112 138.624 164.16 136.56 164.16C136.44 163.344 136.008 162 135.624 161.232C136.872 161.304 138.336 161.28 138.768 161.28C139.2 161.28 139.344 161.136 139.344 160.728V142.536ZM123.552 142.536H131.136V151.248H123.552V149.184H128.448V144.624H123.552V142.536ZM140.88 142.536V144.624H135.504V149.256H140.88V151.32H132.768V142.536H140.88ZM121.896 142.536H124.752V164.16H121.896V142.536Z" fill="white"/>
<path d="M157.416 156.264L159.024 154.44C160.776 155.088 162.864 156.216 164.016 157.08L162.36 159.072C161.232 158.16 159.12 156.936 157.416 156.264ZM154.8 160.536L156.48 158.52C159.6 159.36 163.32 160.92 165.552 162.12L163.872 164.376C161.76 163.056 157.944 161.448 154.8 160.536ZM157.776 141.624L160.584 142.104C159.264 145.056 157.416 148.008 154.512 150.408C154.08 149.808 153.168 148.92 152.568 148.536C155.16 146.544 156.888 143.88 157.776 141.624ZM158.232 143.904H164.184V146.376H157.008L158.232 143.904ZM163.416 143.904H163.944L164.424 143.808L166.2 144.792C164.064 150.168 159.648 153.96 154.968 155.904C154.632 155.232 153.768 154.104 153.216 153.624C157.704 151.992 161.784 148.68 163.416 144.408V143.904ZM157.944 145.8C159.792 149.256 163.464 152.304 167.688 153.696C167.088 154.248 166.248 155.328 165.84 156.048C161.472 154.296 157.848 150.816 155.664 146.616L157.944 145.8ZM148.32 141.648L150.816 142.584C149.832 144.408 148.728 146.544 147.792 147.888L145.872 147.048C146.736 145.632 147.768 143.328 148.32 141.648ZM151.08 144.48L153.408 145.536C151.68 148.296 149.328 151.632 147.504 153.72L145.848 152.784C147.624 150.6 149.832 147.072 151.08 144.48ZM144.624 147.336L145.992 145.368C147.264 146.472 148.752 147.984 149.376 149.088L147.888 151.32C147.312 150.168 145.848 148.488 144.624 147.336ZM150.36 150.216L152.256 149.424C153.192 151.032 154.104 153.12 154.368 154.488L152.328 155.4C152.088 154.032 151.248 151.848 150.36 150.216ZM144.6 152.208C146.808 152.136 150.048 152.016 153.216 151.872L153.192 154.152C150.24 154.368 147.168 154.56 144.84 154.728L144.6 152.208ZM150.888 156.192L152.904 155.544C153.504 156.912 154.128 158.712 154.392 159.912L152.28 160.656C152.04 159.456 151.416 157.608 150.888 156.192ZM145.632 155.736L148.008 156.144C147.768 158.448 147.24 160.848 146.544 162.384C146.04 162.072 144.96 161.568 144.36 161.328C145.056 159.912 145.44 157.776 145.632 155.736ZM148.32 153.48H150.84V164.184H148.32V153.48Z" fill="white"/>
<path d="M178.608 149.832H181.656V160.824C181.656 162.456 181.248 163.248 180.048 163.68C178.872 164.112 177.144 164.16 174.84 164.16C174.672 163.32 174.12 162.024 173.664 161.232C175.368 161.304 177.336 161.304 177.888 161.304C178.416 161.304 178.608 161.16 178.608 160.752V149.832ZM170.4 143.304H187.176V146.136H170.4V143.304ZM186.096 143.304H186.864L187.56 143.112L189.816 144.792C187.656 147.432 184.488 150.48 181.536 152.328C181.08 151.704 180.144 150.744 179.568 150.288C182.064 148.704 184.896 145.824 186.096 144V143.304Z" fill="white"/>
<path d="M200.904 142.968C200.76 143.976 200.64 145.224 200.592 146.184C200.472 148.776 200.304 154.128 200.304 157.104C200.304 159.528 201.744 160.32 203.616 160.32C207.576 160.32 210.072 158.04 211.824 155.424L214.008 158.088C212.448 160.392 209.04 163.584 203.568 163.584C199.632 163.584 197.112 161.856 197.112 157.752C197.112 154.536 197.328 148.248 197.328 146.184C197.328 145.032 197.232 143.88 197.04 142.944L200.904 142.968Z" fill="white"/>
<path d="M230.328 142.608C230.256 143.088 230.184 143.688 230.16 144.312C230.112 145.536 230.088 148.944 230.088 150.96C230.088 153.6 230.472 157.944 230.472 159.84C230.472 161.904 228.912 163.488 225.768 163.488C221.928 163.488 219.912 162.024 219.912 159.48C219.912 157.056 222.144 155.352 225.816 155.352C231.096 155.352 235.032 157.944 237.024 159.624L235.296 162.312C233.016 160.152 229.536 157.824 225.432 157.824C223.752 157.824 222.816 158.472 222.816 159.312C222.816 160.224 223.656 160.776 225.312 160.776C226.584 160.776 227.448 160.416 227.448 159.024C227.448 157.584 227.184 153.288 227.184 150.96C227.184 148.656 227.208 145.608 227.208 144.24C227.208 143.808 227.16 143.064 227.064 142.608H230.328ZM220.368 144.84C222.072 145.128 224.832 145.368 226.296 145.368C229.56 145.368 232.704 145.2 236.208 144.648L236.184 147.384C233.736 147.72 229.92 148.008 226.32 148.008C224.784 148.008 222 147.792 220.416 147.6L220.368 144.84ZM220.224 150.024C221.808 150.312 224.736 150.48 226.008 150.48C230.448 150.48 233.544 150.192 236.496 149.808L236.472 152.64C233.16 153.024 230.544 153.168 225.984 153.168C224.568 153.168 221.856 153.048 220.272 152.856L220.224 150.024Z" fill="white"/>
<path d="M248.904 142.968C248.76 143.976 248.64 145.224 248.592 146.184C248.472 148.776 248.304 154.128 248.304 157.104C248.304 159.528 249.744 160.32 251.616 160.32C255.576 160.32 258.072 158.04 259.824 155.424L262.008 158.088C260.448 160.392 257.04 163.584 251.568 163.584C247.632 163.584 245.112 161.856 245.112 157.752C245.112 154.536 245.328 148.248 245.328 146.184C245.328 145.032 245.232 143.88 245.04 142.944L248.904 142.968Z" fill="white"/>
<path d="M275.352 142.848C275.184 143.52 274.968 144.6 274.848 145.128C274.512 146.76 273.912 149.688 273.264 152.136C272.4 155.496 270.792 160.392 269.472 163.248L266.136 162.12C267.552 159.696 269.376 154.68 270.288 151.32C270.888 149.064 271.44 146.424 271.608 145.008C271.728 144.12 271.752 143.136 271.68 142.56L275.352 142.848ZM269.232 146.448C272.16 146.448 275.544 145.992 278.664 145.248V148.248C275.688 148.944 271.92 149.352 269.208 149.352C268.032 149.352 267.144 149.304 266.304 149.256L266.208 146.256C267.456 146.4 268.248 146.448 269.232 146.448ZM276.768 150.12C278.112 149.976 279.84 149.88 281.4 149.88C282.768 149.88 284.208 149.952 285.6 150.096L285.552 152.976C284.328 152.832 282.864 152.664 281.424 152.664C279.768 152.664 278.28 152.736 276.768 152.928V150.12ZM278.064 156.144C277.896 156.84 277.752 157.608 277.752 158.136C277.752 159.192 278.448 159.984 281.04 159.984C282.648 159.984 284.304 159.816 286.008 159.504L285.888 162.552C284.544 162.744 282.936 162.888 281.016 162.888C276.96 162.888 274.8 161.52 274.8 159.096C274.8 157.968 275.016 156.816 275.208 155.88L278.064 156.144Z" fill="white"/>
</svg>
