<svg width="333" height="305" viewBox="0 0 333 305" fill="none" xmlns="http://www.w3.org/2000/svg">
<path d="M0 0H333V305H0V0Z" fill="#F5EEE6"/>
<path d="M230.111 127.56C231.087 127.544 232.063 127.528 233.039 127.464L243.727 126.68L243.935 129.24C242.303 129.272 240.959 129.448 239.503 130.264C238.047 131.08 236.751 132.392 236.751 134.152C236.751 136.568 239.615 137.24 241.519 137.384L240.319 139.912C237.167 139.544 234.079 137.928 234.079 134.344C234.079 132.84 234.671 131.352 235.775 130.312C236.143 129.96 236.575 129.656 236.991 129.368L230.303 130.232L230.111 127.56ZM239.487 131.816L240.831 131.048C241.583 131.944 242.143 132.984 242.655 134.024L241.247 134.856C240.735 133.672 240.271 132.856 239.487 131.816ZM241.663 130.6L243.023 129.88C243.791 130.776 244.367 131.768 244.895 132.824L243.487 133.608C242.911 132.392 242.495 131.656 241.663 130.6Z" fill="#6F6356"/>
<path d="M221.407 136.008C223.215 137.112 225.103 137.768 227.183 138.152L225.743 140.552C223.503 139.976 221.343 139.08 219.471 137.688C217.487 139.096 215.535 139.928 213.183 140.552L211.855 138.168C213.871 137.72 215.807 137.064 217.583 136.008C215.855 134.088 214.831 132.104 214.127 129.64H211.919V127.256H218.239V125.352H220.767V127.256H227.071V129.64H224.847C224.159 132.088 223.135 134.136 221.407 136.008ZM219.503 134.52C220.927 133.032 221.647 131.608 222.239 129.64H216.719C217.311 131.592 218.063 133.048 219.503 134.52Z" fill="#6F6356"/>
<path d="M203.391 128.104C202.607 127.48 201.791 126.952 200.895 126.504L203.135 125.096C204.239 125.672 205.295 126.344 206.271 127.112L204.639 128.104H209.199V130.36H205.167V132.824H208.671V135.08H205.167V137.88H209.519V140.12H198.095V137.88H202.671V135.08H199.215V132.824H202.671V130.36H198.687V128.104H203.391ZM195.951 125.288C196.991 125.736 197.871 126.248 198.783 126.904L197.359 128.888C196.415 128.12 195.727 127.704 194.655 127.144L195.951 125.288ZM195.487 129.336C196.463 129.784 197.375 130.36 198.223 131.048L196.863 133.032C195.967 132.296 195.215 131.8 194.191 131.256L195.487 129.336ZM198.767 135.016C197.919 137.016 196.975 138.84 195.647 140.584L194.143 138.312C195.311 136.872 196.207 135.224 196.959 133.528L198.767 135.016Z" fill="#6F6356"/>
<path d="M178.751 126.392L181.359 126.68C180.799 129.112 180.447 131.528 180.447 134.04C180.447 135.832 180.623 137.544 181.023 139.304L178.479 139.592C178.079 137.8 177.951 135.96 177.951 134.136C177.951 131.432 178.255 129.048 178.751 126.392ZM190.287 130.056C189.343 129.976 188.399 129.928 187.439 129.928C185.903 129.928 184.383 130.056 182.863 130.264L182.911 127.704C184.431 127.544 185.951 127.432 187.471 127.432C188.431 127.432 189.391 127.48 190.351 127.56L190.287 130.056ZM185.007 134.088C184.767 134.44 184.543 134.936 184.543 135.384C184.543 135.784 184.799 136.024 185.167 136.136C185.711 136.312 186.639 136.328 187.231 136.328C188.495 136.328 189.759 136.168 191.007 135.944L190.943 138.552C189.727 138.728 188.495 138.84 187.263 138.84C185.151 138.84 182.223 138.632 182.223 135.832C182.223 135.032 182.479 134.36 182.863 133.656L185.007 134.088Z" fill="#6F6356"/>
<path d="M159.711 127.56C160.687 127.544 161.663 127.528 162.639 127.464L173.327 126.68L173.535 129.24C171.903 129.272 170.559 129.448 169.103 130.264C167.647 131.08 166.351 132.392 166.351 134.152C166.351 136.568 169.215 137.24 171.119 137.384L169.919 139.912C166.767 139.544 163.679 137.928 163.679 134.344C163.679 132.84 164.271 131.352 165.375 130.312C165.743 129.96 166.175 129.656 166.591 129.368L159.903 130.232L159.711 127.56ZM169.087 131.816L170.431 131.048C171.183 131.944 171.743 132.984 172.255 134.024L170.847 134.856C170.335 133.672 169.871 132.856 169.087 131.816ZM171.263 130.6L172.623 129.88C173.391 130.776 173.967 131.768 174.495 132.824L173.087 133.608C172.511 132.392 172.095 131.656 171.263 130.6Z" fill="#6F6356"/>
<path d="M148.015 127.656L147.999 125.848H150.511L150.527 127.624C152.175 127.608 153.807 127.576 155.455 127.496L155.439 129.848C153.807 129.88 152.175 129.912 150.543 129.928L150.559 130.888C151.967 130.84 153.375 130.792 154.799 130.712V133.032C153.391 133.08 151.983 133.128 150.575 133.16V134.616C152.287 135.064 153.727 135.768 155.247 136.68L154.063 139.096C152.911 138.264 151.855 137.672 150.543 137.144C150.479 139.208 148.815 139.864 146.991 139.864C145.231 139.864 143.167 139.128 143.167 137.032C143.167 135.928 143.855 135.032 144.863 134.616C145.647 134.296 146.511 134.2 147.343 134.2C147.583 134.2 147.823 134.2 148.063 134.216L148.047 133.192C146.495 133.208 144.943 133.224 143.375 133.208L143.391 130.872C144.335 130.904 145.279 130.936 146.239 130.936C146.831 130.936 147.439 130.92 148.031 130.92V129.96C147.151 129.96 146.271 129.976 145.407 129.976C144.543 129.976 143.695 129.96 142.831 129.96L142.847 127.592C144.575 127.64 146.287 127.656 148.015 127.656ZM148.047 136.568V136.408C147.727 136.36 147.407 136.344 147.087 136.344C146.623 136.344 145.471 136.392 145.471 137.064C145.471 137.608 146.351 137.704 146.751 137.704C147.999 137.704 148.047 137.128 148.047 136.568Z" fill="#6F6356"/>
<path d="M132.079 138.263H126.239V131.591C125.855 131.991 125.471 132.343 125.055 132.695L123.647 130.327C125.151 129.095 126.671 127.175 127.151 125.271L130.031 125.399C129.887 125.799 129.759 126.199 129.599 126.583H138.751C138.719 129.559 138.735 132.535 138.575 135.495C138.511 136.471 138.431 137.687 138.159 138.615C137.743 140.039 136.623 140.535 135.231 140.535H132.639L132.079 138.263ZM134.607 138.071C135.359 138.039 135.695 137.959 135.887 137.175C136.255 135.671 136.255 130.823 136.255 129.047H128.271C128.047 129.399 127.807 129.735 127.551 130.055H134.607V138.071ZM132.255 132.167H128.607V133.223H132.255V132.167ZM132.255 135.047H128.607V136.119H132.255V135.047Z" fill="#6F6356"/>
<path d="M106.927 127.783H112.655V125.319H115.119V127.783H120.927V136.279H115.119V140.487H112.655V136.279H106.927V127.783ZM112.655 130.119H109.375V133.943H112.655V130.119ZM118.479 130.119H115.119V133.943H118.479V130.119Z" fill="#6F6356"/>
<path d="M102.319 125.88V138.92C102.319 139.832 101.727 140.488 100.799 140.488H97.0547L96.6547 137.96H99.3427C99.6627 137.96 99.8227 137.784 99.8227 137.48V135.624H92.7827C92.5267 137.432 91.9987 139.08 90.9427 140.584L88.7827 138.84C90.0947 136.984 90.5427 134.84 90.5427 132.584V125.88H102.319ZM92.9747 128.28V129.672H99.8227V128.28H92.9747ZM92.9747 131.896V133.384H99.8227V131.896H92.9747Z" fill="#6F6356"/>
<path d="M86.3522 126.264V128.568C83.6802 131.48 82.3042 135.128 81.8082 139.128H78.6562C79.1362 135.416 80.4162 131.816 82.9602 128.824H76.7842V126.264H86.3522Z" fill="#6F6356"/>
<path d="M305.51 185.618H282.116V200.906H275.648V162.266H312.02V196.034C312.02 199.226 310.718 200.906 307.442 200.906H299.588L298.454 194.396H304.25C305.258 194.396 305.51 194.018 305.51 193.094V185.618ZM296.942 168.44V179.57H305.51V168.44H296.942ZM282.116 168.44V179.57H290.684V168.44H282.116Z" fill="#B61C31"/>
<path d="M258.767 197.965C250.913 197.965 246.167 191.876 246.167 180.452C246.167 169.028 250.913 162.938 258.767 162.938C266.621 162.938 271.367 169.028 271.367 180.452C271.367 191.876 266.621 197.965 258.767 197.965ZM258.767 191.456C261.749 191.456 263.429 188.18 263.429 180.452C263.429 172.724 261.749 169.448 258.767 169.448C255.785 169.448 254.105 172.724 254.105 180.452C254.105 188.18 255.785 191.456 258.767 191.456Z" fill="#B61C31"/>
<path d="M230.631 197.965C222.777 197.965 218.031 191.876 218.031 180.452C218.031 169.028 222.777 162.938 230.631 162.938C238.485 162.938 243.231 169.028 243.231 180.452C243.231 191.876 238.485 197.965 230.631 197.965ZM230.631 191.456C233.613 191.456 235.293 188.18 235.293 180.452C235.293 172.724 233.613 169.448 230.631 169.448C227.649 169.448 225.969 172.724 225.969 180.452C225.969 188.18 227.649 191.456 230.631 191.456Z" fill="#B61C31"/>
<path d="M202.242 198.176C194.598 198.176 189.894 194.648 189.894 189.062C189.894 185.198 192.33 182.3 196.11 180.662C193.044 178.982 190.608 176.504 190.608 172.052C190.608 165.962 195.984 162.77 202.62 162.77C210.306 162.77 214.254 166.718 214.254 171.632C214.254 174.824 212.322 177.806 208.584 179.402C212.07 181.082 215.094 183.602 215.094 188.306C215.094 194.732 209.928 198.176 202.242 198.176ZM198.336 172.262C198.336 174.614 200.478 176.042 203.292 177.26C205.686 175.958 206.526 173.984 206.526 172.43C206.526 169.994 204.888 168.734 202.452 168.734C199.89 168.734 198.336 170.162 198.336 172.262ZM197.622 188.096C197.622 190.616 199.512 192.128 202.494 192.128C205.728 192.128 207.366 190.28 207.366 188.222C207.366 185.576 204.552 184.232 201.234 182.93C198.672 184.274 197.622 186.206 197.622 188.096Z" fill="#B61C31"/>
<path d="M180.447 204.728L174.483 203.846C176.877 199.94 177.927 195.908 177.927 191.414C177.927 190.112 177.801 189.02 177.759 188.516H185.067C185.109 189.062 185.277 190.238 185.277 191.666C185.277 196.538 183.639 201.074 180.447 204.728Z" fill="#B61C31"/>
<path d="M162.181 197.335V190.489H147.103V184.189L161.677 163.399H169.237V184.189H173.395V190.489H169.237V197.335H162.181ZM153.949 184.189H162.181V172.219L153.949 184.189Z" fill="#B61C31"/>
<path d="M141.562 170.162C139.924 169.49 138.454 169.196 136.228 169.196C130.684 169.196 127.996 172.514 127.324 178.436C129.298 176.546 131.692 175.538 134.59 175.538C140.848 175.538 144.922 179.738 144.922 186.164C144.922 192.884 140.302 198.008 132.658 198.008C124.468 198.008 119.554 192.38 119.554 181.418C119.554 169.742 125.518 162.896 136.186 162.896C138.706 162.896 140.764 163.274 142.444 163.778L141.562 170.162ZM132.574 180.956C130.264 180.956 128.458 182.048 127.198 183.686C127.576 189.188 129.34 191.624 132.406 191.624C135.43 191.624 136.984 189.272 136.984 186.038C136.984 182.846 135.43 180.956 132.574 180.956Z" fill="#B61C31"/>
<path d="M306.996 257.896H298.236V247.888C297.66 248.488 297.084 249.016 296.46 249.544L294.348 245.992C296.604 244.144 298.884 241.264 299.604 238.408L303.924 238.6C303.708 239.2 303.516 239.8 303.276 240.376H317.004C316.956 244.84 316.98 249.304 316.74 253.744C316.644 255.208 316.524 257.032 316.116 258.424C315.492 260.56 313.812 261.304 311.724 261.304H307.836L306.996 257.896ZM310.788 257.608C311.916 257.56 312.42 257.44 312.708 256.264C313.26 254.008 313.26 246.736 313.26 244.072H301.284C300.948 244.6 300.588 245.104 300.204 245.584H310.788V257.608ZM307.26 248.752H301.788V250.336H307.26V248.752ZM307.26 253.072H301.788V254.68H307.26V253.072Z" fill="#6F6356"/>
<path d="M271.668 242.176H280.26V238.48H283.956V242.176H292.668V254.92H283.956V261.232H280.26V254.92H271.668V242.176ZM280.26 245.68H275.34V251.416H280.26V245.68ZM288.996 245.68H283.956V251.416H288.996V245.68Z" fill="#6F6356"/>
<path d="M267.156 239.32V258.88C267.156 260.248 266.268 261.232 264.876 261.232H259.26L258.66 257.44H262.692C263.172 257.44 263.412 257.176 263.412 256.72V253.936H252.852C252.468 256.648 251.676 259.12 250.092 261.376L246.852 258.76C248.82 255.976 249.492 252.76 249.492 249.376V239.32H267.156ZM253.14 242.92V245.008H263.412V242.92H253.14ZM253.14 248.344V250.576H263.412V248.344H253.14Z" fill="#6F6356"/>
<path d="M231.158 257.896L231.878 253.984C233.39 255.088 235.19 255.784 237.014 255.784C239.174 255.784 240.398 255.064 240.398 253.456C240.398 251.968 239.414 251.008 236.03 251.008H233.942V247.792H235.862C238.502 247.792 239.966 246.904 239.966 245.248C239.966 243.952 239.03 243.28 237.278 243.28C235.742 243.28 234.23 243.88 232.886 245.128L231.302 241.696C233.198 240.208 235.406 239.536 237.806 239.536C241.838 239.536 244.43 241.096 244.43 244.456C244.43 246.712 243.11 248.488 240.638 249.208C243.326 249.76 244.886 251.296 244.886 253.84C244.886 257.44 241.982 259.576 237.422 259.576C234.998 259.576 232.694 258.928 231.158 257.896Z" fill="#6F6356"/>
<path d="M212.03 253.601L208.334 253.169C208.478 248.345 211.07 246.137 213.95 246.137C215.966 246.137 217.598 247.097 219.374 248.369C220.574 249.209 221.294 249.545 221.99 249.545C223.214 249.545 223.982 248.225 224.126 246.161L227.822 246.593C227.678 251.417 225.086 253.625 222.23 253.625C220.19 253.625 218.558 252.665 216.782 251.393C215.582 250.553 214.886 250.217 214.166 250.217C212.942 250.217 212.174 251.561 212.03 253.601Z" fill="#6F6356"/>
<path d="M194.918 257.896H186.158V247.888C185.582 248.488 185.006 249.016 184.382 249.544L182.27 245.992C184.526 244.144 186.806 241.264 187.526 238.408L191.846 238.6C191.63 239.2 191.438 239.8 191.198 240.376H204.926C204.878 244.84 204.902 249.304 204.662 253.744C204.566 255.208 204.446 257.032 204.038 258.424C203.414 260.56 201.734 261.304 199.646 261.304H195.758L194.918 257.896ZM198.71 257.608C199.838 257.56 200.342 257.44 200.63 256.264C201.182 254.008 201.182 246.736 201.182 244.072H189.206C188.87 244.6 188.51 245.104 188.126 245.584H198.71V257.608ZM195.182 248.752H189.71V250.336H195.182V248.752ZM195.182 253.072H189.71V254.68H195.182V253.072Z" fill="#6F6356"/>
<path d="M159.59 242.176H168.182V238.48H171.878V242.176H180.59V254.92H171.878V261.232H168.182V254.92H159.59V242.176ZM168.182 245.68H163.262V251.416H168.182V245.68ZM176.918 245.68H171.878V251.416H176.918V245.68Z" fill="#6F6356"/>
<path d="M155.078 239.32V258.88C155.078 260.248 154.19 261.232 152.798 261.232H147.182L146.582 257.44H150.614C151.094 257.44 151.334 257.176 151.334 256.72V253.936H140.774C140.39 256.648 139.598 259.12 138.014 261.376L134.774 258.76C136.742 255.976 137.414 252.76 137.414 249.376V239.32H155.078ZM141.062 242.92V245.008H151.334V242.92H141.062ZM141.062 248.344V250.576H151.334V248.344H141.062Z" fill="#6F6356"/>
<path d="M125.464 259.192V245.08C124.408 245.992 123.256 246.76 121.936 247.456L120.064 244.264C122.344 243.04 124.456 241.6 126.136 239.896H129.688V259.192H125.464Z" fill="#6F6356"/>
<path d="M94 36H228V103H94V36Z" fill="white"/>
<path fill-rule="evenodd" clip-rule="evenodd" d="M225 39H97V100H225V39ZM94 36V103H228V36H94Z" fill="#B61C31"/>
<path d="M94 17H228V44.4599L161 50L94 44.4599V17Z" fill="#B61C31"/>
<path d="M184.6 37.3045V31.8485H180.104V30.6165H178.632V26.4885H184.584V25.3525H187V26.4885H192.984V30.6165H191.48V31.8485H186.984V33.5285H191.624V35.7205H186.984V37.7845C187.208 37.8005 187.624 37.8165 187.848 37.8165H193.56L193.064 40.2005H187.416C185 40.2005 183.256 39.5765 181.736 37.6405C181.176 38.7605 180.568 39.6885 179.656 40.5525L178.008 38.6005C179.784 37.0005 180.504 34.7445 180.76 32.4245L183.08 32.7285C182.952 33.6885 182.792 34.6005 182.504 35.5285C183.064 36.3925 183.656 36.9205 184.6 37.3045ZM181.016 29.6725H190.6V28.6165H181.016V29.6725Z" fill="white"/>
<path d="M167.336 37.9127V25.7207H175.272V33.4327H174.952L175.992 35.2247C175.368 35.7687 174.84 36.1367 174.136 36.5527C174.696 37.2567 175.272 37.7847 175.976 38.3607L174.504 40.5527C172.328 38.8567 170.984 36.1207 170.536 33.4327H169.64V37.5607C170.328 37.4487 171 37.3207 171.688 37.1607L171.848 39.3047C170.056 39.8007 168.2 40.0887 166.36 40.4087L166.04 38.0727C166.472 38.0247 166.904 37.9767 167.336 37.9127ZM160.952 25.7207H166.744V27.9287C166.44 29.0327 166.056 30.1687 165.608 31.2087C166.52 32.1847 166.904 33.5767 166.904 34.8887C166.904 35.6087 166.744 36.4567 166.2 36.9527C165.912 37.2247 165.432 37.4487 165.032 37.4487H163.72L163.368 35.1607H163.816C164.424 35.1607 164.552 34.9207 164.552 34.3447C164.552 33.2087 164.168 32.3447 163.368 31.5607C163.848 30.3287 164.152 29.1927 164.44 27.9127H163.256V40.5207H160.952V25.7207ZM172.968 27.8167H169.64V28.8087H172.968V27.8167ZM172.968 30.4567H169.64V31.4967H172.968V30.4567ZM173.112 34.8087C173.672 34.3767 174.216 33.9607 174.696 33.4327H172.616C172.76 33.9287 172.904 34.3287 173.112 34.8087Z" fill="white"/>
<path d="M144.184 25.6719H157.032V29.8319H144.184V25.6719ZM146.552 27.4159H154.728V26.9039H146.552V27.4159ZM146.552 28.2959V28.8079H154.728V28.2959H146.552ZM158.2 30.2639V31.6399H142.984V30.2639H158.2ZM156.936 32.1039V36.1519H151.736V36.6159H157.32V37.9439H151.736V38.4239H158.2V40.0719H142.984V38.4239H149.448V37.9439H143.88V36.6159H149.448V36.1519H144.296V32.1039H156.936ZM154.648 33.1439H151.736V33.6559H154.648V33.1439ZM149.448 33.1439H146.632V33.6559H149.448V33.1439ZM149.448 34.5839H146.632V35.0959H149.448V34.5839ZM154.648 34.5839H151.736V35.0959H154.648V34.5839Z" fill="white"/>
<path d="M137.064 38.2324C136.136 39.1764 135.224 39.8164 134.088 40.4564L132.968 38.8084L132.184 40.1684C131.56 39.7204 131.048 39.4324 130.36 39.0964C129.096 39.9124 127.768 40.3284 126.296 40.5844L125.448 38.6004C126.344 38.5204 127.16 38.3764 128.008 38.0564C127.32 37.8004 126.552 37.4964 125.832 37.3524C126.264 36.7284 126.472 36.3124 126.792 35.6244H125.448V33.7044H127.56C127.704 33.3044 127.816 32.9204 127.912 32.5204L128.536 32.5844V30.8724C127.832 31.7524 127.176 32.3604 126.2 32.9524L125.096 31.2244C126.056 30.8884 126.824 30.2804 127.56 29.5924H125.448V27.7684H126.376C126.184 27.1124 125.944 26.4884 125.624 25.8804L127.288 25.2884C127.656 25.9924 127.912 26.4724 128.168 27.2404L126.76 27.7684H128.536V25.3044H130.776V27.7684H132.68L130.968 27.2564C131.384 26.6004 131.672 25.9604 131.928 25.2404L133.784 25.7204C133.48 26.4724 133.16 27.0644 132.776 27.7684H133.56V29.5924H131.496C131.944 30.0404 132.44 30.4404 132.984 30.7764C134.04 29.1924 134.712 27.0804 134.904 25.1924L137.256 25.4484C137.16 26.1204 137.048 26.7764 136.904 27.4484H140.6V29.8644H140.088C139.944 31.9284 139.624 34.3124 138.616 36.1524C139.288 36.9844 139.992 37.5764 140.888 38.1524L139.56 40.5044C138.568 39.8324 137.816 39.1604 137.064 38.2324ZM137.192 33.7524C137.64 32.4564 137.784 31.2244 137.832 29.8644H136.184C136.344 31.2244 136.664 32.5044 137.192 33.7524ZM135.768 36.1844C135.24 35.0164 134.92 33.8804 134.664 32.6324C134.44 32.9524 134.264 33.1604 134.008 33.4484L132.568 31.8164L132.104 32.4244C131.528 32.0084 131.208 31.6404 130.776 31.0804V32.8084H130.168C130.072 33.1124 129.976 33.4004 129.864 33.7044H133.72V35.6244H132.92C132.696 36.3284 132.424 36.9044 132.008 37.5124C132.408 37.6724 132.808 37.8484 133.208 38.0244C134.2 37.5764 135.032 36.9844 135.768 36.1844ZM129.096 35.6244C128.968 35.9124 128.84 36.2004 128.696 36.4884C129.16 36.5844 129.624 36.6964 130.072 36.8244C130.424 36.4404 130.632 36.1044 130.84 35.6244H129.096Z" fill="white"/>
<path d="M183.46 66.8918V68.5298H177.412V70.0838H184.636V74.1158H177.412V75.7118H186.274V80.2898H162.502V75.7118H171.868V74.1158H164.77V70.0838H171.868V68.5298H165.862V66.8918H163.342V57.8198H171.49V55.1318H177.748V57.8198H186.232V66.8918H183.46ZM200.764 55.1318V89.4458C200.764 93.1418 199.882 94.9058 195.892 94.9058H189.718L188.416 88.3118H193.666C194.674 88.3118 194.884 88.0178 194.884 87.0098V55.1318H200.764ZM187.492 57.2318H192.616V84.8678H187.492V57.2318ZM180.94 64.7078V62.5238H168.718V64.7078H171.868V63.2798H177.412V64.7078H180.94ZM164.644 81.6758H184.846V94.3178H164.644V81.6758ZM178.798 85.9178H170.692V89.9078H178.798V85.9178Z" fill="#6F6356"/>
<path d="M155.866 79.8696V85.8336H139.024V94.9476H132.64V85.8336H116.134V79.8696H132.64V76.6776H119.788V56.3496H152.212V76.6776H139.024V79.8696H155.866ZM145.87 61.8096H126.004V64.3296H145.87V61.8096ZM145.87 68.9916H126.004V71.6796H145.87V68.9916Z" fill="#6F6356"/>
<path d="M16 171H102V200H16V171Z" fill="#B61C31"/>
<path d="M83.5841 178.353H86.0001V179.489H91.9841V183.649H89.6001V181.617H80.0161V183.649H77.6321V179.489H83.5841V178.353ZM81.5521 188.577C82.0481 189.377 82.7201 189.969 83.6001 190.305V185.169H80.4641V182.993H89.1521V185.169H85.9841V186.689H90.6241V188.881H85.9841V190.785C86.2721 190.801 86.5601 190.817 86.8481 190.817H92.5601L92.0641 193.201H86.4161C83.9681 193.201 82.3361 192.593 80.7521 190.673C80.1761 191.889 79.6481 192.641 78.6561 193.553L77.0081 191.601C78.7681 190.065 79.4881 187.937 79.7601 185.681L82.0801 185.985C81.9521 186.929 81.8081 187.665 81.5521 188.577Z" fill="white"/>
<path d="M66.3359 190.913V178.721H74.2719V186.433H73.9519L74.9919 188.225C74.3679 188.769 73.8399 189.137 73.1359 189.553C73.6959 190.257 74.2719 190.785 74.9759 191.361L73.5039 193.553C71.3279 191.857 69.9839 189.121 69.5359 186.433H68.6399V190.561C69.3279 190.449 69.9999 190.321 70.6879 190.161L70.8479 192.305C69.0559 192.801 67.1999 193.089 65.3599 193.409L65.0399 191.073C65.4719 191.025 65.9039 190.977 66.3359 190.913ZM59.9519 178.721H65.7439V180.929C65.4399 182.033 65.0559 183.169 64.6079 184.209C65.5199 185.185 65.9039 186.577 65.9039 187.889C65.9039 188.609 65.7439 189.457 65.1999 189.953C64.9119 190.225 64.4319 190.449 64.0319 190.449H62.7199L62.3679 188.161H62.8159C63.4239 188.161 63.5519 187.921 63.5519 187.345C63.5519 186.209 63.1679 185.345 62.3679 184.561C62.8479 183.329 63.1519 182.193 63.4399 180.913H62.2559V193.521H59.9519V178.721ZM71.9679 180.817H68.6399V181.809H71.9679V180.817ZM71.9679 183.457H68.6399V184.497H71.9679V183.457ZM72.1119 187.809C72.6719 187.377 73.2159 186.961 73.6959 186.433H71.6159C71.7599 186.929 71.9039 187.329 72.1119 187.809Z" fill="white"/>
<path d="M43.1839 178.672H56.0319V182.832H43.1839V178.672ZM45.5519 180.416H53.7279V179.904H45.5519V180.416ZM45.5519 181.296V181.808H53.7279V181.296H45.5519ZM57.1999 183.264V184.64H41.9839V183.264H57.1999ZM55.9359 185.104V189.152H50.7359V189.616H56.3199V190.944H50.7359V191.424H57.1999V193.072H41.9839V191.424H48.4479V190.944H42.8799V189.616H48.4479V189.152H43.2959V185.104H55.9359ZM53.6479 186.144H50.7359V186.656H53.6479V186.144ZM48.4479 186.144H45.6319V186.656H48.4479V186.144ZM48.4479 187.584H45.6319V188.096H48.4479V187.584ZM53.6479 187.584H50.7359V188.096H53.6479V187.584Z" fill="white"/>
<path d="M36.0639 191.232C35.1359 192.176 34.2239 192.816 33.0879 193.456L31.9679 191.808L31.1839 193.168C30.5599 192.72 30.0479 192.432 29.3599 192.096C28.0959 192.912 26.7679 193.328 25.2959 193.584L24.4479 191.6C25.3439 191.52 26.1599 191.376 27.0079 191.056C26.3199 190.8 25.5519 190.496 24.8319 190.352C25.2639 189.728 25.4719 189.312 25.7919 188.624H24.4479V186.704H26.5599C26.7039 186.304 26.8159 185.92 26.9119 185.52L27.5359 185.584V183.872C26.8319 184.752 26.1759 185.36 25.1999 185.952L24.0959 184.224C25.0559 183.888 25.8239 183.28 26.5599 182.592H24.4479V180.768H25.3759C25.1839 180.112 24.9439 179.488 24.6239 178.88L26.2879 178.288C26.6559 178.992 26.9119 179.472 27.1679 180.24L25.7599 180.768H27.5359V178.304H29.7759V180.768H31.6799L29.9679 180.256C30.3839 179.6 30.6719 178.96 30.9279 178.24L32.7839 178.72C32.4799 179.472 32.1599 180.064 31.7759 180.768H32.5599V182.592H30.4959C30.9439 183.04 31.4399 183.44 31.9839 183.776C33.0399 182.192 33.7119 180.08 33.9039 178.192L36.2559 178.448C36.1599 179.12 36.0479 179.776 35.9039 180.448H39.5999V182.864H39.0879C38.9439 184.928 38.6239 187.312 37.6159 189.152C38.2879 189.984 38.9919 190.576 39.8879 191.152L38.5599 193.504C37.5679 192.832 36.8159 192.16 36.0639 191.232ZM36.1919 186.752C36.6399 185.456 36.7839 184.224 36.8319 182.864H35.1839C35.3439 184.224 35.6639 185.504 36.1919 186.752ZM34.7679 189.184C34.2399 188.016 33.9199 186.88 33.6639 185.632C33.4399 185.952 33.2639 186.16 33.0079 186.448L31.5679 184.816L31.1039 185.424C30.5279 185.008 30.2079 184.64 29.7759 184.08V185.808H29.1679C29.0719 186.112 28.9759 186.4 28.8639 186.704H32.7199V188.624H31.9199C31.6959 189.328 31.4239 189.904 31.0079 190.512C31.4079 190.672 31.8079 190.848 32.2079 191.024C33.1999 190.576 34.0319 189.984 34.7679 189.184ZM28.0959 188.624C27.9679 188.912 27.8399 189.2 27.6959 189.488C28.1599 189.584 28.6239 189.696 29.0719 189.824C29.4239 189.44 29.6319 189.104 29.8399 188.624H28.0959Z" fill="white"/>
<path d="M235.816 273.36L235.348 274.44C235.072 274.02 234.904 273.708 234.688 273.252V277.128H232.972V273.444C232.54 274.32 232.132 274.908 231.508 275.652L230.896 273.516C231.736 272.844 232.3 271.992 232.78 271.044H231.136V269.4H232.972V265.752H234.688V269.4H236.368V270.384L237.388 269.196C238.156 269.664 238.804 270.192 239.416 270.84L238.18 272.172C237.676 271.548 237.04 270.936 236.368 270.528V271.044H234.808C235.144 271.68 235.588 272.244 236.092 272.748L235.996 272.976L239.68 272.268V267.972L238.612 269.172C238 268.428 237.496 267.948 236.716 267.396L237.808 266.208C238.492 266.628 239.128 267.12 239.68 267.708V265.728H241.528V271.896L242.392 271.728L242.548 273.516L241.528 273.708V277.092H239.68V274.068L236.02 274.776L235.816 273.36ZM236.812 266.484C236.656 267.324 236.332 268.272 235.96 269.04L234.76 268.5C235.048 267.828 235.324 266.868 235.42 266.148L236.812 266.484ZM232.18 266.184C232.456 266.892 232.684 267.756 232.792 268.512L231.52 269.028C231.46 268.116 231.292 267.384 230.956 266.544L232.18 266.184Z" fill="#6F6356"/>
<path d="M219.688 268.464C219.364 268.764 219.136 268.944 218.752 269.148L217.732 267.744C218.572 267.252 219.46 266.544 219.868 265.632L221.656 265.848C221.548 266.124 221.464 266.28 221.32 266.532H229V268.152H228.028V269.328H229.3V270.972H228.028V272.16H229V273.78H218.2V272.16H219.544V270.972H217.924V269.328H219.688V268.464ZM221.944 268.152H221.08V269.328H221.944V268.152ZM224.188 268.152H223.312V269.328H224.188V268.152ZM226.432 268.152H225.556V269.328H226.432V268.152ZM221.944 270.972H221.08V272.16H221.944V270.972ZM224.188 270.972H223.312V272.16H224.188V270.972ZM226.432 270.972H225.556V272.16H226.432V270.972ZM220.744 274.38C220.396 275.472 220.036 276.372 219.304 277.26L217.78 276.216C218.44 275.52 218.848 274.704 219.172 273.804L220.744 274.38ZM227.8 273.804C228.496 274.728 228.892 275.388 229.396 276.432L227.716 277.236C227.332 276.264 226.804 275.34 226.24 274.464L227.8 273.804ZM225.28 274.116C225.604 274.884 226.048 276.156 226.168 276.96L224.38 277.104C224.26 276.096 224.02 275.184 223.684 274.236L225.28 274.116ZM222.832 274.2C222.976 275.004 223.06 276.216 223.06 277.032L221.248 277.08C221.344 276.504 221.344 275.76 221.344 275.172C221.344 274.848 221.344 274.56 221.32 274.248L222.832 274.2Z" fill="#6F6356"/>
<path d="M209.416 273.36L208.948 274.44C208.672 274.02 208.504 273.708 208.288 273.252V277.128H206.572V273.444C206.14 274.32 205.732 274.908 205.108 275.652L204.496 273.516C205.336 272.844 205.9 271.992 206.38 271.044H204.736V269.4H206.572V265.752H208.288V269.4H209.968V270.384L210.988 269.196C211.756 269.664 212.404 270.192 213.016 270.84L211.78 272.172C211.276 271.548 210.64 270.936 209.968 270.528V271.044H208.408C208.744 271.68 209.188 272.244 209.692 272.748L209.596 272.976L213.28 272.268V267.972L212.212 269.172C211.6 268.428 211.096 267.948 210.316 267.396L211.408 266.208C212.092 266.628 212.728 267.12 213.28 267.708V265.728H215.128V271.896L215.992 271.728L216.148 273.516L215.128 273.708V277.092H213.28V274.068L209.62 274.776L209.416 273.36ZM210.412 266.484C210.256 267.324 209.932 268.272 209.56 269.04L208.36 268.5C208.648 267.828 208.924 266.868 209.02 266.148L210.412 266.484ZM205.78 266.184C206.056 266.892 206.284 267.756 206.392 268.512L205.12 269.028C205.06 268.116 204.892 267.384 204.556 266.544L205.78 266.184Z" fill="#6F6356"/>
<path d="M200.272 271.643C200.944 272.603 201.892 273.167 202.996 273.503L201.976 275.099H203.092L202.744 276.839H196.552C195.472 276.839 194.5 276.467 193.84 275.579C193.324 276.203 192.772 276.707 192.088 277.163L191.38 275.171C191.872 274.931 192.196 274.703 192.616 274.355V271.871H191.572V270.191H194.344V273.683C194.536 274.547 195.064 274.907 195.916 275.051L194.812 273.527C195.844 273.155 196.828 272.615 197.392 271.643H194.764V269.939H197.884V268.895H195.088V267.191H196.156C196 266.759 195.832 266.423 195.616 266.015L197.38 265.691C197.608 266.171 197.824 266.699 198.004 267.191H199.54C199.756 266.783 199.996 266.147 200.104 265.691L201.916 265.967C201.772 266.387 201.568 266.795 201.376 267.191H202.528V268.895H199.624V269.939H202.864V271.643H200.272ZM192.844 265.823C193.624 266.435 194.224 267.035 194.872 267.779L193.528 269.087C192.976 268.355 192.364 267.659 191.644 267.083L192.844 265.823ZM201.748 275.099C200.416 274.511 199.456 273.563 198.832 272.255C198.364 273.443 197.308 274.511 196.18 275.087C196.372 275.099 196.564 275.099 196.744 275.099H201.748Z" fill="#6F6356"/>
<path d="M16 223H102V287H16V223Z" fill="#6F6356"/>
<path d="M81.0639 271.448L81.0959 272.36C81.1119 272.664 81.1119 272.968 81.1119 273.272C81.1119 276.216 80.5519 278.44 78.0239 280.232L75.7519 278.584C77.9439 277.24 78.5519 275.56 78.5519 273.064C78.5519 272.856 78.5359 272.648 78.5359 272.424L78.5039 271.672C77.5279 271.72 76.5679 271.752 75.5919 271.752C74.9679 271.752 74.3439 271.736 73.7039 271.704L73.6559 269.192C74.4399 269.24 75.2239 269.256 76.0079 269.256C76.8079 269.256 77.6079 269.224 78.4079 269.208L78.2959 266.12H80.9039L80.9999 268.984C81.7519 268.888 82.5039 268.76 83.2399 268.6L83.3679 271.096C82.5999 271.24 81.8479 271.352 81.0639 271.448ZM70.5359 266.232L73.1599 266.536C72.6159 268.808 72.2639 270.984 72.2639 273.32C72.2639 275.304 72.5199 277.16 72.9999 279.064L70.5519 279.448C69.9599 277.592 69.7839 275.352 69.7839 273.416C69.7839 271 70.0719 268.6 70.5359 266.232Z" fill="white"/>
<path d="M61.3997 270.856V271.896H65.6237V280.296H55.0317V271.896H59.1917V270.856H54.5037V272.712C54.5037 275.24 54.0557 278.312 52.7757 280.504L50.8237 278.584C51.7997 276.824 52.1357 274.616 52.1357 272.616V265.784H65.6077V270.856H61.3997ZM63.2397 267.88H54.5037V268.952H63.2397V267.88ZM59.1917 273.848H57.3037V275.128H59.1917V273.848ZM63.3677 273.848H61.3997V275.128H63.3677V273.848ZM59.1917 276.888H57.3037V278.248H59.1917V276.888ZM63.3677 276.888H61.3997V278.248H63.3677V276.888Z" fill="white"/>
<path d="M37.7359 268.296V265.816H40.2319V268.104C41.1599 268.024 42.1199 267.832 43.0159 267.624L43.0639 270.12C42.1199 270.264 41.1759 270.392 40.2319 270.504V271.48C41.1439 271.224 42.0879 271.064 43.0319 271.064C44.7119 271.064 46.3279 271.624 47.1919 273.16C47.5759 273.848 47.7519 274.648 47.7519 275.448C47.7519 276.776 47.1919 278.184 46.0079 278.904C45.2719 279.352 44.3599 279.544 43.4959 279.544C42.9519 279.544 42.5199 279.48 41.9919 279.352L41.9119 276.744C42.3759 276.936 42.7919 277.032 43.2879 277.032C44.3759 277.032 45.1759 276.52 45.1759 275.352C45.1759 273.88 43.9439 273.384 42.6799 273.384C41.8159 273.384 41.0479 273.56 40.2319 273.832V276.648C40.2319 277.208 40.2159 277.816 40.0399 278.312C39.7199 279.304 38.8719 279.816 37.8639 279.816C36.9839 279.816 36.0719 279.48 35.3679 278.968C34.5519 278.392 34.0879 277.576 34.0879 276.568C34.0879 274.584 36.0879 273.112 37.7359 272.376V270.728C36.9039 270.76 36.0719 270.808 35.2239 270.808C35.0479 270.808 34.8719 270.808 34.6959 270.808L34.6639 268.28C35.1919 268.312 35.7359 268.328 36.2639 268.328C36.7599 268.328 37.2399 268.312 37.7359 268.296ZM37.7999 274.904C37.2719 275.224 36.2959 275.896 36.2959 276.6C36.2959 277.096 36.9519 277.496 37.4159 277.496C37.8159 277.496 37.7999 277.064 37.7999 276.616V274.904ZM43.4959 268.456L45.0159 266.76C46.3919 267.608 47.5439 268.616 48.5999 269.816L46.8239 271.528C45.8319 270.232 44.8559 269.336 43.4959 268.456Z" fill="white"/>
<path d="M53.9706 261.49C55.7992 259.786 56.0808 257.115 54.5995 255.526C53.1182 253.937 50.4349 254.031 48.6063 255.736C46.7776 257.44 46.496 260.11 47.9773 261.7C49.4586 263.289 52.1419 263.195 53.9706 261.49Z" fill="white"/>
<path d="M78.1666 261.492C79.9953 259.788 80.2769 257.117 78.7956 255.528C77.3142 253.939 74.631 254.033 72.8023 255.738C70.9736 257.442 70.692 260.112 72.1734 261.701C73.6547 263.291 76.3379 263.197 78.1666 261.492Z" fill="white"/>
<path d="M34.9344 240.729C34.9344 239.598 34.0174 238.681 32.8863 238.681C31.7551 238.681 30.8381 239.598 30.8381 240.729C30.8381 241.86 31.7551 242.777 32.8863 242.777C34.0174 242.777 34.9344 241.86 34.9344 240.729Z" fill="white"/>
<path d="M69.1238 258.134C69.803 254.787 72.9742 252.127 76.3827 252.127C79.6647 252.127 82.0302 254.594 81.9653 257.766C85.5148 257.859 86.5028 253.198 86.5028 253.198C86.8016 251.895 87.2481 249.354 87.6218 246.86C87.7443 246.09 87.6502 245.302 87.3499 244.582C86.4221 242.422 85.3008 240.35 83.9997 238.391C82.7688 236.56 80.7042 235.476 78.3476 235.436C76.9422 235.414 75.5625 235.401 74.5207 235.401L74.5117 235.392C74.3775 233.151 72.7393 231.435 70.4397 231.23C68.9436 231.097 63.0175 231 60.173 231C59.0428 231 57.4214 231.016 55.781 231.042V231.036H55.7675H36.0442C35.7932 231.036 35.5446 231.085 35.3126 231.18C35.0807 231.276 34.8699 231.417 34.6924 231.594C34.5149 231.771 34.3742 231.981 34.2782 232.212C34.1822 232.443 34.1328 232.691 34.133 232.942V232.95C34.133 233.454 34.3334 233.936 34.6901 234.292C35.0469 234.647 35.5307 234.847 36.0353 234.847H40.011C40.4898 234.883 40.9375 235.097 41.2643 235.447C41.5912 235.798 41.773 236.259 41.7734 236.738V236.748C41.7742 236.998 41.7254 237.246 41.6298 237.478C41.5342 237.71 41.3937 237.92 41.2164 238.098C41.0391 238.276 40.8284 238.416 40.5964 238.513C40.3645 238.609 40.1157 238.659 39.8644 238.659H37.8256C37.319 238.659 36.8332 238.86 36.475 239.217C36.1168 239.574 35.9155 240.059 35.9155 240.564C35.9154 240.814 35.9647 241.062 36.0606 241.293C36.1565 241.524 36.2972 241.734 36.4746 241.911C36.652 242.088 36.8626 242.229 37.0944 242.324C37.3262 242.42 37.5747 242.469 37.8256 242.469H39.8644C40.3713 242.469 40.8575 242.67 41.2159 243.028C41.5743 243.385 41.7757 243.87 41.7757 244.375C41.7757 244.881 41.5743 245.366 41.2159 245.723C40.8575 246.08 40.3713 246.281 39.8644 246.281H32.2374C31.7307 246.281 31.2447 246.482 30.8864 246.839C30.528 247.196 30.3265 247.681 30.3262 248.186C30.3262 248.691 30.5275 249.176 30.886 249.533C31.2444 249.891 31.7305 250.092 32.2374 250.092H39.8644C40.3713 250.092 40.8575 250.292 41.2159 250.65C41.5743 251.007 41.7757 251.492 41.7757 251.997C41.7751 252.503 41.5735 252.987 41.2151 253.344C40.8567 253.701 40.3709 253.901 39.8644 253.901H37.5056C36.999 253.901 36.5132 254.102 36.155 254.459C35.7967 254.816 35.5955 255.301 35.5955 255.806C35.5955 256.311 35.7967 256.796 36.1549 257.153C36.5131 257.51 36.9989 257.711 37.5056 257.712L45.0319 257.706L45.6575 256.152C46.9387 253.795 49.4878 252.126 52.1868 252.126C55.5963 252.126 58.0178 254.788 57.7515 258.138H69.1227M50.167 239.546H47.6023C47.5998 239.546 47.5975 239.547 47.5957 239.549C47.5939 239.55 47.5927 239.553 47.5922 239.555L47.3561 241.229C47.3557 241.23 47.3557 241.231 47.356 241.233C47.3563 241.234 47.3569 241.235 47.3578 241.237C47.3586 241.238 47.3597 241.238 47.361 241.239C47.3623 241.24 47.3636 241.24 47.365 241.24H49.274C49.3677 241.237 49.4608 241.255 49.5466 241.293C49.6323 241.331 49.7085 241.387 49.7696 241.458C49.8308 241.529 49.8752 241.613 49.8998 241.703C49.9244 241.793 49.9285 241.888 49.9119 241.98C49.8791 242.182 49.7768 242.366 49.6224 242.501C49.468 242.636 49.2712 242.713 49.0659 242.719H47.1547C47.1523 242.719 47.1501 242.72 47.1482 242.722C47.1464 242.723 47.1451 242.725 47.1446 242.727L46.8022 245.159C46.7695 245.361 46.6671 245.545 46.5127 245.68C46.3583 245.815 46.1615 245.892 45.9562 245.898C45.8626 245.901 45.7695 245.883 45.6838 245.845C45.5981 245.807 45.5219 245.751 45.4609 245.68C45.3999 245.609 45.3555 245.525 45.331 245.435C45.3066 245.345 45.3026 245.251 45.3195 245.159L46.208 238.852C46.2432 238.638 46.3518 238.444 46.5151 238.301C46.6784 238.159 46.8863 238.077 47.1032 238.071H50.374C50.4677 238.068 50.5608 238.086 50.6465 238.124C50.7322 238.162 50.8083 238.218 50.8693 238.289C50.9304 238.36 50.9747 238.444 50.9992 238.534C51.0237 238.624 51.0276 238.719 51.0107 238.811C50.9775 239.012 50.8752 239.195 50.7213 239.329C50.5673 239.464 50.3714 239.54 50.167 239.546ZM57.0219 238.573C57.2884 238.809 57.4758 239.12 57.559 239.466C57.6521 239.857 57.6673 240.263 57.6038 240.66C57.526 241.277 57.2724 241.86 56.8731 242.339C56.6292 242.626 56.3195 242.851 55.9701 242.994C55.9685 242.996 55.9676 242.998 55.9676 243C55.9676 243.002 55.9685 243.005 55.9701 243.006L56.6057 244.835C56.7769 245.326 56.3371 245.898 55.7899 245.898H55.7541C55.6214 245.902 55.4908 245.864 55.3814 245.789C55.2719 245.714 55.1893 245.606 55.1454 245.481L54.3766 243.249C54.3755 243.248 54.374 243.246 54.3723 243.245C54.3705 243.244 54.3686 243.244 54.3666 243.244H52.7328C52.7306 243.244 52.7284 243.245 52.7266 243.246C52.7248 243.248 52.7234 243.25 52.7228 243.252L52.4542 245.158C52.4215 245.36 52.3191 245.544 52.1647 245.679C52.0103 245.814 51.8135 245.891 51.6082 245.897C51.5146 245.9 51.4215 245.882 51.3358 245.844C51.2501 245.806 51.1739 245.75 51.1129 245.679C51.0519 245.608 51.0075 245.524 50.9831 245.434C50.9586 245.344 50.9547 245.249 50.9715 245.158L51.86 238.851C51.8952 238.637 52.0038 238.443 52.1671 238.3C52.3304 238.158 52.5383 238.076 52.7552 238.07H55.2841C55.2841 238.07 56.3942 238.035 57.0219 238.573ZM63.982 238.758C63.9516 238.947 63.8561 239.119 63.7118 239.246C63.5676 239.372 63.3838 239.444 63.192 239.449H60.2502C60.2479 239.449 60.2457 239.45 60.2439 239.451C60.2421 239.453 60.2408 239.455 60.2401 239.457L60.0063 241.113C60.0059 241.114 60.0059 241.115 60.0062 241.117C60.0065 241.118 60.0071 241.119 60.0079 241.12C60.0088 241.122 60.0099 241.122 60.0112 241.123C60.0124 241.124 60.0138 241.124 60.0152 241.124H62.3002C62.3877 241.121 62.4747 241.138 62.5548 241.173C62.6349 241.209 62.706 241.261 62.7631 241.328C62.8202 241.394 62.8617 241.472 62.8846 241.556C62.9075 241.64 62.9112 241.729 62.8955 241.815C62.8651 242.003 62.7695 242.176 62.6253 242.302C62.4811 242.428 62.2972 242.5 62.1055 242.505H59.8194C59.8171 242.505 59.8149 242.506 59.8131 242.508C59.8113 242.509 59.81 242.511 59.8093 242.513L59.5285 244.506C59.5284 244.509 59.5295 244.511 59.5313 244.513C59.5332 244.515 59.5358 244.517 59.5385 244.517H62.4781C62.5656 244.514 62.6526 244.531 62.7327 244.567C62.8128 244.602 62.884 244.655 62.941 244.721C62.9981 244.787 63.0396 244.865 63.0625 244.949C63.0854 245.034 63.0891 245.122 63.0734 245.208C63.043 245.397 62.9474 245.569 62.8032 245.695C62.659 245.821 62.4751 245.893 62.2834 245.898H58.6355C58.5371 245.9 58.4395 245.88 58.3498 245.839C58.2601 245.799 58.1804 245.739 58.1163 245.665C58.0523 245.59 58.0054 245.502 57.9791 245.408C57.9528 245.313 57.9477 245.214 57.9641 245.117L58.847 238.855C58.8822 238.642 58.9907 238.447 59.1541 238.305C59.3174 238.162 59.5253 238.081 59.7422 238.074H63.389C63.4756 238.072 63.5616 238.089 63.6409 238.124C63.7201 238.159 63.7906 238.211 63.8473 238.277C63.904 238.342 63.9455 238.419 63.9688 238.502C63.9921 238.586 63.9966 238.673 63.982 238.758ZM70.0928 238.758C70.0624 238.947 69.9669 239.119 69.8226 239.246C69.6784 239.372 69.4946 239.444 69.3028 239.449H66.361C66.3587 239.449 66.3565 239.45 66.3547 239.451C66.3529 239.453 66.3516 239.455 66.3509 239.457L66.1182 241.113C66.1178 241.114 66.1178 241.115 66.1181 241.117C66.1184 241.118 66.119 241.119 66.1199 241.12C66.1207 241.122 66.1218 241.122 66.1231 241.123C66.1244 241.124 66.1258 241.124 66.1271 241.124H68.4121C68.4996 241.121 68.5866 241.138 68.6667 241.173C68.7468 241.209 68.818 241.261 68.875 241.328C68.9321 241.394 68.9736 241.472 68.9965 241.556C69.0194 241.64 69.0231 241.729 69.0074 241.815C68.977 242.003 68.8814 242.176 68.7372 242.302C68.593 242.428 68.4091 242.5 68.2174 242.505H65.9302C65.9279 242.505 65.9257 242.506 65.9239 242.508C65.9221 242.509 65.9208 242.511 65.9201 242.513L65.6393 244.506C65.6392 244.509 65.6403 244.511 65.6421 244.513C65.644 244.515 65.6466 244.517 65.6493 244.517H68.5889C68.6764 244.514 68.7634 244.531 68.8435 244.567C68.9236 244.602 68.9948 244.655 69.0518 244.721C69.1089 244.787 69.1504 244.865 69.1733 244.949C69.1962 245.034 69.1999 245.122 69.1842 245.208C69.1538 245.397 69.0582 245.569 68.914 245.695C68.7698 245.821 68.5859 245.893 68.3942 245.898H64.7463C64.6479 245.9 64.5504 245.88 64.4606 245.839C64.3709 245.799 64.2912 245.739 64.2271 245.665C64.1631 245.59 64.1162 245.502 64.0899 245.408C64.0636 245.313 64.0585 245.214 64.0749 245.117L64.9578 238.855C64.993 238.642 65.1016 238.447 65.2649 238.305C65.4282 238.162 65.6361 238.081 65.853 238.074H69.4998C69.5864 238.072 69.6725 238.089 69.7517 238.124C69.8309 238.159 69.9014 238.211 69.9581 238.277C70.0148 238.342 70.0563 238.419 70.0796 238.502C70.1029 238.586 70.1074 238.673 70.0928 238.758ZM74.345 238.043C75.3443 238.043 76.6378 238.056 77.9358 238.078C79.5091 238.103 80.8855 238.824 81.7113 240.054C82.5934 241.38 83.3863 242.763 84.0847 244.193C84.454 244.943 83.7747 245.92 82.8851 245.92H73.3457L74.345 238.043Z" fill="white"/>
<path d="M54.5476 241.752H52.8557L53.177 239.705H54.8678C54.8678 239.705 56.1088 239.634 55.9054 240.729C55.9107 240.729 55.7683 241.752 54.5476 241.752Z" fill="white"/>
</svg>
