<svg width="333" height="305" viewBox="0 0 333 305" fill="none" xmlns="http://www.w3.org/2000/svg">
<path d="M0 0H333V305H0V0Z" fill="#F5EEE6"/>
<path d="M293.047 115.008C294.855 116.112 296.743 116.768 298.823 117.152L297.383 119.552C295.143 118.976 292.983 118.08 291.111 116.688C289.127 118.096 287.175 118.928 284.823 119.552L283.495 117.168C285.511 116.72 287.447 116.064 289.223 115.008C287.495 113.088 286.471 111.104 285.767 108.64H283.559V106.256H289.879V104.352H292.407V106.256H298.711V108.64H296.487C295.799 111.088 294.775 113.136 293.047 115.008ZM291.143 113.52C292.567 112.032 293.287 110.608 293.879 108.64H288.359C288.951 110.592 289.703 112.048 291.143 113.52Z" fill="#6F6356"/>
<path d="M275.031 107.104C274.247 106.48 273.431 105.952 272.535 105.504L274.775 104.096C275.879 104.672 276.935 105.344 277.911 106.112L276.279 107.104H280.839V109.36H276.807V111.824H280.311V114.08H276.807V116.88H281.159V119.12H269.735V116.88H274.311V114.08H270.855V111.824H274.311V109.36H270.327V107.104H275.031ZM267.591 104.288C268.631 104.736 269.511 105.248 270.423 105.904L268.999 107.888C268.055 107.12 267.367 106.704 266.295 106.144L267.591 104.288ZM267.127 108.336C268.103 108.784 269.015 109.36 269.863 110.048L268.503 112.032C267.607 111.296 266.855 110.8 265.831 110.256L267.127 108.336ZM270.407 114.016C269.559 116.016 268.615 117.84 267.287 119.584L265.783 117.312C266.951 115.872 267.847 114.224 268.599 112.528L270.407 114.016Z" fill="#6F6356"/>
<path d="M250.391 105.392L252.999 105.68C252.439 108.112 252.087 110.528 252.087 113.04C252.087 114.832 252.263 116.544 252.663 118.304L250.119 118.592C249.719 116.8 249.591 114.96 249.591 113.136C249.591 110.432 249.895 108.048 250.391 105.392ZM261.927 109.056C260.983 108.976 260.039 108.928 259.079 108.928C257.543 108.928 256.023 109.056 254.503 109.264L254.551 106.704C256.071 106.544 257.591 106.432 259.111 106.432C260.071 106.432 261.031 106.48 261.991 106.56L261.927 109.056ZM256.647 113.088C256.407 113.44 256.183 113.936 256.183 114.384C256.183 114.784 256.439 115.024 256.807 115.136C257.351 115.312 258.279 115.328 258.871 115.328C260.135 115.328 261.399 115.168 262.647 114.944L262.583 117.552C261.367 117.728 260.135 117.84 258.903 117.84C256.791 117.84 253.863 117.632 253.863 114.832C253.863 114.032 254.119 113.36 254.503 112.656L256.647 113.088Z" fill="#6F6356"/>
<path d="M231.352 106.56C232.328 106.544 233.304 106.528 234.28 106.464L244.968 105.68L245.176 108.24C243.544 108.272 242.2 108.448 240.744 109.264C239.288 110.08 237.992 111.392 237.992 113.152C237.992 115.568 240.856 116.24 242.76 116.384L241.56 118.912C238.408 118.544 235.32 116.928 235.32 113.344C235.32 111.84 235.912 110.352 237.016 109.312C237.384 108.96 237.816 108.656 238.232 108.368L231.544 109.232L231.352 106.56ZM240.728 110.816L242.072 110.048C242.824 110.944 243.384 111.984 243.896 113.024L242.488 113.856C241.976 112.672 241.512 111.856 240.728 110.816ZM242.904 109.6L244.264 108.88C245.032 109.776 245.608 110.768 246.136 111.824L244.728 112.608C244.152 111.392 243.736 110.656 242.904 109.6Z" fill="#6F6356"/>
<path d="M219.655 106.656L219.639 104.848H222.151L222.167 106.624C223.815 106.608 225.447 106.576 227.095 106.496L227.079 108.848C225.447 108.88 223.815 108.912 222.183 108.928L222.199 109.888C223.607 109.84 225.015 109.792 226.439 109.712V112.032C225.031 112.08 223.623 112.128 222.215 112.16V113.616C223.927 114.064 225.367 114.768 226.887 115.68L225.703 118.096C224.551 117.264 223.495 116.672 222.183 116.144C222.119 118.208 220.455 118.864 218.631 118.864C216.871 118.864 214.807 118.128 214.807 116.032C214.807 114.928 215.495 114.032 216.503 113.616C217.287 113.296 218.151 113.2 218.983 113.2C219.223 113.2 219.463 113.2 219.703 113.216L219.687 112.192C218.135 112.208 216.583 112.224 215.015 112.208L215.031 109.872C215.975 109.904 216.919 109.936 217.879 109.936C218.471 109.936 219.079 109.92 219.671 109.92V108.96C218.791 108.96 217.911 108.976 217.047 108.976C216.183 108.976 215.335 108.96 214.471 108.96L214.487 106.592C216.215 106.64 217.927 106.656 219.655 106.656ZM219.687 115.568V115.408C219.367 115.36 219.047 115.344 218.727 115.344C218.263 115.344 217.111 115.392 217.111 116.064C217.111 116.608 217.991 116.704 218.391 116.704C219.639 116.704 219.687 116.128 219.687 115.568Z" fill="#6F6356"/>
<path d="M205.469 104.16C208.189 106.048 209.885 109.056 209.885 112.816C209.885 116.576 208.189 119.584 205.469 121.472L204.157 120.032C206.221 118.416 207.549 115.936 207.549 112.816C207.549 109.696 206.221 107.232 204.157 105.6L205.469 104.16Z" fill="#6F6356"/>
<path d="M199.981 104.88V117.92C199.981 118.832 199.389 119.488 198.461 119.488H194.717L194.317 116.96H197.005C197.325 116.96 197.485 116.784 197.485 116.48V114.624H190.445C190.189 116.432 189.661 118.08 188.605 119.584L186.445 117.84C187.757 115.984 188.205 113.84 188.205 111.584V104.88H199.981ZM190.637 107.28V108.672H197.485V107.28H190.637ZM190.637 110.896V112.384H197.485V110.896H190.637Z" fill="#6F6356"/>
<path d="M182.499 121.472C179.779 119.6 178.083 116.592 178.083 112.816C178.083 109.056 179.779 106.048 182.499 104.176L183.827 105.6C181.747 107.232 180.419 109.696 180.419 112.816C180.419 115.936 181.747 118.416 183.827 120.032L182.499 121.472Z" fill="#6F6356"/>
<path d="M169.844 118.367C166.852 118.367 165.044 116.047 165.044 111.695C165.044 107.343 166.852 105.023 169.844 105.023C172.836 105.023 174.644 107.343 174.644 111.695C174.644 116.047 172.836 118.367 169.844 118.367ZM169.844 115.887C170.98 115.887 171.62 114.639 171.62 111.695C171.62 108.751 170.98 107.503 169.844 107.503C168.708 107.503 168.068 108.751 168.068 111.695C168.068 114.639 168.708 115.887 169.844 115.887Z" fill="#6F6356"/>
<path d="M152.886 117.263L153.366 114.655C154.374 115.391 155.574 115.855 156.79 115.855C158.23 115.855 159.046 115.375 159.046 114.303C159.046 113.311 158.39 112.671 156.134 112.671H154.742V110.527H156.022C157.782 110.527 158.758 109.935 158.758 108.831C158.758 107.967 158.134 107.519 156.966 107.519C155.942 107.519 154.934 107.919 154.038 108.751L152.982 106.463C154.246 105.471 155.718 105.023 157.318 105.023C160.006 105.023 161.734 106.063 161.734 108.303C161.734 109.807 160.854 110.991 159.206 111.471C160.998 111.839 162.038 112.863 162.038 114.559C162.038 116.959 160.102 118.383 157.062 118.383C155.446 118.383 153.91 117.951 152.886 117.263Z" fill="#6F6356"/>
<path d="M141.57 121.008L147.698 104.64H150.194L144.05 121.008H141.57Z" fill="#6F6356"/>
<path d="M131.155 118.032L131.395 115.616C132.083 115.872 132.675 115.968 133.491 115.968C135.379 115.968 136.467 114.864 136.835 112.688C136.147 113.248 135.347 113.552 134.323 113.552C131.859 113.552 130.211 112.016 130.211 109.456C130.211 106.912 132.051 105.008 134.947 105.008C137.683 105.008 139.875 106.624 139.875 111.104C139.875 115.52 137.571 118.384 133.539 118.384C132.595 118.384 131.795 118.24 131.155 118.032ZM133.219 109.504C133.219 110.784 133.939 111.488 135.059 111.488C135.795 111.488 136.435 111.216 136.963 110.624C136.915 108.272 136.227 107.44 135.027 107.44C133.891 107.44 133.219 108.32 133.219 109.504Z" fill="#6F6356"/>
<path d="M116.099 114.4L113.635 114.112C113.731 110.896 115.459 109.424 117.379 109.424C118.723 109.424 119.811 110.064 120.995 110.912C121.795 111.472 122.275 111.696 122.739 111.696C123.555 111.696 124.067 110.816 124.163 109.44L126.627 109.728C126.531 112.944 124.803 114.416 122.899 114.416C121.539 114.416 120.451 113.776 119.267 112.928C118.467 112.368 118.003 112.144 117.523 112.144C116.707 112.144 116.195 113.04 116.099 114.4Z" fill="#6F6356"/>
<path d="M96.4194 103.264C99.1394 105.152 100.835 108.16 100.835 111.92C100.835 115.68 99.1394 118.688 96.4194 120.576L95.1074 119.136C97.1714 117.504 98.4994 115.04 98.4994 111.92C98.4994 108.8 97.1714 106.336 95.1074 104.704L96.4194 103.264Z" fill="#6F6356"/>
<path d="M90.931 104.88V117.92C90.931 118.832 90.339 119.488 89.411 119.488H85.667L85.267 116.96H87.955C88.275 116.96 88.435 116.784 88.435 116.48V114.624H81.395C81.139 116.432 80.611 118.08 79.555 119.584L77.395 117.84C78.707 115.984 79.155 113.84 79.155 111.584V104.88H90.931ZM81.587 107.28V108.672H88.435V107.28H81.587ZM81.587 110.896V112.384H88.435V110.896H81.587Z" fill="#6F6356"/>
<path d="M73.4492 121.472C70.7292 119.6 69.0332 116.592 69.0332 112.816C69.0332 109.056 70.7292 106.048 73.4492 104.176L74.7772 105.6C72.6972 107.232 71.3692 109.696 71.3692 112.816C71.3692 115.936 72.6972 118.416 74.7772 120.032L73.4492 121.472Z" fill="#6F6356"/>
<path d="M56.8586 118.032L57.0986 115.616C57.7866 115.872 58.3786 115.968 59.1946 115.968C61.0826 115.968 62.1706 114.864 62.5386 112.688C61.8506 113.248 61.0506 113.552 60.0266 113.552C57.5626 113.552 55.9146 112.016 55.9146 109.456C55.9146 106.912 57.7546 105.008 60.6506 105.008C63.3866 105.008 65.5786 106.624 65.5786 111.104C65.5786 115.52 63.2746 118.384 59.2426 118.384C58.2986 118.384 57.4986 118.24 56.8586 118.032ZM58.9226 109.504C58.9226 110.784 59.6426 111.488 60.7626 111.488C61.4986 111.488 62.1386 111.216 62.6666 110.624C62.6186 108.272 61.9306 107.44 60.7306 107.44C59.5946 107.44 58.9226 108.32 58.9226 109.504Z" fill="#6F6356"/>
<path d="M44.8389 121.008L50.9669 104.64H53.4629L47.3189 121.008H44.8389Z" fill="#6F6356"/>
<path d="M34.424 118.032L34.664 115.616C35.352 115.872 35.944 115.968 36.76 115.968C38.648 115.968 39.736 114.864 40.104 112.688C39.416 113.248 38.616 113.552 37.592 113.552C35.128 113.552 33.48 112.016 33.48 109.456C33.48 106.912 35.32 105.008 38.216 105.008C40.952 105.008 43.144 106.624 43.144 111.104C43.144 115.52 40.84 118.384 36.808 118.384C35.864 118.384 35.064 118.24 34.424 118.032ZM36.488 109.504C36.488 110.784 37.208 111.488 38.328 111.488C39.064 111.488 39.704 111.216 40.232 110.624C40.184 108.272 39.496 107.44 38.296 107.44C37.16 107.44 36.488 108.32 36.488 109.504Z" fill="#6F6356"/>
<path d="M67.287 94.2604H73.177V95.7004H70.177V96.6604H72.857V98.0604H70.177V99.3904H73.527V100.83H70.177V102.94H68.637V100.83H64.067V99.3904H65.417V97.1604C65.257 97.3204 65.077 97.4804 64.897 97.6304L63.917 96.3104C64.867 95.5704 65.627 94.5204 65.957 93.3604L67.517 93.5704C67.447 93.8104 67.377 94.0204 67.287 94.2604ZM66.557 95.7004C66.347 96.0404 66.117 96.3504 65.867 96.6604H68.637V95.7004H66.557ZM68.637 98.0604H66.907V99.3904H68.637V98.0604Z" fill="#6F6356"/>
<path d="M59.9176 102.08V100.45H56.3276V98.95L59.7976 94H61.5976V98.95H62.5876V100.45H61.5976V102.08H59.9176ZM57.9576 98.95H59.9176V96.1L57.9576 98.95Z" fill="#6F6356"/>
<path d="M48.9485 102.08V100.69L51.4585 98.3899C52.2185 97.6699 52.5785 97.2099 52.5785 96.5899C52.5785 95.9199 52.1385 95.4999 51.4685 95.4999C50.7785 95.4999 50.1885 95.9199 49.7285 96.6099L48.9185 95.1799C49.6185 94.3599 50.5485 93.8799 51.6985 93.8799C53.3285 93.8799 54.4385 94.7999 54.4385 96.3199C54.4385 97.4699 53.8685 98.2099 52.5785 99.3699L51.3385 100.48H54.5185V102.08H48.9485Z" fill="#6F6356"/>
<path d="M44.0493 102.231C42.1793 102.231 41.0493 100.781 41.0493 98.0606C41.0493 95.3406 42.1793 93.8906 44.0493 93.8906C45.9193 93.8906 47.0493 95.3406 47.0493 98.0606C47.0493 100.781 45.9193 102.231 44.0493 102.231ZM44.0493 100.681C44.7593 100.681 45.1593 99.9006 45.1593 98.0606C45.1593 96.2206 44.7593 95.4406 44.0493 95.4406C43.3393 95.4406 42.9393 96.2206 42.9393 98.0606C42.9393 99.9006 43.3393 100.681 44.0493 100.681Z" fill="#6F6356"/>
<path d="M33.55 102.08V100.69L36.06 98.3899C36.82 97.6699 37.18 97.2099 37.18 96.5899C37.18 95.9199 36.74 95.4999 36.07 95.4999C35.38 95.4999 34.79 95.9199 34.33 96.6099L33.52 95.1799C34.22 94.3599 35.15 93.8799 36.3 93.8799C37.93 93.8799 39.04 94.7999 39.04 96.3199C39.04 97.4699 38.47 98.2099 37.18 99.3699L35.94 100.48H39.12V102.08H33.55Z" fill="#6F6356"/>
<path d="M320.389 282.473C321.196 282.473 321.842 283.119 321.842 283.926C321.842 284.734 321.196 285.38 320.389 285.38C319.591 285.38 318.935 284.734 318.935 283.926C318.935 283.128 319.591 282.473 320.389 282.473ZM320.389 283.033C319.895 283.033 319.496 283.432 319.496 283.926C319.496 284.42 319.895 284.819 320.389 284.819C320.892 284.819 321.291 284.42 321.291 283.926C321.291 283.432 320.883 283.033 320.389 283.033Z" fill="#6F6356"/>
<path d="M315.76 279.328L315.798 282.235C315.817 284.05 314.877 285.133 313.224 285.75L312.53 284.886C313.433 284.572 314.164 284.164 314.592 283.261C314.288 283.518 313.955 283.641 313.556 283.641C312.502 283.641 311.818 282.767 311.818 281.76C311.818 280.677 312.587 279.86 313.68 279.86C314.107 279.86 314.44 279.965 314.772 280.231L314.753 279.347L311.97 279.423C311.381 279.442 310.801 279.461 310.212 279.499L310.193 278.454C310.497 278.464 310.811 278.473 311.124 278.473C311.39 278.473 311.666 278.473 311.941 278.464L314.725 278.407L314.696 277.21H315.741L315.751 278.388L316.577 278.369C317.147 278.35 317.727 278.331 318.297 278.283L318.316 279.319C318.031 279.3 317.746 279.3 317.461 279.3C317.166 279.3 316.881 279.3 316.587 279.3L315.76 279.328ZM314.706 281.751C314.706 281.19 314.345 280.753 313.765 280.753C313.195 280.753 312.825 281.209 312.825 281.751C312.825 282.302 313.176 282.748 313.746 282.748C314.316 282.748 314.706 282.302 314.706 281.751Z" fill="#6F6356"/>
<path d="M304.322 278.549L304.313 277.295H305.367L305.377 278.539C306.384 278.52 307.381 278.492 308.388 278.454V279.451C307.391 279.489 306.384 279.508 305.377 279.527L305.386 280.401C306.26 280.382 307.134 280.354 308.008 280.306L308.018 281.313C307.144 281.351 306.27 281.37 305.396 281.389V282.615C306.45 282.862 307.334 283.308 308.255 283.859L307.733 284.866C306.973 284.334 306.27 283.964 305.396 283.65C305.386 284.144 305.396 284.562 305.016 284.942C304.626 285.322 303.942 285.427 303.41 285.427C302.489 285.427 301.349 285.028 301.349 283.935C301.349 282.7 302.698 282.396 303.676 282.396C303.904 282.396 304.132 282.415 304.351 282.434L304.341 281.408C303.847 281.418 303.344 281.427 302.84 281.427C302.375 281.427 301.909 281.418 301.444 281.418V280.392C301.985 280.411 302.527 280.42 303.059 280.42C303.486 280.42 303.914 280.42 304.341 280.42L304.332 279.537C303.819 279.537 303.315 279.546 302.812 279.546C302.242 279.546 301.681 279.537 301.121 279.527V278.511C302.185 278.539 303.258 278.549 304.322 278.549ZM304.351 283.384C304.104 283.346 303.857 283.318 303.61 283.318C303.201 283.318 302.346 283.384 302.346 283.954C302.346 284.41 302.992 284.524 303.344 284.524C304.427 284.524 304.351 283.973 304.351 283.384Z" fill="#6F6356"/>
<path d="M292.542 277.467L293.587 277.59C293.369 278.616 293.236 279.661 293.236 280.716C293.236 281.001 293.255 281.286 293.264 281.58C293.483 281.077 293.711 280.583 293.948 280.098L294.594 280.678C294.167 281.495 293.72 282.445 293.483 283.338L292.628 283.433C292.333 282.454 292.219 281.542 292.219 280.526C292.219 279.5 292.343 278.474 292.542 277.467ZM296.988 277.457H298.081C298.166 278.464 298.252 279.471 298.252 280.488C298.252 282.996 297.615 284.449 295.297 285.599L294.423 284.858C295.316 284.421 296.152 283.898 296.656 283.015C297.121 282.217 297.159 281.276 297.159 280.374C297.159 279.395 297.074 278.426 296.988 277.457Z" fill="#6F6356"/>
<path d="M283.688 278.72C283.85 278.217 284.002 277.713 284.144 277.21L285.246 277.419C285.104 277.827 284.961 278.236 284.819 278.644C285.284 278.597 285.74 278.54 286.196 278.454L286.149 279.499C285.598 279.575 284.999 279.651 284.448 279.68C283.926 281.133 283.346 282.558 282.681 283.955L281.655 283.499C282.292 282.283 282.852 281.029 283.327 279.746C282.995 279.756 282.653 279.756 282.32 279.756C282.197 279.756 282.073 279.756 281.95 279.756L281.912 278.692C282.273 278.72 282.624 278.73 282.985 278.73C283.213 278.73 283.451 278.73 283.688 278.72ZM287.821 282.663C288.533 282.929 289.17 283.29 289.797 283.717L289.284 284.648C288.828 284.325 288.362 284.021 287.859 283.784C287.849 285 287.165 285.446 286.006 285.446C285.028 285.446 283.897 285.009 283.897 283.869C283.897 282.805 284.895 282.292 285.835 282.292C286.149 282.292 286.462 282.34 286.776 282.397C286.738 281.713 286.709 281.019 286.7 280.335L287.716 280.354C287.726 281.124 287.783 281.893 287.821 282.663ZM286.833 283.366C286.529 283.271 286.082 283.214 285.769 283.214C285.379 283.214 284.847 283.366 284.847 283.85C284.847 284.382 285.484 284.534 285.911 284.534C286.434 284.534 286.852 284.392 286.852 283.803C286.852 283.651 286.842 283.508 286.833 283.366ZM286.728 279.214L287.184 278.34C288.087 278.692 288.913 279.072 289.759 279.556L289.293 280.497C288.486 279.974 287.64 279.518 286.728 279.214Z" fill="#6F6356"/>
<path d="M280.088 282.169H278.245V282.948H280.639V283.813H271.833V282.948H274.217V282.169H272.355V281.381H274.217V280.621H272.517V277.248H279.955V280.621H278.245V281.381H280.088V282.169ZM279.053 277.98H276.64V278.607H279.053V277.98ZM275.794 277.98H273.429V278.607H275.794V277.98ZM279.053 279.243H276.64V279.899H279.053V279.243ZM275.794 279.243H273.429V279.899H275.794V279.243ZM277.314 280.621H275.148V281.381H277.314V280.621ZM277.314 282.169H275.148V282.948H277.314V282.169ZM280.269 285.846C279.195 285.665 278.131 285.133 277.219 284.544L277.865 283.841C278.768 284.402 279.594 284.753 280.649 284.934L280.269 285.846ZM275.329 284.535C274.455 285.19 273.315 285.608 272.241 285.798L271.909 284.934C272.925 284.753 273.809 284.487 274.654 283.86L275.329 284.535Z" fill="#6F6356"/>
<path d="M264.042 277.467L265.087 277.59C264.869 278.616 264.736 279.661 264.736 280.716C264.736 281.001 264.755 281.286 264.764 281.58C264.983 281.077 265.211 280.583 265.448 280.098L266.094 280.678C265.667 281.495 265.22 282.445 264.983 283.338L264.128 283.433C263.833 282.454 263.719 281.542 263.719 280.526C263.719 279.5 263.843 278.474 264.042 277.467ZM268.488 277.457H269.581C269.666 278.464 269.752 279.471 269.752 280.488C269.752 282.996 269.115 284.449 266.797 285.599L265.923 284.858C266.816 284.421 267.652 283.898 268.156 283.015C268.621 282.217 268.659 281.276 268.659 280.374C268.659 279.395 268.574 278.426 268.488 277.457Z" fill="#6F6356"/>
<path d="M257.763 280.155L257.801 282.169C259.102 282.511 260.119 282.995 261.249 283.708L260.717 284.658C259.786 284.012 258.874 283.546 257.801 283.185V283.423C257.801 284.002 257.772 284.553 257.288 284.943C256.851 285.285 256.271 285.37 255.72 285.37C254.656 285.37 253.345 284.905 253.345 283.632C253.345 282.995 253.725 282.53 254.276 282.254C254.78 282.007 255.397 281.95 255.939 281.95C256.214 281.95 256.48 281.969 256.746 281.998L256.651 277.238L257.725 277.295L257.753 279.138C258.732 279.091 259.482 279.015 260.451 278.815L260.442 279.917C259.53 280.031 258.684 280.107 257.763 280.155ZM256.756 283.043V282.967C256.452 282.919 256.138 282.891 255.834 282.891C255.34 282.891 254.314 282.967 254.314 283.641C254.314 284.259 255.198 284.42 255.663 284.42C256.746 284.42 256.756 283.917 256.756 283.043Z" fill="#6F6356"/>
<path d="M244.568 277.608L245.67 277.741C245.328 279.176 245.119 280.639 245.119 282.121C245.119 283.147 245.223 284.106 245.442 285.113L244.406 285.246C244.15 284.239 244.083 283.175 244.083 282.14C244.083 280.601 244.264 279.119 244.568 277.608ZM251.199 279.404C250.657 279.356 250.106 279.328 249.565 279.328C248.681 279.328 247.807 279.404 246.933 279.518L246.952 278.435C247.845 278.349 248.738 278.283 249.631 278.283C250.163 278.283 250.695 278.302 251.218 278.349L251.199 279.404ZM247.921 282.054C247.722 282.32 247.541 282.643 247.541 282.995C247.541 283.28 247.712 283.479 247.978 283.584C248.349 283.736 248.957 283.755 249.356 283.755C250.135 283.755 250.838 283.669 251.598 283.527L251.579 284.638C250.876 284.743 250.173 284.8 249.46 284.8C248.33 284.8 246.572 284.714 246.572 283.185C246.572 282.7 246.753 282.273 247.019 281.874L247.921 282.054Z" fill="#6F6356"/>
<path d="M239.76 279.5L239.713 277.391H240.767L240.796 279.414C241.309 279.357 241.822 279.319 242.335 279.234L242.42 280.298C241.879 280.307 241.337 280.345 240.796 280.383C240.777 281.02 240.796 281.941 240.492 282.502C240.359 282.739 240.14 282.929 239.884 283.005C239.456 283.148 238.972 283.176 238.525 283.176C238.487 283.176 238.449 283.176 238.411 283.176L238.136 282.179C238.307 282.198 238.478 282.207 238.658 282.207C239.817 282.207 239.732 281.941 239.76 280.469L236.777 280.725V282.255C236.777 282.948 236.711 283.68 237.157 284.003C237.566 284.316 238.497 284.316 239 284.316C239.836 284.316 240.663 284.25 241.489 284.174L241.366 285.228C240.577 285.285 239.779 285.323 238.981 285.323C238.136 285.323 236.977 285.314 236.331 284.696C235.789 284.174 235.742 283.499 235.742 282.787L235.732 280.811C235.21 280.858 234.687 280.906 234.165 280.982L234.079 279.927C234.63 279.918 235.181 279.88 235.723 279.832L235.713 277.609H236.787L236.777 279.747L239.76 279.5Z" fill="#6F6356"/>
<path d="M227.506 279.832C228.285 279.253 229.035 278.863 230.033 278.863C231.705 278.863 232.816 279.994 232.816 281.656C232.816 283.784 231.106 284.896 229.178 285.143L228.798 284.145C230.232 284.012 231.733 283.252 231.733 281.618C231.733 280.554 231.021 279.842 229.957 279.842C229.007 279.842 228.161 280.393 227.496 281.029C227.487 281.675 227.487 282.312 227.487 282.958C227.487 283.784 227.496 284.611 227.506 285.447H226.48L226.499 282.122C226.062 282.749 225.634 283.404 225.235 284.06L224.437 283.357C225.14 282.388 225.824 281.39 226.508 280.402L226.518 279.965C225.967 280.041 225.416 280.098 224.865 280.117L224.76 279.072C225.349 279.072 225.938 279.044 226.518 278.977L226.527 277.324H227.544C227.534 278.16 227.515 278.996 227.506 279.832Z" fill="#6F6356"/>
<path d="M221.777 279.794V280.544H216.799V279.775C216.267 280.088 215.849 280.307 215.288 280.544L214.709 279.556C216.181 279.072 217.758 278.112 218.784 276.925H219.715C220.912 278.236 222.166 278.901 223.8 279.556L223.211 280.544C222.689 280.316 222.271 280.088 221.777 279.794ZM217.017 279.642H221.53C220.646 279.072 219.943 278.549 219.231 277.761C218.594 278.511 217.844 279.11 217.017 279.642ZM215.697 281.504H222.774V285.646H215.697V281.504ZM221.767 282.397H216.694V284.753H221.767V282.397Z" fill="#6F6356"/>
<path d="M211.393 282.558C210.795 282.178 210.158 281.817 209.465 281.617C209.132 282.282 208.819 282.862 208.401 283.479C208.04 284.011 207.584 284.667 206.871 284.667C206.035 284.667 205.693 283.85 205.693 283.128C205.693 281.627 206.957 280.468 208.439 280.468C208.6 280.468 208.762 280.477 208.933 280.506C209.199 279.898 209.446 279.29 209.693 278.672C208.999 278.748 208.306 278.796 207.612 278.796C207.432 278.796 207.251 278.796 207.071 278.786L207.052 277.76C207.403 277.779 207.764 277.789 208.125 277.789C208.857 277.789 209.645 277.76 210.367 277.608L211.023 278.112C210.652 278.986 210.282 279.85 209.911 280.715C210.567 280.943 211.203 281.228 211.802 281.598C212.02 280.943 212.144 280.325 212.201 279.641L213.227 279.907C213.141 280.762 212.989 281.38 212.695 282.187C213.122 282.501 213.54 282.814 213.93 283.166L213.35 284.135C213.008 283.793 212.638 283.479 212.258 283.175C211.773 284.116 211.165 284.904 210.358 285.579L209.455 284.942C210.272 284.315 210.937 283.479 211.393 282.558ZM208.429 281.446C207.299 281.38 206.624 282.301 206.624 283.128C206.624 283.289 206.672 283.612 206.89 283.612C207.223 283.612 207.85 282.567 208.429 281.446Z" fill="#6F6356"/>
<path d="M197.077 280.345C196.668 279.832 196.203 279.395 195.709 279.053L196.184 278.284C196.279 278.36 196.383 278.426 196.469 278.502C196.906 277.856 197.029 277.609 197.343 276.935L198.283 277.248C197.913 277.961 197.59 278.445 197.124 279.082C197.286 279.243 197.447 279.405 197.599 279.576C197.951 279.053 198.274 278.502 198.587 277.942L199.471 278.322C198.901 279.215 198.217 280.155 197.571 281.048C197.979 281.029 198.378 281.001 198.787 280.982C198.711 280.725 198.644 280.545 198.53 280.298L199.338 280.013C199.67 280.735 199.794 281.124 199.974 281.884L199.1 282.16C199.062 282.008 199.034 281.846 198.986 281.694L198.207 281.77V285.874H197.276V281.865C196.754 281.903 196.222 281.951 195.699 281.998L195.633 281.115C195.937 281.115 196.222 281.115 196.526 281.105C196.716 280.849 196.896 280.602 197.077 280.345ZM196.896 282.635C196.896 283.309 196.744 284.63 196.573 285.238L195.728 284.867C195.965 284.126 196.079 283.309 196.098 282.53L196.896 282.635ZM199.252 282.426C199.499 283.252 199.556 283.461 199.708 284.316L198.863 284.497C198.768 283.756 198.692 283.3 198.502 282.568L199.252 282.426ZM200.079 277.248H204.211V284.668H204.705V285.599H199.271V284.668H200.079V277.248ZM203.242 278.17H201.029V279.68H203.242V278.17ZM203.242 280.573H201.029V282.046H203.242V280.573ZM203.242 282.939H201.029V284.668H203.242V282.939Z" fill="#6F6356"/>
<path d="M190.493 280.184C191.548 279.804 192.707 279.5 193.79 279.224L194.113 280.288C192.802 280.583 191.035 281.001 189.819 281.542C189.211 281.818 188.289 282.331 188.289 283.1C188.289 283.528 188.546 283.775 188.926 283.927C189.486 284.155 190.465 284.212 191.082 284.212C192.127 284.212 193.163 284.079 194.189 283.917L194.274 285.019C193.248 285.171 192.175 285.247 191.139 285.247C189.714 285.247 187.216 285.095 187.216 283.148C187.216 281.827 188.394 281.077 189.467 280.592C189.382 280.26 189.306 279.918 189.239 279.576L188.821 277.457L189.914 277.248L190.294 279.329C190.351 279.623 190.417 279.899 190.493 280.184Z" fill="#6F6356"/>
<path d="M184.47 283.043H182.76C182.608 284.05 182.238 285.038 181.63 285.855L180.803 285.209C181.117 284.772 181.402 284.316 181.573 283.812C181.953 282.729 182.01 281.447 182.01 280.307V277.219H185.411V285.095C185.411 285.665 185.154 285.855 184.603 285.855H183.387L183.235 284.895H184.166C184.375 284.895 184.47 284.829 184.47 284.61V283.043ZM184.47 278.112H182.931V279.68H184.47V278.112ZM184.47 280.563H182.931L182.865 282.131H184.47V280.563ZM178.827 283.812C178.485 284.572 177.934 285.304 177.317 285.855L176.671 285.123C177.165 284.686 177.659 284.021 177.963 283.432L178.827 283.812ZM177.459 276.925H178.362V277.78H180.167V276.925H181.069V277.78H181.63V278.682H181.069V282.416H181.63V283.29H176.747V282.416H177.459V278.682H176.918V277.78H177.459V276.925ZM180.167 278.682H178.362V279.357H180.167V278.682ZM180.167 280.155H178.362V280.858H180.167V280.155ZM180.167 281.618H178.362V282.416H180.167V281.618ZM180.091 283.442C180.471 283.793 180.822 284.192 181.069 284.648L180.376 285.256C180.186 284.905 179.701 284.24 179.435 283.945L180.091 283.442Z" fill="#6F6356"/>
<path d="M167.513 277.305H170.477V285.218H167.513V277.305ZM169.574 278.264H168.425V280.744H169.574V278.264ZM169.574 281.637H168.425V284.287H169.574V281.637ZM175.236 282.52V284.848C175.236 285.608 174.951 285.817 174.22 285.817H172.823L172.633 284.848H173.982C174.191 284.848 174.258 284.772 174.258 284.563V282.52H170.847V281.608H174.258V280.668H170.771V279.746H172.994V278.644H171.104V277.732H172.994V276.925H173.954V277.732H175.911V278.644H173.954V279.746H176.205V280.668H175.236V281.608H176.129V282.52H175.236ZM171.721 282.682C172.291 283.204 172.595 283.556 173.004 284.211L172.177 284.838C171.721 284.135 171.55 283.85 170.952 283.233L171.721 282.682Z" fill="#6F6356"/>
<path d="M163.893 282.558C163.295 282.178 162.658 281.817 161.965 281.617C161.632 282.282 161.319 282.862 160.901 283.479C160.54 284.011 160.084 284.667 159.371 284.667C158.535 284.667 158.193 283.85 158.193 283.128C158.193 281.627 159.457 280.468 160.939 280.468C161.1 280.468 161.262 280.477 161.433 280.506C161.699 279.898 161.946 279.29 162.193 278.672C161.499 278.748 160.806 278.796 160.112 278.796C159.932 278.796 159.751 278.796 159.571 278.786L159.552 277.76C159.903 277.779 160.264 277.789 160.625 277.789C161.357 277.789 162.145 277.76 162.867 277.608L163.523 278.112C163.152 278.986 162.782 279.85 162.411 280.715C163.067 280.943 163.703 281.228 164.302 281.598C164.52 280.943 164.644 280.325 164.701 279.641L165.727 279.907C165.641 280.762 165.489 281.38 165.195 282.187C165.622 282.501 166.04 282.814 166.43 283.166L165.85 284.135C165.508 283.793 165.138 283.479 164.758 283.175C164.273 284.116 163.665 284.904 162.858 285.579L161.955 284.942C162.772 284.315 163.437 283.479 163.893 282.558ZM160.929 281.446C159.799 281.38 159.124 282.301 159.124 283.128C159.124 283.289 159.172 283.612 159.39 283.612C159.723 283.612 160.35 282.567 160.929 281.446Z" fill="#6F6356"/>
<path d="M153.833 278.208H151.819V277.267H154.83C154.925 279.68 155.524 281.618 157.357 283.281L156.673 284.164C155.438 282.929 154.678 281.628 154.289 279.918C153.804 281.58 152.721 282.996 151.42 284.107L150.688 283.224C152.389 282.207 153.557 280.146 153.833 278.208ZM149.083 277.077C149.767 277.571 150.28 278.027 150.821 278.673L150.118 279.395C149.624 278.768 149.045 278.227 148.427 277.742L149.083 277.077ZM148.304 280.583H150.394V283.623C150.907 284.43 151.486 284.62 152.408 284.62H157.281L157.101 285.589H152.626C151.515 285.589 150.688 285.333 149.995 284.44C149.624 284.905 149.13 285.418 148.665 285.798L148.171 284.639C148.617 284.383 149.045 284.088 149.444 283.756V281.533H148.304V280.583Z" fill="#6F6356"/>
<path d="M140.58 277.371L141.72 277.438L141.53 282.264C141.521 282.359 141.521 282.444 141.521 282.53C141.521 283.081 141.559 283.641 142.024 284.002C142.347 284.259 142.784 284.344 143.193 284.344C144.903 284.344 145.815 282.767 146.28 281.323L147.268 281.884C146.575 283.793 145.425 285.408 143.193 285.408C142.3 285.408 141.312 285.142 140.799 284.344C140.457 283.822 140.4 283.242 140.4 282.625C140.4 282.53 140.409 282.425 140.409 282.33L140.58 277.371Z" fill="#6F6356"/>
<path d="M134.215 285.845H133.218V283.546H129.826V278.169H133.218V276.943H134.215V278.169H137.626V283.546H134.215V285.845ZM130.795 279.081V280.401H133.218V279.081H130.795ZM136.666 279.081H134.215V280.401H136.666V279.081ZM130.795 281.256V282.624H133.218V281.256H130.795ZM136.666 281.256H134.215V282.624H136.666V281.256Z" fill="#6F6356"/>
<path d="M122.483 278.863V277.248H123.518V278.797C124.183 278.721 124.753 278.635 125.409 278.483L125.428 279.538C124.791 279.642 124.155 279.728 123.518 279.804V280.782C124.174 280.592 124.772 280.44 125.456 280.44C126.406 280.44 127.347 280.754 127.841 281.618C128.059 282.008 128.173 282.464 128.173 282.91C128.173 283.642 127.85 284.44 127.204 284.839C126.786 285.105 126.264 285.209 125.77 285.209C125.428 285.209 125.133 285.162 124.801 285.057L124.791 283.965C125.105 284.098 125.38 284.174 125.722 284.174C126.53 284.174 127.09 283.718 127.09 282.882C127.09 281.808 126.254 281.409 125.304 281.409C124.658 281.409 124.126 281.552 123.518 281.77V283.623C123.518 283.927 123.518 284.288 123.433 284.582C123.271 285.105 122.853 285.39 122.312 285.39C121.808 285.39 121.276 285.181 120.887 284.886C120.478 284.573 120.241 284.155 120.241 283.632C120.241 282.483 121.542 281.599 122.483 281.162V279.88C122.008 279.908 121.542 279.927 121.077 279.927C120.896 279.927 120.725 279.918 120.545 279.918L120.535 278.863C120.896 278.882 121.248 278.882 121.609 278.882C121.894 278.882 122.188 278.882 122.483 278.863ZM122.502 282.226C122.027 282.492 121.172 283.034 121.172 283.651C121.172 284.088 121.751 284.421 122.131 284.421C122.483 284.421 122.502 284.069 122.502 283.775V282.226ZM125.827 278.645L126.482 277.923C127.271 278.426 127.888 278.958 128.515 279.671L127.746 280.393C127.166 279.671 126.615 279.148 125.827 278.645Z" fill="#6F6356"/>
<path d="M115.576 278.654C115.576 279.11 115.206 279.48 114.75 279.48C114.294 279.48 113.923 279.11 113.923 278.654C113.923 278.198 114.294 277.837 114.75 277.837C115.206 277.837 115.576 278.198 115.576 278.654ZM118.227 284.335L117.695 284.867L114.75 281.903L111.805 284.867L111.273 284.335L114.237 281.39L111.273 278.445L111.805 277.913L114.75 280.877L117.695 277.913L118.227 278.445L115.263 281.39L118.227 284.335ZM112.84 281.39C112.84 281.846 112.47 282.216 112.014 282.216C111.558 282.216 111.197 281.846 111.197 281.39C111.197 280.934 111.558 280.563 112.014 280.563C112.47 280.563 112.84 280.934 112.84 281.39ZM118.303 281.39C118.303 281.846 117.942 282.216 117.486 282.216C117.03 282.216 116.659 281.846 116.659 281.39C116.659 280.934 117.03 280.563 117.486 280.563C117.942 280.563 118.303 280.934 118.303 281.39ZM115.576 284.126C115.576 284.582 115.206 284.943 114.75 284.943C114.294 284.943 113.923 284.582 113.923 284.126C113.923 283.67 114.294 283.299 114.75 283.299C115.206 283.299 115.576 283.67 115.576 284.126Z" fill="#6F6356"/>
<path d="M305.51 185.618H282.116V200.906H275.648V162.266H312.02V196.034C312.02 199.226 310.718 200.906 307.442 200.906H299.588L298.454 194.396H304.25C305.258 194.396 305.51 194.018 305.51 193.094V185.618ZM296.942 168.44V179.57H305.51V168.44H296.942ZM282.116 168.44V179.57H290.684V168.44H282.116Z" fill="#B61C31"/>
<path d="M258.767 197.965C250.913 197.965 246.167 191.876 246.167 180.452C246.167 169.028 250.913 162.938 258.767 162.938C266.621 162.938 271.367 169.028 271.367 180.452C271.367 191.876 266.621 197.965 258.767 197.965ZM258.767 191.456C261.749 191.456 263.429 188.18 263.429 180.452C263.429 172.724 261.749 169.448 258.767 169.448C255.785 169.448 254.105 172.724 254.105 180.452C254.105 188.18 255.785 191.456 258.767 191.456Z" fill="#B61C31"/>
<path d="M230.631 197.965C222.777 197.965 218.031 191.876 218.031 180.452C218.031 169.028 222.777 162.938 230.631 162.938C238.485 162.938 243.231 169.028 243.231 180.452C243.231 191.876 238.485 197.965 230.631 197.965ZM230.631 191.456C233.613 191.456 235.293 188.18 235.293 180.452C235.293 172.724 233.613 169.448 230.631 169.448C227.649 169.448 225.969 172.724 225.969 180.452C225.969 188.18 227.649 191.456 230.631 191.456Z" fill="#B61C31"/>
<path d="M202.242 198.176C194.598 198.176 189.894 194.648 189.894 189.062C189.894 185.198 192.33 182.3 196.11 180.662C193.044 178.982 190.608 176.504 190.608 172.052C190.608 165.962 195.984 162.77 202.62 162.77C210.306 162.77 214.254 166.718 214.254 171.632C214.254 174.824 212.322 177.806 208.584 179.402C212.07 181.082 215.094 183.602 215.094 188.306C215.094 194.732 209.928 198.176 202.242 198.176ZM198.336 172.262C198.336 174.614 200.478 176.042 203.292 177.26C205.686 175.958 206.526 173.984 206.526 172.43C206.526 169.994 204.888 168.734 202.452 168.734C199.89 168.734 198.336 170.162 198.336 172.262ZM197.622 188.096C197.622 190.616 199.512 192.128 202.494 192.128C205.728 192.128 207.366 190.28 207.366 188.222C207.366 185.576 204.552 184.232 201.234 182.93C198.672 184.274 197.622 186.206 197.622 188.096Z" fill="#B61C31"/>
<path d="M180.447 204.728L174.483 203.846C176.877 199.94 177.927 195.908 177.927 191.414C177.927 190.112 177.801 189.02 177.759 188.516H185.067C185.109 189.062 185.277 190.238 185.277 191.666C185.277 196.538 183.639 201.074 180.447 204.728Z" fill="#B61C31"/>
<path d="M149.875 197.084L150.505 190.742C152.311 191.414 153.865 191.666 156.007 191.666C160.963 191.666 163.819 188.768 164.785 183.056C162.979 184.526 160.879 185.324 158.191 185.324C151.723 185.324 147.397 181.292 147.397 174.572C147.397 167.894 152.227 162.896 159.829 162.896C167.011 162.896 172.765 167.138 172.765 178.898C172.765 190.49 166.717 198.008 156.133 198.008C153.655 198.008 151.555 197.63 149.875 197.084ZM155.293 174.698C155.293 178.058 157.183 179.906 160.123 179.906C162.055 179.906 163.735 179.192 165.121 177.638C164.995 171.464 163.189 169.28 160.039 169.28C157.057 169.28 155.293 171.59 155.293 174.698Z" fill="#B61C31"/>
<path d="M141.562 170.162C139.924 169.49 138.454 169.196 136.228 169.196C130.684 169.196 127.996 172.514 127.324 178.436C129.298 176.546 131.692 175.538 134.59 175.538C140.848 175.538 144.922 179.738 144.922 186.164C144.922 192.884 140.302 198.008 132.658 198.008C124.468 198.008 119.554 192.38 119.554 181.418C119.554 169.742 125.518 162.896 136.186 162.896C138.706 162.896 140.764 163.274 142.444 163.778L141.562 170.162ZM132.574 180.956C130.264 180.956 128.458 182.048 127.198 183.686C127.576 189.188 129.34 191.624 132.406 191.624C135.43 191.624 136.984 189.272 136.984 186.038C136.984 182.846 135.43 180.956 132.574 180.956Z" fill="#B61C31"/>
<path d="M291.486 230.167H299.802V228.046H303.036V230.167H311.394V233.191H303.036V235.606H310.323V238.609H304.632C306.438 241.045 308.979 242.557 311.688 243.796L309.861 246.925C307.572 245.707 304.422 243.145 303.036 240.94V248.017H299.802V240.94C298.5 243.061 295.14 245.77 292.956 246.967L291.213 243.691C294.132 242.473 296.211 241.024 298.269 238.609H292.557V235.606H299.802V233.191H291.486V230.167Z" fill="#6F6356"/>
<path d="M279.133 249.949L287.176 228.466H290.452L282.388 249.949H279.133Z" fill="#6F6356"/>
<path d="M266.64 245.035L267.27 241.612C268.593 242.578 270.168 243.187 271.764 243.187C273.654 243.187 274.725 242.557 274.725 241.15C274.725 239.848 273.864 239.008 270.903 239.008H269.076V236.194H270.756C273.066 236.194 274.347 235.417 274.347 233.968C274.347 232.834 273.528 232.246 271.995 232.246C270.651 232.246 269.328 232.771 268.152 233.863L266.766 230.86C268.425 229.558 270.357 228.97 272.457 228.97C275.985 228.97 278.253 230.335 278.253 233.275C278.253 235.249 277.098 236.803 274.935 237.433C277.287 237.916 278.652 239.26 278.652 241.486C278.652 244.636 276.111 246.505 272.121 246.505C270 246.505 267.984 245.938 266.64 245.035Z" fill="#6F6356"/>
<path d="M249.903 241.275L246.669 240.897C246.795 236.676 249.063 234.744 251.583 234.744C253.347 234.744 254.775 235.584 256.329 236.697C257.379 237.432 258.009 237.726 258.618 237.726C259.689 237.726 260.361 236.571 260.487 234.765L263.721 235.143C263.595 239.364 261.327 241.296 258.828 241.296C257.043 241.296 255.615 240.456 254.061 239.343C253.011 238.608 252.402 238.314 251.772 238.314C250.701 238.314 250.029 239.49 249.903 241.275Z" fill="#6F6356"/>
<path d="M234.93 245.034H227.265V236.277C226.761 236.802 226.257 237.264 225.711 237.726L223.863 234.618C225.837 233.001 227.832 230.481 228.462 227.982L232.242 228.15C232.053 228.675 231.885 229.2 231.675 229.704H243.687C243.645 233.61 243.666 237.516 243.456 241.401C243.372 242.682 243.267 244.278 242.91 245.496C242.364 247.365 240.894 248.016 239.067 248.016H235.665L234.93 245.034ZM238.248 244.782C239.235 244.74 239.676 244.635 239.928 243.606C240.411 241.632 240.411 235.269 240.411 232.938H229.932C229.638 233.4 229.323 233.841 228.987 234.261H238.248V244.782ZM235.161 237.033H230.373V238.419H235.161V237.033ZM235.161 240.813H230.373V242.22H235.161V240.813Z" fill="#6F6356"/>
<path d="M204.018 231.28H211.536V228.046H214.77V231.28H222.393V242.431H214.77V247.954H211.536V242.431H204.018V231.28ZM211.536 234.346H207.231V239.365H211.536V234.346ZM219.18 234.346H214.77V239.365H219.18V234.346Z" fill="#6F6356"/>
<path d="M190.888 249.949L198.931 228.466H202.207L194.143 249.949H190.888Z" fill="#6F6356"/>
<path d="M178.395 245.035L179.025 241.612C180.348 242.578 181.923 243.187 183.519 243.187C185.409 243.187 186.48 242.557 186.48 241.15C186.48 239.848 185.619 239.008 182.658 239.008H180.831V236.194H182.511C184.821 236.194 186.102 235.417 186.102 233.968C186.102 232.834 185.283 232.246 183.75 232.246C182.406 232.246 181.083 232.771 179.907 233.863L178.521 230.86C180.18 229.558 182.112 228.97 184.212 228.97C187.74 228.97 190.008 230.335 190.008 233.275C190.008 235.249 188.853 236.803 186.69 237.433C189.042 237.916 190.407 239.26 190.407 241.486C190.407 244.636 187.866 246.505 183.876 246.505C181.755 246.505 179.739 245.938 178.395 245.035Z" fill="#6F6356"/>
<path d="M165.643 249.949L173.686 228.466H176.962L168.898 249.949H165.643Z" fill="#6F6356"/>
<path d="M153.255 245.034L153.864 241.611C155.124 242.577 156.573 243.186 158.337 243.186C160.185 243.186 161.298 242.409 161.298 240.96C161.298 239.385 160.227 238.608 157.413 238.608C156.342 238.608 155.04 238.797 154.242 238.986V229.284H164.28V232.644H157.539V235.92C158.127 235.878 158.757 235.836 159.345 235.836C162.957 235.836 165.204 237.6 165.204 241.002C165.204 244.362 162.663 246.504 158.694 246.504C156.51 246.504 154.641 245.916 153.255 245.034Z" fill="#6F6356"/>
<path d="M139.292 246.168V243.249L144.563 238.419C146.159 236.907 146.915 235.941 146.915 234.639C146.915 233.232 145.991 232.35 144.584 232.35C143.135 232.35 141.896 233.232 140.93 234.681L139.229 231.678C140.699 229.956 142.652 228.948 145.067 228.948C148.49 228.948 150.821 230.88 150.821 234.072C150.821 236.487 149.624 238.041 146.915 240.477L144.311 242.808H150.989V246.168H139.292Z" fill="#6F6356"/>
<path d="M131.103 246.484C127.176 246.484 124.803 243.439 124.803 237.727C124.803 232.015 127.176 228.97 131.103 228.97C135.03 228.97 137.403 232.015 137.403 237.727C137.403 243.439 135.03 246.484 131.103 246.484ZM131.103 243.229C132.594 243.229 133.434 241.591 133.434 237.727C133.434 233.863 132.594 232.225 131.103 232.225C129.612 232.225 128.772 233.863 128.772 237.727C128.772 241.591 129.612 243.229 131.103 243.229Z" fill="#6F6356"/>
<path d="M111.155 246.168V243.249L116.426 238.419C118.022 236.907 118.778 235.941 118.778 234.639C118.778 233.232 117.854 232.35 116.447 232.35C114.998 232.35 113.759 233.232 112.793 234.681L111.092 231.678C112.562 229.956 114.515 228.948 116.93 228.948C120.353 228.948 122.684 230.88 122.684 234.072C122.684 236.487 121.487 238.041 118.778 240.477L116.174 242.808H122.852V246.168H111.155Z" fill="#6F6356"/>
<path d="M100 17H234V70.2555L167 81L100 70.2555V17Z" fill="#B61C31"/>
<path d="M203.233 44.2676L206.577 44.5146C206.197 45.7686 206.102 46.8136 205.893 48.1056C207.033 46.8706 208.477 46.0346 210.206 46.0346C211.574 46.0346 213.227 46.6806 214.082 47.7826C215.146 49.1316 215.412 51.2596 215.412 52.9316C215.412 55.5346 214.652 58.1186 212.334 59.5816C210.054 61.0446 206.957 61.1586 204.316 61.3106L203.499 58.4036C205.703 58.3656 208.325 58.3466 210.263 57.2446C211.973 56.2756 212.201 54.3946 212.201 52.5896C212.201 50.7846 212.049 48.8846 209.731 48.8846C208.439 48.8846 207.527 49.5116 206.748 50.4806C206.083 51.3166 205.779 52.0196 205.589 53.0836C205.57 54.1286 205.665 55.1546 205.722 56.1996L202.625 56.3516C202.53 55.5346 202.492 54.9646 202.492 54.1286C202.492 50.9936 202.834 47.3836 203.233 44.2676Z" fill="white"/>
<path d="M190.769 55.326C189.876 58.195 187.843 60.399 185.164 62.014L183.112 59.658C183.777 59.316 184.309 58.993 184.917 58.537C184.708 58.594 184.442 58.651 184.214 58.651H182.086C180.946 58.651 180.395 57.815 180.395 56.751V51.754L179.008 52.02L178.932 49.17L180.395 48.904V43.793H183.226V48.372L186.456 47.783L186.589 50.614L183.226 51.241V55.478C183.226 55.763 183.283 55.82 183.568 55.82H184.119C184.29 55.82 184.385 55.687 184.461 55.25C184.537 54.756 184.613 53.844 184.632 53.141L186.836 53.635C186.703 55.307 186.513 56.504 186.171 57.454C187.558 56.105 188.318 54.718 188.641 51.355C188.736 50.348 188.812 48.98 188.831 47.232H185.867V44.401H196.469C196.469 48.03 196.45 50.652 196.431 52.533C196.374 56.352 196.184 58.328 195.804 59.867C195.481 61.197 194.531 61.767 193.448 61.767H190.085L189.534 58.917H191.928C192.517 58.917 192.783 58.86 192.973 58.214C193.106 57.777 193.239 56.884 193.315 55.82C193.448 53.996 193.543 52.286 193.543 50.082V47.232H191.7C191.643 50.823 191.434 53.198 190.769 55.326Z" fill="white"/>
<path d="M160.635 54.0148C159.78 54.1288 158.944 54.2048 158.108 54.2618L157.956 51.7538C158.317 51.7538 158.678 51.7348 159.039 51.7158C159.324 51.3358 159.628 50.9558 159.913 50.5568C159.21 49.6828 158.621 48.9988 157.728 48.3338L158.83 45.8828C158.982 46.0158 159.134 46.1298 159.286 46.2628C159.742 45.4268 160.103 44.6098 160.407 43.7168L162.744 44.2108C162.307 45.4078 161.528 46.7188 160.806 47.7448C160.996 47.9538 161.186 48.1818 161.376 48.3908C161.946 47.4788 162.497 46.5668 163.01 45.6358L164.948 46.3198V44.9328H169.033V43.7738H171.807V44.9328H176.025V47.2888H174.619C174.524 47.8208 174.448 48.2198 174.277 48.7328H175.835V53.1598H174.98V58.9738C174.98 60.1518 174.657 60.5698 173.441 60.5698H172.206L171.674 57.9098H172.301C172.605 57.9098 172.624 57.8148 172.624 57.5488V54.8698H171.636V61.7858H169.261V54.8698H168.273V60.5508H165.974V53.1598H165.613C165.651 53.3688 165.708 53.5588 165.765 53.7488L163.77 54.4328C163.732 54.1668 163.694 53.9008 163.656 53.6348L162.839 53.7298V61.7858H160.635V54.0148ZM164.948 46.9278C163.903 48.5618 162.687 50.1768 161.414 51.6588C162.003 51.6208 162.592 51.6018 163.181 51.5638C163.048 51.1458 162.915 50.7088 162.744 50.2908L164.416 49.7208C164.663 50.2908 164.891 50.8608 165.081 51.4498V48.7328H166.696C166.563 48.2578 166.411 47.7828 166.278 47.2888H164.948V46.9278ZM171.921 47.2888H168.976C169.147 47.8018 169.242 48.2198 169.356 48.7328H171.541C171.731 48.2578 171.845 47.8018 171.921 47.2888ZM167.589 52.5328H169.261V51.0888H167.589V52.5328ZM171.636 51.0888V52.5328H173.346V51.0888H171.636ZM160.179 55.0788C160.122 56.7508 159.989 59.1258 159.533 60.7218L157.671 59.5248C158.127 57.9858 158.298 56.4088 158.336 54.8128L160.179 55.0788ZM164.967 54.8318C165.271 56.2948 165.404 57.6818 165.461 59.1828L163.58 59.4678C163.58 59.3348 163.58 59.1638 163.58 59.0308C163.58 57.7008 163.485 56.4088 163.276 55.0978L164.967 54.8318Z" fill="white"/>
<path d="M142.053 53.8436V61.8046H139.83V54.0906C138.994 54.1666 138.139 54.2806 137.303 54.3186L137.056 51.8106H138.177L139.108 50.4806C138.367 49.7586 137.74 49.1886 136.904 48.5806L137.797 46.0916C137.968 46.2056 138.082 46.2816 138.253 46.4146C138.766 45.5026 139.184 44.6856 139.507 43.6786L142.015 44.2296C141.464 45.4456 140.704 46.7186 139.944 47.8206C140.153 47.9916 140.362 48.1626 140.552 48.3526C141.141 47.4406 141.673 46.4906 142.205 45.5596L144.409 46.3006C144.048 46.9276 143.668 47.5546 143.25 48.1626C144.77 47.0606 146.119 45.4076 146.784 43.6406L149.691 43.9066C149.539 44.3816 149.444 44.6286 149.216 45.0846H154.194V47.4976C153.567 49.0176 152.75 50.1576 151.553 51.3166C152.845 51.9436 153.966 52.3046 155.353 52.6276L154.099 55.4016C152.389 54.7936 150.85 54.0526 149.349 53.0266C148.95 53.2926 148.532 53.5396 148.114 53.7866C149.387 54.3186 150.926 55.0976 152.066 55.8956L150.527 57.9286C149.387 57.0736 147.943 56.3516 146.651 55.7436L147.848 53.9386C146.841 54.5086 145.777 54.9456 144.694 55.3636L144.105 54.1476L142.984 54.5086C142.946 54.2426 142.889 53.9766 142.851 53.7106C142.585 53.7676 142.319 53.8056 142.053 53.8436ZM149.33 49.9106C150.204 49.1506 150.812 48.4856 151.401 47.4976H147.62C147.544 47.5926 147.468 47.6876 147.392 47.7636C147.924 48.5996 148.551 49.2836 149.33 49.9106ZM144.713 52.4566C145.606 52.1526 146.423 51.7916 147.24 51.3356C146.651 50.7466 146.176 50.1576 145.72 49.4546C145.435 49.7206 145.112 49.9486 144.808 50.1956L143.136 48.3336C142.338 49.4736 141.54 50.6136 140.666 51.6966C141.217 51.6586 141.749 51.6396 142.3 51.6016C142.167 51.2026 142.034 50.8036 141.901 50.4236L143.668 49.7776C144.124 50.7466 144.39 51.4686 144.713 52.4566ZM144.257 54.8696C144.542 56.0856 144.789 57.8906 144.846 59.1256L142.87 59.4866C142.851 58.0426 142.737 56.5796 142.49 55.1546L144.257 54.8696ZM139.317 55.1356C139.241 57.2826 139.241 58.7456 138.728 60.8736L136.866 59.5816C137.303 58.1376 137.455 56.5416 137.493 55.0406L139.317 55.1356ZM153.7 59.4296L152.332 61.9946C149.748 60.9686 147.506 60.3226 144.77 59.8286L145.682 57.3016C148 57.6436 151.591 58.4796 153.7 59.4296Z" fill="white"/>
<path d="M117.562 44.1924H132.8V49.9494H117.562V44.1924ZM129.931 45.8454H120.412V46.5484H129.931V45.8454ZM129.931 47.7454H120.412V48.4674H129.931V47.7454ZM129.57 60.2474C128.411 60.9504 127.309 61.3874 126.017 61.7484L124.991 59.4684V61.7484H122.312V60.5324C120.298 60.8174 118.265 60.9694 116.213 61.0264L116.004 58.6514C116.365 58.6514 116.745 58.6514 117.125 58.6324V52.7424H116.137V50.5574H134.263V52.7424H124.991V59.3164C125.846 59.1074 126.625 58.8604 127.442 58.5374C126.739 57.7584 126.264 57.0364 125.808 56.0864L128.05 55.4594H125.447V53.4454H133.636V55.4784C133.199 56.6374 132.648 57.5874 131.793 58.4994C132.667 58.8604 133.56 59.1074 134.472 59.3164L133.047 61.8054C131.793 61.4254 130.672 60.9694 129.57 60.2474ZM122.312 52.7424H119.709V53.5784H122.312V52.7424ZM122.312 55.1554H119.709V55.9724H122.312V55.1554ZM128.145 55.4594C128.582 56.1244 129.019 56.6564 129.608 57.1884C130.178 56.6564 130.539 56.1434 130.938 55.4594H128.145ZM119.709 58.5754C120.583 58.5374 121.457 58.4804 122.312 58.4044V57.5304H119.709V58.5754Z" fill="white"/>
<path d="M224.395 25.6855V38.1115C225.687 37.6745 226.561 36.8765 227.226 35.7175C227.967 34.4445 228.347 33.0575 228.575 31.5375L231.425 32.9055C230.817 35.9645 229.506 38.3585 227.454 39.9165C225.858 41.1135 223.844 41.8165 221.355 41.9115V25.6855H224.395ZM219.208 26.2935V30.7205C219.208 32.7915 219.037 35.1095 218.619 36.9905C218.163 39.0805 217.346 40.9995 215.769 42.4815L213.394 40.0115C214.648 38.7955 215.332 37.4655 215.693 35.7365C216.016 34.1975 216.149 32.6205 216.149 31.0435V26.2935H219.208Z" fill="white"/>
<path d="M210.434 24.5459C210.719 25.1919 210.985 26.1799 211.213 27.4149L209.598 27.6619C209.484 26.7309 209.18 25.6289 208.876 24.7549L210.434 24.5459ZM208.078 24.6599C208.42 25.6099 208.648 26.4459 208.8 27.4339L207.147 27.6999C207.014 26.6169 206.919 26.1039 206.539 24.8689L208.078 24.6599ZM195.291 26.0659H206.178C206.349 26.7309 206.501 27.6049 206.577 28.2509L207.565 28.1369V28.8019H195.291V26.0659ZM194.018 30.8539H210.13V33.6849H204.126L204.107 34.1029C204.031 35.9269 203.385 38.2069 202.036 39.6129C200.516 41.1899 198.008 41.8929 195.918 42.3109L194.645 39.5369C196.659 39.2709 198.445 38.7769 199.452 37.9599C200.516 37.0859 200.915 35.4139 200.972 34.1029L200.991 33.6849H194.018V30.8539Z" fill="white"/>
<path d="M173.782 26.1992H188.45V29.0112H181.116V31.7282H189.324V34.5782H181.116V38.0552C181.116 38.6632 181.211 38.8342 182.009 38.8342H185.163C186.132 38.8342 187.747 38.7772 188.735 38.7202L188.583 41.5702H181.097C180.052 41.5702 179.406 41.3992 178.817 40.9432C178.171 40.4302 177.943 39.7082 177.943 38.9102V34.5782H173.022V31.7282H177.943V29.0112H173.801L173.782 26.1992Z" fill="white"/>
<path d="M162.451 26.0283H166.802V35.2243H169.234V38.0743H166.802V41.0003H163.705V38.0743H154.851V34.9773L162.451 26.0283ZM163.705 28.6123L158.043 35.2243H163.705V28.6123Z" fill="white"/>
<path d="M138.179 31.196C138.198 29.714 138.198 28.175 139.395 27.092C140.668 25.952 143.1 25.876 144.734 25.876C148.382 25.876 151.46 26.142 151.46 30.645C151.46 31.804 151.289 33.172 150.434 34.027C149.75 34.711 148.496 35.224 147.489 35.338L142.815 35.908C142.435 35.965 141.713 36.098 141.447 36.364C141.162 36.649 141.029 37.295 141.029 37.675V38.15H151.365V41H137.913V38.34C137.913 36.934 138.008 35.642 138.92 34.502C139.566 33.685 140.649 33.305 141.656 33.172L146.52 32.621C147.831 32.469 148.363 32.146 148.363 30.759C148.363 30.037 148.211 29.391 147.489 29.049C146.881 28.764 145.285 28.726 144.582 28.726C141.637 28.726 141.295 29.182 141.257 31.196H138.179Z" fill="white"/>
<path d="M134.067 33.514C134.067 34.996 134.01 36.801 133.611 38.226C133.421 38.929 133.041 39.594 132.452 40.069C131.084 41.133 129.127 41.152 127.17 41.152C125.308 41.152 122.838 41.152 121.565 39.575C120.463 38.188 120.425 35.243 120.425 33.514C120.425 32.013 120.482 30.246 120.881 28.802C121.09 28.099 121.47 27.434 122.059 26.959C123.408 25.895 125.308 25.876 127.322 25.876C129.184 25.876 131.654 25.876 132.927 27.453C134.048 28.84 134.067 31.785 134.067 33.514ZM127.645 28.726H126.904C125.973 28.726 124.586 28.764 124.073 29.448C123.56 30.132 123.56 32.583 123.56 33.514C123.56 34.312 123.579 35.281 123.655 36.079C123.712 36.611 123.769 37.105 124.073 37.561C124.339 37.96 124.89 38.15 125.346 38.207C126.049 38.283 126.771 38.302 127.474 38.302C128.538 38.302 129.906 38.283 130.419 37.561C130.894 36.877 130.932 34.673 130.932 33.818C130.932 32.963 130.894 31.766 130.818 30.911C130.761 30.417 130.704 29.885 130.419 29.467C129.925 28.764 128.557 28.726 127.645 28.726Z" fill="white"/>
<path d="M103.393 31.196C103.412 29.714 103.412 28.175 104.609 27.092C105.882 25.952 108.314 25.876 109.948 25.876C113.596 25.876 116.674 26.142 116.674 30.645C116.674 31.804 116.503 33.172 115.648 34.027C114.964 34.711 113.71 35.224 112.703 35.338L108.029 35.908C107.649 35.965 106.927 36.098 106.661 36.364C106.376 36.649 106.243 37.295 106.243 37.675V38.15H116.579V41H103.127V38.34C103.127 36.934 103.222 35.642 104.134 34.502C104.78 33.685 105.863 33.305 106.87 33.172L111.734 32.621C113.045 32.469 113.577 32.146 113.577 30.759C113.577 30.037 113.425 29.391 112.703 29.049C112.095 28.764 110.499 28.726 109.796 28.726C106.851 28.726 106.509 29.182 106.471 31.196H103.393Z" fill="white"/>
<path d="M16 171H102V200H16V171Z" fill="#B61C31"/>
<path d="M83.5843 178.353H86.0003V179.489H91.9843V183.649H89.6003V181.617H80.0163V183.649H77.6323V179.489H83.5843V178.353ZM81.5523 188.577C82.0483 189.377 82.7203 189.969 83.6003 190.305V185.169H80.4643V182.993H89.1523V185.169H85.9843V186.689H90.6243V188.881H85.9843V190.785C86.2723 190.801 86.5603 190.817 86.8483 190.817H92.5603L92.0643 193.201H86.4163C83.9683 193.201 82.3363 192.593 80.7523 190.673C80.1763 191.889 79.6483 192.641 78.6563 193.553L77.0083 191.601C78.7683 190.065 79.4883 187.937 79.7603 185.681L82.0803 185.985C81.9523 186.929 81.8083 187.665 81.5523 188.577Z" fill="white"/>
<path d="M66.3362 190.913V178.721H74.2722V186.433H73.9522L74.9921 188.225C74.3681 188.769 73.8401 189.137 73.1362 189.553C73.6961 190.257 74.2722 190.785 74.9762 191.361L73.5042 193.553C71.3281 191.857 69.9842 189.121 69.5362 186.433H68.6401V190.561C69.3281 190.449 70.0002 190.321 70.6882 190.161L70.8481 192.305C69.0561 192.801 67.2001 193.089 65.3601 193.409L65.0401 191.073C65.4721 191.025 65.9042 190.977 66.3362 190.913ZM59.9521 178.721H65.7441V180.929C65.4401 182.033 65.0562 183.169 64.6082 184.209C65.5202 185.185 65.9041 186.577 65.9041 187.889C65.9041 188.609 65.7441 189.457 65.2001 189.953C64.9121 190.225 64.4322 190.449 64.0322 190.449H62.7201L62.3681 188.161H62.8162C63.4242 188.161 63.5522 187.921 63.5522 187.345C63.5522 186.209 63.1681 185.345 62.3681 184.561C62.8481 183.329 63.1522 182.193 63.4402 180.913H62.2561V193.521H59.9521V178.721ZM71.9682 180.817H68.6401V181.809H71.9682V180.817ZM71.9682 183.457H68.6401V184.497H71.9682V183.457ZM72.1121 187.809C72.6721 187.377 73.2161 186.961 73.6961 186.433H71.6161C71.7601 186.929 71.9041 187.329 72.1121 187.809Z" fill="white"/>
<path d="M43.1844 178.673H56.0324V182.833H43.1844V178.673ZM45.5524 180.417H53.7284V179.905H45.5524V180.417ZM45.5524 181.297V181.809H53.7284V181.297H45.5524ZM57.2004 183.265V184.641H41.9844V183.265H57.2004ZM55.9364 185.105V189.153H50.7364V189.617H56.3204V190.945H50.7364V191.425H57.2004V193.073H41.9844V191.425H48.4484V190.945H42.8804V189.617H48.4484V189.153H43.2964V185.105H55.9364ZM53.6484 186.145H50.7364V186.657H53.6484V186.145ZM48.4484 186.145H45.6324V186.657H48.4484V186.145ZM48.4484 187.585H45.6324V188.097H48.4484V187.585ZM53.6484 187.585H50.7364V188.097H53.6484V187.585Z" fill="white"/>
<path d="M36.0642 191.232C35.1362 192.176 34.2242 192.816 33.0882 193.456L31.9682 191.808L31.1842 193.168C30.5602 192.72 30.0482 192.432 29.3602 192.096C28.0962 192.912 26.7682 193.328 25.2962 193.584L24.4482 191.6C25.3442 191.52 26.1602 191.376 27.0082 191.056C26.3202 190.8 25.5522 190.496 24.8322 190.352C25.2642 189.728 25.4722 189.312 25.7922 188.624H24.4482V186.704H26.5602C26.7042 186.304 26.8162 185.92 26.9122 185.52L27.5362 185.584V183.872C26.8322 184.752 26.1762 185.36 25.2002 185.952L24.0962 184.224C25.0562 183.888 25.8242 183.28 26.5602 182.592H24.4482V180.768H25.3762C25.1842 180.112 24.9442 179.488 24.6242 178.88L26.2882 178.288C26.6562 178.992 26.9122 179.472 27.1682 180.24L25.7602 180.768H27.5362V178.304H29.7762V180.768H31.6802L29.9682 180.256C30.3842 179.6 30.6722 178.96 30.9282 178.24L32.7842 178.72C32.4802 179.472 32.1602 180.064 31.7762 180.768H32.5602V182.592H30.4962C30.9442 183.04 31.4402 183.44 31.9842 183.776C33.0402 182.192 33.7122 180.08 33.9042 178.192L36.2562 178.448C36.1602 179.12 36.0482 179.776 35.9042 180.448H39.6002V182.864H39.0882C38.9442 184.928 38.6242 187.312 37.6162 189.152C38.2882 189.984 38.9922 190.576 39.8882 191.152L38.5602 193.504C37.5682 192.832 36.8162 192.16 36.0642 191.232ZM36.1922 186.752C36.6402 185.456 36.7842 184.224 36.8322 182.864H35.1842C35.3442 184.224 35.6642 185.504 36.1922 186.752ZM34.7682 189.184C34.2402 188.016 33.9202 186.88 33.6642 185.632C33.4402 185.952 33.2642 186.16 33.0082 186.448L31.5682 184.816L31.1042 185.424C30.5282 185.008 30.2082 184.64 29.7762 184.08V185.808H29.1682C29.0722 186.112 28.9762 186.4 28.8642 186.704H32.7202V188.624H31.9202C31.6962 189.328 31.4242 189.904 31.0082 190.512C31.4082 190.672 31.8082 190.848 32.2082 191.024C33.2002 190.576 34.0322 189.984 34.7682 189.184ZM28.0962 188.624C27.9682 188.912 27.8402 189.2 27.6962 189.488C28.1602 189.584 28.6242 189.696 29.0722 189.824C29.4242 189.44 29.6322 189.104 29.8402 188.624H28.0962Z" fill="white"/>
<path d="M227.816 264.36L227.348 265.44C227.072 265.02 226.904 264.708 226.688 264.252V268.128H224.972V264.444C224.54 265.32 224.132 265.908 223.508 266.652L222.896 264.516C223.736 263.844 224.3 262.992 224.78 262.044H223.136V260.4H224.972V256.752H226.688V260.4H228.368V261.384L229.388 260.196C230.156 260.664 230.804 261.192 231.416 261.84L230.18 263.172C229.676 262.548 229.04 261.936 228.368 261.528V262.044H226.808C227.144 262.68 227.588 263.244 228.092 263.748L227.996 263.976L231.68 263.268V258.972L230.612 260.172C230 259.428 229.496 258.948 228.716 258.396L229.808 257.208C230.492 257.628 231.128 258.12 231.68 258.708V256.728H233.528V262.896L234.392 262.728L234.548 264.516L233.528 264.708V268.092H231.68V265.068L228.02 265.776L227.816 264.36ZM228.812 257.484C228.656 258.324 228.332 259.272 227.96 260.04L226.76 259.5C227.048 258.828 227.324 257.868 227.42 257.148L228.812 257.484ZM224.18 257.184C224.456 257.892 224.684 258.756 224.792 259.512L223.52 260.028C223.46 259.116 223.292 258.384 222.956 257.544L224.18 257.184Z" fill="#6F6356"/>
<path d="M211.688 259.464C211.364 259.764 211.136 259.944 210.752 260.148L209.732 258.744C210.572 258.252 211.46 257.544 211.868 256.632L213.656 256.848C213.548 257.124 213.464 257.28 213.32 257.532H221V259.152H220.028V260.328H221.3V261.972H220.028V263.16H221V264.78H210.2V263.16H211.544V261.972H209.924V260.328H211.688V259.464ZM213.944 259.152H213.08V260.328H213.944V259.152ZM216.188 259.152H215.312V260.328H216.188V259.152ZM218.432 259.152H217.556V260.328H218.432V259.152ZM213.944 261.972H213.08V263.16H213.944V261.972ZM216.188 261.972H215.312V263.16H216.188V261.972ZM218.432 261.972H217.556V263.16H218.432V261.972ZM212.744 265.38C212.396 266.472 212.036 267.372 211.304 268.26L209.78 267.216C210.44 266.52 210.848 265.704 211.172 264.804L212.744 265.38ZM219.8 264.804C220.496 265.728 220.892 266.388 221.396 267.432L219.716 268.236C219.332 267.264 218.804 266.34 218.24 265.464L219.8 264.804ZM217.28 265.116C217.604 265.884 218.048 267.156 218.168 267.96L216.38 268.104C216.26 267.096 216.02 266.184 215.684 265.236L217.28 265.116ZM214.832 265.2C214.976 266.004 215.06 267.216 215.06 268.032L213.248 268.08C213.344 267.504 213.344 266.76 213.344 266.172C213.344 265.848 213.344 265.56 213.32 265.248L214.832 265.2Z" fill="#6F6356"/>
<path d="M201.416 264.36L200.948 265.44C200.672 265.02 200.504 264.708 200.288 264.252V268.128H198.572V264.444C198.14 265.32 197.732 265.908 197.108 266.652L196.496 264.516C197.336 263.844 197.9 262.992 198.38 262.044H196.736V260.4H198.572V256.752H200.288V260.4H201.968V261.384L202.988 260.196C203.756 260.664 204.404 261.192 205.016 261.84L203.78 263.172C203.276 262.548 202.64 261.936 201.968 261.528V262.044H200.408C200.744 262.68 201.188 263.244 201.692 263.748L201.596 263.976L205.28 263.268V258.972L204.212 260.172C203.6 259.428 203.096 258.948 202.316 258.396L203.408 257.208C204.092 257.628 204.728 258.12 205.28 258.708V256.728H207.128V262.896L207.992 262.728L208.148 264.516L207.128 264.708V268.092H205.28V265.068L201.62 265.776L201.416 264.36ZM202.412 257.484C202.256 258.324 201.932 259.272 201.56 260.04L200.36 259.5C200.648 258.828 200.924 257.868 201.02 257.148L202.412 257.484ZM197.78 257.184C198.056 257.892 198.284 258.756 198.392 259.512L197.12 260.028C197.06 259.116 196.892 258.384 196.556 257.544L197.78 257.184Z" fill="#6F6356"/>
<path d="M192.272 262.643C192.944 263.603 193.892 264.167 194.996 264.503L193.976 266.099H195.092L194.744 267.839H188.552C187.472 267.839 186.5 267.467 185.84 266.579C185.324 267.203 184.772 267.707 184.088 268.163L183.38 266.171C183.872 265.931 184.196 265.703 184.616 265.355V262.871H183.572V261.191H186.344V264.683C186.536 265.547 187.064 265.907 187.916 266.051L186.812 264.527C187.844 264.155 188.828 263.615 189.392 262.643H186.764V260.939H189.884V259.895H187.088V258.191H188.156C188 257.759 187.832 257.423 187.616 257.015L189.38 256.691C189.608 257.171 189.824 257.699 190.004 258.191H191.54C191.756 257.783 191.996 257.147 192.104 256.691L193.916 256.967C193.772 257.387 193.568 257.795 193.376 258.191H194.528V259.895H191.624V260.939H194.864V262.643H192.272ZM184.844 256.823C185.624 257.435 186.224 258.035 186.872 258.779L185.528 260.087C184.976 259.355 184.364 258.659 183.644 258.083L184.844 256.823ZM193.748 266.099C192.416 265.511 191.456 264.563 190.832 263.255C190.364 264.443 189.308 265.511 188.18 266.087C188.372 266.099 188.564 266.099 188.744 266.099H193.748Z" fill="#6F6356"/>
<path d="M16 223H102V287H16V223Z" fill="#6F6356"/>
<path d="M81.0637 271.448L81.0957 272.36C81.1117 272.664 81.1117 272.968 81.1117 273.272C81.1117 276.216 80.5517 278.44 78.0237 280.232L75.7517 278.584C77.9437 277.24 78.5517 275.56 78.5517 273.064C78.5517 272.856 78.5357 272.648 78.5357 272.424L78.5037 271.672C77.5277 271.72 76.5677 271.752 75.5917 271.752C74.9677 271.752 74.3437 271.736 73.7037 271.704L73.6557 269.192C74.4397 269.24 75.2237 269.256 76.0077 269.256C76.8077 269.256 77.6077 269.224 78.4077 269.208L78.2957 266.12H80.9037L80.9997 268.984C81.7517 268.888 82.5037 268.76 83.2397 268.6L83.3677 271.096C82.5997 271.24 81.8477 271.352 81.0637 271.448ZM70.5357 266.232L73.1597 266.536C72.6157 268.808 72.2637 270.984 72.2637 273.32C72.2637 275.304 72.5197 277.16 72.9997 279.064L70.5517 279.448C69.9597 277.592 69.7837 275.352 69.7837 273.416C69.7837 271 70.0717 268.6 70.5357 266.232Z" fill="white"/>
<path d="M61.3997 270.856V271.896H65.6237V280.296H55.0317V271.896H59.1917V270.856H54.5037V272.712C54.5037 275.24 54.0557 278.312 52.7757 280.504L50.8237 278.584C51.7997 276.824 52.1357 274.616 52.1357 272.616V265.784H65.6077V270.856H61.3997ZM63.2397 267.88H54.5037V268.952H63.2397V267.88ZM59.1917 273.848H57.3037V275.128H59.1917V273.848ZM63.3677 273.848H61.3997V275.128H63.3677V273.848ZM59.1917 276.888H57.3037V278.248H59.1917V276.888ZM63.3677 276.888H61.3997V278.248H63.3677V276.888Z" fill="white"/>
<path d="M37.7359 268.296V265.816H40.2319V268.104C41.1599 268.024 42.1199 267.832 43.0159 267.624L43.0639 270.12C42.1199 270.264 41.1759 270.392 40.2319 270.504V271.48C41.1439 271.224 42.0879 271.064 43.0319 271.064C44.7119 271.064 46.3279 271.624 47.1919 273.16C47.5759 273.848 47.7519 274.648 47.7519 275.448C47.7519 276.776 47.1919 278.184 46.0079 278.904C45.2719 279.352 44.3599 279.544 43.4959 279.544C42.9519 279.544 42.5199 279.48 41.9919 279.352L41.9119 276.744C42.3759 276.936 42.7919 277.032 43.2879 277.032C44.3759 277.032 45.1759 276.52 45.1759 275.352C45.1759 273.88 43.9439 273.384 42.6799 273.384C41.8159 273.384 41.0479 273.56 40.2319 273.832V276.648C40.2319 277.208 40.2159 277.816 40.0399 278.312C39.7199 279.304 38.8719 279.816 37.8639 279.816C36.9839 279.816 36.0719 279.48 35.3679 278.968C34.5519 278.392 34.0879 277.576 34.0879 276.568C34.0879 274.584 36.0879 273.112 37.7359 272.376V270.728C36.9039 270.76 36.0719 270.808 35.2239 270.808C35.0479 270.808 34.8719 270.808 34.6959 270.808L34.6639 268.28C35.1919 268.312 35.7359 268.328 36.2639 268.328C36.7599 268.328 37.2399 268.312 37.7359 268.296ZM37.7999 274.904C37.2719 275.224 36.2959 275.896 36.2959 276.6C36.2959 277.096 36.9519 277.496 37.4159 277.496C37.8159 277.496 37.7999 277.064 37.7999 276.616V274.904ZM43.4959 268.456L45.0159 266.76C46.3919 267.608 47.5439 268.616 48.5999 269.816L46.8239 271.528C45.8319 270.232 44.8559 269.336 43.4959 268.456Z" fill="white"/>
<path d="M53.9703 261.49C55.799 259.786 56.0806 257.115 54.5993 255.526C53.118 253.937 50.4347 254.031 48.606 255.736C46.7774 257.44 46.4958 260.11 47.9771 261.7C49.4584 263.289 52.1416 263.195 53.9703 261.49Z" fill="white"/>
<path d="M78.1666 261.492C79.9953 259.788 80.2769 257.117 78.7956 255.528C77.3142 253.939 74.631 254.033 72.8023 255.738C70.9736 257.442 70.692 260.112 72.1734 261.701C73.6547 263.291 76.3379 263.197 78.1666 261.492Z" fill="white"/>
<path d="M34.9347 240.729C34.9347 239.598 34.0177 238.681 32.8865 238.681C31.7554 238.681 30.8384 239.598 30.8384 240.729C30.8384 241.86 31.7554 242.777 32.8865 242.777C34.0177 242.777 34.9347 241.86 34.9347 240.729Z" fill="white"/>
<path d="M69.1238 258.134C69.803 254.787 72.9742 252.127 76.3827 252.127C79.6647 252.127 82.0302 254.594 81.9653 257.766C85.5148 257.859 86.5028 253.198 86.5028 253.198C86.8016 251.895 87.2481 249.354 87.6218 246.86C87.7443 246.09 87.6502 245.302 87.3499 244.582C86.4221 242.422 85.3008 240.35 83.9997 238.391C82.7688 236.56 80.7042 235.476 78.3476 235.436C76.9422 235.414 75.5625 235.401 74.5207 235.401L74.5117 235.392C74.3775 233.151 72.7393 231.435 70.4397 231.23C68.9436 231.097 63.0175 231 60.173 231C59.0428 231 57.4214 231.016 55.781 231.042V231.036H55.7675H36.0442C35.7932 231.036 35.5446 231.085 35.3126 231.18C35.0807 231.276 34.8699 231.417 34.6924 231.594C34.5149 231.771 34.3742 231.981 34.2782 232.212C34.1822 232.443 34.1328 232.691 34.133 232.942V232.95C34.133 233.454 34.3334 233.936 34.6901 234.292C35.0469 234.647 35.5307 234.847 36.0353 234.847H40.011C40.4898 234.883 40.9375 235.097 41.2643 235.447C41.5912 235.798 41.773 236.259 41.7734 236.738V236.748C41.7742 236.998 41.7254 237.246 41.6298 237.478C41.5342 237.71 41.3937 237.92 41.2164 238.098C41.0391 238.276 40.8284 238.416 40.5964 238.513C40.3645 238.609 40.1157 238.659 39.8644 238.659H37.8256C37.319 238.659 36.8332 238.86 36.475 239.217C36.1168 239.574 35.9155 240.059 35.9155 240.564C35.9154 240.814 35.9647 241.062 36.0606 241.293C36.1565 241.524 36.2972 241.734 36.4746 241.911C36.652 242.088 36.8626 242.229 37.0944 242.324C37.3262 242.42 37.5747 242.469 37.8256 242.469H39.8644C40.3713 242.469 40.8575 242.67 41.2159 243.028C41.5743 243.385 41.7757 243.87 41.7757 244.375C41.7757 244.881 41.5743 245.366 41.2159 245.723C40.8575 246.08 40.3713 246.281 39.8644 246.281H32.2374C31.7307 246.281 31.2447 246.482 30.8864 246.839C30.528 247.196 30.3265 247.681 30.3262 248.186C30.3262 248.691 30.5275 249.176 30.886 249.533C31.2444 249.891 31.7305 250.092 32.2374 250.092H39.8644C40.3713 250.092 40.8575 250.292 41.2159 250.65C41.5743 251.007 41.7757 251.492 41.7757 251.997C41.7751 252.503 41.5735 252.987 41.2151 253.344C40.8567 253.701 40.3709 253.901 39.8644 253.901H37.5056C36.999 253.901 36.5132 254.102 36.155 254.459C35.7967 254.816 35.5955 255.301 35.5955 255.806C35.5955 256.311 35.7967 256.796 36.1549 257.153C36.5131 257.51 36.9989 257.711 37.5056 257.712L45.0319 257.706L45.6575 256.152C46.9387 253.795 49.4878 252.126 52.1868 252.126C55.5963 252.126 58.0178 254.788 57.7515 258.138H69.1227M50.167 239.546H47.6023C47.5998 239.546 47.5975 239.547 47.5957 239.549C47.5939 239.55 47.5927 239.553 47.5922 239.555L47.3561 241.229C47.3557 241.23 47.3557 241.231 47.356 241.233C47.3563 241.234 47.3569 241.235 47.3578 241.237C47.3586 241.238 47.3597 241.238 47.361 241.239C47.3623 241.24 47.3636 241.24 47.365 241.24H49.274C49.3677 241.237 49.4608 241.255 49.5466 241.293C49.6323 241.331 49.7085 241.387 49.7696 241.458C49.8308 241.529 49.8752 241.613 49.8998 241.703C49.9244 241.793 49.9285 241.888 49.9119 241.98C49.8791 242.182 49.7768 242.366 49.6224 242.501C49.468 242.636 49.2712 242.713 49.0659 242.719H47.1547C47.1523 242.719 47.1501 242.72 47.1482 242.722C47.1464 242.723 47.1451 242.725 47.1446 242.727L46.8022 245.159C46.7695 245.361 46.6671 245.545 46.5127 245.68C46.3583 245.815 46.1615 245.892 45.9562 245.898C45.8626 245.901 45.7695 245.883 45.6838 245.845C45.5981 245.807 45.5219 245.751 45.4609 245.68C45.3999 245.609 45.3555 245.525 45.331 245.435C45.3066 245.345 45.3026 245.251 45.3195 245.159L46.208 238.852C46.2432 238.638 46.3518 238.444 46.5151 238.301C46.6784 238.159 46.8863 238.077 47.1032 238.071H50.374C50.4677 238.068 50.5608 238.086 50.6465 238.124C50.7322 238.162 50.8083 238.218 50.8693 238.289C50.9304 238.36 50.9747 238.444 50.9992 238.534C51.0237 238.624 51.0276 238.719 51.0107 238.811C50.9775 239.012 50.8752 239.195 50.7213 239.329C50.5673 239.464 50.3714 239.54 50.167 239.546ZM57.0219 238.573C57.2884 238.809 57.4758 239.12 57.559 239.466C57.6521 239.857 57.6673 240.263 57.6038 240.66C57.526 241.277 57.2724 241.86 56.8731 242.339C56.6292 242.626 56.3195 242.851 55.9701 242.994C55.9685 242.996 55.9676 242.998 55.9676 243C55.9676 243.002 55.9685 243.005 55.9701 243.006L56.6057 244.835C56.7769 245.326 56.3371 245.898 55.7899 245.898H55.7541C55.6214 245.902 55.4908 245.864 55.3814 245.789C55.2719 245.714 55.1893 245.606 55.1454 245.481L54.3766 243.249C54.3755 243.248 54.374 243.246 54.3723 243.245C54.3705 243.244 54.3686 243.244 54.3666 243.244H52.7328C52.7306 243.244 52.7284 243.245 52.7266 243.246C52.7248 243.248 52.7234 243.25 52.7228 243.252L52.4542 245.158C52.4215 245.36 52.3191 245.544 52.1647 245.679C52.0103 245.814 51.8135 245.891 51.6082 245.897C51.5146 245.9 51.4215 245.882 51.3358 245.844C51.2501 245.806 51.1739 245.75 51.1129 245.679C51.0519 245.608 51.0075 245.524 50.9831 245.434C50.9586 245.344 50.9547 245.249 50.9715 245.158L51.86 238.851C51.8952 238.637 52.0038 238.443 52.1671 238.3C52.3304 238.158 52.5383 238.076 52.7552 238.07H55.2841C55.2841 238.07 56.3942 238.035 57.0219 238.573ZM63.982 238.758C63.9516 238.947 63.8561 239.119 63.7118 239.246C63.5676 239.372 63.3838 239.444 63.192 239.449H60.2502C60.2479 239.449 60.2457 239.45 60.2439 239.451C60.2421 239.453 60.2408 239.455 60.2401 239.457L60.0063 241.113C60.0059 241.114 60.0059 241.115 60.0062 241.117C60.0065 241.118 60.0071 241.119 60.0079 241.12C60.0088 241.122 60.0099 241.122 60.0112 241.123C60.0124 241.124 60.0138 241.124 60.0152 241.124H62.3002C62.3877 241.121 62.4747 241.138 62.5548 241.173C62.6349 241.209 62.706 241.261 62.7631 241.328C62.8202 241.394 62.8617 241.472 62.8846 241.556C62.9075 241.64 62.9112 241.729 62.8955 241.815C62.8651 242.003 62.7695 242.176 62.6253 242.302C62.4811 242.428 62.2972 242.5 62.1055 242.505H59.8194C59.8171 242.505 59.8149 242.506 59.8131 242.508C59.8113 242.509 59.81 242.511 59.8093 242.513L59.5285 244.506C59.5284 244.509 59.5295 244.511 59.5313 244.513C59.5332 244.515 59.5358 244.517 59.5385 244.517H62.4781C62.5656 244.514 62.6526 244.531 62.7327 244.567C62.8128 244.602 62.884 244.655 62.941 244.721C62.9981 244.787 63.0396 244.865 63.0625 244.949C63.0854 245.034 63.0891 245.122 63.0734 245.208C63.043 245.397 62.9474 245.569 62.8032 245.695C62.659 245.821 62.4751 245.893 62.2834 245.898H58.6355C58.5371 245.9 58.4395 245.88 58.3498 245.839C58.2601 245.799 58.1804 245.739 58.1163 245.665C58.0523 245.59 58.0054 245.502 57.9791 245.408C57.9528 245.313 57.9477 245.214 57.9641 245.117L58.847 238.855C58.8822 238.642 58.9907 238.447 59.1541 238.305C59.3174 238.162 59.5253 238.081 59.7422 238.074H63.389C63.4756 238.072 63.5616 238.089 63.6409 238.124C63.7201 238.159 63.7906 238.211 63.8473 238.277C63.904 238.342 63.9455 238.419 63.9688 238.502C63.9921 238.586 63.9966 238.673 63.982 238.758ZM70.0928 238.758C70.0624 238.947 69.9669 239.119 69.8226 239.246C69.6784 239.372 69.4946 239.444 69.3028 239.449H66.361C66.3587 239.449 66.3565 239.45 66.3547 239.451C66.3529 239.453 66.3516 239.455 66.3509 239.457L66.1182 241.113C66.1178 241.114 66.1178 241.115 66.1181 241.117C66.1184 241.118 66.119 241.119 66.1199 241.12C66.1207 241.122 66.1218 241.122 66.1231 241.123C66.1244 241.124 66.1258 241.124 66.1271 241.124H68.4121C68.4996 241.121 68.5866 241.138 68.6667 241.173C68.7468 241.209 68.818 241.261 68.875 241.328C68.9321 241.394 68.9736 241.472 68.9965 241.556C69.0194 241.64 69.0231 241.729 69.0074 241.815C68.977 242.003 68.8814 242.176 68.7372 242.302C68.593 242.428 68.4091 242.5 68.2174 242.505H65.9302C65.9279 242.505 65.9257 242.506 65.9239 242.508C65.9221 242.509 65.9208 242.511 65.9201 242.513L65.6393 244.506C65.6392 244.509 65.6403 244.511 65.6421 244.513C65.644 244.515 65.6466 244.517 65.6493 244.517H68.5889C68.6764 244.514 68.7634 244.531 68.8435 244.567C68.9236 244.602 68.9948 244.655 69.0518 244.721C69.1089 244.787 69.1504 244.865 69.1733 244.949C69.1962 245.034 69.1999 245.122 69.1842 245.208C69.1538 245.397 69.0582 245.569 68.914 245.695C68.7698 245.821 68.5859 245.893 68.3942 245.898H64.7463C64.6479 245.9 64.5504 245.88 64.4606 245.839C64.3709 245.799 64.2912 245.739 64.2271 245.665C64.1631 245.59 64.1162 245.502 64.0899 245.408C64.0636 245.313 64.0585 245.214 64.0749 245.117L64.9578 238.855C64.993 238.642 65.1016 238.447 65.2649 238.305C65.4282 238.162 65.6361 238.081 65.853 238.074H69.4998C69.5864 238.072 69.6725 238.089 69.7517 238.124C69.8309 238.159 69.9014 238.211 69.9581 238.277C70.0148 238.342 70.0563 238.419 70.0796 238.502C70.1029 238.586 70.1074 238.673 70.0928 238.758ZM74.345 238.043C75.3443 238.043 76.6378 238.056 77.9358 238.078C79.5091 238.103 80.8855 238.824 81.7113 240.054C82.5934 241.38 83.3863 242.763 84.0847 244.193C84.454 244.943 83.7747 245.92 82.8851 245.92H73.3457L74.345 238.043Z" fill="white"/>
<path d="M54.5474 241.752H52.8555L53.1767 239.705H54.8675C54.8675 239.705 56.1086 239.634 55.9051 240.729C55.9105 240.729 55.7681 241.752 54.5474 241.752Z" fill="white"/>
<path d="M267.701 143.3H268.387C268.765 143.3 268.807 143.146 268.807 142.838V137.91H264.943V132.492H270.809V143.818C270.809 144.84 270.207 145.316 269.563 145.316H266.875L266.651 144.028H261.415V138.54H267.701V143.3ZM258.349 132.492H264.089V137.91H260.323V145.316H258.349V132.492ZM268.807 133.934H266.875V134.578H268.807V133.934ZM262.157 133.934H260.323V134.578H262.157V133.934ZM268.807 135.796H266.875V136.454H268.807V135.796ZM262.157 135.796H260.323V136.454H262.157V135.796ZM265.797 139.982H263.305V140.64H265.797V139.982ZM265.797 141.788H263.305V142.488H265.797V141.788Z" fill="#6F6356"/>
<path d="M243.985 132.072C244.909 132.66 245.889 133.444 246.631 134.256L245.175 135.964C244.419 134.998 243.635 134.354 242.627 133.668L243.985 132.072ZM250.215 133.878H248.633V137.756C248.633 138.484 248.549 139.548 248.451 140.276C248.325 141.158 248.101 141.886 247.667 142.67L246.169 141.116C246.715 139.954 246.855 138.61 246.855 137.336V132.338H255.395V141.452C255.395 142.194 255.045 142.656 254.275 142.656H252.511L252.343 141.662H248.941V138.246H253.155V140.92H253.295C253.575 140.92 253.603 140.752 253.603 140.514V133.878H251.881V134.536H253.337V135.796H251.881V136.384H253.379V137.728H248.857V136.384H250.215V135.796H248.913V134.536H250.215V133.878ZM242.557 137.252H246.001V141.452C246.169 141.998 246.407 142.334 246.911 142.614C247.457 142.922 248.059 143.034 248.689 143.034H256.025L255.619 145.022H248.829C248.101 145.022 247.289 144.896 246.603 144.63C246.029 144.392 245.609 144.028 245.189 143.566C244.671 144.14 243.789 144.882 243.173 145.344L242.389 143.104C243.019 142.754 243.383 142.544 243.971 142.11V139.184H242.557V137.252ZM251.699 139.52H250.425V140.402H251.699V139.52Z" fill="#6F6356"/>
<path d="M232.17 144.112V142.166L235.684 138.946C236.748 137.938 237.252 137.294 237.252 136.426C237.252 135.488 236.636 134.9 235.698 134.9C234.732 134.9 233.906 135.488 233.262 136.454L232.128 134.452C233.108 133.304 234.41 132.632 236.02 132.632C238.302 132.632 239.856 133.92 239.856 136.048C239.856 137.658 239.058 138.694 237.252 140.318L235.516 141.872H239.968V144.112H232.17Z" fill="#6F6356"/>
<path d="M220.508 132.422C222.552 132.646 224.358 133.024 226.304 133.682L225.534 135.698C223.546 134.956 221.88 134.592 219.78 134.354L220.508 132.422ZM218.884 134.62L221.068 135.096C220.83 136.076 220.606 137.056 220.396 138.036C221.6 137.406 222.902 137.014 224.274 137.014C226.416 137.014 228.418 138.078 228.418 140.472C228.418 142.208 227.354 143.51 225.744 144.084C224.54 144.518 223.126 144.63 221.852 144.63C221.068 144.63 220.298 144.574 219.528 144.462L219.094 142.194C220.088 142.376 220.998 142.474 222.006 142.474C223.35 142.474 226.122 142.306 226.122 140.444C226.122 139.324 225.086 139.058 224.176 139.058C222.44 139.058 220.844 139.828 219.584 140.962L217.792 140.43C218.072 138.484 218.436 136.552 218.884 134.62Z" fill="#6F6356"/>
<path d="M204.66 135.559C204.884 134.551 205.038 133.543 205.178 132.521L207.432 132.913C207.278 133.739 207.124 134.551 206.942 135.363C207.95 135.363 208.93 135.489 209.658 136.245C210.442 137.057 210.54 138.219 210.54 139.297C210.54 140.501 210.4 142.573 209.728 143.581C209.182 144.421 208.3 144.631 207.348 144.631C206.774 144.631 206.2 144.561 205.64 144.435L205.654 142.237C206.074 142.377 206.522 142.461 206.97 142.461C207.516 142.461 207.866 142.307 208.02 141.747C208.23 141.047 208.3 139.899 208.3 139.157C208.3 138.065 208.202 137.421 206.928 137.421C206.76 137.421 206.606 137.435 206.438 137.435C205.724 140.039 204.814 142.573 203.414 144.883L201.496 143.637C202.686 141.733 203.498 139.843 204.142 137.701C203.344 137.813 202.546 137.939 201.748 138.079L201.482 135.937L204.66 135.559ZM211.17 133.921C212.864 135.629 213.704 137.715 213.872 140.109L211.73 140.795C211.604 138.611 211.03 136.679 209.49 135.069L211.17 133.921Z" fill="#6F6356"/>
<path d="M194.174 140.528C193.474 140.094 192.76 139.702 191.976 139.436C191.472 140.472 190.898 141.466 190.226 142.39C189.694 143.104 189.022 143.734 188.07 143.734C186.642 143.734 186.026 142.404 186.026 141.158C186.026 138.834 187.958 137.014 190.254 137.014C190.436 137.014 190.618 137.028 190.786 137.042C191.052 136.426 191.318 135.796 191.556 135.18C190.674 135.264 189.778 135.334 188.882 135.334C188.63 135.334 188.378 135.32 188.126 135.32L188.098 133.136C188.672 133.164 189.246 133.192 189.834 133.192C190.884 133.192 192.074 133.15 193.096 132.898L194.398 133.906C193.894 135.096 193.39 136.3 192.886 137.504C193.614 137.756 194.356 138.092 195.028 138.47C195.266 137.616 195.406 136.762 195.476 135.88L197.632 136.426C197.52 137.518 197.296 138.61 196.932 139.66C197.506 140.066 198.052 140.5 198.57 140.948L197.408 143.048C196.946 142.628 196.484 142.208 195.98 141.816C195.294 143.062 194.482 144.098 193.39 145.008L191.486 143.72C192.634 142.838 193.502 141.788 194.174 140.528ZM189.82 139.072C188.644 139.17 187.916 140.22 187.916 141.13C187.916 141.256 187.916 141.536 188.098 141.536C188.49 141.536 189.624 139.464 189.82 139.072Z" fill="#6F6356"/>
<path d="M171.606 132.101C172.558 132.759 173.468 133.459 174.224 134.341L172.768 135.979C172.068 135.069 171.158 134.355 170.234 133.683L171.606 132.101ZM178.242 134.495H175.12V132.451H180.23C180.244 135.951 180.958 138.429 183.674 140.767L182.26 142.685C180.65 141.243 179.586 139.591 179.068 137.491C178.312 139.591 176.968 141.299 175.204 142.657L173.832 140.781C176.142 139.535 177.64 136.987 178.242 134.495ZM170.192 137.239H173.594V141.621C174.112 142.713 174.994 142.979 176.114 142.979H183.618L183.226 144.995H176.282C174.826 144.995 173.748 144.645 172.768 143.539C172.222 144.197 171.48 144.813 170.78 145.303L169.968 142.993C170.57 142.685 171.018 142.489 171.564 142.069V139.185H170.192V137.239Z" fill="#6F6356"/>
<path d="M157.256 132.59L159.636 132.73L159.356 139.94C159.356 140.052 159.356 140.15 159.356 140.248C159.356 141.662 159.776 142.474 161.316 142.474C163.682 142.474 164.816 140.164 165.46 138.218L167.504 139.366C166.44 142.278 164.69 144.742 161.302 144.742C159.888 144.742 158.446 144.322 157.62 143.104C157.102 142.32 156.976 141.382 156.976 140.458C156.976 140.304 156.99 139.674 157.004 139.352L157.256 132.59Z" fill="#6F6356"/>
<path d="M147.022 145.316H144.908V142.278H140.05V133.752H144.908V132.044H147.022V133.752H151.908V142.278H147.022V145.316ZM142.15 135.642V137.112H144.908V135.642H142.15ZM149.794 135.642H147.022V137.112H149.794V135.642ZM142.15 138.848V140.346H144.908V138.848H142.15ZM149.794 138.848H147.022V140.346H149.794V138.848Z" fill="#6F6356"/>
<path d="M132.056 135.138L132 132.716H134.212L134.254 135.012C134.954 134.942 135.64 134.858 136.326 134.746V136.972C135.654 137.056 134.982 137.126 134.296 137.182L134.366 140.066C135.346 140.486 136.088 140.878 136.942 141.508L136.088 143.538C135.514 143.076 134.996 142.754 134.352 142.404C134.324 142.768 134.254 143.118 134.086 143.454C133.596 144.392 132.49 144.672 131.51 144.672C129.886 144.672 128.276 143.888 128.276 142.054C128.276 141.018 128.864 140.08 129.858 139.716C130.334 139.534 130.852 139.464 131.356 139.464C131.636 139.464 131.888 139.492 132.154 139.52L132.112 137.308C131.734 137.322 131.37 137.322 131.006 137.322C130.138 137.322 129.27 137.308 128.416 137.252V135.04C129.354 135.096 130.306 135.152 131.258 135.152C131.524 135.152 131.79 135.152 132.056 135.138ZM132.21 141.522C131.916 141.424 131.622 141.368 131.328 141.368C130.88 141.368 130.236 141.522 130.236 142.068C130.236 142.572 130.88 142.768 131.286 142.768C132.182 142.768 132.224 142.25 132.21 141.522ZM125.602 132.758L127.884 133.024C127.38 135.25 127.086 137.462 127.086 139.758C127.086 141.298 127.226 142.712 127.534 144.224L125.392 144.546C125.014 142.978 124.916 141.27 124.916 139.674C124.916 137.35 125.182 135.04 125.602 132.758Z" fill="#6F6356"/>
<path d="M114.444 143.048V132.38H121.388V139.128H121.108L122.018 140.696C121.472 141.172 121.01 141.494 120.394 141.858C120.884 142.474 121.388 142.936 122.004 143.44L120.716 145.358C118.812 143.874 117.636 141.48 117.244 139.128H116.46V142.74C117.062 142.642 117.65 142.53 118.252 142.39L118.392 144.266C116.824 144.7 115.2 144.952 113.59 145.232L113.31 143.188C113.688 143.146 114.066 143.104 114.444 143.048ZM108.858 132.38H113.926V134.312C113.66 135.278 113.324 136.272 112.932 137.182C113.73 138.036 114.066 139.254 114.066 140.402C114.066 141.032 113.926 141.774 113.45 142.208C113.198 142.446 112.778 142.642 112.428 142.642H111.28L110.972 140.64H111.364C111.896 140.64 112.008 140.43 112.008 139.926C112.008 138.932 111.672 138.176 110.972 137.49C111.392 136.412 111.658 135.418 111.91 134.298H110.874V145.33H108.858V132.38ZM119.372 134.214H116.46V135.082H119.372V134.214ZM119.372 136.524H116.46V137.434H119.372V136.524ZM119.498 140.332C119.988 139.954 120.464 139.59 120.884 139.128H119.064C119.19 139.562 119.316 139.912 119.498 140.332Z" fill="#6F6356"/>
<path d="M99.3239 143.944L98.3999 144.714C98.0359 144.084 97.4059 143.23 96.9159 142.684L98.2179 141.802H94.9979L96.4679 142.6C96.1319 143.468 95.1379 144.784 94.3819 145.344L92.9819 143.972C93.6959 143.44 94.3399 142.558 94.8299 141.802H93.1359V140.01H94.0039V134.802H93.3039V132.996H94.0039V132.072H95.9639V132.996H97.7699V132.072H99.7159V132.996H100.472V134.802H99.7159V140.01H100.57C100.654 139.282 100.696 138.554 100.696 137.826V132.352H105.988V144C105.988 144.98 105.582 145.274 104.644 145.274H102.754L102.404 143.3H103.594C103.944 143.3 104 143.104 104 142.796V141.074H102.39C102.25 142.474 101.746 144.196 100.878 145.33L99.3239 143.944ZM104 134.396H102.53V135.922H104V134.396ZM97.7699 134.802H95.9639V135.488H97.7699V134.802ZM97.7699 137.014H95.9639V137.756H97.7699V137.014ZM104 137.728H102.53L102.488 139.212H104V137.728ZM97.7699 139.184H95.9639V140.01H97.7699V139.184ZM99.6039 143.244C99.8699 142.768 100.066 142.32 100.22 141.802H98.3859C98.7919 142.18 99.2819 142.782 99.6039 143.244Z" fill="#6F6356"/>
<path d="M84.2743 142.545C85.8843 143.035 87.5923 143.231 89.2723 143.231C89.8883 143.231 90.4903 143.203 91.1063 143.161L90.3923 145.331C87.7603 145.317 85.2263 144.981 82.7763 143.973C81.5163 144.771 80.0183 145.163 78.5483 145.373L77.6943 143.231C78.7443 143.147 79.5283 143.035 80.5503 142.769C80.0603 142.419 79.7243 142.111 79.3183 141.677L80.6203 140.865H78.7443V134.887H83.3643V134.271H77.7923V132.437H90.9943V134.271H85.3803V134.887H90.0143V140.865H85.0723C84.9043 141.439 84.6103 142.055 84.2743 142.545ZM85.3803 136.385V137.113H87.9983V136.385H85.3803ZM83.3643 137.113V136.385H80.7743V137.113H83.3643ZM85.3803 138.485V138.709C85.3803 138.877 85.3803 139.059 85.3663 139.241H87.9983V138.485H85.3803ZM83.3363 139.241C83.3503 139.059 83.3643 138.877 83.3643 138.695V138.485H80.7743V139.241H83.3363ZM82.3283 141.733C82.5663 141.453 82.7343 141.187 82.8883 140.865H81.0963C81.5303 141.243 81.8383 141.453 82.3283 141.733Z" fill="#6F6356"/>
<path d="M65.8221 139.156L64.6041 137.84C65.7801 137.112 66.4941 136.216 66.6761 134.816H62.3501V132.912H67.9081V132.03H70.1061V132.912H75.6501V134.816H73.7181C74.2081 135.712 75.0761 136.762 75.8181 137.462L74.4321 138.876C73.4381 137.994 72.7241 136.86 72.0521 135.726L73.6201 134.816H71.8001V137.574C71.8001 138.26 71.2401 138.61 70.6241 138.61H69.2801C69.1541 138.792 69.0141 138.974 68.8741 139.142H73.5921V140.878C72.8361 141.69 72.3461 142.152 71.4081 142.754C72.8081 143.076 74.2501 143.174 75.6921 143.23L74.8661 145.302C72.8641 145.092 70.7221 144.742 68.8321 144.014C66.9001 144.728 65.1221 145.078 63.0641 145.288L62.4621 143.44C63.9041 143.328 65.2061 143.132 66.6061 142.782C66.1861 142.446 65.8361 142.138 65.4721 141.732C64.7721 142.096 64.1701 142.334 63.4281 142.6L62.4481 140.822C63.7921 140.346 64.6461 139.996 65.8221 139.156ZM67.2781 138.078L68.9861 138.512L68.6781 136.622H69.4761C69.8261 136.622 69.8541 136.552 69.8541 136.286V134.816H68.6361C68.4681 136.034 68.1041 137.154 67.2781 138.078ZM63.6241 138.778L62.2241 137.42C63.0501 136.622 63.4981 135.88 64.0161 134.886L65.7661 135.586C65.1361 136.874 64.6041 137.714 63.6241 138.778ZM69.0001 141.97C69.7841 141.62 70.2601 141.312 70.9741 140.808H67.0961C67.6841 141.256 68.3141 141.648 69.0001 141.97Z" fill="#6F6356"/>
</svg>
