<svg width="333" height="298" viewBox="0 0 333 298" fill="none" xmlns="http://www.w3.org/2000/svg">
<path d="M0 0H333V298H0V0Z" fill="#F5EEE6"/>
<path d="M242.711 52.5597C243.687 52.5437 244.663 52.5277 245.639 52.4637L256.327 51.6797L256.535 54.2397C254.903 54.2717 253.559 54.4477 252.103 55.2637C250.647 56.0797 249.351 57.3917 249.351 59.1517C249.351 61.5677 252.215 62.2397 254.119 62.3837L252.919 64.9117C249.767 64.5437 246.679 62.9277 246.679 59.3437C246.679 57.8397 247.271 56.3517 248.375 55.3117C248.743 54.9597 249.175 54.6557 249.591 54.3677L242.903 55.2317L242.711 52.5597ZM252.087 56.8157L253.431 56.0477C254.183 56.9437 254.743 57.9837 255.255 59.0237L253.847 59.8557C253.335 58.6717 252.871 57.8557 252.087 56.8157ZM254.263 55.5997L255.623 54.8797C256.391 55.7757 256.967 56.7677 257.495 57.8237L256.087 58.6077C255.511 57.3917 255.095 56.6557 254.263 55.5997Z" fill="#6F6356"/>
<path d="M234.007 61.0076C235.815 62.1116 237.703 62.7676 239.783 63.1516L238.343 65.5516C236.103 64.9756 233.943 64.0796 232.071 62.6876C230.087 64.0956 228.135 64.9276 225.783 65.5516L224.455 63.1676C226.471 62.7196 228.407 62.0636 230.183 61.0076C228.455 59.0876 227.431 57.1036 226.727 54.6396H224.519V52.2556H230.839V50.3516H233.367V52.2556H239.671V54.6396H237.447C236.759 57.0876 235.735 59.1356 234.007 61.0076ZM232.103 59.5196C233.527 58.0316 234.247 56.6076 234.839 54.6396H229.319C229.911 56.5916 230.663 58.0476 232.103 59.5196Z" fill="#6F6356"/>
<path d="M215.991 53.1037C215.207 52.4797 214.391 51.9517 213.495 51.5037L215.735 50.0957C216.839 50.6717 217.895 51.3437 218.871 52.1117L217.239 53.1037H221.799V55.3597H217.767V57.8237H221.271V60.0797H217.767V62.8797H222.119V65.1197H210.695V62.8797H215.271V60.0797H211.815V57.8237H215.271V55.3597H211.287V53.1037H215.991ZM208.551 50.2877C209.591 50.7357 210.471 51.2477 211.383 51.9037L209.959 53.8877C209.015 53.1197 208.327 52.7037 207.255 52.1437L208.551 50.2877ZM208.087 54.3357C209.063 54.7837 209.975 55.3597 210.823 56.0477L209.463 58.0317C208.567 57.2957 207.815 56.7997 206.791 56.2557L208.087 54.3357ZM211.367 60.0157C210.519 62.0157 209.575 63.8397 208.247 65.5837L206.743 63.3117C207.911 61.8717 208.807 60.2237 209.559 58.5277L211.367 60.0157Z" fill="#6F6356"/>
<path d="M191.351 51.3916L193.959 51.6796C193.399 54.1116 193.047 56.5276 193.047 59.0396C193.047 60.8316 193.223 62.5436 193.623 64.3036L191.079 64.5916C190.679 62.7996 190.551 60.9596 190.551 59.1356C190.551 56.4316 190.855 54.0476 191.351 51.3916ZM202.887 55.0556C201.943 54.9756 200.999 54.9276 200.039 54.9276C198.503 54.9276 196.983 55.0556 195.463 55.2636L195.511 52.7036C197.031 52.5436 198.551 52.4316 200.071 52.4316C201.031 52.4316 201.991 52.4796 202.951 52.5596L202.887 55.0556ZM197.607 59.0876C197.367 59.4396 197.143 59.9356 197.143 60.3836C197.143 60.7836 197.399 61.0236 197.767 61.1356C198.311 61.3116 199.239 61.3276 199.831 61.3276C201.095 61.3276 202.359 61.1676 203.607 60.9436L203.543 63.5516C202.327 63.7276 201.095 63.8396 199.863 63.8396C197.751 63.8396 194.823 63.6316 194.823 60.8316C194.823 60.0316 195.079 59.3596 195.463 58.6556L197.607 59.0876Z" fill="#6F6356"/>
<path d="M172.311 52.5597C173.287 52.5437 174.263 52.5277 175.239 52.4637L185.927 51.6797L186.135 54.2397C184.503 54.2717 183.159 54.4477 181.703 55.2637C180.247 56.0797 178.951 57.3917 178.951 59.1517C178.951 61.5677 181.815 62.2397 183.719 62.3837L182.519 64.9117C179.367 64.5437 176.279 62.9277 176.279 59.3437C176.279 57.8397 176.871 56.3517 177.975 55.3117C178.343 54.9597 178.775 54.6557 179.191 54.3677L172.503 55.2317L172.311 52.5597ZM181.687 56.8157L183.031 56.0477C183.783 56.9437 184.343 57.9837 184.855 59.0237L183.447 59.8557C182.935 58.6717 182.471 57.8557 181.687 56.8157ZM183.863 55.5997L185.223 54.8797C185.991 55.7757 186.567 56.7677 187.095 57.8237L185.687 58.6077C185.111 57.3917 184.695 56.6557 183.863 55.5997Z" fill="#6F6356"/>
<path d="M160.615 52.6557L160.599 50.8477H163.111L163.127 52.6237C164.775 52.6077 166.407 52.5757 168.055 52.4957L168.039 54.8477C166.407 54.8797 164.775 54.9117 163.143 54.9277L163.159 55.8877C164.567 55.8397 165.975 55.7917 167.399 55.7117V58.0317C165.991 58.0797 164.583 58.1277 163.175 58.1597V59.6157C164.887 60.0637 166.327 60.7677 167.847 61.6797L166.663 64.0957C165.511 63.2637 164.455 62.6717 163.143 62.1437C163.079 64.2077 161.415 64.8637 159.591 64.8637C157.831 64.8637 155.767 64.1277 155.767 62.0317C155.767 60.9277 156.455 60.0317 157.463 59.6157C158.247 59.2957 159.111 59.1997 159.943 59.1997C160.183 59.1997 160.423 59.1997 160.663 59.2157L160.647 58.1917C159.095 58.2077 157.543 58.2237 155.975 58.2077L155.991 55.8717C156.935 55.9037 157.879 55.9357 158.839 55.9357C159.431 55.9357 160.039 55.9197 160.631 55.9197V54.9597C159.751 54.9597 158.871 54.9757 158.007 54.9757C157.143 54.9757 156.295 54.9597 155.431 54.9597L155.447 52.5917C157.175 52.6397 158.887 52.6557 160.615 52.6557ZM160.647 61.5677V61.4077C160.327 61.3597 160.007 61.3437 159.687 61.3437C159.223 61.3437 158.071 61.3917 158.071 62.0637C158.071 62.6077 158.951 62.7037 159.351 62.7037C160.599 62.7037 160.647 62.1277 160.647 61.5677Z" fill="#6F6356"/>
<path d="M144.679 63.2635H138.839V56.5915C138.455 56.9915 138.071 57.3435 137.655 57.6955L136.247 55.3275C137.751 54.0955 139.271 52.1755 139.751 50.2715L142.631 50.3995C142.487 50.7995 142.359 51.1995 142.199 51.5835H151.351C151.319 54.5595 151.335 57.5355 151.175 60.4955C151.111 61.4715 151.031 62.6875 150.759 63.6155C150.343 65.0395 149.223 65.5355 147.831 65.5355H145.239L144.679 63.2635ZM147.207 63.0715C147.959 63.0395 148.295 62.9595 148.487 62.1755C148.855 60.6715 148.855 55.8235 148.855 54.0475H140.871C140.647 54.3995 140.407 54.7355 140.151 55.0555H147.207V63.0715ZM144.855 57.1675H141.207V58.2235H144.855V57.1675ZM144.855 60.0475H141.207V61.1195H144.855V60.0475Z" fill="#6F6356"/>
<path d="M119.527 52.7833H125.255V50.3193H127.719V52.7833H133.527V61.2793H127.719V65.4873H125.255V61.2793H119.527V52.7833ZM125.255 55.1193H121.975V58.9433H125.255V55.1193ZM131.079 55.1193H127.719V58.9433H131.079V55.1193Z" fill="#6F6356"/>
<path d="M114.919 50.8799V63.9199C114.919 64.8319 114.327 65.4879 113.399 65.4879H109.655L109.255 62.9599H111.943C112.263 62.9599 112.423 62.7839 112.423 62.4799V60.6239H105.383C105.127 62.4319 104.599 64.0799 103.543 65.5839L101.383 63.8399C102.695 61.9839 103.143 59.8399 103.143 57.5839V50.8799H114.919ZM105.575 53.2799V54.6719H112.423V53.2799H105.575ZM105.575 56.8959V58.3839H112.423V56.8959H105.575Z" fill="#6F6356"/>
<path d="M93.9602 64.3674C90.9682 64.3674 89.1602 62.0474 89.1602 57.6954C89.1602 53.3434 90.9682 51.0234 93.9602 51.0234C96.9522 51.0234 98.7602 53.3434 98.7602 57.6954C98.7602 62.0474 96.9522 64.3674 93.9602 64.3674ZM93.9602 61.8874C95.0962 61.8874 95.7362 60.6394 95.7362 57.6954C95.7362 54.7514 95.0962 53.5034 93.9602 53.5034C92.8242 53.5034 92.1842 54.7514 92.1842 57.6954C92.1842 60.6394 92.8242 61.8874 93.9602 61.8874Z" fill="#6F6356"/>
<path d="M81.2572 64.1277V54.7197C80.5532 55.3277 79.7852 55.8397 78.9052 56.3037L77.6572 54.1757C79.1772 53.3597 80.5852 52.3997 81.7052 51.2637H84.0732V64.1277H81.2572Z" fill="#6F6356"/>
<path d="M210.055 29.6479L211.575 27.9199C213.015 28.8799 214.231 29.8879 215.367 31.1999L213.671 32.9599C212.583 31.6479 211.463 30.6399 210.055 29.6479Z" fill="#6F6356"/>
<path d="M199.927 23.4073C199.559 23.0713 199.239 22.7193 198.919 22.3353C198.567 22.5913 198.343 22.7353 197.975 22.9593L197.223 21.9673C196.999 22.7513 196.743 23.5193 196.503 24.3033C197.223 25.2633 197.559 26.7673 197.559 27.9673C197.559 28.5113 197.447 29.1193 197.207 29.5993H198.199V26.6073H201.895V25.7913H204.215V26.6073H206.343V28.6073H204.215V29.5993H206.935V31.6953H204.215V33.5353H201.895V31.6953H197.111V29.7753C196.839 30.2073 196.295 30.4953 195.783 30.4953H194.999L194.583 28.2713H195.015C195.495 28.2713 195.623 28.0153 195.623 27.3593C195.623 26.2873 195.287 25.3433 194.599 24.5273C195.047 23.2793 195.383 22.3033 195.575 20.9593H194.439V33.5353H192.343V18.7513H197.479V20.7033C198.407 20.0313 199.191 19.3433 199.735 18.3193L202.039 18.4953C201.927 18.7353 201.799 18.9753 201.671 19.1993H206.183V21.1193C205.559 21.9833 204.935 22.6553 204.135 23.3433C205.207 23.7593 206.167 23.9833 207.319 24.1593L206.487 26.3513C204.967 25.9193 203.447 25.4553 202.007 24.7833C200.663 25.5193 199.335 25.9513 197.831 26.2713L197.031 24.1433C198.055 23.9833 198.951 23.7753 199.927 23.4073ZM202.071 22.3513C202.679 21.9673 203.015 21.6633 203.479 21.1193H200.487C200.967 21.5993 201.495 21.9993 202.071 22.3513ZM201.895 28.6073H200.311V29.5993H201.895V28.6073Z" fill="#6F6356"/>
<path d="M175.624 29.263L175.496 18.591L178.088 18.543L178.216 28.351C179.4 27.887 180.552 27.375 181.688 26.815L182.104 29.103C180.28 30.079 176.68 31.567 174.696 32.255L174.248 29.679C174.712 29.551 175.176 29.423 175.624 29.263ZM187.208 28.383C188.088 29.247 189.08 30.255 189.816 31.247L188.04 33.487C187.352 32.415 186.6 31.439 185.8 30.463C184.456 31.967 182.968 32.911 181.064 33.535L179.608 31.199C181.704 30.623 183.512 29.567 184.68 27.679C185.64 26.143 185.848 24.447 185.896 22.671L185.992 18.559L188.616 18.623L188.488 23.055C188.424 25.007 188.104 26.639 187.208 28.383ZM181.032 18.943C182.344 20.143 183.56 21.487 184.584 22.959L182.504 24.655C181.224 22.687 180.648 22.159 179.128 20.479L181.032 18.943Z" fill="#6F6356"/>
<path d="M164.919 31.2635H159.079V24.5915C158.695 24.9915 158.311 25.3435 157.895 25.6955L156.487 23.3275C157.991 22.0955 159.511 20.1755 159.991 18.2715L162.871 18.3995C162.727 18.7995 162.599 19.1995 162.439 19.5835H171.591C171.559 22.5595 171.575 25.5355 171.415 28.4955C171.351 29.4715 171.271 30.6875 170.999 31.6155C170.583 33.0395 169.463 33.5355 168.071 33.5355H165.479L164.919 31.2635ZM167.447 31.0715C168.199 31.0395 168.535 30.9595 168.727 30.1755C169.095 28.6715 169.095 23.8235 169.095 22.0475H161.111C160.887 22.3995 160.647 22.7355 160.391 23.0555H167.447V31.0715ZM165.095 25.1675H161.447V26.2235H165.095V25.1675ZM165.095 28.0475H161.447V29.1195H165.095V28.0475Z" fill="#6F6356"/>
<path d="M139.767 20.7833H145.495V18.3193H147.959V20.7833H153.767V29.2793H147.959V33.4873H145.495V29.2793H139.767V20.7833ZM145.495 23.1193H142.215V26.9433H145.495V23.1193ZM151.319 23.1193H147.959V26.9433H151.319V23.1193Z" fill="#6F6356"/>
<path d="M135.16 18.8799V31.9199C135.16 32.8319 134.568 33.4879 133.64 33.4879H129.896L129.496 30.9599H132.184C132.504 30.9599 132.664 30.7839 132.664 30.4799V28.6239H125.624C125.368 30.4319 124.84 32.0799 123.784 33.5839L121.624 31.8399C122.936 29.9839 123.384 27.8399 123.384 25.5839V18.8799H135.16ZM125.816 21.2799V22.6719H132.664V21.2799H125.816ZM125.816 24.8959V26.3839H132.664V24.8959H125.816Z" fill="#6F6356"/>
<path d="M119.193 19.2637V21.5677C116.521 24.4797 115.145 28.1277 114.649 32.1277H111.497C111.977 28.4157 113.257 24.8157 115.801 21.8237H109.625V19.2637H119.193Z" fill="#6F6356"/>
<path d="M255.51 110.618H232.116V125.906H225.648V87.2656H262.02V121.034C262.02 124.226 260.718 125.906 257.442 125.906H249.588L248.454 119.396H254.25C255.258 119.396 255.51 119.018 255.51 118.094V110.618ZM246.942 93.4396V104.57H255.51V93.4396H246.942ZM232.116 93.4396V104.57H240.684V93.4396H232.116Z" fill="#6F6356"/>
<path d="M208.767 122.965C200.913 122.965 196.167 116.876 196.167 105.452C196.167 94.0275 200.913 87.9375 208.767 87.9375C216.621 87.9375 221.367 94.0275 221.367 105.452C221.367 116.876 216.621 122.965 208.767 122.965ZM208.767 116.456C211.749 116.456 213.429 113.18 213.429 105.452C213.429 97.7235 211.749 94.4475 208.767 94.4475C205.785 94.4475 204.105 97.7235 204.105 105.452C204.105 113.18 205.785 116.456 208.767 116.456Z" fill="#6F6356"/>
<path d="M180.631 122.965C172.777 122.965 168.031 116.876 168.031 105.452C168.031 94.0275 172.777 87.9375 180.631 87.9375C188.485 87.9375 193.231 94.0275 193.231 105.452C193.231 116.876 188.485 122.965 180.631 122.965ZM180.631 116.456C183.613 116.456 185.293 113.18 185.293 105.452C185.293 97.7235 183.613 94.4475 180.631 94.4475C177.649 94.4475 175.969 97.7235 175.969 105.452C175.969 113.18 177.649 116.456 180.631 116.456Z" fill="#6F6356"/>
<path d="M152.242 123.176C144.598 123.176 139.894 119.648 139.894 114.062C139.894 110.198 142.33 107.3 146.11 105.662C143.044 103.982 140.608 101.504 140.608 97.0515C140.608 90.9615 145.984 87.7695 152.62 87.7695C160.306 87.7695 164.254 91.7175 164.254 96.6315C164.254 99.8235 162.322 102.806 158.584 104.402C162.07 106.082 165.094 108.602 165.094 113.306C165.094 119.732 159.928 123.176 152.242 123.176ZM148.336 97.2615C148.336 99.6135 150.478 101.042 153.292 102.26C155.686 100.958 156.526 98.9835 156.526 97.4295C156.526 94.9935 154.888 93.7335 152.452 93.7335C149.89 93.7335 148.336 95.1615 148.336 97.2615ZM147.622 113.096C147.622 115.616 149.512 117.128 152.494 117.128C155.728 117.128 157.366 115.28 157.366 113.222C157.366 110.576 154.552 109.232 151.234 107.93C148.672 109.274 147.622 111.206 147.622 113.096Z" fill="#6F6356"/>
<path d="M130.447 129.728L124.483 128.846C126.877 124.94 127.927 120.908 127.927 116.414C127.927 115.112 127.801 114.02 127.759 113.516H135.067C135.109 114.062 135.277 115.238 135.277 116.666C135.277 121.538 133.639 126.074 130.447 129.728Z" fill="#6F6356"/>
<path d="M99.8747 122.084L100.505 115.742C102.311 116.414 103.865 116.666 106.007 116.666C110.963 116.666 113.819 113.768 114.785 108.056C112.979 109.526 110.879 110.324 108.191 110.324C101.723 110.324 97.3967 106.292 97.3967 99.5715C97.3967 92.8935 102.227 87.8955 109.829 87.8955C117.011 87.8955 122.765 92.1375 122.765 103.898C122.765 115.49 116.717 123.008 106.133 123.008C103.655 123.008 101.555 122.63 99.8747 122.084ZM105.293 99.6975C105.293 103.058 107.183 104.906 110.123 104.906C112.055 104.906 113.735 104.192 115.121 102.638C114.995 96.4635 113.189 94.2795 110.039 94.2795C107.057 94.2795 105.293 96.5895 105.293 99.6975Z" fill="#6F6356"/>
<path d="M91.562 95.1615C89.924 94.4895 88.454 94.1955 86.228 94.1955C80.684 94.1955 77.996 97.5135 77.324 103.436C79.298 101.546 81.692 100.538 84.59 100.538C90.848 100.538 94.922 104.738 94.922 111.164C94.922 117.884 90.302 123.008 82.658 123.008C74.468 123.008 69.554 117.38 69.554 106.418C69.554 94.7415 75.518 87.8955 86.186 87.8955C88.706 87.8955 90.764 88.2735 92.444 88.7775L91.562 95.1615ZM82.574 105.956C80.264 105.956 78.458 107.048 77.198 108.686C77.576 114.188 79.34 116.624 82.406 116.624C85.43 116.624 86.984 114.272 86.984 111.038C86.984 107.846 85.43 105.956 82.574 105.956Z" fill="#6F6356"/>
<path d="M270.78 163.904H280.284V161.48H283.98V163.904H293.532V167.36H283.98V170.12H292.308V173.552H285.804C287.868 176.336 290.772 178.064 293.868 179.48L291.78 183.056C289.164 181.664 285.564 178.736 283.98 176.216V184.304H280.284V176.216C278.796 178.64 274.956 181.736 272.46 183.104L270.468 179.36C273.804 177.968 276.18 176.312 278.532 173.552H272.004V170.12H280.284V167.36H270.78V163.904Z" fill="#6F6356"/>
<path d="M267.157 162.32V181.88C267.157 183.248 266.269 184.232 264.877 184.232H259.261L258.661 180.44H262.693C263.173 180.44 263.413 180.176 263.413 179.72V176.936H252.853C252.469 179.648 251.677 182.12 250.093 184.376L246.853 181.76C248.821 178.976 249.493 175.76 249.493 172.376V162.32H267.157ZM253.141 165.92V168.008H263.413V165.92H253.141ZM253.141 171.344V173.576H263.413V171.344H253.141Z" fill="#6F6356"/>
<path d="M231.158 180.896L231.878 176.984C233.39 178.088 235.19 178.784 237.014 178.784C239.174 178.784 240.398 178.064 240.398 176.456C240.398 174.968 239.414 174.008 236.03 174.008H233.942V170.792H235.862C238.502 170.792 239.966 169.904 239.966 168.248C239.966 166.952 239.03 166.28 237.278 166.28C235.742 166.28 234.23 166.88 232.886 168.128L231.302 164.696C233.198 163.208 235.406 162.536 237.806 162.536C241.838 162.536 244.43 164.096 244.43 167.456C244.43 169.712 243.11 171.488 240.638 172.208C243.326 172.76 244.886 174.296 244.886 176.84C244.886 180.44 241.982 182.576 237.422 182.576C234.998 182.576 232.694 181.928 231.158 180.896Z" fill="#6F6356"/>
<path d="M212.03 176.601L208.334 176.169C208.478 171.345 211.07 169.137 213.95 169.137C215.966 169.137 217.598 170.097 219.374 171.369C220.574 172.209 221.294 172.545 221.99 172.545C223.214 172.545 223.982 171.225 224.126 169.161L227.822 169.593C227.678 174.417 225.086 176.625 222.23 176.625C220.19 176.625 218.558 175.665 216.782 174.393C215.582 173.553 214.886 173.217 214.166 173.217C212.942 173.217 212.174 174.561 212.03 176.601Z" fill="#6F6356"/>
<path d="M194.918 180.896H186.158V170.888C185.582 171.488 185.006 172.016 184.382 172.544L182.27 168.992C184.526 167.144 186.806 164.264 187.526 161.408L191.846 161.6C191.63 162.2 191.438 162.8 191.198 163.376H204.926C204.878 167.84 204.902 172.304 204.662 176.744C204.566 178.208 204.446 180.032 204.038 181.424C203.414 183.56 201.734 184.304 199.646 184.304H195.758L194.918 180.896ZM198.71 180.608C199.838 180.56 200.342 180.44 200.63 179.264C201.182 177.008 201.182 169.736 201.182 167.072H189.206C188.87 167.6 188.51 168.104 188.126 168.584H198.71V180.608ZM195.182 171.752H189.71V173.336H195.182V171.752ZM195.182 176.072H189.71V177.68H195.182V176.072Z" fill="#6F6356"/>
<path d="M159.59 165.176H168.182V161.48H171.878V165.176H180.59V177.92H171.878V184.232H168.182V177.92H159.59V165.176ZM168.182 168.68H163.262V174.416H168.182V168.68ZM176.918 168.68H171.878V174.416H176.918V168.68Z" fill="#6F6356"/>
<path d="M155.078 162.32V181.88C155.078 183.248 154.19 184.232 152.798 184.232H147.182L146.582 180.44H150.614C151.094 180.44 151.334 180.176 151.334 179.72V176.936H140.774C140.39 179.648 139.598 182.12 138.014 184.376L134.774 181.76C136.742 178.976 137.414 175.76 137.414 172.376V162.32H155.078ZM141.062 165.92V168.008H151.334V165.92H141.062ZM141.062 171.344V173.576H151.334V171.344H141.062Z" fill="#6F6356"/>
<path d="M119.08 180.896L119.8 176.984C121.312 178.088 123.112 178.784 124.936 178.784C127.096 178.784 128.32 178.064 128.32 176.456C128.32 174.968 127.336 174.008 123.952 174.008H121.864V170.792H123.784C126.424 170.792 127.888 169.904 127.888 168.248C127.888 166.952 126.952 166.28 125.2 166.28C123.664 166.28 122.152 166.88 120.808 168.128L119.224 164.696C121.12 163.208 123.328 162.536 125.728 162.536C129.76 162.536 132.352 164.096 132.352 167.456C132.352 169.712 131.032 171.488 128.56 172.208C131.248 172.76 132.808 174.296 132.808 176.84C132.808 180.44 129.904 182.576 125.344 182.576C122.92 182.576 120.616 181.928 119.08 180.896Z" fill="#6F6356"/>
<path d="M16 148H102V212H16V148Z" fill="#6F6356"/>
<path d="M16 231H318V281H16V231Z" fill="white"/>
<path d="M81.0639 196.448L81.0959 197.36C81.1119 197.664 81.1119 197.968 81.1119 198.272C81.1119 201.216 80.5519 203.44 78.0239 205.232L75.7519 203.584C77.9439 202.24 78.5519 200.56 78.5519 198.064C78.5519 197.856 78.5359 197.648 78.5359 197.424L78.5039 196.672C77.5279 196.72 76.5679 196.752 75.5919 196.752C74.9679 196.752 74.3439 196.736 73.7039 196.704L73.6559 194.192C74.4399 194.24 75.2239 194.256 76.0079 194.256C76.8079 194.256 77.6079 194.224 78.4079 194.208L78.2959 191.12H80.9039L80.9999 193.984C81.7519 193.888 82.5039 193.76 83.2399 193.6L83.3679 196.096C82.5999 196.24 81.8479 196.352 81.0639 196.448ZM70.5359 191.232L73.1599 191.536C72.6159 193.808 72.2639 195.984 72.2639 198.32C72.2639 200.304 72.5199 202.16 72.9999 204.064L70.5519 204.448C69.9599 202.592 69.7839 200.352 69.7839 198.416C69.7839 196 70.0719 193.6 70.5359 191.232Z" fill="white"/>
<path d="M61.3997 195.856V196.896H65.6237V205.296H55.0317V196.896H59.1917V195.856H54.5037V197.712C54.5037 200.24 54.0557 203.312 52.7757 205.504L50.8237 203.584C51.7997 201.824 52.1357 199.616 52.1357 197.616V190.784H65.6077V195.856H61.3997ZM63.2397 192.88H54.5037V193.952H63.2397V192.88ZM59.1917 198.848H57.3037V200.128H59.1917V198.848ZM63.3677 198.848H61.3997V200.128H63.3677V198.848ZM59.1917 201.888H57.3037V203.248H59.1917V201.888ZM63.3677 201.888H61.3997V203.248H63.3677V201.888Z" fill="white"/>
<path d="M37.7359 193.296V190.816H40.2319V193.104C41.1599 193.024 42.1199 192.832 43.0159 192.624L43.0639 195.12C42.1199 195.264 41.1759 195.392 40.2319 195.504V196.48C41.1439 196.224 42.0879 196.064 43.0319 196.064C44.7119 196.064 46.3279 196.624 47.1919 198.16C47.5759 198.848 47.7519 199.648 47.7519 200.448C47.7519 201.776 47.1919 203.184 46.0079 203.904C45.2719 204.352 44.3599 204.544 43.4959 204.544C42.9519 204.544 42.5199 204.48 41.9919 204.352L41.9119 201.744C42.3759 201.936 42.7919 202.032 43.2879 202.032C44.3759 202.032 45.1759 201.52 45.1759 200.352C45.1759 198.88 43.9439 198.384 42.6799 198.384C41.8159 198.384 41.0479 198.56 40.2319 198.832V201.648C40.2319 202.208 40.2159 202.816 40.0399 203.312C39.7199 204.304 38.8719 204.816 37.8639 204.816C36.9839 204.816 36.0719 204.48 35.3679 203.968C34.5519 203.392 34.0879 202.576 34.0879 201.568C34.0879 199.584 36.0879 198.112 37.7359 197.376V195.728C36.9039 195.76 36.0719 195.808 35.2239 195.808C35.0479 195.808 34.8719 195.808 34.6959 195.808L34.6639 193.28C35.1919 193.312 35.7359 193.328 36.2639 193.328C36.7599 193.328 37.2399 193.312 37.7359 193.296ZM37.7999 199.904C37.2719 200.224 36.2959 200.896 36.2959 201.6C36.2959 202.096 36.9519 202.496 37.4159 202.496C37.8159 202.496 37.7999 202.064 37.7999 201.616V199.904ZM43.4959 193.456L45.0159 191.76C46.3919 192.608 47.5439 193.616 48.5999 194.816L46.8239 196.528C45.8319 195.232 44.8559 194.336 43.4959 193.456Z" fill="white"/>
<path d="M248.021 266.191C249.225 266.191 250.205 267.171 250.205 268.375C250.205 269.593 249.225 270.573 248.021 270.573C246.803 270.573 245.823 269.593 245.823 268.375C245.823 267.171 246.803 266.191 248.021 266.191ZM248.021 267.087C247.307 267.087 246.733 267.661 246.733 268.375C246.733 269.089 247.307 269.677 248.021 269.677C248.735 269.677 249.309 269.089 249.309 268.375C249.309 267.661 248.735 267.087 248.021 267.087Z" fill="#6F6356"/>
<path d="M239.965 260.115L240.987 260.101C241.869 260.073 242.751 260.045 243.633 259.975L243.675 261.753C243.241 261.725 242.793 261.725 242.345 261.725C241.911 261.725 241.463 261.725 241.029 261.739L239.979 261.767L240.021 265.855C240.049 268.627 238.705 270.209 236.185 271.161L234.967 269.649C236.031 269.299 237.207 268.697 237.879 267.759C237.459 267.969 237.095 268.081 236.619 268.081C235.009 268.081 233.973 266.765 233.973 265.225C233.973 263.559 235.163 262.369 236.815 262.369C237.347 262.369 237.767 262.481 238.243 262.719L238.215 261.809L234.295 261.907C233.413 261.935 232.531 261.963 231.649 262.033L231.621 260.227C232.013 260.241 232.419 260.255 232.811 260.255C233.301 260.255 233.777 260.255 234.267 260.241L238.173 260.157L238.145 258.491H239.937L239.965 260.115ZM236.941 266.527C237.711 266.527 238.145 265.911 238.145 265.183C238.145 264.469 237.669 263.923 236.941 263.923C236.227 263.923 235.737 264.525 235.737 265.225C235.737 265.939 236.185 266.527 236.941 266.527Z" fill="#6F6356"/>
<path d="M221.485 264.819C220.659 264.833 219.833 264.833 219.007 264.833C218.433 264.833 217.873 264.833 217.313 264.833L217.299 263.055C218.097 263.069 218.895 263.083 219.679 263.083C220.281 263.083 220.883 263.083 221.471 263.083V262.075C220.757 262.075 220.043 262.089 219.329 262.089C218.489 262.089 217.663 262.075 216.837 262.061V260.297C218.377 260.325 219.917 260.339 221.457 260.339L221.443 258.617H223.291V260.325C224.747 260.297 226.203 260.269 227.645 260.199V261.949C226.203 261.991 224.761 262.033 223.305 262.047L223.319 263.041C224.579 263.013 225.839 262.971 227.099 262.915L227.113 264.665C225.853 264.721 224.593 264.763 223.333 264.791L223.347 266.331C224.859 266.723 226.119 267.339 227.477 268.095L226.595 269.887C225.517 269.159 224.565 268.613 223.333 268.151C223.319 268.739 223.305 269.229 222.941 269.719C222.353 270.489 221.205 270.671 220.295 270.671C218.867 270.671 217.145 270.055 217.145 268.361C217.145 267.451 217.719 266.709 218.545 266.359C219.231 266.065 219.945 265.995 220.687 265.995C220.953 265.995 221.233 266.009 221.499 266.023L221.485 264.819ZM221.499 267.675C221.177 267.619 220.855 267.605 220.519 267.605C220.015 267.605 218.881 267.675 218.881 268.389C218.881 268.977 219.707 269.117 220.155 269.117C221.499 269.117 221.499 268.543 221.499 267.675Z" fill="#6F6356"/>
<path d="M202.809 258.842L204.629 259.052C204.279 260.718 204.083 262.286 204.083 263.98C204.083 264.148 204.083 264.316 204.097 264.498C204.391 263.868 204.685 263.238 204.993 262.622L206.099 263.63C205.469 264.834 204.783 266.248 204.461 267.564L202.949 267.732C202.501 266.276 202.333 264.946 202.333 263.42C202.333 261.88 202.501 260.354 202.809 258.842ZM209.193 258.828H211.083C211.209 260.368 211.335 261.922 211.335 263.476C211.335 267.144 210.341 269.286 206.953 270.938L205.427 269.636C206.729 269.02 207.975 268.25 208.731 266.976C209.361 265.87 209.431 264.554 209.431 263.308C209.431 261.81 209.319 260.312 209.193 258.828Z" fill="#6F6356"/>
<path d="M188.319 260.619C188.557 259.891 188.767 259.177 188.963 258.449L190.881 258.813C190.699 259.373 190.503 259.919 190.321 260.465C190.937 260.395 191.553 260.325 192.155 260.199L192.057 262.019C191.273 262.145 190.475 262.229 189.677 262.299C188.907 264.427 188.053 266.527 187.073 268.571L185.281 267.801C186.205 266.065 187.031 264.259 187.703 262.411C187.339 262.425 186.961 262.439 186.597 262.439C186.331 262.439 186.079 262.439 185.813 262.425L185.743 260.577C186.275 260.605 186.793 260.633 187.325 260.633C187.661 260.633 187.997 260.619 188.319 260.619ZM194.605 266.415C195.655 266.807 196.579 267.353 197.503 267.983L196.621 269.607C195.991 269.159 195.347 268.725 194.661 268.389C194.591 270.111 193.443 270.727 191.847 270.727C190.363 270.727 188.655 270.027 188.655 268.291C188.655 266.667 190.181 265.855 191.637 265.855C192.015 265.855 192.393 265.897 192.785 265.967C192.729 265.015 192.687 264.077 192.673 263.125L194.465 263.167C194.479 264.245 194.549 265.337 194.605 266.415ZM192.869 267.633C192.463 267.521 191.917 267.451 191.497 267.451C190.993 267.451 190.293 267.647 190.293 268.263C190.293 268.949 191.161 269.131 191.693 269.131C192.365 269.131 192.897 268.949 192.897 268.179C192.897 267.997 192.883 267.815 192.869 267.633ZM192.757 261.585L193.541 260.059C194.913 260.577 196.187 261.151 197.447 261.865L196.663 263.517C195.431 262.719 194.157 262.019 192.757 261.585Z" fill="#6F6356"/>
<path d="M173.751 263.42C173.625 262.972 173.513 262.496 173.429 262.048L172.813 258.87L174.717 258.506L175.291 261.642C175.347 261.964 175.445 262.384 175.543 262.706C177.083 262.16 178.679 261.768 180.261 261.348L180.821 263.196C178.763 263.644 175.865 264.33 174.003 265.268C173.303 265.618 172.379 266.262 172.379 267.13C172.379 267.746 172.771 268.082 173.303 268.278C174.059 268.558 175.389 268.628 176.201 268.628C177.769 268.628 179.323 268.432 180.849 268.194L181.003 270.084C179.477 270.308 177.881 270.42 176.341 270.42C174.185 270.42 170.503 270.196 170.503 267.256C170.503 265.268 172.127 264.162 173.751 263.42Z" fill="#6F6356"/>
<path d="M154.949 263.671L153.731 263.881L153.605 262.145L154.949 261.921V258.113H156.657V261.613L159.359 261.137L159.401 262.873L156.657 263.363V266.905C156.657 267.143 156.685 267.199 156.937 267.199H157.483C157.693 267.199 157.749 266.975 157.791 266.667C157.847 266.261 157.903 265.575 157.931 265.155L159.401 265.491C159.261 266.737 159.107 267.703 158.799 268.235C158.547 268.669 158.155 268.865 157.651 268.865H155.943C155.313 268.865 154.949 268.319 154.949 267.731V263.671ZM158.911 258.631H166.541C166.541 260.815 166.541 262.915 166.485 265.057C166.457 266.205 166.275 269.187 165.869 270.167C165.659 270.671 165.407 270.979 164.889 271.161C164.651 271.245 164.371 271.301 164.133 271.301H161.837L161.487 269.523H163.419C163.895 269.523 164.091 269.495 164.259 268.977C164.371 268.599 164.525 267.479 164.567 267.045C164.735 265.351 164.749 263.713 164.749 261.907C164.749 261.403 164.749 260.885 164.749 260.353H162.971C162.971 261.725 162.901 263.041 162.705 264.399C162.481 266.065 161.963 267.703 160.871 269.019C160.059 269.985 159.205 270.713 158.141 271.385L156.895 269.901C158.631 268.991 160.087 267.633 160.661 265.715C161.151 264.049 161.193 262.075 161.193 260.353H158.911V258.631Z" fill="#6F6356"/>
<path d="M139.955 263.013C139.423 262.411 138.863 261.809 138.219 261.319L138.975 259.905C139.101 260.003 139.227 260.101 139.353 260.199C139.773 259.555 140.109 258.799 140.361 258.071L141.859 258.477C141.467 259.457 140.963 260.297 140.361 261.165C140.515 261.333 140.683 261.501 140.837 261.669C141.299 260.969 141.733 260.255 142.139 259.513L143.483 260.017V259.023H146.591V258.085H148.285V259.023H151.561V260.521H150.413C150.329 260.899 150.203 261.459 150.091 261.823H151.407V264.819H150.763V269.173C150.763 269.873 150.581 270.335 149.797 270.335H148.635L148.355 268.697H149.027C149.237 268.697 149.265 268.627 149.265 268.459V265.981H148.243V271.273H146.731V265.981H145.737V270.307H144.267V264.819H143.777C143.819 264.987 143.861 265.155 143.903 265.309L142.671 265.785C142.643 265.589 142.629 265.393 142.587 265.211L141.831 265.295V271.273H140.375V265.477C139.717 265.519 139.059 265.561 138.401 265.603L138.359 264.063H139.185C139.465 263.727 139.717 263.363 139.955 263.013ZM143.483 260.227C142.783 261.417 141.649 262.943 140.767 264.035C141.257 263.993 141.761 263.979 142.265 263.937C142.167 263.629 142.055 263.321 141.943 263.027L143.021 262.607C143.273 263.181 143.399 263.573 143.581 264.161V261.823H144.953C144.827 261.389 144.715 260.955 144.575 260.521H143.483V260.227ZM148.761 260.521H146.185C146.311 260.955 146.451 261.389 146.549 261.823H148.439C148.551 261.501 148.705 260.857 148.761 260.521ZM145.107 264.483H146.731V263.293H145.107V264.483ZM148.243 263.293V264.483H149.895V263.293H148.243ZM139.983 266.373C139.955 267.787 139.857 268.977 139.493 270.363L138.191 269.775C138.513 268.599 138.667 267.381 138.709 266.149L139.983 266.373ZM143.357 266.191C143.595 267.227 143.721 268.277 143.749 269.327L142.475 269.537C142.475 269.411 142.489 269.285 142.489 269.145C142.489 268.235 142.363 267.283 142.223 266.373L143.357 266.191Z" fill="#6F6356"/>
<path d="M124.793 259.052L126.711 259.262C126.221 261.376 125.899 263.532 125.899 265.716C125.899 267.256 126.067 268.712 126.403 270.21L124.555 270.434C124.191 268.908 124.079 267.326 124.079 265.758C124.079 263.448 124.359 261.306 124.793 259.052ZM134.705 261.936C133.893 261.866 133.081 261.824 132.255 261.824C130.939 261.824 129.637 261.936 128.335 262.104L128.363 260.242C129.693 260.088 131.009 260.004 132.339 260.004C133.151 260.004 133.949 260.032 134.747 260.102L134.705 261.936ZM129.973 265.674C129.721 266.038 129.483 266.486 129.483 266.948C129.483 267.354 129.721 267.606 130.085 267.732C130.603 267.914 131.457 267.942 132.017 267.942C133.165 267.942 134.201 267.816 135.321 267.606L135.279 269.524C134.229 269.678 133.179 269.776 132.129 269.776C130.379 269.776 127.789 269.622 127.789 267.298C127.789 266.57 128.027 265.968 128.405 265.366L129.973 265.674Z" fill="#6F6356"/>
<path d="M107.587 259.64H110.863C110.667 259.22 110.429 258.758 110.191 258.352L112.081 258.016C112.319 258.464 112.641 259.164 112.823 259.64H115.637C115.889 259.15 116.071 258.618 116.211 258.072L118.199 258.268C118.031 258.73 117.821 259.192 117.611 259.64H120.747V261.222H107.587V259.64ZM118.213 261.964H119.963V270.07C119.963 270.854 119.543 271.274 118.759 271.274H116.169L115.847 269.566H117.961C118.101 269.566 118.213 269.538 118.213 269.37V261.964ZM108.357 262.244H113.929V270.028C113.929 270.35 113.929 270.574 113.747 270.854C113.509 271.204 113.173 271.274 112.781 271.274H110.947L110.667 269.608H111.969C112.277 269.608 112.277 269.482 112.277 269.314V268.194H110.051V271.274H108.357V262.244ZM115.021 262.37H116.729V268.53H115.021V262.37ZM112.277 263.7H110.051V264.638H112.277V263.7ZM112.277 265.912H110.051V266.864H112.277V265.912Z" fill="#6F6356"/>
<path d="M93.2515 258.674H104.283V270.882H93.2515V258.674ZM95.0855 263.84H102.421V260.396H95.0855V263.84ZM95.0855 265.534V269.146H102.421V265.534H95.0855Z" fill="#6F6356"/>
<path d="M77.6834 258.086H79.2934V259.192H81.5754V258.086H83.1854V259.192H84.0814V260.732H83.1854V266.094H84.0534V267.606H76.7314V266.094H77.6834V260.732H76.9274V259.192H77.6834V258.086ZM89.5274 258.45V270.056C89.5274 270.966 89.1354 271.246 88.2674 271.246H86.4334L86.1534 269.58H87.4414C87.7774 269.58 87.8754 269.44 87.8754 269.118V267.074H85.7894C85.6494 268.572 85.2994 270.056 84.3614 271.26L82.9474 270.084C83.4234 269.426 83.7734 268.754 83.9834 267.97C84.3474 266.472 84.3894 264.932 84.3894 263.406V258.45H89.5274ZM87.8754 260.088H85.9574V262.034H87.8754V260.088ZM81.5754 260.732H79.2934V261.586H81.5754V260.732ZM81.5754 262.916H79.2934V263.826H81.5754V262.916ZM87.8754 263.56H85.9574L85.9294 265.506H87.8754V263.56ZM81.5754 265.086H79.2934V266.094H81.5754V265.086ZM79.8954 268.39C79.4894 269.37 78.5654 270.588 77.7394 271.274L76.5774 270.07C77.2914 269.496 78.0474 268.488 78.4954 267.69L79.8954 268.39ZM81.7574 267.704C82.3174 268.208 82.8354 268.824 83.2274 269.482L82.0514 270.504C81.6594 269.804 81.1554 269.118 80.6094 268.53L81.7574 267.704Z" fill="#6F6356"/>
<path d="M262.658 250.542C263.89 251.368 264.94 252.25 265.906 253.384L264.618 254.77C263.666 253.608 262.7 252.768 261.482 251.9L262.658 250.542Z" fill="#6F6356"/>
<path d="M255.882 246.454V247.588H248.616V246.426C247.832 246.888 247.202 247.21 246.376 247.574L245.452 245.81C247.594 245.11 249.848 243.78 251.318 242.058H253.11C254.748 243.892 256.708 244.942 258.976 245.81L258.01 247.574C257.24 247.224 256.596 246.888 255.882 246.454ZM249.288 245.992H255.154C254.02 245.236 253.11 244.508 252.186 243.486C251.304 244.522 250.408 245.236 249.288 245.992ZM246.88 248.778H257.492V255.008H246.88V248.778ZM255.7 250.374H248.658V253.426H255.7V250.374Z" fill="#6F6356"/>
<path d="M236.058 250.948C235.456 251.466 234.924 251.76 234.21 252.082L233.972 251.704C232.712 252.236 231.494 252.726 230.178 253.118L229.996 251.298C230.472 251.186 230.948 251.074 231.424 250.92V246.692H230.164V245.026H231.424V242.1H233.09V245.026H234.014V246.692H233.09V250.374C233.412 250.262 233.72 250.136 234.014 249.996L234.056 250.654C234.98 250.248 235.554 249.758 236.17 248.974H234V247.658H243.422V248.974H237.752C237.598 249.212 237.486 249.408 237.318 249.646H243.072C243.058 250.64 242.974 253.636 242.624 254.434C242.358 255.05 241.938 255.246 241.28 255.246H239.264L239.012 253.72H240.678C241.112 253.72 241.168 253.51 241.238 253.16C241.336 252.684 241.392 251.578 241.42 250.948H240.832C239.978 253.048 238.466 254.504 236.408 255.414L235.4 254.252C237.024 253.58 238.55 252.53 239.404 250.948H238.578C237.276 252.74 235.918 253.622 233.818 254.252L233.174 253.034C234.7 252.628 235.848 252.054 236.982 250.948H236.058ZM234.63 242.506H242.568V247.056H234.63V242.506ZM240.93 243.64H236.254V244.382H240.93V243.64ZM240.93 245.264H236.254V246.02H240.93V245.264Z" fill="#6F6356"/>
<path d="M219.958 246.356C219.356 248.764 218.236 252.166 217.214 254.42L215.45 253.706C216.626 251.34 217.396 249.03 218.082 246.496C217.592 246.51 217.088 246.524 216.584 246.524C216.332 246.524 216.08 246.524 215.828 246.524L215.8 244.704C216.276 244.718 216.766 244.732 217.256 244.732C217.676 244.732 218.096 244.732 218.516 244.718C218.684 243.948 218.838 243.192 218.978 242.436L220.84 242.688C220.7 243.276 220.532 243.948 220.392 244.578C221.4 244.452 222.086 244.34 223.094 244.116L223.164 245.88C222.1 246.076 221.036 246.244 219.958 246.356ZM222.086 250.906C221.834 251.172 221.386 251.648 221.386 252.04C221.386 252.404 221.778 252.558 222.086 252.614C222.688 252.726 223.304 252.754 223.92 252.754C224.998 252.754 226.076 252.628 227.14 252.488V254.308C226.146 254.42 225.152 254.476 224.144 254.476C223.108 254.476 222.184 254.448 221.302 254.182C220.252 253.86 219.608 253.23 219.608 252.18C219.608 251.34 220.112 250.668 220.672 250.108L222.086 250.906ZM221.47 246.636C222.436 246.51 223.402 246.44 224.382 246.44C225.25 246.44 226.104 246.496 226.972 246.608L226.804 248.344C225.936 248.246 225.082 248.176 224.214 248.176C223.234 248.176 222.24 248.26 221.26 248.4L221.47 246.636Z" fill="#6F6356"/>
<path d="M201.982 242.674L203.956 242.8L203.676 249.94C203.676 250.052 203.676 250.15 203.676 250.262C203.676 251.004 203.704 251.774 204.32 252.292C204.768 252.656 205.356 252.754 205.916 252.754C206.98 252.754 207.876 252.348 208.576 251.55C209.374 250.64 209.92 249.52 210.298 248.372L212.02 249.352C210.914 252.222 209.304 254.63 205.916 254.63C204.586 254.63 203.13 254.224 202.346 253.076C201.8 252.278 201.702 251.396 201.702 250.458C201.702 250.318 201.702 250.22 201.716 250.024L201.982 242.674Z" fill="#6F6356"/>
<path d="M191.398 242.1H193.12V242.716H196.62V244.004H193.12V244.69H197.152V245.964H195.598C195.458 246.356 195.374 246.594 195.22 246.972H196.816V248.26H193.12V248.946H196.522V250.094H193.12V250.822H197.04V252.124H193.12V253.09H191.384V252.124H187.422V250.822H191.398V250.094H187.968V248.946H191.398V248.26H187.632V246.972H189.312C189.256 246.678 189.116 246.23 189.018 245.964H187.296V244.69H191.398V244.004H187.884V242.716H191.398V242.1ZM185.252 242.226C186.05 242.856 186.82 243.696 187.324 244.578L185.952 245.74C185.42 244.802 184.86 244.046 184.062 243.332L185.252 242.226ZM193.862 245.964H190.712C190.824 246.286 190.908 246.636 190.992 246.972H193.54C193.666 246.65 193.778 246.3 193.862 245.964ZM196.998 254.952H190.138C188.64 254.952 187.436 254.658 186.484 253.426C185.882 254.196 185.294 254.77 184.496 255.33L183.838 253.356C184.286 253.174 184.874 252.782 185.196 252.446V249.002H184.076V247.378H186.848V251.34C186.848 251.984 187.254 252.432 187.758 252.768C188.486 253.244 189.158 253.314 189.998 253.314H197.376L196.998 254.952Z" fill="#6F6356"/>
<path d="M170.426 243.052L172.344 243.262C171.854 245.376 171.532 247.532 171.532 249.716C171.532 251.256 171.7 252.712 172.036 254.21L170.188 254.434C169.824 252.908 169.712 251.326 169.712 249.758C169.712 247.448 169.992 245.306 170.426 243.052ZM180.338 245.936C179.526 245.866 178.714 245.824 177.888 245.824C176.572 245.824 175.27 245.936 173.968 246.104L173.996 244.242C175.326 244.088 176.642 244.004 177.972 244.004C178.784 244.004 179.582 244.032 180.38 244.102L180.338 245.936ZM175.606 249.674C175.354 250.038 175.116 250.486 175.116 250.948C175.116 251.354 175.354 251.606 175.718 251.732C176.236 251.914 177.09 251.942 177.65 251.942C178.798 251.942 179.834 251.816 180.954 251.606L180.912 253.524C179.862 253.678 178.812 253.776 177.762 253.776C176.012 253.776 173.422 253.622 173.422 251.298C173.422 250.57 173.66 249.968 174.038 249.366L175.606 249.674Z" fill="#6F6356"/>
<path d="M162.922 244.045H166.324V245.781H165.806C165.708 247.769 165.442 249.883 164.434 251.619C165.05 252.459 165.722 253.047 166.604 253.607L165.596 255.245C164.658 254.615 164.014 254.013 163.314 253.117C162.516 253.985 161.69 254.601 160.682 255.189L159.702 253.803L159.072 254.867C158.554 254.531 158.036 254.251 157.476 253.985C156.398 254.699 155.194 255.091 153.948 255.371L153.276 253.915C154.172 253.789 154.984 253.607 155.838 253.243C155.124 252.949 154.48 252.725 153.738 252.557C154.13 251.969 154.382 251.521 154.662 250.877H153.276V249.463H155.222C155.334 249.127 155.432 248.791 155.53 248.455L156.118 248.553V246.635C155.46 247.461 154.802 248.035 153.92 248.609L152.982 247.363C153.864 246.985 154.676 246.327 155.334 245.655H153.276V244.311H154.186C154.004 243.611 153.864 243.219 153.542 242.589L154.858 242.113C155.152 242.701 155.39 243.331 155.558 243.961L154.55 244.311H156.118V242.071H157.686V244.311H159.268L157.994 243.933C158.33 243.331 158.61 242.701 158.834 242.043L160.276 242.407C159.996 243.135 159.772 243.625 159.422 244.311H160.108V245.655H158.204C158.694 246.103 159.198 246.481 159.786 246.789L158.876 247.937C158.428 247.615 158.036 247.237 157.686 246.803V248.637H156.664L157.14 248.721C157.07 249.001 157.014 249.183 156.93 249.463H160.346V250.877H159.632C159.408 251.605 159.142 252.207 158.708 252.823C159.114 252.991 159.534 253.187 159.94 253.397L159.898 253.467C160.906 253.061 161.69 252.459 162.404 251.647C161.858 250.541 161.522 249.225 161.326 248.007C161.116 248.343 160.92 248.609 160.668 248.931L159.422 247.629C160.64 246.019 161.312 243.975 161.564 241.987L163.258 242.211C163.174 242.827 163.062 243.443 162.922 244.045ZM163.44 249.939C163.958 248.679 164.14 247.139 164.168 245.781H162.46C162.6 247.181 162.88 248.637 163.44 249.939ZM156.37 250.877C156.216 251.213 156.062 251.535 155.894 251.857C156.356 251.983 156.818 252.109 157.266 252.263C157.644 251.829 157.868 251.423 158.064 250.877H156.37Z" fill="#6F6356"/>
<path d="M143.518 251.34V247.56C142.412 249.828 140.69 251.802 138.632 253.272L137.624 251.55C139.906 250.038 141.544 248.4 142.776 245.95H137.82V244.228H143.518V242.058H145.254V244.228H150.98V245.95H145.968C146.948 248.036 149.146 250.36 151.162 251.48L150.168 253.272C149.342 252.684 148.656 252.096 147.942 251.382V252.964H145.226V255.302H143.518V252.964H140.872V251.34H143.518ZM145.226 251.34H147.9C146.752 250.122 145.996 249.058 145.226 247.56V251.34Z" fill="#6F6356"/>
<path d="M123.918 248.427C123.54 248.847 123.232 249.155 122.798 249.533L122.154 247.615C123.848 246.047 124.604 244.297 125.122 242.071L126.83 242.281C126.564 243.471 126.228 244.521 125.71 245.627V255.315H123.918V248.427ZM129.84 243.905H135.594V245.599H131.156V247.293H135.272V248.959H131.156V250.681H135.272V252.361H131.156V255.315H129.35V245.599H129.084C128.454 246.761 127.824 247.671 126.886 248.595L125.976 246.873C127.306 245.585 128.132 243.849 128.538 242.071L130.33 242.239C130.19 242.827 130.036 243.345 129.84 243.905Z" fill="#6F6356"/>
<path d="M110.464 253.678V252.796C109.428 253.174 108.504 253.412 107.398 253.552L106.894 252.082C108.392 251.928 109.666 251.732 111.024 251.046H107.118V249.618H112.914V249.072H112.424L112.144 247.952H112.984C113.096 247.952 113.166 247.91 113.166 247.798V247.28H111.668V249.142H110.184V247.28H108.896V249.002H107.496V246.216H110.184V245.712H106.95V244.606H108.112L107.118 244.06C107.636 243.43 107.986 242.8 108.252 242.016L109.666 242.282C109.582 242.478 109.512 242.674 109.442 242.856H110.184V242.086H111.668V242.856H114.412V244.018H111.668V244.606H115.056V245.712H111.668V246.216H114.496V247.98C114.496 248.274 114.44 248.512 114.258 248.75H114.748V249.618H120.082V251.046H118.794L119.746 251.704C119.13 252.208 118.626 252.586 117.94 253.006C118.766 253.328 119.466 253.524 120.334 253.706L119.522 255.274C118.164 254.966 117.072 254.49 115.91 253.706C114.944 253.048 114.034 252.18 113.502 251.102C112.998 251.536 112.592 251.802 112.004 252.124V253.608C112.942 253.538 113.88 253.482 114.818 253.37L114.804 254.7C112.69 254.966 110.548 255.134 108.406 255.204L108.266 253.776C109.008 253.762 109.736 253.72 110.464 253.678ZM118.052 242.086H119.718V247.812C119.718 248.624 119.242 249.016 118.724 249.016H116.54L116.33 247.532H117.674C118.024 247.532 118.052 247.392 118.052 247.14V242.086ZM115.392 242.632H116.946V246.804H115.392V242.632ZM108.42 244.606H110.184V244.018H108.868C108.728 244.228 108.588 244.424 108.42 244.606ZM116.456 252.25C116.946 251.914 117.506 251.438 117.954 251.046H115.196C115.546 251.55 115.952 251.9 116.456 252.25Z" fill="#6F6356"/>
<path d="M101.378 253.608H102.33C102.61 253.608 102.68 253.468 102.68 253.202V247.84H98.6479V242.59H104.332V253.874C104.332 254.56 104.08 255.274 103.268 255.274H100.874L100.65 253.916H94.9799V248.596H101.378V253.608ZM92.0679 242.59H97.5839V247.84H93.7199V255.274H92.0679V242.59ZM102.68 243.878H100.258V244.676H102.68V243.878ZM95.9599 243.878H93.7199V244.676H95.9599V243.878ZM102.68 245.74H100.258V246.552H102.68V245.74ZM95.9599 245.74H93.7199V246.552H95.9599V245.74ZM99.7959 249.87H96.5479V250.696H99.7959V249.87ZM99.7959 251.732H96.5479V252.6H99.7959V251.732Z" fill="#6F6356"/>
<path d="M80.5039 243.332H88.8759V245.012H84.5079V246.664H88.4279V248.302H84.5079V250.542H89.3939V252.222H84.5079V255.274H82.7439V252.222H76.2059V250.542H78.1519V246.916C77.8159 247.266 77.5639 247.504 77.1859 247.812L76.0239 246.3C77.4659 245.194 78.5159 243.724 79.0199 241.974L80.8819 242.324C80.7559 242.674 80.6439 242.996 80.5039 243.332ZM79.6219 245.012C79.2299 245.628 78.8799 246.118 78.3899 246.664H82.7439V245.012H79.6219ZM82.7439 248.302H79.9159V250.542H82.7439V248.302Z" fill="#6F6356"/>
<path d="M68.66 244.592C68.66 245.292 68.1 245.852 67.4 245.852C66.7 245.852 66.14 245.292 66.14 244.592C66.14 243.892 66.7 243.332 67.4 243.332C68.1 243.332 68.66 243.892 68.66 244.592ZM72.566 252.936L71.656 253.846L67.4 249.548L63.144 253.846L62.234 252.936L66.532 248.68L62.234 244.424L63.144 243.514L67.4 247.812L71.656 243.514L72.566 244.424L68.268 248.68L72.566 252.936ZM64.572 248.68C64.572 249.38 64.012 249.94 63.312 249.94C62.612 249.94 62.052 249.38 62.052 248.68C62.052 247.98 62.612 247.42 63.312 247.42C64.012 247.42 64.572 247.98 64.572 248.68ZM72.748 248.68C72.748 249.38 72.188 249.94 71.488 249.94C70.788 249.94 70.228 249.38 70.228 248.68C70.228 247.98 70.788 247.42 71.488 247.42C72.188 247.42 72.748 247.98 72.748 248.68ZM68.66 252.768C68.66 253.468 68.1 254.028 67.4 254.028C66.7 254.028 66.14 253.468 66.14 252.768C66.14 252.068 66.7 251.508 67.4 251.508C68.1 251.508 68.66 252.068 68.66 252.768Z" fill="#6F6356"/>
<path d="M225.816 196.36L225.348 197.44C225.072 197.02 224.904 196.708 224.688 196.252V200.128H222.972V196.444C222.54 197.32 222.132 197.908 221.508 198.652L220.896 196.516C221.736 195.844 222.3 194.992 222.78 194.044H221.136V192.4H222.972V188.752H224.688V192.4H226.368V193.384L227.388 192.196C228.156 192.664 228.804 193.192 229.416 193.84L228.18 195.172C227.676 194.548 227.04 193.936 226.368 193.528V194.044H224.808C225.144 194.68 225.588 195.244 226.092 195.748L225.996 195.976L229.68 195.268V190.972L228.612 192.172C228 191.428 227.496 190.948 226.716 190.396L227.808 189.208C228.492 189.628 229.128 190.12 229.68 190.708V188.728H231.528V194.896L232.392 194.728L232.548 196.516L231.528 196.708V200.092H229.68V197.068L226.02 197.776L225.816 196.36ZM226.812 189.484C226.656 190.324 226.332 191.272 225.96 192.04L224.76 191.5C225.048 190.828 225.324 189.868 225.42 189.148L226.812 189.484ZM222.18 189.184C222.456 189.892 222.684 190.756 222.792 191.512L221.52 192.028C221.46 191.116 221.292 190.384 220.956 189.544L222.18 189.184Z" fill="#6F6356"/>
<path d="M209.688 191.464C209.364 191.764 209.136 191.944 208.752 192.148L207.732 190.744C208.572 190.252 209.46 189.544 209.868 188.632L211.656 188.848C211.548 189.124 211.464 189.28 211.32 189.532H219V191.152H218.028V192.328H219.3V193.972H218.028V195.16H219V196.78H208.2V195.16H209.544V193.972H207.924V192.328H209.688V191.464ZM211.944 191.152H211.08V192.328H211.944V191.152ZM214.188 191.152H213.312V192.328H214.188V191.152ZM216.432 191.152H215.556V192.328H216.432V191.152ZM211.944 193.972H211.08V195.16H211.944V193.972ZM214.188 193.972H213.312V195.16H214.188V193.972ZM216.432 193.972H215.556V195.16H216.432V193.972ZM210.744 197.38C210.396 198.472 210.036 199.372 209.304 200.26L207.78 199.216C208.44 198.52 208.848 197.704 209.172 196.804L210.744 197.38ZM217.8 196.804C218.496 197.728 218.892 198.388 219.396 199.432L217.716 200.236C217.332 199.264 216.804 198.34 216.24 197.464L217.8 196.804ZM215.28 197.116C215.604 197.884 216.048 199.156 216.168 199.96L214.38 200.104C214.26 199.096 214.02 198.184 213.684 197.236L215.28 197.116ZM212.832 197.2C212.976 198.004 213.06 199.216 213.06 200.032L211.248 200.08C211.344 199.504 211.344 198.76 211.344 198.172C211.344 197.848 211.344 197.56 211.32 197.248L212.832 197.2Z" fill="#6F6356"/>
<path d="M199.416 196.36L198.948 197.44C198.672 197.02 198.504 196.708 198.288 196.252V200.128H196.572V196.444C196.14 197.32 195.732 197.908 195.108 198.652L194.496 196.516C195.336 195.844 195.9 194.992 196.38 194.044H194.736V192.4H196.572V188.752H198.288V192.4H199.968V193.384L200.988 192.196C201.756 192.664 202.404 193.192 203.016 193.84L201.78 195.172C201.276 194.548 200.64 193.936 199.968 193.528V194.044H198.408C198.744 194.68 199.188 195.244 199.692 195.748L199.596 195.976L203.28 195.268V190.972L202.212 192.172C201.6 191.428 201.096 190.948 200.316 190.396L201.408 189.208C202.092 189.628 202.728 190.12 203.28 190.708V188.728H205.128V194.896L205.992 194.728L206.148 196.516L205.128 196.708V200.092H203.28V197.068L199.62 197.776L199.416 196.36ZM200.412 189.484C200.256 190.324 199.932 191.272 199.56 192.04L198.36 191.5C198.648 190.828 198.924 189.868 199.02 189.148L200.412 189.484ZM195.78 189.184C196.056 189.892 196.284 190.756 196.392 191.512L195.12 192.028C195.06 191.116 194.892 190.384 194.556 189.544L195.78 189.184Z" fill="#6F6356"/>
<path d="M190.272 194.643C190.944 195.603 191.892 196.167 192.996 196.503L191.976 198.099H193.092L192.744 199.839H186.552C185.472 199.839 184.5 199.467 183.84 198.579C183.324 199.203 182.772 199.707 182.088 200.163L181.38 198.171C181.872 197.931 182.196 197.703 182.616 197.355V194.871H181.572V193.191H184.344V196.683C184.536 197.547 185.064 197.907 185.916 198.051L184.812 196.527C185.844 196.155 186.828 195.615 187.392 194.643H184.764V192.939H187.884V191.895H185.088V190.191H186.156C186 189.759 185.832 189.423 185.616 189.015L187.38 188.691C187.608 189.171 187.824 189.699 188.004 190.191H189.54C189.756 189.783 189.996 189.147 190.104 188.691L191.916 188.967C191.772 189.387 191.568 189.795 191.376 190.191H192.528V191.895H189.624V192.939H192.864V194.643H190.272ZM182.844 188.823C183.624 189.435 184.224 190.035 184.872 190.779L183.528 192.087C182.976 191.355 182.364 190.659 181.644 190.083L182.844 188.823ZM191.748 198.099C190.416 197.511 189.456 196.563 188.832 195.255C188.364 196.443 187.308 197.511 186.18 198.087C186.372 198.099 186.564 198.099 186.744 198.099H191.748Z" fill="#6F6356"/>
<path d="M53.9706 186.49C55.7992 184.786 56.0808 182.115 54.5995 180.526C53.1182 178.937 50.4349 179.031 48.6063 180.736C46.7776 182.44 46.496 185.11 47.9773 186.7C49.4586 188.289 52.1419 188.195 53.9706 186.49Z" fill="white"/>
<path d="M78.1666 186.492C79.9953 184.788 80.2769 182.117 78.7956 180.528C77.3142 178.939 74.631 179.033 72.8023 180.738C70.9736 182.442 70.692 185.112 72.1734 186.701C73.6547 188.291 76.3379 188.197 78.1666 186.492Z" fill="white"/>
<path d="M34.9344 165.729C34.9344 164.598 34.0174 163.681 32.8863 163.681C31.7551 163.681 30.8381 164.598 30.8381 165.729C30.8381 166.86 31.7551 167.777 32.8863 167.777C34.0174 167.777 34.9344 166.86 34.9344 165.729Z" fill="white"/>
<path d="M69.1238 183.134C69.803 179.787 72.9742 177.127 76.3827 177.127C79.6647 177.127 82.0302 179.594 81.9653 182.766C85.5148 182.859 86.5028 178.198 86.5028 178.198C86.8016 176.895 87.2481 174.354 87.6218 171.86C87.7443 171.09 87.6502 170.302 87.3499 169.582C86.4221 167.422 85.3008 165.35 83.9997 163.391C82.7688 161.56 80.7042 160.476 78.3476 160.436C76.9422 160.414 75.5625 160.401 74.5207 160.401L74.5117 160.392C74.3775 158.151 72.7393 156.435 70.4397 156.23C68.9436 156.097 63.0175 156 60.173 156C59.0428 156 57.4214 156.016 55.781 156.042V156.036H55.7675H36.0442C35.7932 156.036 35.5446 156.085 35.3126 156.18C35.0807 156.276 34.8699 156.417 34.6924 156.594C34.5149 156.771 34.3742 156.981 34.2782 157.212C34.1822 157.443 34.1328 157.691 34.133 157.942V157.95C34.133 158.454 34.3334 158.936 34.6901 159.292C35.0469 159.647 35.5307 159.847 36.0353 159.847H40.011C40.4898 159.883 40.9375 160.097 41.2643 160.447C41.5912 160.798 41.773 161.259 41.7734 161.738V161.748C41.7742 161.998 41.7254 162.246 41.6298 162.478C41.5342 162.71 41.3937 162.92 41.2164 163.098C41.0391 163.276 40.8284 163.416 40.5964 163.513C40.3645 163.609 40.1157 163.659 39.8644 163.659H37.8256C37.319 163.659 36.8332 163.86 36.475 164.217C36.1168 164.574 35.9155 165.059 35.9155 165.564C35.9154 165.814 35.9647 166.062 36.0606 166.293C36.1565 166.524 36.2972 166.734 36.4746 166.911C36.652 167.088 36.8626 167.229 37.0944 167.324C37.3262 167.42 37.5747 167.469 37.8256 167.469H39.8644C40.3713 167.469 40.8575 167.67 41.2159 168.028C41.5743 168.385 41.7757 168.87 41.7757 169.375C41.7757 169.881 41.5743 170.366 41.2159 170.723C40.8575 171.08 40.3713 171.281 39.8644 171.281H32.2374C31.7307 171.281 31.2447 171.482 30.8864 171.839C30.528 172.196 30.3265 172.681 30.3262 173.186C30.3262 173.691 30.5275 174.176 30.886 174.533C31.2444 174.891 31.7305 175.092 32.2374 175.092H39.8644C40.3713 175.092 40.8575 175.292 41.2159 175.65C41.5743 176.007 41.7757 176.492 41.7757 176.997C41.7751 177.503 41.5735 177.987 41.2151 178.344C40.8567 178.701 40.3709 178.901 39.8644 178.901H37.5056C36.999 178.901 36.5132 179.102 36.155 179.459C35.7967 179.816 35.5955 180.301 35.5955 180.806C35.5955 181.311 35.7967 181.796 36.1549 182.153C36.5131 182.51 36.9989 182.711 37.5056 182.712L45.0319 182.706L45.6575 181.152C46.9387 178.795 49.4878 177.126 52.1868 177.126C55.5963 177.126 58.0178 179.788 57.7515 183.138H69.1227M50.167 164.546H47.6023C47.5998 164.546 47.5975 164.547 47.5957 164.549C47.5939 164.55 47.5927 164.553 47.5922 164.555L47.3561 166.229C47.3557 166.23 47.3557 166.231 47.356 166.233C47.3563 166.234 47.3569 166.235 47.3578 166.237C47.3586 166.238 47.3597 166.238 47.361 166.239C47.3623 166.24 47.3636 166.24 47.365 166.24H49.274C49.3677 166.237 49.4608 166.255 49.5466 166.293C49.6323 166.331 49.7085 166.387 49.7696 166.458C49.8308 166.529 49.8752 166.613 49.8998 166.703C49.9244 166.793 49.9285 166.888 49.9119 166.98C49.8791 167.182 49.7768 167.366 49.6224 167.501C49.468 167.636 49.2712 167.713 49.0659 167.719H47.1547C47.1523 167.719 47.1501 167.72 47.1482 167.722C47.1464 167.723 47.1451 167.725 47.1446 167.727L46.8022 170.159C46.7695 170.361 46.6671 170.545 46.5127 170.68C46.3583 170.815 46.1615 170.892 45.9562 170.898C45.8626 170.901 45.7695 170.883 45.6838 170.845C45.5981 170.807 45.5219 170.751 45.4609 170.68C45.3999 170.609 45.3555 170.525 45.331 170.435C45.3066 170.345 45.3026 170.251 45.3195 170.159L46.208 163.852C46.2432 163.638 46.3518 163.444 46.5151 163.301C46.6784 163.159 46.8863 163.077 47.1032 163.071H50.374C50.4677 163.068 50.5608 163.086 50.6465 163.124C50.7322 163.162 50.8083 163.218 50.8693 163.289C50.9304 163.36 50.9747 163.444 50.9992 163.534C51.0237 163.624 51.0276 163.719 51.0107 163.811C50.9775 164.012 50.8752 164.195 50.7213 164.329C50.5673 164.464 50.3714 164.54 50.167 164.546ZM57.0219 163.573C57.2884 163.809 57.4758 164.12 57.559 164.466C57.6521 164.857 57.6673 165.263 57.6038 165.66C57.526 166.277 57.2724 166.86 56.8731 167.339C56.6292 167.626 56.3195 167.851 55.9701 167.994C55.9685 167.996 55.9676 167.998 55.9676 168C55.9676 168.002 55.9685 168.005 55.9701 168.006L56.6057 169.835C56.7769 170.326 56.3371 170.898 55.7899 170.898H55.7541C55.6214 170.902 55.4908 170.864 55.3814 170.789C55.2719 170.714 55.1893 170.606 55.1454 170.481L54.3766 168.249C54.3755 168.248 54.374 168.246 54.3723 168.245C54.3705 168.244 54.3686 168.244 54.3666 168.244H52.7328C52.7306 168.244 52.7284 168.245 52.7266 168.246C52.7248 168.248 52.7234 168.25 52.7228 168.252L52.4542 170.158C52.4215 170.36 52.3191 170.544 52.1647 170.679C52.0103 170.814 51.8135 170.891 51.6082 170.897C51.5146 170.9 51.4215 170.882 51.3358 170.844C51.2501 170.806 51.1739 170.75 51.1129 170.679C51.0519 170.608 51.0075 170.524 50.9831 170.434C50.9586 170.344 50.9547 170.249 50.9715 170.158L51.86 163.851C51.8952 163.637 52.0038 163.443 52.1671 163.3C52.3304 163.158 52.5383 163.076 52.7552 163.07H55.2841C55.2841 163.07 56.3942 163.035 57.0219 163.573ZM63.982 163.758C63.9516 163.947 63.8561 164.119 63.7118 164.246C63.5676 164.372 63.3838 164.444 63.192 164.449H60.2502C60.2479 164.449 60.2457 164.45 60.2439 164.451C60.2421 164.453 60.2408 164.455 60.2401 164.457L60.0063 166.113C60.0059 166.114 60.0059 166.115 60.0062 166.117C60.0065 166.118 60.0071 166.119 60.0079 166.12C60.0088 166.122 60.0099 166.122 60.0112 166.123C60.0124 166.124 60.0138 166.124 60.0152 166.124H62.3002C62.3877 166.121 62.4747 166.138 62.5548 166.173C62.6349 166.209 62.706 166.261 62.7631 166.328C62.8202 166.394 62.8617 166.472 62.8846 166.556C62.9075 166.64 62.9112 166.729 62.8955 166.815C62.8651 167.003 62.7695 167.176 62.6253 167.302C62.4811 167.428 62.2972 167.5 62.1055 167.505H59.8194C59.8171 167.505 59.8149 167.506 59.8131 167.508C59.8113 167.509 59.81 167.511 59.8093 167.513L59.5285 169.506C59.5284 169.509 59.5295 169.511 59.5313 169.513C59.5332 169.515 59.5358 169.517 59.5385 169.517H62.4781C62.5656 169.514 62.6526 169.531 62.7327 169.567C62.8128 169.602 62.884 169.655 62.941 169.721C62.9981 169.787 63.0396 169.865 63.0625 169.949C63.0854 170.034 63.0891 170.122 63.0734 170.208C63.043 170.397 62.9474 170.569 62.8032 170.695C62.659 170.821 62.4751 170.893 62.2834 170.898H58.6355C58.5371 170.9 58.4395 170.88 58.3498 170.839C58.2601 170.799 58.1804 170.739 58.1163 170.665C58.0523 170.59 58.0054 170.502 57.9791 170.408C57.9528 170.313 57.9477 170.214 57.9641 170.117L58.847 163.855C58.8822 163.642 58.9907 163.447 59.1541 163.305C59.3174 163.162 59.5253 163.081 59.7422 163.074H63.389C63.4756 163.072 63.5616 163.089 63.6409 163.124C63.7201 163.159 63.7906 163.211 63.8473 163.277C63.904 163.342 63.9455 163.419 63.9688 163.502C63.9921 163.586 63.9966 163.673 63.982 163.758ZM70.0928 163.758C70.0624 163.947 69.9669 164.119 69.8226 164.246C69.6784 164.372 69.4946 164.444 69.3028 164.449H66.361C66.3587 164.449 66.3565 164.45 66.3547 164.451C66.3529 164.453 66.3516 164.455 66.3509 164.457L66.1182 166.113C66.1178 166.114 66.1178 166.115 66.1181 166.117C66.1184 166.118 66.119 166.119 66.1199 166.12C66.1207 166.122 66.1218 166.122 66.1231 166.123C66.1244 166.124 66.1258 166.124 66.1271 166.124H68.4121C68.4996 166.121 68.5866 166.138 68.6667 166.173C68.7468 166.209 68.818 166.261 68.875 166.328C68.9321 166.394 68.9736 166.472 68.9965 166.556C69.0194 166.64 69.0231 166.729 69.0074 166.815C68.977 167.003 68.8814 167.176 68.7372 167.302C68.593 167.428 68.4091 167.5 68.2174 167.505H65.9302C65.9279 167.505 65.9257 167.506 65.9239 167.508C65.9221 167.509 65.9208 167.511 65.9201 167.513L65.6393 169.506C65.6392 169.509 65.6403 169.511 65.6421 169.513C65.644 169.515 65.6466 169.517 65.6493 169.517H68.5889C68.6764 169.514 68.7634 169.531 68.8435 169.567C68.9236 169.602 68.9948 169.655 69.0518 169.721C69.1089 169.787 69.1504 169.865 69.1733 169.949C69.1962 170.034 69.1999 170.122 69.1842 170.208C69.1538 170.397 69.0582 170.569 68.914 170.695C68.7698 170.821 68.5859 170.893 68.3942 170.898H64.7463C64.6479 170.9 64.5504 170.88 64.4606 170.839C64.3709 170.799 64.2912 170.739 64.2271 170.665C64.1631 170.59 64.1162 170.502 64.0899 170.408C64.0636 170.313 64.0585 170.214 64.0749 170.117L64.9578 163.855C64.993 163.642 65.1016 163.447 65.2649 163.305C65.4282 163.162 65.6361 163.081 65.853 163.074H69.4998C69.5864 163.072 69.6725 163.089 69.7517 163.124C69.8309 163.159 69.9014 163.211 69.9581 163.277C70.0148 163.342 70.0563 163.419 70.0796 163.502C70.1029 163.586 70.1074 163.673 70.0928 163.758ZM74.345 163.043C75.3443 163.043 76.6378 163.056 77.9358 163.078C79.5091 163.103 80.8855 163.824 81.7113 165.054C82.5934 166.38 83.3863 167.763 84.0847 169.193C84.454 169.943 83.7747 170.92 82.8851 170.92H73.3457L74.345 163.043Z" fill="white"/>
<path d="M54.5476 166.752H52.8557L53.177 164.705H54.8678C54.8678 164.705 56.1088 164.634 55.9054 165.729C55.9107 165.729 55.7683 166.752 54.5476 166.752Z" fill="white"/>
</svg>
