<svg width="9" height="171" viewBox="0 0 9 171" fill="none" xmlns="http://www.w3.org/2000/svg">
<path d="M0.869999 3.50867C0.869999 5.11867 1.83 6.09867 3.01 6.09867C4.09 6.09867 4.63 5.46867 5 4.59867L5.43 3.58867C5.67 2.98867 5.91 2.39867 6.54 2.39867C7.13 2.39867 7.49 2.88867 7.49 3.63867C7.49 4.28867 7.24 4.79867 6.83 5.25867L7.57 5.86867C8.14 5.30867 8.5 4.49867 8.5 3.63867C8.5 2.23867 7.63 1.21867 6.47 1.21867C5.4 1.21867 4.84 2.00867 4.54 2.71867L4.1 3.73867C3.8 4.41867 3.59 4.91867 2.92 4.91867C2.3 4.91867 1.88 4.41867 1.88 3.52867C1.88 2.81867 2.22 2.09867 2.75 1.56867L1.95 0.888672C1.27 1.55867 0.869999 2.49867 0.869999 3.50867Z" fill="#535353"/>
<path d="M0.869999 11.3627C0.869999 12.3127 1.25 13.0627 1.93 13.6527L2.66 13.0327C2.18 12.5927 1.88 12.0727 1.88 11.4027C1.88 10.1027 2.95 9.28266 4.7 9.28266C6.43 9.28266 7.49 10.1627 7.49 11.4327C7.49 12.0327 7.22 12.4927 6.83 12.8727L7.57 13.5027C8.06 13.0527 8.5 12.3327 8.5 11.4127C8.5 9.55266 7.06 8.09266 4.66 8.09266C2.25 8.09266 0.869999 9.51266 0.869999 11.3627Z" fill="#535353"/>
<path d="M0.999999 15.9575L0.999999 17.1175L4.35 17.1175L4.35 20.2675L0.999999 20.2675L0.999999 21.4275L8.36 21.4275L8.36 20.2675L5.36 20.2675L5.36 17.1175L8.36 17.1175L8.36 15.9575L0.999999 15.9575Z" fill="#535353"/>
<path d="M0.869998 27.1598C0.869998 29.0498 2.34 30.3698 4.71 30.3698C7.08 30.3698 8.5 29.0498 8.5 27.1598C8.5 25.2698 7.08 23.9598 4.71 23.9598C2.34 23.9598 0.869998 25.2698 0.869998 27.1598ZM1.88 27.1598C1.88 25.9398 2.98 25.1498 4.71 25.1498C6.44 25.1498 7.49 25.9398 7.49 27.1598C7.49 28.3798 6.44 29.1798 4.71 29.1798C2.98 29.1798 1.88 28.3798 1.88 27.1598Z" fill="#535353"/>
<path d="M0.869998 35.6989C0.869998 37.5889 2.34 38.9089 4.71 38.9089C7.08 38.9089 8.5 37.5889 8.5 35.6989C8.5 33.8089 7.08 32.4989 4.71 32.4989C2.34 32.4989 0.869998 33.8089 0.869998 35.6989ZM1.88 35.6989C1.88 34.4789 2.98 33.6889 4.71 33.6889C6.44 33.6889 7.49 34.4789 7.49 35.6989C7.49 36.9189 6.44 37.7189 4.71 37.7189C2.98 37.7189 1.88 36.9189 1.88 35.6989Z" fill="#535353"/>
<path d="M0.999998 41.438L0.999998 45.708L1.98 45.708L1.98 42.598L8.36 42.598L8.36 41.438L0.999998 41.438Z" fill="#535353"/>
<path d="M0.999997 51.2505L0.999997 53.7105C0.999997 55.3405 1.7 56.5305 3.16 56.5305C4.16 56.5305 4.73 55.9205 4.91 55.0805L4.96 55.0805C5.18 55.7405 5.85 56.1305 6.55 56.1305C7.88 56.1305 8.36 55.0405 8.36 53.5305L8.36 51.2505L0.999997 51.2505ZM5.29 52.4105L7.46 52.4105L7.46 53.4305C7.46 54.4705 7.17 54.9905 6.4 54.9905C5.71 54.9905 5.29 54.5205 5.29 53.4005L5.29 52.4105ZM1.91 52.4105L4.41 52.4105L4.41 53.5805C4.41 54.7505 4.05 55.3905 3.22 55.3905C2.32 55.3905 1.91 54.7305 1.91 53.5805L1.91 52.4105Z" fill="#535353"/>
<path d="M4.01 60.0304L5 60.3304C5.8 60.5704 6.61 60.8004 7.45 61.0104L7.45 61.0504C6.62 61.2804 5.8 61.5004 5 61.7504L4.01 62.0404L4.01 60.0304ZM0.999997 62.9404L0.999997 64.1704L8.36 61.7304L8.36 60.3904L0.999997 57.9504L0.999997 59.1304L3.1 59.7604L3.1 62.3204L0.999997 62.9404Z" fill="#535353"/>
<path d="M0.869996 69.0337C0.869996 70.0437 1.24 70.8737 1.73 71.3637L4.92 71.3637L4.92 68.8537L3.97 68.8537L3.97 70.3137L2.24 70.3137C2.01 70.0537 1.88 69.6037 1.88 69.1537C1.88 67.6337 2.95 66.8237 4.7 66.8237C6.43 66.8237 7.49 67.7337 7.49 69.1037C7.49 69.8137 7.2 70.2637 6.83 70.6237L7.57 71.2537C8.04 70.8037 8.5 70.1037 8.5 69.0637C8.5 67.1137 7.06 65.6337 4.66 65.6337C2.25 65.6337 0.869997 67.0637 0.869996 69.0337Z" fill="#535353"/>
<path d="M0.999996 80.5376L0.999996 81.5776L4.64 81.5776C5.3 81.5776 6.25 81.4876 6.92 81.4376L6.92 81.4776L5.22 82.0576L1.71 83.3476L1.71 84.0676L5.22 85.3476L6.92 85.9376L6.92 85.9776C6.25 85.9176 5.3 85.8276 4.64 85.8276L0.999996 85.8276L0.999996 86.9076L8.36 86.9076L8.36 85.5676L4.64 84.2376C4.15 84.0676 3.65 83.9276 3.15 83.7576L3.15 83.7076C3.65 83.5376 4.15 83.3876 4.64 83.2176L8.36 81.8676L8.36 80.5376L0.999996 80.5376Z" fill="#535353"/>
<path d="M4.01 90.9484L5 91.2484C5.8 91.4884 6.61 91.7184 7.45 91.9284L7.45 91.9684C6.62 92.1984 5.8 92.4184 5 92.6684L4.01 92.9584L4.01 90.9484ZM0.999995 93.8584L0.999995 95.0884L8.36 92.6484L8.36 91.3084L0.999996 88.8684L0.999996 90.0484L3.1 90.6784L3.1 93.2384L0.999995 93.8584Z" fill="#535353"/>
<path d="M0.999995 97.0591L0.999995 99.0291C0.999995 101.229 2.31999 102.519 4.71 102.519C7.10999 102.519 8.36 101.229 8.36 98.9691L8.36 97.0591L0.999995 97.0591ZM1.95 98.2191L7.42 98.2191L7.42 98.8891C7.42 100.469 6.55 101.319 4.71 101.319C2.88 101.319 1.94999 100.469 1.95 98.8891L1.95 98.2191Z" fill="#535353"/>
<path d="M0.999995 105.051L0.999995 109.511L1.98 109.511L1.98 106.211L4.36 106.211L4.36 108.911L5.33999 108.911L5.34 106.211L7.39 106.211L7.39 109.401L8.36 109.401L8.36 105.051L0.999995 105.051Z" fill="#535353"/>
<path d="M0.999994 116.793L0.999994 117.953L7.38999 117.953L7.38999 120.123L8.35999 120.123L8.36 114.633L7.38999 114.633L7.38999 116.793L0.999994 116.793Z" fill="#535353"/>
<path d="M0.869994 124.914C0.869994 126.804 2.33999 128.124 4.70999 128.124C7.07999 128.124 8.49999 126.804 8.49999 124.914C8.49999 123.024 7.07999 121.714 4.70999 121.714C2.33999 121.714 0.869994 123.024 0.869994 124.914ZM1.87999 124.914C1.87999 123.694 2.97999 122.904 4.70999 122.904C6.43999 122.904 7.48999 123.694 7.48999 124.914C7.48999 126.134 6.43999 126.934 4.70999 126.934C2.97999 126.934 1.87999 126.134 1.87999 124.914Z" fill="#535353"/>
<path d="M0.869993 136.699C0.869993 138.589 2.33999 139.909 4.70999 139.909C7.07999 139.909 8.49999 138.589 8.49999 136.699C8.49999 134.809 7.07999 133.499 4.70999 133.499C2.33999 133.499 0.869994 134.809 0.869993 136.699ZM1.87999 136.699C1.87999 135.479 2.97999 134.689 4.70999 134.689C6.43999 134.689 7.48999 135.479 7.48999 136.699C7.48999 137.919 6.43999 138.719 4.70999 138.719C2.97999 138.719 1.87999 137.919 1.87999 136.699Z" fill="#535353"/>
<path d="M7.42999 143.598L7.42999 144.708C7.42999 145.778 7.11999 146.358 6.22999 146.358C5.33999 146.358 4.89999 145.778 4.89999 144.708L4.89999 143.598L7.42999 143.598ZM0.999993 147.768L4.11999 145.968C4.40999 146.898 5.08999 147.508 6.22999 147.508C7.81999 147.508 8.35999 146.368 8.35999 144.848L8.35999 142.438L0.999993 142.438L0.999993 143.598L3.96999 143.598L3.96999 144.788L0.999993 146.458L0.999993 147.768Z" fill="#535353"/>
<path d="M0.999993 149.991L0.999993 151.961C0.999993 154.161 2.31999 155.451 4.70999 155.451C7.10999 155.451 8.35999 154.161 8.35999 151.901L8.35999 149.991L0.999993 149.991ZM1.94999 151.151L7.41999 151.151L7.41999 151.821C7.41999 153.401 6.54999 154.251 4.70999 154.251C2.87999 154.251 1.94999 153.401 1.94999 151.821L1.94999 151.151Z" fill="#535353"/>
<path d="M0.999993 157.983L0.999992 162.443L1.97999 162.443L1.97999 159.143L4.35999 159.143L4.35999 161.843L5.33999 161.843L5.33999 159.143L7.38999 159.143L7.38999 162.333L8.35999 162.333L8.35999 157.983L0.999993 157.983Z" fill="#535353"/>
<path d="M7.42999 166.139L7.42999 167.249C7.42999 168.319 7.11999 168.899 6.22999 168.899C5.33999 168.899 4.89999 168.319 4.89999 167.249L4.89999 166.139L7.42999 166.139ZM0.999992 170.309L4.11999 168.509C4.40999 169.439 5.08999 170.049 6.22999 170.049C7.81999 170.049 8.35999 168.909 8.35999 167.389L8.35999 164.979L0.999992 164.979L0.999992 166.139L3.96999 166.139L3.96999 167.329L0.999992 168.999L0.999992 170.309Z" fill="#535353"/>
</svg>
