<svg width="13" height="114" viewBox="0 0 13 114" fill="none" xmlns="http://www.w3.org/2000/svg">
<path d="M-2.96784e-05 3.29773C-2.97488e-05 4.90773 0.959973 5.88773 2.13997 5.88773C3.21997 5.88773 3.75997 5.25773 4.12997 4.38773L4.55997 3.37773C4.79997 2.77773 5.03997 2.18773 5.66997 2.18773C6.25997 2.18773 6.61997 2.67773 6.61997 3.42773C6.61997 4.07773 6.36997 4.58773 5.95997 5.04773L6.69997 5.65773C7.26997 5.09773 7.62997 4.28773 7.62997 3.42773C7.62997 2.02773 6.75997 1.00773 5.59997 1.00773C4.52997 1.00773 3.96997 1.79773 3.66997 2.50773L3.22997 3.52773C2.92997 4.20773 2.71997 4.70773 2.04997 4.70773C1.42997 4.70773 1.00997 4.20773 1.00997 3.31773C1.00997 2.60773 1.34997 1.88773 1.87997 1.35773L1.07997 0.677734C0.399973 1.34773 -2.96343e-05 2.28773 -2.96784e-05 3.29773Z" fill="#535353"/>
<path d="M-2.99898e-05 10.4217C-3.00174e-05 11.0517 0.229973 11.7017 0.679973 12.2017L1.43997 11.7317C1.15997 11.4017 0.939973 10.9917 0.939973 10.5317C0.939973 9.61172 1.70997 8.98172 2.86997 8.98172C4.03997 8.98172 4.81997 9.64172 4.81997 10.5617C4.81997 10.9417 4.65997 11.2517 4.38997 11.5517L5.13997 12.1217C5.48997 11.7217 5.76997 11.2117 5.76997 10.5117C5.76997 9.06172 4.70997 7.79172 2.86997 7.79172C1.04997 7.79172 -2.99247e-05 8.93172 -2.99898e-05 10.4217Z" fill="#535353"/>
<path d="M0.129974 14.1345L0.129974 15.2745L3.55997 15.2745C4.42997 15.6245 4.73997 16.1645 4.73997 16.6145C4.73997 16.8345 4.70997 16.9745 4.64997 17.1645L5.64997 17.3745C5.72997 17.2045 5.76997 17.0245 5.76997 16.7545C5.76997 16.1645 5.34997 15.5845 4.63997 15.1945L4.63997 15.1645L5.62997 15.0745L5.62997 14.1345L0.129974 14.1345Z" fill="#535353"/>
<path d="M-2.56978e-05 21.3189C-2.57572e-05 22.6789 1.04997 23.9089 2.86997 23.9089C4.70997 23.9089 5.76997 22.6789 5.76997 21.3189C5.76997 19.9589 4.70997 18.7289 2.86997 18.7289C1.04997 18.7289 -2.56383e-05 19.9589 -2.56978e-05 21.3189ZM0.939974 21.3189C0.939974 20.4589 1.70997 19.9189 2.86997 19.9189C4.03997 19.9189 4.81997 20.4589 4.81997 21.3189C4.81997 22.1889 4.03997 22.7289 2.86997 22.7289C1.70997 22.7289 0.939974 22.1889 0.939974 21.3189Z" fill="#535353"/>
<path d="M-2.59637e-05 27.4015C-2.59759e-05 27.6815 0.0399742 27.8815 0.0899742 28.0215L0.959974 27.8715C0.939974 27.7715 0.939974 27.7315 0.939974 27.6815C0.939974 27.5415 1.04997 27.4015 1.35997 27.4015L8.09997 27.4015L8.09997 26.2615L1.41997 26.2615C0.529974 26.2615 -2.59274e-05 26.5715 -2.59637e-05 27.4015Z" fill="#535353"/>
<path d="M-2.61376e-05 31.38C-2.61498e-05 31.66 0.039974 31.86 0.089974 32L0.959973 31.85C0.939973 31.75 0.939974 31.71 0.939974 31.66C0.939974 31.52 1.04997 31.38 1.35997 31.38L8.09997 31.38L8.09997 30.24L1.41997 30.24C0.529973 30.24 -2.61013e-05 30.55 -2.61376e-05 31.38Z" fill="#535353"/>
<path fill-rule="evenodd" clip-rule="evenodd" d="M3.63 42.7929C3.90615 42.7929 4.13 43.0168 4.13 43.2929V111.586L11.2765 104.439C11.4717 104.244 11.7883 104.244 11.9836 104.439C12.1788 104.635 12.1788 104.951 11.9836 105.146L3.13 114V43.2929C3.13 43.0168 3.35386 42.7929 3.63 42.7929Z" fill="#535353"/>
</svg>
