<svg width="17" height="13" viewBox="0 0 17 13" fill="none" xmlns="http://www.w3.org/2000/svg">
<g clip-path="url(#clip0_572_9825)">
<path d="M4.0903e-05 11.5167C7.23759 15.6438 15.5029 10.6012 15.24 3.23403C15.8988 2.785 16.4889 2.22753 17 1.54853C16.3187 1.81053 15.6537 1.97937 15.008 2.04268C15.7473 1.60166 16.27 1.01654 16.5059 0.240745C15.8733 0.600259 15.1363 0.860798 14.3135 1.03983C11.8273 -1.32904 7.68148 0.640286 8.36896 4.00545C5.58577 3.92249 3.13433 2.74061 1.17704 0.601715C0.260651 2.23918 0.73006 3.88756 2.23882 4.96392C1.68125 4.95664 1.16389 4.81181 0.67902 4.5571C0.7231 6.17345 1.62634 7.35607 3.45062 7.82038C2.94641 7.96084 2.42596 7.96884 1.89391 7.87059C2.44607 9.25043 3.50398 10.0546 5.14574 10.155C3.70504 11.2139 1.87845 11.7394 -0.000732422 11.5174L4.0903e-05 11.5167Z" fill="#AC7746"/>
</g>
<defs>
<clipPath id="clip0_572_9825">
<rect width="17" height="13" fill="white"/>
</clipPath>
</defs>
</svg>
