<svg width="16" height="17" viewBox="0 0 16 17" fill="none" xmlns="http://www.w3.org/2000/svg">
<path d="M7.99952 1C4.15662 1 1.75481 5.21264 3.67626 8.58275C4.72175 10.4168 7.85921 15.9179 7.85921 15.9179C7.92157 16.0274 8.07844 16.0274 8.1408 15.9179C8.1408 15.9179 11.2783 10.4168 12.3238 8.58275C14.2452 5.21264 11.8434 1 7.99952 1ZM7.99952 6.82173C7.2249 6.82173 6.59741 6.18638 6.59741 5.40206C6.59741 4.61774 7.2249 3.98239 7.99952 3.98239C8.77414 3.98239 9.40163 4.61774 9.40163 5.40206C9.40163 6.18638 8.77414 6.82173 7.99952 6.82173Z" fill="white" stroke="#535353" stroke-miterlimit="10" stroke-linecap="round"/>
</svg>
