<svg width="27" height="24" viewBox="0 0 27 24" fill="none" xmlns="http://www.w3.org/2000/svg">
<g clip-path="url(#clip0_572_7391)">
<path d="M26.4 23.6033V22.5416C26.4 20.455 25.0848 18.5722 23.1271 17.8574L17.7774 15.9039C16.9824 15.6134 16.4479 14.8494 16.4479 14.0015C16.4479 13.4115 16.7078 12.8501 17.1604 12.4609C18.5118 11.3 19.2872 9.61385 19.2872 7.83324V6.22432C19.2872 4.55481 18.5996 2.92154 17.4013 1.74397C16.2267 0.589566 14.6961 -0.0324908 13.0831 0.000780647C9.7907 0.0625705 7.11226 2.79736 7.11226 6.09599V7.83324C7.11226 9.61326 7.88761 11.3 9.23899 12.4603C9.69222 12.8495 9.95206 13.411 9.95206 14.0009C9.95206 14.8482 9.41815 15.6128 8.62262 15.9033L3.27286 17.8569C1.31519 18.5722 0 20.4544 0 22.5416V23.6033C0 23.8219 0.177376 23.9996 0.395686 23.9996H26.0049C26.2232 23.9996 26.4006 23.8225 26.4006 23.6033H26.4ZM25.6092 23.207H0.790778V22.5416C0.790778 20.7865 1.89716 19.2032 3.54337 18.6019L8.89314 16.6484C9.99952 16.2444 10.7428 15.1809 10.7428 14.0015C10.7428 13.1798 10.3821 12.3991 9.75392 11.8597C8.57813 10.8496 7.90363 9.38214 7.90363 7.83383V6.09658C7.90363 3.22633 10.2338 0.84742 13.0986 0.793354C14.4909 0.767212 15.8256 1.3055 16.8484 2.31018C17.896 3.33981 18.497 4.76691 18.497 6.22492V7.83383C18.497 9.38273 17.8225 10.8496 16.6467 11.8603C16.0184 12.3997 15.6578 13.1804 15.6578 14.0021C15.6578 15.1815 16.4011 16.245 17.5069 16.6484L22.8566 18.6019C24.5034 19.2032 25.6098 20.7865 25.6098 22.5416V23.207H25.6092Z" fill="#AC7746"/>
</g>
<defs>
<clipPath id="clip0_572_7391">
<rect width="26.4" height="24" fill="white"/>
</clipPath>
</defs>
</svg>
