<?xml version="1.0" encoding="UTF-8"?>
<svg id="_レイヤー_1" data-name=" レイヤー 1" xmlns="http://www.w3.org/2000/svg" version="1.1" viewBox="0 0 426.7 426.7">
  <defs>
    <style>
      .cls-1 {
        fill: #000;
        stroke-width: 0px;
      }
    </style>
  </defs>
  <path class="cls-1" d="M213.3,0C95.5,0,0,95.5,0,213.3s95.5,213.3,213.3,213.3,213.3-95.5,213.3-213.3C426.5,95.6,331.1,0,213.3,0ZM213.3,405.3c-106,0-192-86-192-192S107.3,21.3,213.3,21.3s192,86,192,192c-.1,106-86,191.9-192,192h0Z"/>
  <path class="cls-1" d="M188.4,130.6c-4.4-3.9-11.2-3.4-15.1,1-3.9,4.4-3.4,11.2,1,15.1l76.2,66.6-76.2,66.6c-4.4,3.9-4.9,10.6-1,15.1,3.9,4.4,10.6,4.9,15.1,1l85.3-74.7c2.3-2,3.6-5,3.6-8s-1.3-6-3.6-8l-85.3-74.7h0Z"/>
</svg>