<?xml version="1.0" encoding="UTF-8"?>
<svg id="Capa_1" data-name="Capa 1" xmlns="http://www.w3.org/2000/svg" version="1.1" viewBox="0 0 60.1 60.1">
  <defs>
    <style>
      .cls-1 {
        fill: #fff;
        stroke-width: 0px;
      }
    </style>
  </defs>
  <path class="cls-1" d="M57.1,51.9H16.9c-1.7,0-3-1.3-3-3s1.3-3,3-3h40.2c1.7,0,3,1.3,3,3s-1.3,3-3,3Z"/>
  <path class="cls-1" d="M57.1,33.1H16.9c-1.7,0-3-1.3-3-3s1.3-3,3-3h40.2c1.7,0,3,1.3,3,3,0,1.7-1.3,3-3,3Z"/>
  <path class="cls-1" d="M57.1,14.2H16.9c-1.7,0-3-1.3-3-3s1.3-3,3-3h40.2c1.7,0,3,1.3,3,3s-1.3,3-3,3Z"/>
  <circle class="cls-1" cx="4" cy="11.5" r="4"/>
  <circle class="cls-1" cx="4" cy="30.1" r="4"/>
  <circle class="cls-1" cx="4" cy="48.7" r="4"/>
</svg>