<svg width="322" height="285" viewBox="0 0 322 285" fill="none" xmlns="http://www.w3.org/2000/svg">
<path d="M156.172 1.47245C159.907 1.63425 163.732 1.81403 167.25 3.09048C172.193 4.8883 176.108 8.71765 180.619 11.4324C195.052 20.0978 213.527 16.628 229.963 20.3855C241.113 22.9384 251.18 28.8172 260.706 35.1096C266.877 39.1727 272.939 43.4874 278.297 48.5752C285.261 55.1912 290.944 63.0117 296.573 70.7962C301.95 78.2212 307.38 85.7181 311.241 94.024C315.463 103.121 317.736 113.009 319.324 122.915C323.654 149.684 323.221 177.64 314.363 203.277C305.504 228.914 287.643 252.034 263.214 263.972C257.08 266.974 250.621 269.239 244.577 272.385C239.886 274.83 235.448 277.779 230.54 279.738C223.883 282.399 216.63 283.136 209.468 283.676C181.936 285.761 154.224 285.384 126.764 282.543C99.4307 279.72 71.4839 274.129 48.7693 258.722C17.124 237.22 -0.232197 198.189 0.00234641 159.986C0.0745136 149.523 1.3194 139.113 2.83491 128.758C3.737 122.573 4.78342 116.335 7.29123 110.6C13.1909 97.1522 26.2532 88.4328 35.4364 76.9627C48.6971 60.4049 53.8391 38.094 68.8859 23.1361C79.693 12.4032 94.2527 6.81196 108.614 2.56912C123.949 -1.97936 140.313 0.753322 156.154 1.45447L156.172 1.47245Z" fill="#B5C7B5"/>
</svg>
