<svg width="126" height="118" viewBox="0 0 126 118" fill="none" xmlns="http://www.w3.org/2000/svg">
<path d="M7.31289 34.1908C4.30289 39.1508 2.85289 44.8708 1.44289 50.4908C0.75289 53.2408 0.0628904 56.0308 0.00289039 58.8708C-0.0371096 61.2008 0.34289 63.5208 0.84289 65.8008C2.87289 75.2508 6.70289 84.3208 12.0429 92.3808C13.8429 95.0908 15.8229 97.7008 18.1329 99.9908C22.5929 104.401 28.1529 107.501 33.6429 110.551C37.2029 112.531 40.8029 114.521 44.7129 115.651C48.5629 116.761 52.6029 117.001 56.6029 117.231C69.4929 117.981 83.1429 118.571 94.5029 112.441C107.603 105.361 114.733 90.9508 120.613 77.2708C121.863 74.3608 123.113 71.3908 123.433 68.2308C123.703 65.6008 123.323 62.9008 123.983 60.3508C124.323 59.0508 124.933 57.8108 125.043 56.4808C125.133 55.4008 124.903 54.3208 124.663 53.2608C123.473 47.8608 122.243 42.3508 119.363 37.6308C116.773 33.3708 112.983 29.9908 109.253 26.6808C103.333 21.4208 97.4229 16.1708 91.5029 10.9108C88.5429 8.28082 85.5329 5.62082 81.9629 3.92082C79.5729 2.78082 76.9829 2.11082 74.3829 1.57082C62.4029 -0.899184 49.8029 -0.449184 38.0029 2.87082C34.5629 3.84082 30.4329 5.48081 28.4329 8.66082C27.1829 10.6408 27.3729 11.4208 25.5629 12.7508C24.1929 13.7508 22.6129 13.9908 21.4029 15.3208C19.2529 17.6808 17.9729 20.9708 15.8929 23.4708C12.9729 26.9908 9.70289 30.2608 7.31289 34.2008V34.1908Z" fill="#ECF6F9"/>
</svg>
