<?xml version="1.0" encoding="UTF-8"?>
<svg id="_レイヤー_2" data-name="レイヤー 2" xmlns="http://www.w3.org/2000/svg" viewBox="0 0 178.48 158.51">
  <defs>
    <style>
      .cls-1 {
        fill: #dde8e3;
        stroke-width: 0px;
      }
    </style>
  </defs>
  <g id="_レイヤー_1-2" data-name="レイヤー 1">
    <path class="cls-1" d="M86.56.81c2.07.09,4.19.19,6.14.9,2.74,1,4.91,3.13,7.41,4.64,8,4.82,18.24,2.89,27.35,4.98,6.18,1.42,11.76,4.69,17.04,8.19,3.42,2.26,6.78,4.66,9.75,7.49,3.86,3.68,7.01,8.03,10.13,12.36,2.98,4.13,5.99,8.3,8.13,12.92,2.34,5.06,3.6,10.56,4.48,16.07,2.4,14.89,2.16,30.44-2.75,44.7-4.91,14.26-14.81,27.12-28.35,33.76-3.4,1.67-6.98,2.93-10.33,4.68-2.6,1.36-5.06,3-7.78,4.09-3.69,1.48-7.71,1.89-11.68,2.19-15.26,1.16-30.62.95-45.84-.63-15.15-1.57-30.64-4.68-43.23-13.25C9.49,131.94-.13,110.23,0,88.98c.04-5.82.73-11.61,1.57-17.37.5-3.44,1.08-6.91,2.47-10.1,3.27-7.48,10.51-12.33,15.6-18.71,7.35-9.21,10.2-21.62,18.54-29.94,5.99-5.97,14.06-9.08,22.02-11.44,8.5-2.53,17.57-1.01,26.35-.62Z"/>
  </g>
</svg>