<svg width="179" height="159" viewBox="0 0 179 159" fill="none" xmlns="http://www.w3.org/2000/svg">
<path d="M86.5613 0.819021C88.6313 0.909021 90.7513 1.00902 92.7013 1.71902C95.4413 2.71902 97.6113 4.84902 100.111 6.35902C108.111 11.179 118.351 9.24902 127.461 11.339C133.641 12.759 139.221 16.029 144.501 19.529C147.921 21.789 151.281 24.189 154.251 27.019C158.111 30.699 161.261 35.049 164.381 39.379C167.361 43.509 170.371 47.679 172.511 52.299C174.851 57.359 176.111 62.859 176.991 68.369C179.391 83.259 179.151 98.809 174.241 113.069C169.331 127.329 159.431 140.189 145.891 146.829C142.491 148.499 138.911 149.759 135.561 151.509C132.961 152.869 130.501 154.509 127.781 155.599C124.091 157.079 120.071 157.489 116.101 157.789C100.841 158.949 85.4813 158.739 70.2613 157.159C55.1113 155.589 39.6213 152.479 27.0313 143.909C9.4913 131.949 -0.128699 110.239 0.00130054 88.989C0.0413005 83.169 0.731301 77.379 1.5713 71.619C2.0713 68.179 2.6513 64.709 4.0413 61.519C7.3113 54.039 14.5513 49.189 19.6413 42.809C26.9913 33.599 29.8413 21.189 38.1813 12.869C44.1713 6.89902 52.2413 3.78902 60.2013 1.42902C68.7013 -1.10098 77.7713 0.419021 86.5513 0.809021L86.5613 0.819021Z" fill="#EEF4DB"/>
</svg>
