<?xml version="1.0" encoding="UTF-8"?>
<svg id="_レイヤー_2" data-name="レイヤー 2" xmlns="http://www.w3.org/2000/svg" viewBox="0 0 366.75 131.25">
  <defs>
    <style>
      .cls-1 {
        fill: #ecf6f9;
      }

      .cls-1, .cls-2, .cls-3, .cls-4 {
        stroke-width: 0px;
      }

      .cls-2 {
        fill: #eef4db;
      }

      .cls-3 {
        fill: #fcfaf2;
      }

      .cls-4 {
        fill: #dbe6dd;
      }
    </style>
  </defs>
  <g id="_レイヤー_1-2" data-name="レイヤー 1">
    <g>
      <path class="cls-1" d="M119.77,1.81c3.78,2.74,7.12,6.76,7.21,11.43.06,3.26-1.46,6.32-2.95,9.22-.54,1.05-1.1,2.13-1.99,2.91-.87.77-1.99,1.19-3.09,1.55-3.85,1.26-7.86,2-11.9,2.19-1.4.07-2.87.06-4.13-.57-1.15-.57-2-1.59-2.73-2.64-2.16-3.14-3.52-6.9-3.42-10.71s1.74-7.64,4.71-10.02c1.9-1.53,4.22-2.41,6.5-3.27,4.4-1.66,7.6-3.24,11.8-.09Z"/>
      <path class="cls-4" d="M156.27,39.82c3.92,6.49,1.95,15.87-4.26,20.24-1.95,1.37-4.23,2.28-6.6,2.6-7.01.96-14.36-3.8-16.35-10.59-2.03-6.95,1.88-14.74,8.08-18.2s15.58.07,19.12,5.95Z"/>
      <path class="cls-1" d="M193.08,66.83c3.15,3.04,4.34,7.91,3.07,12.11-1.37,4.52-5.47,8.04-10.12,8.87s-9.64-1.01-12.77-4.54-4.36-8.62-3.34-13.23c.58-2.62,1.95-5.21,4.26-6.57,3.19-1.89,5.81.34,8.9.39,3.83.07,7.03.1,10,2.97Z"/>
      <path class="cls-3" d="M224.41,32.17c-3.11-5.3-1.57-13.04,3.71-16.19,2.65-1.58,5.84-1.95,8.92-2.06,5.02-.17,10.65.54,13.82,4.43,11.32,13.84-16.81,30.26-26.45,13.82Z"/>
      <path class="cls-2" d="M251.75,76.93c-.61-1.97-.98-4.17-.16-6.06,1.26-2.91,4.91-4.06,8.06-3.75,3.44.34,6.81,2.11,8.69,5.03,7.41,11.51-12.19,19.08-16.59,4.79Z"/>
      <path class="cls-4" d="M228.23,102.23c2.38-1.85,5.78-2.26,8.56-1.09,4.25,1.78,6.48,7.3,4.65,11.54-5.82,13.51-23.85-2.19-13.21-10.44Z"/>
      <path class="cls-4" d="M298.08,49.87c3.83.17,7.33,2.53,9.63,5.6,1.81,2.4,3.02,5.37,2.84,8.37-.52,8.84-12.43,12.54-18.54,6.89-7.17-6.63-5.93-21.39,6.07-20.86Z"/>
      <path class="cls-1" d="M346.3,88.73c-.15-4.23,2.6-8.41,6.54-9.96s8.8-.34,11.57,2.86c1.54,1.78,2.44,4.13,2.33,6.48-.15,3.29-2.3,6.3-5.15,7.96-6.66,3.88-14.99,1.25-15.29-7.34Z"/>
      <path class="cls-2" d="M97.34,99.31c4.12-2.53,9.91-1.87,13.38,1.49,6.87,6.64,1.7,20.97-8.52,19.63s-13.51-15.81-4.86-21.12Z"/>
      <path class="cls-3" d="M138.15,112.49c9.4-.57,13.35,18.03,2.83,18.74-9.92.68-13.66-18.09-2.83-18.74Z"/>
      <path class="cls-1" d="M51.26,89.23c2.57.1,5.26.28,7.44,1.65,10.42,6.53-1.94,24.14-11.97,19.33-4.12-1.98-7.51-8.38-7.53-12.8-.04-7,6.31-8.4,12.06-8.18Z"/>
      <path class="cls-3" d="M56.65,60.48c-2.27-4-1.51-9.47,1.76-12.7s8.75-3.92,12.73-1.63c4.01,2.32,6.14,7.48,4.93,11.95-2.46,9.09-14.8,10.51-19.42,2.38Z"/>
      <path class="cls-2" d="M15.99,18.76c9.21,7.67-.47,23.62-11.18,16.74-11.75-7.55.35-25.75,11.18-16.74Z"/>
    </g>
  </g>
</svg>