<?xml version="1.0" encoding="UTF-8"?>
<svg id="_レイヤー_2" data-name="レイヤー 2" xmlns="http://www.w3.org/2000/svg" viewBox="0 0 125.08 117.68">
  <defs>
    <style>
      .cls-1 {
        fill: #f8f6f3;
        stroke-width: 0px;
      }
    </style>
  </defs>
  <g id="_レイヤー_1-2" data-name="レイヤー 1">
    <path class="cls-1" d="M7.31,34.19c-3.01,4.96-4.46,10.68-5.87,16.3C.75,53.24.06,56.03,0,58.87c-.04,2.33.34,4.65.84,6.93,2.03,9.45,5.86,18.52,11.2,26.58,1.8,2.71,3.78,5.32,6.09,7.61,4.46,4.41,10.02,7.51,15.51,10.56,3.56,1.98,7.16,3.97,11.07,5.1,3.85,1.11,7.89,1.35,11.89,1.58,12.89.75,26.54,1.34,37.9-4.79,13.1-7.08,20.23-21.49,26.11-35.17,1.25-2.91,2.5-5.88,2.82-9.04.27-2.63-.11-5.33.55-7.88.34-1.3.95-2.54,1.06-3.87.09-1.08-.14-2.16-.38-3.22-1.19-5.4-2.42-10.91-5.3-15.63-2.59-4.26-6.38-7.64-10.11-10.95-5.92-5.26-11.83-10.51-17.75-15.77-2.96-2.63-5.97-5.29-9.54-6.99-2.39-1.14-4.98-1.81-7.58-2.35C62.4-.9,49.8-.45,38,2.87c-3.44.97-7.57,2.61-9.57,5.79-1.25,1.98-1.06,2.76-2.87,4.09-1.37,1-2.95,1.24-4.16,2.57-2.15,2.36-3.43,5.65-5.51,8.15-2.92,3.52-6.19,6.79-8.58,10.73Z"/>
  </g>
</svg>