<svg xmlns="http://www.w3.org/2000/svg" width="60" height="95" viewBox="0 0 60 95"><g transform="translate(-157.732 -660)"><path d="M.5,30h-1V0h1Z" transform="translate(188.232 660)" fill="#fff"/><path d="M10,1a9.01,9.01,0,0,0-9,9V20a9,9,0,0,0,18,0V10a9.01,9.01,0,0,0-9-9m0-1A10,10,0,0,1,20,10V20A10,10,0,0,1,0,20V10A10,10,0,0,1,10,0Z" transform="translate(177.732 699.728)" fill="#fff"/><path d="M-27.857.334a6.563,6.563,0,0,1-.961-.062,3.364,3.364,0,0,1-.754-.2,7.118,7.118,0,0,1-.7-.328V-1.5a3.577,3.577,0,0,0,1.033.576,3.707,3.707,0,0,0,1.305.226,1.511,1.511,0,0,0,1.007-.289,1,1,0,0,0,.334-.8.858.858,0,0,0-.245-.639,2.027,2.027,0,0,0-.651-.411q-.4-.17-.863-.339-.35-.136-.688-.288a2.575,2.575,0,0,1-.612-.384,1.665,1.665,0,0,1-.437-.593,2.161,2.161,0,0,1-.164-.893,2.175,2.175,0,0,1,.142-.757,2.065,2.065,0,0,1,.431-.7,2.046,2.046,0,0,1,.765-.5,3.126,3.126,0,0,1,1.141-.186,4.452,4.452,0,0,1,.759.057,2.952,2.952,0,0,1,.612.176q.29.119.629.288v1.221q-.273-.181-.552-.339a3.06,3.06,0,0,0-.607-.26,2.723,2.723,0,0,0-.732-.113,1.838,1.838,0,0,0-.754.113.983.983,0,0,0-.448.35.906.906,0,0,0-.153.52.956.956,0,0,0,.191.627,1.422,1.422,0,0,0,.541.384q.35.152.808.3a8.42,8.42,0,0,1,.787.308,2.918,2.918,0,0,1,.677.411,1.829,1.829,0,0,1,.476.605,1.991,1.991,0,0,1,.18.893,2.43,2.43,0,0,1-.257,1.1,2,2,0,0,1-.808.836,2.826,2.826,0,0,1-1.435.319Zm6.511-.011a3.345,3.345,0,0,1-.983-.147A2.393,2.393,0,0,1-23.2-.3a2.3,2.3,0,0,1-.618-.893,3.7,3.7,0,0,1-.227-1.4,4.082,4.082,0,0,1,.219-1.439,2.321,2.321,0,0,1,.6-.925,2.262,2.262,0,0,1,.869-.485,3.437,3.437,0,0,1,.993-.147,4.579,4.579,0,0,1,.874.084,3.584,3.584,0,0,1,.809.254v1.063a4.507,4.507,0,0,0-.743-.266,3.086,3.086,0,0,0-.776-.1,1.719,1.719,0,0,0-1.283.441,1.983,1.983,0,0,0-.432,1.424A2.23,2.23,0,0,0-22.5-1.2a1.692,1.692,0,0,0,1.34.471,2.9,2.9,0,0,0,.787-.1,4.31,4.31,0,0,0,.71-.265V-.039a3.7,3.7,0,0,1-.795.271,4.152,4.152,0,0,1-.886.09ZM-18.123.21V-4.944a3.861,3.861,0,0,1,.524-.249,5.652,5.652,0,0,1,.907-.277,4.786,4.786,0,0,1,1.06-.118,1.834,1.834,0,0,1,.448.045,1.7,1.7,0,0,1,.3.1v.95q-.251-.034-.524-.05a4.4,4.4,0,0,0-.546,0q-.273.017-.535.05t-.481.068V.21ZM-11.5.38A2.432,2.432,0,0,1-13.489-.4a3.391,3.391,0,0,1-.651-2.227,3.219,3.219,0,0,1,.672-2.256A2.526,2.526,0,0,1-11.528-5.6a2.932,2.932,0,0,1,1.5.344,2.077,2.077,0,0,1,.874,1.011A4.12,4.12,0,0,1-8.873-2.63,3.283,3.283,0,0,1-9.553-.406,2.439,2.439,0,0,1-11.5.38Zm-.011-1.006a1.407,1.407,0,0,0,.885-.255,1.425,1.425,0,0,0,.476-.706,3.352,3.352,0,0,0,.147-1.04,3.381,3.381,0,0,0-.153-1.1,1.265,1.265,0,0,0-.481-.662,1.547,1.547,0,0,0-.874-.22,1.459,1.459,0,0,0-.874.237,1.3,1.3,0,0,0-.47.678A3.49,3.49,0,0,0-13-2.627a2.723,2.723,0,0,0,.339,1.469,1.253,1.253,0,0,0,1.147.531ZM-6.182.21H-7.318V-7.612h1.136Zm2.972,0H-4.346V-7.612H-3.21ZM2,.21v-7.54h2.56a3.383,3.383,0,0,1,2.633.95,4.061,4.061,0,0,1,.863,2.815A4.083,4.083,0,0,1,7.191-.745,3.372,3.372,0,0,1,4.562.21ZM3.2-.841H4.438a2.293,2.293,0,0,0,1.8-.649,3.073,3.073,0,0,0,.579-2.074,3.076,3.076,0,0,0-.579-2.07,2.283,2.283,0,0,0-1.8-.656H3.2ZM12.011.38A2.432,2.432,0,0,1,10.024-.4a3.391,3.391,0,0,1-.651-2.227,3.219,3.219,0,0,1,.672-2.256A2.526,2.526,0,0,1,11.985-5.6a2.932,2.932,0,0,1,1.5.344,2.077,2.077,0,0,1,.874,1.011A4.12,4.12,0,0,1,14.64-2.63a3.283,3.283,0,0,1-.68,2.224A2.439,2.439,0,0,1,12.011.38ZM12-.626a1.407,1.407,0,0,0,.885-.255,1.425,1.425,0,0,0,.476-.706,3.352,3.352,0,0,0,.147-1.04,3.381,3.381,0,0,0-.153-1.1,1.265,1.265,0,0,0-.481-.662A1.547,1.547,0,0,0,12-4.605a1.459,1.459,0,0,0-.874.237,1.3,1.3,0,0,0-.47.678,3.49,3.49,0,0,0-.142,1.063,2.723,2.723,0,0,0,.339,1.469A1.253,1.253,0,0,0,12-.626ZM17.242.21,15.417-5.464h1.224L18.029-.612l-.339.068,1.333-4.92h.95L21.3-.683h-.273l1.39-4.781h1.18L21.754.21H20.673l-1.3-4.442.208.1L18.324.21ZM24.944-5a4.406,4.406,0,0,1,.541-.232,5.859,5.859,0,0,1,.64-.186,6.931,6.931,0,0,1,.688-.124,5.282,5.282,0,0,1,.677-.045,3.117,3.117,0,0,1,1.267.22,1.486,1.486,0,0,1,.732.678,2.452,2.452,0,0,1,.24,1.147V.21H28.582v-3.6a1.846,1.846,0,0,0-.049-.424.987.987,0,0,0-.186-.384.907.907,0,0,0-.4-.276,1.853,1.853,0,0,0-.672-.1,3.392,3.392,0,0,0-.606.057,3.424,3.424,0,0,0-.585.158V.21H24.944Z" transform="translate(188 754.612)" fill="#fff"/><path d="M8.889,12.548h0c-.552,0-1-.714-1-1.6V7.143c0-.881.448-1.595,1-1.595s1,.714,1,1.595v3.81c0,.881-.448,1.6-1,1.6" transform="translate(178.843 703.119)" fill="#fff"/></g></svg>