<svg width="126" height="126" viewBox="0 0 126 126" fill="none" xmlns="http://www.w3.org/2000/svg">
<path d="M62.5322 125.064C97.0678 125.064 125.064 97.0678 125.064 62.5322C125.064 27.9966 97.0678 0 62.5322 0C27.9966 0 0 27.9966 0 62.5322C0 97.0678 27.9966 125.064 62.5322 125.064Z" fill="#E2BC8F"/>
<path d="M108.756 14.8394H16.3081V37.3016H59.7166L62.5327 42.1781L65.3481 37.3016H108.756V14.8394Z" fill="#C67A2C"/>
<path d="M40.5826 57.1604C40.5826 56.5315 41.2369 55.6809 42.1979 55.2395C42.1891 54.8567 42.1715 54.4573 42.1715 54.0833C41.6276 54.134 41.1012 54.1604 40.6588 54.177L40.5573 53.2249C41.025 53.217 41.5856 53.1829 42.1549 53.1399C42.1549 52.7405 42.1549 52.2727 42.1637 51.8137L43.2936 51.8567C43.277 52.2053 43.2594 52.6213 43.2516 53.0295C43.7272 52.97 44.1774 52.9016 44.5514 52.8254L44.6705 53.7776C44.2457 53.8459 43.7526 53.9133 43.2428 53.9729V54.2874C43.2428 54.4749 43.2428 54.6956 43.2516 54.9417C43.7955 54.7893 44.3815 54.7043 44.9088 54.7043C46.2682 54.7043 47.0758 55.4436 47.0758 56.5315C47.0758 57.7639 46.277 58.5286 45.0104 58.5286C44.6793 58.5286 44.3307 58.4778 44.0846 58.384L43.9225 57.3391C44.2291 57.4661 44.569 57.5422 44.8834 57.5422C45.6051 57.5422 46.0221 57.1262 46.0221 56.5393C46.0221 56.0129 45.6051 55.6223 44.7301 55.6223C44.2711 55.6223 43.7614 55.7151 43.2682 55.885C43.2858 56.4036 43.3024 56.9309 43.319 57.3303C43.3278 57.5764 43.3278 57.7385 43.3278 57.9338C43.3278 58.4944 42.903 58.7415 42.3414 58.7415C41.3903 58.7415 40.5826 58.0608 40.5826 57.1604ZM42.0865 57.7209C42.2828 57.7209 42.3502 57.5764 42.3502 57.3391C42.3502 57.1428 42.3414 56.9387 42.3336 56.6584C42.3248 56.5061 42.3248 56.3616 42.3248 56.2249C41.8834 56.4807 41.5768 56.8801 41.5768 57.1516C41.5768 57.4915 41.8492 57.7209 42.0865 57.7209ZM45.0026 53.1057L45.5201 52.2815C46.2428 52.5959 46.7867 52.9534 47.3903 53.5393L46.7789 54.3899C46.149 53.7688 45.6647 53.429 45.0026 53.1057Z" fill="#C67A2C"/>
<path d="M52.5123 57.2112H50.8463V57.8235H49.9117V52.7913H52.5123V51.5588H53.5153V52.7913H56.1666V57.7717H55.2321V57.2112H53.5153V59.2083H52.5123V57.2112ZM52.5543 54.5764V53.5735H50.8463V54.5764H52.5543ZM52.5543 56.429V55.3411H50.8463V56.429H52.5543ZM55.2321 54.5764V53.5735H53.4723V54.5764H55.2321ZM55.2321 56.429V55.3411H53.4723V56.429H55.2321Z" fill="#C67A2C"/>
<path d="M58.3307 58.1887C58.7301 57.9592 59.1295 57.679 59.5621 57.3127V55.6301H58.441V54.7297H60.4801V57.3127C61.0416 57.9592 61.6793 58.1292 63.5065 58.1292C64.2965 58.1292 65.0953 58.095 66.1412 58.0188C65.9879 58.3499 65.8942 58.6477 65.8346 59.0042C64.7809 59.0559 64.3219 59.0725 63.6256 59.0725C62.3414 59.0725 61.611 58.9875 61.0758 58.7747C60.6842 58.6223 60.3102 58.3157 60.0729 57.968C59.5621 58.5793 59.2145 58.9446 58.8746 59.2258L58.3307 58.1887ZM58.6276 52.4514L59.3336 51.8655C59.8434 52.2903 60.2848 52.7493 60.6588 53.2424L59.903 53.8879C59.5114 53.344 59.0524 52.8254 58.6276 52.4514ZM60.7526 56.9055C62.0612 56.0637 62.6559 54.8997 62.8258 52.843H61.2711V51.9417H63.7955V52.3752C63.7867 54.3899 64.5436 55.9026 66.0045 56.7952L65.3424 57.7209C64.2623 56.9133 63.6676 56.0383 63.3112 54.7551C62.9879 56.1145 62.4264 57.0071 61.3981 57.7463L60.7526 56.9055Z" fill="#C67A2C"/>
<path d="M69.7838 57.6194L70.3619 57.2024H67.5319V56.4211H68.3307V53.3606H67.651V52.5959H68.3307V51.6438H69.1295V52.5959H70.2008V51.6438H70.9996V52.5959H71.6451V53.3606H70.9996V56.4211H71.7643V57.2024H70.4977C70.8043 57.4319 71.11 57.7463 71.3483 58.0862L70.6852 58.7668C70.4215 58.2991 70.0905 57.8831 69.7838 57.6194ZM67.6002 58.5969C68.067 58.2483 68.4752 57.7639 68.7389 57.2278L69.4869 57.6448C69.1129 58.384 68.7135 58.9114 68.2711 59.2678L67.6002 58.5969ZM70.2008 53.9221V53.3606H69.1295V53.9221H70.2008ZM70.2008 55.1458V54.5852H69.1295V55.1458H70.2008ZM70.2008 56.4211V55.8088H69.1295V56.4211H70.2008ZM71.2203 58.554C71.7223 57.968 71.943 57.177 71.943 55.928V51.925H74.8922V58.2991C74.8922 58.8772 74.6451 59.1067 74.0338 59.1067C73.7106 59.1067 73.3278 59.0891 73.0563 59.0637L72.8864 58.1125C73.1666 58.1458 73.5065 58.1711 73.7106 58.1711C73.9567 58.1711 74.0592 58.0862 74.0592 57.8909V56.5315H72.7584C72.691 57.7385 72.444 58.5627 71.943 59.302L71.2203 58.554ZM74.0592 53.8118V52.7747H72.776V53.8118H74.0592ZM74.0592 55.7151V54.6272H72.776V55.7151H74.0592Z" fill="#C67A2C"/>
<path d="M76.9967 51.8655H79.2916L79.7848 52.3157C79.5973 53.0295 79.3424 53.7776 79.028 54.5002C79.5123 55.1204 79.7594 55.7747 79.7594 56.4543C79.7594 57.2708 79.4869 57.6106 78.8414 57.6106C78.6119 57.6106 78.3141 57.5852 78.11 57.551L77.9489 56.6838C78.1276 56.7268 78.3649 56.7522 78.569 56.7522C78.816 56.7522 78.8922 56.6506 78.8922 56.3362C78.8922 55.7659 78.6119 55.095 78.153 54.5422C78.4166 53.9221 78.6198 53.3098 78.7389 52.7317H77.8639V59.2083H76.9967V51.8655ZM79.2408 58.2561C79.4781 58.2229 79.8356 58.1633 80.0485 58.1204V51.925H83.7623V55.5793H82.3766C82.4196 55.9026 82.5387 56.2512 82.7086 56.5569C83.0397 56.3186 83.3707 56.0129 83.7194 55.6223L84.3912 56.2678C84.0084 56.6077 83.5924 56.9133 83.1334 57.2024C83.4567 57.594 83.9323 57.9592 84.5016 58.2483L83.8981 59.1409C82.5553 58.2737 81.7906 57.1262 81.5182 55.5793H80.9323V57.925C81.2887 57.8401 81.6461 57.7385 82.1559 57.594L82.2496 58.427C81.3483 58.7581 80.3453 59.0471 79.5377 59.217L79.2408 58.2561ZM82.8951 53.3948V52.6731H80.9323V53.3948H82.8951ZM82.8951 54.8313V54.0754H80.9323V54.8313H82.8951Z" fill="#C67A2C"/>
<path d="M35.238 75.9178C36.054 75.9178 36.774 76.0678 37.398 76.3678C38.022 76.6678 38.508 77.1058 38.856 77.6818C39.216 78.2458 39.396 78.9418 39.396 79.7698C39.396 80.6818 39.204 81.4678 38.82 82.1278C38.436 82.7878 37.872 83.2978 37.128 83.6578C36.384 84.0058 35.472 84.1798 34.392 84.1798C33.72 84.1798 33.09 84.1198 32.502 83.9998C31.914 83.8798 31.404 83.7058 30.972 83.4778V81.4618C31.416 81.7018 31.95 81.8998 32.574 82.0558C33.198 82.2118 33.786 82.2898 34.338 82.2898C34.914 82.2898 35.406 82.2118 35.814 82.0558C36.222 81.8878 36.534 81.6358 36.75 81.2998C36.966 80.9518 37.074 80.5138 37.074 79.9858C37.074 79.2658 36.846 78.7198 36.39 78.3478C35.934 77.9758 35.226 77.7898 34.266 77.7898C33.93 77.7898 33.564 77.8198 33.168 77.8798C32.784 77.9398 32.466 77.9998 32.214 78.0598L31.242 77.5198L31.728 71.1478H38.496V73.1278H33.726L33.456 76.0978C33.66 76.0618 33.9 76.0258 34.176 75.9898C34.464 75.9418 34.818 75.9178 35.238 75.9178Z" fill="#836951"/>
<path d="M47.3388 71.1478L42.5508 83.9998H40.4448L45.2328 71.1478H47.3388Z" fill="#836951"/>
<path d="M56.5447 74.0818C56.5447 74.6578 56.4247 75.1618 56.1847 75.5938C55.9567 76.0258 55.6387 76.3798 55.2307 76.6558C54.8227 76.9198 54.3487 77.1118 53.8087 77.2318V77.2858C54.8407 77.4058 55.6207 77.7238 56.1487 78.2398C56.6767 78.7558 56.9407 79.4398 56.9407 80.2918C56.9407 81.0358 56.7607 81.7018 56.4007 82.2898C56.0407 82.8778 55.4827 83.3398 54.7267 83.6758C53.9827 84.0118 53.0227 84.1798 51.8467 84.1798C51.1507 84.1798 50.5027 84.1198 49.9027 83.9998C49.3027 83.8918 48.7387 83.7178 48.2107 83.4778V81.4798C48.7507 81.7558 49.3267 81.9658 49.9387 82.1098C50.5507 82.2538 51.1267 82.3258 51.6667 82.3258C52.7107 82.3258 53.4487 82.1398 53.8807 81.7678C54.3127 81.3838 54.5287 80.8558 54.5287 80.1838C54.5287 79.7518 54.4207 79.3978 54.2047 79.1218C53.9887 78.8458 53.6347 78.6418 53.1427 78.5098C52.6627 78.3658 52.0327 78.2938 51.2527 78.2938H50.1727V76.4758H51.2707C52.0267 76.4758 52.6207 76.3918 53.0527 76.2238C53.4967 76.0558 53.8087 75.8218 53.9887 75.5218C54.1807 75.2218 54.2767 74.8738 54.2767 74.4778C54.2767 73.9618 54.1087 73.5598 53.7727 73.2718C53.4367 72.9838 52.9327 72.8398 52.2607 72.8398C51.8287 72.8398 51.4387 72.8878 51.0907 72.9838C50.7427 73.0798 50.4247 73.2058 50.1367 73.3618C49.8487 73.5058 49.5787 73.6618 49.3267 73.8298L48.2467 72.2638C48.5707 72.0238 48.9367 71.8078 49.3447 71.6158C49.7527 71.4118 50.2087 71.2558 50.7127 71.1478C51.2167 71.0278 51.7687 70.9678 52.3687 70.9678C53.7007 70.9678 54.7267 71.2498 55.4467 71.8138C56.1787 72.3658 56.5447 73.1218 56.5447 74.0818Z" fill="#836951"/>
<path d="M64.8115 83.9998H62.5435V75.9898C62.5435 75.7258 62.5435 75.4558 62.5435 75.1798C62.5555 74.9038 62.5675 74.6278 62.5795 74.3518C62.5915 74.0638 62.6035 73.7998 62.6155 73.5598C62.4955 73.6798 62.3455 73.8238 62.1655 73.9918C61.9855 74.1478 61.7995 74.3098 61.6075 74.4778L60.1675 75.6298L59.0335 74.2258L62.9215 71.1478H64.8115V83.9998Z" fill="#836951"/>
<path d="M68.7943 79.0678C68.7943 78.0838 68.8843 77.1238 69.0643 76.1878C69.2563 75.2518 69.5503 74.3578 69.9463 73.5058C70.3423 72.6538 70.8403 71.8678 71.4403 71.1478H73.3663C72.8263 71.8918 72.3643 72.6958 71.9803 73.5598C71.6083 74.4238 71.3263 75.3178 71.1343 76.2418C70.9543 77.1658 70.8643 78.1018 70.8643 79.0498C70.8643 79.9738 70.9543 80.8918 71.1343 81.8038C71.3263 82.7158 71.6083 83.5978 71.9803 84.4498C72.3523 85.3018 72.8083 86.0998 73.3483 86.8438H71.4403C70.8403 86.1358 70.3423 85.3618 69.9463 84.5218C69.5503 83.6938 69.2563 82.8178 69.0643 81.8938C68.8843 80.9698 68.7943 80.0278 68.7943 79.0678Z" fill="#836951"/>
<path d="M74.6752 74.9398V76.7548H78.8602V74.9398H74.6752ZM80.5102 71.2798V83.0098C80.5102 83.2948 80.4052 83.3848 80.1052 83.3998C79.7752 83.3998 78.8302 83.3998 77.8402 83.3548C78.1252 83.8948 78.4852 84.8098 78.5602 85.3648C79.9252 85.3648 80.9152 85.2898 81.5602 84.9748C82.1902 84.6448 82.4152 84.1048 82.4152 83.0248V71.2798H80.5102ZM78.2452 74.9398V75.3298C77.7352 78.6448 76.2652 81.2548 74.2102 82.6348C74.6452 82.9048 75.3802 83.6398 75.6952 84.0598C77.8402 82.4848 79.4902 79.4248 80.1802 75.3298L78.9352 74.8798L78.6202 74.9398H78.2452ZM82.3102 73.4698L80.8852 73.7698C81.9502 78.4048 83.7352 82.3048 87.2152 84.2698C87.5152 83.7148 88.1452 82.9648 88.5952 82.5898C85.2352 80.9848 83.2702 77.4448 82.3102 73.4698ZM86.5102 73.6048C85.5802 74.9398 83.9902 76.5748 82.7752 77.5798L84.0652 78.5998C85.3252 77.6548 86.9302 76.1398 88.2052 74.7898L86.5102 73.6048Z" fill="#836951"/>
<path d="M94.0222 79.0678C94.0222 80.0278 93.9262 80.9698 93.7342 81.8938C93.5542 82.8178 93.2662 83.6938 92.8702 84.5218C92.4862 85.3618 91.9882 86.1358 91.3762 86.8438H89.4682C90.0082 86.0998 90.4642 85.3018 90.8362 84.4498C91.2082 83.5978 91.4902 82.7158 91.6822 81.8038C91.8742 80.8918 91.9702 79.9738 91.9702 79.0498C91.9702 78.1018 91.8742 77.1658 91.6822 76.2418C91.4902 75.3178 91.2082 74.4238 90.8362 73.5598C90.4762 72.6958 90.0142 71.8918 89.4502 71.1478H91.3762C91.9882 71.8678 92.4862 72.6538 92.8702 73.5058C93.2662 74.3578 93.5542 75.2518 93.7342 76.1878C93.9262 77.1238 94.0222 78.0838 94.0222 79.0678Z" fill="#836951"/>
<path d="M27.495 25.775V27.245H37.05V23.39H25.95V24.845H35.28V25.775H27.495ZM26.505 25.775C26.265 27.095 25.86 28.7 25.515 29.765L27.315 29.975C27.63 28.88 28.02 27.2 28.305 25.775H26.505ZM27.135 28.13L26.685 29.63H36.585V28.13H27.135ZM36.12 28.13V28.34C36 30.08 35.865 30.8 35.655 31.01C35.505 31.13 35.37 31.145 35.13 31.145C34.86 31.16 34.23 31.145 33.6 31.07C33.87 31.52 34.08 32.195 34.11 32.72C34.875 32.735 35.595 32.735 36.015 32.675C36.48 32.63 36.84 32.51 37.17 32.165C37.545 31.745 37.725 30.77 37.875 28.775C37.905 28.55 37.92 28.13 37.92 28.13H36.12ZM30.57 23.735V33.35H32.34V23.735H30.57ZM30.21 28.67C29.07 29.99 26.79 31.19 24.675 31.775C25.05 32.12 25.56 32.765 25.815 33.2C27.99 32.45 30.255 30.965 31.605 29.27L30.21 28.67ZM26.55 20.42V21.8H31.275V20.42H26.55ZM32.505 20.42V21.8H38.325V20.42H32.505ZM26.625 19.145C26.115 20.435 25.23 21.755 24.255 22.58C24.675 22.805 25.395 23.27 25.725 23.54C26.67 22.61 27.675 21.08 28.29 19.595L26.625 19.145ZM32.73 19.145C32.28 20.405 31.425 21.65 30.42 22.415C30.84 22.64 31.575 23.12 31.905 23.42C32.88 22.505 33.855 21.065 34.425 19.58L32.73 19.145ZM27.105 21.515C27.495 22.145 27.9 22.97 28.05 23.51L29.58 22.835C29.385 22.31 28.935 21.485 28.545 20.9L27.105 21.515ZM33.615 21.5C34.095 22.1 34.62 22.925 34.83 23.45L36.39 22.85C36.135 22.31 35.58 21.53 35.1 20.975L33.615 21.5Z" fill="white"/>
<path d="M42.33 32H50.835V30.215H47.82V20.855H46.2C45.375 21.425 44.4 21.545 43.02 21.8V23.165H45.615V30.215H42.33V32Z" fill="white"/>
<path d="M60.06 24.95H62.715V27.545H60.06V24.95ZM58.365 23.375V29.105H64.515V23.375H58.365ZM55.065 19.775V33.35H56.925V21.605H65.985V33.35H67.935V19.775H55.065ZM56.115 30.86V32.54H67.095V30.86H56.115Z" fill="white"/>
<path d="M76.59 20.045V21.665H83.13V20.045H76.59ZM76.065 20.045V25.715C76.065 27.86 75.975 30.605 74.64 32.48C75.03 32.645 75.765 33.125 76.065 33.41C77.52 31.37 77.715 28.085 77.715 25.715V20.045H76.065ZM81.375 23.795V24.08C80.94 27.965 79.335 30.725 76.77 31.85C77.13 32.18 77.58 32.87 77.805 33.32C80.76 31.775 82.5 28.895 83.04 23.99L81.99 23.75L81.69 23.795H81.375ZM78.78 24.89L77.31 25.205C78.18 28.97 79.71 31.865 82.545 33.395C82.8 32.945 83.325 32.27 83.715 31.955C81.06 30.74 79.5 28.085 78.78 24.89ZM77.07 23.795V25.355H81.81V23.795H77.07ZM70.905 29.645C70.605 30.695 70.005 31.76 69.27 32.45C69.675 32.66 70.365 33.14 70.68 33.41C71.43 32.6 72.15 31.31 72.555 30.035L70.905 29.645ZM72.735 30.2C73.17 30.845 73.665 31.73 73.875 32.285L75.33 31.58C75.09 31.025 74.595 30.215 74.13 29.6L72.735 30.2ZM71.775 23.99H73.38V25.37H71.775V23.99ZM71.775 26.69H73.38V28.1H71.775V26.69ZM71.775 21.275H73.38V22.655H71.775V21.275ZM70.185 19.85V29.525H75.045V19.85H70.185Z" fill="white"/>
<path d="M84.855 20.465V22.1H98.13V20.465H84.855ZM86.295 23.075V24.65H96.765V23.075H86.295ZM85.065 25.4V28.61H86.79V27.005H96.135V28.61H97.95V25.4H85.065ZM90.48 19.28V23.945H92.355V19.28H90.48ZM92.28 27.485V31.04C92.28 32.66 92.715 33.17 94.47 33.17C94.815 33.17 96.03 33.17 96.405 33.17C97.83 33.17 98.295 32.615 98.49 30.44C98.01 30.335 97.245 30.05 96.87 29.765C96.825 31.31 96.72 31.55 96.225 31.55C95.94 31.55 94.965 31.55 94.71 31.55C94.185 31.55 94.095 31.49 94.095 31.01V27.485H92.28ZM88.575 27.47C88.395 29.81 88.035 31.145 84.435 31.85C84.81 32.225 85.26 32.93 85.425 33.41C89.565 32.42 90.225 30.5 90.45 27.47H88.575Z" fill="white"/>
</svg>
