<svg width="126" height="126" viewBox="0 0 126 126" fill="none" xmlns="http://www.w3.org/2000/svg">
<path d="M62.5322 125.064C97.0678 125.064 125.064 97.0678 125.064 62.5322C125.064 27.9966 97.0678 0 62.5322 0C27.9966 0 0 27.9966 0 62.5322C0 97.0678 27.9966 125.064 62.5322 125.064Z" fill="#E2BC8F"/>
<path d="M108.756 14.8394H16.3076V37.3016H59.7161L62.5322 42.1781L65.3476 37.3016H108.756V14.8394Z" fill="#C67A2C"/>
<path d="M58.3311 58.1887C58.7305 57.9592 59.1299 57.679 59.5625 57.3127V55.6301H58.4414V54.7297H60.4805V57.3127C61.042 57.9592 61.6797 58.1292 63.5069 58.1292C64.2969 58.1292 65.0957 58.095 66.1416 58.0188C65.9883 58.3499 65.8946 58.6477 65.835 59.0042C64.7813 59.0559 64.3223 59.0725 63.626 59.0725C62.3418 59.0725 61.6114 58.9875 61.0762 58.7747C60.6846 58.6223 60.3106 58.3157 60.0733 57.968C59.5625 58.5793 59.2149 58.9446 58.875 59.2258L58.3311 58.1887ZM58.628 52.4514L59.334 51.8655C59.8438 52.2903 60.2852 52.7493 60.6592 53.2424L59.9034 53.8879C59.5118 53.344 59.0528 52.8254 58.628 52.4514ZM60.753 56.9055C62.0616 56.0637 62.6563 54.8997 62.8262 52.843H61.2715V51.9417H63.7959V52.3752C63.7871 54.3899 64.544 55.9026 66.0049 56.7952L65.3428 57.7209C64.2627 56.9133 63.668 56.0383 63.3116 54.7551C62.9883 56.1145 62.4268 57.0071 61.3985 57.7463L60.753 56.9055Z" fill="#C67A2C"/>
<path d="M69.7841 57.6194L70.3622 57.2024H67.5322V56.4211H68.331V53.3606H67.6513V52.5959H68.331V51.6438H69.1298V52.5959H70.2011V51.6438H70.9999V52.5959H71.6454V53.3606H70.9999V56.4211H71.7646V57.2024H70.498C70.8046 57.4319 71.1103 57.7463 71.3486 58.0862L70.6855 58.7668C70.4218 58.2991 70.0908 57.8831 69.7841 57.6194ZM67.6005 58.5969C68.0673 58.2483 68.4755 57.7639 68.7392 57.2278L69.4872 57.6448C69.1132 58.384 68.7138 58.9114 68.2714 59.2678L67.6005 58.5969ZM70.2011 53.9221V53.3606H69.1298V53.9221H70.2011ZM70.2011 55.1458V54.5852H69.1298V55.1458H70.2011ZM70.2011 56.4211V55.8088H69.1298V56.4211H70.2011ZM71.2206 58.554C71.7226 57.968 71.9433 57.177 71.9433 55.928V51.925H74.8925V58.2991C74.8925 58.8772 74.6454 59.1067 74.0341 59.1067C73.7109 59.1067 73.3281 59.0891 73.0566 59.0637L72.8867 58.1125C73.1669 58.1458 73.5068 58.1711 73.7109 58.1711C73.957 58.1711 74.0595 58.0862 74.0595 57.8909V56.5315H72.7587C72.6913 57.7385 72.4443 58.5627 71.9433 59.302L71.2206 58.554ZM74.0595 53.8118V52.7747H72.7763V53.8118H74.0595ZM74.0595 55.7151V54.6272H72.7763V55.7151H74.0595Z" fill="#C67A2C"/>
<path d="M76.9971 51.8655H79.292L79.7852 52.3157C79.5977 53.0295 79.3428 53.7776 79.0284 54.5002C79.5127 55.1204 79.7598 55.7747 79.7598 56.4543C79.7598 57.2708 79.4873 57.6106 78.8418 57.6106C78.6123 57.6106 78.3145 57.5852 78.1104 57.551L77.9493 56.6838C78.128 56.7268 78.3653 56.7522 78.5694 56.7522C78.8164 56.7522 78.8926 56.6506 78.8926 56.3362C78.8926 55.7659 78.6123 55.095 78.1534 54.5422C78.417 53.9221 78.6202 53.3098 78.7393 52.7317H77.8643V59.2083H76.9971V51.8655ZM79.2412 58.2561C79.4785 58.2229 79.836 58.1633 80.0489 58.1204V51.925H83.7627V55.5793H82.377C82.42 55.9026 82.5391 56.2512 82.709 56.5569C83.0401 56.3186 83.3711 56.0129 83.7198 55.6223L84.3916 56.2678C84.0088 56.6077 83.5928 56.9133 83.1338 57.2024C83.4571 57.594 83.9327 57.9592 84.502 58.2483L83.8985 59.1409C82.5557 58.2737 81.791 57.1262 81.5186 55.5793H80.9327V57.925C81.2891 57.8401 81.6465 57.7385 82.1563 57.594L82.25 58.427C81.3487 58.7581 80.3457 59.0471 79.5381 59.217L79.2412 58.2561ZM82.8955 53.3948V52.6731H80.9327V53.3948H82.8955ZM82.8955 54.8313V54.0754H80.9327V54.8313H82.8955Z" fill="#C67A2C"/>
<path d="M64.8112 83.9997H62.5432V75.9897C62.5432 75.7257 62.5432 75.4557 62.5432 75.1797C62.5552 74.9037 62.5672 74.6277 62.5792 74.3517C62.5912 74.0637 62.6032 73.7997 62.6152 73.5597C62.4952 73.6797 62.3452 73.8237 62.1652 73.9917C61.9852 74.1477 61.7992 74.3097 61.6072 74.4777L60.1672 75.6297L59.0332 74.2257L62.9212 71.1477H64.8112V83.9997Z" fill="#836951"/>
<path d="M68.7939 79.0677C68.7939 78.0837 68.8839 77.1237 69.0639 76.1877C69.2559 75.2517 69.5499 74.3577 69.9459 73.5057C70.3419 72.6537 70.8399 71.8677 71.4399 71.1477H73.366C72.826 71.8917 72.3639 72.6957 71.9799 73.5597C71.6079 74.4237 71.3259 75.3177 71.1339 76.2417C70.9539 77.1657 70.864 78.1017 70.864 79.0497C70.864 79.9737 70.9539 80.8917 71.1339 81.8037C71.3259 82.7157 71.6079 83.5977 71.9799 84.4497C72.3519 85.3017 72.8079 86.0997 73.3479 86.8437H71.4399C70.8399 86.1357 70.3419 85.3617 69.9459 84.5217C69.5499 83.6937 69.2559 82.8177 69.0639 81.8937C68.8839 80.9697 68.7939 80.0277 68.7939 79.0677Z" fill="#836951"/>
<path d="M94.0222 79.0677C94.0222 80.0277 93.9262 80.9697 93.7342 81.8937C93.5542 82.8177 93.2662 83.6937 92.8702 84.5217C92.4862 85.3617 91.9882 86.1357 91.3762 86.8437H89.4682C90.0082 86.0997 90.4642 85.3017 90.8362 84.4497C91.2082 83.5977 91.4902 82.7157 91.6822 81.8037C91.8742 80.8917 91.9702 79.9737 91.9702 79.0497C91.9702 78.1017 91.8742 77.1657 91.6822 76.2417C91.4902 75.3177 91.2082 74.4237 90.8362 73.5597C90.4762 72.6957 90.0142 71.8917 89.4502 71.1477H91.3762C91.9882 71.8677 92.4862 72.6537 92.8702 73.5057C93.2662 74.3577 93.5542 75.2517 93.7342 76.1877C93.9262 77.1237 94.0222 78.0837 94.0222 79.0677Z" fill="#836951"/>
<path d="M27.4949 25.775H35.2799V24.845H25.9499V23.39H37.0499V27.245H27.4949V25.775ZM26.5049 25.775H28.3049C28.0199 27.2 27.6299 28.88 27.3149 29.975L25.5149 29.765C25.8599 28.7 26.2649 27.095 26.5049 25.775ZM27.1349 28.13H36.5849V29.63H26.6849L27.1349 28.13ZM36.1199 28.13H37.9199C37.9199 28.13 37.9049 28.55 37.8749 28.775C37.7249 30.77 37.5449 31.745 37.1699 32.165C36.8399 32.51 36.4799 32.63 36.0149 32.675C35.5949 32.735 34.8749 32.735 34.1099 32.72C34.0799 32.195 33.8699 31.52 33.5999 31.07C34.2299 31.145 34.8599 31.16 35.1299 31.145C35.3699 31.145 35.5049 31.13 35.6549 31.01C35.8649 30.8 35.9999 30.08 36.1199 28.34V28.13ZM30.5699 23.735H32.3399V33.35H30.5699V23.735ZM30.2099 28.67L31.6049 29.27C30.2549 30.965 27.9899 32.45 25.8149 33.2C25.5599 32.765 25.0499 32.12 24.6749 31.775C26.7899 31.19 29.0699 29.99 30.2099 28.67ZM26.5499 20.42H31.2749V21.8H26.5499V20.42ZM32.5049 20.42H38.3249V21.8H32.5049V20.42ZM26.6249 19.145L28.2899 19.595C27.6749 21.08 26.6699 22.61 25.7249 23.54C25.3949 23.27 24.6749 22.805 24.2549 22.58C25.2299 21.755 26.1149 20.435 26.6249 19.145ZM32.7299 19.145L34.4249 19.58C33.8549 21.065 32.8799 22.505 31.9049 23.42C31.5749 23.12 30.8399 22.64 30.4199 22.415C31.4249 21.65 32.2799 20.405 32.7299 19.145ZM27.1049 21.515L28.5449 20.9C28.9349 21.485 29.3849 22.31 29.5799 22.835L28.0499 23.51C27.8999 22.97 27.4949 22.145 27.1049 21.515ZM33.6149 21.5L35.0999 20.975C35.5799 21.53 36.1349 22.31 36.3899 22.85L34.8299 23.45C34.6199 22.925 34.0949 22.1 33.6149 21.5Z" fill="white"/>
<path d="M42.3449 32V30.74C45.5249 28.265 48.0749 26.03 48.0749 24.26C48.0749 23.135 47.2649 22.445 46.1699 22.445C45.1199 22.445 44.3849 22.97 43.4699 23.915L42.1799 22.67C43.3349 21.38 44.7599 20.675 46.2599 20.675C48.5549 20.675 50.2349 21.935 50.2349 24.185C50.2349 26.345 48.2849 28.25 45.8849 30.275C46.4849 30.215 47.0099 30.17 47.5499 30.17H50.7149V32H42.3449Z" fill="white"/>
<path d="M60.0599 24.95V27.545H62.7149V24.95H60.0599ZM58.3649 23.375H64.5149V29.105H58.3649V23.375ZM55.0649 19.775H67.9349V33.35H65.9849V21.605H56.9249V33.35H55.0649V19.775ZM56.1149 30.86H67.0949V32.54H56.1149V30.86Z" fill="white"/>
<path d="M76.5899 20.045H83.1299V21.665H76.5899V20.045ZM76.0649 20.045H77.7149V25.715C77.7149 28.085 77.5199 31.37 76.0649 33.41C75.7649 33.125 75.0299 32.645 74.6399 32.48C75.9749 30.605 76.0649 27.86 76.0649 25.715V20.045ZM81.3749 23.795H81.6899L81.9899 23.75L83.0399 23.99C82.4999 28.895 80.7599 31.775 77.8049 33.32C77.5799 32.87 77.1299 32.18 76.7699 31.85C79.3349 30.725 80.9399 27.965 81.3749 24.08V23.795ZM78.7799 24.89C79.4999 28.085 81.0599 30.74 83.7149 31.955C83.3249 32.27 82.7999 32.945 82.5449 33.395C79.7099 31.865 78.1799 28.97 77.3099 25.205L78.7799 24.89ZM77.0699 23.795H81.8099V25.355H77.0699V23.795ZM70.9049 29.645L72.5549 30.035C72.1499 31.31 71.4299 32.6 70.6799 33.41C70.3649 33.14 69.6749 32.66 69.2699 32.45C70.0049 31.76 70.6049 30.695 70.9049 29.645ZM72.7349 30.2L74.1299 29.6C74.5949 30.215 75.0899 31.025 75.3299 31.58L73.8749 32.285C73.6649 31.73 73.1699 30.845 72.7349 30.2ZM71.7749 23.99V25.37H73.3799V23.99H71.7749ZM71.7749 26.69V28.1H73.3799V26.69H71.7749ZM71.7749 21.275V22.655H73.3799V21.275H71.7749ZM70.1849 19.85H75.0449V29.525H70.1849V19.85Z" fill="white"/>
<path d="M84.8549 20.465H98.1299V22.1H84.8549V20.465ZM86.2949 23.075H96.7649V24.65H86.2949V23.075ZM85.0649 25.4H97.9499V28.61H96.1349V27.005H86.7899V28.61H85.0649V25.4ZM90.4799 19.28H92.3549V23.945H90.4799V19.28ZM92.2799 27.485H94.0949V31.01C94.0949 31.49 94.1849 31.55 94.7099 31.55C94.9649 31.55 95.9399 31.55 96.2249 31.55C96.7199 31.55 96.8249 31.31 96.8699 29.765C97.2449 30.05 98.0099 30.335 98.4899 30.44C98.2949 32.615 97.8299 33.17 96.4049 33.17C96.0299 33.17 94.8149 33.17 94.4699 33.17C92.7149 33.17 92.2799 32.66 92.2799 31.04V27.485ZM88.5749 27.47H90.4499C90.2249 30.5 89.5649 32.42 85.4249 33.41C85.2599 32.93 84.8099 32.225 84.4349 31.85C88.0349 31.145 88.3949 29.81 88.5749 27.47Z" fill="white"/>
<path d="M35.1479 70.986C35.8919 70.986 36.5699 71.1 37.1819 71.328C37.8059 71.556 38.3039 71.904 38.6759 72.372C39.0599 72.828 39.2519 73.398 39.2519 74.082C39.2519 74.862 39.0299 75.498 38.5859 75.99C38.1539 76.482 37.6079 76.89 36.9479 77.214C37.4039 77.454 37.8359 77.736 38.2439 78.06C38.6639 78.372 38.9999 78.744 39.2519 79.176C39.5159 79.608 39.6479 80.106 39.6479 80.67C39.6479 81.378 39.4559 81.996 39.0719 82.524C38.6999 83.052 38.1719 83.46 37.4879 83.748C36.8159 84.036 36.0359 84.18 35.1479 84.18C33.7079 84.18 32.5919 83.874 31.7999 83.262C31.0199 82.65 30.6299 81.81 30.6299 80.742C30.6299 79.866 30.8699 79.158 31.3499 78.618C31.8299 78.066 32.4119 77.622 33.0959 77.286C32.5199 76.926 32.0279 76.494 31.6199 75.99C31.2239 75.474 31.0259 74.832 31.0259 74.064C31.0259 73.392 31.2179 72.828 31.6019 72.372C31.9859 71.904 32.4899 71.556 33.1139 71.328C33.7499 71.1 34.4279 70.986 35.1479 70.986ZM35.1299 72.966C34.6859 72.966 34.3139 73.086 34.0139 73.326C33.7259 73.554 33.5819 73.872 33.5819 74.28C33.5819 74.724 33.7379 75.084 34.0499 75.36C34.3619 75.636 34.7279 75.876 35.1479 76.08C35.5559 75.888 35.9159 75.66 36.2279 75.396C36.5399 75.12 36.6959 74.748 36.6959 74.28C36.6959 73.872 36.5459 73.554 36.2459 73.326C35.9459 73.086 35.5739 72.966 35.1299 72.966ZM33.1499 80.58C33.1499 81.048 33.3119 81.432 33.6359 81.732C33.9719 82.032 34.4639 82.182 35.1119 82.182C35.7839 82.182 36.2879 82.038 36.6239 81.75C36.9599 81.462 37.1279 81.078 37.1279 80.598C37.1279 80.274 37.0319 79.992 36.8399 79.752C36.6479 79.5 36.4079 79.278 36.1199 79.086C35.8319 78.882 35.5439 78.696 35.2559 78.528L35.0219 78.402C34.4579 78.666 34.0019 78.972 33.6539 79.32C33.3179 79.668 33.1499 80.088 33.1499 80.58Z" fill="#836951"/>
<path d="M47.6447 71.148L42.8567 84H40.4267L45.2147 71.148H47.6447Z" fill="#836951"/>
<path d="M56.9342 74.028C56.9342 74.916 56.6642 75.624 56.1242 76.152C55.5962 76.68 54.9422 77.04 54.1622 77.232V77.286C55.1822 77.418 55.9622 77.736 56.5022 78.24C57.0422 78.744 57.3122 79.416 57.3122 80.256C57.3122 81 57.1262 81.672 56.7542 82.272C56.3942 82.86 55.8302 83.328 55.0622 83.676C54.3062 84.012 53.3282 84.18 52.1282 84.18C50.7362 84.18 49.5002 83.946 48.4202 83.478V81.174C48.9722 81.45 49.5482 81.66 50.1482 81.804C50.7482 81.948 51.3122 82.02 51.8402 82.02C52.8122 82.02 53.4902 81.852 53.8742 81.516C54.2702 81.18 54.4682 80.706 54.4682 80.094C54.4682 79.746 54.3782 79.446 54.1982 79.194C54.0182 78.942 53.7002 78.756 53.2442 78.636C52.8002 78.504 52.1762 78.438 51.3722 78.438H50.4002V76.35H51.3902C52.1822 76.35 52.7822 76.278 53.1902 76.134C53.6102 75.978 53.8922 75.774 54.0362 75.522C54.1922 75.258 54.2702 74.958 54.2702 74.622C54.2702 74.166 54.1262 73.812 53.8382 73.56C53.5622 73.296 53.0942 73.164 52.4342 73.164C51.8222 73.164 51.2882 73.272 50.8322 73.488C50.3762 73.704 49.9982 73.908 49.6982 74.1L48.4382 72.228C48.9422 71.868 49.5302 71.568 50.2022 71.328C50.8862 71.088 51.6962 70.968 52.6322 70.968C53.9522 70.968 54.9962 71.238 55.7642 71.778C56.5442 72.306 56.9342 73.056 56.9342 74.028Z" fill="#836951"/>
<path d="M65.471 84H62.753V76.566C62.753 76.266 62.759 75.864 62.771 75.36C62.783 74.844 62.801 74.394 62.825 74.01C62.765 74.082 62.633 74.214 62.429 74.406C62.237 74.586 62.057 74.748 61.889 74.892L60.413 76.08L59.099 74.442L63.239 71.148H65.471V84Z" fill="#836951"/>
<path d="M40.0253 57.1604C40.0253 56.5315 40.6796 55.6809 41.6406 55.2395C41.6318 54.8567 41.6142 54.4573 41.6142 54.0833C41.0703 54.134 40.5439 54.1604 40.1015 54.177L40 53.2249C40.4677 53.217 41.0283 53.1829 41.5976 53.1399C41.5976 52.7405 41.5976 52.2727 41.6064 51.8137L42.7363 51.8567C42.7197 52.2053 42.7021 52.6213 42.6943 53.0295C43.1699 52.97 43.6201 52.9016 43.9941 52.8254L44.1132 53.7776C43.6884 53.8459 43.1953 53.9133 42.6855 53.9729V54.2874C42.6855 54.4749 42.6855 54.6956 42.6943 54.9417C43.2382 54.7893 43.8242 54.7043 44.3515 54.7043C45.7109 54.7043 46.5185 55.4436 46.5185 56.5315C46.5185 57.7639 45.7197 58.5286 44.4531 58.5286C44.122 58.5286 43.7734 58.4778 43.5273 58.384L43.3652 57.3391C43.6718 57.4661 44.0117 57.5422 44.3261 57.5422C45.0478 57.5422 45.4648 57.1262 45.4648 56.5393C45.4648 56.0129 45.0478 55.6223 44.1728 55.6223C43.7138 55.6223 43.2041 55.7151 42.7109 55.885C42.7285 56.4036 42.7451 56.9309 42.7617 57.3303C42.7705 57.5764 42.7705 57.7385 42.7705 57.9338C42.7705 58.4944 42.3457 58.7415 41.7841 58.7415C40.833 58.7415 40.0253 58.0608 40.0253 57.1604ZM41.5292 57.7209C41.7255 57.7209 41.7929 57.5764 41.7929 57.3391C41.7929 57.1428 41.7841 56.9387 41.7763 56.6584C41.7675 56.5061 41.7675 56.3616 41.7675 56.2249C41.3261 56.4807 41.0195 56.8801 41.0195 57.1516C41.0195 57.4915 41.2919 57.7209 41.5292 57.7209ZM44.4453 53.1057L44.9628 52.2815C45.6855 52.5959 46.2294 52.9534 46.833 53.5393L46.2216 54.3899C45.5917 53.7688 45.1074 53.429 44.4453 53.1057Z" fill="#C67A2C"/>
<path d="M51.9551 57.2112H50.2891V57.8235H49.3545V52.7913H51.9551V51.5588H52.9581V52.7913H55.6094V57.7717H54.6749V57.2112H52.9581V59.2083H51.9551V57.2112ZM51.9971 54.5764V53.5735H50.2891V54.5764H51.9971ZM51.9971 56.429V55.3411H50.2891V56.429H51.9971ZM54.6749 54.5764V53.5735H52.9151V54.5764H54.6749ZM54.6749 56.429V55.3411H52.9151V56.429H54.6749Z" fill="#C67A2C"/>
<path d="M73.9602 75.144H88.0402V77.048H73.9602V75.144ZM79.9602 71.416H82.0082V86.44H79.9602V71.416ZM79.5442 76.2L81.2402 76.76C79.8002 80.136 77.4322 83.192 74.6802 84.936C74.3442 84.44 73.6882 83.688 73.2402 83.288C75.8802 81.848 78.3122 79.016 79.5442 76.2ZM82.3762 76.28C83.6402 79 86.1362 81.784 88.7442 83.192C88.2802 83.576 87.6082 84.344 87.2882 84.872C84.6162 83.144 82.2482 80.088 80.7762 76.84L82.3762 76.28Z" fill="#836951"/>
</svg>
