<svg width="126" height="126" viewBox="0 0 126 126" fill="none" xmlns="http://www.w3.org/2000/svg">
<path d="M62.5322 125.064C97.0678 125.064 125.064 97.0678 125.064 62.5322C125.064 27.9966 97.0678 0 62.5322 0C27.9966 0 0 27.9966 0 62.5322C0 97.0678 27.9966 125.064 62.5322 125.064Z" fill="#E2BC8F"/>
<path d="M120 15H5V37.1839H58.9977L62.5008 42L66.003 37.1839H120V15Z" fill="#C67A2C"/>
<path d="M58.3311 58.1884C58.7305 57.9589 59.1299 57.6787 59.5625 57.3124V55.6298H58.4414V54.7294H60.4805V57.3124C61.042 57.9589 61.6797 58.1289 63.5069 58.1289C64.2969 58.1289 65.0957 58.0947 66.1416 58.0185C65.9883 58.3496 65.8946 58.6474 65.835 59.0039C64.7813 59.0556 64.3223 59.0722 63.626 59.0722C62.3418 59.0722 61.6114 58.9872 61.0762 58.7744C60.6846 58.622 60.3106 58.3154 60.0733 57.9677C59.5625 58.579 59.2149 58.9443 58.875 59.2255L58.3311 58.1884ZM58.628 52.4511L59.334 51.8652C59.8438 52.29 60.2852 52.749 60.6592 53.2421L59.9034 53.8876C59.5118 53.3437 59.0528 52.8251 58.628 52.4511ZM60.753 56.9052C62.0616 56.0634 62.6563 54.8994 62.8262 52.8427H61.2715V51.9414H63.7959V52.3749C63.7871 54.3896 64.544 55.9023 66.0049 56.7949L65.3428 57.7206C64.2627 56.913 63.668 56.038 63.3116 54.7548C62.9883 56.1142 62.4268 57.0068 61.3985 57.746L60.753 56.9052Z" fill="#C67A2C"/>
<path d="M69.7841 57.6192L70.3622 57.2022H67.5322V56.4209H68.331V53.3604H67.6513V52.5957H68.331V51.6436H69.1298V52.5957H70.2011V51.6436H70.9999V52.5957H71.6454V53.3604H70.9999V56.4209H71.7646V57.2022H70.498C70.8046 57.4317 71.1103 57.7461 71.3486 58.086L70.6855 58.7666C70.4218 58.2989 70.0908 57.8829 69.7841 57.6192ZM67.6005 58.5967C68.0673 58.2481 68.4755 57.7637 68.7392 57.2276L69.4872 57.6446C69.1132 58.3838 68.7138 58.9112 68.2714 59.2676L67.6005 58.5967ZM70.2011 53.9219V53.3604H69.1298V53.9219H70.2011ZM70.2011 55.1456V54.585H69.1298V55.1456H70.2011ZM70.2011 56.4209V55.8086H69.1298V56.4209H70.2011ZM71.2206 58.5538C71.7226 57.9678 71.9433 57.1768 71.9433 55.9278V51.9248H74.8925V58.2989C74.8925 58.877 74.6454 59.1065 74.0341 59.1065C73.7109 59.1065 73.3281 59.0889 73.0566 59.0635L72.8867 58.1123C73.1669 58.1456 73.5068 58.1709 73.7109 58.1709C73.957 58.1709 74.0595 58.086 74.0595 57.8907V56.5313H72.7587C72.6913 57.7383 72.4443 58.5625 71.9433 59.3018L71.2206 58.5538ZM74.0595 53.8116V52.7745H72.7763V53.8116H74.0595ZM74.0595 55.7149V54.627H72.7763V55.7149H74.0595Z" fill="#C67A2C"/>
<path d="M76.9971 51.8652H79.292L79.7852 52.3154C79.5977 53.0292 79.3428 53.7773 79.0284 54.4999C79.5127 55.1201 79.7598 55.7744 79.7598 56.454C79.7598 57.2705 79.4873 57.6103 78.8418 57.6103C78.6123 57.6103 78.3145 57.5849 78.1104 57.5507L77.9493 56.6835C78.128 56.7265 78.3653 56.7519 78.5694 56.7519C78.8164 56.7519 78.8926 56.6503 78.8926 56.3359C78.8926 55.7656 78.6123 55.0947 78.1534 54.5419C78.417 53.9218 78.6202 53.3095 78.7393 52.7314H77.8643V59.208H76.9971V51.8652ZM79.2412 58.2558C79.4785 58.2226 79.836 58.163 80.0489 58.1201V51.9247H83.7627V55.579H82.377C82.42 55.9023 82.5391 56.2509 82.709 56.5566C83.0401 56.3183 83.3711 56.0126 83.7198 55.622L84.3916 56.2675C84.0088 56.6074 83.5928 56.913 83.1338 57.2021C83.4571 57.5937 83.9327 57.9589 84.502 58.248L83.8985 59.1406C82.5557 58.2734 81.791 57.1259 81.5186 55.579H80.9327V57.9247C81.2891 57.8398 81.6465 57.7382 82.1563 57.5937L82.25 58.4267C81.3487 58.7578 80.3457 59.0468 79.5381 59.2167L79.2412 58.2558ZM82.8955 53.3945V52.6728H80.9327V53.3945H82.8955ZM82.8955 54.831V54.0751H80.9327V54.831H82.8955Z" fill="#C67A2C"/>
<path d="M13.4949 25.7745H21.2799V24.8445H11.9499V23.3895H23.0499V27.2445H13.4949V25.7745ZM12.5049 25.7745H14.3049C14.0199 27.1995 13.6299 28.8795 13.3149 29.9745L11.5149 29.7645C11.8599 28.6995 12.2649 27.0945 12.5049 25.7745ZM13.1349 28.1295H22.5849V29.6295H12.6849L13.1349 28.1295ZM22.1199 28.1295H23.9199C23.9199 28.1295 23.9049 28.5495 23.8749 28.7745C23.7249 30.7695 23.5449 31.7445 23.1699 32.1645C22.8399 32.5095 22.4799 32.6295 22.0149 32.6745C21.5949 32.7345 20.8749 32.7345 20.1099 32.7195C20.0799 32.1945 19.8699 31.5195 19.5999 31.0695C20.2299 31.1445 20.8599 31.1595 21.1299 31.1445C21.3699 31.1445 21.5049 31.1295 21.6549 31.0095C21.8649 30.7995 21.9999 30.0795 22.1199 28.3395V28.1295ZM16.5699 23.7345H18.3399V33.3495H16.5699V23.7345ZM16.2099 28.6695L17.6049 29.2695C16.2549 30.9645 13.9899 32.4495 11.8149 33.1995C11.5599 32.7645 11.0499 32.1195 10.6749 31.7745C12.7899 31.1895 15.0699 29.9895 16.2099 28.6695ZM12.5499 20.4195H17.2749V21.7995H12.5499V20.4195ZM18.5049 20.4195H24.3249V21.7995H18.5049V20.4195ZM12.6249 19.1445L14.2899 19.5945C13.6749 21.0795 12.6699 22.6095 11.7249 23.5395C11.3949 23.2695 10.6749 22.8045 10.2549 22.5795C11.2299 21.7545 12.1149 20.4345 12.6249 19.1445ZM18.7299 19.1445L20.4249 19.5795C19.8549 21.0645 18.8799 22.5045 17.9049 23.4195C17.5749 23.1195 16.8399 22.6395 16.4199 22.4145C17.4249 21.6495 18.2799 20.4045 18.7299 19.1445ZM13.1049 21.5145L14.5449 20.8995C14.9349 21.4845 15.3849 22.3095 15.5799 22.8345L14.0499 23.5095C13.8999 22.9695 13.4949 22.1445 13.1049 21.5145ZM19.6149 21.4995L21.0999 20.9745C21.5799 21.5295 22.1349 22.3095 22.3899 22.8495L20.8299 23.4495C20.6199 22.9245 20.0949 22.0995 19.6149 21.4995Z" fill="white"/>
<path d="M46.0599 24.9504V27.5454H48.7149V24.9504H46.0599ZM44.3649 23.3754H50.5149V29.1054H44.3649V23.3754ZM41.0649 19.7754H53.9349V33.3504H51.9849V21.6054H42.9249V33.3504H41.0649V19.7754ZM42.1149 30.8604H53.0949V32.5404H42.1149V30.8604Z" fill="white"/>
<path d="M62.59 20.0446H69.13V21.6646H62.59V20.0446ZM62.065 20.0446H63.715V25.7146C63.715 28.0846 63.52 31.3696 62.065 33.4096C61.765 33.1246 61.03 32.6446 60.64 32.4796C61.975 30.6046 62.065 27.8596 62.065 25.7146V20.0446ZM67.375 23.7946H67.69L67.99 23.7496L69.04 23.9896C68.5 28.8946 66.76 31.7746 63.805 33.3196C63.58 32.8696 63.13 32.1796 62.77 31.8496C65.335 30.7246 66.94 27.9646 67.375 24.0796V23.7946ZM64.78 24.8896C65.5 28.0846 67.06 30.7396 69.715 31.9546C69.325 32.2696 68.8 32.9446 68.545 33.3946C65.71 31.8646 64.18 28.9696 63.31 25.2046L64.78 24.8896ZM63.07 23.7946H67.81V25.3546H63.07V23.7946ZM56.905 29.6446L58.555 30.0346C58.15 31.3096 57.43 32.5996 56.68 33.4096C56.365 33.1396 55.675 32.6596 55.27 32.4496C56.005 31.7596 56.605 30.6946 56.905 29.6446ZM58.735 30.1996L60.13 29.5996C60.595 30.2146 61.09 31.0246 61.33 31.5796L59.875 32.2846C59.665 31.7296 59.17 30.8446 58.735 30.1996ZM57.775 23.9896V25.3696H59.38V23.9896H57.775ZM57.775 26.6896V28.0996H59.38V26.6896H57.775ZM57.775 21.2746V22.6546H59.38V21.2746H57.775ZM56.185 19.8496H61.045V29.5246H56.185V19.8496Z" fill="white"/>
<path d="M70.8551 20.4653H84.1301V22.1003H70.8551V20.4653ZM72.2951 23.0753H82.7651V24.6503H72.2951V23.0753ZM71.0651 25.4003H83.9501V28.6103H82.1351V27.0053H72.7901V28.6103H71.0651V25.4003ZM76.4801 19.2803H78.3551V23.9453H76.4801V19.2803ZM78.2801 27.4853H80.0951V31.0103C80.0951 31.4903 80.1851 31.5503 80.7101 31.5503C80.9651 31.5503 81.9401 31.5503 82.2251 31.5503C82.7201 31.5503 82.8251 31.3103 82.8701 29.7653C83.2451 30.0503 84.0101 30.3353 84.4901 30.4403C84.2951 32.6153 83.8301 33.1703 82.4051 33.1703C82.0301 33.1703 80.8151 33.1703 80.4701 33.1703C78.7151 33.1703 78.2801 32.6603 78.2801 31.0403V27.4853ZM74.5751 27.4703H76.4501C76.2251 30.5003 75.5651 32.4203 71.4251 33.4103C71.2601 32.9303 70.8101 32.2253 70.4351 31.8503C74.0351 31.1453 74.3951 29.8103 74.5751 27.4703Z" fill="white"/>
<path d="M94.2099 19.9397H98.0949V21.5597H94.2099V19.9397ZM94.2099 23.3297H98.0949V24.9047H94.2099V23.3297ZM94.2099 26.7497H98.1099V28.3547H94.2099V26.7497ZM97.3149 19.9397H99.0549V31.3697C99.0549 32.2397 98.8899 32.7347 98.3499 33.0047C97.8249 33.2897 97.0599 33.3347 95.9349 33.3347C95.8899 32.8547 95.6499 32.0747 95.4249 31.6247C96.0699 31.6547 96.8049 31.6547 97.0149 31.6397C97.2399 31.6397 97.3149 31.5647 97.3149 31.3397V19.9397ZM93.4749 19.9397H95.1549V25.4447C95.1549 27.8147 94.9599 31.2497 93.6849 33.3797C93.3849 33.0647 92.6499 32.5397 92.2599 32.3597C93.3849 30.4397 93.4749 27.5897 93.4749 25.4447V19.9397ZM85.6149 21.0347H92.9649V22.5947H85.6149V21.0347ZM87.5799 23.4797H91.1499V24.8597H87.5799V23.4797ZM87.5799 25.8197H91.1649V27.1847H87.5799V25.8197ZM85.4349 28.1897H92.8599V29.7647H85.4349V28.1897ZM86.7999 19.4297H88.4199V28.7597H86.7999V19.4297ZM90.2949 19.4297H91.9449V28.7597H90.2949V19.4297ZM87.3099 29.8697L89.0049 30.3647C88.4499 31.4747 87.5649 32.6447 86.7699 33.3797C86.4249 33.0797 85.7349 32.5697 85.3149 32.3297C86.1249 31.7147 86.8899 30.7847 87.3099 29.8697ZM89.5299 30.5447L90.8949 29.7947C91.4949 30.4547 92.2599 31.3697 92.6049 31.9847L91.1499 32.8397C90.8499 32.2397 90.1299 31.2497 89.5299 30.5447Z" fill="white"/>
<path d="M105.43 28.415H109.54V29.705H105.43V28.415ZM105.325 26.195H110.38V31.955H105.325V30.635H108.7V27.515H105.325V26.195ZM104.59 26.195H106.21V32.72H104.59V26.195ZM102.07 21.92H105.835V23.135H102.07V21.92ZM109.03 21.92H112.825V23.135H109.03V21.92ZM112.09 19.835H113.905V31.22C113.905 32.195 113.71 32.72 113.11 33.02C112.51 33.32 111.64 33.35 110.35 33.35C110.275 32.84 110.005 32 109.765 31.52C110.545 31.565 111.46 31.55 111.73 31.55C112 31.55 112.09 31.46 112.09 31.205V19.835ZM102.22 19.835H106.96V25.28H102.22V23.99H105.28V21.14H102.22V19.835ZM113.05 19.835V21.14H109.69V24.035H113.05V25.325H107.98V19.835H113.05ZM101.185 19.835H102.97V33.35H101.185V19.835Z" fill="white"/>
<path d="M51.9551 57.211H50.2891V57.8233H49.3545V52.7911H51.9551V51.5586H52.9581V52.7911H55.6094V57.7715H54.6749V57.211H52.9581V59.2081H51.9551V57.211ZM51.9971 54.5762V53.5733H50.2891V54.5762H51.9971ZM51.9971 56.4288V55.3409H50.2891V56.4288H51.9971ZM54.6749 54.5762V53.5733H52.9151V54.5762H54.6749ZM54.6749 56.4288V55.3409H52.9151V56.4288H54.6749Z" fill="#C67A2C"/>
<path d="M32.4247 32.52C30.3097 32.52 28.8697 31.62 27.9697 30.6L29.0647 29.205C29.8897 30.12 31.0897 30.735 32.2747 30.735C33.5197 30.735 34.3897 30.135 34.3897 29.205C34.3897 28.125 33.5347 27.435 30.8497 27.435V25.845C33.2047 25.845 34.1197 25.08 34.1197 24.15C34.1197 23.355 33.4897 22.755 32.2297 22.755C31.2547 22.755 30.2797 23.16 29.3497 24.105L28.1947 22.77C29.3647 21.675 30.7747 21 32.3197 21C34.7047 21 36.1897 22.185 36.1897 23.925C36.1897 25.2 35.5147 26.115 34.2697 26.52V26.58C35.5447 26.88 36.4747 27.87 36.4747 29.385C36.4747 31.32 34.6297 32.52 32.4247 32.52Z" fill="white"/>
<path d="M27.434 83.9999H24.716V76.5659C24.716 76.2659 24.722 75.8639 24.734 75.3599C24.746 74.8439 24.764 74.3939 24.788 74.0099C24.728 74.0819 24.596 74.2139 24.392 74.4059C24.2 74.5859 24.02 74.7479 23.852 74.8919L22.376 76.0799L21.062 74.4419L25.202 71.1479H27.434V83.9999Z" fill="#836951"/>
<path d="M37.7348 83.9999H35.0168V76.5659C35.0168 76.2659 35.0228 75.8639 35.0348 75.3599C35.0468 74.8439 35.0648 74.3939 35.0888 74.0099C35.0288 74.0819 34.8968 74.2139 34.6928 74.4059C34.5008 74.5859 34.3208 74.7479 34.1528 74.8919L32.6768 76.0799L31.3628 74.4419L35.5028 71.1479H37.7348V83.9999Z" fill="#836951"/>
<path d="M47.9456 71.1479L43.1576 83.9999H40.7276L45.5156 71.1479H47.9456Z" fill="#836951"/>
<path d="M55.4711 83.9999H52.7531V76.5659C52.7531 76.2659 52.7591 75.8639 52.7711 75.3599C52.7831 74.8439 52.8011 74.3939 52.8251 74.0099C52.7651 74.0819 52.6331 74.2139 52.4291 74.4059C52.2371 74.5859 52.0571 74.7479 51.8891 74.8919L50.4131 76.0799L49.0991 74.4419L53.2391 71.1479H55.4711V83.9999Z" fill="#836951"/>
<path d="M67.9859 76.6379C67.9859 77.3699 67.9319 78.1019 67.8239 78.8339C67.7159 79.5539 67.5239 80.2379 67.2479 80.8859C66.9839 81.5219 66.6059 82.0919 66.1139 82.5959C65.6339 83.0879 65.0159 83.4779 64.2599 83.7659C63.5159 84.0419 62.6099 84.1799 61.5419 84.1799C61.2899 84.1799 60.9959 84.1679 60.6599 84.1439C60.3239 84.1319 60.0419 84.1019 59.8139 84.0539V81.8759C60.0539 81.9239 60.3059 81.9659 60.5699 82.0019C60.8339 82.0379 61.0979 82.0559 61.3619 82.0559C62.4299 82.0559 63.2519 81.8879 63.8279 81.5519C64.4159 81.2159 64.8299 80.7479 65.0699 80.1479C65.3099 79.5359 65.4479 78.8339 65.4839 78.0419H65.3759C65.1239 78.4619 64.7879 78.8159 64.3679 79.1039C63.9599 79.3919 63.3479 79.5359 62.5319 79.5359C61.4399 79.5359 60.5639 79.1819 59.9039 78.4739C59.2439 77.7659 58.9139 76.7639 58.9139 75.4679C58.9139 74.0759 59.3039 72.9839 60.0839 72.1919C60.8759 71.3999 61.9439 71.0039 63.2879 71.0039C64.1639 71.0039 64.9559 71.2079 65.6639 71.6159C66.3719 72.0119 66.9359 72.6299 67.3559 73.4699C67.7759 74.2979 67.9859 75.3539 67.9859 76.6379ZM63.3419 73.1819C62.8139 73.1819 62.3819 73.3679 62.0459 73.7399C61.7099 74.0999 61.5419 74.6639 61.5419 75.4319C61.5419 76.0559 61.6859 76.5479 61.9739 76.9079C62.2619 77.2679 62.6999 77.4479 63.2879 77.4479C63.6839 77.4479 64.0319 77.3579 64.3319 77.1779C64.6319 76.9979 64.8659 76.7759 65.0339 76.5119C65.2019 76.2359 65.2859 75.9539 65.2859 75.6659C65.2859 75.2699 65.2139 74.8799 65.0699 74.4959C64.9259 74.1119 64.7099 73.7999 64.4219 73.5599C64.1339 73.3079 63.7739 73.1819 63.3419 73.1819Z" fill="#836951"/>
<path d="M69.9341 79.1595C69.9341 75.3255 71.5361 72.4455 73.4801 70.5195L75.1901 71.2935C73.3721 73.2195 71.9681 75.7215 71.9681 79.1595C71.9681 82.6155 73.3721 85.1175 75.1901 87.0435L73.4801 87.8175C71.5361 85.8915 69.9341 83.0115 69.9341 79.1595Z" fill="#836951"/>
<path d="M76.9541 71.7975H89.5181V87.3855H87.1961V73.9755H79.1861V87.4035H76.9541V71.7975ZM78.4841 77.8455H88.1681V79.9875H78.4841V77.8455ZM78.4661 84.0555H88.1681V86.2335H78.4661V84.0555Z" fill="#836951"/>
<path d="M96.4481 79.1595C96.4481 83.0115 94.8461 85.8915 92.9021 87.8175L91.1921 87.0435C93.0101 85.1175 94.4141 82.6155 94.4141 79.1595C94.4141 75.7215 93.0101 73.2195 91.1921 71.2935L92.9021 70.5195C94.8461 72.4455 96.4481 75.3255 96.4481 79.1595Z" fill="#836951"/>
</svg>
