<svg width="126" height="126" viewBox="0 0 126 126" fill="none" xmlns="http://www.w3.org/2000/svg">
<path d="M125.06 62.53C125.06 97.07 97.06 125.06 62.53 125.06C28 125.06 0 97.07 0 62.53C0 27.99 28 0 62.53 0C97.06 0 125.06 28 125.06 62.53Z" fill="#E2BC8F"/>
<path d="M15 86.4241L15.1331 84.2543C16.2246 84.5718 17.223 84.7968 18.1015 84.7968C19.7521 84.7968 20.3111 84.1749 20.3111 83.2488C20.3111 82.2697 19.5923 81.7802 17.822 81.7802C17.396 81.7802 16.8902 81.7802 16.4243 81.8067V79.8618C17.3161 79.8486 17.9285 79.8353 18.4476 79.7163C19.5391 79.4252 19.9651 78.9886 19.9651 78.2345C19.9651 77.4803 19.3927 76.9908 18.1414 76.9908C17.223 76.9908 16.2379 77.3348 15.3594 77.9302L15.2529 75.7868C16.2912 75.165 17.6622 74.9004 18.8469 74.9004C21.2696 74.9004 22.6539 75.9588 22.6539 77.7317C22.6539 78.9754 21.9351 79.9941 20.604 80.4572C22.1614 80.7085 23 81.7802 23 83.2091C23 85.1672 21.376 86.9004 18.1414 86.9004C17.1564 86.9004 16.0116 86.7284 15.0133 86.4109" fill="#836951"/>
<path d="M27 86.1504C28.5762 84.453 29.1324 82.8872 29.1324 79.9793V73.9004H39V85.7425C39 87.1504 38.5894 87.5057 36.8411 87.5057C36.1126 87.5057 35.0927 87.4793 33.9669 87.4135L33.5298 85.0978C34.5232 85.1767 35.543 85.2425 36.0596 85.2425C36.5762 85.2425 36.7351 85.1372 36.7351 84.7557V83.0057H31.2119C30.9205 84.8872 30.2583 86.2557 28.8013 87.9004L27 86.1372V86.1504ZM36.7351 75.953H31.3974V77.5057H36.7351V75.953ZM36.7351 79.4399H31.3974V81.0714H36.7351V79.4399Z" fill="#836951"/>
<path d="M51.2804 83.2701H48.2247V84.393H46V75.576H51.2804V72.9004H53.6258V75.576H59V84.3514H56.7485V83.2839H53.6124V87.9004H51.267V83.2839L51.2804 83.2701ZM51.2804 77.7664H48.2247V81.0936H51.2804V77.7664ZM56.7619 77.7664H53.6258V81.0936H56.7619V77.7664Z" fill="#836951"/>
<path d="M72.6605 87.7906L72.2307 85.3752H68.5842V86.3496H66.5265V79.2133C66.0707 79.7897 65.6409 80.27 65.2242 80.6817L64 78.5408C65.6409 77.0312 66.7609 75.1785 67.386 72.9004L69.626 73.2709C69.4047 73.9434 69.3395 74.1355 69.2223 74.4786H78C77.987 80.2288 77.7916 84.3322 77.466 85.9653C77.1665 87.4475 76.5935 87.9004 74.9265 87.9004C74.2363 87.9004 73.3377 87.8455 72.6474 87.7906M75.3172 84.7165C75.5256 83.5363 75.6688 80.668 75.747 76.5921H68.2716C68.1153 76.894 67.8809 77.3057 67.6465 77.6488H73.9758V85.3752H72.426C73.1293 85.5125 73.9367 85.5948 74.4446 85.5948C75.0307 85.5948 75.2 85.4164 75.3172 84.7165ZM71.9572 79.5152H68.5842V80.5857H71.9572V79.5152ZM71.9572 82.26H68.5842V83.4127H71.9572V82.26Z" fill="#836951"/>
<path d="M84 83.3519C84 82.243 84.5828 81.1479 85.6928 80.1222L87.7602 81.2588C87.0248 81.7717 86.4281 82.4925 86.4281 83.1578C86.4281 84.0588 87.4688 84.544 89.8831 84.544C91.6452 84.544 93.5738 84.3499 95.4331 83.8925L96.002 86.3321C94.0733 86.7618 91.6729 86.9004 90.0357 86.9004C86.1368 86.9004 84 85.6806 84 83.338M87.7602 78.2925C88.2597 77.8766 88.7592 77.5024 89.2864 77.142C87.5798 77.2252 85.9425 77.2251 84.9574 77.1974L84.8186 74.8826C88.1903 75.0212 90.9514 74.8964 93.3518 74.5915L93.7681 76.8925C93.1021 76.9618 92.894 76.9895 92.2557 77.2945C91.4232 77.6964 90.7849 78.2093 89.7027 79.2212L87.7602 78.3063V78.2925ZM93.4351 73.8845L94.7393 73.3024C95.3082 74.1895 95.6135 74.8687 95.9881 75.9776L94.6145 76.6291C94.2676 75.5479 93.9762 74.8271 93.4212 73.8845M95.4886 73.4964L96.8067 72.9004C97.3895 73.8152 97.6809 74.5222 98 75.5756L96.6402 76.2133C96.3072 75.1044 96.002 74.3697 95.4886 73.5103" fill="#836951"/>
<path d="M104.876 85.7771C108.739 85.5031 110.637 84.4757 110.637 82.7908C110.637 81.736 109.761 81.1196 108.155 81.1196C107.013 81.1196 106.004 81.462 104.969 82.2429C104.106 82.8867 103.668 83.3524 102.712 84.4757L101 82.8045C102.566 81.3798 104.969 78.9415 106.947 76.4757C105.566 76.6538 104.119 76.7771 103.336 76.8045L102.951 74.5442C104.584 74.5305 106.867 74.4209 109.588 73.9004L110.77 75.4483C109.535 76.8456 108.487 78.01 107.398 79.147C107.783 79.0648 108.155 79.0374 108.553 79.0374C111.115 79.0374 113 80.5442 113 82.736C113 85.7497 110.743 87.3798 106.044 87.9004L104.876 85.7771Z" fill="#836951"/>
<path d="M40.9699 37.6C40.9699 36.97 41.6199 36.12 42.5799 35.68C42.5799 35.3 42.5499 34.9 42.5499 34.52C42.0099 34.57 41.4799 34.6 41.0399 34.61L40.9399 33.66C41.4099 33.66 41.9699 33.62 42.5399 33.58C42.5399 33.18 42.5399 32.71 42.5399 32.25L43.6699 32.29C43.6499 32.64 43.6399 33.05 43.6299 33.46C44.1099 33.4 44.5599 33.33 44.9299 33.26L45.0499 34.21C44.6199 34.28 44.1299 34.35 43.6199 34.41V34.73C43.6199 34.92 43.6199 35.14 43.6199 35.38C44.1599 35.23 44.7499 35.14 45.2799 35.14C46.6399 35.14 47.4499 35.88 47.4499 36.97C47.4499 38.2 46.6499 38.97 45.3799 38.97C45.0499 38.97 44.6999 38.92 44.4499 38.83L44.2899 37.78C44.5999 37.91 44.9399 37.98 45.2499 37.98C45.9699 37.98 46.3899 37.56 46.3899 36.98C46.3899 36.45 45.9699 36.06 45.0999 36.06C44.6399 36.06 44.1299 36.15 43.6399 36.32C43.6599 36.84 43.6699 37.37 43.6899 37.77C43.6899 38.02 43.6899 38.18 43.6899 38.37C43.6899 38.93 43.2699 39.18 42.6999 39.18C41.7499 39.18 40.9399 38.5 40.9399 37.6M42.4399 38.16C42.6399 38.16 42.6999 38.02 42.6999 37.78C42.6999 37.58 42.6999 37.38 42.6799 37.1C42.6799 36.95 42.6799 36.8 42.6799 36.67C42.2399 36.93 41.9299 37.32 41.9299 37.6C41.9299 37.94 42.1999 38.17 42.4399 38.17M45.3599 33.56L45.8799 32.74C46.5999 33.05 47.1499 33.41 47.7499 34L47.1399 34.85C46.5099 34.23 46.0299 33.89 45.3599 33.57" fill="#C67A2C"/>
<path d="M49.49 38.8899C50.09 38.0699 50.32 37.1599 50.32 35.5699V32.4199H56.75V34.6499H54.64V35.5699H56.82V39.6599H55.92V39.2999H52.48V39.6599H51.58V35.5699H53.72V34.6499H51.27V35.5299C51.27 37.4899 50.98 38.6399 50.24 39.6699L49.48 38.8999L49.49 38.8899ZM55.8 33.1799H51.28V33.9399H55.8V33.1799ZM53.74 36.2799H52.48V37.0399H53.74V36.2799ZM53.74 37.7299H52.48V38.5399H53.74V37.7299ZM55.92 36.2799H54.62V37.0399H55.92V36.2799ZM55.92 37.7299H54.62V38.5399H55.92V37.7299Z" fill="#C67A2C"/>
<path d="M59.5798 36.3C59.5798 35.59 59.7098 34.14 59.9098 32.64L60.9498 32.8C60.6398 34.58 60.5398 35.68 60.5398 36.43C60.5398 36.73 60.5398 37.03 60.5898 37.29C60.7198 36.95 60.8998 36.58 61.0798 36.26L61.6198 36.87C61.3598 37.32 61.2398 37.58 61.1398 37.87C61.0298 38.18 60.9598 38.51 60.9898 38.86L60.1798 39.18C59.7398 38.34 59.5698 37.4 59.5698 36.31M61.6698 34.3C62.3898 34.33 63.1198 34.32 63.7998 34.28C63.7698 33.68 63.7198 33.02 63.6498 32.29L64.7298 32.21C64.7698 32.9 64.8198 33.56 64.8398 34.18C65.2998 34.12 65.7098 34.04 66.0698 33.96L66.1798 34.98C65.8098 35.06 65.3598 35.12 64.8898 35.17C64.8898 35.43 64.8898 35.66 64.8898 35.88C64.8898 37.98 64.5898 38.75 63.4998 39.65L62.4298 39.19C63.6398 38.27 63.8398 37.38 63.8398 35.72C63.8398 35.57 63.8398 35.4 63.8398 35.24C63.1198 35.28 62.3798 35.29 61.7398 35.27L61.6698 34.28V34.3Z" fill="#C67A2C"/>
<path d="M69.7799 39.5107L69.5599 38.5007C70.0699 38.5707 70.4899 38.6107 70.7299 38.6107C70.9699 38.6107 71.0399 38.5607 71.0399 38.3407V35.9807H67.8999V35.1007H71.7499C71.1499 34.6707 70.4499 34.2407 69.7299 33.8707L70.3899 33.3407H68.6099V32.4707H73.8599L74.3699 33.0007C73.7899 33.4507 73.1499 33.8807 72.3099 34.3907C72.5399 34.5307 72.6899 34.6407 72.8599 34.7607L72.3699 35.1107H74.7799L75.2199 35.5707C74.5699 36.5107 73.9599 37.2307 73.2599 37.9007L72.3599 37.3607C72.8999 36.9407 73.3699 36.4707 73.6999 36.0007H72.0499V38.8007C72.0499 39.4007 71.7999 39.6207 71.1099 39.6207C70.6699 39.6207 70.1499 39.5907 69.7799 39.5407M72.5899 33.3607H70.4699C70.6199 33.4307 71.1699 33.7207 71.5699 33.9507C72.0099 33.7207 72.3699 33.5207 72.5799 33.3607" fill="#C67A2C"/>
<path d="M76.8999 38.92C77.6799 38.21 78.2199 37.17 78.4599 35.92L79.3999 36.15C79.2699 36.61 79.1699 36.97 79.0899 37.18C79.3599 37.54 79.7399 37.84 80.1699 38.06V35.35H78.4699V34.55H82.9099V35.35H81.1599V36.39H83.6599V37.19H81.1599V38.34C81.7399 38.42 82.3499 38.46 83.0599 38.46C83.5199 38.46 83.9399 38.44 84.4899 38.41C84.3199 38.81 84.2399 39.03 84.1699 39.41C83.6899 39.43 83.4799 39.43 83.2099 39.43C80.7399 39.43 79.5699 39.06 78.7599 38.01C78.4399 38.71 78.0599 39.24 77.5899 39.69L76.9099 38.93L76.8999 38.92ZM77.2099 32.97H80.1699V32H81.1699V32.97H84.1799V34.93H83.2099V33.77H78.1799V34.93H77.2099V32.97Z" fill="#C67A2C"/>
<path d="M50.3122 56.9002H46.3202V56.0602L47.7522 54.6122C48.0402 54.3135 48.2722 54.0655 48.4482 53.8682C48.6242 53.6655 48.7522 53.4842 48.8322 53.3242C48.9122 53.1588 48.9522 52.9828 48.9522 52.7962C48.9522 52.5668 48.8882 52.3962 48.7602 52.2842C48.6375 52.1722 48.4695 52.1162 48.2562 52.1162C48.0375 52.1162 47.8242 52.1668 47.6162 52.2682C47.4082 52.3695 47.1895 52.5135 46.9602 52.7002L46.3042 51.9242C46.4642 51.7855 46.6375 51.6548 46.8242 51.5322C47.0109 51.4042 47.2242 51.3028 47.4642 51.2282C47.7095 51.1482 48.0029 51.1082 48.3442 51.1082C48.7175 51.1082 49.0375 51.1775 49.3042 51.3162C49.5762 51.4495 49.7842 51.6335 49.9282 51.8682C50.0775 52.0975 50.1522 52.3588 50.1522 52.6522C50.1522 52.9668 50.0882 53.2548 49.9602 53.5162C49.8375 53.7775 49.6562 54.0362 49.4162 54.2922C49.1815 54.5482 48.8962 54.8308 48.5602 55.1402L47.8242 55.8282V55.8842H50.3122V56.9002Z" fill="#836951"/>
<path d="M57.2583 54.0442C57.2583 54.6575 57.1917 55.1828 57.0583 55.6202C56.9303 56.0575 56.7197 56.3935 56.4263 56.6282C56.133 56.8628 55.7437 56.9802 55.2583 56.9802C54.5703 56.9802 54.0663 56.7215 53.7463 56.2042C53.4263 55.6868 53.2663 54.9668 53.2663 54.0442C53.2663 53.4308 53.3303 52.9055 53.4583 52.4682C53.5863 52.0255 53.797 51.6868 54.0903 51.4522C54.3837 51.2175 54.773 51.1002 55.2583 51.1002C55.941 51.1002 56.445 51.3588 56.7703 51.8762C57.0957 52.3935 57.2583 53.1162 57.2583 54.0442ZM54.4663 54.0442C54.4663 54.6948 54.5223 55.1855 54.6343 55.5162C54.7463 55.8415 54.9543 56.0042 55.2583 56.0042C55.557 56.0042 55.765 55.8415 55.8823 55.5162C55.9997 55.1908 56.0583 54.7002 56.0583 54.0442C56.0583 53.3935 55.9997 52.9028 55.8823 52.5722C55.765 52.2415 55.557 52.0762 55.2583 52.0762C54.9543 52.0762 54.7463 52.2415 54.6343 52.5722C54.5223 52.9028 54.4663 53.3935 54.4663 54.0442Z" fill="#836951"/>
<path d="M64.2684 56.9002H60.2764V56.0602L61.7084 54.6122C61.9964 54.3135 62.2284 54.0655 62.4044 53.8682C62.5804 53.6655 62.7084 53.4842 62.7884 53.3242C62.8684 53.1588 62.9084 52.9828 62.9084 52.7962C62.9084 52.5668 62.8444 52.3962 62.7164 52.2842C62.5938 52.1722 62.4258 52.1162 62.2124 52.1162C61.9938 52.1162 61.7804 52.1668 61.5724 52.2682C61.3644 52.3695 61.1458 52.5135 60.9164 52.7002L60.2604 51.9242C60.4204 51.7855 60.5938 51.6548 60.7804 51.5322C60.9671 51.4042 61.1804 51.3028 61.4204 51.2282C61.6658 51.1482 61.9591 51.1082 62.3005 51.1082C62.6738 51.1082 62.9938 51.1775 63.2604 51.3162C63.5324 51.4495 63.7404 51.6335 63.8844 51.8682C64.0338 52.0975 64.1084 52.3588 64.1084 52.6522C64.1084 52.9668 64.0444 53.2548 63.9164 53.5162C63.7938 53.7775 63.6124 54.0362 63.3724 54.2922C63.1378 54.5482 62.8524 54.8308 62.5164 55.1402L61.7804 55.8282V55.8842H64.2684V56.9002Z" fill="#836951"/>
<path d="M69.3346 53.2522C69.6812 53.2522 69.9906 53.3188 70.2626 53.4522C70.5346 53.5855 70.7479 53.7802 70.9026 54.0362C71.0626 54.2922 71.1426 54.6095 71.1426 54.9882C71.1426 55.6068 70.9506 56.0948 70.5666 56.4522C70.1826 56.8042 69.6146 56.9802 68.8626 56.9802C68.5639 56.9802 68.2812 56.9535 68.0146 56.9002C67.7532 56.8468 67.5239 56.7695 67.3266 56.6682V55.6282C67.5239 55.7295 67.7612 55.8175 68.0386 55.8922C68.3159 55.9615 68.5772 55.9962 68.8226 55.9962C69.1799 55.9962 69.4519 55.9242 69.6386 55.7802C69.8306 55.6308 69.9266 55.4015 69.9266 55.0922C69.9266 54.5162 69.5452 54.2282 68.7826 54.2282C68.6332 54.2282 68.4786 54.2442 68.3186 54.2762C68.1586 54.3028 68.0252 54.3295 67.9186 54.3562L67.4386 54.1002L67.6546 51.1882H70.7506V52.2122H68.7106L68.6066 53.3322C68.6972 53.3162 68.7932 53.3002 68.8946 53.2842C69.0012 53.2628 69.1479 53.2522 69.3346 53.2522Z" fill="#836951"/>
<path d="M75.8967 50.0762L76.8727 50.3242C76.4487 51.5162 75.7447 52.6682 75.0327 53.3882C74.8487 53.2202 74.4407 52.9002 74.2087 52.7642C74.9287 52.1402 75.5527 51.1162 75.8967 50.0762ZM76.0647 50.9882H81.1527V51.9162H75.6007L76.0647 50.9882ZM75.4967 52.8762H80.9687V53.7722H76.4647V55.4522H75.4967V52.8762ZM74.2327 54.9802H81.5927V55.9082H74.2327V54.9802ZM77.8487 51.4682H78.8407V57.6202H77.8487V51.4682Z" fill="#836951"/>
</svg>
