<svg width="126" height="126" viewBox="0 0 126 126" fill="none" xmlns="http://www.w3.org/2000/svg">
<path d="M125.06 62.53C125.06 97.07 97.06 125.06 62.53 125.06C28 125.06 0 97.07 0 62.53C0 27.99 28 0 62.53 0C97.06 0 125.06 28 125.06 62.53Z" fill="#E2BC8F"/>
<path d="M46.77 62.2801C48.7 60.8401 49.62 59.8901 49.62 58.9201C49.62 58.2001 49.17 57.9001 48.53 57.9001C47.95 57.9001 47.42 58.1401 46.98 58.5001L46.94 57.4401C47.4 57.1101 48.09 56.8701 48.85 56.8701C50.05 56.8701 50.84 57.5401 50.84 58.7201C50.84 59.8201 50.06 60.8801 48.4 62.1401H50.89V63.1201H46.77V62.3001V62.2801Z" fill="#836951"/>
<path d="M53.22 60.1099C53.22 58.0799 54.17 56.8599 55.67 56.8599C57.17 56.8599 58 57.9399 58 59.9399C58 61.9399 57.08 63.1699 55.57 63.1699C54.06 63.1699 53.22 62.0799 53.22 60.1099ZM56.77 60.0399C56.77 58.4899 56.4 57.9099 55.59 57.9099C54.86 57.9099 54.44 58.5899 54.44 60.0199C54.44 61.4499 54.85 62.1399 55.63 62.1399C56.35 62.1399 56.77 61.4899 56.77 60.0499" fill="#836951"/>
<path d="M60.28 62.2801C62.21 60.8401 63.13 59.8901 63.13 58.9201C63.13 58.2001 62.68 57.9001 62.04 57.9001C61.46 57.9001 60.93 58.1401 60.49 58.5001L60.45 57.4401C60.91 57.1101 61.6 56.8701 62.36 56.8701C63.56 56.8701 64.35 57.5401 64.35 58.7201C64.35 59.8201 63.57 60.8801 61.91 62.1401H64.4V63.1201H60.28V62.3001V62.2801Z" fill="#836951"/>
<path d="M69.4801 61.7501H66.5601V60.9801L69.3601 56.8901H70.6401V60.8201H71.5701V61.7601H70.6501V63.1101H69.4801V61.7601V61.7501ZM69.5101 60.8101L69.5401 58.1601L67.7601 60.8101H69.5101Z" fill="#836951"/>
<path d="M77.4 61.8501H73.81V61.0201H75.07V58.8901H77.4V57.7701H75.73C75.38 58.4601 74.93 59.0701 74.42 59.5801L73.71 58.8501C74.5 58.1401 75.04 57.2001 75.31 56.1001L76.31 56.2801C76.23 56.5301 76.16 56.7601 76.09 56.9501H80.83V57.7701H78.38V58.8901H80.47V59.6901H78.38V61.0301H81.27V61.8601H78.38V63.7601H77.39V61.8601L77.4 61.8501ZM77.4 59.6801H76.01V61.0101H77.4V59.6801Z" fill="#836951"/>
<path d="M40.9699 43.6C40.9699 42.97 41.6199 42.12 42.5799 41.68C42.5799 41.3 42.5499 40.9 42.5499 40.52C42.0099 40.57 41.4799 40.6 41.0399 40.61L40.9399 39.66C41.4099 39.66 41.9699 39.62 42.5399 39.58C42.5399 39.18 42.5399 38.71 42.5399 38.25L43.6699 38.29C43.6499 38.64 43.6399 39.05 43.6299 39.46C44.1099 39.4 44.5599 39.33 44.9299 39.26L45.0499 40.21C44.6199 40.28 44.1299 40.35 43.6199 40.41V40.73C43.6199 40.92 43.6199 41.14 43.6199 41.38C44.1599 41.23 44.7499 41.14 45.2799 41.14C46.6399 41.14 47.4499 41.88 47.4499 42.97C47.4499 44.2 46.6499 44.97 45.3799 44.97C45.0499 44.97 44.6999 44.92 44.4499 44.83L44.2899 43.78C44.5999 43.91 44.9399 43.98 45.2499 43.98C45.9699 43.98 46.3899 43.56 46.3899 42.98C46.3899 42.45 45.9699 42.06 45.0999 42.06C44.6399 42.06 44.1299 42.15 43.6399 42.32C43.6599 42.84 43.6699 43.37 43.6899 43.77C43.6899 44.02 43.6899 44.18 43.6899 44.37C43.6899 44.93 43.2699 45.18 42.6999 45.18C41.7499 45.18 40.9399 44.5 40.9399 43.6M42.4399 44.16C42.6399 44.16 42.6999 44.02 42.6999 43.78C42.6999 43.58 42.6999 43.38 42.6799 43.1C42.6799 42.95 42.6799 42.8 42.6799 42.67C42.2399 42.93 41.9299 43.32 41.9299 43.6C41.9299 43.94 42.1999 44.17 42.4399 44.17M45.3599 39.56L45.8799 38.74C46.5999 39.05 47.1499 39.41 47.7499 40L47.1399 40.85C46.5099 40.23 46.0299 39.89 45.3599 39.57" fill="#C67A2C"/>
<path d="M49.49 44.8899C50.09 44.0699 50.32 43.1599 50.32 41.5699V38.4199H56.75V40.6499H54.64V41.5699H56.82V45.6599H55.92V45.2999H52.48V45.6599H51.58V41.5699H53.72V40.6499H51.27V41.5299C51.27 43.4899 50.98 44.6399 50.24 45.6699L49.48 44.8999L49.49 44.8899ZM55.8 39.1799H51.28V39.9399H55.8V39.1799ZM53.74 42.2799H52.48V43.0399H53.74V42.2799ZM53.74 43.7299H52.48V44.5399H53.74V43.7299ZM55.92 42.2799H54.62V43.0399H55.92V42.2799ZM55.92 43.7299H54.62V44.5399H55.92V43.7299Z" fill="#C67A2C"/>
<path d="M59.5799 42.3C59.5799 41.59 59.7099 40.14 59.9099 38.64L60.9499 38.8C60.6399 40.58 60.5399 41.68 60.5399 42.43C60.5399 42.73 60.5399 43.03 60.5899 43.29C60.7199 42.95 60.8999 42.58 61.0799 42.26L61.6199 42.87C61.3599 43.32 61.2399 43.58 61.1399 43.87C61.0299 44.18 60.9599 44.51 60.9899 44.86L60.1799 45.18C59.7399 44.34 59.5699 43.4 59.5699 42.31M61.6699 40.3C62.3899 40.33 63.1199 40.32 63.7999 40.28C63.7699 39.68 63.7199 39.02 63.6499 38.29L64.7299 38.21C64.7699 38.9 64.8199 39.56 64.8399 40.18C65.2999 40.12 65.7099 40.04 66.0699 39.96L66.1799 40.98C65.8099 41.06 65.3599 41.12 64.8899 41.17C64.8899 41.43 64.8899 41.66 64.8899 41.88C64.8899 43.98 64.5899 44.75 63.4999 45.65L62.4299 45.19C63.6399 44.27 63.8399 43.38 63.8399 41.72C63.8399 41.57 63.8399 41.4 63.8399 41.24C63.1199 41.28 62.3799 41.29 61.7399 41.27L61.6699 40.28V40.3Z" fill="#C67A2C"/>
<path d="M69.78 45.5097L69.56 44.4997C70.07 44.5697 70.49 44.6097 70.73 44.6097C70.97 44.6097 71.04 44.5597 71.04 44.3397V41.9797H67.9V41.0997H71.75C71.15 40.6697 70.45 40.2397 69.73 39.8697L70.39 39.3397H68.61V38.4697H73.86L74.37 38.9997C73.79 39.4497 73.15 39.8797 72.31 40.3897C72.54 40.5297 72.69 40.6397 72.86 40.7597L72.37 41.1097H74.78L75.22 41.5697C74.57 42.5097 73.96 43.2297 73.26 43.8997L72.36 43.3597C72.9 42.9397 73.37 42.4697 73.7 41.9997H72.05V44.7997C72.05 45.3997 71.8 45.6197 71.11 45.6197C70.67 45.6197 70.15 45.5897 69.78 45.5397M72.59 39.3597H70.47C70.62 39.4297 71.17 39.7197 71.57 39.9497C72.01 39.7197 72.37 39.5197 72.58 39.3597" fill="#C67A2C"/>
<path d="M76.9 44.92C77.68 44.21 78.22 43.17 78.46 41.92L79.4 42.15C79.27 42.61 79.17 42.97 79.09 43.18C79.36 43.54 79.74 43.84 80.17 44.06V41.35H78.47V40.55H82.91V41.35H81.16V42.39H83.66V43.19H81.16V44.34C81.74 44.42 82.35 44.46 83.06 44.46C83.52 44.46 83.94 44.44 84.49 44.41C84.32 44.81 84.24 45.03 84.17 45.41C83.69 45.43 83.48 45.43 83.21 45.43C80.74 45.43 79.57 45.06 78.76 44.01C78.44 44.71 78.06 45.24 77.59 45.69L76.91 44.93L76.9 44.92ZM77.21 38.97H80.17V38H81.17V38.97H84.18V40.93H83.21V39.77H78.18V40.93H77.21V38.97Z" fill="#C67A2C"/>
<path d="M30.42 80.174C30.42 80.7434 30.378 81.3127 30.294 81.882C30.21 82.442 30.0654 82.974 29.86 83.478C29.6547 83.9727 29.37 84.416 29.006 84.808C28.642 85.1907 28.1754 85.494 27.606 85.718C27.046 85.9327 26.3647 86.04 25.562 86.04C25.3754 86.04 25.1514 86.0307 24.89 86.012C24.638 85.9934 24.428 85.9654 24.26 85.928V84.472C24.4374 84.5187 24.6287 84.556 24.834 84.584C25.0487 84.612 25.2587 84.626 25.464 84.626C26.0987 84.626 26.6214 84.542 27.032 84.374C27.452 84.1967 27.7787 83.954 28.012 83.646C28.2547 83.3287 28.432 82.96 28.544 82.54C28.656 82.1107 28.7214 81.6534 28.74 81.168H28.656C28.516 81.3827 28.348 81.5787 28.152 81.756C27.9654 81.9334 27.7274 82.0734 27.438 82.176C27.158 82.2787 26.8034 82.33 26.374 82.33C25.8047 82.33 25.3054 82.2087 24.876 81.966C24.456 81.7234 24.1294 81.3734 23.896 80.916C23.6627 80.4494 23.546 79.8847 23.546 79.222C23.546 78.5034 23.6814 77.8874 23.952 77.374C24.2227 76.8607 24.6054 76.4687 25.1 76.198C25.604 75.918 26.192 75.778 26.864 75.778C27.368 75.778 27.8347 75.8714 28.264 76.058C28.6934 76.2354 29.0667 76.506 29.384 76.87C29.7107 77.2247 29.9627 77.6774 30.14 78.228C30.3267 78.7787 30.42 79.4274 30.42 80.174ZM26.892 77.234C26.416 77.234 26.0287 77.3927 25.73 77.71C25.4314 78.0274 25.282 78.522 25.282 79.194C25.282 79.7447 25.408 80.1787 25.66 80.496C25.9214 80.804 26.318 80.958 26.85 80.958C27.214 80.958 27.5267 80.8787 27.788 80.72C28.0587 80.5614 28.2687 80.3654 28.418 80.132C28.5674 79.8987 28.642 79.6514 28.642 79.39C28.642 79.138 28.6047 78.886 28.53 78.634C28.4554 78.3727 28.3434 78.1347 28.194 77.92C28.054 77.7054 27.872 77.5374 27.648 77.416C27.4334 77.2947 27.1814 77.234 26.892 77.234Z" fill="#836951"/>
<path d="M34.7777 74.672V76.31H41.7777V74.672H34.7777ZM34.7917 78.018V79.614H41.8477V78.018H34.7917ZM34.7217 81.336V82.96H41.7497V81.336H34.7217ZM33.6297 74.672V79.306C33.6297 81.448 33.4337 84.15 31.3057 85.956C31.6697 86.18 32.3557 86.81 32.6077 87.16C34.9737 85.172 35.3517 81.742 35.3517 79.306V74.672H33.6297ZM40.9937 74.672V85.004C40.9937 85.298 40.8817 85.396 40.5597 85.41C40.2237 85.41 39.0617 85.424 38.0677 85.368C38.3477 85.816 38.6697 86.628 38.7677 87.132C40.2237 87.132 41.2177 87.104 41.8897 86.81C42.5337 86.53 42.7717 86.026 42.7717 85.032V74.672H40.9937Z" fill="#836951"/>
<path d="M46.2297 76.45V83.548H47.9237V78.102H56.0437V83.478H57.8077V76.45H46.2297ZM47.1117 81.112V82.764H57.0237V81.112H47.1117ZM51.0877 74.014V87.16H52.8657V74.014H51.0877Z" fill="#836951"/>
<path d="M62.8617 81.028V82.372H66.7537V81.028H62.8617ZM62.8897 78.592V80.034H66.2217V83.436H62.8897V84.878H67.8457V78.592H62.8897ZM61.9937 78.592V85.676H63.5897V78.592H61.9937ZM62.5117 75.82V77.43H71.1077V75.82H62.5117ZM70.6037 75.82V76.17C70.4637 82.218 70.3097 84.78 69.8197 85.27C69.6517 85.452 69.4837 85.522 69.1897 85.522C68.7977 85.522 67.9297 85.522 66.9497 85.438C67.2717 85.928 67.5097 86.684 67.5377 87.146C68.4197 87.188 69.3717 87.202 69.9457 87.118C70.5617 87.02 70.9677 86.852 71.3877 86.278C71.9897 85.494 72.1437 83.17 72.3117 76.646C72.3117 76.422 72.3257 75.82 72.3257 75.82H70.6037ZM62.6797 74.014C62.0077 76.31 60.7897 78.522 59.3057 79.866C59.7537 80.104 60.5377 80.678 60.8737 80.986C62.3157 79.46 63.6597 76.996 64.4717 74.434L62.6797 74.014Z" fill="#836951"/>
<path d="M75.7417 75.876V77.724C76.8897 77.808 78.1077 77.878 79.5777 77.878C80.9077 77.878 82.6437 77.794 83.6237 77.71V75.848C82.5457 75.96 80.9357 76.044 79.5637 76.044C78.0937 76.044 76.7777 75.988 75.7417 75.876ZM76.9317 81.798L75.0837 81.644C74.9717 82.162 74.8037 82.848 74.8037 83.66C74.8037 85.578 76.4137 86.656 79.6197 86.656C81.5937 86.656 83.2737 86.474 84.4917 86.18L84.4777 84.22C83.2317 84.556 81.4537 84.766 79.5637 84.766C77.5337 84.766 76.6937 84.122 76.6937 83.226C76.6937 82.75 76.7917 82.302 76.9317 81.798ZM83.9877 74.42L82.8677 74.882C83.2457 75.414 83.6797 76.254 83.9737 76.828L85.0937 76.352C84.8277 75.834 84.3377 74.938 83.9877 74.42ZM85.6397 73.79L84.5337 74.252C84.9117 74.784 85.3737 75.596 85.6537 76.184L86.7737 75.694C86.5217 75.204 86.0037 74.322 85.6397 73.79Z" fill="#836951"/>
<path d="M90.0357 75.344L90.0777 77.164C90.3857 77.122 90.8897 77.066 91.2397 77.038C91.9117 76.996 93.8577 76.898 94.6137 76.87C93.5077 78.018 90.0637 80.846 88.1877 82.274L89.5037 83.66C91.0157 82.134 92.5277 80.748 94.7117 80.748C96.3077 80.748 97.3157 81.574 97.3157 82.68C97.3157 84.528 95.0197 85.34 91.1557 84.836L91.6457 86.67C96.8257 87.076 99.2477 85.452 99.2477 82.68C99.2477 80.72 97.5537 79.264 95.0897 79.264C94.7397 79.264 94.2217 79.32 93.7737 79.46C94.9777 78.522 96.3357 77.458 97.1337 76.856C97.3297 76.73 97.6517 76.506 97.9177 76.38L96.9797 75.148C96.7137 75.204 96.2937 75.274 95.9717 75.302C95.0477 75.358 91.9257 75.4 91.1837 75.4C90.7077 75.4 90.2737 75.372 90.0357 75.344Z" fill="#836951"/>
</svg>
