<svg width="126" height="126" viewBox="0 0 126 126" fill="none" xmlns="http://www.w3.org/2000/svg">
<g clip-path="url(#clip0_1242_112)">
<path d="M125.06 62.53C125.06 97.07 97.06 125.06 62.53 125.06C28 125.06 0 97.07 0 62.53C0 27.99 28 0 62.53 0C97.06 0 125.06 28 125.06 62.53Z" fill="#E2BC8F"/>
<path d="M46.7695 62.2801C48.6995 60.8401 49.6195 59.8901 49.6195 58.9201C49.6195 58.2001 49.1695 57.9001 48.5295 57.9001C47.9495 57.9001 47.4195 58.1401 46.9795 58.5001L46.9395 57.4401C47.3995 57.1101 48.0895 56.8701 48.8495 56.8701C50.0495 56.8701 50.8395 57.5401 50.8395 58.7201C50.8395 59.8201 50.0595 60.8801 48.3995 62.1401H50.8895V63.1201H46.7695V62.3001V62.2801Z" fill="#836951"/>
<path d="M53.2197 60.1099C53.2197 58.0799 54.1697 56.8599 55.6697 56.8599C57.1697 56.8599 57.9997 57.9399 57.9997 59.9399C57.9997 61.9399 57.0797 63.1699 55.5697 63.1699C54.0597 63.1699 53.2197 62.0799 53.2197 60.1099ZM56.7697 60.0399C56.7697 58.4899 56.3997 57.9099 55.5897 57.9099C54.8597 57.9099 54.4397 58.5899 54.4397 60.0199C54.4397 61.4499 54.8497 62.1399 55.6297 62.1399C56.3497 62.1399 56.7697 61.4899 56.7697 60.0499" fill="#836951"/>
<path d="M60.2803 62.2801C62.2103 60.8401 63.1303 59.8901 63.1303 58.9201C63.1303 58.2001 62.6803 57.9001 62.0403 57.9001C61.4603 57.9001 60.9303 58.1401 60.4903 58.5001L60.4503 57.4401C60.9103 57.1101 61.6003 56.8701 62.3603 56.8701C63.5603 56.8701 64.3503 57.5401 64.3503 58.7201C64.3503 59.8201 63.5703 60.8801 61.9103 62.1401H64.4003V63.1201H60.2803V62.3001V62.2801Z" fill="#836951"/>
<path d="M69.4806 61.7501H66.5605V60.9801L69.3605 56.8901H70.6405V60.8201H71.5705V61.7601H70.6506V63.1101H69.4806V61.7601V61.7501ZM69.5106 60.8101L69.5406 58.1601L67.7606 60.8101H69.5106Z" fill="#836951"/>
<path d="M77.4 61.8501H73.81V61.0201H75.07V58.8901H77.4V57.7701H75.73C75.38 58.4601 74.93 59.0701 74.42 59.5801L73.71 58.8501C74.5 58.1401 75.04 57.2001 75.31 56.1001L76.31 56.2801C76.23 56.5301 76.16 56.7601 76.09 56.9501H80.83V57.7701H78.38V58.8901H80.47V59.6901H78.38V61.0301H81.27V61.8601H78.38V63.7601H77.39V61.8601L77.4 61.8501ZM77.4 59.6801H76.01V61.0101H77.4V59.6801Z" fill="#836951"/>
<path d="M40.9695 43.6C40.9695 42.97 41.6195 42.12 42.5795 41.68C42.5795 41.3 42.5495 40.9 42.5495 40.52C42.0095 40.57 41.4795 40.6 41.0395 40.61L40.9395 39.66C41.4095 39.66 41.9695 39.62 42.5395 39.58C42.5395 39.18 42.5395 38.71 42.5395 38.25L43.6695 38.29C43.6495 38.64 43.6395 39.05 43.6295 39.46C44.1095 39.4 44.5595 39.33 44.9295 39.26L45.0495 40.21C44.6195 40.28 44.1295 40.35 43.6195 40.41V40.73C43.6195 40.92 43.6195 41.14 43.6195 41.38C44.1595 41.23 44.7495 41.14 45.2795 41.14C46.6395 41.14 47.4495 41.88 47.4495 42.97C47.4495 44.2 46.6495 44.97 45.3795 44.97C45.0495 44.97 44.6995 44.92 44.4495 44.83L44.2895 43.78C44.5995 43.91 44.9395 43.98 45.2495 43.98C45.9695 43.98 46.3895 43.56 46.3895 42.98C46.3895 42.45 45.9695 42.06 45.0995 42.06C44.6395 42.06 44.1295 42.15 43.6395 42.32C43.6595 42.84 43.6695 43.37 43.6895 43.77C43.6895 44.02 43.6895 44.18 43.6895 44.37C43.6895 44.93 43.2695 45.18 42.6995 45.18C41.7495 45.18 40.9395 44.5 40.9395 43.6M42.4395 44.16C42.6395 44.16 42.6995 44.02 42.6995 43.78C42.6995 43.58 42.6995 43.38 42.6795 43.1C42.6795 42.95 42.6795 42.8 42.6795 42.67C42.2395 42.93 41.9295 43.32 41.9295 43.6C41.9295 43.94 42.1995 44.17 42.4395 44.17M45.3595 39.56L45.8795 38.74C46.5995 39.05 47.1495 39.41 47.7495 40L47.1395 40.85C46.5095 40.23 46.0295 39.89 45.3595 39.57" fill="#C67A2C"/>
<path d="M49.4905 44.8899C50.0905 44.0699 50.3205 43.1599 50.3205 41.5699V38.4199H56.7505V40.6499H54.6405V41.5699H56.8205V45.6599H55.9205V45.2999H52.4805V45.6599H51.5805V41.5699H53.7205V40.6499H51.2705V41.5299C51.2705 43.4899 50.9805 44.6399 50.2405 45.6699L49.4805 44.8999L49.4905 44.8899ZM55.8005 39.1799H51.2805V39.9399H55.8005V39.1799ZM53.7405 42.2799H52.4805V43.0399H53.7405V42.2799ZM53.7405 43.7299H52.4805V44.5399H53.7405V43.7299ZM55.9205 42.2799H54.6205V43.0399H55.9205V42.2799ZM55.9205 43.7299H54.6205V44.5399H55.9205V43.7299Z" fill="#C67A2C"/>
<path d="M59.5803 42.3C59.5803 41.59 59.7103 40.14 59.9103 38.64L60.9503 38.8C60.6403 40.58 60.5403 41.68 60.5403 42.43C60.5403 42.73 60.5403 43.03 60.5903 43.29C60.7203 42.95 60.9003 42.58 61.0803 42.26L61.6203 42.87C61.3603 43.32 61.2403 43.58 61.1403 43.87C61.0303 44.18 60.9603 44.51 60.9903 44.86L60.1803 45.18C59.7403 44.34 59.5703 43.4 59.5703 42.31M61.6703 40.3C62.3903 40.33 63.1203 40.32 63.8003 40.28C63.7703 39.68 63.7203 39.02 63.6503 38.29L64.7303 38.21C64.7703 38.9 64.8203 39.56 64.8403 40.18C65.3003 40.12 65.7103 40.04 66.0703 39.96L66.1803 40.98C65.8103 41.06 65.3603 41.12 64.8903 41.17C64.8903 41.43 64.8903 41.66 64.8903 41.88C64.8903 43.98 64.5903 44.75 63.5003 45.65L62.4303 45.19C63.6403 44.27 63.8403 43.38 63.8403 41.72C63.8403 41.57 63.8403 41.4 63.8403 41.24C63.1203 41.28 62.3803 41.29 61.7403 41.27L61.6703 40.28V40.3Z" fill="#C67A2C"/>
<path d="M69.7804 45.5097L69.5604 44.4997C70.0704 44.5697 70.4904 44.6097 70.7304 44.6097C70.9704 44.6097 71.0404 44.5597 71.0404 44.3397V41.9797H67.9004V41.0997H71.7504C71.1504 40.6697 70.4504 40.2397 69.7304 39.8697L70.3904 39.3397H68.6104V38.4697H73.8604L74.3704 38.9997C73.7904 39.4497 73.1504 39.8797 72.3104 40.3897C72.5404 40.5297 72.6904 40.6397 72.8604 40.7597L72.3704 41.1097H74.7804L75.2204 41.5697C74.5704 42.5097 73.9604 43.2297 73.2604 43.8997L72.3604 43.3597C72.9004 42.9397 73.3704 42.4697 73.7004 41.9997H72.0504V44.7997C72.0504 45.3997 71.8004 45.6197 71.1104 45.6197C70.6704 45.6197 70.1504 45.5897 69.7804 45.5397M72.5904 39.3597H70.4704C70.6204 39.4297 71.1704 39.7197 71.5704 39.9497C72.0104 39.7197 72.3704 39.5197 72.5804 39.3597" fill="#C67A2C"/>
<path d="M76.9004 44.92C77.6804 44.21 78.2204 43.17 78.4604 41.92L79.4004 42.15C79.2704 42.61 79.1704 42.97 79.0904 43.18C79.3604 43.54 79.7404 43.84 80.1704 44.06V41.35H78.4704V40.55H82.9104V41.35H81.1604V42.39H83.6604V43.19H81.1604V44.34C81.7404 44.42 82.3504 44.46 83.0604 44.46C83.5204 44.46 83.9404 44.44 84.4904 44.41C84.3204 44.81 84.2404 45.03 84.1704 45.41C83.6904 45.43 83.4804 45.43 83.2104 45.43C80.7404 45.43 79.5704 45.06 78.7604 44.01C78.4404 44.71 78.0604 45.24 77.5904 45.69L76.9104 44.93L76.9004 44.92ZM77.2104 38.97H80.1704V38H81.1704V38.97H84.1804V40.93H83.2104V39.77H78.1804V40.93H77.2104V38.97Z" fill="#C67A2C"/>
<path d="M39.9378 74.6719V76.3099H46.9378V74.6719H39.9378ZM39.9518 78.0179V79.6139H47.0078V78.0179H39.9518ZM39.8818 81.3359V82.9599H46.9098V81.3359H39.8818ZM38.7898 74.6719V79.3059C38.7898 81.4479 38.5938 84.1499 36.4658 85.9559C36.8298 86.1799 37.5158 86.8099 37.7678 87.1599C40.1338 85.1719 40.5118 81.7419 40.5118 79.3059V74.6719H38.7898ZM46.1538 74.6719V85.0039C46.1538 85.2979 46.0418 85.3959 45.7198 85.4099C45.3838 85.4099 44.2218 85.4239 43.2278 85.3679C43.5078 85.8159 43.8298 86.6279 43.9278 87.1319C45.3838 87.1319 46.3778 87.1039 47.0498 86.8099C47.6938 86.5299 47.9318 86.0259 47.9318 85.0319V74.6719H46.1538Z" fill="#836951"/>
<path d="M51.3896 76.4499V83.5479H53.0836V78.1019H61.2037V83.4779H62.9677V76.4499H51.3896ZM52.2716 81.1119V82.7639H62.1837V81.1119H52.2716ZM56.2477 74.0139V87.1599H58.0257V74.0139H56.2477Z" fill="#836951"/>
<path d="M68.0218 81.0279V82.3719H71.9138V81.0279H68.0218ZM68.0498 78.5919V80.0339H71.3818V83.4359H68.0498V84.8779H73.0058V78.5919H68.0498ZM67.1538 78.5919V85.6759H68.7498V78.5919H67.1538ZM67.6718 75.8199V77.4299H76.2678V75.8199H67.6718ZM75.7638 75.8199V76.1699C75.6238 82.2179 75.4698 84.7799 74.9798 85.2699C74.8118 85.4519 74.6438 85.5219 74.3498 85.5219C73.9578 85.5219 73.0898 85.5219 72.1098 85.4379C72.4318 85.9279 72.6698 86.6839 72.6978 87.1459C73.5798 87.1879 74.5318 87.2019 75.1058 87.1179C75.7218 87.0199 76.1278 86.8519 76.5478 86.2779C77.1498 85.4939 77.3038 83.1699 77.4718 76.6459C77.4718 76.4219 77.4858 75.8199 77.4858 75.8199H75.7638ZM67.8398 74.0139C67.1678 76.3099 65.9498 78.5219 64.4658 79.8659C64.9138 80.1039 65.6978 80.6779 66.0338 80.9859C67.4758 79.4599 68.8198 76.9959 69.6318 74.4339L67.8398 74.0139Z" fill="#836951"/>
<path d="M80.9019 75.876V77.724C82.0499 77.808 83.2679 77.878 84.7379 77.878C86.0679 77.878 87.8039 77.794 88.7839 77.71V75.848C87.7059 75.96 86.0959 76.044 84.7239 76.044C83.2539 76.044 81.9379 75.988 80.9019 75.876ZM82.0919 81.798L80.2439 81.644C80.1319 82.162 79.9639 82.848 79.9639 83.66C79.9639 85.578 81.5739 86.656 84.7799 86.656C86.7539 86.656 88.4339 86.474 89.6519 86.18L89.6379 84.22C88.3919 84.556 86.6139 84.766 84.7239 84.766C82.6939 84.766 81.8539 84.122 81.8539 83.226C81.8539 82.75 81.9519 82.302 82.0919 81.798ZM89.1479 74.42L88.0279 74.882C88.4059 75.414 88.8399 76.254 89.1339 76.828L90.2539 76.352C89.9879 75.834 89.4979 74.938 89.1479 74.42ZM90.7999 73.79L89.6939 74.252C90.0719 74.784 90.5339 75.596 90.8139 76.184L91.9339 75.694C91.6819 75.204 91.1639 74.322 90.7999 73.79Z" fill="#836951"/>
<path d="M95.1957 75.3439L95.2377 77.1639C95.5457 77.1219 96.0497 77.0659 96.3997 77.0379C97.0717 76.9959 99.0177 76.8979 99.7737 76.8699C98.6677 78.0179 95.2237 80.8459 93.3477 82.2739L94.6637 83.66C96.1757 82.134 97.6877 80.7479 99.8717 80.7479C101.468 80.7479 102.476 81.5739 102.476 82.6799C102.476 84.5279 100.18 85.3399 96.3157 84.8359L96.8057 86.6699C101.986 87.0759 104.408 85.4519 104.408 82.6799C104.408 80.7199 102.714 79.2639 100.25 79.2639C99.8997 79.2639 99.3817 79.3199 98.9337 79.4599C100.138 78.5219 101.496 77.4579 102.294 76.8559C102.49 76.7299 102.812 76.5059 103.078 76.3799L102.14 75.1479C101.874 75.2039 101.454 75.2739 101.132 75.3019C100.208 75.3579 97.0857 75.3999 96.3437 75.3999C95.8677 75.3999 95.4337 75.3719 95.1957 75.3439Z" fill="#836951"/>
<path d="M26.508 86H24.646V79.77C24.646 79.5647 24.646 79.3547 24.646 79.14C24.6553 78.9253 24.66 78.7107 24.66 78.496C24.6693 78.272 24.6787 78.0667 24.688 77.88C24.5947 77.9733 24.4873 78.0853 24.366 78.216C24.254 78.3467 24.128 78.4727 23.988 78.594L22.952 79.49L22 78.398L24.912 76.004H26.508V86Z" fill="#836951"/>
<path d="M35.7762 86H29.2662V84.698L31.6322 82.122C32.1082 81.6087 32.4909 81.17 32.7802 80.806C33.0696 80.4327 33.2796 80.0873 33.4102 79.77C33.5502 79.4527 33.6202 79.1073 33.6202 78.734C33.6202 78.2767 33.5036 77.936 33.2702 77.712C33.0462 77.4787 32.7476 77.362 32.3742 77.362C32.0009 77.362 31.6462 77.4507 31.3102 77.628C30.9836 77.796 30.6382 78.0387 30.2742 78.356L29.2522 77.194C29.5229 76.9513 29.8076 76.732 30.1062 76.536C30.4049 76.3307 30.7502 76.1673 31.1422 76.046C31.5436 75.9247 32.0056 75.864 32.5282 75.864C33.1349 75.864 33.6576 75.9807 34.0962 76.214C34.5442 76.438 34.8896 76.7507 35.1322 77.152C35.3749 77.5533 35.4962 78.02 35.4962 78.552C35.4962 78.9627 35.4356 79.3407 35.3142 79.686C35.2022 80.0313 35.0342 80.372 34.8102 80.708C34.5862 81.044 34.3202 81.3893 34.0122 81.744C33.7042 82.0987 33.3589 82.486 32.9762 82.906L31.6182 84.39V84.474H35.7762V86Z" fill="#836951"/>
</g>
<defs>
<clipPath id="clip0_1242_112">
<rect width="126" height="126" fill="white"/>
</clipPath>
</defs>
</svg>
