<svg width="327" height="3" viewBox="0 0 327 3" fill="none" xmlns="http://www.w3.org/2000/svg">
<circle cx="1.5" cy="1.5" r="1.5" fill="#BAA280"/>
<circle cx="13.5" cy="1.5" r="1.5" fill="#BAA280"/>
<circle cx="25.5" cy="1.5" r="1.5" fill="#BAA280"/>
<circle cx="37.5" cy="1.5" r="1.5" fill="#BAA280"/>
<circle cx="49.5" cy="1.5" r="1.5" fill="#BAA280"/>
<circle cx="61.5" cy="1.5" r="1.5" fill="#BAA280"/>
<circle cx="73.5" cy="1.5" r="1.5" fill="#BAA280"/>
<circle cx="85.5" cy="1.5" r="1.5" fill="#BAA280"/>
<circle cx="97.5" cy="1.5" r="1.5" fill="#BAA280"/>
<circle cx="109.5" cy="1.5" r="1.5" fill="#BAA280"/>
<circle cx="121.5" cy="1.5" r="1.5" fill="#BAA280"/>
<circle cx="133.5" cy="1.5" r="1.5" fill="#BAA280"/>
<circle cx="145.5" cy="1.5" r="1.5" fill="#BAA280"/>
<circle cx="157.5" cy="1.5" r="1.5" fill="#BAA280"/>
<circle cx="169.5" cy="1.5" r="1.5" fill="#BAA280"/>
<circle cx="181.5" cy="1.5" r="1.5" fill="#BAA280"/>
<circle cx="193.5" cy="1.5" r="1.5" fill="#BAA280"/>
<circle cx="205.5" cy="1.5" r="1.5" fill="#BAA280"/>
<circle cx="217.5" cy="1.5" r="1.5" fill="#BAA280"/>
<circle cx="229.5" cy="1.5" r="1.5" fill="#BAA280"/>
<circle cx="241.5" cy="1.5" r="1.5" fill="#BAA280"/>
<circle cx="253.5" cy="1.5" r="1.5" fill="#BAA280"/>
<circle cx="265.5" cy="1.5" r="1.5" fill="#BAA280"/>
<circle cx="277.5" cy="1.5" r="1.5" fill="#BAA280"/>
<circle cx="289.5" cy="1.5" r="1.5" fill="#BAA280"/>
<circle cx="301.5" cy="1.5" r="1.5" fill="#BAA280"/>
<circle cx="313.5" cy="1.5" r="1.5" fill="#BAA280"/>
<circle cx="325.5" cy="1.5" r="1.5" fill="#BAA280"/>
</svg>
