<svg width="334" height="69" viewBox="0 0 334 69" fill="none" xmlns="http://www.w3.org/2000/svg">
<path d="M5 5H334V68H5V5Z" fill="white"/>
<path fill-rule="evenodd" clip-rule="evenodd" d="M334 5.5H56.5V4.5H334V5.5ZM5 67.5H334V68.5H5V67.5Z" fill="#AC7746"/>
<path d="M2.45995 5.52379C2.45995 3.61579 3.29995 2.47579 4.61995 2.47579C5.93995 2.47579 6.77995 3.61579 6.77995 5.52379C6.77995 7.51579 5.93995 8.71579 4.61995 8.71579C3.29995 8.71579 2.45995 7.51579 2.45995 5.52379ZM8.66395 10.8398C8.41195 10.9238 8.07595 10.9838 7.69195 10.9838C6.88795 10.9838 6.08395 10.7078 5.67595 10.0358C7.43995 9.57979 8.59195 7.94779 8.59195 5.52379C8.59195 2.64379 6.97195 0.951786 4.61995 0.951786C2.26795 0.951786 0.647949 2.63179 0.647949 5.52379C0.647949 8.05579 1.90795 9.73579 3.80395 10.0958C4.41595 11.4398 5.67595 12.4118 7.48795 12.4118C8.13595 12.4118 8.67595 12.2918 8.97595 12.1478L8.66395 10.8398Z" fill="#535353"/>
<path d="M13.3743 10.1678C14.2983 10.1678 14.9463 9.72379 15.5223 9.03979H15.5703L15.7023 9.99979H17.1423V3.27979H15.3783V7.81579C14.9223 8.41579 14.5623 8.65579 14.0103 8.65579C13.3623 8.65579 13.0743 8.29579 13.0743 7.25179V3.27979H11.3103V7.47979C11.3103 9.15979 11.9343 10.1678 13.3743 10.1678Z" fill="#535353"/>
<path d="M21.8789 10.1678C22.6469 10.1678 23.3189 9.78379 23.9069 9.27979H23.9429L24.0749 9.99979H25.5149V6.07579C25.5149 4.13179 24.6389 3.11179 22.9349 3.11179C21.8789 3.11179 20.9189 3.50779 20.1269 3.99979L20.7629 5.16379C21.3869 4.80379 21.9869 4.52779 22.6109 4.52779C23.4389 4.52779 23.7269 5.03179 23.7509 5.69179C21.0509 5.97979 19.8869 6.73579 19.8869 8.17579C19.8869 9.31579 20.6789 10.1678 21.8789 10.1678ZM22.4549 8.78779C21.9389 8.78779 21.5669 8.55979 21.5669 8.03179C21.5669 7.43179 22.1189 6.98779 23.7509 6.77179V8.12779C23.3309 8.54779 22.9589 8.78779 22.4549 8.78779Z" fill="#535353"/>
<path d="M30.1688 10.1678C30.5768 10.1678 30.8768 10.0958 31.0808 10.0118L30.8648 8.70378C30.7448 8.72778 30.6968 8.72779 30.6248 8.72779C30.4568 8.72779 30.2648 8.59579 30.2648 8.19979V0.423786H28.5128V8.11579C28.5128 9.36379 28.9448 10.1678 30.1688 10.1678Z" fill="#535353"/>
<path d="M33.498 9.99979H35.25V3.27979H33.498V9.99979ZM34.3859 2.19979C34.9859 2.19979 35.43 1.79179 35.43 1.23979C35.43 0.663785 34.9859 0.279785 34.3859 0.279785C33.7739 0.279785 33.3299 0.663785 33.3299 1.23979C33.3299 1.79179 33.7739 2.19979 34.3859 2.19979Z" fill="#535353"/>
<path d="M40.8025 10.1678C41.3905 10.1678 41.8585 10.0358 42.2185 9.91579L41.9305 8.63179C41.7505 8.70379 41.4865 8.77579 41.2705 8.77579C40.6705 8.77579 40.3585 8.41579 40.3585 7.64779V4.67179H42.0145V3.27979H40.3585V1.47979H38.8825L38.6785 3.27979L37.6465 3.36379V4.67179H38.5945V7.64779C38.5945 9.15979 39.2065 10.1678 40.8025 10.1678Z" fill="#535353"/>
<path d="M45.1695 12.6998C46.6695 12.6998 47.3895 11.7878 47.9775 10.2038L50.3655 3.27979H48.6735L47.7495 6.39979C47.5935 7.02379 47.4255 7.67179 47.2695 8.29579H47.2095C47.0175 7.64779 46.8495 6.99979 46.6455 6.39979L45.5775 3.27979H43.8015L46.4175 9.87979L46.2975 10.2758C46.1055 10.8638 45.7215 11.2958 45.0375 11.2958C44.8815 11.2958 44.6895 11.2478 44.5695 11.2118L44.2455 12.5678C44.5095 12.6518 44.7735 12.6998 45.1695 12.6998Z" fill="#535353"/>
<path d="M66.3759 35.2239H73.5999V36.7239H75.1239V33.9039H70.7199V32.8359H69.2079V33.9039H64.9239V36.7239H66.3759V35.2239ZM71.6919 38.6319C71.4399 39.5559 71.0199 40.2759 70.4319 40.8519C69.6399 40.5639 68.8599 40.2999 68.1399 40.0959C68.3799 39.6279 68.6439 39.1359 68.8959 38.6319H71.6919ZM75.3399 38.6319V37.2879H69.5679C69.8199 36.7839 70.0599 36.2919 70.2759 35.8239L68.7759 35.5119C68.5359 36.0639 68.2479 36.6759 67.9359 37.2879H64.6719V38.6319H67.2519C66.7359 39.6039 66.2319 40.5159 65.7999 41.2119L67.2999 41.6199L67.5159 41.2359C68.0199 41.3919 68.5359 41.5839 69.0639 41.7759C67.9839 42.2919 66.6159 42.5799 64.9359 42.7479C65.2119 43.0599 65.6199 43.7079 65.7519 44.0439C67.7679 43.7559 69.3999 43.2879 70.6719 42.4359C71.8839 42.9639 72.9879 43.5279 73.7199 44.0199L74.8599 42.8559C74.1039 42.3879 73.0239 41.8839 71.8599 41.4039C72.5079 40.6719 72.9999 39.7719 73.3479 38.6319H75.3399Z" fill="#AC7746"/>
<path d="M85.5159 37.2879C86.4639 38.6079 87.3039 40.4439 87.5439 41.6679L88.9959 40.9479C88.6959 39.6999 87.8439 37.9479 86.8239 36.6279L85.5159 37.2879ZM78.6399 37.1079C78.4839 38.7039 78.1359 40.2519 77.4279 41.2839L78.7599 42.0519C79.5519 40.8759 79.8639 39.0399 80.0439 37.3959L78.6399 37.1079ZM80.8359 33.9879C82.2399 34.5279 83.9079 35.4519 84.8319 36.2199L85.7679 34.9599C84.8199 34.2639 83.1639 33.3759 81.7479 32.8719L80.8359 33.9879ZM80.7879 36.2559V41.9559C80.7879 43.4559 81.2079 43.9239 82.7319 43.9239H84.6879C86.1279 43.9239 86.5119 43.2159 86.6679 40.9839C86.2719 40.8759 85.6719 40.6239 85.3359 40.3599C85.2519 42.2439 85.1559 42.6159 84.5679 42.6159H82.9239C82.3599 42.6159 82.2759 42.5319 82.2759 41.9559V36.2559H80.7879Z" fill="#AC7746"/>
<path d="M93.6759 40.8399C93.2319 40.8399 92.7519 40.2519 92.7519 39.0519C92.7519 37.7439 93.7959 36.0159 95.7639 35.6079C95.6199 36.5919 95.4039 37.6119 95.1279 38.4879C94.6479 40.0959 94.1679 40.8399 93.6759 40.8399ZM96.9399 43.4919C99.9399 43.0359 101.476 41.2599 101.476 38.7639C101.476 36.1719 99.6159 34.1199 96.6759 34.1199C93.5919 34.1199 91.2039 36.4719 91.2039 39.2079C91.2039 41.2119 92.3199 42.6639 93.6279 42.6639C94.9239 42.6639 95.9559 41.1999 96.6639 38.7999C96.9999 37.6839 97.2039 36.5799 97.3719 35.5719C98.9679 35.8479 99.8559 37.0719 99.8559 38.7159C99.8559 40.4439 98.6799 41.5359 97.1559 41.8959C96.8439 41.9679 96.5079 42.0279 96.0519 42.0879L96.9399 43.4919Z" fill="#AC7746"/>
<path d="M106.936 41.6799V38.9919H112.264V41.6799H106.936ZM112.264 34.9959V37.5759H106.936V34.9959H112.264ZM105.46 33.5559V43.8999H106.936V43.1199H112.264V43.8759H113.8V33.5559H105.46Z" fill="#AC7746"/>
<path d="M123.544 40.5639V37.9239C124.084 38.8959 124.732 39.7959 125.452 40.5639H123.544ZM120.16 40.5639C120.868 39.7959 121.504 38.9079 122.044 37.9479V40.5639H120.16ZM128.092 36.6039V35.1639H123.544V32.8479H122.044V35.1639H117.532V36.6039H121.192C120.268 38.4519 118.756 40.1799 117.064 41.1039C117.4 41.3799 117.856 41.9319 118.108 42.2919C118.768 41.8719 119.404 41.3439 119.98 40.7559V42.0159H122.044V44.0439H123.544V42.0159H125.536V40.6479C126.136 41.2839 126.796 41.8239 127.492 42.2559C127.744 41.8479 128.236 41.2479 128.596 40.9599C126.88 40.0599 125.344 38.4039 124.408 36.6039H128.092Z" fill="#AC7746"/>
<path d="M140.956 32.9199H139.66V37.6839C139.66 37.8399 139.612 37.8879 139.432 37.8879C139.264 37.8999 138.688 37.8999 138.148 37.8759C138.316 38.1879 138.508 38.6679 138.568 39.0039C139.396 39.0039 139.984 38.9919 140.404 38.8119C140.836 38.6319 140.956 38.3319 140.956 37.7199V32.9199ZM138.352 33.3159H137.08V37.3119H138.352V33.3159ZM139.756 40.4199C139.276 40.7679 138.616 41.1639 138.052 41.4519C137.716 41.1519 137.428 40.8039 137.2 40.4199H139.756ZM131.62 34.9959C131.728 34.8519 131.824 34.6839 131.92 34.5159H133.06V34.9959H131.62ZM140.188 40.4199H141.388V39.2919H136.708V38.6679H135.436C135.652 38.6559 135.844 38.6199 136 38.5479C136.312 38.4039 136.396 38.1879 136.396 37.7319V36.3759H134.272V35.9559H136.588V34.9959H134.272V34.5159H136.264V33.6039H134.272V32.8359H133.06V33.6039H132.376C132.448 33.4359 132.508 33.2799 132.568 33.1119L131.524 32.8479C131.32 33.4719 130.984 34.1199 130.588 34.5759C130.78 34.6719 131.092 34.8519 131.332 34.9959H130.6V35.9559H133.06V36.3759H131.08V38.7279H132.16V37.2399H133.06V38.9919H134.272V37.2399H135.256V37.7319C135.256 37.8279 135.22 37.8639 135.112 37.8639C135.028 37.8639 134.74 37.8639 134.464 37.8519C134.584 38.0799 134.752 38.4039 134.812 38.6799C134.992 38.6799 135.148 38.6799 135.292 38.6799V39.2919H130.624V40.4199H134.128C133.096 40.8999 131.74 41.2479 130.42 41.4279C130.672 41.6919 131.008 42.1599 131.176 42.4599C131.848 42.3399 132.52 42.1719 133.156 41.9559V42.6279C132.724 42.6759 132.316 42.7239 131.968 42.7599L132.172 43.9239C133.492 43.7319 135.28 43.4919 136.972 43.2519L136.924 42.1359C136.12 42.2439 135.304 42.3519 134.524 42.4479V41.4039C135.04 41.1519 135.52 40.8639 135.94 40.5519C136.84 42.4599 138.34 43.5879 140.836 44.0679C141.004 43.7199 141.34 43.2039 141.616 42.9279C140.596 42.7719 139.732 42.5079 139.012 42.1239C139.648 41.8239 140.38 41.4279 140.992 41.0199L140.188 40.4199Z" fill="#AC7746"/>
<path fill-rule="evenodd" clip-rule="evenodd" d="M41 53C49.2843 53 56 46.2843 56 38C56 29.7157 49.2843 23 41 23C32.7157 23 26 29.7157 26 38C26 46.2843 32.7157 53 41 53ZM41 54C49.8366 54 57 46.8366 57 38C57 29.1634 49.8366 22 41 22C32.1634 22 25 29.1634 25 38C25 46.8366 32.1634 54 41 54Z" fill="#AC7746"/>
<g clip-path="url(#clip0_700_21)">
<path fill-rule="evenodd" clip-rule="evenodd" d="M40.08 27.7847L41.3749 28.9149L42.7191 27.8998L43.0264 28.1904L42.6829 28.5537C43.0264 28.1904 43.0263 28.1903 43.0264 28.1904L43.028 28.1919L43.0303 28.1941L43.0375 28.201L43.0614 28.2245C43.0813 28.2443 43.1092 28.2726 43.1437 28.3088C43.2126 28.3812 43.3082 28.4859 43.4199 28.6196C43.6426 28.8863 43.9323 29.2723 44.2016 29.7517C44.6592 30.5666 45.0751 31.6843 44.9648 32.9548C46.0302 32.5555 47.157 32.6005 48.0342 32.7488C48.5708 32.8395 49.0336 32.9721 49.3624 33.0819C49.5273 33.137 49.6596 33.1868 49.752 33.2233C49.7982 33.2416 49.8345 33.2566 49.86 33.2674L49.8901 33.2803L49.8988 33.2841L49.9016 33.2853L49.9025 33.2857C49.9027 33.2858 49.9033 33.2861 49.6991 33.7425L49.9025 33.2857L50.3169 33.471L49.7691 35.1118L51.5975 36.2538L50.9691 36.5734C50.9293 36.6624 50.8741 36.7799 50.8026 36.918C50.6424 37.2274 50.3982 37.6447 50.0611 38.0777C49.3952 38.9328 48.3312 39.8924 46.7993 40.14C47.7768 41.1248 48.1489 42.4667 48.2872 43.5169C48.3592 44.0641 48.3703 44.5519 48.3635 44.9032C48.3601 45.0793 48.3522 45.2222 48.345 45.3224C48.3414 45.3726 48.338 45.4122 48.3354 45.44L48.3321 45.4727L48.3311 45.4823L48.3308 45.4853L48.3306 45.4863C48.3306 45.4865 48.3306 45.4871 47.8338 45.43L48.3306 45.4863L48.2781 45.9436L46.574 45.8922L46.1547 47.5401L45.7379 47.5106L45.7732 47.0119C45.7379 47.5106 45.7382 47.5106 45.7379 47.5106L45.7359 47.5105L45.7326 47.5102L45.7226 47.5094L45.6894 47.5064C45.6615 47.5037 45.6223 47.4996 45.5729 47.4934C45.4743 47.4811 45.335 47.4608 45.1653 47.4281C44.8267 47.3629 44.362 47.2477 43.8554 47.0464C43.0192 46.7142 42.0376 46.1342 41.3407 45.1306C40.7785 46.106 39.905 46.7936 39.151 47.2475C38.683 47.5292 38.245 47.7306 37.9237 47.8618C37.7626 47.9276 37.6299 47.9762 37.536 48.0087C37.489 48.025 37.4517 48.0373 37.4253 48.0457L37.3942 48.0555L37.3851 48.0583L37.3822 48.0592L37.3811 48.0595C37.381 48.0596 37.3804 48.0597 37.2376 47.5806L37.3811 48.0595L36.9363 48.1921L36.3175 46.5751L34.6627 46.8246L34.5284 46.4283L35.002 46.2678C34.5284 46.4283 34.5285 46.4285 34.5284 46.4283L34.5278 46.4264L34.5267 46.4233L34.5236 46.4138L34.5134 46.3818C34.505 46.3548 34.4935 46.3167 34.4799 46.2683C34.4526 46.1716 34.4168 46.0337 34.3801 45.8626C34.3071 45.5212 34.2301 45.0426 34.2144 44.4913C34.1831 43.3956 34.3935 41.9589 35.4224 40.7663C35.5166 40.6571 35.6168 40.5484 35.722 40.4407C35.6253 40.4325 35.5299 40.4222 35.4362 40.4096C34.0197 40.22 32.9058 39.3206 32.1714 38.5273C31.7989 38.1249 31.5101 37.7349 31.3141 37.4452C31.2159 37.3001 31.1403 37.1792 31.0887 37.0934C31.0628 37.0505 31.0429 37.0162 31.0291 36.9921L31.0129 36.9634L31.0083 36.9551L31.0068 36.9524L31.0063 36.9515C31.0062 36.9514 31.006 36.9508 31.445 36.7116L31.0063 36.9515L30.79 36.5545L32.2025 35.5859L31.5984 33.9981L31.9456 33.7801L32.2115 34.2035C31.9456 33.7801 31.9454 33.7802 31.9456 33.7801L31.9474 33.779L31.9501 33.7772L31.9586 33.772L31.9873 33.7548C32.0114 33.7405 32.0457 33.7206 32.0892 33.6964C32.1763 33.6479 32.301 33.5819 32.4576 33.5078C32.7698 33.3601 33.2133 33.1782 33.7404 33.0412C34.7886 32.7687 36.219 32.6621 37.5927 33.4239C37.6167 33.4373 37.6412 33.4511 37.6652 33.4649C37.6602 33.432 37.6555 33.3993 37.6511 33.3667C37.4559 31.9354 38.0088 30.6084 38.5657 29.6764C38.8477 29.2043 39.1405 28.8174 39.3628 28.5481C39.4743 28.4131 39.5688 28.3068 39.6364 28.2333C39.6702 28.1965 39.6974 28.1678 39.7167 28.1478L39.7395 28.1243L39.7462 28.1175L39.7484 28.1154L39.7491 28.1146C39.7492 28.1145 39.7496 28.1141 40.1027 28.4681L39.7739 28.8448L40.1463 29.1699C40.1422 29.1748 40.1381 29.1798 40.1339 29.1848C39.9355 29.4251 39.6743 29.7705 39.4241 30.1893C38.9164 31.039 38.4913 32.1275 38.6419 33.2318C38.6935 33.6132 38.7998 34.0333 38.946 34.4678L39.4884 36.0796L38.1599 35.0179C37.8031 34.7327 37.4452 34.486 37.1073 34.2982C37.1072 34.2982 37.1075 34.2983 37.1073 34.2982C36.042 33.7076 34.9032 33.7721 33.992 34.009C33.5392 34.1267 33.1554 34.2839 32.8853 34.4118C32.868 34.4199 32.8512 34.428 32.8349 34.4359L33.417 35.9656L32.1215 36.854C32.1283 36.8641 32.1352 36.8744 32.1423 36.8848C32.3173 37.1435 32.5751 37.4914 32.9052 37.8479C33.5758 38.5723 34.4906 39.2741 35.5689 39.4185C35.9973 39.4759 36.4914 39.4785 37.0086 39.4351L38.6965 39.2934L37.3561 40.329C36.9025 40.6795 36.4946 41.0545 36.1795 41.4195C35.3757 42.3513 35.1866 43.5021 35.214 44.4627C35.2276 44.9396 35.2945 45.3564 35.358 45.6534C35.3619 45.6717 35.3658 45.6895 35.3697 45.7068L36.9639 45.4664L37.5289 46.9428C37.5344 46.9406 37.54 46.9383 37.5456 46.9361C37.8316 46.8193 38.2213 46.6399 38.6353 46.3908C39.4747 45.8854 40.3512 45.1308 40.7282 44.0864C40.7562 44.0083 40.7837 43.9247 40.8105 43.8375L41.2153 42.5233L41.7491 43.7907C41.7842 43.874 41.819 43.9535 41.8539 44.027C42.383 45.1443 43.3489 45.7691 44.2246 46.117C44.6599 46.29 45.0618 46.3898 45.3544 46.4461C45.3696 46.4491 45.3845 46.4519 45.399 46.4546L45.8026 44.8684L47.363 44.9155C47.3633 44.9052 47.3635 44.8946 47.3637 44.884C47.3698 44.5697 47.3597 44.1336 47.2957 43.6474C47.1658 42.6601 46.8238 41.5431 46.0266 40.7827C45.7992 40.5663 45.5273 40.3515 45.2257 40.1473L43.8753 39.2332H45.5059C45.9039 39.2332 46.2818 39.2082 46.6175 39.1563C47.8162 38.9701 48.6858 38.2163 49.272 37.4634C49.563 37.0897 49.7753 36.7271 49.9146 36.4581C49.9249 36.4383 49.9347 36.4189 49.9442 36.4002L48.571 35.5425L49.0728 34.0396C49.0638 34.0365 49.0547 34.0335 49.0455 34.0304C48.7529 33.9326 48.3415 33.8149 47.8675 33.7348C46.9053 33.5721 45.7609 33.5771 44.8162 34.1276L44.8131 34.1293C44.7311 34.1764 44.6455 34.2313 44.5507 34.2938L43.4146 35.0428L43.7955 33.7364C43.8296 33.6196 43.8597 33.5045 43.886 33.3912C44.1644 32.1812 43.7976 31.0746 43.3297 30.2414C43.0972 29.8274 42.8455 29.4919 42.6523 29.2606C42.6423 29.2486 42.6325 29.237 42.6229 29.2256L41.3293 30.2024L40.1463 29.1699C40.2398 29.0572 40.318 28.9695 40.3725 28.9102C40.4009 28.8792 40.4229 28.8561 40.4372 28.8413L40.4527 28.8253L40.4558 28.8221C40.4557 28.8222 40.4557 28.8222 40.1027 28.4681L39.7491 28.1146L40.08 27.7847ZM40.9504 44.4555L41.4023 44.2415L41.2978 44.291L40.9504 44.4555ZM32.4766 34.6275C32.4764 34.6276 32.4765 34.6275 32.4766 34.6275Z" fill="#AC7746"/>
<path d="M43.5617 38.8908C43.4091 38.8344 43.2459 38.885 43.1452 39.0018L42.0577 38.6026C42.0558 38.5053 42.0366 38.4099 42.0001 38.3213L43.077 37.8102C43.1864 37.9231 43.3582 37.9611 43.508 37.89C43.698 37.7995 43.7796 37.5707 43.6913 37.3779C43.602 37.1851 43.3765 37.1024 43.1864 37.192C43.0396 37.2611 42.958 37.4139 42.9695 37.5687L41.86 38.0954C41.8062 38.0351 41.7419 37.9835 41.669 37.9426L42.0817 36.7694C42.2382 36.7694 42.384 36.673 42.4397 36.5153C42.5098 36.3148 42.4071 36.0948 42.2094 36.0227C42.0116 35.9507 41.7947 36.0558 41.7237 36.2564C41.669 36.4112 41.7189 36.5776 41.835 36.6779L41.4214 37.855C41.3388 37.8413 41.2553 37.8413 41.1757 37.855L40.6612 36.7519C40.7716 36.6399 40.808 36.4667 40.738 36.3148C40.6478 36.122 40.4212 36.0402 40.2322 36.1317C40.0421 36.2223 39.9615 36.453 40.0508 36.6448C40.1199 36.7928 40.2706 36.8746 40.4232 36.8629L40.9271 37.9435C40.8407 37.9932 40.7629 38.0594 40.6996 38.1412L39.6428 37.7576C39.6428 37.5989 39.5478 37.45 39.3923 37.3935C39.1946 37.3224 38.9767 37.4256 38.9067 37.6262C38.8357 37.8267 38.9393 38.0467 39.1361 38.1188C39.2887 38.1743 39.4518 38.1237 39.5517 38.0059L40.5748 38.3778C40.5345 38.5033 40.5278 38.6319 40.5499 38.7536L39.6227 39.1975C39.5123 39.0855 39.3415 39.0485 39.1917 39.1196C39.0017 39.2111 38.9201 39.4399 39.0103 39.6327C39.0996 39.8254 39.3261 39.9082 39.5162 39.8167C39.663 39.7466 39.7436 39.5937 39.7321 39.4389L40.641 39.0038C40.7111 39.1255 40.8148 39.2277 40.9434 39.2968L40.6122 40.2314C40.4558 40.2314 40.3089 40.3268 40.2533 40.4845C40.1823 40.6851 40.285 40.9061 40.4827 40.9772C40.6804 41.0492 40.8983 40.945 40.9693 40.7455C41.024 40.5907 40.9741 40.4252 40.8589 40.3239L41.1939 39.3796C41.335 39.4 41.4761 39.3776 41.6018 39.3221L42.0337 40.2538C41.9224 40.3648 41.8859 40.5391 41.956 40.6909C42.0452 40.8837 42.2717 40.9665 42.4618 40.8759C42.6518 40.7854 42.7334 40.5556 42.6442 40.3638C42.575 40.2149 42.4244 40.1331 42.2717 40.1448L41.8226 39.1751C41.9061 39.0943 41.9732 38.994 42.0145 38.8772C42.0145 38.8772 42.0145 38.8743 42.0155 38.8733L43.053 39.254C43.0521 39.4127 43.1471 39.5616 43.3026 39.6181C43.5003 39.6901 43.7172 39.5869 43.7892 39.3864C43.8602 39.1858 43.7585 38.9648 43.5608 38.8928L43.5617 38.8908Z" fill="#AC7746"/>
</g>
<defs>
<clipPath id="clip0_700_21">
<rect width="20" height="20" fill="white" transform="translate(31 28)"/>
</clipPath>
</defs>
</svg>
