<svg width="59" height="44" viewBox="0 0 59 44" fill="none" xmlns="http://www.w3.org/2000/svg">
<path d="M0.110559 43.6649C0.248031 43.8803 0.479332 44 0.717907 44C0.759366 44 0.800826 43.9963 0.842286 43.9891C9.99251 42.377 19.3428 41.5601 28.6334 41.5601H29.4953H29.4996H29.504H30.3659C39.6565 41.5601 49.006 42.377 58.157 43.9891C58.1984 43.9963 58.2399 44 58.2814 44C58.5207 44 58.752 43.8803 58.8894 43.6642C58.9658 43.5437 59 43.4013 59 43.2582V9.60346C59 9.21944 58.7112 8.8836 58.3294 8.85878C57.9111 8.83176 57.5627 9.16395 57.5627 9.57864V42.4223C50.4302 41.2052 43.182 40.4664 35.9397 40.2145C45.2376 38.9047 55.2926 39.8188 55.417 39.8305C55.7065 39.8575 55.9938 39.7064 56.1313 39.4267C56.1815 39.3253 56.2026 39.2114 56.2026 39.0982V4.40087C56.2026 4.01684 55.9138 3.68101 55.5319 3.65618C55.1137 3.62917 54.7653 3.96136 54.7653 4.37605V38.3302C53.3702 38.2272 50.2484 38.0374 46.4523 38.0622C42.7842 38.087 37.8861 38.3221 33.2979 39.188C36.8438 37.3942 40.9323 36.6918 44.0913 36.4349C48.718 36.0589 52.4246 36.5305 52.461 36.5349C52.7549 36.5736 53.0524 36.4268 53.1971 36.1421C53.2495 36.0384 53.2728 35.9223 53.2728 35.8055V0.983338C53.2728 0.608804 52.9869 0.296327 52.6145 0.264933C52.5636 0.260553 47.4597 -0.165817 42.0706 0.0721905C38.8833 0.212367 36.2125 0.554777 34.1337 1.0892C31.9559 1.64918 30.4278 2.40774 29.5004 3.39408C28.573 2.40774 27.0448 1.64918 24.8671 1.0892C22.7883 0.554777 20.1174 0.212367 16.9301 0.0721905C11.5403 -0.165817 6.4357 0.260553 6.38479 0.264933C6.0131 0.296327 5.72725 0.608804 5.72725 0.983338V35.8011C5.72725 35.9413 5.75998 36.0808 5.83417 36.1998C5.98765 36.4465 6.26405 36.5721 6.53899 36.5356C6.57536 36.5305 10.2573 36.0603 14.8797 36.4327C18.0488 36.6882 22.1489 37.3898 25.7035 39.188C21.1146 38.3229 16.2165 38.087 12.5485 38.0622C8.75235 38.0374 5.62979 38.2272 4.23543 38.3302V4.40087C4.23543 4.01684 3.94667 3.68101 3.5648 3.65618C3.14657 3.62917 2.79816 3.96136 2.79816 4.37605V39.0997C2.79816 39.2128 2.81998 39.3267 2.87017 39.4282C3.00837 39.7071 3.29422 39.8575 3.58371 39.8298C3.70737 39.8181 13.7632 38.904 23.061 40.2138C15.818 40.4649 8.57051 41.2038 1.43727 42.4216V10.3C1.43727 9.90134 1.11577 9.57864 0.718634 9.57864C0.321494 9.57864 0 9.90134 0 10.3V43.2597C0 43.4028 0.034186 43.5452 0.110559 43.6649ZM29.4992 5.17648C30.6644 3.3425 35.5913 1.80249 42.1194 1.51338C46.2944 1.32867 50.2993 1.54915 51.834 1.65356V35.0192C50.4695 34.8951 47.5244 34.7118 44.004 34.9951C41.192 35.2215 38.6004 35.7026 36.3019 36.4239C33.9656 37.1569 31.2038 37.9688 29.4953 39.188L29.4992 5.17648ZM14.9938 34.9951C13.6257 34.8849 12.3455 34.8455 11.2101 34.8455C9.42371 34.8455 7.99808 34.944 7.16379 35.0192V1.65356C8.69853 1.54988 12.7034 1.32867 16.8784 1.51338C23.4065 1.80249 28.3339 3.34178 29.4992 5.17648L29.4953 39.188C27.7867 37.9688 25.0315 37.1569 22.6959 36.4239C20.3974 35.7026 17.8058 35.2215 14.9938 34.9951Z" fill="#BAA280"/>
<path d="M22.9486 15.0836C23.9746 15.0836 24.5806 14.4656 24.5806 13.7396C24.5806 13.0976 24.2266 12.7556 23.6866 12.5336L23.1046 12.2876C22.7266 12.1376 22.4086 12.0236 22.4086 11.7056C22.4086 11.4116 22.6606 11.2376 23.0506 11.2376C23.4166 11.2376 23.7106 11.3696 23.9926 11.6036L24.4426 11.0456C24.0826 10.6796 23.5666 10.4756 23.0506 10.4756C22.1506 10.4756 21.5146 11.0336 21.5146 11.7596C21.5146 12.4076 21.9646 12.7676 22.4146 12.9536L23.0086 13.2056C23.4046 13.3736 23.6746 13.4756 23.6746 13.8056C23.6746 14.1176 23.4286 14.3156 22.9666 14.3156C22.5766 14.3156 22.1566 14.1176 21.8386 13.8236L21.3286 14.4356C21.7606 14.8496 22.3546 15.0836 22.9486 15.0836Z" fill="#BAA280"/>
<path d="M26.7081 14.9996H27.5961V11.2976H28.8561V10.5596H25.4601V11.2976H26.7081V14.9996Z" fill="#BAA280"/>
<path d="M30.1761 14.9996H32.9661V14.2556H31.0641V13.0676H32.6241V12.3236H31.0641V11.2976H32.9001V10.5596H30.1761V14.9996Z" fill="#BAA280"/>
<path d="M34.4675 14.9996H35.3555V13.4216H35.9495C36.9035 13.4216 37.6655 12.9656 37.6655 11.9516C37.6655 10.9016 36.9095 10.5596 35.9255 10.5596H34.4675V14.9996ZM35.3555 12.7196V11.2616H35.8595C36.4715 11.2616 36.7955 11.4356 36.7955 11.9516C36.7955 12.4616 36.5015 12.7196 35.8895 12.7196H35.3555Z" fill="#BAA280"/>
<path d="M27.7654 30.9992H30.1494C30.3414 26.3592 30.7094 23.9432 33.4614 20.5832V19.1592H25.5894V21.1272H30.9174C28.6614 24.2632 27.9734 26.8872 27.7654 30.9992Z" fill="#BAA280"/>
</svg>
