<svg width="13" height="128" viewBox="0 0 13 128" fill="none" xmlns="http://www.w3.org/2000/svg">
<path d="M0.86997 3.29773C0.86997 4.90773 1.82997 5.88773 3.00997 5.88773C4.08997 5.88773 4.62997 5.25773 4.99997 4.38773L5.42997 3.37773C5.66997 2.77773 5.90997 2.18773 6.53997 2.18773C7.12997 2.18773 7.48997 2.67773 7.48997 3.42773C7.48997 4.07773 7.23997 4.58773 6.82997 5.04773L7.56997 5.65773C8.13997 5.09773 8.49997 4.28773 8.49997 3.42773C8.49997 2.02773 7.62997 1.00773 6.46997 1.00773C5.39997 1.00773 4.83997 1.79773 4.53997 2.50773L4.09997 3.52773C3.79997 4.20773 3.58997 4.70773 2.91997 4.70773C2.29997 4.70773 1.87997 4.20773 1.87997 3.31773C1.87997 2.60773 2.21997 1.88773 2.74997 1.35773L1.94997 0.677734C1.26997 1.34773 0.86997 2.28773 0.86997 3.29773Z" fill="#535353"/>
<path d="M0.86997 10.4217C0.86997 11.0517 1.09997 11.7017 1.54997 12.2017L2.30997 11.7317C2.02997 11.4017 1.80997 10.9917 1.80997 10.5317C1.80997 9.61172 2.57997 8.98172 3.73997 8.98172C4.90997 8.98172 5.68997 9.64172 5.68997 10.5617C5.68997 10.9417 5.52997 11.2517 5.25997 11.5517L6.00997 12.1217C6.35997 11.7217 6.63997 11.2117 6.63997 10.5117C6.63997 9.06172 5.57997 7.79172 3.73997 7.79172C1.91997 7.79172 0.86997 8.93172 0.86997 10.4217Z" fill="#535353"/>
<path d="M0.99997 14.3477L0.99997 15.4877L4.89997 15.4877C5.38997 15.9777 5.64997 16.3277 5.64997 16.8377C5.64997 17.4877 5.26997 17.7677 4.31997 17.7677L0.99997 17.7677L0.99997 18.9177L4.45997 18.9177C5.85997 18.9177 6.63997 18.3977 6.63997 17.2277C6.63997 16.4777 6.22997 15.9277 5.76997 15.4477L6.85997 15.4877L8.96997 15.4877L8.96997 14.3477L0.99997 14.3477Z" fill="#535353"/>
<path d="M0.99997 21.5587L0.999969 22.6987L4.42997 22.6987C5.29997 23.0487 5.60997 23.5887 5.60997 24.0387C5.60997 24.2587 5.57997 24.3987 5.51997 24.5887L6.51997 24.7987C6.59997 24.6287 6.63997 24.4487 6.63997 24.1787C6.63997 23.5887 6.21997 23.0087 5.50997 22.6187L5.50997 22.5887L6.49997 22.4987L6.49997 21.5587L0.99997 21.5587Z" fill="#535353"/>
<path d="M0.869969 28.743C0.869969 30.103 1.91997 31.333 3.73997 31.333C5.57997 31.333 6.63997 30.103 6.63997 28.743C6.63997 27.383 5.57997 26.153 3.73997 26.153C1.91997 26.153 0.869969 27.383 0.869969 28.743ZM1.80997 28.743C1.80997 27.883 2.57997 27.343 3.73997 27.343C4.90997 27.343 5.68997 27.883 5.68997 28.743C5.68997 29.613 4.90997 30.153 3.73997 30.153C2.57997 30.153 1.80997 29.613 1.80997 28.743Z" fill="#535353"/>
<path d="M0.869969 34.8256C0.869969 35.1056 0.909969 35.3056 0.959969 35.4456L1.82997 35.2956C1.80997 35.1956 1.80997 35.1556 1.80997 35.1056C1.80997 34.9656 1.91997 34.8256 2.22997 34.8256L8.96997 34.8256L8.96997 33.6856L2.28997 33.6856C1.39997 33.6856 0.869969 33.9956 0.869969 34.8256Z" fill="#535353"/>
<path d="M0.869969 38.8041C0.869969 39.0841 0.909969 39.2841 0.959969 39.4241L1.82997 39.2741C1.80997 39.1741 1.80997 39.1341 1.80997 39.0841C1.80997 38.9441 1.91997 38.8041 2.22997 38.8041L8.96997 38.8041L8.96997 37.6641L2.28997 37.6641C1.39997 37.6641 0.869969 37.9741 0.869969 38.8041Z" fill="#535353"/>
<path fill-rule="evenodd" clip-rule="evenodd" d="M4.5 56.5C4.77614 56.5 5 56.7239 5 57V125.293L12.1464 118.146C12.3417 117.951 12.6583 117.951 12.8536 118.146C13.0488 118.342 13.0488 118.658 12.8536 118.854L4 127.707V57C4 56.7239 4.22386 56.5 4.5 56.5Z" fill="#535353"/>
</svg>
