<svg width="13" height="13" viewBox="0 0 13 13" fill="none" xmlns="http://www.w3.org/2000/svg">
<path d="M0.499592 6.50034C0.499592 6.24446 0.597291 5.98846 0.792591 5.79346C1.18319 5.40283 1.81599 5.40283 2.20659 5.79346L6.49958 10.0878L10.7933 5.79346C11.184 5.40283 11.8168 5.40283 12.2074 5.79346C12.598 6.18409 12.598 6.8169 12.2074 7.20752L7.2074 12.2075C6.81677 12.5981 6.18396 12.5981 5.79333 12.2075L0.793291 7.20752C0.596491 7.01221 0.499592 6.75627 0.499592 6.50034Z" fill="#AC7746"/>
<path d="M0.499592 0.999848C0.499592 0.743968 0.597291 0.487968 0.792591 0.292968C1.18319 -0.0976559 1.81599 -0.0976559 2.20659 0.292968L6.49958 4.58735L10.7933 0.292968C11.184 -0.097656 11.8168 -0.097656 12.2074 0.292968C12.598 0.683598 12.598 1.31641 12.2074 1.70703L7.2074 6.70703C6.81677 7.09766 6.18396 7.09766 5.79333 6.70703L0.793291 1.70703C0.596491 1.51172 0.499592 1.25578 0.499592 0.999848Z" fill="#AC7746"/>
</svg>
