<svg width="12" height="13" viewBox="0 0 12 13" fill="none" xmlns="http://www.w3.org/2000/svg">
<path d="M12.0008 6.00015C12.0008 6.25603 11.9031 6.51203 11.7078 6.70703C11.3172 7.09766 10.6844 7.09766 10.2938 6.70703L6.00079 2.41265L1.70702 6.70703C1.3164 7.09766 0.683595 7.09766 0.292965 6.70703C-0.0976549 6.3164 -0.0976549 5.68359 0.292965 5.29297L5.29297 0.292972C5.6836 -0.0976575 6.31641 -0.0976574 6.70704 0.292973L11.7071 5.29297C11.9039 5.48828 12.0008 5.74422 12.0008 6.00015Z" fill="#AC7746"/>
<path d="M12.0008 11.5006C12.0008 11.7565 11.9031 12.0125 11.7078 12.2075C11.3172 12.5981 10.6844 12.5981 10.2938 12.2075L6.00079 7.91314L1.70702 12.2075C1.3164 12.5981 0.683595 12.5981 0.292965 12.2075C-0.0976549 11.8169 -0.0976549 11.1841 0.292965 10.7935L5.29297 5.79346C5.6836 5.40283 6.31641 5.40283 6.70704 5.79346L11.7071 10.7935C11.9039 10.9888 12.0008 11.2447 12.0008 11.5006Z" fill="#AC7746"/>
</svg>
