<svg width="13" height="13" viewBox="0 0 13 13" fill="none" xmlns="http://www.w3.org/2000/svg">
<g clip-path="url(#clip0_572_9827)">
<path d="M9.21751 13H3.78249C1.6968 13 0 11.3032 0 9.21751V3.78249C0 1.6968 1.6968 0 3.78249 0H9.21751C11.3032 0 13 1.6968 13 3.78249V9.21751C13 11.3032 11.3032 13 9.21751 13ZM3.78249 1.15451C2.33342 1.15451 1.15387 2.33342 1.15387 3.78314V9.21815C1.15387 10.6672 2.33277 11.8468 3.78249 11.8468H9.21751C10.6666 11.8468 11.8461 10.6679 11.8461 9.21815V3.78249C11.8461 2.33342 10.6672 1.15387 9.21751 1.15387H3.78249V1.15451Z" fill="#AC7746"/>
<path d="M6.5003 9.84191C4.65783 9.84191 3.15869 8.34278 3.15869 6.5003C3.15869 4.65783 4.65783 3.15869 6.5003 3.15869C8.34278 3.15869 9.84191 4.65783 9.84191 6.5003C9.84191 8.34278 8.34278 9.84191 6.5003 9.84191ZM6.5003 4.31256C5.29381 4.31256 4.31256 5.29381 4.31256 6.5003C4.31256 7.7068 5.29381 8.68804 6.5003 8.68804C7.7068 8.68804 8.68804 7.7068 8.68804 6.5003C8.68804 5.29381 7.7068 4.31256 6.5003 4.31256Z" fill="#AC7746"/>
<path d="M10.7177 3.20711C10.8153 2.79604 10.5611 2.38373 10.1501 2.28618C9.73899 2.18863 9.32667 2.44278 9.22912 2.85385C9.13157 3.26491 9.38572 3.67722 9.79679 3.77478C10.2079 3.87233 10.6202 3.61817 10.7177 3.20711Z" fill="#AC7746"/>
</g>
<defs>
<clipPath id="clip0_572_9827">
<rect width="13" height="13" fill="white"/>
</clipPath>
</defs>
</svg>
