<svg width="174" height="109" viewBox="0 0 174 109" fill="none" xmlns="http://www.w3.org/2000/svg">
<circle cx="69.5" cy="36.5" r="20.5" fill="#AC7746"/>
<circle cx="142.5" cy="85.5" r="20.5" fill="#BAA280"/>
<circle cx="153.5" cy="36.5" r="20.5" fill="#6F6356"/>
<path d="M39.0059 23.998C40.7133 25.7055 42.0677 27.7325 42.9918 29.9634C43.9158 32.1943 44.3914 34.5853 44.3914 37C44.3914 39.4147 43.9158 41.8057 42.9918 44.0366C42.0677 46.2675 40.7133 48.2945 39.0059 50.002C37.2984 51.7094 35.2714 53.0638 33.0405 53.9879C30.8096 54.9119 28.4186 55.3875 26.0039 55.3875C23.5892 55.3875 21.1982 54.9119 18.9673 53.9879C16.7364 53.0638 14.7094 51.7094 13.002 50.002L26.0039 37L39.0059 23.998Z" fill="#BAA280"/>
<path d="M69 89C69 91.6264 68.4827 94.2272 67.4776 96.6537C66.4725 99.0802 64.9993 101.285 63.1421 103.142C61.285 104.999 59.0802 106.472 56.6537 107.478C54.2272 108.483 51.6264 109 49 109C46.3736 109 43.7728 108.483 41.3463 107.478C38.9198 106.472 36.715 104.999 34.8579 103.142C33.0007 101.285 31.5275 99.0802 30.5224 96.6537C29.5173 94.2272 29 91.6264 29 89L49 89H69Z" fill="#AC7746"/>
<path d="M24.002 39.002C22.2945 37.2945 20.9401 35.2675 20.016 33.0366C19.092 30.8057 18.6164 28.4147 18.6164 26C18.6164 23.5853 19.092 21.1943 20.016 18.9634C20.9401 16.7325 22.2945 14.7055 24.002 12.998C25.7094 11.2906 27.7364 9.93619 29.9673 9.01213C32.1982 8.08807 34.5892 7.61246 37.0039 7.61246C39.4186 7.61246 41.8096 8.08807 44.0405 9.01213C46.2714 9.93619 48.2984 11.2906 50.0059 12.998L37.0039 26L24.002 39.002Z" fill="#6F6356"/>
<rect x="95" y="11" width="12" height="29" fill="#AC7746"/>
<rect x="95" y="40" width="33" height="17" fill="#BAA280"/>
<rect x="29" y="66" width="40" height="23" fill="#6F6356"/>
<rect x="102" y="64" width="12" height="43" fill="#6F6356"/>
<path d="M78 65L114 107H78V65Z" fill="#BAA280"/>
</svg>
