<svg width="13" height="17" viewBox="0 0 13 17" fill="none" xmlns="http://www.w3.org/2000/svg">
<path d="M6.19173 16.9256C6.24081 16.9733 6.30656 17 6.37501 17C6.44345 17 6.5092 16.9733 6.55829 16.9256H6.19173ZM6.19173 16.9256C5.93938 16.6839 1.43051e-05 10.9517 1.43051e-05 6.37499L6.19173 16.9256ZM3.4022 12.9772C4.65218 14.655 5.92529 15.9598 6.37501 16.4056C6.82473 15.9598 8.09783 14.655 9.34782 12.9772C10.094 11.9757 10.8241 10.8516 11.3661 9.70643C11.91 8.55727 12.2499 7.41717 12.25 6.37532C12.2478 4.81775 11.6282 3.32459 10.5268 2.22322C9.42548 1.12193 7.93245 0.502242 6.37501 0.5C4.81756 0.502242 3.32453 1.12193 2.22324 2.22322C1.12178 3.32467 0.50208 4.81794 0.500014 6.37562C0.500152 7.41739 0.840064 8.55738 1.38392 9.70643C1.92592 10.8516 2.65606 11.9757 3.4022 12.9772ZM2.95314 6.37529V6.37499C2.95314 5.69821 3.15382 5.03663 3.52983 4.4739C3.90583 3.91118 4.44025 3.47259 5.06551 3.2136C5.69078 2.9546 6.3788 2.88684 7.04258 3.01887C7.70636 3.15091 8.31608 3.47681 8.79464 3.95536C9.27319 4.43392 9.59909 5.04364 9.73113 5.70742C9.86316 6.3712 9.7954 7.05922 9.5364 7.68449C9.27741 8.30975 8.83882 8.84417 8.2761 9.22017C7.71337 9.59618 7.05179 9.79686 6.37501 9.79686H6.37471C5.46742 9.79632 4.59744 9.43566 3.95589 8.79411C3.31434 8.15256 2.95368 7.28258 2.95314 6.37529Z" stroke="#535353"/>
</svg>
