<svg width="15" height="15" viewBox="0 0 15 15" fill="none" xmlns="http://www.w3.org/2000/svg">
<path d="M14.0169 10.367L11.5172 9.22457C11.1151 9.04092 10.6411 9.12606 10.3286 9.43903L9.39492 10.3727C9.01181 10.7558 8.40411 10.7951 7.97519 10.4647L7.86532 10.38C6.64829 9.44309 5.55816 8.35254 4.62086 7.13552L4.53613 7.02565C4.20573 6.59633 4.24505 5.98863 4.62816 5.60592L5.56181 4.67227C5.87438 4.35971 5.95992 3.88579 5.77627 3.48363L4.63384 0.983896C4.32938 0.31822 3.63127 -0.0742119 2.90519 0.011734L2.54438 0.0543016C2.03275 0.114707 1.57667 0.406599 1.30748 0.846058L0.612619 1.98038C-0.141841 3.21281 -0.203462 4.74849 0.450051 6.03768L0.601268 6.33646C1.33059 7.77565 2.95505 9.76376 4.09343 10.907C5.23667 12.0454 7.22478 13.6694 8.66397 14.3992L8.96275 14.5504C10.2519 15.2039 11.7876 15.1419 13.0196 14.387L14.154 13.6921C14.5934 13.4229 14.8853 12.9673 14.9457 12.4552L14.9883 12.0944C15.0742 11.3688 14.6818 10.6702 14.0169 10.3666V10.367Z" fill="#535353"/>
</svg>
