<svg width="126" height="126" viewBox="0 0 126 126" fill="none" xmlns="http://www.w3.org/2000/svg">
<g clip-path="url(#clip0_1302_149)">
<path d="M125.06 62.53C125.06 97.07 97.06 125.06 62.53 125.06C28 125.06 0 97.07 0 62.53C0 27.99 28 0 62.53 0C97.06 0 125.06 28 125.06 62.53Z" fill="#E2BC8F"/>
<path d="M46.77 44.3797C48.7 42.9397 49.62 41.9897 49.62 41.0197C49.62 40.2997 49.17 39.9997 48.53 39.9997C47.95 39.9997 47.42 40.2397 46.98 40.5997L46.94 39.5397C47.4 39.2097 48.09 38.9697 48.85 38.9697C50.05 38.9697 50.84 39.6397 50.84 40.8197C50.84 41.9197 50.06 42.9797 48.4 44.2397H50.89V45.2197H46.77V44.3997V44.3797Z" fill="#836951"/>
<path d="M53.2202 42.21C53.2202 40.18 54.1702 38.96 55.6702 38.96C57.1702 38.96 58.0002 40.04 58.0002 42.04C58.0002 44.04 57.0802 45.27 55.5702 45.27C54.0602 45.27 53.2202 44.18 53.2202 42.21ZM56.7702 42.14C56.7702 40.59 56.4002 40.01 55.5902 40.01C54.8602 40.01 54.4402 40.69 54.4402 42.12C54.4402 43.55 54.8502 44.24 55.6302 44.24C56.3502 44.24 56.7702 43.59 56.7702 42.15" fill="#836951"/>
<path d="M60.2798 44.3797C62.2098 42.9397 63.1298 41.9897 63.1298 41.0197C63.1298 40.2997 62.6798 39.9997 62.0398 39.9997C61.4598 39.9997 60.9298 40.2397 60.4898 40.5997L60.4498 39.5397C60.9098 39.2097 61.5998 38.9697 62.3598 38.9697C63.5598 38.9697 64.3498 39.6397 64.3498 40.8197C64.3498 41.9197 63.5698 42.9797 61.9098 44.2397H64.3998V45.2197H60.2798V44.3997V44.3797Z" fill="#836951"/>
<path d="M69.4801 43.8502H66.5601V43.0802L69.3601 38.9902H70.6401V42.9202H71.5701V43.8602H70.6501V45.2102H69.4801V43.8602V43.8502ZM69.5101 42.9102L69.5401 40.2602L67.7601 42.9102H69.5101Z" fill="#836951"/>
<path d="M77.4 43.9502H73.81V43.1202H75.07V40.9902H77.4V39.8702H75.73C75.38 40.5602 74.93 41.1702 74.42 41.6802L73.71 40.9502C74.5 40.2402 75.04 39.3002 75.31 38.2002L76.31 38.3802C76.23 38.6302 76.16 38.8602 76.09 39.0502H80.83V39.8702H78.38V40.9902H80.47V41.7902H78.38V43.1302H81.27V43.9602H78.38V45.8602H77.39V43.9602L77.4 43.9502ZM77.4 41.7802H76.01V43.1102H77.4V41.7802Z" fill="#836951"/>
<path d="M49.6802 62.8998C50.8702 61.6098 51.2902 60.4198 51.2902 58.2098V53.5898H58.7402V62.5898C58.7402 63.6598 58.4302 63.9298 57.1102 63.9298C56.5602 63.9298 55.7802 63.9098 54.9402 63.8598L54.6102 62.0998C55.3602 62.1598 56.1302 62.2098 56.5202 62.2098C56.9102 62.2098 57.0302 62.1298 57.0302 61.8398V60.5098H52.8602C52.6402 61.9398 52.1402 62.9798 51.0402 64.2298L49.6802 62.8898V62.8998ZM57.0302 55.1498H53.0002V56.3298H57.0302V55.1498ZM57.0302 57.7998H53.0002V59.0398H57.0302V57.7998Z" fill="#836951"/>
<path d="M67.67 60.7603H65.39V61.5703H63.73V55.2103H67.67V53.2803H69.42V55.2103H73.43V61.5403H71.75V60.7703H69.41V64.1003H67.66V60.7703L67.67 60.7603ZM67.67 56.7903H65.39V59.1903H67.67V56.7903ZM71.76 56.7903H69.42V59.1903H71.76V56.7903Z" fill="#836951"/>
<path d="M83.5401 63.9796L83.2101 62.2197H80.4101V62.9296H78.8301V57.7296C78.4801 58.1496 78.1501 58.4996 77.8301 58.7996L76.8901 57.2496C78.1601 56.1496 79.0101 54.7996 79.5001 53.1396L81.2201 53.4096C81.0501 53.8996 81.0001 54.0396 80.9101 54.2896H87.6501C87.6401 58.4797 87.4901 61.4697 87.2401 62.6497C87.0101 63.7297 86.5701 64.0596 85.2901 64.0596C84.7601 64.0596 84.0701 64.0196 83.5401 63.9796ZM85.5901 61.7397C85.7501 60.8897 85.8601 58.7896 85.9201 55.8196H80.1801C80.0601 56.0396 79.8801 56.3396 79.7001 56.5896H84.5601V62.2197H83.3701C83.9101 62.3197 84.5301 62.3797 84.9201 62.3797C85.3701 62.3797 85.5001 62.2497 85.5901 61.7397ZM83.0101 57.9496H80.4201V58.7296H83.0101V57.9496ZM83.0101 59.9496H80.4201V60.7896H83.0101V59.9496Z" fill="#836951"/>
<path d="M62.0198 73.7697C61.1598 73.7697 60.6398 74.6097 60.4798 75.9997L59.0098 75.8297C59.1798 73.4997 60.4398 72.2197 61.9598 72.2197C63.9398 72.2197 64.6798 74.4997 65.9998 74.4997C66.8498 74.4997 67.3998 73.7297 67.5098 72.2797L68.9798 72.4497C68.8098 74.7797 67.6198 76.0497 66.0598 76.0497C64.0698 76.0497 63.2398 73.7597 62.0198 73.7597" fill="#836951"/>
<path d="M27.2202 93.0996L27.3202 91.4596C28.1402 91.6996 28.8902 91.8697 29.5502 91.8697C30.7902 91.8697 31.2102 91.3996 31.2102 90.6996C31.2102 89.9596 30.6702 89.5896 29.3402 89.5896C29.0202 89.5896 28.6402 89.5896 28.2902 89.6096V88.1396C28.9602 88.1296 29.4202 88.1196 29.8102 88.0296C30.6302 87.8096 30.9502 87.4797 30.9502 86.9097C30.9502 86.3397 30.5202 85.9697 29.5802 85.9697C28.8902 85.9697 28.1502 86.2296 27.4902 86.6796L27.4102 85.0596C28.1902 84.5896 29.2202 84.3896 30.1102 84.3896C31.9302 84.3896 32.9702 85.1896 32.9702 86.5296C32.9702 87.4696 32.4302 88.2396 31.4302 88.5896C32.6002 88.7796 33.2302 89.5896 33.2302 90.6696C33.2302 92.1496 32.0102 93.4596 29.5802 93.4596C28.8402 93.4596 27.9802 93.3296 27.2302 93.0896" fill="#836951"/>
<path d="M36.5801 93.06C37.7701 91.77 38.1901 90.58 38.1901 88.37V83.75H45.6401V92.75C45.6401 93.82 45.3301 94.09 44.0101 94.09C43.4601 94.09 42.6901 94.07 41.8401 94.02L41.5101 92.26C42.2601 92.32 43.0301 92.37 43.4201 92.37C43.8101 92.37 43.9301 92.29 43.9301 92V90.67H39.7601C39.5401 92.1 39.0401 93.14 37.9401 94.39L36.5801 93.05V93.06ZM43.9301 85.31H39.9001V86.49H43.9301V85.31ZM43.9301 87.96H39.9001V89.2H43.9301V87.96Z" fill="#836951"/>
<path d="M54.5699 90.9302H52.2899V91.7402H50.6299V85.3802H54.5699V83.4502H56.3199V85.3802H60.3299V91.7102H58.6499V90.9402H56.3099V94.2702H54.5599V90.9402L54.5699 90.9302ZM54.5699 86.9602H52.2899V89.3602H54.5699V86.9602ZM58.6599 86.9602H56.3199V89.3602H58.6599V86.9602Z" fill="#836951"/>
<path d="M70.44 94.1498L70.11 92.3898H67.31V93.0998H65.73V87.8998C65.38 88.3198 65.05 88.6698 64.73 88.9698L63.79 87.4098C65.05 86.3098 65.91 84.9598 66.39 83.2998L68.11 83.5698C67.94 84.0598 67.89 84.1998 67.8 84.4498H74.54C74.53 88.6398 74.38 91.6298 74.13 92.8198C73.9 93.8998 73.46 94.2298 72.18 94.2298C71.65 94.2298 70.96 94.1898 70.43 94.1498M72.48 91.9098C72.64 91.0498 72.75 88.9598 72.81 85.9898H67.07C66.95 86.2098 66.77 86.5098 66.59 86.7598H71.45V92.3898H70.26C70.8 92.4898 71.42 92.5498 71.81 92.5498C72.26 92.5498 72.39 92.4198 72.48 91.9098ZM69.9 88.1198H67.31V88.8998H69.9V88.1198ZM69.9 90.1198H67.31V90.9598H69.9V90.1198Z" fill="#836951"/>
<path d="M79 91.0302C79 90.2302 79.42 89.4402 80.22 88.7002L81.71 89.5202C81.18 89.8902 80.75 90.4102 80.75 90.8902C80.75 91.5402 81.5 91.8902 83.24 91.8902C84.51 91.8902 85.9 91.7502 87.24 91.4202L87.65 93.1802C86.26 93.4902 84.53 93.5902 83.35 93.5902C80.54 93.5902 79 92.7102 79 91.0202M81.71 87.3802C82.07 87.0802 82.43 86.8102 82.81 86.5502C81.58 86.6102 80.4 86.6102 79.69 86.5902L79.59 84.9202C82.02 85.0202 84.01 84.9302 85.74 84.7102L86.04 86.3702C85.56 86.4202 85.41 86.4402 84.95 86.6602C84.35 86.9502 83.89 87.3202 83.11 88.0502L81.71 87.3902V87.3802ZM85.8 84.2002L86.74 83.7802C87.15 84.4202 87.37 84.9102 87.64 85.7102L86.65 86.1802C86.4 85.4002 86.19 84.8802 85.79 84.2002M87.28 83.9202L88.23 83.4902C88.65 84.1502 88.86 84.6602 89.09 85.4202L88.11 85.8802C87.87 85.0802 87.65 84.5502 87.28 83.9302" fill="#836951"/>
<path d="M94.6002 92.5899C97.5102 92.3899 98.9402 91.6399 98.9402 90.4099C98.9402 89.6399 98.2802 89.1899 97.0702 89.1899C96.2102 89.1899 95.4502 89.4399 94.6702 90.0099C94.0202 90.4799 93.6902 90.8199 92.9702 91.6399L91.6802 90.4199C92.8602 89.3799 94.6702 87.5999 96.1602 85.7999C95.1202 85.9299 94.0302 86.0199 93.4402 86.0399L93.1502 84.3899C94.3802 84.3799 96.1002 84.2999 98.1502 83.9199L99.0402 85.0499C98.1102 86.0699 97.3202 86.9199 96.5002 87.7499C96.7902 87.6899 97.0702 87.6699 97.3702 87.6699C99.3002 87.6699 100.72 88.7699 100.72 90.3699C100.72 92.5699 99.0202 93.7599 95.4802 94.1399L94.6002 92.5899Z" fill="#836951"/>
<path d="M40.9699 25.6996C40.9699 25.0696 41.6199 24.2196 42.5799 23.7796C42.5799 23.3996 42.5499 22.9996 42.5499 22.6196C42.0099 22.6696 41.4799 22.6996 41.0399 22.7096L40.9399 21.7596C41.4099 21.7596 41.9699 21.7196 42.5399 21.6796C42.5399 21.2796 42.5399 20.8096 42.5399 20.3496L43.6699 20.3896C43.6499 20.7396 43.6399 21.1496 43.6299 21.5596C44.1099 21.4996 44.5599 21.4296 44.9299 21.3596L45.0499 22.3096C44.6199 22.3796 44.1299 22.4496 43.6199 22.5096V22.8296C43.6199 23.0196 43.6199 23.2396 43.6199 23.4796C44.1599 23.3296 44.7499 23.2396 45.2799 23.2396C46.6399 23.2396 47.4499 23.9796 47.4499 25.0696C47.4499 26.2996 46.6499 27.0696 45.3799 27.0696C45.0499 27.0696 44.6999 27.0196 44.4499 26.9296L44.2899 25.8796C44.5999 26.0096 44.9399 26.0796 45.2499 26.0796C45.9699 26.0796 46.3899 25.6596 46.3899 25.0796C46.3899 24.5496 45.9699 24.1596 45.0999 24.1596C44.6399 24.1596 44.1299 24.2496 43.6399 24.4196C43.6599 24.9396 43.6699 25.4696 43.6899 25.8696C43.6899 26.1196 43.6899 26.2796 43.6899 26.4696C43.6899 27.0296 43.2699 27.2796 42.6999 27.2796C41.7499 27.2796 40.9399 26.5996 40.9399 25.6996M42.4399 26.2596C42.6399 26.2596 42.6999 26.1196 42.6999 25.8796C42.6999 25.6796 42.6999 25.4796 42.6799 25.1996C42.6799 25.0496 42.6799 24.8996 42.6799 24.7696C42.2399 25.0296 41.9299 25.4196 41.9299 25.6996C41.9299 26.0396 42.1999 26.2696 42.4399 26.2696M45.3599 21.6596L45.8799 20.8396C46.5999 21.1496 47.1499 21.5096 47.7499 22.0996L47.1399 22.9496C46.5099 22.3296 46.0299 21.9896 45.3599 21.6696" fill="#C67A2C"/>
<path d="M49.49 26.9895C50.09 26.1695 50.32 25.2595 50.32 23.6695V20.5195H56.75V22.7495H54.64V23.6695H56.82V27.7595H55.92V27.3995H52.48V27.7595H51.58V23.6695H53.72V22.7495H51.27V23.6295C51.27 25.5895 50.98 26.7395 50.24 27.7695L49.48 26.9995L49.49 26.9895ZM55.8 21.2795H51.28V22.0395H55.8V21.2795ZM53.74 24.3795H52.48V25.1395H53.74V24.3795ZM53.74 25.8295H52.48V26.6395H53.74V25.8295ZM55.92 24.3795H54.62V25.1395H55.92V24.3795ZM55.92 25.8295H54.62V26.6395H55.92V25.8295Z" fill="#C67A2C"/>
<path d="M59.5798 24.3996C59.5798 23.6896 59.7098 22.2396 59.9098 20.7396L60.9498 20.8996C60.6398 22.6796 60.5398 23.7796 60.5398 24.5296C60.5398 24.8296 60.5398 25.1296 60.5898 25.3896C60.7198 25.0496 60.8998 24.6796 61.0798 24.3596L61.6198 24.9696C61.3598 25.4196 61.2398 25.6796 61.1398 25.9696C61.0298 26.2796 60.9598 26.6096 60.9898 26.9596L60.1798 27.2796C59.7398 26.4396 59.5698 25.4996 59.5698 24.4096M61.6698 22.3996C62.3898 22.4296 63.1198 22.4196 63.7998 22.3796C63.7698 21.7796 63.7198 21.1196 63.6498 20.3896L64.7298 20.3096C64.7698 20.9996 64.8198 21.6596 64.8398 22.2796C65.2998 22.2196 65.7098 22.1396 66.0698 22.0596L66.1798 23.0796C65.8098 23.1596 65.3598 23.2196 64.8898 23.2696C64.8898 23.5296 64.8898 23.7596 64.8898 23.9796C64.8898 26.0796 64.5898 26.8496 63.4998 27.7496L62.4298 27.2896C63.6398 26.3696 63.8398 25.4796 63.8398 23.8196C63.8398 23.6696 63.8398 23.4996 63.8398 23.3396C63.1198 23.3796 62.3798 23.3896 61.7398 23.3696L61.6698 22.3796V22.3996Z" fill="#C67A2C"/>
<path d="M69.7799 27.6103L69.5599 26.6003C70.0699 26.6703 70.4899 26.7103 70.7299 26.7103C70.9699 26.7103 71.0399 26.6603 71.0399 26.4403V24.0803H67.8999V23.2003H71.7499C71.1499 22.7703 70.4499 22.3403 69.7299 21.9703L70.3899 21.4403H68.6099V20.5703H73.8599L74.3699 21.1003C73.7899 21.5503 73.1499 21.9803 72.3099 22.4903C72.5399 22.6303 72.6899 22.7403 72.8599 22.8603L72.3699 23.2103H74.7799L75.2199 23.6703C74.5699 24.6103 73.9599 25.3303 73.2599 26.0003L72.3599 25.4603C72.8999 25.0403 73.3699 24.5703 73.6999 24.1003H72.0499V26.9003C72.0499 27.5003 71.7999 27.7203 71.1099 27.7203C70.6699 27.7203 70.1499 27.6903 69.7799 27.6403M72.5899 21.4603H70.4699C70.6199 21.5303 71.1699 21.8203 71.5699 22.0503C72.0099 21.8203 72.3699 21.6203 72.5799 21.4603" fill="#C67A2C"/>
<path d="M76.8999 27.0196C77.6799 26.3096 78.2199 25.2696 78.4599 24.0196L79.3999 24.2496C79.2699 24.7096 79.1699 25.0696 79.0899 25.2796C79.3599 25.6396 79.7399 25.9396 80.1699 26.1596V23.4496H78.4699V22.6496H82.9099V23.4496H81.1599V24.4896H83.6599V25.2896H81.1599V26.4396C81.7399 26.5196 82.3499 26.5596 83.0599 26.5596C83.5199 26.5596 83.9399 26.5396 84.4899 26.5096C84.3199 26.9096 84.2399 27.1296 84.1699 27.5096C83.6899 27.5296 83.4799 27.5296 83.2099 27.5296C80.7399 27.5296 79.5699 27.1596 78.7599 26.1096C78.4399 26.8096 78.0599 27.3396 77.5899 27.7896L76.9099 27.0296L76.8999 27.0196ZM77.2099 21.0696H80.1699V20.0996H81.1699V21.0696H84.1799V23.0296H83.2099V21.8696H78.1799V23.0296H77.2099V21.0696Z" fill="#C67A2C"/>
<path d="M41 62.71L41.1 61.07C41.92 61.31 42.67 61.48 43.33 61.48C44.57 61.48 44.99 61.01 44.99 60.31C44.99 59.57 44.45 59.2 43.12 59.2C42.8 59.2 42.42 59.2 42.07 59.22V57.75C42.74 57.74 43.2 57.73 43.59 57.64C44.41 57.42 44.73 57.09 44.73 56.52C44.73 55.95 44.3 55.58 43.36 55.58C42.67 55.58 41.93 55.84 41.27 56.29L41.19 54.67C41.97 54.2 43 54 43.89 54C45.71 54 46.75 54.8 46.75 56.14C46.75 57.08 46.21 57.85 45.21 58.2C46.38 58.39 47.01 59.2 47.01 60.28C47.01 61.76 45.79 63.07 43.36 63.07C42.62 63.07 41.76 62.94 41.01 62.7" fill="#836951"/>
</g>
<defs>
<clipPath id="clip0_1302_149">
<rect width="125.06" height="125.06" fill="white"/>
</clipPath>
</defs>
</svg>
