<?xml version="1.0" encoding="UTF-8"?><svg id="_レイヤー_2" xmlns="http://www.w3.org/2000/svg" viewBox="0 0 125.06 125.06"><defs><style>.cls-1{fill:#c67a2c;}.cls-2{fill:#e2bc8f;}.cls-3{fill:#836951;}</style></defs><g id="_レイヤー_1-2"><g><path class="cls-2" d="m125.06,62.53c0,34.54-28,62.53-62.53,62.53S0,97.07,0,62.53,28,0,62.53,0s62.53,28,62.53,62.53"/><path class="cls-3" d="m46.77,44.38c1.93-1.44,2.85-2.39,2.85-3.36,0-.72-.45-1.02-1.09-1.02-.58,0-1.11.24-1.55.6l-.04-1.06c.46-.33,1.15-.57,1.91-.57,1.2,0,1.99.67,1.99,1.85,0,1.1-.78,2.16-2.44,3.42h2.49v.98h-4.12v-.82Z"/><path class="cls-3" d="m53.22,42.21c0-2.03.95-3.25,2.45-3.25s2.33,1.08,2.33,3.08-.92,3.23-2.43,3.23-2.35-1.09-2.35-3.06m3.55-.07c0-1.55-.37-2.13-1.18-2.13-.73,0-1.15.68-1.15,2.11s.41,2.12,1.19,2.12c.72,0,1.14-.65,1.14-2.09"/><path class="cls-3" d="m60.28,44.38c1.93-1.44,2.85-2.39,2.85-3.36,0-.72-.45-1.02-1.09-1.02-.58,0-1.11.24-1.55.6l-.04-1.06c.46-.33,1.15-.57,1.91-.57,1.2,0,1.99.67,1.99,1.85,0,1.1-.78,2.16-2.44,3.42h2.49v.98h-4.12v-.82Z"/><path class="cls-3" d="m69.48,43.85h-2.92v-.77l2.8-4.09h1.28v3.93h.93v.94h-.92v1.35h-1.17v-1.35Zm.03-.94l.03-2.65-1.78,2.65h1.75Z"/><path class="cls-3" d="m77.4,43.95h-3.59v-.83h1.26v-2.13h2.33v-1.12h-1.67c-.35.69-.8,1.3-1.31,1.81l-.71-.73c.79-.71,1.33-1.65,1.6-2.75l1,.18c-.08.25-.15.48-.22.67h4.74v.82h-2.45v1.12h2.09v.8h-2.09v1.34h2.89v.83h-2.89v1.9h-.99v-1.9Zm0-2.17h-1.39v1.33h1.39v-1.33Z"/><polygon class="cls-3" points="40.76 61.64 42.6 61.64 42.6 56.17 40.81 56.44 40.76 54.75 44.62 54.24 44.62 61.64 46.29 61.64 46.29 63.2 40.76 63.2 40.76 61.64"/><path class="cls-3" d="m49.68,62.9c1.19-1.29,1.61-2.48,1.61-4.69v-4.62h7.45v9c0,1.07-.31,1.34-1.63,1.34-.55,0-1.33-.02-2.17-.07l-.33-1.76c.75.06,1.52.11,1.91.11s.51-.08.51-.37v-1.33h-4.17c-.22,1.43-.72,2.47-1.82,3.72l-1.36-1.34Zm7.35-7.75h-4.03v1.18h4.03v-1.18Zm0,2.65h-4.03v1.24h4.03v-1.24Z"/><path class="cls-3" d="m67.67,60.76h-2.28v.81h-1.66v-6.36h3.94v-1.93h1.75v1.93h4.01v6.33h-1.68v-.77h-2.34v3.33h-1.75v-3.33Zm0-3.97h-2.28v2.4h2.28v-2.4Zm4.09,0h-2.34v2.4h2.34v-2.4Z"/><path class="cls-3" d="m83.54,63.98l-.33-1.76h-2.8v.71h-1.58v-5.2c-.35.42-.68.77-1,1.07l-.94-1.55c1.27-1.1,2.12-2.45,2.61-4.11l1.72.27c-.17.49-.22.63-.31.88h6.74c-.01,4.19-.16,7.18-.41,8.36-.23,1.08-.67,1.41-1.95,1.41-.53,0-1.22-.04-1.75-.08m2.05-2.24c.16-.85.27-2.95.33-5.92h-5.74c-.12.22-.3.52-.48.77h4.86v5.63h-1.19c.54.1,1.16.16,1.55.16.45,0,.58-.13.67-.64m-2.58-3.79h-2.59v.78h2.59v-.78Zm0,2h-2.59v.84h2.59v-.84Z"/><path class="cls-3" d="m62.02,73.77c-.86,0-1.38.84-1.54,2.23l-1.47-.17c.17-2.33,1.43-3.61,2.95-3.61,1.98,0,2.72,2.28,4.04,2.28.85,0,1.4-.77,1.51-2.22l1.47.17c-.17,2.33-1.36,3.6-2.92,3.6-1.99,0-2.82-2.29-4.04-2.29"/><path class="cls-3" d="m27.22,93.1l.1-1.64c.82.24,1.57.41,2.23.41,1.24,0,1.66-.47,1.66-1.17,0-.74-.54-1.11-1.87-1.11-.32,0-.7,0-1.05.02v-1.47c.67-.01,1.13-.02,1.52-.11.82-.22,1.14-.55,1.14-1.12s-.43-.94-1.37-.94c-.69,0-1.43.26-2.09.71l-.08-1.62c.78-.47,1.81-.67,2.7-.67,1.82,0,2.86.8,2.86,2.14,0,.94-.54,1.71-1.54,2.06,1.17.19,1.8,1,1.8,2.08,0,1.48-1.22,2.79-3.65,2.79-.74,0-1.6-.13-2.35-.37"/><path class="cls-3" d="m36.58,93.06c1.19-1.29,1.61-2.48,1.61-4.69v-4.62h7.45v9c0,1.07-.31,1.34-1.63,1.34-.55,0-1.32-.02-2.17-.07l-.33-1.76c.75.06,1.52.11,1.91.11s.51-.08.51-.37v-1.33h-4.17c-.22,1.43-.72,2.47-1.82,3.72l-1.36-1.34Zm7.35-7.75h-4.03v1.18h4.03v-1.18Zm0,2.65h-4.03v1.24h4.03v-1.24Z"/><path class="cls-3" d="m54.57,90.93h-2.28v.81h-1.66v-6.36h3.94v-1.93h1.75v1.93h4.01v6.33h-1.68v-.77h-2.34v3.33h-1.75v-3.33Zm0-3.97h-2.28v2.4h2.28v-2.4Zm4.09,0h-2.34v2.4h2.34v-2.4Z"/><path class="cls-3" d="m70.44,94.15l-.33-1.76h-2.8v.71h-1.58v-5.2c-.35.42-.68.77-1,1.07l-.94-1.56c1.26-1.1,2.12-2.45,2.6-4.11l1.72.27c-.17.49-.22.63-.31.88h6.74c-.01,4.19-.16,7.18-.41,8.37-.23,1.08-.67,1.41-1.95,1.41-.53,0-1.22-.04-1.75-.08m2.05-2.24c.16-.86.27-2.95.33-5.92h-5.74c-.12.22-.3.52-.48.77h4.86v5.63h-1.19c.54.1,1.16.16,1.55.16.45,0,.58-.13.67-.64m-2.58-3.79h-2.59v.78h2.59v-.78Zm0,2h-2.59v.84h2.59v-.84Z"/><path class="cls-3" d="m79,91.03c0-.8.42-1.59,1.22-2.33l1.49.82c-.53.37-.96.89-.96,1.37,0,.65.75,1,2.49,1,1.27,0,2.66-.14,4-.47l.41,1.76c-1.39.31-3.12.41-4.3.41-2.81,0-4.35-.88-4.35-2.57m2.71-3.64c.36-.3.72-.57,1.1-.83-1.23.06-2.41.06-3.12.04l-.1-1.67c2.43.1,4.42.01,6.15-.21l.3,1.66c-.48.05-.63.07-1.09.29-.6.29-1.06.66-1.84,1.39l-1.4-.66Zm4.09-3.18l.94-.42c.41.64.63,1.13.9,1.93l-.99.47c-.25-.78-.46-1.3-.86-1.98m1.49-.28l.95-.43c.42.66.63,1.17.86,1.93l-.98.46c-.24-.8-.46-1.33-.83-1.95"/><path class="cls-3" d="m94.6,92.59c2.91-.2,4.34-.95,4.34-2.18,0-.77-.66-1.22-1.87-1.22-.86,0-1.62.25-2.4.82-.65.47-.98.81-1.7,1.63l-1.29-1.22c1.18-1.04,2.99-2.82,4.48-4.62-1.04.13-2.13.22-2.72.24l-.29-1.65c1.23-.01,2.95-.09,5-.47l.89,1.13c-.93,1.02-1.72,1.87-2.54,2.7.29-.06.57-.08.87-.08,1.93,0,3.35,1.1,3.35,2.7,0,2.2-1.7,3.39-5.24,3.77l-.88-1.55Z"/><path class="cls-1" d="m40.97,25.7c0-.63.65-1.48,1.61-1.92,0-.38-.03-.78-.03-1.16-.54.05-1.07.08-1.51.09l-.1-.95c.47,0,1.03-.04,1.6-.08,0-.4,0-.87,0-1.33l1.13.04c-.02.35-.03.76-.04,1.17.48-.06.93-.13,1.3-.2l.12.95c-.43.07-.92.14-1.43.2v.32c0,.19,0,.41,0,.65.54-.15,1.13-.24,1.66-.24,1.36,0,2.17.74,2.17,1.83,0,1.23-.8,2-2.07,2-.33,0-.68-.05-.93-.14l-.16-1.05c.31.13.65.2.96.2.72,0,1.14-.42,1.14-1,0-.53-.42-.92-1.29-.92-.46,0-.97.09-1.46.26.02.52.03,1.05.05,1.45,0,.25,0,.41,0,.6,0,.56-.42.81-.99.81-.95,0-1.76-.68-1.76-1.58m1.5.56c.2,0,.26-.14.26-.38,0-.2,0-.4-.02-.68,0-.15,0-.3,0-.43-.44.26-.75.65-.75.93,0,.34.27.57.51.57m2.92-4.61l.52-.82c.72.31,1.27.67,1.87,1.26l-.61.85c-.63-.62-1.11-.96-1.78-1.28"/><path class="cls-1" d="m49.49,26.99c.6-.82.83-1.73.83-3.32v-3.15h6.43v2.23h-2.11v.92h2.18v4.09h-.9v-.36h-3.44v.36h-.9v-4.09h2.14v-.92h-2.45v.88c0,1.96-.29,3.11-1.03,4.14l-.76-.77Zm6.31-5.71h-4.52v.76h4.52v-.76Zm-2.06,3.1h-1.26v.76h1.26v-.76Zm0,1.45h-1.26v.81h1.26v-.81Zm2.18-1.45h-1.3v.76h1.3v-.76Zm0,1.45h-1.3v.81h1.3v-.81Z"/><path class="cls-1" d="m59.58,24.4c0-.71.13-2.16.33-3.66l1.04.16c-.31,1.78-.41,2.88-.41,3.63,0,.3,0,.6.05.86.13-.34.31-.71.49-1.03l.54.61c-.26.45-.38.71-.48,1-.11.31-.18.64-.15.99l-.81.32c-.44-.84-.61-1.78-.61-2.87m2.1-2.01c.72.03,1.45.02,2.13-.02-.03-.6-.08-1.26-.15-1.99l1.08-.08c.04.69.09,1.35.11,1.97.46-.06.87-.14,1.23-.22l.11,1.02c-.37.08-.82.14-1.29.19,0,.26,0,.49,0,.71,0,2.1-.3,2.87-1.39,3.77l-1.07-.46c1.21-.92,1.41-1.81,1.41-3.47,0-.15,0-.32,0-.48-.72.04-1.46.05-2.1.03l-.07-.99Z"/><path class="cls-1" d="m69.78,27.61l-.22-1.01c.51.07.93.11,1.17.11s.31-.05.31-.27v-2.36h-3.14v-.88h3.85c-.6-.43-1.3-.86-2.02-1.23l.66-.53h-1.78v-.87h5.25l.51.53c-.58.45-1.22.88-2.06,1.39.23.14.38.25.55.37l-.49.35h2.41l.44.46c-.65.94-1.26,1.66-1.96,2.33l-.9-.54c.54-.42,1.01-.89,1.34-1.36h-1.65v2.8c0,.6-.25.82-.94.82-.44,0-.96-.03-1.33-.08m2.81-6.18h-2.12c.15.07.7.36,1.1.59.44-.23.8-.43,1.01-.59"/><path class="cls-1" d="m76.9,27.02c.78-.71,1.32-1.75,1.56-3l.94.23c-.13.46-.23.82-.31,1.03.27.36.65.66,1.08.88v-2.71h-1.7v-.8h4.44v.8h-1.75v1.04h2.5v.8h-2.5v1.15c.58.08,1.19.12,1.9.12.46,0,.88-.02,1.43-.05-.17.4-.25.62-.32,1-.48.02-.69.02-.96.02-2.47,0-3.64-.37-4.45-1.42-.32.7-.7,1.23-1.17,1.68l-.68-.76Zm.31-5.95h2.96v-.97h1v.97h3.01v1.96h-.97v-1.16h-5.03v1.16h-.97v-1.96Z"/></g></g></svg>