<svg width="54" height="36" viewBox="0 0 54 36" fill="none" xmlns="http://www.w3.org/2000/svg">
<g clip-path="url(#clip0_1623_6909)">
<path d="M43.7491 32.6304C43.7491 32.4404 43.6691 32.3104 43.5091 32.2404C43.4191 32.2004 43.2791 32.1904 43.0891 32.1904H42.5391V33.7304H42.7991V33.1204H43.0191C43.1691 33.1204 43.2691 33.1404 43.3291 33.1704C43.4291 33.2304 43.4791 33.3504 43.4791 33.5204V33.6904V33.7004V33.7204H43.7391V33.7004L43.7191 33.6204V33.5104V33.3904C43.7191 33.3104 43.6891 33.2304 43.6391 33.1504C43.5791 33.0704 43.4991 33.0204 43.3691 33.0004C43.4691 32.9804 43.5391 32.9604 43.5991 32.9204C43.6991 32.8604 43.7491 32.7604 43.7491 32.6104V32.6304ZM43.3191 32.9004C43.2591 32.9204 43.1791 32.9304 43.0591 32.9304H42.8091V32.3804H43.0491C43.1991 32.3804 43.3091 32.4004 43.3891 32.4404C43.4591 32.4804 43.4891 32.5504 43.4891 32.6704C43.4891 32.7904 43.4391 32.8704 43.3291 32.9104L43.3191 32.9004Z" fill="#00A0E9"/>
<path d="M43.1092 31.5605C42.7192 31.5605 42.3892 31.7005 42.1092 31.9705C41.8292 32.2405 41.6992 32.5805 41.6992 32.9605C41.6992 33.3405 41.8392 33.6805 42.1092 33.9605C42.3792 34.2305 42.7192 34.3805 43.1092 34.3805C43.4992 34.3805 43.8392 34.2405 44.1092 33.9605C44.3792 33.6805 44.5192 33.3505 44.5192 32.9605C44.5192 32.5705 44.3792 32.2405 44.1092 31.9705C43.8392 31.7005 43.4992 31.5605 43.1092 31.5605ZM43.9692 33.8305C43.7292 34.0705 43.4392 34.1905 43.1092 34.1905C42.7792 34.1905 42.4792 34.0705 42.2492 33.8305C42.0192 33.5905 41.8992 33.3105 41.8992 32.9705C41.8992 32.6305 42.0192 32.3505 42.2492 32.1105C42.4892 31.8705 42.7792 31.7505 43.1092 31.7505C43.4392 31.7505 43.7292 31.8705 43.9692 32.1105C44.2092 32.3505 44.3192 32.6305 44.3192 32.9705C44.3192 33.3105 44.1992 33.6005 43.9692 33.8305Z" fill="#00A0E9"/>
<path d="M29.0298 33.9198C21.6298 33.9198 15.2198 31.0498 12.6098 26.9698H15.1998C15.5498 26.9698 15.5598 26.6098 15.5598 26.6098V26.3698C15.5598 25.9898 15.2198 25.9798 15.2198 25.9798H12.5498V24.2298H15.4498C15.4498 24.2298 15.7698 24.2198 15.7698 23.8698V23.6198C15.7698 23.6198 15.8098 23.2598 15.4198 23.2598H8.60977C8.25977 23.2598 8.25977 23.6398 8.25977 23.6398V23.8898C8.25977 23.8898 8.25977 24.2398 8.56977 24.2398H11.4798V25.9898H8.76977C8.76977 25.9898 8.45977 25.9898 8.45977 26.3398V26.6298C8.45977 26.6298 8.43977 26.9698 8.77977 26.9698H11.3998C11.2398 27.6898 10.8898 28.2698 10.3498 28.7198C9.88977 29.0998 9.31977 29.3798 8.63977 29.5198C8.57977 29.5398 8.26977 29.5898 8.26977 29.8898V30.3398C8.26977 30.3398 8.26977 30.6698 8.71977 30.5898C9.40977 30.4598 10.0198 30.1998 10.5698 29.8498C11.2298 29.4198 11.7298 28.8798 12.0898 28.2098L12.1498 28.0498L12.1898 28.1198C12.3198 28.3398 12.4598 28.5498 12.6198 28.7398C12.9498 29.1798 13.3198 29.5998 13.7398 29.9998C16.7498 32.7998 22.2598 35.0498 28.5498 35.0498C34.8398 35.0498 40.2698 33.0198 43.2698 30.1898C43.9698 29.4898 44.6198 28.7398 45.0598 27.9498C45.2998 27.4798 45.5798 26.9998 45.6798 26.4998C43.2898 30.8298 36.7498 33.9498 29.0498 33.9498L29.0298 33.9198Z" fill="#00A0E9"/>
<path d="M16.0799 27.8604C16.0799 27.8604 16.2399 28.1604 16.5199 27.9404L16.5899 27.8804C16.8599 27.6604 17.0799 27.4204 17.2599 27.1604V30.1604C17.2599 30.1604 17.2699 30.4804 17.5999 30.4804H17.8299C17.8299 30.4804 18.1699 30.5204 18.1699 30.1404V28.2004V25.8604C18.1699 25.8204 18.1399 25.6704 17.9999 25.5904C18.1799 24.8904 18.2199 24.2304 18.2199 23.7904V23.7304C18.2199 23.7304 18.2099 23.4304 17.8999 23.4304H17.6799C17.6799 23.4304 17.3799 23.4004 17.3599 23.7304C17.3599 23.7304 17.3599 23.7504 17.3599 23.7604V23.7904C17.3599 24.4504 17.2599 25.7004 16.5899 26.6204C16.4499 26.8204 16.2799 27.0004 16.0899 27.1504L15.9799 27.2404C15.9799 27.2404 15.7599 27.4304 15.9399 27.6904L16.0699 27.8804L16.0799 27.8604Z" fill="#00A0E9"/>
<path d="M30.18 28.8802C30.18 28.8802 30.09 28.6302 29.84 28.6302C29.77 28.6302 29.7 28.6502 29.62 28.6902L29.34 28.8302V24.6402C29.34 24.5002 29.24 24.2402 28.91 24.2402H28.69C28.69 24.2402 28.68 24.2402 28.65 24.2402C28.45 24.2402 28.25 24.3602 28.25 24.6802V29.6602C28.25 29.8402 28.33 30.0002 28.48 30.1002C28.57 30.1602 28.68 30.2002 28.8 30.2002C28.86 30.2002 28.92 30.2002 28.99 30.1702L30.1 29.6202C30.22 29.5602 30.4 29.3602 30.27 29.0802L30.18 28.8902V28.8802Z" fill="#00A0E9"/>
<path d="M36.5598 26.0004C36.9998 26.0004 37.3598 25.6404 37.3598 25.2004C37.3598 24.7604 36.9998 24.4004 36.5598 24.4004C36.1198 24.4004 35.7598 24.7604 35.7598 25.2004C35.7598 25.6404 36.1198 26.0004 36.5598 26.0004Z" fill="#00A0E9"/>
<path d="M44.1095 27.23V27C44.1095 26.67 43.8395 26.58 43.6995 26.57H42.6795C42.5095 25.33 41.4095 24.4 40.1095 24.4C39.7095 24.4 39.3195 24.49 38.9595 24.66V23.85C38.9595 23.71 38.8595 23.43 38.5195 23.43H38.2895C38.2895 23.43 38.2795 23.43 38.2495 23.43C38.0495 23.43 37.8295 23.55 37.8295 23.88V25.5L36.4695 27.13H34.1495V25.8H34.8095C34.8095 25.8 34.8695 25.8 34.8795 25.8H34.9595C35.1095 25.8 35.2195 25.76 35.2995 25.67C35.4095 25.54 35.3995 25.38 35.3995 25.38V25.15C35.3995 24.83 35.1395 24.73 34.9995 24.72H34.1495V23.67C34.1495 23.53 34.0395 23.25 33.7095 23.25H33.4795C33.4795 23.25 33.4695 23.25 33.4395 23.25C33.2395 23.25 33.0195 23.37 33.0195 23.7V24.72H31.4595C31.3195 24.72 31.0595 24.82 31.0595 25.15V25.37C31.0595 25.37 31.0395 25.55 31.1595 25.67C31.2395 25.76 31.3495 25.8 31.4995 25.8H31.5695C31.5695 25.8 31.6295 25.8 31.6595 25.8H33.0295V27.13H32.4195C31.4595 27.13 30.6895 27.88 30.6895 28.8C30.6895 29.72 31.4695 30.47 32.4195 30.47C33.3695 30.47 34.1495 29.72 34.1495 28.8V28.74V28.22H36.7395C36.9095 28.22 37.0695 28.15 37.1795 28.02L37.8395 27.23V29.96C37.8395 30.1 37.9395 30.38 38.2795 30.38H38.5095C38.5095 30.38 38.5195 30.38 38.5495 30.38C38.7495 30.38 38.9695 30.26 38.9695 29.93V26.03C39.2595 25.69 39.6695 25.49 40.1195 25.49C40.8095 25.49 41.3895 25.95 41.5495 26.59H41.3595H41.1395C41.0195 26.59 40.9095 26.6 40.7995 26.62C40.7695 26.62 40.7295 26.64 40.6995 26.65L40.6095 26.68C40.6095 26.68 40.5295 26.7 40.4895 26.72C40.4295 26.74 40.3795 26.77 40.3195 26.8H40.2995C40.2995 26.8 40.2795 26.82 40.2695 26.83C40.2495 26.84 40.2295 26.85 40.2095 26.86C40.1395 26.9 40.0695 26.96 39.9895 27.03C39.9895 27.03 39.9695 27.04 39.9695 27.05C39.6195 27.37 39.4295 27.8 39.4295 28.25C39.4295 28.35 39.4395 28.45 39.4595 28.55C39.4595 28.58 39.4795 28.62 39.4895 28.65V28.68C39.5095 28.73 39.5295 28.78 39.5495 28.83C39.5695 28.88 39.5895 28.93 39.6195 28.99C39.6395 29.02 39.6495 29.05 39.6695 29.07C39.6995 29.12 39.7295 29.17 39.7595 29.22L39.7795 29.24C39.8195 29.29 39.8595 29.34 39.9095 29.39C39.9495 29.43 39.9795 29.46 40.0195 29.49C40.0495 29.52 40.0895 29.55 40.1295 29.58C40.1795 29.61 40.2195 29.65 40.2695 29.68C40.3295 29.71 40.3795 29.74 40.4495 29.77L40.4795 29.79C40.4795 29.79 40.5095 29.8 40.5295 29.81C40.6095 29.84 40.6995 29.87 40.7895 29.89C40.8095 29.89 40.8295 29.89 40.8595 29.9C40.9695 29.92 41.0695 29.93 41.1695 29.93C41.9895 29.93 42.7095 29.37 42.8695 28.59C42.9495 28.29 42.9795 27.99 42.9495 27.67H43.5895C43.5895 27.67 43.6395 27.67 43.6495 27.67H43.7395C43.8895 27.67 43.9995 27.63 44.0795 27.54C44.1895 27.41 44.1795 27.24 44.1795 27.24L44.1095 27.23ZM41.1195 28.83C40.7795 28.83 40.5095 28.57 40.5095 28.25C40.5095 27.93 40.7795 27.67 41.1195 27.67C41.4595 27.67 41.7295 27.93 41.7295 28.25C41.7295 28.57 41.4595 28.83 41.1195 28.83ZM32.4095 28.23C32.7495 28.23 33.0195 28.49 33.0195 28.81C33.0195 29.13 32.7495 29.39 32.4095 29.39C32.0695 29.39 31.7995 29.13 31.7995 28.81C31.7995 28.49 32.0695 28.23 32.4095 28.23Z" fill="#00A0E9"/>
<path d="M18.6106 30.2302C18.6106 30.4502 18.7406 30.5302 18.8206 30.5502C18.8306 30.5502 18.8406 30.5602 18.8506 30.5602C18.8706 30.5602 18.9106 30.5602 18.9406 30.5702C18.9906 30.5702 19.0406 30.5702 19.0806 30.5702C19.7306 30.5302 20.1906 30.2302 20.6206 29.8602C20.7206 29.9202 20.8206 29.9702 20.9306 30.0302C21.5606 30.3402 22.3606 30.5702 23.3506 30.5702H23.5406C23.5406 30.5702 23.8306 30.5702 23.8306 30.2302V30.0402C23.8306 30.0402 23.8606 29.6902 23.5106 29.6902L23.0106 29.6602C22.2706 29.6102 21.6706 29.4002 21.2006 29.1502C21.4606 28.7002 21.5806 28.2002 21.6306 27.7602H22.8406C23.1706 27.7602 23.4306 27.5102 23.4306 27.2002V25.5802C23.4306 25.2702 23.1706 25.0202 22.8406 25.0202H21.6506V24.5602H23.3406H23.3606C23.3606 24.5602 23.6606 24.5502 23.6606 24.2102V23.9702C23.6606 23.9702 23.7006 23.6202 23.3306 23.6202H21.6506V23.4702C21.6506 23.4102 21.6006 23.1702 21.3206 23.1702H21.1406C21.1406 23.1702 20.8006 23.1302 20.8006 23.5102V23.6202H19.2206C18.8606 23.6202 18.8906 23.9702 18.8906 23.9702V24.2102C18.8906 24.4902 19.0906 24.5502 19.1606 24.5602H20.8006V25.0202H19.5706C19.2406 25.0202 18.9806 25.2702 18.9806 25.5802V27.2002C18.9806 27.5102 19.2406 27.7602 19.5706 27.7602H20.7606C20.7606 27.7602 20.7606 27.8302 20.7506 27.8802C20.7206 28.0802 20.6606 28.3602 20.5006 28.6302C20.5006 28.6302 20.4906 28.6502 20.4806 28.6602C20.2906 28.5002 20.1506 28.3402 20.0306 28.1902V28.1702C20.0306 28.1702 19.9806 28.1202 19.9606 28.1002C19.9006 28.0402 19.8206 28.0002 19.7506 28.0002H19.0206C19.0206 28.0002 18.9406 28.0202 18.9306 28.0602C18.9306 28.0902 18.9306 28.1302 18.9506 28.1702L19.0406 28.3302C19.0406 28.3302 19.4106 28.8702 19.8406 29.3102C19.5906 29.4702 19.2806 29.6102 18.8806 29.6902C18.5606 29.7102 18.5906 30.0302 18.5906 30.0302V30.2202L18.6106 30.2302ZM21.6406 25.8202H22.4006C22.5506 25.8202 22.6806 25.9502 22.6806 26.1102V26.6102C22.6806 26.7702 22.5606 26.9002 22.4006 26.9002H21.6406V25.8102V25.8202ZM20.0306 26.9102C19.8806 26.9102 19.7506 26.7802 19.7506 26.6202V26.1202C19.7506 25.9602 19.8706 25.8302 20.0306 25.8302H20.7906V26.9202H20.0306V26.9102Z" fill="#00A0E9"/>
<path d="M24.9096 29.0702H24.9296C25.0196 29.0702 25.1096 29.0202 25.1796 28.9502L26.8096 27.0602L26.8996 27.2802C26.9496 27.4002 26.9696 27.5202 26.9796 27.6502C26.9796 27.9402 26.8796 28.2102 26.6796 28.4202C26.6196 28.4902 26.5796 28.5802 26.5796 28.6702C26.5796 28.7602 26.6196 28.8502 26.6896 28.9202C26.8196 29.0402 27.0596 29.0402 27.1896 28.9102C27.5196 28.5602 27.6896 28.1102 27.6796 27.6402C27.6696 27.1602 27.4696 26.7202 27.1296 26.4002C26.7996 26.0802 26.3596 25.9102 25.8896 25.9102H25.8496C25.3796 25.9202 24.9296 26.1202 24.6096 26.4602C24.2796 26.8002 24.1096 27.2602 24.1196 27.7302C24.1296 28.2102 24.3296 28.6502 24.6696 28.9702C24.7396 29.0302 24.8196 29.0702 24.9096 29.0702ZM25.1096 26.9402C25.3096 26.7302 25.5696 26.6102 25.8596 26.6002H25.8896C25.8896 26.6002 25.9296 26.6002 25.9496 26.6002L26.2496 26.6202L24.8996 28.1902L24.8396 27.9002C24.7696 27.5502 24.8696 27.1902 25.1096 26.9402Z" fill="#00A0E9"/>
<path d="M52.8398 0.31C52.7698 0.26 52.3698 0 51.8298 0C51.5498 0 51.2798 0.07 51.0098 0.23C50.9798 0.25 50.3798 0.62 49.7998 1.1C49.7898 1.1 48.7798 1.86 47.7498 2.33C47.7398 2.33 46.4298 2.99 44.3398 3.48C44.3398 3.48 42.6098 3.95 41.8498 4.15C41.7598 4.17 39.7398 4.72 38.6498 5.05C38.5598 5.08 36.4798 5.74 35.2998 6.26C35.2498 6.28 34.0698 6.72 32.8598 7.52C32.8198 7.55 31.8498 8.25 31.3698 8.74C31.3398 8.78 30.5098 9.64 30.0198 10.4C29.8898 10.57 29.1998 11.56 28.6798 13.22C28.6598 13.29 28.0798 15.04 28.3198 16.79C28.3198 16.84 28.4598 18.06 29.3198 19.38C29.3598 19.44 30.2898 20.88 32.3198 21.32C32.4198 21.35 32.6898 21.41 33.0798 21.41C33.5398 21.41 34.2398 21.32 35.0698 20.88C35.1298 20.85 35.4598 20.64 35.7898 20.32C36.0098 20.47 36.2998 20.63 36.6498 20.77C36.7098 20.8 37.2298 21.03 37.8898 21.03C38.5498 21.03 39.1398 20.78 39.5698 20.33C39.5898 20.31 39.6798 20.21 39.7798 20.07C40.2098 20.27 40.8098 20.44 41.5698 20.44C41.6698 20.44 41.7698 20.44 41.8798 20.44C41.9498 20.44 43.5898 20.3 44.4998 18.82C44.7298 18.48 44.9898 17.75 44.7098 17.01C45.1098 16.89 45.5498 16.72 45.9198 16.46C46.1398 16.33 47.1198 15.73 47.6998 14.58C47.7698 14.44 48.3098 13.22 47.6598 12.31C47.6398 12.28 47.6198 12.25 47.5898 12.21C47.8398 12.08 48.1098 11.93 48.3798 11.73C48.4998 11.65 49.5898 10.92 49.8798 9.85C49.9498 9.64 50.1298 8.92 49.7098 8.05C49.6698 7.96 49.6098 7.86 49.5298 7.76C49.8298 7.62 50.1498 7.46 50.4698 7.28C50.5298 7.25 52.0498 6.51 53.0998 5.15C53.1898 5.05 53.9498 4.13 53.9198 2.3C53.9198 2.17 53.7998 0.96 52.8498 0.31H52.8398ZM52.4398 3.78C51.9898 4.94 50.7698 5.78 50.7698 5.78C49.4898 6.7 48.2498 7.18 48.2498 7.18C47.6098 7.49 47.1498 7.63 46.9398 7.69C46.6598 7.76 46.3798 7.83 46.1798 7.87C46.9498 7.77 48.3798 7.72 48.6398 8.69C48.8098 9.21 48.6098 9.73 48.6098 9.73C48.3898 10.48 47.1798 11.07 47.1798 11.07C46.1498 11.62 44.8598 12 44.8598 12C44.2898 12.2 42.9798 12.49 42.9798 12.49C43.4998 12.51 44.2898 12.41 44.2898 12.41C45.0398 12.29 45.3798 12.37 45.3798 12.37C45.9998 12.48 46.4098 12.93 46.4098 12.93C46.7598 13.34 46.5298 14.04 46.5298 14.04C46.3198 14.74 45.5998 15.2 45.5998 15.2C44.4698 16.04 43.4898 16.13 43.4898 16.13C42.7598 16.3 41.7498 16.19 41.7498 16.19C40.9798 16.11 40.0398 15.73 40.0398 15.73C40.3398 16.03 41.1998 16.32 41.1998 16.32C41.7398 16.5 42.5098 16.55 42.5098 16.55C42.6798 16.62 42.8698 16.72 42.8698 16.72C43.3498 16.99 43.4398 17.37 43.4398 17.37C43.5898 17.82 43.3398 18.31 43.3398 18.31C42.9698 19.06 42.2898 19.21 42.2898 19.21C41.4298 19.61 40.5398 19.28 40.5398 19.28C39.7498 19.04 39.2698 18.6 39.2698 18.6C39.1598 18.48 38.8598 18.1 38.8598 18.1H38.7898V18.17C39.1098 18.64 39.0698 18.81 39.0698 18.81C39.1098 19.53 38.4598 19.76 38.4598 19.76C37.7698 19.97 37.0098 19.65 37.0098 19.65C36.1198 19.33 35.9298 18.86 35.9298 18.86C36.2398 18.21 36.0698 17.24 36.0698 17.24C35.8998 16.33 35.0598 15.98 35.0598 15.98C34.2398 15.65 33.7398 16.08 33.7398 16.08C33.3798 16.35 33.2398 16.77 33.2398 16.77C33.1798 16.93 33.2698 16.96 33.2698 16.96C33.3298 16.98 33.3698 16.9 33.3698 16.9C33.5098 16.57 33.7398 16.41 33.7398 16.41C34.2098 16.16 34.5698 16.32 34.8398 16.46C35.4598 16.75 35.5498 17.33 35.5498 17.33C35.7298 18.69 34.7298 19.55 34.7098 19.56C33.6198 20.47 32.1798 19.89 32.1798 19.89C30.3798 19.32 29.8198 17.62 29.8198 17.62C29.3698 16.33 29.4898 15.25 29.4898 15.25C29.6798 13.35 30.3998 12.09 30.3998 12.09C31.6298 9.88 32.9598 8.96 32.9598 8.96C34.5098 7.68 36.3898 6.97 36.3898 6.97C37.9298 6.34 41.2098 5.47 41.2098 5.47C42.3898 5.19 45.2198 4.4 45.2198 4.4C47.6998 3.69 49.0998 2.9 49.0998 2.9C50.0998 2.36 51.3998 1.3 51.3998 1.3C51.9198 0.89 52.2398 1.24 52.2398 1.24C52.5698 1.58 52.6598 2.08 52.6598 2.08C52.7798 2.95 52.4398 3.73 52.4398 3.73V3.78Z" fill="#00A0E9"/>
<path d="M-0.000448252 2.3C-0.0404483 4.14 0.729552 5.05 0.809552 5.15C1.86955 6.5 3.37955 7.24 3.43955 7.28C3.75955 7.46 4.07955 7.62 4.37955 7.76C4.29955 7.87 4.23955 7.97 4.19955 8.05C3.77955 8.93 3.95955 9.64 4.02955 9.85C4.31955 10.93 5.40955 11.65 5.52955 11.73C5.79955 11.92 6.06955 12.08 6.31955 12.21C6.28955 12.25 6.26955 12.28 6.24955 12.31C5.58955 13.22 6.13955 14.44 6.20955 14.58C6.78955 15.73 7.76955 16.33 7.98955 16.46C8.35955 16.71 8.79955 16.89 9.19955 17.01C8.91955 17.75 9.17955 18.48 9.40955 18.82C10.3196 20.29 11.9596 20.43 12.0296 20.44C12.1396 20.44 12.2496 20.44 12.3396 20.44C13.0996 20.44 13.6896 20.27 14.1196 20.07C14.2196 20.21 14.2996 20.3 14.3296 20.33C14.7596 20.79 15.3396 21.03 16.0096 21.03C16.6796 21.03 17.1896 20.79 17.2496 20.77C17.5996 20.63 17.8896 20.47 18.1096 20.32C18.4396 20.64 18.7696 20.84 18.8296 20.88C19.6596 21.32 20.3696 21.41 20.8196 21.41C21.2096 21.41 21.4796 21.35 21.5796 21.32C23.6196 20.88 24.5396 19.44 24.5796 19.38C25.4396 18.06 25.5796 16.84 25.5796 16.79C25.8196 15.04 25.2396 13.29 25.2196 13.22C24.6896 11.56 23.9996 10.57 23.8696 10.4C23.3696 9.64 22.5496 8.77 22.5196 8.74C22.0296 8.25 21.0696 7.55 21.0296 7.52C19.8196 6.72 18.6396 6.27 18.5896 6.26C17.4096 5.74 15.3296 5.08 15.2396 5.05C14.1596 4.72 12.1296 4.17 12.0396 4.15C11.2796 3.95 9.54955 3.48 9.54955 3.48C7.45955 2.99 6.14955 2.34 6.13955 2.33C5.10955 1.86 4.09955 1.11 4.08955 1.1C3.50955 0.62 2.90955 0.25 2.87955 0.23C2.60955 0.08 2.33955 0 2.05955 0C1.51955 0 1.11955 0.26 1.04955 0.31C0.119552 0.96 0.00955175 2.16 -0.000448252 2.3ZM1.24955 2.13C1.24955 2.13 1.33955 1.63 1.66955 1.29C1.66955 1.29 1.98955 0.95 2.50955 1.35C2.50955 1.35 3.79955 2.4 4.80955 2.95C4.80955 2.95 6.20955 3.74 8.68955 4.45C8.68955 4.45 11.5196 5.24 12.6996 5.52C12.6996 5.52 15.9696 6.38 17.5196 7.02C17.5196 7.02 19.3996 7.73 20.9496 9.01C20.9496 9.01 22.2796 9.94 23.5096 12.14C23.5096 12.14 24.2296 13.4 24.4196 15.3C24.4196 15.3 24.5296 16.38 24.0896 17.67C24.0896 17.67 23.5196 19.37 21.7296 19.94C21.7296 19.94 20.2896 20.52 19.1996 19.61C19.1796 19.6 18.1796 18.73 18.3596 17.38C18.3596 17.38 18.4596 16.81 19.0696 16.51C19.3496 16.38 19.6996 16.21 20.1696 16.46C20.1696 16.46 20.3996 16.61 20.5396 16.95C20.5396 16.95 20.5796 17.03 20.6396 17.01C20.6396 17.01 20.7296 16.98 20.6696 16.82C20.6696 16.82 20.5296 16.39 20.1696 16.13C20.1696 16.13 19.6696 15.7 18.8496 16.03C18.8496 16.03 18.0096 16.38 17.8396 17.29C17.8396 17.29 17.6796 18.26 17.9796 18.91C17.9796 18.91 17.7996 19.38 16.8996 19.7C16.8996 19.7 16.1396 20.01 15.4496 19.81C15.4496 19.81 14.7996 19.58 14.8396 18.86C14.8396 18.86 14.7896 18.69 15.1096 18.22C15.1096 18.22 15.1396 18.18 15.1096 18.14H15.0396C15.0396 18.14 14.7396 18.53 14.6296 18.65C14.6296 18.65 14.1496 19.09 13.3596 19.33C13.3596 19.33 12.4696 19.66 11.6096 19.26C11.6096 19.26 10.9296 19.11 10.5596 18.36C10.5596 18.36 10.3096 17.87 10.4596 17.42C10.4596 17.42 10.5596 17.04 11.0296 16.77C11.0296 16.77 11.2296 16.67 11.3896 16.6C11.3896 16.6 12.1596 16.55 12.6996 16.37C12.6996 16.37 13.5696 16.08 13.8596 15.78C13.8596 15.78 12.9196 16.16 12.1496 16.24C12.1496 16.24 11.1396 16.35 10.4096 16.18C10.4096 16.18 9.42955 16.1 8.29955 15.25C8.29955 15.25 7.57955 14.79 7.36955 14.09C7.36955 14.09 7.14955 13.39 7.48955 12.98C7.48955 12.98 7.89955 12.53 8.51955 12.42C8.51955 12.42 8.84955 12.34 9.60955 12.46C9.60955 12.46 10.3996 12.56 10.9196 12.54C10.9196 12.54 9.60955 12.26 9.03955 12.05C9.03955 12.05 7.74955 11.67 6.71955 11.12C6.71955 11.12 5.50955 10.53 5.28955 9.78C5.28955 9.78 5.07955 9.26 5.25955 8.74C5.51955 7.77 6.94955 7.82 7.71955 7.92C7.50955 7.87 7.22955 7.81 6.95955 7.74C6.74955 7.68 6.28955 7.54 5.64955 7.23C5.64955 7.23 4.41955 6.75 3.12955 5.83C3.12955 5.83 1.89955 5 1.45955 3.83C1.45955 3.83 1.11955 3.05 1.23955 2.18L1.24955 2.13Z" fill="#00A0E9"/>
</g>
<defs>
<clipPath id="clip0_1623_6909">
<rect width="53.91" height="35.02" fill="white"/>
</clipPath>
</defs>
</svg>
