<svg width="44" height="43" viewBox="0 0 44 43" fill="none" xmlns="http://www.w3.org/2000/svg">
<g clip-path="url(#clip0_1637_7090)">
<path d="M6.61127 0.919674C6.87733 0.832061 7.24686 0.0654513 7.609 0.109258C7.7642 0.131161 8.37023 1.34313 8.37023 1.34313C13.3219 1.59137 19.4117 7.49792 20.1951 8.0966C20.572 8.38864 22.1684 10.0241 25.0951 11.2872C26.2997 11.8055 27.5044 12.0246 28.6204 11.9516C30.1207 11.8493 31.7835 10.5498 32.8108 8.7902C34.0968 6.57798 34.6511 2.73033 38.3685 0.554621C38.8859 0.247977 40.0684 -0.43102 40.7483 0.430504C41.2952 1.1241 40.8444 2.27767 40.2753 2.82525C39.9205 3.1684 39.2628 3.51885 38.0138 4.10293C37.5925 4.30006 36.9052 4.81113 36.6317 5.01556C35.3014 6.02311 34.3259 8.30103 33.2543 10.798C33.2543 10.798 32.796 12.0246 30.7784 13.3461C30.4384 13.5651 30.7489 13.7476 31.1184 14.2222C31.5988 14.8355 32.5521 17.3762 32.4265 21.2385C32.4043 21.9175 32.6852 22.2168 33.003 22.779C33.5499 23.75 34.6289 23.5383 34.6067 24.8014C34.5698 26.5098 35.841 26.8749 35.4345 27.6561C35.1388 28.2329 35.2349 28.7805 35.2423 29.3426C35.2423 29.6274 35.3975 30.0435 34.8063 30.007C32.3822 29.8683 32.5448 26.6486 32.5891 25.5461C32.6334 25.4001 32.5152 25.1372 32.5004 25.1226C32.3822 25.035 30.8671 23.8815 30.771 23.7792C28.9382 21.9394 27.7261 20.282 27.0536 18.5809C26.6027 17.4492 26.1445 16.3249 25.3611 15.6094C24.4817 14.8136 23.3952 14.3682 22.4492 14.3609C15.7091 14.3244 14.3196 11.404 12.4868 9.94377C12.435 9.90726 12.2651 9.81235 12.1616 9.80505C12.0581 9.81235 11.9768 9.93647 11.9177 9.98757C11.2082 10.7177 10.4987 10.9586 9.53794 10.9586C7.26164 10.9586 4.80798 8.98003 4.37932 9.42539C4.04675 9.76854 4.32759 10.4694 3.72895 10.5936C2.8347 10.7615 1.93305 9.90726 1.99956 9.18446C2.13259 7.88487 3.47028 7.50522 4.65277 7.3811C5.62833 7.27158 6.41912 7.53442 6.60388 7.56363C7.15078 7.63664 7.24686 6.98684 7.15078 6.56338C7.05471 6.11072 6.61866 6.0158 6.17523 5.88439C5.62833 5.72376 5.0223 6.16913 4.61582 6.03041C4.13543 5.86248 4.10587 5.62155 3.70678 5.2784C3.21161 4.84764 2.62037 4.73082 2.62776 4.11753C2.62776 3.55535 3.32247 3.51155 3.52202 2.98587C3.61809 2.73033 3.58853 2.46019 3.67722 2.29957C3.91372 1.87611 4.35715 1.89801 4.7119 1.54756C5.19228 1.0803 5.43617 0.160365 5.68745 0.12386C5.93873 0.0873544 6.35999 0.999985 6.61127 0.919674ZM36.6909 28.1818C36.2918 28.1818 35.9592 28.5176 35.9592 28.9192C35.9592 29.3207 36.2918 29.6566 36.7056 29.6566C37.1195 29.6566 37.4447 29.328 37.4447 28.9192C37.4447 28.5103 37.1195 28.1818 36.6983 28.1818H36.6909ZM36.6983 29.5544C36.3509 29.5544 36.0774 29.2696 36.0774 28.9265C36.0774 28.5833 36.3583 28.2986 36.6909 28.2986H36.6983C37.0382 28.2986 37.3191 28.576 37.3191 28.9265C37.3191 29.2769 37.0456 29.5544 36.6983 29.5544ZM36.7869 28.9849C36.8904 28.9557 36.9569 28.8608 36.9569 28.7513C36.9569 28.5833 36.8387 28.4957 36.6022 28.4957H36.4248V29.3426H36.5874V29.0068L36.8387 29.3426H37.0382L36.7574 28.9849H36.7722H36.7869ZM36.6243 28.8754H36.5948V28.6417H36.6243C36.7426 28.6417 36.7943 28.6783 36.7943 28.7513C36.7943 28.8316 36.7352 28.8754 36.617 28.8754H36.6243Z" fill="black"/>
</g>
<path d="M38.1783 37.7296H40.6423L40.3343 36.5956C40.0123 35.5176 39.7323 34.3276 39.4243 33.2076H39.3683C39.1023 34.3416 38.7943 35.5176 38.4863 36.5956L38.1783 37.7296ZM41.8183 41.9996L41.0903 39.3396H37.7303L37.0023 41.9996H34.9023L38.2203 31.6396H40.6563L43.9883 41.9996H41.8183Z" fill="black"/>
<path d="M22.8848 41.9996V31.6396H25.1808L26.9448 36.4836C27.1688 37.1276 27.3648 37.8136 27.5748 38.4856H27.6448C27.8688 37.8136 28.0508 37.1276 28.2748 36.4836L29.9968 31.6396H32.2928V41.9996H30.4028V37.6736C30.4028 36.6936 30.5568 35.2516 30.6548 34.2716H30.5988L29.7588 36.7076L28.1628 41.0616H26.9728L25.3628 36.7076L24.5368 34.2716H24.4808C24.5788 35.2516 24.7468 36.6936 24.7468 37.6736V41.9996H22.8848Z" fill="black"/>
<path d="M14.9871 42.1956C12.4671 42.1956 10.9551 40.7816 10.9551 37.3376V31.6396H13.0271V37.5196C13.0271 39.6756 13.7691 40.4036 14.9871 40.4036C16.2191 40.4036 17.0031 39.6756 17.0031 37.5196V31.6396H18.9911V37.3376C18.9911 40.7816 17.5211 42.1956 14.9871 42.1956Z" fill="black"/>
<path d="M0.273438 41.9996V31.6396H3.67544C5.97144 31.6396 7.73544 32.4376 7.73544 34.8876C7.73544 37.2536 5.95744 38.3176 3.73144 38.3176H2.34544V41.9996H0.273438ZM2.34544 36.6796H3.59144C5.01944 36.6796 5.70544 36.0776 5.70544 34.8876C5.70544 33.6836 4.94944 33.2776 3.52144 33.2776H2.34544V36.6796Z" fill="black"/>
<defs>
<clipPath id="clip0_1637_7090">
<rect width="39" height="30" fill="white" transform="translate(2)"/>
</clipPath>
</defs>
</svg>
