<svg width="40" height="34" viewBox="0 0 40 34" fill="none" xmlns="http://www.w3.org/2000/svg">
<path d="M5.5491 0.0292109C5.49815 0.138752 5.45447 0.255595 5.39624 0.365136C4.95223 1.13922 4.6174 1.95713 4.39904 2.81154C4.15156 3.78281 4.04965 4.76867 4.36264 5.75454C4.63196 6.58705 5.15604 7.20778 5.91304 7.63864C6.41528 7.92344 6.9612 8.02568 7.52895 8.0841C8.56255 8.18634 9.56704 8.04759 10.5642 7.7993C11.7434 7.49989 12.9226 7.18587 14.1018 6.87185C14.9752 6.64547 15.8414 6.41909 16.7149 6.1854C17.6903 5.9225 18.6583 5.6523 19.6264 5.3894C20.893 5.05348 22.1668 4.72486 23.4333 4.38893C24.3723 4.14064 25.3185 3.89235 26.2575 3.64405C27.2984 3.36655 28.3465 3.08174 29.3874 2.80424C30.6612 2.46101 31.9423 2.11048 33.2234 1.77456C34.1842 1.51896 35.145 1.27067 36.1058 1.01508C37.1976 0.730271 38.2822 0.438163 39.374 0.146054C39.5778 0.0876326 39.7816 0.0292109 40 0C39.5851 0.175265 39.1775 0.343228 38.7626 0.518493C37.8309 0.920142 36.8919 1.31449 35.9602 1.71614C34.9849 2.13239 34.0095 2.54865 33.0341 2.9649C32.1243 3.35195 31.2144 3.73899 30.3045 4.12603C29.4966 4.46926 28.6886 4.79788 27.888 5.14111C26.9999 5.52085 26.1046 5.9079 25.2166 6.28764C24.5178 6.58705 23.8263 6.87916 23.1276 7.17126C22.2323 7.55101 21.337 7.93075 20.4417 8.31779C19.8302 8.58069 19.2261 8.83628 18.6147 9.09918C17.8868 9.40589 17.1662 9.71991 16.4383 10.0266C15.5357 10.4064 14.6331 10.7861 13.7306 11.1732C12.8207 11.5602 11.9181 11.9472 11.0083 12.3343C9.99649 12.7578 8.97745 13.1887 7.90745 13.4589C7.21596 13.6342 6.52447 13.8021 5.81842 13.9117C5.30162 13.992 4.77026 14.0139 4.24618 13.992C3.35816 13.9628 2.49925 13.7583 1.76409 13.2471C0.657697 12.4876 0.0462717 11.4434 0.00259846 10.0704C-0.0337959 8.78516 0.31559 7.60212 0.83239 6.44099C1.47293 5.00966 2.35367 3.73899 3.3436 2.54134C4.01326 1.73074 4.71203 0.94205 5.39624 0.146054C5.43992 0.0949353 5.49815 0.0657244 5.5491 0.0219081V0.0292109Z" fill="black"/>
<path d="M31.1777 33.9996V23.6396H37.5337V25.3616H33.2497V27.7556H36.8897V29.4916H33.2497V32.2636H37.6877V33.9996H31.1777Z" fill="black"/>
<path d="M20.1816 33.9996V23.6396H22.2536V28.1336H22.2956L25.7256 23.6396H28.0076L24.8436 27.7136L28.5676 33.9996H26.2856L23.6116 29.3516L22.2536 31.0876V33.9996H20.1816Z" fill="black"/>
<path d="M14.1602 33.9996V23.6396H16.2322V33.9996H14.1602Z" fill="black"/>
<path d="M2.27344 33.9996V23.6396H4.38744L7.39744 29.1556L8.43344 31.3956H8.50344C8.39144 30.3176 8.23744 28.9456 8.23744 27.7696V23.6396H10.1974V33.9996H8.09744L5.10144 28.4556L4.05144 26.2296H3.98144C4.07944 27.3496 4.23344 28.6516 4.23344 29.8416V33.9996H2.27344Z" fill="black"/>
</svg>
