<svg xmlns="http://www.w3.org/2000/svg" width="41.005" height="40" viewBox="0 0 41.005 40"><g transform="translate(0.504)"><rect width="40" height="40" fill="none"/><path d="M8.043,11.907H7.092a.475.475,0,0,0-.136-.007.423.423,0,0,0-.483.43V21a.392.392,0,0,0,.391.405h5.588a.116.116,0,0,0,.029,0h.051a.393.393,0,0,0,.411-.4q0-.7,0-1.388a.388.388,0,0,0-.372-.394H8.743V12.331a.4.4,0,0,0-.36-.421h-.34M19.329.01a23.321,23.321,0,0,1,12.095,2.9,17.934,17.934,0,0,1,6.461,6.049,13.784,13.784,0,0,1,2.1,6.643,12.926,12.926,0,0,1-1.253,6.244,18.321,18.321,0,0,1-3.114,4.483,35.205,35.205,0,0,1-3.928,3.7c-1.362,1.12-2.772,2.183-4.217,3.2q-2.279,1.611-4.666,3.068c-.8.483-1.612.958-2.449,1.375a4.193,4.193,0,0,1-1.334.444.727.727,0,0,1-.693-.242,1.241,1.241,0,0,1-.109-.837c.1-.657.219-1.312.326-1.969a4.392,4.392,0,0,0-.032-1.75,1.456,1.456,0,0,0-.911-.8,4.529,4.529,0,0,0-1.156-.3A22.279,22.279,0,0,1,7.308,28.8a18.109,18.109,0,0,1-3.776-3.327A15.036,15.036,0,0,1,.767,20.718a13.451,13.451,0,0,1-.627-6.4A14.373,14.373,0,0,1,3.284,7.33,19.051,19.051,0,0,1,9.926,2.216,23.42,23.42,0,0,1,19.329.01M14.057,12.332V21a.389.389,0,0,0,.371.4h1.515a.391.391,0,0,0,.383-.4V12.339a.394.394,0,0,0-.383-.425H14.562a.708.708,0,0,0-.26.03.4.4,0,0,0-.246.4M33.242,21.4a.108.108,0,0,0,.028,0h.052a.394.394,0,0,0,.41-.4V19.616a.389.389,0,0,0-.372-.392H29.532V17.751c1.248-.007,2.5,0,3.747,0h.088a.388.388,0,0,0,.367-.381q0-.7,0-1.39a.391.391,0,0,0-.2-.357.531.531,0,0,0-.3-.051H29.525V14.1h3.788a.393.393,0,0,0,.41-.372V12.3a.393.393,0,0,0-.41-.38h-.054a.1.1,0,0,0-.027,0H27.644a.4.4,0,0,0-.391.423q0,4.337,0,8.67a.391.391,0,0,0,.391.4h5.589M25.615,11.92H24.1a.391.391,0,0,0-.389.382q0,2.529,0,5.058c-1.32-1.76-2.618-3.538-3.934-5.3a.4.4,0,0,0-.334-.139H19.4a.265.265,0,0,0-.044,0H17.977a.393.393,0,0,0-.373.423q0,4.335,0,8.666a.39.39,0,0,0,.373.4h1.518a.391.391,0,0,0,.377-.4q0-2.521,0-5.042,1.954,2.637,3.908,5.278a.392.392,0,0,0,.326.167H25.62a.391.391,0,0,0,.363-.4q0-4.337,0-8.673a.394.394,0,0,0-.361-.421" transform="translate(-0.001 1.004)" fill="#00b900" stroke="rgba(0,0,0,0)" stroke-miterlimit="10" stroke-width="1"/></g></svg>