<svg xmlns="http://www.w3.org/2000/svg" width="40" height="40" viewBox="0 0 40 40"><rect width="40" height="40" fill="none"/><path d="M38.9.6a16.581,16.581,0,0,1-3.1,1.428,16.412,16.412,0,0,1-2.112.566,8.208,8.208,0,0,0-14.2,5.61,8.392,8.392,0,0,0,.21,1.875,23.648,23.648,0,0,1-2.5-.262A23.33,23.33,0,0,1,2.785,1.5,8.21,8.21,0,0,0,5.327,12.458,8.149,8.149,0,0,1,1.608,11.43c0,.037,0,.07,0,.1a8.209,8.209,0,0,0,6.582,8.046,8.239,8.239,0,0,1-2.16.29,8.112,8.112,0,0,1-1.543-.151,8.218,8.218,0,0,0,7.666,5.7A16.457,16.457,0,0,1,1.957,28.936,16.686,16.686,0,0,1,0,28.821,23.219,23.219,0,0,0,8.965,32.23a23.372,23.372,0,0,0,3.615.28c15.1,0,23.351-12.509,23.351-23.353,0-.355-.005-.709-.024-1.06A16.652,16.652,0,0,0,40,3.848a16.456,16.456,0,0,1-4.711,1.292A8.255,8.255,0,0,0,38.9.6" transform="translate(-0.001 3.333)" fill="#1da1f2"/></svg>