<svg xmlns="http://www.w3.org/2000/svg" width="40.997" height="40" viewBox="0 0 40.997 40"><g transform="translate(0.5)"><rect width="40" height="40" fill="none"/><path d="M14.624.067Q21.94-.117,29.258.2C30.842.276,32.427.361,34,.551a7.747,7.747,0,0,1,2.515.615A5.022,5.022,0,0,1,39.2,4.52a33.187,33.187,0,0,1,.68,5.6,67.707,67.707,0,0,1-.055,8.655,28.973,28.973,0,0,1-.641,4.773,5.02,5.02,0,0,1-2.708,3.307,8.747,8.747,0,0,1-2.765.632c-2.429.259-4.873.345-7.315.421q-7.813.232-15.628-.1a49.437,49.437,0,0,1-5.926-.528A5.047,5.047,0,0,1,1.26,24.694a8.669,8.669,0,0,1-.767-2.8A61.475,61.475,0,0,1,0,14.115,64.492,64.492,0,0,1,.436,6.5a9.348,9.348,0,0,1,.883-3.313A5.02,5.02,0,0,1,3.525,1.145a8.843,8.843,0,0,1,2.8-.634c2.757-.289,5.53-.366,8.3-.445M16,8.017V19.979L26.359,14Q21.18,11.005,16,8.017" transform="translate(0 5.556)" fill="red" stroke="rgba(0,0,0,0)" stroke-miterlimit="10" stroke-width="1"/></g></svg>