<svg xmlns="http://www.w3.org/2000/svg" xmlns:xlink="http://www.w3.org/1999/xlink" width="40" height="39.999" viewBox="0 0 40 39.999"><defs><linearGradient id="a" x1="0.027" y1="1" x2="1" gradientUnits="objectBoundingBox"><stop offset="0" stop-color="#f5bb56"/><stop offset="0.256" stop-color="#ef5531"/><stop offset="0.498" stop-color="#dc1e51"/><stop offset="0.793" stop-color="#a71095"/><stop offset="1" stop-color="#622dc6"/></linearGradient></defs><rect width="39.998" height="39.999" fill="none"/><path d="M13.406,38.818a18.687,18.687,0,0,1-6.257-.851A10.034,10.034,0,0,1,.958,31.945C.054,29.66.127,27.165,0,24.751V14.309A32.165,32.165,0,0,1,.6,8.073a10.139,10.139,0,0,1,3.408-5.4A11.983,11.983,0,0,1,10.716.183C11.9.055,13.09.066,14.28.02Q19.848,0,25.425,0A23.006,23.006,0,0,1,32.9.917a10.031,10.031,0,0,1,6.239,6.241c.834,2.288.764,4.759.858,7.158-.048,4.518.109,9.045-.156,13.558a11.281,11.281,0,0,1-3.232,7.739,11.713,11.713,0,0,1-7.57,3.072c-2.063.155-4.128.148-6.191.144-1.29,0-2.582-.011-3.867.028q-.837-.007-1.673,0h-1.08C15.284,38.858,14.345,38.851,13.406,38.818Zm12.709-3.478a19.3,19.3,0,0,0,5.38-.675A6.476,6.476,0,0,0,35.518,31a10.387,10.387,0,0,0,.691-2.948h.011q.17-2.7.133-5.392c.046-2.085.061-4.178,0-6.268a47.263,47.263,0,0,0-.25-6.522,7.006,7.006,0,0,0-2.728-4.75c-2.09-1.527-4.8-1.477-7.264-1.605-4.277-.028-8.565-.035-12.853.054-2.514.094-5.333.254-7.248,2.114C4.229,7.263,3.789,9.758,3.727,12.027c-.137,1.746-.046,3.489-.093,5.235-.029,2.783.015,5.587.015,8.363.1,2.241.137,4.654,1.431,6.576a7.3,7.3,0,0,0,5.345,2.941,46.14,46.14,0,0,0,6.1.214C19.73,35.441,22.923,35.341,26.115,35.341Zm-11.64-7.478a10.015,10.015,0,0,1-4.417-5.957,9.866,9.866,0,0,1,1.258-7.8,10.447,10.447,0,0,1,14.55-2.9A9.982,9.982,0,0,1,30,17.072a9.862,9.862,0,0,1-1.089,7.3,10.3,10.3,0,0,1-7.122,4.892,10.441,10.441,0,0,1-7.316-1.4Zm4.447-14.826a6.8,6.8,0,0,0-4.178,2.429,6.362,6.362,0,0,0-1.194,5.6,6.626,6.626,0,0,0,7.018,4.8,6.739,6.739,0,0,0,4.795-2.613,6.334,6.334,0,0,0,.972-5.871,6.7,6.7,0,0,0-6.313-4.436A6.171,6.171,0,0,0,18.922,13.037Zm9.279-3.4a2.479,2.479,0,0,1,1.544-2.9,2.577,2.577,0,0,1,3.4,1.622,2.493,2.493,0,0,1-1.794,3.088A2.569,2.569,0,0,1,28.2,9.633Z" transform="translate(0.002 1.111)" fill="url(#a)"/></svg>