<svg xmlns="http://www.w3.org/2000/svg" width="40" height="40" viewBox="0 0 40 40"><rect width="40" height="40" transform="translate(0 0)" fill="none"/><path d="M17.731.069,17.48.053C17.007.024,16.534,0,16.041,0a12.786,12.786,0,0,0-1.8.109A9.036,9.036,0,0,0,9.887,1.851a8.21,8.21,0,0,0-2.6,3.543,11.9,11.9,0,0,0-.766,4.025q0,.155,0,.31-.032,1.306-.063,2.612t-.064,2.612L3.28,14.941.173,14.927Q.14,16.26.108,17.593.053,19.815,0,22.037l1.734.007,1.757.007,1.35.006,1.373.006q-.078,3.225-.157,6.45Q5.926,33.888,5.8,39.262a24.231,24.231,0,0,0,3.806.315,24.765,24.765,0,0,0,3.833-.282q.079-3.225.158-6.45.052-2.15.1-4.3.078-3.225.158-6.45l1.579.006,1.547.006,1.247.005,1.316.006q.636-3.552,1.267-7.105l-2.06-.008L16.669,15l-1.291-.006-1.35-.006q.019-.816.039-1.631t.04-1.631q.013-.544.026-1.087c0-.057,0-.113,0-.17a5.608,5.608,0,0,1,.144-1.18,3.421,3.421,0,0,1,1.214-1.953,4.148,4.148,0,0,1,2.392-.771l.293-.005c.383,0,.766-.005,1.189,0l.329,0,.346,0,.36,0,.327,0H21.3q.014-.566.028-1.132.032-1.32.064-2.641.027-1.131.057-2.264c-1.2-.207-2.418-.358-3.719-.456" transform="translate(8.795 0)" fill="#1d4b97"/></svg>